<?xml version="1.0" encoding="iso-8859-1"?>
<!-- Generator: Adobe Illustrator 19.0.0, SVG Export Plug-In . SVG Version: 6.00 Build 0)  -->
<svg version="1.1" id="Capa_1" xmlns="http://www.w3.org/2000/svg" xmlns:xlink="http://www.w3.org/1999/xlink" x="0px" y="0px"
	 viewBox="0 0 512.001 512.001" style="enable-background:new 0 0 512.001 512.001;" xml:space="preserve">
<polygon style="fill:#E0E0E0;" points="442.004,504.514 157.647,504.514 69.995,416.862 69.995,7.486 442.004,7.486 "/>
<rect x="417.051" y="7.486" style="fill:#C6C5CA;" width="24.954" height="497.024"/>
<rect x="155.742" y="203.635" style="fill:#FFD039;" width="200.52" height="151.8"/>
<g>
	<rect x="331.309" y="203.635" style="fill:#FFAE47;" width="24.954" height="151.8"/>
	<path style="fill:#FFAE47;" d="M194.549,203.635v-21.816c0-33.884,27.566-61.451,61.451-61.451s61.451,27.566,61.451,61.451v21.816
		h25.183v-21.816c0-47.77-38.863-86.633-86.634-86.633c-47.77,0-86.633,38.863-86.633,86.633v21.816H194.549z"/>
</g>
<path style="fill:#546F7A;" d="M277.878,258.137c0-12.083-9.795-21.879-21.879-21.879c-12.083,0-21.879,9.795-21.879,21.879
	c0,7.858,4.145,14.745,10.365,18.603v28.852c0,6.332,5.18,11.513,11.513,11.513l0,0c6.332,0,11.513-5.18,11.513-11.513V276.74
	C273.733,272.882,277.878,265.995,277.878,258.137z"/>
<polygon style="fill:#919191;" points="157.647,416.863 69.995,416.863 157.647,504.514 "/>
<path d="M155.738,292.568c-4.134,0-7.486,3.352-7.486,7.486v55.382c0,4.134,3.352,7.486,7.486,7.486h200.523
	c4.134,0,7.486-3.352,7.486-7.486V203.635c0-4.134-3.352-7.486-7.486-7.486h-6.142v-14.33c0-51.897-42.222-94.119-94.119-94.119
	s-94.119,42.221-94.119,94.119v14.33h-6.142c-4.134,0-7.486,3.352-7.486,7.486v66.474c0,4.134,3.352,7.486,7.486,7.486
	c4.134,0,7.486-3.352,7.486-7.486v-58.988h6.142h25.183h122.901h25.183h6.142v136.829H163.225v-47.896
	C163.225,295.919,159.873,292.568,155.738,292.568z M309.964,196.148H202.035v-14.33c0-29.756,24.208-53.964,53.965-53.964
	s53.965,24.208,53.965,53.964V196.148z M324.936,196.148v-14.33c0-38.012-30.925-68.936-68.937-68.936s-68.937,30.925-68.937,68.936
	v14.33h-10.21v-14.33c0-43.642,35.506-79.147,79.147-79.147c43.643,0,79.147,35.505,79.147,79.147v14.33H324.936z"/>
<path d="M255.999,324.591c10.477,0,18.999-8.523,18.999-18.999v-25.061c6.557-5.538,10.365-13.637,10.365-22.395
	c0-16.192-13.173-29.365-29.364-29.365s-29.365,13.173-29.365,29.365c0,8.757,3.808,16.856,10.365,22.395v25.061
	C237.001,316.067,245.523,324.591,255.999,324.591z M255.999,243.745c7.935,0,14.391,6.456,14.391,14.392
	c0,5.014-2.551,9.59-6.824,12.241c-2.201,1.366-3.54,3.771-3.54,6.362v28.852c0,2.183-1.845,4.027-4.027,4.027
	c-2.183,0-4.027-1.844-4.027-4.027V276.74c0-2.59-1.34-4.997-3.54-6.362c-4.273-2.65-6.824-7.227-6.824-12.241
	C241.607,250.201,248.064,243.745,255.999,243.745z"/>
<path d="M442.004,419.389c-4.134,0-7.486,3.352-7.486,7.486v70.154H165.133v-80.165c0-4.134-3.352-7.486-7.486-7.486H77.482V115.175
	c0-4.134-3.352-7.486-7.486-7.486s-7.486,3.352-7.486,7.486v301.687c0,0.085,0.01,0.168,0.013,0.253
	c0.003,0.085,0.007,0.17,0.013,0.255c0.021,0.315,0.056,0.628,0.117,0.935c0.002,0.008,0.002,0.015,0.003,0.023
	c0.063,0.314,0.153,0.621,0.255,0.923c0.028,0.082,0.057,0.163,0.087,0.244c0.105,0.279,0.223,0.553,0.36,0.818
	c0.012,0.024,0.021,0.048,0.034,0.072c0.15,0.28,0.324,0.548,0.509,0.809c0.052,0.074,0.106,0.146,0.161,0.218
	c0.191,0.25,0.393,0.491,0.617,0.717c0.009,0.009,0.016,0.02,0.025,0.029l87.651,87.65c0.177,0.177,0.361,0.343,0.553,0.5
	c0.097,0.08,0.2,0.149,0.3,0.223c0.098,0.072,0.193,0.149,0.293,0.217c0.118,0.079,0.242,0.146,0.363,0.218
	c0.09,0.053,0.176,0.11,0.268,0.159c0.122,0.065,0.249,0.119,0.373,0.177c0.097,0.045,0.192,0.095,0.29,0.136
	c0.117,0.048,0.238,0.086,0.356,0.128c0.111,0.039,0.221,0.084,0.333,0.118c0.115,0.035,0.233,0.059,0.349,0.088
	c0.12,0.03,0.238,0.065,0.359,0.089c0.126,0.025,0.253,0.038,0.379,0.057c0.115,0.017,0.229,0.039,0.344,0.051
	c0.213,0.021,0.426,0.029,0.641,0.032c0.031,0,0.061,0.005,0.091,0.005h284.357c4.134,0,7.486-3.352,7.486-7.486v-77.64
	C449.49,422.741,446.138,419.389,442.004,419.389z M150.161,486.441L88.07,424.35h62.091V486.441z"/>
<path d="M442.004,0H69.995c-4.134,0-7.486,3.352-7.486,7.486V85.23c0,4.134,3.352,7.486,7.486,7.486s7.486-3.352,7.486-7.486V14.972
	h357.036V396.93c0,4.134,3.352,7.486,7.486,7.486s7.486-3.352,7.486-7.486V7.486C449.49,3.352,446.138,0,442.004,0z"/>
<g>
</g>
<g>
</g>
<g>
</g>
<g>
</g>
<g>
</g>
<g>
</g>
<g>
</g>
<g>
</g>
<g>
</g>
<g>
</g>
<g>
</g>
<g>
</g>
<g>
</g>
<g>
</g>
<g>
</g>
</svg>
