<?xml version="1.0" encoding="iso-8859-1"?>
<!-- Generator: Adobe Illustrator 19.0.0, SVG Export Plug-In . SVG Version: 6.00 Build 0)  -->
<svg version="1.1" id="Capa_1" xmlns="http://www.w3.org/2000/svg" xmlns:xlink="http://www.w3.org/1999/xlink" x="0px" y="0px"
	 viewBox="0 0 512 512" style="enable-background:new 0 0 512 512;" xml:space="preserve">
<path style="fill:#FF434D;" d="M146.663,293.391l13.927-13.927c-0.118-1.763-0.2-3.537-0.2-5.33
	c0-43.378,35.164-78.542,78.542-78.542s78.542,35.164,78.542,78.542c0,43.378-35.164,78.543-78.542,78.543
	c-1.916,0-3.81-0.093-5.691-0.228l-51.443,51.443c7.47,3.29,15.264,5.977,23.342,7.953l6.369,44.866h54.847l6.369-44.866
	c14.185-3.469,27.536-9.063,39.688-16.441l36.23,27.223l38.782-38.783l-27.223-36.23c7.379-12.151,12.972-25.502,16.441-39.688
	l44.866-6.369v-54.847l-44.866-6.369c-3.469-14.185-9.062-27.536-16.441-39.688l27.223-36.23l-38.782-38.783l-36.23,27.223
	c-12.15-7.378-25.502-12.972-39.688-16.441l-6.369-44.865h-54.847l-6.369,44.866c-14.185,3.469-27.536,9.062-39.688,16.441
	l-36.23-27.223l-38.783,38.783l27.223,36.23c-7.378,12.151-12.972,25.502-16.441,39.688l-44.865,6.369v54.847l44.865,6.369
	c1.951,7.981,4.599,15.685,7.835,23.072l16.321-16.321"/>
<g>
	<path style="fill:#DD3646;" d="M335.209,200.655c7.379,12.151,12.972,25.502,16.441,39.688l25.148,3.57v-3.548l-0.156-0.022
		c-3.469-14.185-9.062-27.536-16.441-39.688l27.223-36.23l-38.782-38.783l-14.27,10.723l28.06,28.06L335.209,200.655z"/>
	<path style="fill:#DD3646;" d="M376.642,307.926l0.156-0.022v-3.548l-25.148,3.57c-3.469,14.186-9.062,27.536-16.441,39.688
		l27.223,36.23l-28.06,28.06l14.27,10.723l38.782-38.783l-27.223-36.23C367.58,335.463,373.173,322.111,376.642,307.926z"/>
	<polygon style="fill:#DD3646;" points="396.516,243.163 396.516,246.71 396.516,301.557 396.516,305.105 421.508,301.557 
		421.508,246.71 	"/>
</g>
<path style="fill:#546F7A;" d="M496.37,54.184l-37.681-37.681c-9.703-9.703-25.434-9.703-35.136,0L390.95,49.104l72.817,72.817
	L496.37,89.32C506.072,79.617,506.072,63.886,496.37,54.184z"/>
<polygon style="fill:#FFC89F;" points="8.369,504.502 120.878,464.737 48.136,391.994 "/>
<polygon style="fill:#F7B081;" points="102.985,446.843 18.151,476.827 8.369,504.502 120.878,464.737 "/>
<rect x="356.179" y="77.357" transform="matrix(0.7071 0.7071 -0.7071 0.7071 193.8002 -257.448)" style="fill:#FF6137;" width="102.977" height="55.713"/>
<g>
	<path style="fill:#FFD039;" d="M244.263,195.792L48.098,391.956l72.817,72.817l196.331-196.331
		C314.454,229.487,283.268,198.409,244.263,195.792z"/>
	<path style="fill:#FFD039;" d="M351.555,88.5l-55.759,55.759c5.743,2.516,11.3,5.379,16.616,8.606l36.23-27.223l38.782,38.783
		l-27.223,36.23c3.177,5.231,6,10.698,8.488,16.345l55.683-55.683L351.555,88.5z"/>
</g>
<path style="fill:#475D63;" d="M496.37,54.184l-17.993-17.993c9.701,9.703,9.701,25.433-0.001,35.135l-32.602,32.601l17.994,17.994
	L496.37,89.32C506.072,79.617,506.072,63.886,496.37,54.184z"/>
<rect x="407.213" y="119.901" transform="matrix(-0.7071 0.7071 -0.7071 -0.7071 836.4905 -81.2366)" style="fill:#E04F32;" width="55.713" height="25.448"/>
<path style="fill:#FFA304;" d="M406.377,143.322l-18.954,21.102l-27.223,36.23c3.177,5.231,6,10.698,8.488,16.345l55.683-55.683
	L406.377,143.322z"/>
<g>
	<path style="fill:#FFD039;" d="M8.684,101.397l18.245,8.177c7.557,3.387,13.603,9.433,16.99,16.99l8.177,18.245l8.177-18.245
		c3.387-7.557,9.433-13.603,16.99-16.99l18.245-8.177l-18.245-8.177c-7.557-3.387-13.603-9.433-16.99-16.99l-8.177-18.245
		l-8.177,18.245c-3.386,7.556-9.433,13.603-16.99,16.99L8.684,101.397z"/>
	<path style="fill:#FFD039;" d="M403.886,430.054l18.245,8.177c7.557,3.387,13.603,9.433,16.99,16.99l8.177,18.245l8.177-18.245
		c3.387-7.557,9.433-13.603,16.99-16.99l18.245-8.177l-18.245-8.177c-7.557-3.387-13.603-9.433-16.99-16.99l-8.177-18.245
		l-8.177,18.245c-3.386,7.557-9.433,13.603-16.99,16.99L403.886,430.054z"/>
	<path style="fill:#FFD039;" d="M255.359,46.073l16.213,7.266c6.714,3.009,12.087,8.382,15.096,15.097l7.266,16.213l7.267-16.213
		c3.009-6.714,8.382-12.087,15.097-15.097l16.213-7.266l-16.213-7.266c-6.714-3.009-12.087-8.382-15.097-15.096l-7.267-16.213
		l-7.266,16.213c-3.009,6.714-8.382,12.087-15.096,15.096L255.359,46.073z"/>
</g>
<polygon style="fill:#3C5156;" points="8.369,504.502 60.874,485.945 26.927,451.998 "/>
<path style="fill:#FFA304;" d="M299.252,250.448L102.921,446.779l17.994,17.994l196.331-196.331
	c-0.737-10.284-3.46-20.014-7.779-28.818L299.252,250.448z"/>
<g>
	<polygon style="fill:#DD3646;" points="247.732,411.844 241.364,456.71 266.356,456.71 272.724,411.844 	"/>
	<polygon style="fill:#DD3646;" points="241.364,91.559 266.356,91.559 272.724,136.424 247.732,136.424 	"/>
</g>
<path d="M5.618,108.237l18.245,8.177c5.884,2.638,10.578,7.331,13.214,13.215l8.177,18.245c1.209,2.696,3.888,4.432,6.842,4.432
	c2.955,0,5.633-1.734,6.842-4.432l8.177-18.245c2.637-5.884,7.33-10.577,13.214-13.215l18.245-8.177
	c2.696-1.208,4.432-3.888,4.432-6.842s-1.735-5.634-4.432-6.842L80.33,86.376c-5.884-2.638-10.578-7.331-13.214-13.215
	l-8.177-18.245c-1.209-2.696-3.888-4.432-6.842-4.432c-2.955,0-5.633,1.734-6.842,4.432l-8.177,18.245
	c-2.637,5.884-7.331,10.577-13.214,13.215L5.618,94.555c-2.696,1.208-4.432,3.888-4.432,6.842
	C1.186,104.351,2.922,107.03,5.618,108.237z M29.996,100.061c9.247-4.145,16.621-11.518,20.766-20.765l1.335-2.979l1.335,2.979
	c4.145,9.246,11.519,16.621,20.766,20.765l2.979,1.336l-2.979,1.336c-9.246,4.145-16.621,11.518-20.766,20.765l-1.335,2.979
	l-1.335-2.979c-4.145-9.246-11.518-16.621-20.766-20.765l-2.979-1.336L29.996,100.061z"/>
<path d="M493.776,423.213l-18.245-8.177c-5.884-2.638-10.577-7.331-13.215-13.215l-8.177-18.245
	c-1.208-2.696-3.888-4.432-6.842-4.432s-5.634,1.734-6.842,4.432l-8.177,18.245c-2.638,5.884-7.33,10.577-13.214,13.215
	l-18.246,8.177c-2.696,1.208-4.432,3.888-4.432,6.842s1.734,5.634,4.432,6.842l18.246,8.177c5.884,2.638,10.576,7.331,13.214,13.215
	l8.177,18.245c1.208,2.696,3.888,4.432,6.842,4.432s5.634-1.734,6.842-4.432l8.177-18.245c2.638-5.884,7.331-10.577,13.215-13.215
	l18.245-8.177c2.696-1.208,4.432-3.888,4.432-6.842S496.473,424.42,493.776,423.213z M469.398,431.389
	c-9.246,4.145-16.621,11.518-20.765,20.766l-1.336,2.979l-1.336-2.979c-4.144-9.246-11.517-16.621-20.764-20.766l-2.979-1.336
	l2.979-1.336c9.246-4.145,16.62-11.518,20.764-20.765l1.336-2.979l1.336,2.979c4.145,9.246,11.518,16.621,20.765,20.765l2.979,1.336
	L469.398,431.389z"/>
<path d="M252.292,52.915l16.212,7.267c5.041,2.26,9.062,6.281,11.321,11.321l7.266,16.213c1.208,2.696,3.888,4.432,6.842,4.432
	s5.634-1.734,6.842-4.432l7.267-16.212c2.26-5.041,6.281-9.062,11.322-11.322l16.213-7.267c2.696-1.208,4.432-3.888,4.432-6.842
	c0-2.955-1.735-5.634-4.432-6.842l-16.212-7.266c-5.041-2.26-9.062-6.281-11.322-11.321l-7.266-16.212
	C299.569,1.734,296.888,0,293.934,0s-5.634,1.734-6.842,4.432l-7.266,16.213c-2.259,5.04-6.28,9.061-11.32,11.32l-16.213,7.266
	c-2.696,1.209-4.432,3.888-4.432,6.843C247.861,49.027,249.596,51.707,252.292,52.915z M274.639,45.649
	c8.402-3.768,15.104-10.47,18.87-18.872l0.425-0.947l0.425,0.948c3.767,8.402,10.469,15.104,18.872,18.871l0.946,0.424l-0.947,0.425
	c-8.402,3.767-15.104,10.469-18.871,18.872l-0.425,0.947l-0.425-0.947c-3.766-8.402-10.468-15.104-18.871-18.872l-0.946-0.425
	L274.639,45.649z"/>
<path d="M501.671,48.881l-37.68-37.68c-12.611-12.609-33.129-12.609-45.74,0c-2.928,2.929-2.928,7.676,0,10.605
	c2.929,2.927,7.676,2.927,10.604,0c6.764-6.764,17.766-6.764,24.532,0l37.68,37.679c6.764,6.765,6.764,17.77,0.001,24.534
	l-27.301,27.3l-62.214-62.215l5.419-5.418c2.929-2.928,2.929-7.676,0.001-10.603c-2.928-2.928-7.676-2.929-10.603-0.001
	l-10.713,10.712c-0.003,0.003-0.007,0.006-0.01,0.009l-39.395,39.396l-52.199,52.198c-4.776-1.897-9.645-3.561-14.606-4.956
	l-5.668-39.934c-0.525-3.697-3.689-6.444-7.424-6.444H211.51c-3.734,0-6.899,2.747-7.424,6.444l-5.668,39.935
	c-11.317,3.183-22.192,7.687-32.442,13.438l-32.248-24.229c-2.984-2.243-7.165-1.947-9.806,0.692l-38.783,38.782
	c-2.64,2.641-2.936,6.821-0.693,9.806l24.23,32.249c-5.751,10.248-10.256,21.122-13.439,32.441l-39.936,5.669
	c-3.697,0.525-6.444,3.69-6.444,7.424v54.847c0,3.734,2.747,6.898,6.444,7.424l39.939,5.668c1.388,4.912,3.047,9.796,4.959,14.6
	l-57.404,57.403c-0.984,0.984-1.657,2.215-1.978,3.545l-20.959,59.299l-0.001,0.001L1.3,502.004
	c-0.963,2.723-0.275,5.757,1.767,7.801C4.498,511.235,6.415,512,8.37,512c0.837,0,1.681-0.14,2.498-0.429l111.803-39.517
	c1.299-0.312,2.532-0.966,3.546-1.979l57.322-57.322c4.892,1.959,9.868,3.656,14.876,5.07l5.669,39.939
	c0.525,3.697,3.69,6.444,7.424,6.444h54.847c3.734,0,6.898-2.747,7.424-6.444l5.668-39.935c11.318-3.183,22.192-7.687,32.442-13.438
	l32.249,24.229c2.983,2.242,7.164,1.946,9.806-0.692l38.782-38.784c2.64-2.64,2.935-6.82,0.692-9.805l-24.23-32.248
	c5.752-10.251,10.257-21.125,13.439-32.442l39.935-5.668c3.697-0.525,6.444-3.689,6.444-7.424v-54.847
	c0-3.733-2.747-6.898-6.444-7.424l-39.935-5.669c-1.423-5.057-3.123-10.02-5.066-14.884l52.115-52.115l39.395-39.395l32.602-32.602
	C514.281,82.012,514.281,61.493,501.671,48.881z M424.373,150.713L362.159,88.5l28.791-28.792l62.214,62.215L424.373,150.713z
	 M107.168,461.63L62.833,477.3l-27.262-27.261l15.67-44.335l27.963,27.963L107.168,461.63z M20.668,492.202l9.365-26.495
	l17.131,17.131L20.668,492.202z M414.01,253.219v41.83l-38.422,5.453c-3.035,0.431-5.502,2.665-6.23,5.643
	c-3.244,13.264-8.48,25.907-15.566,37.577c-1.591,2.62-1.427,5.944,0.415,8.394l23.312,31.026l-29.577,29.578l-31.026-23.312
	c-2.451-1.842-5.773-2.006-8.394-0.415c-11.668,7.085-24.31,12.322-37.577,15.566c-2.978,0.728-5.212,3.194-5.643,6.229
	l-5.453,38.422h-41.83l-5.453-38.422c-0.431-3.035-2.665-5.502-5.643-6.229c-3.928-0.961-7.848-2.117-11.728-3.46l40.981-40.98
	c0.958,0.035,1.867,0.053,2.759,0.053c47.442,0,86.039-38.597,86.039-86.039c0-2.079-0.1-4.134-0.246-6.177
	c-0.001-0.017,0-0.033-0.001-0.05c-0.004-0.052-0.011-0.103-0.015-0.155c-0.094-1.275-0.212-2.541-0.361-3.8
	c-0.001-0.007-0.002-0.014-0.003-0.021c-4.83-40.674-38.132-72.72-79.365-75.601c-0.073-0.005-0.144-0.015-0.217-0.02
	c-0.016-0.001-0.031,0-0.047-0.001c-1.914-0.128-3.839-0.216-5.785-0.216c-47.442,0-86.039,38.597-86.039,86.039
	c0,0.773,0.013,1.561,0.04,2.385l-11.57,11.57c-0.183,0.183-0.355,0.373-0.515,0.57c-1.121,1.375-1.681,3.053-1.681,4.733
	c0,1.919,0.732,3.838,2.196,5.301c0.183,0.183,0.373,0.354,0.57,0.515c2.159,1.76,5.071,2.138,7.554,1.132
	c0.903-0.366,1.748-0.915,2.48-1.646l95.117-95.118c32.461,3.728,58.483,29.624,62.366,62.064l-23.473,23.472
	c-2.928,2.929-2.928,7.676,0,10.604c1.465,1.464,3.384,2.195,5.302,2.195s3.838-0.732,5.302-2.195l12.096-12.096
	c-5.476,28.378-27.883,50.785-56.262,56.262l22.879-22.878c2.928-2.929,2.928-7.676,0-10.604c-2.929-2.927-7.676-2.927-10.604,0
	l-36.748,36.749c-0.001,0.001-0.002,0.001-0.002,0.002l-51.443,51.443c-0.002,0.002-0.003,0.004-0.005,0.005l-55.576,55.577
	L89.81,423.066l-31.108-31.109l71.978-71.977c0.732-0.732,1.282-1.578,1.647-2.48c0.366-0.903,0.549-1.862,0.549-2.821
	c0-1.918-0.732-3.838-2.196-5.302c-0.732-0.732-1.578-1.281-2.48-1.646c-2.256-0.915-4.868-0.686-6.947,0.686
	c-0.416,0.274-0.811,0.595-1.177,0.961l-8.21,8.209c-1.301-3.789-2.424-7.612-3.361-11.44c-0.728-2.977-3.195-5.212-6.229-5.643
	l-38.422-5.453v-41.83l38.422-5.454c3.034-0.431,5.501-2.665,6.229-5.641c3.245-13.269,8.482-25.911,15.566-37.577
	c1.591-2.62,1.427-5.944-0.415-8.395l-23.313-31.026l29.579-29.578l31.026,23.312c2.451,1.842,5.775,2.005,8.395,0.415
	c11.668-7.086,24.311-12.322,37.576-15.566c2.978-0.729,5.211-3.194,5.643-6.23l5.453-38.422h41.83l5.453,38.421
	c0.431,3.034,2.665,5.501,5.641,6.229c7.497,1.833,14.784,4.326,21.819,7.406c0.009,0.004,0.017,0.009,0.026,0.013
	c1.371,0.601,2.727,1.222,4.068,1.861c0.025,0.012,0.05,0.024,0.075,0.036c1.27,0.607,2.523,1.232,3.762,1.87
	c0.336,0.174,0.668,0.356,1.003,0.533c0.957,0.504,1.91,1.012,2.846,1.535c1.338,0.751,2.667,1.517,3.981,2.314
	c0.655,0.398,1.355,0.686,2.073,0.865c2.155,0.539,4.486,0.1,6.322-1.281l31.027-23.312l29.577,29.576l-23.312,31.027
	c-0.921,1.225-1.422,2.668-1.495,4.134c-0.072,1.465,0.284,2.951,1.08,4.262c0.791,1.302,1.549,2.62,2.294,3.946
	c0.499,0.894,0.984,1.802,1.467,2.715c0.195,0.367,0.393,0.732,0.584,1.1c0.613,1.186,1.213,2.384,1.794,3.598
	c0.026,0.055,0.053,0.109,0.079,0.163c0.624,1.305,1.232,2.624,1.818,3.956c0.005,0.012,0.013,0.023,0.019,0.036
	c3.13,7.111,5.658,14.48,7.513,22.064c0.728,2.978,3.194,5.212,6.23,5.643L414.01,253.219z M224.977,204.474l-55.705,55.706
	C174.872,232.179,196.977,210.074,224.977,204.474z M369.188,201.177l24.229-32.249c2.242-2.984,1.947-7.165-0.692-9.806
	l-38.782-38.782c-2.642-2.64-6.823-2.937-9.806-0.692l-32.249,24.23c-1.097-0.616-2.204-1.21-3.315-1.796l42.98-42.979
	l62.214,62.214l-42.922,42.922C370.304,203.214,369.757,202.19,369.188,201.177z"/>
<g>
</g>
<g>
</g>
<g>
</g>
<g>
</g>
<g>
</g>
<g>
</g>
<g>
</g>
<g>
</g>
<g>
</g>
<g>
</g>
<g>
</g>
<g>
</g>
<g>
</g>
<g>
</g>
<g>
</g>
</svg>
