<?xml version="1.0" encoding="iso-8859-1"?>
<!-- Generator: Adobe Illustrator 19.0.0, SVG Export Plug-In . SVG Version: 6.00 Build 0)  -->
<svg version="1.1" id="Capa_1" xmlns="http://www.w3.org/2000/svg" xmlns:xlink="http://www.w3.org/1999/xlink" x="0px" y="0px"
	 viewBox="0 0 512 512" style="enable-background:new 0 0 512 512;" xml:space="preserve">
<path style="fill:#546F7A;" d="M489.533,479.047H22.467c-8.272,0-14.978-6.706-14.978-14.978V139.447
	c0-8.272,6.706-14.978,14.978-14.978h467.067c8.272,0,14.978,6.706,14.978,14.978V464.07
	C504.511,472.341,497.805,479.047,489.533,479.047z"/>
<path style="fill:#475D63;" d="M489.533,454.084H22.467c-8.272,0-14.978-6.706-14.978-14.978v24.963
	c0,8.272,6.706,14.978,14.978,14.978h467.067c8.272,0,14.978-6.706,14.978-14.978v-24.963
	C504.511,447.378,497.805,454.084,489.533,454.084z"/>
<rect x="7.489" y="176.948" style="fill:#678993;" width="441.704" height="249.619"/>
<rect x="7.489" y="176.948" style="fill:#3C5156;" width="98.883" height="249.619"/>
<circle style="fill:#29373A;" cx="56.935" cy="301.753" r="22.846"/>
<rect x="67.794" y="32.952" style="fill:#546F7A;" width="384.399" height="58.523"/>
<rect x="67.794" y="66.512" style="fill:#475D63;" width="384.399" height="24.963"/>
<path style="fill:#3C5156;" d="M452.192,85.592h28.571c12.911,0,23.377-10.466,23.377-23.377l0,0
	c0-12.911-10.466-23.377-23.377-23.377h-28.571V85.592z"/>
<path style="fill:#304144;" d="M480.762,60.63h-28.571v24.963h28.571c12.911,0,23.377-10.466,23.377-23.377
	c0-4.591-1.329-8.869-3.615-12.481C496.381,56.279,489.082,60.63,480.762,60.63z"/>
<polygon style="fill:#3C5156;" points="19.791,62.215 67.794,32.953 67.794,91.477 "/>
<polygon style="fill:#304144;" points="19.791,62.215 67.794,91.477 67.794,66.514 40.267,49.734 "/>
<path d="M489.533,116.98h-64.505c-4.136,0-7.489,3.353-7.489,7.489c0,4.136,3.353,7.489,7.489,7.489h64.505
	c4.13,0,7.489,3.359,7.489,7.489V464.07c0,4.13-3.359,7.489-7.489,7.489H22.467c-4.13,0-7.489-3.359-7.489-7.489v-30.015h91.395
	h80.546c4.136,0,7.489-3.353,7.489-7.489s-3.353-7.489-7.489-7.489h-73.058V184.44h327.845v234.637H216.875
	c-4.136,0-7.489,3.353-7.489,7.489s3.353,7.489,7.489,7.489h232.321c4.136,0,7.489-3.353,7.489-7.489V176.951
	c0-4.136-3.353-7.489-7.489-7.489H106.373H14.978v-30.015c0-4.13,3.359-7.489,7.489-7.489h372.606c4.136,0,7.489-3.353,7.489-7.489
	c0-4.136-3.353-7.489-7.489-7.489H22.467C10.078,116.98,0,127.058,0,139.447v37.504v249.614v37.504
	c0,12.389,10.078,22.467,22.467,22.467h467.067c12.389,0,22.467-10.078,22.467-22.467V139.447
	C512,127.058,501.921,116.98,489.533,116.98z M98.884,184.44v234.637H14.978V184.44H98.884z"/>
<path d="M56.93,332.094c16.727,0,30.335-13.608,30.335-30.335c0-16.727-13.608-30.335-30.335-30.335
	c-16.726,0-30.335,13.608-30.335,30.335C26.596,318.485,40.204,332.094,56.93,332.094z M56.93,286.4
	c8.468,0,15.357,6.889,15.357,15.357c0,8.468-6.889,15.357-15.357,15.357c-8.467,0-15.357-6.889-15.357-15.357
	C41.573,293.289,48.463,286.4,56.93,286.4z"/>
<path d="M41.833,255.905h30.624c4.136,0,7.489-3.353,7.489-7.489c0-4.136-3.353-7.489-7.489-7.489H41.833
	c-4.136,0-7.489,3.353-7.489,7.489C34.344,252.553,37.696,255.905,41.833,255.905z"/>
<path d="M41.833,227.711h30.624c4.136,0,7.489-3.353,7.489-7.489s-3.353-7.489-7.489-7.489H41.833c-4.136,0-7.489,3.353-7.489,7.489
	S37.696,227.711,41.833,227.711z"/>
<path d="M72.455,372.825H41.833c-4.136,0-7.489,3.353-7.489,7.489c0,4.136,3.353,7.489,7.489,7.489h30.624
	c4.136,0,7.489-3.353,7.489-7.489C79.945,376.178,76.592,372.825,72.455,372.825z"/>
<path d="M72.455,344.632H41.833c-4.136,0-7.489,3.353-7.489,7.489s3.353,7.489,7.489,7.489h30.624c4.136,0,7.489-3.353,7.489-7.489
	C79.944,347.985,76.592,344.632,72.455,344.632z"/>
<path d="M8.463,69.703h9.225L63.897,97.87c0.032,0.02,0.067,0.032,0.099,0.051c0.255,0.151,0.517,0.29,0.79,0.409
	c0.015,0.007,0.03,0.015,0.045,0.022c0.288,0.124,0.586,0.228,0.891,0.315c0.064,0.019,0.128,0.033,0.192,0.05
	c0.239,0.062,0.481,0.112,0.728,0.15c0.078,0.012,0.155,0.026,0.233,0.036c0.303,0.037,0.609,0.063,0.922,0.063h98.309
	c4.136,0,7.489-3.353,7.489-7.489s-3.353-7.489-7.489-7.489h-90.82V40.442h369.419v43.545H196.06c-4.136,0-7.489,3.353-7.489,7.489
	s3.353,7.489,7.489,7.489h256.132c3.585,0,6.576-2.52,7.312-5.884h21.258c17.02,0,30.866-13.846,30.866-30.867
	c0-17.02-13.846-30.866-30.866-30.866h-21.258c-0.735-3.364-3.727-5.884-7.312-5.884H67.795c-0.026,0-0.05,0.004-0.076,0.004
	c-0.076,0.001-0.152,0.008-0.228,0.011c-0.23,0.009-0.457,0.027-0.682,0.057c-0.086,0.011-0.172,0.025-0.258,0.039
	c-0.24,0.04-0.476,0.092-0.708,0.154c-0.056,0.015-0.112,0.027-0.168,0.043c-0.297,0.087-0.585,0.191-0.865,0.313
	c-0.031,0.014-0.061,0.03-0.092,0.044c-0.249,0.112-0.488,0.239-0.721,0.376c-0.033,0.02-0.069,0.033-0.102,0.053L17.689,54.725
	H8.463c-4.136,0-7.489,3.353-7.489,7.489S4.328,69.703,8.463,69.703z M496.651,62.214c0,8.761-7.127,15.889-15.888,15.889h-21.082
	V46.326h21.082C489.522,46.326,496.651,53.454,496.651,62.214z M60.306,46.289v31.852L34.179,62.214L60.306,46.289z"/>
<g>
</g>
<g>
</g>
<g>
</g>
<g>
</g>
<g>
</g>
<g>
</g>
<g>
</g>
<g>
</g>
<g>
</g>
<g>
</g>
<g>
</g>
<g>
</g>
<g>
</g>
<g>
</g>
<g>
</g>
</svg>
