<?xml version="1.0" encoding="iso-8859-1"?>
<!-- Generator: Adobe Illustrator 19.0.0, SVG Export Plug-In . SVG Version: 6.00 Build 0)  -->
<svg version="1.1" id="Capa_1" xmlns="http://www.w3.org/2000/svg" xmlns:xlink="http://www.w3.org/1999/xlink" x="0px" y="0px"
	 viewBox="0 0 512 512" style="enable-background:new 0 0 512 512;" xml:space="preserve">
<path style="fill:#E0E0E0;" d="M85.235,36.826v438.316c0,0,246.597-0.684,273.055,0c25.315-0.685,45.631-21.407,45.631-46.888
	V36.826H85.235z"/>
<path style="fill:#546F7A;" d="M441.392,426.949v28.253c0,8.409,6.817,15.225,15.225,15.225h32.654
	c8.409,0,15.225-6.817,15.225-15.225v-28.253H441.392z"/>
<rect x="441.388" y="392.811" style="fill:#FF6137;" width="63.106" height="34.139"/>
<polygon style="fill:#FFC89F;" points="472.944,47.718 441.424,113.631 504.464,113.631 "/>
<path style="fill:#919191;" d="M310.589,426.186H7.504c0,27.055,21.932,48.989,48.989,48.989h303.084
	C332.522,475.174,310.589,453.241,310.589,426.186z"/>
<path style="fill:#C6C5CA;" d="M378.906,36.826v391.427c0,21.165-14.022,39.034-33.278,44.877c4.029,1.195,8.272,1.897,12.661,2.011
	c25.315-0.685,45.631-21.407,45.631-46.888V36.826H378.906z"/>
<rect x="441.388" y="113.704" style="fill:#FFD039;" width="63.106" height="279.107"/>
<path style="fill:#475D63;" d="M478.482,426.949v28.253c0,8.409-6.817,15.225-15.225,15.225h26.015
	c8.409,0,15.225-6.817,15.225-15.225v-28.253H478.482z"/>
<rect x="478.479" y="392.811" style="fill:#E04F32;" width="26.015" height="34.139"/>
<polygon style="fill:#F7B081;" points="472.944,47.718 459.937,74.919 478.449,113.631 504.464,113.631 "/>
<rect x="478.479" y="113.704" style="fill:#FFA304;" width="26.015" height="279.107"/>
<path style="fill:#39A4FA;" d="M291.735,260.607c-12.071,7.93-26.506,12.558-42.029,12.558c-15.523,0-29.958-4.628-42.029-12.558
	l-42.162,64.247h84.19h84.19L291.735,260.607z"/>
<path style="fill:#FF434D;" d="M291.735,260.607l-42.029-64.044l-42.029,64.044c12.071,7.93,26.506,12.558,42.029,12.558
	C265.229,273.165,279.664,268.537,291.735,260.607z"/>
<path style="fill:#FFD039;" d="M291.735,260.607c20.854-13.701,34.632-37.287,34.632-64.103c0-42.339-34.322-76.661-76.661-76.661
	s-76.661,34.322-76.661,76.661c0,26.816,13.779,50.402,34.632,64.103l42.029-64.044L291.735,260.607z"/>
<polygon style="fill:#3C5156;" points="472.944,47.718 458.235,78.478 487.653,78.478 "/>
<path d="M403.92,356.147c-4.144,0-7.504,3.36-7.504,7.504v64.601c0,21.439-16.732,38.7-38.131,39.38
	c-1.352-0.041-2.685-0.149-3.998-0.313c-0.106-0.014-0.213-0.026-0.319-0.041c-0.479-0.064-0.954-0.14-1.427-0.219
	c-0.307-0.053-0.615-0.105-0.921-0.165c-0.253-0.048-0.504-0.101-0.754-0.154c-18.705-4.014-32.771-20.671-32.771-40.556
	c0-4.145-3.36-7.504-7.504-7.504H92.739V143.715c0-4.145-3.36-7.504-7.504-7.504c-4.144,0-7.504,3.359-7.504,7.504v274.967H7.504
	C3.36,418.682,0,422.04,0,426.186c0,31.151,25.342,56.493,56.493,56.493h303.084c0.549,0,1.083-0.063,1.599-0.175
	c13.207-1.001,25.478-6.717,34.794-16.268c9.966-10.218,15.455-23.706,15.455-37.982v-64.601
	C411.424,359.507,408.065,356.147,403.92,356.147z M15.689,433.69h69.546h218.344c1.589,12.006,6.979,23.145,15.57,31.943
	c0.683,0.7,1.385,1.377,2.098,2.037H56.493C36.18,467.67,19.231,452.995,15.689,433.69z"/>
<path d="M403.92,29.322H85.235c-4.144,0-7.504,3.36-7.504,7.504v76.872c0,4.145,3.36,7.504,7.504,7.504
	c4.144,0,7.504-3.359,7.504-7.504V44.33h303.677v289.306c0,4.145,3.36,7.504,7.504,7.504c4.144,0,7.504-3.359,7.504-7.504V36.826
	C411.424,32.681,408.065,29.322,403.92,29.322z"/>
<path d="M511.276,110.499c-0.016-0.034-0.026-0.071-0.042-0.105l-31.52-65.913c-1.247-2.607-3.88-4.267-6.77-4.267
	s-5.523,1.659-6.77,4.267l-31.52,65.913c-0.016,0.034-0.026,0.071-0.042,0.105c-0.459,0.972-0.724,2.054-0.724,3.201v46.507
	c0,4.145,3.36,7.504,7.504,7.504c4.144,0,7.504-3.359,7.504-7.504v-39.003h48.095v264.101h-48.095V190.224
	c0-4.145-3.36-7.504-7.504-7.504c-4.144,0-7.504,3.359-7.504,7.504v202.585v34.14v28.253c0,12.532,10.197,22.729,22.729,22.729
	h32.654c12.533,0,22.729-10.196,22.729-22.729v-28.253v-34.14v-279.11C512,112.552,511.736,111.471,511.276,110.499z
	 M492.557,106.127h-39.226l9.632-20.144h19.96L492.557,106.127z M496.992,400.313v19.132h-48.095v-19.132H496.992z M496.992,455.202
	c0,4.257-3.463,7.72-7.72,7.72h-32.654c-4.256,0-7.72-3.463-7.72-7.72v-20.749h48.095L496.992,455.202L496.992,455.202z"/>
<path d="M158.912,328.419c1.31,2.427,3.845,3.94,6.604,3.94h168.382c2.758,0,5.293-1.513,6.604-3.94
	c1.311-2.426,1.184-5.376-0.329-7.682l-38.232-58.258c20.119-15.915,31.932-40.063,31.932-65.975
	c0-46.41-37.756-84.166-84.165-84.166s-84.165,37.756-84.165,84.166c0,25.913,11.813,50.061,31.932,65.975l-38.23,58.258
	C157.729,323.043,157.603,325.992,158.912,328.419z M280.926,258.209c-0.626,0.318-1.258,0.625-1.892,0.924
	c-0.225,0.106-0.453,0.207-0.679,0.31c-0.478,0.218-0.959,0.432-1.442,0.639c-0.252,0.108-0.506,0.215-0.759,0.32
	c-0.482,0.2-0.967,0.393-1.453,0.582c-0.235,0.091-0.47,0.184-0.706,0.273c-0.603,0.227-1.211,0.444-1.82,0.654
	c-0.115,0.039-0.229,0.082-0.344,0.121c-0.726,0.245-1.458,0.477-2.191,0.698c-0.199,0.06-0.4,0.115-0.599,0.173
	c-0.539,0.157-1.081,0.309-1.624,0.453c-0.255,0.068-0.511,0.132-0.767,0.197c-0.503,0.127-1.009,0.249-1.516,0.364
	c-0.257,0.059-0.513,0.118-0.771,0.174c-0.559,0.121-1.121,0.233-1.683,0.34c-0.194,0.037-0.388,0.078-0.582,0.113
	c-0.756,0.137-1.515,0.263-2.276,0.375c-0.146,0.021-0.294,0.038-0.44,0.059c-0.615,0.086-1.232,0.166-1.85,0.236
	c-0.258,0.029-0.516,0.054-0.774,0.08c-0.519,0.053-1.039,0.1-1.559,0.141c-0.274,0.022-0.549,0.043-0.823,0.061
	c-0.535,0.036-1.073,0.064-1.61,0.087c-0.242,0.01-0.484,0.024-0.727,0.032c-0.774,0.026-1.549,0.042-2.326,0.042
	c-0.777,0-1.552-0.016-2.326-0.042c-0.243-0.008-0.485-0.022-0.727-0.032c-0.537-0.023-1.074-0.052-1.609-0.087
	c-0.275-0.019-0.549-0.039-0.823-0.061c-0.52-0.041-1.04-0.089-1.559-0.141c-0.258-0.026-0.517-0.051-0.774-0.08
	c-0.618-0.07-1.235-0.15-1.85-0.236c-0.146-0.021-0.294-0.037-0.44-0.059c-0.761-0.112-1.52-0.238-2.276-0.375
	c-0.195-0.035-0.388-0.076-0.582-0.113c-0.562-0.107-1.124-0.219-1.683-0.34c-0.257-0.056-0.514-0.115-0.771-0.174
	c-0.506-0.115-1.012-0.237-1.515-0.364c-0.256-0.065-0.512-0.129-0.767-0.197c-0.543-0.144-1.085-0.296-1.624-0.453
	c-0.2-0.058-0.4-0.113-0.599-0.173c-0.734-0.221-1.465-0.453-2.191-0.698c-0.115-0.039-0.229-0.082-0.344-0.121
	c-0.609-0.21-1.217-0.427-1.82-0.654c-0.236-0.089-0.471-0.182-0.706-0.273c-0.486-0.189-0.971-0.382-1.453-0.582
	c-0.254-0.105-0.507-0.212-0.759-0.32c-0.483-0.207-0.964-0.421-1.442-0.639c-0.227-0.103-0.454-0.204-0.679-0.31
	c-0.634-0.298-1.266-0.605-1.892-0.924c-0.06-0.03-0.121-0.058-0.18-0.089c-0.005-0.003-0.011-0.006-0.016-0.008l31.416-47.871
	l31.416,47.871c-0.005,0.003-0.011,0.006-0.016,0.008C281.046,258.151,280.985,258.179,280.926,258.209z M180.55,196.504
	c0-38.133,31.023-69.158,69.157-69.158s69.157,31.024,69.157,69.158c0,20.837-9.297,40.29-25.194,53.372l-37.688-57.429
	c-1.388-2.113-3.746-3.387-6.275-3.387c-2.528,0-4.887,1.273-6.274,3.387l-37.688,57.429
	C189.846,236.794,180.55,217.34,180.55,196.504z M210.015,270.721c0.302,0.162,0.608,0.313,0.913,0.471
	c0.309,0.161,0.616,0.322,0.928,0.479c0.593,0.3,1.191,0.589,1.791,0.874c0.258,0.123,0.514,0.25,0.773,0.37
	c0.863,0.4,1.732,0.787,2.607,1.157c0.017,0.007,0.034,0.013,0.051,0.02c0.854,0.36,1.716,0.703,2.581,1.035
	c0.274,0.105,0.55,0.203,0.825,0.305c0.615,0.228,1.231,0.451,1.851,0.664c0.324,0.111,0.649,0.218,0.975,0.326
	c0.583,0.193,1.169,0.38,1.756,0.56c0.334,0.102,0.667,0.203,1.003,0.301c0.603,0.176,1.209,0.344,1.816,0.507
	c0.312,0.084,0.623,0.17,0.937,0.25c0.717,0.184,1.439,0.355,2.162,0.52c0.2,0.045,0.399,0.096,0.599,0.141
	c0.926,0.204,1.855,0.391,2.789,0.563c0.221,0.041,0.443,0.074,0.664,0.113c0.712,0.125,1.426,0.245,2.142,0.353
	c0.329,0.049,0.658,0.092,0.989,0.137c0.615,0.085,1.231,0.165,1.849,0.236c0.358,0.041,0.717,0.079,1.077,0.116
	c0.602,0.061,1.207,0.116,1.812,0.165c0.355,0.029,0.71,0.058,1.067,0.082c0.648,0.044,1.298,0.077,1.948,0.106
	c0.307,0.014,0.612,0.032,0.92,0.042c0.955,0.032,1.91,0.052,2.868,0.052c0.958,0,1.914-0.02,2.868-0.052
	c0.307-0.01,0.613-0.029,0.92-0.042c0.65-0.029,1.3-0.062,1.948-0.106c0.356-0.024,0.711-0.053,1.067-0.082
	c0.605-0.049,1.209-0.103,1.812-0.165c0.359-0.037,0.718-0.075,1.077-0.116c0.617-0.071,1.234-0.151,1.849-0.236
	c0.329-0.045,0.659-0.088,0.989-0.137c0.716-0.107,1.43-0.227,2.142-0.353c0.221-0.039,0.443-0.073,0.664-0.113
	c0.934-0.172,1.863-0.36,2.789-0.563c0.2-0.044,0.399-0.095,0.599-0.141c0.723-0.165,1.444-0.336,2.162-0.52
	c0.313-0.08,0.624-0.167,0.937-0.25c0.607-0.163,1.213-0.33,1.816-0.507c0.335-0.098,0.669-0.199,1.003-0.301
	c0.587-0.18,1.173-0.367,1.756-0.56c0.325-0.107,0.65-0.214,0.975-0.326c0.619-0.213,1.236-0.437,1.851-0.664
	c0.275-0.102,0.551-0.2,0.825-0.305c0.865-0.331,1.727-0.674,2.581-1.035c0.017-0.007,0.034-0.014,0.051-0.02
	c0.875-0.37,1.744-0.757,2.607-1.157c0.259-0.12,0.515-0.247,0.773-0.37c0.599-0.285,1.198-0.574,1.791-0.874
	c0.31-0.156,0.618-0.318,0.928-0.479c0.304-0.158,0.61-0.309,0.913-0.471l30.599,46.629H179.416L210.015,270.721z"/>
<g>
</g>
<g>
</g>
<g>
</g>
<g>
</g>
<g>
</g>
<g>
</g>
<g>
</g>
<g>
</g>
<g>
</g>
<g>
</g>
<g>
</g>
<g>
</g>
<g>
</g>
<g>
</g>
<g>
</g>
</svg>
