<?xml version="1.0" encoding="iso-8859-1"?>
<!-- Generator: Adobe Illustrator 19.0.0, SVG Export Plug-In . SVG Version: 6.00 Build 0)  -->
<svg version="1.1" id="Capa_1" xmlns="http://www.w3.org/2000/svg" xmlns:xlink="http://www.w3.org/1999/xlink" x="0px" y="0px"
	 viewBox="0 0 512 512" style="enable-background:new 0 0 512 512;" xml:space="preserve">
<rect x="7.487" y="56.183" style="fill:#546F7A;" width="409.186" height="306.423"/>
<path style="fill:#475D63;" d="M416.669,362.602V103.564H59.479c-5.514,0-9.983,4.469-9.983,9.983v249.055L416.669,362.602
	L416.669,362.602z"/>
<rect x="74.452" y="128.519" style="fill:#E0E0E0;" width="430.06" height="327.297"/>
<rect x="476.38" y="128.519" style="fill:#C6C5CA;" width="28.132" height="327.297"/>
<rect x="110.081" y="168.041" style="fill:#39A4FA;" width="358.813" height="248.253"/>
<rect x="443.936" y="168.041" style="fill:#0091E2;" width="24.957" height="248.253"/>
<polygon style="fill:#008950;" points="345.998,268.451 272.865,333.706 365.426,416.296 468.889,416.296 468.889,378.103 "/>
<polygon style="fill:#00B76C;" points="110.077,380.496 110.077,416.296 365.426,416.296 217.69,284.475 "/>
<polygon style="fill:#007741;" points="272.865,333.706 365.426,416.296 399.368,416.296 289.835,318.563 "/>
<circle style="fill:#FFD039;" cx="273.809" cy="227.329" r="28.379"/>
<path d="M504.513,121.034h-80.357c0-4.136-3.351-7.487-7.487-7.487c-4.136,0-7.487,3.351-7.487,7.487H74.453
	c-4.135,0-7.487,3.351-7.487,7.487v226.593c-4.135,0-7.487,3.351-7.487,7.487c0,4.136,3.352,7.487,7.487,7.487v85.732
	c0,4.136,3.352,7.487,7.487,7.487h430.06c4.135,0,7.487-3.351,7.487-7.487v-327.3C512,124.385,508.648,121.034,504.513,121.034z
	 M497.026,448.334H81.94V136.008h415.086V448.334z"/>
<path d="M468.889,314.632c-4.136,0-7.487,3.352-7.487,7.487v39.27l-110.42-98.525c-2.839-2.535-7.13-2.535-9.969,0l-68.149,60.807
	l-50.19-44.783c-2.84-2.535-7.13-2.535-9.969,0l-42.188,37.644c-3.086,2.753-3.355,7.485-0.602,10.571
	c2.753,3.087,7.487,3.355,10.571,0.602l37.204-33.196l128.099,114.299H117.564V383.85l40.223-35.89
	c3.086-2.752,3.355-7.485,0.602-10.571c-2.753-3.087-7.486-3.354-10.571-0.602l-30.254,26.995V231.442
	c0-4.135-3.352-7.487-7.487-7.487c-4.135,0-7.487,3.352-7.487,7.487v149.055v35.799c0,4.136,3.352,7.487,7.487,7.487h255.35H468.89
	c4.136,0,7.487-3.351,7.487-7.487v-38.192v-55.985C476.376,317.984,473.025,314.632,468.889,314.632z M461.402,408.809H368.28
	l-84.171-75.103l61.888-55.22l115.405,102.972L461.402,408.809L461.402,408.809z"/>
<path d="M102.589,168.046v33.444c0,4.136,3.352,7.487,7.487,7.487c4.135,0,7.487-3.351,7.487-7.487v-25.957h343.839v116.638
	c0,4.136,3.351,7.487,7.487,7.487s7.487-3.351,7.487-7.487V168.046c0-4.136-3.351-7.487-7.487-7.487H110.077
	C105.941,160.559,102.589,163.91,102.589,168.046z"/>
<path d="M416.669,78.802c-4.136,0-7.487,3.351-7.487,7.487v12.12c0,4.136,3.351,7.487,7.487,7.487c4.136,0,7.487-3.351,7.487-7.487
	V86.29C424.156,82.154,420.804,78.802,416.669,78.802z"/>
<path d="M409.182,63.666c0,4.136,3.351,7.487,7.487,7.487c4.136,0,7.487-3.351,7.487-7.487v-7.487c0-4.136-3.351-7.487-7.487-7.487
	h-7.487c-4.136,0-7.487,3.351-7.487,7.487S405.046,63.666,409.182,63.666z"/>
<path d="M204.954,63.666h14.248c4.135,0,7.487-3.351,7.487-7.487s-3.352-7.487-7.487-7.487h-14.248
	c-4.135,0-7.487,3.351-7.487,7.487S200.819,63.666,204.954,63.666z"/>
<path d="M82.417,63.666h14.248c4.135,0,7.487-3.351,7.487-7.487s-3.352-7.487-7.487-7.487H82.417c-4.135,0-7.487,3.351-7.487,7.487
	S78.282,63.666,82.417,63.666z"/>
<path d="M164.109,63.666h14.248c4.135,0,7.487-3.351,7.487-7.487s-3.352-7.487-7.487-7.487h-14.248
	c-4.135,0-7.487,3.351-7.487,7.487S159.973,63.666,164.109,63.666z"/>
<path d="M123.263,63.666h14.248c4.135,0,7.487-3.351,7.487-7.487s-3.352-7.487-7.487-7.487h-14.248
	c-4.135,0-7.487,3.351-7.487,7.487S119.128,63.666,123.263,63.666z"/>
<path d="M368.336,63.666h14.249c4.136,0,7.487-3.351,7.487-7.487s-3.351-7.487-7.487-7.487h-14.249
	c-4.136,0-7.487,3.351-7.487,7.487S364.2,63.666,368.336,63.666z"/>
<path d="M286.646,63.666h14.247c4.136,0,7.487-3.351,7.487-7.487s-3.351-7.487-7.487-7.487h-14.247
	c-4.136,0-7.487,3.351-7.487,7.487S282.51,63.666,286.646,63.666z"/>
<path d="M327.491,63.666h14.247c4.136,0,7.487-3.351,7.487-7.487s-3.351-7.487-7.487-7.487h-14.247
	c-4.136,0-7.487,3.351-7.487,7.487S323.356,63.666,327.491,63.666z"/>
<path d="M245.8,63.666h14.247c4.136,0,7.487-3.351,7.487-7.487s-3.351-7.487-7.487-7.487H245.8c-4.135,0-7.487,3.351-7.487,7.487
	S241.665,63.666,245.8,63.666z"/>
<path d="M63.307,56.179c0-4.136-3.352-7.487-7.487-7.487H41.571c-4.135,0-7.487,3.351-7.487,7.487s3.352,7.487,7.487,7.487H55.82
	C59.955,63.666,63.307,60.315,63.307,56.179z"/>
<path d="M14.974,48.692H7.487C3.352,48.692,0,52.043,0,56.179v7.487c0,4.136,3.352,7.487,7.487,7.487s7.487-3.351,7.487-7.487
	c4.135,0,7.487-3.351,7.487-7.487S19.109,48.692,14.974,48.692z"/>
<path d="M7.487,334.068c4.135,0,7.487-3.351,7.487-7.487v-15.286c0-4.136-3.352-7.487-7.487-7.487S0,307.159,0,311.295v15.286
	C0,330.717,3.352,334.068,7.487,334.068z"/>
<path d="M7.487,114.973c4.135,0,7.487-3.351,7.487-7.487V92.2c0-4.136-3.352-7.487-7.487-7.487S0,88.064,0,92.2v15.287
	C0,111.622,3.352,114.973,7.487,114.973z"/>
<path d="M7.487,290.25c4.135,0,7.487-3.351,7.487-7.487v-15.285c0-4.136-3.352-7.487-7.487-7.487S0,263.342,0,267.478v15.285
	C0,286.897,3.352,290.25,7.487,290.25z"/>
<path d="M7.487,202.611c4.135,0,7.487-3.351,7.487-7.487v-15.286c0-4.136-3.352-7.487-7.487-7.487S0,175.703,0,179.839v15.286
	C0,199.259,3.352,202.611,7.487,202.611z"/>
<path d="M7.487,158.792c4.135,0,7.487-3.351,7.487-7.487v-15.286c0-4.136-3.352-7.487-7.487-7.487S0,131.883,0,136.019v15.286
	C0,155.441,3.352,158.792,7.487,158.792z"/>
<path d="M7.487,246.43c4.135,0,7.487-3.351,7.487-7.487v-15.285c0-4.136-3.352-7.487-7.487-7.487S0,219.522,0,223.658v15.285
	C0,243.079,3.352,246.43,7.487,246.43z"/>
<path d="M14.974,355.114c0-4.136-3.352-7.487-7.487-7.487S0,350.978,0,355.114v7.487c0,4.136,3.352,7.487,7.487,7.487h7.487
	c4.135,0,7.487-3.351,7.487-7.487C22.461,358.466,19.109,355.114,14.974,355.114z"/>
<path d="M46.462,355.114H35.478c-4.135,0-7.487,3.351-7.487,7.487c0,4.136,3.352,7.487,7.487,7.487h10.984
	c4.135,0,7.487-3.351,7.487-7.487C53.949,358.466,50.597,355.114,46.462,355.114z"/>
<path d="M309.679,227.331c0-19.777-16.089-35.866-35.866-35.866s-35.867,16.089-35.867,35.866s16.09,35.867,35.867,35.867
	S309.679,247.109,309.679,227.331z M252.92,227.331c0-11.52,9.373-20.892,20.893-20.892c11.52,0,20.892,9.372,20.892,20.892
	s-9.372,20.893-20.892,20.893C262.293,248.224,252.92,238.851,252.92,227.331z"/>
<g>
</g>
<g>
</g>
<g>
</g>
<g>
</g>
<g>
</g>
<g>
</g>
<g>
</g>
<g>
</g>
<g>
</g>
<g>
</g>
<g>
</g>
<g>
</g>
<g>
</g>
<g>
</g>
<g>
</g>
</svg>
