<svg width="278" height="295" viewBox="0 0 278 295" fill="none" xmlns="http://www.w3.org/2000/svg">
<path d="M184.8 12.8C184.7 19.7 179.2 25.3 172.3 25.3C165.4 25.3 159.8 19.7 159.8 12.8C159.8 5.9 165.4 0.300003 172.3 0.300003C179.2 0.300003 184.9 3.6 184.8 12.8Z" fill="#F2F2F9"/>
<path d="M196 100.6L174.2 114.9L198.3 126.4L196 100.6Z" fill="#E4E4EF"/>
<path d="M212.462 95.3454L203.969 98.6123L207.236 107.105L215.729 103.838L212.462 95.3454Z" fill="#E4E4EF"/>
<path d="M107.9 263.7C109 269.5 111 273.6 113.3 276.7C113.5 277 113.7 277.2 113.9 277.5C114.4 278.1 114.9 278.6 115.4 279.1C115.7 279.4 115.9 279.6 116.2 279.8C118.9 282.2 121.8 283.6 124.3 284.7C130.6 287.4 130.9 294.3 130.9 294.3L81.5 294C82.1 285.8 82.1 270.3 82.1 270.3C92.4 267.3 97.3 265.4 107.9 263.7Z" fill="#FF3E6C"/>
<path d="M113.3 276.7C113.5 277 113.7 277.2 113.9 277.5C111.9 278.4 109.9 279.4 107.9 280.3C107.3 280.6 106.8 279.7 107.4 279.5C109.4 278.5 111.4 277.6 113.3 276.7Z" fill="white"/>
<path d="M115.5 279.1C115.8 279.4 116 279.6 116.3 279.8C114.1 280.9 111.8 281.9 109.6 283C109 283.3 108.5 282.4 109.1 282.2C111.2 281.1 113.3 280.1 115.5 279.1Z" fill="white"/>
<path d="M112.9 156.5C119 209.2 114.1 274 114.1 274L78.2998 276.3C78.2998 276.3 81.8998 175.8 78.4998 158.1C74.9998 140.5 112.9 156.5 112.9 156.5Z" fill="#5F5FFF"/>
<path d="M39.3998 259.2C34.7998 262.9 32.0998 266.6 30.4998 270.1C30.3998 270.4 30.1998 270.7 30.0998 271C29.7998 271.7 29.5998 272.4 29.3998 273.1C29.2998 273.4 29.1998 273.8 29.0998 274.1C28.2998 277.6 28.3998 280.9 28.5998 283.6C29.0998 290.4 23.1998 293.9 23.1998 293.9L0.299805 250C7.1998 245.2 13.7998 240.7 19.0998 235.4C26.5998 243.1 32.8998 250.6 39.3998 259.2Z" fill="#FF3E6C"/>
<path d="M91.9002 135.9L60.3002 138C56.9002 157.5 55.5002 185.8 41.1002 210.7C34.6002 222 23.4002 231 11.7002 241.1C18.2002 250 28.6002 261.7 35.2002 270.6C37.3002 267.1 73.7002 248.2 84.8002 197C90.9002 169 91.9002 135.9 91.9002 135.9Z" fill="#5F5FFF"/>
<path d="M30.4003 270C30.3003 270.3 30.1003 270.6 30.0003 270.9C28.2003 269.6 26.5003 268.2 24.7003 266.9C24.2003 266.5 24.7003 265.6 25.2003 266C27.0003 267.4 28.7003 268.7 30.4003 270Z" fill="white"/>
<path d="M29.2997 273C29.1997 273.3 29.0997 273.7 28.9997 274C26.9997 272.5 24.9997 271.1 23.0997 269.6C22.5997 269.2 23.0997 268.3 23.5997 268.7C25.4997 270.2 27.3997 271.6 29.2997 273Z" fill="white"/>
<path d="M81.5001 211.5C81.4001 211.5 81.3001 211.5 81.2001 211.4C80.8001 211.3 80.6001 210.8 80.8001 210.4C87.9001 191.9 91.1001 168.6 91.1001 168.3L91.2001 167.7H91.8001C91.9001 167.7 97.4001 167.4 101.1 166.4C101.5 166.3 101.9 166.5 102 166.9C102.1 167.3 101.9 167.7 101.5 167.8C98.4001 168.6 94.1001 169 92.5001 169.1C92.0001 172.9 88.7001 194 82.2001 210.9C82.1001 211.3 81.8001 211.5 81.5001 211.5Z" fill="#030047"/>
<path d="M246.799 108.1C246.599 107.7 246.199 107.6 245.799 107.8C237.799 112.1 228.699 114.3 219.499 114.3C188.799 114.3 163.799 89.6 163.199 59.1C162.799 59.2 162.499 59.3 162.099 59.4C161.999 59.4 161.799 59.5 161.699 59.5C162.499 90.7 188.099 115.9 219.499 115.9C228.899 115.9 238.299 113.6 246.499 109.2C246.899 108.9 246.999 108.4 246.799 108.1Z" fill="#5F5FFF"/>
<path d="M229.399 54.1H209.599C209.199 54.1 208.799 53.8 208.799 53.3C208.799 52.8 209.099 52.5 209.599 52.5H229.399C229.799 52.5 230.199 52.8 230.199 53.3C230.199 53.8 229.799 54.1 229.399 54.1Z" fill="#5F5FFF"/>
<path d="M229.399 63.4H209.599C209.199 63.4 208.799 63.1 208.799 62.6C208.799 62.1 209.099 61.8 209.599 61.8H229.399C229.799 61.8 230.199 62.1 230.199 62.6C230.199 63.1 229.799 63.4 229.399 63.4Z" fill="#5F5FFF"/>
<path d="M224.099 94C223.699 94 223.399 93.7 223.399 93.3C223.299 92.9 223.599 92.5 223.999 92.5C226.099 92.2 228.199 91.8 230.199 91.1C230.599 91 230.999 91.2 231.099 91.6C231.199 92 230.999 92.4 230.599 92.5C228.599 93.2 226.399 93.7 224.099 94C224.199 94 224.099 94 224.099 94Z" fill="#5F5FFF"/>
<path d="M240.1 87.8C239.9 87.8 239.6 87.7 239.5 87.5C239.3 87.2 239.3 86.7 239.7 86.5C242.5 84.5 245.1 82.1 247.2 79.3C247.5 79 247.9 78.9 248.3 79.2C248.6 79.5 248.7 79.9 248.4 80.3C246.2 83.2 243.5 85.7 240.6 87.8C240.4 87.7 240.2 87.8 240.1 87.8Z" fill="#5F5FFF"/>
<path d="M251.099 75.1C250.999 75.1 250.899 75.1 250.799 75C250.399 74.8 250.299 74.4 250.499 74C253.099 69.1 254.399 63.5 254.399 57.9C254.399 45.6 248.099 34.5 237.599 28.1C237.199 27.9 237.099 27.4 237.299 27.1C237.499 26.7 237.999 26.6 238.299 26.8C249.299 33.5 255.799 45.1 255.799 57.9C255.799 63.7 254.399 69.5 251.699 74.7C251.599 75 251.399 75.1 251.099 75.1Z" fill="#5F5FFF"/>
<path d="M195.999 31.9C195.799 31.9 195.599 31.8 195.399 31.6C195.099 31.3 195.199 30.8 195.499 30.5C202.099 24.7 210.599 21.5 219.499 21.5C221.999 21.5 224.399 21.7 226.799 22.2C227.199 22.3 227.499 22.7 227.399 23.1C227.299 23.5 226.899 23.8 226.499 23.7C224.199 23.2 221.799 23 219.499 23C210.999 23 202.899 26.1 196.499 31.6C196.399 31.8 196.199 31.9 195.999 31.9Z" fill="#5F5FFF"/>
<path d="M265.3 58.7C264.9 58.7 264.5 58.4 264.5 57.9C264.5 56.4 264.4 54.8 264.3 53.3C262 30.2 242.7 12.8 219.4 12.8C219 12.8 218.6 12.5 218.6 12C218.6 11.5 218.9 11.2 219.4 11.2C243.4 11.2 263.3 29.2 265.7 53C265.9 54.6 265.9 56.2 265.9 57.8C266.1 58.3 265.7 58.7 265.3 58.7Z" fill="#5F5FFF"/>
<path d="M198.4 18C198.1 18 197.9 17.9 197.7 17.6C197.5 17.2 197.7 16.8 198 16.6C202.1 14.5 206.5 13 211.1 12.1C211.5 12 211.9 12.3 212 12.7C212.1 13.1 211.8 13.5 211.4 13.6C207 14.4 202.7 15.9 198.7 17.9C198.7 17.9 198.5 18 198.4 18Z" fill="#5F5FFF"/>
<path d="M208.199 103.1C208.099 103.1 208.099 103.1 207.999 103.1C196.199 100.1 185.799 92.4 179.499 81.9C179.299 81.5 179.399 81.1 179.799 80.9C180.199 80.7 180.599 80.8 180.799 81.2C186.899 91.4 196.999 98.8 208.399 101.7C208.799 101.8 208.999 102.2 208.899 102.6C208.899 102.9 208.599 103.1 208.199 103.1Z" fill="#5F5FFF"/>
<path d="M219.499 104.5C219.099 104.5 218.699 104.2 218.699 103.7C218.699 103.2 218.999 102.9 219.499 102.9C229.799 102.9 239.899 99.3 247.899 92.9C248.199 92.6 248.699 92.7 248.999 93C249.299 93.3 249.199 93.8 248.899 94.1C240.499 100.8 230.099 104.5 219.499 104.5Z" fill="#5F5FFF"/>
<path d="M272.699 79.3C272.599 79.3 272.499 79.3 272.399 79.2C271.999 79.1 271.799 78.6 271.999 78.2C274.499 71.7 275.799 64.9 275.799 57.9C275.799 42.7 269.799 28.4 258.899 17.7C258.599 17.4 258.599 16.9 258.899 16.6C259.199 16.3 259.699 16.3 259.999 16.6C271.199 27.6 277.299 42.2 277.299 57.9C277.299 65.1 275.999 72.1 273.399 78.8C273.299 79.1 272.999 79.3 272.699 79.3Z" fill="#5F5FFF"/>
<path d="M249.899 10.4C249.799 10.4 249.599 10.4 249.499 10.3C246.699 8.6 243.799 7.1 240.799 5.8C240.399 5.6 240.199 5.2 240.399 4.8C240.599 4.4 240.999 4.2 241.399 4.4C244.499 5.7 247.499 7.2 250.299 9C250.699 9.2 250.799 9.7 250.499 10C250.399 10.2 250.199 10.4 249.899 10.4Z" fill="#5F5FFF"/>
<path d="M169.299 31.5C169.199 31.5 169.099 31.5 168.899 31.4C168.499 31.2 168.399 30.7 168.599 30.4C175.599 17.6 186.999 7.9 200.799 3.2C206.799 1.2 213.099 0.0999985 219.499 0.0999985C219.899 0.0999985 220.299 0.400002 220.299 0.900002C220.299 1.4 219.999 1.7 219.499 1.7C213.299 1.7 207.099 2.7 201.299 4.7C187.899 9.3 176.799 18.7 169.999 31.2C169.799 31.3 169.599 31.5 169.299 31.5Z" fill="#5F5FFF"/>
<path d="M184 61.8C183.6 61.8 183.3 61.5 183.3 61.1C183.2 60 183.1 58.8 183.1 57.7C183.1 51.8 184.5 46 187.2 40.8C187.4 40.4 187.8 40.3 188.2 40.5C188.6 40.7 188.7 41.1 188.5 41.5C185.9 46.5 184.6 52.1 184.6 57.7C184.6 58.8 184.7 59.9 184.8 61C184.8 61.4 184.5 61.8 184 61.8C184.1 61.8 184.1 61.8 184 61.8Z" fill="#5F5FFF"/>
<path d="M179.299 65.8C181.299 63.4 178.799 61.1 178.799 61.1L179.499 60.3C180.199 59.5 179.799 58.7 178.999 58C174.999 53.9 170.999 53.8 165.099 58L164.599 58.5C164.599 58.5 160.699 81.1 163.399 80.8C166.199 80.5 171.799 73.5 171.799 73.5C172.699 74.4 174.199 73.8 177.499 71.1C180.799 68.4 179.299 65.8 179.299 65.8Z" fill="#FFCC3E"/>
<path d="M184 61.8H153C152.6 61.8 152.2 61.5 152.2 61C152.2 60.5 152.5 60.2 153 60.2H184C184.4 60.2 184.8 60.5 184.8 61C184.8 61.5 184.4 61.8 184 61.8Z" fill="#5F5FFF"/>
<path d="M170.1 55.3C167.9 51.7 160.2 58.8 155.5 64.3C154.1 66 152 68 149.7 70.1C152 75.8 153.9 81.7 156.1 87.4C156.4 88.3 156.8 89.2 157.2 90C158.8 87.7 160.5 85.6 162.3 83.8C172.9 73 165.6 62.6 165.6 62.6C165.6 62.6 171.6 57.7 170.1 55.3Z" fill="#FFCC3E"/>
<path d="M151.9 68C146.4 73.3 137.9 83.1 129.8 86.3C119.7 90.3 101.9 68.5 89.2998 69.8L92.4998 91.7C92.4998 91.7 103.1 113.6 122.7 117.9C142.3 122.2 162.3 87.9 162.4 87.8C159.8 82 156.5 72 151.9 68Z" fill="#030047"/>
<path d="M169.5 56.6C168.6 59 167.2 60.9 165.2 62.6C165 62.8 165 63.1 165.2 63.3C167.4 65.7 167.2 69 164.8 71.2C164.3 71.6 165 72.3 165.5 71.9C167.6 70 168.5 67.1 167.3 64.4C167.2 64.3 166.4 63.1 166.5 63.1C166.6 62.5 167.8 61.6 168.2 61.1C169.2 59.8 170 58.4 170.5 56.8C170.7 56.2 169.7 56 169.5 56.6Z" fill="#FF3E6C"/>
<path d="M171.7 62.8C169.2 63.8 168.8 66.9 171 68.5C171.5 68.9 172 68 171.5 67.6C170 66.6 170.3 64.4 172 63.8C172.6 63.5 172.4 62.6 171.7 62.8Z" fill="#FF3E6C"/>
<path d="M176.5 65C174.6 66.1 169.6 69.2 171.5 72C171.9 72.5 172.7 72 172.4 71.5C171.1 69.5 175.7 66.7 177.1 65.9C177.5 65.5 177 64.7 176.5 65Z" fill="#FF3E6C"/>
<path d="M80.4994 67.7L78.8994 72L97.6994 74.2L98.5994 65.4L80.4994 67.7Z" fill="#030047"/>
<path d="M95.3998 72.6C84.7998 64.4 62.9998 78.6 59.4998 90.7C55.9998 102.8 51.7998 161.5 51.7998 161.5L116.1 160.6C116.1 160.6 110.9 97.2 103.4 86.5C95.8998 75.8 98.8998 75.3 95.3998 72.6Z" fill="#030047"/>
<path d="M109.399 106.7C109.099 106.7 108.699 106.5 108.699 106.1C108.699 106 107.399 100.1 104.699 90.9C104.599 90.5 104.799 90.1 105.199 90C105.599 89.9 105.999 90.1 106.099 90.5C108.899 99.8 110.099 105.7 110.099 105.8C110.199 106.2 109.899 106.6 109.499 106.7C109.499 106.7 109.499 106.7 109.399 106.7Z" fill="white"/>
<path d="M119.699 124.9H114.499C111.299 124.9 108.699 122.3 108.699 119.1V112.8C108.699 109.6 111.299 107 114.499 107H119.699C120.099 107 120.499 107.3 120.499 107.8C120.499 108.3 120.199 108.6 119.699 108.6H114.499C112.099 108.6 110.199 110.6 110.199 112.9V119.2C110.199 121.6 112.199 123.5 114.499 123.5H119.699C120.099 123.5 120.499 123.8 120.499 124.3C120.499 124.8 120.099 124.9 119.699 124.9Z" fill="#FF3E6C"/>
<path d="M124.699 127C120.199 127 116.499 123.3 116.499 118.8V106H132.899V118.8C132.899 123.3 129.199 127 124.699 127Z" fill="#FF3E6C"/>
<path d="M126.099 101.3C125.699 101.3 125.399 101 125.399 100.7L123.999 90.8C123.899 90.4 124.199 90 124.599 89.9C124.999 89.8 125.399 90.1 125.499 90.5L126.899 100.4C126.999 100.8 126.699 101.2 126.299 101.3C126.199 101.3 126.199 101.3 126.099 101.3Z" fill="#E4E4EF"/>
<path d="M121.2 102C120.9 102 120.7 101.9 120.5 101.6L118.2 97.3C118 96.9 118.1 96.5 118.5 96.3C118.9 96.1 119.3 96.2 119.5 96.6L121.8 100.9C122 101.3 121.9 101.7 121.5 101.9C121.4 101.9 121.3 102 121.2 102Z" fill="#E4E4EF"/>
<path d="M86.9987 65C85.0987 70.1 79.8987 70.8 76.3987 69.3C73.1987 67.9 72.5987 63.8 75.7987 61C76.8987 60.1 78.3987 59.3 80.4987 58.8C80.4987 58.8 82.0987 59 83.6987 59.7C85.8987 60.6 88.0987 62.2 86.9987 65Z" fill="#FFCC3E"/>
<path d="M101.299 49.1C104.599 56.4 104.999 64.3 95.3989 67.7C88.8989 70 80.8989 67.2 77.5989 59.9C74.2989 52.6 76.8989 44.3 83.4989 41.3C90.0989 38.3 97.9989 41.8 101.299 49.1Z" fill="#FFCC3E"/>
<path d="M91.9377 54.4066C92.4897 54.3902 92.924 53.9295 92.9077 53.3774C92.8914 52.8253 92.4306 52.391 91.8785 52.4074C91.3264 52.4237 90.8922 52.8845 90.9085 53.4366C90.9248 53.9886 91.3856 54.4229 91.9377 54.4066Z" fill="#030047"/>
<path d="M100.299 54.3C99.099 52.4 97.699 50.7 95.999 49.2C95.499 48.8 94.799 49.5 95.299 49.9C96.899 51.3 98.299 53 99.499 54.8C99.799 55.3 100.599 54.8 100.299 54.3Z" fill="#030047"/>
<path d="M91.699 43.2C89.499 45.6 78.599 51 82.699 56.4C83.699 57.8 84.899 58.3 83.799 59.7C82.499 60.9 80.599 58.8 80.599 58.8C78.599 59.3 76.999 60.1 75.899 61C70.599 56.4 70.699 51.2 73.099 49.3C73.099 49.3 87.099 29.2 93.599 34.5C99.299 39.3 91.699 43.2 91.699 43.2Z" fill="#5F5FFF"/>
<path d="M82.7989 63.1C80.6989 62.1 78.0989 62.7 76.5989 64.5C76.1989 65 76.8989 65.7 77.2989 65.2C78.4989 63.7 80.4989 63.1 82.2989 64C82.8989 64.3 83.3989 63.4 82.7989 63.1Z" fill="#030047"/>
<path d="M114.799 117.6C114.799 117.6 117.299 111.7 114.299 111.3C105.699 110.3 96.0994 119.7 87.3994 123.4C87.3994 128.5 87.7994 133.6 87.9994 138.7C88.0994 141.8 88.1994 144.8 88.1994 147.9C95.4994 145.7 101.499 141.9 103.599 138.5C105.399 135.4 108.699 135.2 110.199 133.4C113.199 134.7 117.399 126.9 114.099 124.1C114.199 124.1 117.999 121.1 114.799 117.6Z" fill="#FFCC3E"/>
<path d="M92.8994 131.2C91.9994 128.1 91.2994 125 90.5994 121.9C86.2994 124.3 82.0994 125.8 78.2994 124.5C67.7994 120.9 63.8994 101.7 75.9994 92.2C88.0994 82.7 89.1994 69.8 89.1994 69.8C70.0994 70.6 51.6994 82.1 43.1994 105.3C33.5994 131.7 46.0994 145.1 55.9994 149.8C67.3994 155.1 88.2994 149.1 96.9994 144.1C95.5994 139.9 94.0994 135.6 92.8994 131.2Z" fill="#030047"/>
<path d="M114.299 116.7C110.599 114.7 106.999 116.9 103.999 119.1C103.499 119.5 103.999 120.3 104.499 120C107.199 118 110.499 115.8 113.799 117.6C114.399 117.8 114.899 117 114.299 116.7Z" fill="#FF3E6C"/>
<path d="M113.3 123C110.4 122.2 107.6 123.1 105.7 125.5C105.3 126 106 126.7 106.4 126.2C108 124.1 110.4 123.3 113 124C113.6 124.1 113.9 123.2 113.3 123Z" fill="#FF3E6C"/>
<path d="M110.799 130.2C110.399 130.8 109.999 131.4 109.599 131.9C109.199 132.4 110.099 132.9 110.499 132.4C110.899 131.8 111.299 131.2 111.699 130.7C111.999 130.1 111.099 129.6 110.799 130.2Z" fill="#FF3E6C"/>
<path d="M81.4996 125.4C79.1996 125.4 76.2996 124.9 73.1996 123.4C69.8996 121.8 67.5996 119.3 66.5996 116.1C64.9996 111.1 66.2996 104.5 70.4996 96.6C70.6996 96.2 71.0996 96.1 71.4996 96.3C71.8996 96.5 71.9996 96.9 71.7996 97.3C67.8996 104.7 66.5996 111.1 67.9996 115.6C68.8996 118.4 70.8996 120.6 73.7996 122C81.2996 125.6 86.9996 122.7 87.0996 122.7C87.4996 122.5 87.8996 122.6 88.0996 123C88.2996 123.4 88.1996 123.8 87.7996 124C87.6996 124.2 85.2996 125.4 81.4996 125.4Z" fill="white"/>
<path d="M70.3995 152.3C64.9995 152.3 59.8995 151.8 55.8995 150.5C55.4995 150.4 55.2995 149.9 55.3995 149.6C55.4995 149.3 55.9995 149 56.2995 149.1C67.8995 152.9 90.6995 149.5 96.7995 147.2C97.1995 147.1 97.5995 147.2 97.7995 147.6C97.8995 148 97.7995 148.4 97.3995 148.6C93.0995 150.3 81.2995 152.3 70.3995 152.3Z" fill="white"/>
<path d="M151.499 31.6C151.299 31.6 151.099 31.5 150.999 31.4C150.699 31.1 150.699 30.6 150.999 30.3L157.599 23.7C157.899 23.4 158.399 23.4 158.699 23.7C158.999 24 158.999 24.5 158.699 24.8L152.099 31.4C151.899 31.5 151.699 31.6 151.499 31.6Z" fill="#5F5FFF"/>
<path d="M158.099 31.6C157.899 31.6 157.699 31.5 157.599 31.4L150.999 24.8C150.699 24.5 150.699 24 150.999 23.7C151.299 23.4 151.799 23.4 152.099 23.7L158.699 30.3C158.999 30.6 158.999 31.1 158.699 31.4C158.499 31.5 158.299 31.6 158.099 31.6Z" fill="#5F5FFF"/>
</svg>
