<?xml version="1.0" encoding="iso-8859-1"?>
<!-- Generator: Adobe Illustrator 19.0.0, SVG Export Plug-In . SVG Version: 6.00 Build 0)  -->
<svg version="1.1" id="Capa_1" xmlns="http://www.w3.org/2000/svg" xmlns:xlink="http://www.w3.org/1999/xlink" x="0px" y="0px"
	 viewBox="0 0 512.001 512.001" style="enable-background:new 0 0 512.001 512.001;" xml:space="preserve">
<polygon style="fill:#FF434D;" points="7.515,288.285 7.515,121.027 183.566,288.285 7.515,455.542 "/>
<polygon style="fill:#DD3646;" points="7.515,121.027 7.515,147.681 155.511,288.285 7.515,428.889 7.515,455.542 183.566,288.285 
	"/>
<polygon style="fill:#FF434D;" points="504.485,288.285 504.485,121.027 328.434,288.285 504.485,455.542 "/>
<polygon style="fill:#DD3646;" points="479.436,144.825 479.436,288.285 479.436,431.744 504.485,455.542 504.485,288.285 
	504.485,121.027 "/>
<path d="M12.691,115.58c-2.178-2.068-5.38-2.641-8.141-1.457c-2.76,1.184-4.55,3.9-4.55,6.904v66.946
	c0,4.151,3.365,7.515,7.515,7.515s7.515-3.364,7.515-7.515v-49.442l157.625,149.752L15.029,438.038V218.033
	c0-4.151-3.365-7.515-7.515-7.515S0,213.882,0,218.033v237.509c0,3.005,1.789,5.72,4.551,6.905c0.955,0.41,1.963,0.609,2.963,0.609
	c1.891,0,3.753-0.713,5.177-2.067l176.051-167.258c1.493-1.419,2.339-3.389,2.339-5.449s-0.846-4.029-2.339-5.449L12.691,115.58z"/>
<path d="M504.485,367.84c4.15,0,7.515-3.364,7.515-7.515V121.027c0-3.005-1.79-5.72-4.551-6.905c-2.76-1.185-5.963-0.612-8.14,1.457
	L323.258,282.836c-1.493,1.419-2.339,3.389-2.339,5.449s0.846,4.029,2.339,5.449L499.31,460.99c1.425,1.354,3.286,2.067,5.177,2.067
	c1,0,2.008-0.199,2.963-0.609c2.76-1.185,4.551-3.901,4.551-6.905v-65.156c0-4.151-3.365-7.515-7.515-7.515
	s-7.515,3.364-7.515,7.515v47.652L339.346,288.286l157.625-149.753v221.793C496.971,364.477,500.335,367.84,504.485,367.84z"/>
<path d="M255.499,363.22c-4.15,0-7.515,3.364-7.515,7.515v15.029c0,4.151,3.365,7.515,7.515,7.515c4.15,0,7.515-3.364,7.515-7.515
	v-15.029C263.014,366.584,259.649,363.22,255.499,363.22z"/>
<path d="M255.499,320.136c-4.15,0-7.515,3.364-7.515,7.515v15.029c0,4.151,3.365,7.515,7.515,7.515c4.15,0,7.515-3.364,7.515-7.515
	v-15.029C263.014,323.5,259.649,320.136,255.499,320.136z"/>
<path d="M255.499,406.305c-4.15,0-7.515,3.364-7.515,7.515v15.029c0,4.151,3.365,7.515,7.515,7.515c4.15,0,7.515-3.364,7.515-7.515
	v-15.029C263.014,409.668,259.649,406.305,255.499,406.305z"/>
<path d="M255.499,449.389c-4.15,0-7.515,3.364-7.515,7.515v15.029c0,4.151,3.365,7.515,7.515,7.515c4.15,0,7.515-3.364,7.515-7.515
	v-15.029C263.014,452.752,259.649,449.389,255.499,449.389z"/>
<path d="M255.499,233.968c-4.15,0-7.515,3.364-7.515,7.515v15.029c0,4.151,3.365,7.515,7.515,7.515c4.15,0,7.515-3.364,7.515-7.515
	v-15.029C263.014,237.332,259.649,233.968,255.499,233.968z"/>
<path d="M255.499,277.052c-4.15,0-7.515,3.364-7.515,7.515v15.029c0,4.151,3.365,7.515,7.515,7.515c4.15,0,7.515-3.364,7.515-7.515
	v-15.029C263.014,280.416,259.649,277.052,255.499,277.052z"/>
<path d="M255.499,104.959c-4.15,0-7.515,3.364-7.515,7.515v14.786c0,4.151,3.365,7.515,7.515,7.515c4.15,0,7.515-3.364,7.515-7.515
	v-14.786C263.014,108.323,259.649,104.959,255.499,104.959z"/>
<path d="M255.499,147.8c-4.15,0-7.515,3.364-7.515,7.515v15.029c0,4.151,3.365,7.515,7.515,7.515c4.15,0,7.515-3.364,7.515-7.515
	v-15.029C263.014,151.163,259.649,147.8,255.499,147.8z"/>
<path d="M255.499,190.884c-4.15,0-7.515,3.364-7.515,7.515v15.029c0,4.151,3.365,7.515,7.515,7.515c4.15,0,7.515-3.364,7.515-7.515
	v-15.029C263.014,194.247,259.649,190.884,255.499,190.884z"/>
<path d="M92.158,121.604c3.211,2.629,7.947,2.158,10.575-1.053c37.979-46.373,94.094-72.969,153.957-72.969
	c52.681,0,102.452,20.605,139.522,57.152l-19.419-3.293c-4.09-0.698-7.972,2.062-8.665,6.153c-0.693,4.092,2.061,7.972,6.153,8.665
	l40.924,6.941c0.047,0.008,0.094,0.005,0.142,0.012c0.367,0.055,0.735,0.092,1.106,0.093c0.003,0,0.005,0.001,0.008,0.001
	c0.001,0,0.002,0,0.002,0c0.001,0,0.002,0,0.002,0c0.002,0,0.004,0,0.006,0c0.397-0.001,0.791-0.036,1.179-0.099
	c0.032-0.005,0.064-0.007,0.096-0.013c0.374-0.065,0.741-0.162,1.1-0.284c0.049-0.016,0.098-0.029,0.146-0.046
	c0.358-0.128,0.704-0.288,1.041-0.47c0.044-0.024,0.089-0.044,0.132-0.069c0.348-0.197,0.679-0.426,0.995-0.678
	c0.02-0.016,0.042-0.026,0.062-0.042c0.014-0.012,0.026-0.025,0.04-0.036c0.016-0.013,0.032-0.024,0.048-0.037
	c0.063-0.053,0.118-0.114,0.18-0.169c0.125-0.113,0.25-0.226,0.367-0.347c0.066-0.068,0.127-0.14,0.19-0.211
	c0.115-0.128,0.229-0.259,0.335-0.393c0.055-0.07,0.105-0.142,0.157-0.214c0.103-0.142,0.203-0.287,0.296-0.435
	c0.046-0.074,0.089-0.149,0.133-0.225c0.087-0.151,0.168-0.304,0.243-0.459c0.039-0.081,0.078-0.163,0.114-0.245
	c0.068-0.154,0.13-0.31,0.187-0.468c0.032-0.089,0.065-0.177,0.094-0.268c0.051-0.157,0.093-0.317,0.133-0.477
	c0.023-0.092,0.049-0.184,0.069-0.278c0.036-0.173,0.063-0.349,0.087-0.524c0.011-0.081,0.027-0.16,0.036-0.242
	c0.027-0.258,0.042-0.516,0.042-0.775c0-0.003,0.001-0.007,0.001-0.01V76.012c0-4.151-3.365-7.515-7.515-7.515
	c-4.15,0-7.515,3.364-7.515,7.515v20.211c-40.087-40.677-94.546-63.67-152.256-63.67c-64.386,0-124.739,28.603-165.583,78.475
	C88.476,114.239,88.947,118.973,92.158,121.604z"/>
<g>
</g>
<g>
</g>
<g>
</g>
<g>
</g>
<g>
</g>
<g>
</g>
<g>
</g>
<g>
</g>
<g>
</g>
<g>
</g>
<g>
</g>
<g>
</g>
<g>
</g>
<g>
</g>
<g>
</g>
</svg>
