<svg width="314" height="249" viewBox="0 0 314 249" fill="none" xmlns="http://www.w3.org/2000/svg">
<path d="M297.7 194.7L313.9 214.7L277.4 248.4C277.4 248.4 273.1 243.7 275.9 238.9C277.3 236.4 278.6 232 278.9 227.2C278.9 226.9 278.9 226.5 279 226.2C279.1 225 279.1 223.8 279 222.6C279 222.3 278.9 221.9 278.9 221.6C278.6 218.9 277.9 216.3 276.7 214.1L297.7 194.7Z" fill="#5F5FFF"/>
<path d="M288.3 221.3C285.2 221.7 282 222.2 278.9 222.7C278.9 222.4 278.8 222 278.8 221.7C281.9 221.3 285 220.8 288.1 220.4C288.8 220.2 289 221.2 288.3 221.3Z" fill="#FF3E6C"/>
<path d="M287.399 226.9C284.599 227 281.699 227.1 278.899 227.2C278.899 226.9 278.899 226.5 278.999 226.2C281.799 226.1 284.699 226 287.499 225.9C288.099 225.9 288.099 226.9 287.399 226.9Z" fill="#FF3E6C"/>
<path d="M227.7 219.7L226 245.4H176.3C176.3 245.4 176.3 239.1 181.6 237.4C184.3 236.6 188.3 234.1 191.8 230.9C192 230.7 192.3 230.5 192.5 230.2C193.3 229.4 194.2 228.5 194.9 227.6C195.1 227.3 195.3 227.1 195.5 226.8C197.1 224.6 198.4 222.2 198.9 219.8H227.7V219.7Z" fill="#5F5FFF"/>
<path d="M231.7 99.5C232 161.7 265.2 215 275.7 221.5L303.1 199C303.1 199 285.8 177.7 280.7 159.7C275.6 141.7 267.3 91.4 267.3 91.4L231.7 99.5Z" fill="#FFCC3E"/>
<path d="M208.3 104.3C208.3 127.7 195.3 220.9 195.3 220.9L232.9 226.2C232.9 226.2 242.7 133.3 242.5 121C242.3 108.7 237.3 93.2 237.3 93.2L208.3 104.3Z" fill="#FFCC3E"/>
<path d="M259.5 98.9C259.2 98.9 258.9 98.7 258.8 98.4C258.4 97.5 258 96.6 257.6 95.7C257.4 95.3 257.6 94.9 258 94.7C258.4 94.5 258.8 94.7 259 95.1C259.4 96 259.8 96.9 260.2 97.9C260.4 98.3 260.2 98.7 259.8 98.9C259.7 98.9 259.6 98.9 259.5 98.9Z" fill="white"/>
<path d="M288 195.8C287.7 195.8 287.5 195.7 287.3 195.4C286.3 193.7 285.3 191.8 284.3 189.8C284.1 189.4 284.3 189 284.6 188.8C285 188.6 285.4 188.8 285.6 189.1C286.6 191.1 287.6 192.9 288.6 194.6C288.8 195 288.7 195.4 288.3 195.6C288.3 195.8 288.1 195.8 288 195.8ZM282.2 184.5C281.9 184.5 281.6 184.3 281.5 184.1C280.6 182.2 279.8 180.3 278.9 178.3C278.7 177.9 278.9 177.5 279.3 177.3C279.7 177.1 280.1 177.3 280.3 177.7C281.1 179.7 282 181.6 282.8 183.5C283 183.9 282.8 184.3 282.4 184.5C282.4 184.5 282.3 184.5 282.2 184.5ZM277.4 172.8C277.1 172.8 276.8 172.6 276.7 172.3C276 170.4 275.4 168.4 274.7 166.2C274.6 165.8 274.8 165.4 275.2 165.3C275.6 165.2 276 165.4 276.1 165.8C276.7 167.9 277.4 170 278 171.8C278.1 172.2 277.9 172.6 277.6 172.8C277.5 172.8 277.4 172.8 277.4 172.8ZM273.8 160.6C273.5 160.6 273.2 160.4 273.1 160C272.6 158.1 272.2 156 271.7 153.8C271.6 153.4 271.9 153 272.3 152.9C272.7 152.8 273.1 153.1 273.2 153.5C273.7 155.7 274.1 157.8 274.6 159.7C274.7 160.1 274.4 160.5 274 160.6C273.9 160.6 273.9 160.6 273.8 160.6ZM271.3 148.2C270.9 148.2 270.6 147.9 270.6 147.6C270.2 145.5 269.8 143.5 269.5 141.4C269.4 141 269.7 140.6 270.1 140.5C270.5 140.4 270.9 140.7 271 141.1C271.4 143.2 271.7 145.3 272.1 147.3C272.2 147.7 271.9 148.1 271.5 148.2C271.4 148.2 271.3 148.2 271.3 148.2ZM269 135.7C268.6 135.7 268.3 135.4 268.3 135.1C267.9 133 267.5 130.9 267.2 128.9C267.1 128.5 267.4 128.1 267.8 128C268.2 127.9 268.6 128.2 268.7 128.6C269.1 130.7 269.5 132.8 269.8 134.9C269.9 135.3 269.6 135.7 269.2 135.8C269.1 135.7 269.1 135.7 269 135.7ZM266.6 123.2C266.3 123.2 265.9 123 265.9 122.6C265.4 120.4 265 118.4 264.5 116.4C264.4 116 264.7 115.6 265.1 115.5C265.5 115.4 265.9 115.7 266 116.1C266.5 118.1 266.9 120.1 267.4 122.3C267.5 122.7 267.2 123.1 266.8 123.2C266.7 123.2 266.7 123.2 266.6 123.2ZM263.7 110.9C263.4 110.9 263.1 110.7 263 110.4C262.4 108.3 261.8 106.3 261.1 104.4C261 104 261.2 103.6 261.6 103.4C262 103.3 262.4 103.5 262.6 103.9C263.2 105.8 263.9 107.9 264.5 110C264.6 110.4 264.4 110.8 264 110.9C263.8 110.9 263.7 110.9 263.7 110.9Z" fill="white"/>
<path d="M293.2 203.6C293 203.6 292.8 203.5 292.6 203.4C292.6 203.4 291.9 202.6 290.7 200.9C290.5 200.6 290.5 200.1 290.9 199.9C291.2 199.7 291.7 199.7 291.9 200.1C293 201.7 293.6 202.4 293.7 202.4C294 202.7 293.9 203.2 293.6 203.5C293.5 203.5 293.4 203.6 293.2 203.6Z" fill="white"/>
<path d="M202.8 232.9C200.2 231.1 197.6 229.3 195 227.5C195.2 227.2 195.4 227 195.6 226.7C198.2 228.5 200.8 230.3 203.3 232C203.9 232.4 203.4 233.3 202.8 232.9Z" fill="#FF3E6C"/>
<path d="M198.399 236.4C196.299 234.5 194.099 232.7 191.899 230.8C192.099 230.6 192.399 230.4 192.599 230.1C194.699 232 196.899 233.8 199.099 235.6C199.599 236.1 198.799 236.8 198.399 236.4Z" fill="#FF3E6C"/>
<path d="M239.3 147.7C239 147.7 238.7 147.5 238.6 147.2C236.5 142.1 234.1 120.5 233.6 116.6C232.6 116.5 230.1 116.1 225.6 115.2C225.2 115.1 224.9 114.7 225 114.3C225.1 113.9 225.5 113.6 225.9 113.7C232 114.9 234.3 115.2 234.3 115.2L234.9 115.3L235 115.9C235 116.2 237.8 141.4 239.9 146.7C240.1 147.1 239.9 147.5 239.5 147.7C239.5 147.7 239.4 147.7 239.3 147.7Z" fill="white"/>
<path d="M167.3 180.7H8.69992C1.29992 180.7 -2.40008 171.7 2.89992 166.5L50.0999 119.8C51.6999 118.3 53.6999 117.4 55.8999 117.4H214.5C221.9 117.4 225.6 126.4 220.3 131.6L173.1 178.3C171.6 179.8 169.5 180.7 167.3 180.7Z" fill="#E4E4EF"/>
<path d="M154.7 169.4H13.7998L63.2998 120.5H204.1L154.7 169.4Z" fill="#030047"/>
<path d="M77.1 148.7H53L61.5 140.3H85.6L77.1 148.7Z" fill="#E4E4EF"/>
<path d="M103.6 164.4H82.2002L89.7002 157H111.1L103.6 164.4Z" fill="#E4E4EF"/>
<path d="M66.8004 163.4H49.4004L56.9004 156H74.3004L66.8004 163.4Z" fill="#E4E4EF"/>
<path d="M136.7 131.3C122.1 131.3 109.4 127.5 104.9 121.8C104.6 121.5 104.7 121 105 120.7C105.3 120.4 105.8 120.5 106.1 120.8C110.2 126 122.8 129.7 136.7 129.7C154 129.7 168.6 124 168.6 117.3C168.6 116.9 168.9 116.5 169.4 116.5C169.9 116.5 170.2 116.8 170.2 117.3C170.2 125.2 155.5 131.3 136.7 131.3Z" fill="#FF3E6C"/>
<path d="M108.3 111.7C108.1 111.7 107.8 111.6 107.7 111.4C107.5 111.1 107.5 110.6 107.9 110.4C112.8 107 121 104.6 130.5 103.9C132.5 103.7 134.6 103.7 136.7 103.7C137.1 103.7 137.5 104 137.5 104.5C137.5 105 137.2 105.3 136.7 105.3C134.7 105.3 132.6 105.4 130.6 105.5C121.3 106.2 113.4 108.5 108.7 111.8C108.6 111.6 108.4 111.7 108.3 111.7Z" fill="#FF3E6C"/>
<path d="M163.8 135.2C163.5 135.2 163.2 135 163.1 134.6C163 134.2 163.2 133.8 163.6 133.7C167.6 132.7 171.2 131.4 174.3 130C182 126.5 186.2 122 186.2 117.4C186.2 106.7 164 98 136.7 98C122.9 98 110 100.2 100.5 104.2C100.1 104.4 99.7003 104.2 99.5003 103.8C99.3003 103.4 99.5003 103 99.9003 102.8C109.6 98.7 122.6 96.5 136.6 96.5C165.2 96.5 187.6 105.7 187.6 117.4C187.6 122.6 183.1 127.5 174.8 131.3C171.6 132.8 167.9 134 163.9 135.1C164 135.2 163.9 135.2 163.8 135.2Z" fill="#FF3E6C"/>
<path d="M136.7 138.4C133.8 138.4 131 138.3 128.2 138.1C103.6 136.4 85.7002 127.7 85.7002 117.4C85.7002 117 86.0002 116.6 86.5002 116.6C87.0002 116.6 87.3002 116.9 87.3002 117.4C87.3002 126.7 105 135 128.4 136.6C131.2 136.8 134 136.9 136.8 136.9C137.2 136.9 137.6 137.2 137.6 137.7C137.6 138.2 137.1 138.4 136.7 138.4Z" fill="#FF3E6C"/>
<path d="M145.6 138.1C145.2 138.1 144.9 137.8 144.9 137.4C144.9 137 145.2 136.6 145.6 136.6C149.9 136.3 154.2 135.7 158.1 135C158.5 134.9 158.9 135.2 159 135.6C159.1 136 158.8 136.4 158.4 136.5C154.3 137.2 150 137.7 145.6 138.1Z" fill="#FF3E6C"/>
<path d="M154.6 144.3C154.2 144.3 153.9 144 153.9 143.6C153.9 143.2 154.2 142.8 154.6 142.8C177.9 140.2 195.9 132.9 201.7 123.5C202.9 121.5 203.5 119.5 203.5 117.4C203.5 113.7 202.1 110.4 199.4 108.2C199.1 107.9 199 107.5 199.3 107.1C199.6 106.8 200 106.7 200.4 107C203.4 109.5 205.1 113.2 205.1 117.4C205.1 119.8 204.4 122.1 203 124.3C196.9 134 178.4 141.7 154.6 144.3Z" fill="#FF3E6C"/>
<path d="M73.0001 109.3C72.8001 109.3 72.7001 109.2 72.5001 109.1C72.2001 108.8 72.2001 108.4 72.4001 108C77.0001 102.7 85.3001 98.2 96.4001 94.8C96.8001 94.7 97.2001 94.9 97.3001 95.3C97.4001 95.7 97.2001 96.1 96.8001 96.2C85.9001 99.4 77.9001 103.8 73.5001 108.9C73.4001 109.2 73.2001 109.3 73.0001 109.3Z" fill="#FF3E6C"/>
<path d="M99.3 140.7C99.2 140.7 99.2 140.7 99.1 140.7C79.9 135.6 68.5 126.9 68.5 117.4C68.5 117 68.8 116.6 69.3 116.6C69.8 116.6 70.1 116.9 70.1 117.4C70.1 126.1 81.1 134.3 99.6 139.2C100 139.3 100.2 139.7 100.1 140.1C100 140.5 99.7 140.7 99.3 140.7Z" fill="#FF3E6C"/>
<path d="M136.7 123.9C145.647 123.9 152.9 120.99 152.9 117.4C152.9 113.81 145.647 110.9 136.7 110.9C127.753 110.9 120.5 113.81 120.5 117.4C120.5 120.99 127.753 123.9 136.7 123.9Z" fill="#FF3E6C"/>
<path d="M213.7 22.5C219.1 22.6 221.8 18.1 221.7 14.4C221.6 10.9 218.1 8.79999 214.2 10.7C212.9 11.3 211.6 12.5 210.4 14.2C210.4 14.2 210 15.8 210 17.5C210 19.8 210.6 22.4 213.7 22.5Z" fill="#8FACFF"/>
<path d="M193.5 29.6C197.6 35.6 206.1 38.8 212.9 31.3C217.5 26.1 217.9 17.7 212.5 11.8C207 6.00001 198.3 5.20001 193.1 10.1C187.8 15 189 23 193.5 29.6Z" fill="#8FACFF"/>
<path d="M201.969 23.0227C202.195 22.5187 201.97 21.927 201.465 21.7013C200.961 21.4756 200.37 21.7013 200.144 22.2053C199.918 22.7094 200.144 23.301 200.648 23.5267C201.152 23.7524 201.744 23.5268 201.969 23.0227Z" fill="#030047"/>
<path d="M198.7 30.6C197.4 28.8 196.4 26.8 195.6 24.7C195.4 24.1 196.3 23.7 196.5 24.3C197.2 26.3 198.2 28.2 199.4 30C199.9 30.6 199 31.2 198.7 30.6Z" fill="#030047"/>
<path d="M191.7 18.5C194.7 17.4 203.9 9.4 207.4 15.2C208.3 16.7 208.3 17.9 210 17.5C211.6 16.8 210.4 14.2 210.4 14.2C211.6 12.5 212.9 11.4 214.2 10.7C217.8 4.9 208.9 -2.3 203.9 2C203.9 2 192.8 -0.700001 189.6 6.2C183.9 8.5 181.8 12.9 183 17C185.2 24 191.7 18.5 191.7 18.5Z" fill="#5F5FFF"/>
<path d="M213.501 17.9C213.401 15.5 214.901 13.4 217.201 12.7C217.801 12.5 218.201 13.5 217.601 13.6C215.801 14.1 214.501 15.8 214.601 17.7C214.501 18.4 213.501 18.5 213.501 17.9Z" fill="#030047"/>
<path d="M217.9 31.2C198.8 37.3 189.9 61.8 185.4 68.4C174.2 84.6 146.1 86.7 139.1 92.9C132.5 98.7 136.8 102.1 136.8 102.1C136.8 102.1 136 105.5 138.5 107.1C138.5 107.1 133.1 112.8 135.7 115.3C138.3 117.8 146.2 107.2 149.7 106.6L150.7 109C150.4 110.5 146.4 113.8 148.3 115.7C150.2 117.6 156.8 111 158.6 108.8C160.4 106.6 163.8 107.1 167.3 103.8C170.8 100.5 186.8 101.5 197.6 90.3C208.3 79.1 224.5 45.5 224.5 45.5L217.9 31.2Z" fill="#8FACFF"/>
<path d="M202.6 76.1C203.8 76.9 205 77.7 206.1 78.4C215.2 64.2 224.2 45.3 224.2 45.3L217.9 31.1C200.9 36.5 192 56.5 187.1 65.5C192.4 68.8 197.4 72.7 202.6 76.1Z" fill="#FF3E6C"/>
<path d="M144.1 101.7C141.9 102.7 140.1 104.2 138.5 106C138.1 106.5 138.8 107.2 139.2 106.7C140.7 104.9 142.5 103.5 144.6 102.5C145.1 102.3 144.6 101.5 144.1 101.7Z" fill="white"/>
<path d="M141.8 97.3C139.7 97.9 138 99.2 136.8 101C136.5 101.5 137.3 102 137.7 101.5C138.7 99.9 140.3 98.7 142.1 98.2C142.7 98.1 142.4 97.1 141.8 97.3Z" fill="white"/>
<path d="M217.899 31.2C207.799 34.6 200.399 40 202.599 69C204.799 98 204.399 106.9 204.399 106.9L269.399 97.7C269.399 97.7 250.399 20.2 217.899 31.2Z" fill="#FF3E6C"/>
<path d="M202.9 74.3C202.5 74.3 202.2 74 202.2 73.6L201.6 56.5C201.6 56.1 201.9 55.7 202.3 55.7C202.7 55.7 203.1 56 203.1 56.4L203.7 73.5C203.7 73.9 203.3 74.3 202.9 74.3Z" fill="#030047"/>
<path d="M217.9 31.2C242.3 23.4 267.7 45.9 278.1 71.9C288.5 97.9 300.9 134.7 287.2 135.7C287.2 135.7 284.3 137.7 281.4 136.5C281.4 136.5 279 139.3 276.6 137.4C274.2 135.5 274 126.9 273 124C272 121.1 263.9 85.9 253.1 71.6C242.3 57.3 217.9 31.2 217.9 31.2Z" fill="#8FACFF"/>
<path d="M256.8 61.1C260.4 58.4 263.7 55.5 267.1 52.6C254.5 36.1 235.9 25.4 217.9 31.1C217.9 31.1 237.4 51.8 249.2 66.4C251.8 64.8 254.3 63 256.8 61.1Z" fill="#FF3E6C"/>
<path d="M280.801 125.1C280.601 124.5 279.601 124.7 279.801 125.4C280.801 128.7 281.101 132 280.601 135.4C280.501 136 281.501 136 281.601 135.4C282.101 131.8 281.801 128.4 280.801 125.1Z" fill="white"/>
<path d="M286.801 123.6C286.601 123 285.701 123.2 285.801 123.9C286.701 127.3 286.901 130.8 286.601 134.3C286.501 134.9 287.501 134.9 287.601 134.3C288.001 130.6 287.701 127.1 286.801 123.6Z" fill="white"/>
<path d="M272.301 113.2C263.501 119.7 266.301 135.7 267.901 136.2C271.901 137.5 272.401 128.7 272.401 128.7L278.101 125.5L272.301 113.2Z" fill="#8FACFF"/>
<path d="M246.4 63.8C246.2 63.8 245.9 63.7 245.8 63.5C240.5 56.5 238.2 53.1 238.1 53.1C237.9 52.8 237.9 52.3 238.3 52.1C238.7 51.9 239.1 51.9 239.3 52.3C239.3 52.3 241.7 55.7 246.9 62.7C247.2 63 247.1 63.5 246.8 63.8C246.7 63.8 246.5 63.8 246.4 63.8Z" fill="#030047"/>
<path d="M137.9 164C137.7 164 137.5 163.9 137.4 163.8L124.8 151.2C124.5 150.9 124.5 150.4 124.8 150.1C125.1 149.8 125.6 149.8 125.9 150.1L138.5 162.7C138.8 163 138.8 163.5 138.5 163.8C138.3 163.9 138.1 164 137.9 164Z" fill="#5F5FFF"/>
<path d="M125.3 164C125.1 164 124.9 163.9 124.8 163.8C124.5 163.5 124.5 163 124.8 162.7L137.4 150.1C137.7 149.8 138.2 149.8 138.5 150.1C138.8 150.4 138.8 150.9 138.5 151.2L125.9 163.8C125.7 163.9 125.5 164 125.3 164Z" fill="#5F5FFF"/>
<path d="M101.6 81.2C101.3 81.2 101 81 100.9 80.7L96.0003 68.8C95.8003 68.4 96.0003 68 96.4003 67.8C96.8003 67.6 97.2003 67.8 97.4003 68.2L102.3 80.1C102.5 80.5 102.3 80.9 101.9 81.1C101.8 81.2 101.7 81.2 101.6 81.2Z" fill="#E4E4EF"/>
<path d="M111.1 79.2C110.7 79.2 110.4 78.9 110.4 78.5L109.1 68.6C109 68.2 109.3 67.8 109.7 67.8C110.1 67.7 110.5 68 110.5 68.4L111.8 78.3C111.9 78.7 111.6 79.1 111.1 79.2C111.2 79.2 111.1 79.2 111.1 79.2Z" fill="#E4E4EF"/>
<path d="M122.5 213.4C122 213.4 121.7 213 121.7 212.6L122.8 195.3C122.8 194.9 123.2 194.6 123.6 194.6C124 194.6 124.3 195 124.3 195.4L123.2 212.7C123.2 213.1 122.9 213.4 122.5 213.4Z" fill="#E4E4EF"/>
<path d="M143.601 204.8C143.301 204.8 143.101 204.7 142.901 204.4L137.201 194.3C137.001 193.9 137.101 193.5 137.501 193.3C137.901 193.1 138.301 193.2 138.501 193.6L144.201 203.7C144.401 204.1 144.301 204.5 143.901 204.7C143.901 204.7 143.701 204.8 143.601 204.8Z" fill="#E4E4EF"/>
</svg>
