<svg width="205" height="228" viewBox="0 0 205 228" fill="none" xmlns="http://www.w3.org/2000/svg">
<path d="M176.6 113.1L163.1 121.7L152.5 128.4H30.7002L54.7002 113.1H62.9002C62.0002 120.1 61.5002 125.7 61.4002 127.7H87.4002C88.7002 123.3 90.2002 118.1 91.5002 113.1H176.6Z" fill="#030047"/>
<path d="M24.6001 50.0999L0.100098 65.2999L30.7001 128.4L55.2001 113.2L24.6001 50.0999Z" fill="#FFCC3E"/>
<path d="M118.9 25.5999C98.5999 29.1999 94.2999 47.2999 79.8999 50.0999C61.9999 53.5999 43.7999 50.4999 32.8999 59.2999C21.9999 68.0999 27.7999 70.3999 27.7999 70.3999C27.7999 70.3999 27.3999 73.4999 31.3999 74.3999C31.3999 74.3999 30.9999 78.7999 34.6999 78.3999C38.3999 77.9999 40.5999 70.5999 44.5999 70.6999C45.2999 70.6999 45.9999 70.7999 46.5999 70.8999C46.4999 72.2999 46.0999 73.7999 45.0999 74.5999C42.9999 76.1999 40.7999 77.0999 41.7999 78.9999C42.7999 80.8999 45.4999 79.4999 49.9999 77.2999C53.2999 75.6999 55.1999 72.1999 55.9999 69.3999C60.5999 68.1999 73.2999 73.8999 91.6999 65.8999C104.8 60.1999 113.6 55.2999 117.4 47.2999C122.6 36.3999 118.9 25.5999 118.9 25.5999Z" fill="white"/>
<path d="M43.1 80.7999C42.2 80.7999 41.5 80.3999 41 79.4999C40 77.3999 41.8 76.0999 43.4 74.9999C43.8 74.6999 44.2 74.5 44.6 74.2C45.3 73.7 45.6 72.6 45.7 71.7C45.3 71.6 44.9 71.5999 44.5 71.5999C44.5 71.5999 44.5 71.5999 44.4 71.5999C42.7 71.5999 41.3 73.4 39.8 75.2C38.3 77.1 36.7 78.9999 34.7 79.2999C33.5 79.3999 32.5 79.1 31.8 78.4C30.8 77.4 30.6 75.8999 30.6 75.0999C27.9 74.1999 27.1 72.2 27 70.9C26.5 70.6 25.7 69.9 25.5 68.7C25.1 66.2 27.4 62.8999 32.4 58.7999C39.7 52.8999 50.2 52.2 61.4 51.4C67.4 51 73.6 50.6 79.8 49.4C86.1 48.2 90.5 43.7999 95.2 39.0999C101 33.3999 107.5 26.9 118.8 24.9L119.4 24.7999L119.6 25.4C119.8 25.9 123.3 36.6999 118 47.7999C114.1 55.8999 105.8 60.6999 91.9 66.7999C78.8 72.4999 68.7 71.2999 62 70.4999C59.7 70.1999 57.8 70 56.5 70.2C55.9 72 54.2 76.2999 50.2 78.0999L49.6 78.4C46.8 79.7 44.6 80.7999 43.1 80.7999ZM44.4 70.0999H44.5C45.1 70.0999 45.8 70.1999 46.6 70.2999L47.3 70.4V71.0999C47.2 73.0999 46.6 74.6 45.5 75.4C45.1 75.7 44.7 75.9999 44.3 76.2999C42.4 77.5999 42 78.1 42.4 78.9C42.9 80 45 79 49 77.2L49.6 76.9C53.4 75.1 54.9 70.7999 55.2 69.4999L55.3 69.0999L55.7 68.9999C57.2 68.5999 59.3 68.7999 62.1 69.2C68.6 70 78.5 71.0999 91.2 65.5999C104.8 59.6999 112.9 54.9999 116.6 47.2999C121 38.1999 119 29.1 118.3 26.7C107.9 28.8 101.9 34.7 96.2 40.4C91.3 45.2 86.8 49.7999 80 51.0999C73.7 52.2999 67.5 52.6999 61.5 53.0999C50.6 53.7999 40.3 54.4999 33.4 60.0999C27.5 64.8999 26.9 67.4999 27 68.5999C27.2 69.5999 28 69.9 28 69.9L28.6 70.0999L28.5 70.7C28.5 70.9 28.3 73.2 31.5 73.9L32.1 73.9999L32 74.5999C32 75.0999 32 76.6 32.8 77.4C33.2 77.8 33.7 77.9 34.5 77.9C35.9 77.7 37.3 76 38.6 74.4C40.3 72.2 42 70.0999 44.4 70.0999Z" fill="#030047"/>
<path d="M118.9 25.5999C98.6 29.1999 94.3 47.2999 79.9 50.0999C73 51.3999 66.1 51.7999 59.5 52.2999C60.2 58.0999 61.2 68.6999 61.9 74.4999C68.4 75.2999 82.2 75.3999 95.5 69.5999C108.6 63.8999 113.5 55.4999 117.3 47.3999C122.6 36.3999 118.9 25.5999 118.9 25.5999Z" fill="#030047"/>
<path d="M39.8001 64.9C36.1001 65.8 34.3001 69.2 32.8001 72.4C32.5001 73 33.4001 73.5 33.7001 72.9C35.1001 70 36.7001 66.7 40.1001 65.9C40.7001 65.7 40.4001 64.7 39.8001 64.9Z" fill="#030047"/>
<path d="M34.7001 61.6999C32.0001 63.4999 29.2001 65.5998 28.9001 69.0998C28.8001 69.6998 29.8001 69.6998 29.9001 69.0998C30.2001 65.9998 32.8001 64.0999 35.2001 62.4999C35.7001 62.1999 35.2001 61.2999 34.7001 61.6999Z" fill="#030047"/>
<path d="M118.9 25.5999C125.3 23.5999 144 18.6999 159.9 45.2999C175.9 71.8999 165.8 94.7999 165.8 94.7999L118.9 74.4999C118.9 74.4999 116.4 65.3999 112.1 48.0999C111.1 44.2999 108.7 28.7999 118.9 25.5999Z" fill="#030047"/>
<path d="M112.6 50.8999C112.3 50.8999 111.9 50.6999 111.9 50.2999C110.9 45.4999 110.5 38.8999 110.4 38.6999C110.4 38.2999 110.7 37.8999 111.1 37.8999C111.5 37.8999 111.9 38.1999 111.9 38.5999C111.9 38.6999 112.3 45.2999 113.3 49.9999C113.4 50.3999 113.1 50.7999 112.7 50.8999H112.6Z" fill="white"/>
<path d="M167.3 112.3H129.5L128.2 104.5L96.1001 93.6999V94.6999C96.1001 95.8999 93.9001 104.1 91.4001 113C90.0001 118 88.5 123.2 87.3 127.6H61.3C61.5 125.6 62 120 62.8 113C63.4 107.9 64.3 102 65.3 96.1999C67.7 82.3999 70.9001 69.3999 82.2001 62.0999C86.1001 59.5999 90.7001 58.3999 95.9001 58.3999C118.7 58.3999 148.2 81.6999 162.3 92.9999C163.3 93.7999 164.2 94.4999 165 95.0999L167.3 112.3Z" fill="white"/>
<path d="M96 59.2C118.5 59.2 147.9 82.3999 161.9 93.5999C162.8 94.2999 163.6 94.9999 164.4 95.4999L166.4 113H130.4L129 104.7L128.9 103.8L128 103.5L97.3 93.2L95.4 92.5999V94.5999C95.4 96.4999 90.2 114.9 86.8 126.8H62.2C62.6 122.3 63.9 109 66.1 96.2999C68.5 82.6999 71.6 69.9 82.7 62.7C86.4 60.4 90.9 59.2 96 59.2ZM96 57.7C90.9 57.7 86.1 58.8999 81.9 61.5999C70.3 68.9999 67.1 82.2 64.6 96.2C61.8 112.1 60.5 128.5 60.5 128.5H87.8C87.8 128.5 96.8 97.4999 96.8 94.7999L127.5 105.1L128.8 113.1H168.1L165.7 94.7999C153.4 85.0999 120.8 57.7 96 57.7Z" fill="#030047"/>
<path d="M127.2 103.2C126.9 103.2 126.6 103 126.5 102.6L124.6 95.0998L121.4 90.2998C121.2 89.9998 121.3 89.4998 121.6 89.2998C121.9 89.0998 122.4 89.1999 122.6 89.4999L126 94.5998L127.9 102.3C128 102.7 127.8 103.1 127.4 103.2C127.4 103.2 127.3 103.2 127.2 103.2Z" fill="#030047"/>
<path d="M152.5 128.4H30.7002V227.3H152.5V128.4Z" fill="#FFCC3E"/>
<path d="M176.6 212L152.5 227.3V128.4L176.6 113.1V212Z" fill="#FFCC3E"/>
<path d="M152.5 222.6C152.1 222.6 151.7 222.3 151.7 221.8V135.3C151.7 134.9 152 134.5 152.5 134.5C153 134.5 153.3 134.8 153.3 135.3V221.8C153.2 222.3 152.9 222.6 152.5 222.6Z" fill="white"/>
<path d="M67.8001 128.4V128.6C67.8001 154.5 51.3001 166.9 30.6001 167.6V128.5H67.8001V128.4Z" fill="#030047"/>
<path d="M57.7001 162.4L49.1001 169.2L59.7001 173.9L57.7001 162.4Z" fill="#030047"/>
<path d="M138 150.3H78.3V156.3H138V150.3Z" fill="white"/>
<path d="M114.2 167.5H103.8C102.6 167.5 101.7 166.5 101.7 165.4C101.7 164.2 102.7 163.3 103.8 163.3H114.2C115.4 163.3 116.3 164.3 116.3 165.4C116.3 166.6 115.4 167.5 114.2 167.5Z" fill="#030047"/>
<path d="M125.6 167.5H122C120.8 167.5 119.9 166.5 119.9 165.4C119.9 164.2 120.9 163.3 122 163.3H125.5C126.7 163.3 127.6 164.3 127.6 165.4C127.7 166.6 126.8 167.5 125.6 167.5Z" fill="#030047"/>
<path d="M135.8 167.5H132.3C131.1 167.5 130.2 166.5 130.2 165.4C130.2 164.2 131.2 163.3 132.3 163.3H135.8C137 163.3 137.9 164.3 137.9 165.4C138 166.6 137 167.5 135.8 167.5Z" fill="#030047"/>
<path d="M100.9 190H31.4001V226.5H100.9V190Z" fill="white"/>
<path d="M100.1 190.8V225.8H32.1001V190.8H100.1ZM101.6 189.3H30.6001V227.3H101.6V189.3Z" fill="#030047"/>
<path d="M78.6001 225.8L32.3001 192C32.0001 191.8 31.9001 191.3 32.1001 191C32.3001 190.7 32.8001 190.6 33.1001 190.8L79.4001 224.6C79.7001 224.8 79.8001 225.3 79.6001 225.6C79.4001 226 78.9001 226.1 78.6001 225.8Z" fill="#030047"/>
<path d="M52.6001 225.7C52.4001 225.4 52.4001 224.9 52.8001 224.7L98.7001 190.9C99.0001 190.7 99.5001 190.7 99.7001 191.1C99.9001 191.4 99.9001 191.9 99.5001 192.1L53.6001 225.9C53.3001 226.1 52.8001 226 52.6001 225.7Z" fill="#030047"/>
<path d="M185.9 142.9H182V185.4H185.9V142.9Z" fill="#030047"/>
<path d="M163.1 121.7L152.5 128.4H114.8C125.8 120.5 141.8 119.1 158.2 120.7C160.4 121 161.9 121.3 163.1 121.7Z" fill="white"/>
<path d="M24.7 103.3H24.6L12.5 101.1C12.1 101 11.8 100.6 11.9 100.2C12 99.7999 12.4 99.4998 12.8 99.5998L24.9 101.8C25.3 101.9 25.6 102.3 25.5 102.7C25.3 103.1 25 103.3 24.7 103.3Z" fill="#030047"/>
<path d="M17.4999 108.3H17.3999C16.9999 108.2 16.6999 107.8 16.7999 107.4L18.9999 95.2998C19.0999 94.8998 19.4999 94.5998 19.8999 94.6998C20.2999 94.7998 20.5999 95.1998 20.4999 95.5998L18.2999 107.7C18.1999 108 17.8999 108.3 17.4999 108.3Z" fill="#030047"/>
<path d="M111.8 120.1C116.494 120.1 120.3 116.294 120.3 111.6C120.3 106.905 116.494 103.1 111.8 103.1C107.106 103.1 103.3 106.905 103.3 111.6C103.3 116.294 107.106 120.1 111.8 120.1Z" fill="#FFCC3E"/>
<path d="M44.6 94.8999L43 113.1L58.1 106.3L44.6 94.8999Z" fill="white"/>
<path d="M42.2 114.3L44 93.3999L59.3999 106.5L42.2 114.3ZM45.3 96.3999L44 111.9L56.7999 106.1L45.3 96.3999Z" fill="#030047"/>
<path d="M185.9 74.3999L161.7 89.7999L152.5 128.6L176.6 113.2L185.9 74.3999Z" fill="#FFCC3E"/>
<path d="M155.2 127.4C155 127.4 154.7 127.3 154.6 127.1C154.4 126.8 154.5 126.3 154.8 126.1L173.4 114.3C173.8 114.1 174.2 114.2 174.4 114.5C174.6 114.8 174.5 115.3 174.2 115.5L155.6 127.3C155.5 127.4 155.4 127.4 155.2 127.4Z" fill="white"/>
<path d="M130.6 22.9C159.4 21.7 186.2 29.8999 195.5 41.4999C205.7 54.1999 200.5 79.1999 188 85.6999C184.9 87.2999 181.4 87.6999 179.5 88.5999C173.7 91.2999 172.4 90.9999 170.5 89.4999C170.5 89.4999 165.7 92.4999 164.3 88.7999C164.3 88.7999 162.5 93.4999 159.1 92.2999C155.8 91.0999 159.8 81.7999 168.9 76.9999C178.1 72.1999 182.7 60.1999 177.6 52.9999C172.4 45.7999 140.9 36.9999 140.9 36.9999L130.6 22.9Z" fill="white"/>
<path d="M160.3 93.3999C159.9 93.3999 159.5 93.2999 159 93.1999C158 92.8999 157.4 91.9999 157.3 90.7999C157 86.9999 161.6 80.1999 168.7 76.4999C173.6 73.8999 177.4 68.9999 178.7 63.6999C179.6 59.8999 179 56.2999 177.1 53.5999C172.1 46.6999 141.2 37.9999 140.8 37.8999L140.6 37.7999L129.2 22.2999L130.6 22.1999C158.9 20.9999 186.4 28.9999 196.2 41.0999C201.2 47.3999 203 57.0999 200.9 67.0999C199 76.0999 194.4 83.2999 188.5 86.3999C186.6 87.3999 184.6 87.8999 182.9 88.3999C181.7 88.6999 180.7 88.9999 180 89.2999C174.5 91.8999 172.7 91.8999 170.6 90.3999C169.7 90.8999 167.6 91.7999 165.9 91.1999C165.4 90.9999 164.9 90.6999 164.6 90.2999C163.6 91.8999 162.2 93.3999 160.3 93.3999ZM141.5 36.3999C144.7 37.2999 173.3 45.5999 178.3 52.5999C180.5 55.5999 181.1 59.5999 180.1 63.8999C178.8 69.5999 174.6 74.8999 169.3 77.6999C162.4 81.2999 158.5 87.5999 158.7 90.5999C158.8 91.4999 159.2 91.5999 159.4 91.6999C162 92.5999 163.6 88.7999 163.6 88.5999L164.3 86.7999L165 88.5999C165.2 89.2999 165.6 89.6999 166.2 89.7999C167.5 90.1999 169.5 89.2999 170.1 88.8999L170.6 88.5999L171 88.8999C172.5 90.0999 173.5 90.5999 179.2 87.8999C180.1 87.4999 181.1 87.1999 182.3 86.8999C184 86.3999 185.9 85.8999 187.6 84.9999C193.1 82.0999 197.5 75.2999 199.3 66.7999C201.3 57.1999 199.7 47.9999 194.9 41.9999C185.6 30.3999 159.3 22.7999 132 23.5999L141.5 36.3999Z" fill="#030047"/>
<path d="M177.7 53.0999C180.5 56.8999 180.4 62.2 178.4 66.9C184.9 69.3 194.7 71.5999 201 74.4999C205.9 64.1999 206 49.0999 198.3 40.9999C183.3 25.4999 159.5 21.7 130.7 22.9L144.3 46.4C144.2 46.4 172.6 45.8999 177.7 53.0999Z" fill="#030047"/>
<path d="M170.2 80.3998C167.6 82.1998 165.5 84.4998 164.1 87.2998C163.8 87.8998 164.7 88.3998 165 87.7998C166.4 85.0998 168.3 82.8998 170.8 81.2998C171.3 80.8998 170.8 80.0998 170.2 80.3998Z" fill="#030047"/>
<path d="M175.9 82.1998C173.8 83.6998 172.2 85.5998 171 87.8998C170.7 88.4998 171.6 88.9998 171.9 88.3998C173 86.2998 174.5 84.4998 176.4 83.0998C176.9 82.6998 176.4 81.7998 175.9 82.1998Z" fill="#030047"/>
<path d="M158.3 47.9999C158.2 47.9999 158.2 47.9999 158.1 47.9999L154 46.6999C153.6 46.5999 153.4 46.1999 153.5 45.7999C153.6 45.3999 154 45.1999 154.4 45.2999L158.5 46.5999C158.9 46.6999 159.1 47.0999 159 47.4999C158.9 47.7999 158.6 47.9999 158.3 47.9999Z" fill="#030047"/>
<path d="M20.1999 174.6C19.9999 174.6 19.7999 174.5 19.6999 174.4L3.79995 158.5C3.49995 158.2 3.49995 157.7 3.79995 157.4C4.09995 157.1 4.59994 157.1 4.89994 157.4L20.8 173.3C21.1 173.6 21.1 174.1 20.8 174.4C20.6 174.5 20.3999 174.6 20.1999 174.6Z" fill="#030047"/>
<path d="M4.29995 174.6C4.09995 174.6 3.89995 174.5 3.79995 174.4C3.49995 174.1 3.49995 173.6 3.79995 173.3L19.6999 157.4C19.9999 157.1 20.5 157.1 20.8 157.4C21.1 157.7 21.1 158.2 20.8 158.5L4.89994 174.4C4.69994 174.5 4.49995 174.6 4.29995 174.6Z" fill="#030047"/>
<path d="M20.2 188.3H4.3C3.9 188.3 3.5 188 3.5 187.5C3.5 187 3.8 186.7 4.3 186.7H20.2C20.6 186.7 21 187 21 187.5C21 188 20.6 188.3 20.2 188.3Z" fill="#030047"/>
<path d="M134.6 11.8C134.3 11.1 133.9 10.4 133.4 9.70004C133.4 9.70004 133.4 9.7 133.4 9.6C128.8 3 120.4 1 114.5 5.1C111.7 7.1 110.1 10.2 109.7 13.6C109.2 17.3 110.6 21.1 112.1 24.4C115.5 32 123.2 35.4 131 28.9C132.7 27.5 134 25.7 134.9 23.6C137.9 23 139.7 20.8 140 18.1C140.3 15 138 11.5 134.6 11.8Z" fill="white"/>
<path d="M122.6 33.0999C121.8 33.0999 121 33 120.2 32.8C116.5 31.9 113.2 29 111.3 24.7C109.9 21.6 108.3 17.5 108.9 13.5C109.4 9.59997 111.2 6.39997 114 4.49997C116.8 2.59997 120.3 1.79997 123.8 2.49997C127.8 3.19997 131.5 5.69998 134 9.19998C134.4 9.79998 134.8 10.3999 135.1 11.0999C136.5 11.0999 137.8 11.7 138.9 12.8C140.3 14.2 141 16.3 140.7 18.3C140.3 21.4 138.3 23.7 135.4 24.4C134.5 26.4 133.1 28.1999 131.4 29.5999C128.5 31.8999 125.5 33.0999 122.6 33.0999ZM121.3 3.69998C119 3.69998 116.7 4.39998 114.8 5.69998C112.3 7.39998 110.8 10.2 110.3 13.7C109.8 17.3 111.2 20.9999 112.6 24.0999C114.3 27.8999 117.2 30.6 120.5 31.4C123.7 32.1 127.1 31.1 130.4 28.4C132 27.1 133.3 25.4 134.1 23.4L134.3 23L134.7 22.9C137.2 22.4 138.9 20.6 139.2 18C139.4 16.5 138.8 14.8 137.8 13.7C137.2 13.1 136.2 12.4 134.7 12.5H134.2L134 12C133.6 11.2 133.3 10.6 132.9 9.99997C130.6 6.69997 127.3 4.49996 123.6 3.79996C122.8 3.79996 122 3.69998 121.3 3.69998Z" fill="#030047"/>
<path d="M121.33 19.1029C121.628 18.6376 121.491 18.0192 121.026 17.7218C120.561 17.4244 119.942 17.5606 119.645 18.0259C119.348 18.4913 119.484 19.1096 119.949 19.407C120.414 19.7044 121.033 19.5683 121.33 19.1029Z" fill="#030047"/>
<path d="M116.9 26.1999C115.9 24.1999 115.2 22.0999 114.7 19.8999C114.6 19.2999 115.6 19.0999 115.7 19.6999C116.1 21.7999 116.8 23.7999 117.8 25.7999C118.1 26.2999 117.2 26.7999 116.9 26.1999Z" fill="#030047"/>
<path d="M131.6 18.9999C131.8 16.6999 133.6 14.7 136 14.4C136.6 14.3 136.9 15.3 136.2 15.4C134.3 15.6 132.8 17.0999 132.6 18.9999C132.5 19.6999 131.5 19.6999 131.6 18.9999Z" fill="#030047"/>
<path d="M130.6 14.4999C129.9 16.9999 126.7 13.6 120.6 12.4C117.9 11.9 106.4 15.8999 104.6 11.9999C101.9 6.29993 109.5 2.99991 114.4 5.09991C113.9 2.99991 116.3 -0.100069 119.5 1.49993C128.1 -2.80007 135.9 2.79996 134.9 12.4C134.9 12.4 131.4 13.5999 130.6 14.4999Z" fill="#030047"/>
<path d="M99.6001 127.4C99.4001 127.4 99.1001 127.3 99.0001 127.1L94.8001 121.2C94.6001 120.9 94.6001 120.4 95.0001 120.2C95.3001 120 95.8001 120 96.0001 120.4L100.2 126.3C100.4 126.6 100.4 127.1 100 127.3C99.9001 127.4 99.8001 127.4 99.6001 127.4Z" fill="white"/>
<path d="M105 127.4C104.6 127.4 104.3 127.1 104.3 126.8L103.3 120.9C103.2 120.5 103.5 120.1 103.9 120C104.3 119.9 104.7 120.2 104.8 120.6L105.8 126.5C105.9 126.9 105.6 127.3 105.2 127.4C105 127.4 105 127.4 105 127.4Z" fill="white"/>
</svg>
