<?xml version="1.0" encoding="iso-8859-1"?>
<!-- Generator: Adobe Illustrator 19.0.0, SVG Export Plug-In . SVG Version: 6.00 Build 0)  -->
<svg version="1.1" id="Capa_1" xmlns="http://www.w3.org/2000/svg" xmlns:xlink="http://www.w3.org/1999/xlink" x="0px" y="0px"
	 viewBox="0 0 512.001 512.001" style="enable-background:new 0 0 512.001 512.001;" xml:space="preserve">
<g>
	<path style="fill:#E0E0E0;" d="M484.592,273.66l-60.155-104.487c-4.612-8.011-14.844-10.765-22.854-6.154l-103.464,59.565
		L161.537,455.357v23.603l316.9-182.445C486.449,291.903,489.203,281.67,484.592,273.66z"/>
	<path style="fill:#E0E0E0;" d="M352.569,96.71L248.582,35.696c-7.972-4.678-18.227-2.007-22.905,5.965l-64.14,109.313v304.384
		l196.998-335.742C363.213,111.644,360.542,101.388,352.569,96.71z"/>
</g>
<g>
	<path style="fill:#C6C5CA;" d="M352.569,96.71l-13.809-8.103c0.317,3.373-0.369,6.872-2.214,10.018L161.538,396.892v58.464
		l196.998-335.742C363.213,111.644,360.542,101.388,352.569,96.71z"/>
	<path style="fill:#C6C5CA;" d="M480.717,266.93c-0.708,0.582-1.459,1.126-2.28,1.599L165.421,448.738l-3.883,6.619v23.603
		l316.9-182.445c8.011-4.612,10.765-14.844,6.154-22.855L480.717,266.93z"/>
</g>
<path style="fill:#E0E0E0;" d="M487.768,350.463H384.732L161.537,478.96v8.806c0,9.242-7.491,16.734-16.733,16.736h342.965
	c9.243,0,16.736-7.493,16.736-16.736V367.199C504.504,357.956,497.011,350.463,487.768,350.463z"/>
<path style="fill:#C6C5CA;" d="M487.768,480.515H161.537v7.251c0,9.242-7.491,16.734-16.733,16.736h342.965
	c9.243,0,16.736-7.493,16.736-16.736v-23.988C504.504,473.022,497.011,480.515,487.768,480.515z"/>
<path style="fill:#E0E0E0;" d="M146.544,7.496H22.489c-8.28,0-14.992,6.712-14.992,14.992v467.022
	c0,8.28,6.713,14.992,14.992,14.992h124.055c8.28,0,14.992-6.713,14.992-14.992V22.488C161.537,14.208,154.825,7.496,146.544,7.496z
	 M84.517,456.19c-12.017,0-21.76-9.742-21.76-21.76c0-12.018,9.742-21.76,21.76-21.76s21.76,9.742,21.76,21.76
	C106.277,446.448,96.535,456.19,84.517,456.19z"/>
<path style="fill:#C6C5CA;" d="M146.544,7.496h-24.987c8.28,0,14.992,6.712,14.992,14.992v467.022
	c0,8.28-6.713,14.992-14.992,14.992h24.987c8.28,0,14.992-6.713,14.992-14.992V22.488C161.537,14.208,154.825,7.496,146.544,7.496z"
	/>
<g>
	<rect x="40.999" y="43.078" style="fill:#FFD039;" width="88.405" height="75.401"/>
	<rect x="40.999" y="152.702" style="fill:#FFD039;" width="88.405" height="75.401"/>
	<rect x="40.999" y="262.325" style="fill:#FFD039;" width="88.405" height="75.401"/>
</g>
<rect x="400.465" y="384.542" style="fill:#00B76C;" width="75.401" height="88.405"/>
<g>
	
		<rect x="219.42" y="91.789" transform="matrix(0.8613 0.5081 -0.5081 0.8613 102.3583 -115.9859)" style="fill:#FF6137;" width="88.405" height="75.401"/>
	<polygon style="fill:#FF6137;" points="189.004,168.976 161.537,215.534 161.537,240.317 226.835,278.84 265.148,213.897 	"/>
	<polygon style="fill:#FF6137;" points="161.537,280.051 161.537,367.597 171.132,373.257 209.445,308.316 	"/>
</g>
<g>
	
		<rect x="347.388" y="221.282" transform="matrix(-0.4978 -0.8673 0.8673 -0.4978 361.9077 727.5281)" style="fill:#FF434D;" width="88.405" height="75.402"/>
	<polygon style="fill:#FF434D;" points="185.035,415.31 190.729,425.23 256.125,387.696 228.984,340.407 	"/>
	<polygon style="fill:#FF434D;" points="263.546,281.503 248.932,306.412 285.807,370.66 351.203,333.127 307.196,256.451 	"/>
</g>
<g>
	<polygon style="fill:#00B76C;" points="290.839,404.518 290.839,472.949 366.241,472.949 366.241,384.542 325.537,384.542 	"/>
	<polygon style="fill:#00B76C;" points="181.214,467.632 181.214,472.949 256.617,472.949 256.617,424.221 	"/>
</g>
<path d="M55.261,434.43c0,16.132,13.124,29.256,29.256,29.256c16.133,0,29.256-13.124,29.256-29.256
	c0-16.133-13.124-29.256-29.256-29.256C68.385,405.174,55.261,418.298,55.261,434.43z M98.781,434.43
	c0,7.865-6.399,14.264-14.264,14.264s-14.264-6.398-14.264-14.264c0-7.865,6.398-14.264,14.264-14.264S98.781,426.565,98.781,434.43
	z"/>
<path d="M487.768,342.967h-74.992l69.402-39.956c5.609-3.23,9.626-8.451,11.308-14.7c1.683-6.25,0.832-12.781-2.398-18.391
	l-60.155-104.488c-6.667-11.579-21.512-15.576-33.091-8.91l-78.934,45.444l46.093-78.557c3.275-5.583,4.181-12.107,2.55-18.371
	c-1.631-6.264-5.604-11.516-11.186-14.792L252.376,29.23c-11.524-6.763-26.401-2.888-33.165,8.637l-50.178,85.518V22.488
	c0-12.4-10.089-22.488-22.488-22.488H22.489C10.089,0,0.001,10.089,0.001,22.488v131.495c0,4.141,3.356,7.496,7.496,7.496
	c4.141,0,7.496-3.355,7.496-7.496V22.488c0-4.134,3.362-7.496,7.496-7.496h124.055c4.134,0,7.496,3.362,7.496,7.496v128.485v64.562
	v24.781v39.736v87.546v87.761v23.602v8.806c0,5.095-4.144,9.239-9.238,9.24c-0.007,0-0.013,0.001-0.019,0.001H22.489
	c-4.134,0-7.496-3.362-7.496-7.496V183.97c0-4.141-3.355-7.496-7.496-7.496c-4.14,0-7.496,3.355-7.496,7.496v305.543
	c0,12.4,10.089,22.488,22.488,22.488h124.055c0.013,0,0.026-0.001,0.038-0.001h153.484c4.141,0,7.496-3.355,7.496-7.496
	c0-4.141-3.355-7.496-7.496-7.496H167.743c0.832-2.346,1.289-4.867,1.289-7.495v-1.745v-4.472l7.634-4.396
	c1.262,0.966,2.836,1.546,4.548,1.546h75.401c4.141,0,7.496-3.355,7.496-7.496v-44.394l17.679-10.178l1.552-0.894v55.465
	c0,4.141,3.355,7.496,7.496,7.496h75.401c4.141,0,7.496-3.355,7.496-7.496v-88.408c0-4.141-3.355-7.496-7.496-7.496h-12.659
	l33.153-19.087h101.032c5.095,0,9.24,4.145,9.24,9.24v120.566c0,5.095-4.145,9.24-9.24,9.24H330.052
	c-4.141,0-7.496,3.355-7.496,7.496c0,4.141,3.355,7.496,7.496,7.496h157.716c13.362,0,24.233-10.87,24.233-24.233V367.2
	C512,353.838,501.13,342.967,487.768,342.967z M249.121,465.453h-49.097l49.097-28.266L249.121,465.453L249.121,465.453z
	 M405.32,169.515c4.416-2.541,10.078-1.018,12.619,3.397l60.155,104.488c1.231,2.139,1.557,4.63,0.915,7.012
	c-0.642,2.384-2.173,4.375-4.312,5.605L277.596,403.493l-108.563,62.501v-8.6l16.016-27.296c1.446,1.689,3.536,2.627,5.686,2.627
	c1.266,0,2.549-0.32,3.725-0.995l65.396-37.534c1.725-0.99,2.984-2.624,3.504-4.543c0.52-1.919,0.256-3.966-0.734-5.69
	l-24.975-43.515l11.209-19.103l30.445,53.045c1.386,2.415,3.911,3.766,6.509,3.766c1.266,0,2.549-0.32,3.725-0.996l65.396-37.534
	c3.591-2.06,4.831-6.643,2.77-10.233l-44.006-76.676c-0.99-1.725-2.624-2.984-4.543-3.504c-1.919-0.521-3.966-0.255-5.69,0.734
	l-19.167,11.001l19.281-32.861L405.32,169.515z M169.033,217.581l22.619-38.34l63.231,37.303l-30.695,52.03l-55.155-32.539V217.581z
	 M169.033,293.177l30.147,17.785l-30.147,51.1V293.177z M269.005,287.015l35.421-20.331l36.544,63.672l-52.393,30.071
	l-30.978-53.974l4.456-7.594L269.005,287.015z M228.913,355.342l16.978,29.583l-51.771,29.714l1.31-2.234l7.853-13.383
	L228.913,355.342z M232.142,45.455c2.579-4.395,8.255-5.871,12.645-3.293l103.988,61.016h0.001
	c4.394,2.578,5.871,8.251,3.293,12.645l-89.022,151.719l-11.37,19.378l-9.211,15.699c-0.002,0.003-0.003,0.006-0.004,0.009
	l-54.853,93.485l-9.038,15.404l-0.001,0.001l-9.536,16.253v-47.323c0.689,0.201,1.391,0.308,2.092,0.308
	c2.565,0,5.064-1.318,6.464-3.688l38.313-64.943c1.01-1.712,1.298-3.756,0.803-5.681c-0.497-1.925-1.737-3.574-3.45-4.585
	l-44.22-26.089v-22.329l53.992,31.854c1.163,0.687,2.48,1.039,3.809,1.039c0.627,0,1.255-0.078,1.872-0.237
	c1.925-0.497,3.574-1.737,4.585-3.45l38.313-64.943c2.103-3.565,0.919-8.161-2.648-10.266l-76.143-44.921
	c-3.561-2.101-8.16-0.919-10.265,2.648l-13.515,22.909v-35.066L232.142,45.455z M327.541,392.039h31.204v73.414h-60.409v-56.601
	l6.491-3.737L327.541,392.039z"/>
<path d="M41,125.979h88.407c4.141,0,7.496-3.355,7.496-7.496V43.082c0-4.141-3.355-7.496-7.496-7.496H41
	c-4.141,0-7.496,3.355-7.496,7.496v75.401C33.504,122.624,36.86,125.979,41,125.979z M48.497,50.578h73.414v60.409H48.497V50.578z"
	/>
<path d="M33.504,228.108c0,4.141,3.355,7.496,7.496,7.496h88.407c4.141,0,7.496-3.355,7.496-7.496v-75.401
	c0-4.141-3.355-7.496-7.496-7.496H41c-4.141,0-7.496,3.355-7.496,7.496V228.108z M48.497,160.202h73.414v60.409H48.497V160.202z"/>
<path d="M33.504,337.732c0,4.141,3.355,7.496,7.496,7.496h88.407c4.141,0,7.496-3.355,7.496-7.496v-75.4
	c0-4.141-3.355-7.496-7.496-7.496H41c-4.141,0-7.496,3.355-7.496,7.496V337.732z M48.497,269.827h73.414v60.408H48.497V269.827z"/>
<path d="M475.865,480.445c4.141,0,7.496-3.355,7.496-7.496v-88.407c0-4.141-3.355-7.496-7.496-7.496h-75.401
	c-4.141,0-7.496,3.355-7.496,7.496v88.407c0,4.141,3.355,7.496,7.496,7.496H475.865z M407.96,392.039h60.409v73.414H407.96V392.039z
	"/>
<path d="M202.585,145.956l76.143,44.922c1.163,0.686,2.481,1.039,3.809,1.039c0.627,0,1.255-0.078,1.872-0.237
	c1.925-0.497,3.574-1.737,4.585-3.45l38.313-64.944c2.103-3.565,0.919-8.161-2.648-10.266L248.517,68.1
	c-3.562-2.101-8.16-0.918-10.266,2.648l-10.674,18.092c-2.103,3.565-0.919,8.161,2.648,10.266c3.564,2.101,8.161,0.919,10.266-2.648
	l6.863-11.635l63.231,37.303l-30.695,52.031l-63.231-37.304l8.591-14.561c2.104-3.565,0.919-8.161-2.648-10.266
	c-3.563-2.102-8.161-0.919-10.266,2.648l-12.399,21.016C197.835,139.256,199.019,143.852,202.585,145.956z"/>
<path d="M374.383,319.823c1.386,2.415,3.911,3.765,6.509,3.765c1.266,0,2.549-0.32,3.725-0.995l65.396-37.534
	c3.591-2.06,4.831-6.643,2.771-10.233l-44.006-76.676c-2.062-3.592-6.644-4.832-10.233-2.77l-65.397,37.534
	c-1.724,0.989-2.984,2.624-3.504,4.543c-0.52,1.919-0.256,3.966,0.734,5.69L374.383,319.823z M399.504,212.116l36.544,63.672
	l-52.393,30.071l-36.545-63.672L399.504,212.116z"/>
<g>
</g>
<g>
</g>
<g>
</g>
<g>
</g>
<g>
</g>
<g>
</g>
<g>
</g>
<g>
</g>
<g>
</g>
<g>
</g>
<g>
</g>
<g>
</g>
<g>
</g>
<g>
</g>
<g>
</g>
</svg>
