<?xml version="1.0" encoding="iso-8859-1"?>
<!-- Generator: Adobe Illustrator 19.0.0, SVG Export Plug-In . SVG Version: 6.00 Build 0)  -->
<svg version="1.1" id="Capa_1" xmlns="http://www.w3.org/2000/svg" xmlns:xlink="http://www.w3.org/1999/xlink" x="0px" y="0px"
	 viewBox="0 0 512 512" style="enable-background:new 0 0 512 512;" xml:space="preserve">
<g>
	<rect x="7.489" y="7.542" style="fill:#FFD039;" width="46.972" height="46.972"/>
	<rect x="231.515" y="457.488" style="fill:#FFD039;" width="46.972" height="46.972"/>
	<rect x="7.489" y="457.488" style="fill:#FFD039;" width="46.972" height="46.972"/>
	<rect x="457.538" y="457.488" style="fill:#FFD039;" width="46.972" height="46.972"/>
	<rect x="231.515" y="7.542" style="fill:#FFD039;" width="46.972" height="46.972"/>
	<rect x="457.538" y="7.542" style="fill:#FFD039;" width="46.972" height="46.972"/>
	<rect x="7.489" y="232.743" style="fill:#FFD039;" width="46.972" height="46.972"/>
	<rect x="457.538" y="232.743" style="fill:#FFD039;" width="46.972" height="46.972"/>
</g>
<polygon style="fill:#E0E0E0;" points="457.539,481.202 457.539,457.486 481.969,457.486 481.969,279.716 457.539,279.716 
	457.539,232.744 481.969,232.744 481.969,54.514 457.539,54.514 457.539,31.259 278.487,31.259 278.487,54.514 231.515,54.514 
	231.515,31.259 54.461,31.259 54.461,54.514 30.03,54.514 30.03,232.744 54.461,232.744 54.461,279.716 30.03,279.716 
	30.03,457.486 54.461,457.486 54.461,481.202 231.515,481.202 231.515,457.486 278.487,457.486 278.487,481.202 "/>
<polygon style="fill:#FF434D;" points="269.802,312.567 395.088,305.458 179.158,104.579 179.158,399.345 "/>
<polygon style="fill:#DD3646;" points="369.656,281.798 258.47,288.107 179.158,364.036 179.158,399.345 269.802,312.567 
	395.088,305.458 "/>
<path d="M179.158,278.698c-4.136,0-7.489,3.353-7.489,7.489v113.158c0,3,1.789,5.71,4.548,6.887c0.948,0.404,1.947,0.602,2.94,0.602
	c1.893,0,3.759-0.718,5.18-2.079l88.649-84.867l122.527-6.952c2.996-0.17,5.602-2.112,6.62-4.935
	c1.019-2.823,0.254-5.981-1.943-8.025L184.258,99.096c-2.183-2.03-5.36-2.574-8.091-1.383c-2.732,1.189-4.498,3.886-4.498,6.866
	V256.23c0,4.136,3.353,7.489,7.489,7.489c4.136,0,7.489-3.353,7.489-7.489V121.775l190.478,177.202l-107.746,6.113
	c-1.78,0.101-3.467,0.834-4.755,2.067l-77.977,74.65v-95.621C186.647,282.05,183.294,278.698,179.158,278.698z"/>
<path d="M504.511,0.053H457.54c-4.136,0-7.489,3.353-7.489,7.489v16.227H285.976V7.542c0-4.136-3.353-7.489-7.489-7.489h-46.972
	c-4.136,0-7.489,3.353-7.489,7.489v16.227H61.95V7.542c0-4.136-3.353-7.489-7.489-7.489H7.489C3.353,0.053,0,3.406,0,7.542v46.972
	c0,4.136,3.353,7.489,7.489,7.489H22.54v163.252H7.489c-4.136,0-7.489,3.353-7.489,7.489v46.972c0,4.136,3.353,7.489,7.489,7.489
	H22.54v84.604c0,4.136,3.353,7.489,7.489,7.489s7.489-3.353,7.489-7.489v-84.604h16.942c4.136,0,7.489-3.353,7.489-7.489v-46.972
	c0-4.136-3.353-7.489-7.489-7.489H37.519V62.003h16.942c4.136,0,7.489-3.353,7.489-7.489V38.747h162.076v15.767
	c0,4.136,3.353,7.489,7.489,7.489h46.972c4.136,0,7.489-3.353,7.489-7.489V38.747h164.074v15.767c0,4.136,3.353,7.489,7.489,7.489
	h16.941v57.012c0,4.136,3.353,7.489,7.489,7.489s7.489-3.353,7.489-7.489V62.003h15.051c4.136,0,7.489-3.353,7.489-7.489V7.542
	C512,3.406,508.647,0.053,504.511,0.053z M46.972,240.233v31.994l0,0H14.978v-31.994l0,0H46.972z M46.972,47.025H30.03H14.978
	V15.031h31.994v16.227V47.025z M270.998,47.025h-31.994V31.259V15.032h31.994v16.227V47.025z M497.022,47.025H481.97h-16.941V31.259
	V15.032h31.993V47.025z"/>
<path d="M504.511,225.255H489.46v-76.283c0-4.136-3.353-7.489-7.489-7.489s-7.489,3.353-7.489,7.489v76.283H457.54
	c-4.136,0-7.489,3.353-7.489,7.489v46.972c0,4.136,3.353,7.489,7.489,7.489h16.941v162.791H457.54c-4.136,0-7.489,3.353-7.489,7.489
	l0,0v16.227H285.976v-16.227l0,0c0-4.136-3.353-7.489-7.489-7.489h-46.972c-4.136,0-7.489,3.353-7.489,7.489l0,0v16.227H61.95
	v-16.227l0,0c0-4.136-3.353-7.489-7.489-7.489H37.519v-48.23c0-4.136-3.353-7.489-7.489-7.489s-7.489,3.353-7.489,7.489v48.23H7.489
	c-4.136,0-7.489,3.353-7.489,7.489v46.972c0,4.136,3.353,7.489,7.489,7.489h46.972c4.136,0,7.489-3.353,7.489-7.489v-15.767h162.076
	v15.767c0,4.136,3.353,7.489,7.489,7.489h46.972c4.136,0,7.489-3.353,7.489-7.489v-15.767h164.074v15.767
	c0,4.136,3.353,7.489,7.489,7.489h46.971c4.136,0,7.489-3.353,7.489-7.489v-46.972c0-4.136-3.353-7.489-7.489-7.489H489.46V287.205
	h15.051c4.136,0,7.489-3.353,7.489-7.489v-46.972C512,228.608,508.647,225.255,504.511,225.255z M46.972,496.969H14.978v-31.994
	H30.02c0.003,0,16.948,0,16.951,0l0,0L46.972,496.969L46.972,496.969z M270.998,496.969h-31.994v-31.994l0,0h31.994V496.969
	L270.998,496.969z M497.022,496.969h-31.993v-15.767v-16.227h16.941c0.003,0,0.006,0,0.01,0h15.042v31.994H497.022z
	 M497.022,272.227H481.97h-16.941v-31.994h16.941h15.051V272.227z"/>
<g>
</g>
<g>
</g>
<g>
</g>
<g>
</g>
<g>
</g>
<g>
</g>
<g>
</g>
<g>
</g>
<g>
</g>
<g>
</g>
<g>
</g>
<g>
</g>
<g>
</g>
<g>
</g>
<g>
</g>
</svg>
