<?xml version="1.0" encoding="iso-8859-1"?>
<!-- Generator: Adobe Illustrator 19.0.0, SVG Export Plug-In . SVG Version: 6.00 Build 0)  -->
<svg version="1.1" id="Capa_1" xmlns="http://www.w3.org/2000/svg" xmlns:xlink="http://www.w3.org/1999/xlink" x="0px" y="0px"
	 viewBox="0 0 512 512" style="enable-background:new 0 0 512 512;" xml:space="preserve">
<path style="fill:#E0E0E0;" d="M450.469,436.598H61.531c-29.849,0-54.046-24.198-54.046-54.047l0,0h497.031l0,0
	C504.515,412.4,480.318,436.598,450.469,436.598z"/>
<path style="fill:#919191;" d="M487.895,382.55H24.105V105.342c0-16.535,13.404-29.939,29.939-29.939h403.913
	c16.534,0,29.939,13.404,29.939,29.939V382.55z"/>
<rect x="64.348" y="116.961" style="fill:#39A4FA;" width="383.296" height="265.587"/>
<rect x="422.696" y="116.961" style="fill:#0091E2;" width="24.949" height="265.587"/>
<polygon style="fill:#FFFFFF;" points="323.278,184.577 323.278,168.314 188.722,168.314 188.722,184.577 172.459,184.577 
	172.459,319.133 188.722,319.133 188.722,335.395 323.278,335.395 323.278,319.133 339.54,319.133 339.54,184.577 "/>
<g>
	<rect x="156.201" y="319.138" style="fill:#FFD039;" width="32.524" height="32.524"/>
	<rect x="323.279" y="152.05" style="fill:#FFD039;" width="32.524" height="32.524"/>
	<rect x="323.279" y="319.138" style="fill:#FFD039;" width="32.524" height="32.524"/>
	<rect x="156.201" y="152.05" style="fill:#FFD039;" width="32.524" height="32.524"/>
</g>
<g>
	<path style="fill:#C6C5CA;" d="M474.577,382.55L474.577,382.55c0,29.849-24.198,54.047-54.047,54.047h29.939
		c29.849,0,54.047-24.198,54.047-54.047l0,0H474.577z"/>
	<path style="fill:#C6C5CA;" d="M294.633,407.193h-77.268c-13.609,0-24.643-11.032-24.643-24.643l0,0h126.552l0,0
		C319.276,396.16,308.244,407.193,294.633,407.193z"/>
</g>
<path style="fill:#727272;" d="M457.957,75.403h-24.949c16.534,0,29.939,13.404,29.939,29.939v277.209h24.949V105.342
	C487.895,88.807,474.491,75.403,457.957,75.403z"/>
<path d="M504.515,375.066h-9.135V105.342c0-20.636-16.788-37.423-37.423-37.423H54.043c-20.636,0-37.423,16.788-37.423,37.423
	v269.723H7.485c-4.134,0-7.485,3.35-7.485,7.485c0,33.929,27.603,61.531,61.531,61.531h388.938
	c33.929,0,61.531-27.603,61.531-61.531C512,378.417,508.649,375.066,504.515,375.066z M31.589,105.342
	c0-12.381,10.072-22.454,22.454-22.454h403.913c12.382,0,22.454,10.073,22.454,22.454v269.723h-25.278V199.546
	c0-4.135-3.351-7.485-7.485-7.485s-7.485,3.35-7.485,7.485v175.52H319.276H192.724H71.837v-40.964c0-4.135-3.351-7.485-7.485-7.485
	s-7.485,3.35-7.485,7.485v40.964H31.589C31.589,375.067,31.589,105.342,31.589,105.342z M310.072,390.035
	c-2.784,5.72-8.658,9.672-15.437,9.672h-77.268c-6.779,0-12.653-3.952-15.437-9.672H310.072z M450.469,429.113H61.531
	c-23.127,0-42.369-16.949-45.961-39.077h8.534h40.248h121.776c3.383,14.115,16.1,24.642,31.238,24.642h77.268
	c15.137,0,27.855-10.526,31.238-24.642h121.776h40.248h8.534C492.838,412.163,473.595,429.113,450.469,429.113z"/>
<path d="M64.352,311.648c4.134,0,7.485-3.35,7.485-7.485V124.449h368.326v45.159c0,4.135,3.351,7.485,7.485,7.485
	s7.485-3.35,7.485-7.485v-52.643c0-4.135-3.351-7.485-7.485-7.485H64.352c-4.134,0-7.485,3.35-7.485,7.485v187.199
	C56.868,308.297,60.219,311.648,64.352,311.648z"/>
<path d="M355.802,144.568h-32.524c-4.134,0-7.485,3.35-7.485,7.485v8.778H196.207v-8.778c0-4.135-3.351-7.485-7.485-7.485h-32.524
	c-4.134,0-7.485,3.35-7.485,7.485v32.524c0,4.135,3.351,7.485,7.485,7.485h8.778v119.586h-8.778c-4.134,0-7.485,3.35-7.485,7.485
	v32.524c0,4.135,3.351,7.485,7.485,7.485h32.524c4.134,0,7.485-3.35,7.485-7.485v-8.777h119.586v8.777
	c0,4.135,3.351,7.485,7.485,7.485h32.524c4.134,0,7.485-3.35,7.485-7.485v-32.524c0-4.135-3.351-7.485-7.485-7.485h-8.777V192.062
	h8.777c4.134,0,7.485-3.35,7.485-7.485v-32.524C363.287,147.918,359.936,144.568,355.802,144.568z M163.682,159.537h17.555v8.778
	v8.777h-8.777h-8.778V159.537z M181.237,344.172h-17.555v-17.555h8.778h8.777v8.778V344.172z M348.318,344.172h-17.555v-8.777
	v-8.778h8.777h8.777L348.318,344.172L348.318,344.172z M332.055,311.648h-8.777c-4.134,0-7.485,3.35-7.485,7.485v8.778H196.207
	v-8.778c0-4.135-3.351-7.485-7.485-7.485h-8.777V192.062h8.777c4.134,0,7.485-3.35,7.485-7.485V175.8h119.586v8.777
	c0,4.135,3.351,7.485,7.485,7.485h8.777V311.648z M348.318,177.092h-8.777h-8.777v-8.777v-8.778h17.555L348.318,177.092
	L348.318,177.092z"/>
<g>
</g>
<g>
</g>
<g>
</g>
<g>
</g>
<g>
</g>
<g>
</g>
<g>
</g>
<g>
</g>
<g>
</g>
<g>
</g>
<g>
</g>
<g>
</g>
<g>
</g>
<g>
</g>
<g>
</g>
</svg>
