<svg width="317" height="191" viewBox="0 0 317 191" fill="none" xmlns="http://www.w3.org/2000/svg">
<path d="M315.3 152C313.2 160.8 305.4 168 295.1 168H101.7C87.9 168 75 162 66 152C63.6 149.4 61.6 146.4 59.8 143.3L4.10002 41.8C3.30002 40.3 2.70003 38.8 2.30003 37.3C-1.29997 24.5 8.20002 11 22.4 11H215.7C228.2 11 240 15.9 248.8 24.3L240.6 37.3L234.8 46.5L255.7 59.8L263.8 47.1L313.4 137.2C315.9 142 316.4 147.2 315.3 152Z" fill="white"/>
<path d="M295.1 168.7H101.7C87.8998 168.7 74.6998 162.8 65.4998 152.4C63.0998 149.7 60.9998 146.7 59.1998 143.5L3.39985 42.2C2.59985 40.7 1.89984 39.1 1.49984 37.6C-0.300156 31.2 1.09984 24.2 5.09984 18.8C9.19984 13.4 15.3998 10.3 22.1998 10.3H215.5C228.1 10.3 240.1 15.1 249.1 23.8L249.5 24.2L235.5 46.2L255.2 58.7L263.6 45.5L313.8 136.8C316.4 141.5 317.1 147 315.9 152.1C313.7 161.9 305.1 168.7 295.1 168.7ZM22.2998 11.7C15.9998 11.7 10.1998 14.6 6.39985 19.6C2.59985 24.6 1.29984 31.1 2.99984 37.1C3.39984 38.6 3.99985 40 4.79985 41.4L60.5998 142.9C62.2999 146 64.2998 148.9 66.6998 151.5C75.5998 161.5 88.3998 167.3 101.8 167.3H295.1C304.4 167.3 312.4 161 314.6 151.9C315.8 147 315.1 142.1 312.7 137.6L263.8 48.6L256 60.9L233.8 46.8L247.9 24.5C239.2 16.3 227.8 11.8 215.8 11.8H22.2998V11.7Z" fill="#030047"/>
<path d="M248.8 24.3L240.6 37.3H2.19993C-1.40007 24.5 8.09993 11 22.2999 11H215.6C228.2 11 240 15.9 248.8 24.3Z" fill="#030047"/>
<path d="M315.3 152C313.2 160.8 305.4 168 295.1 168H101.7C87.9 168 75 162 66 152H315.3Z" fill="#030047"/>
<path d="M61.5997 29.3H29.9997C27.8997 29.3 26.1997 27.6 26.1997 25.5C26.1997 23.4 27.8997 21.7 29.9997 21.7H61.6997C63.7997 21.7 65.4997 23.4 65.4997 25.5C65.4997 27.6 63.7997 29.3 61.5997 29.3Z" fill="white"/>
<path d="M213.7 29.3H198.1C196 29.3 194.3 27.6 194.3 25.5C194.3 23.4 196 21.7 198.1 21.7H213.7C215.8 21.7 217.5 23.4 217.5 25.5C217.6 27.6 215.9 29.3 213.7 29.3Z" fill="white"/>
<path d="M138.3 83.5C134.8 83.5 131.1 83.2 127.3 82.7C113.9 80.8 104.8 75.2 99.4995 70.8C97.9995 69.6 97.2995 67.7 97.3995 65.8C97.5995 63.9 98.5995 62.2 100.3 61.3C106.8 57.6 118.1 53.1 134.5 53.1C140.7 53.1 147.2 53.7 153.9 55C158.4 55.9 164.1 58.9 166.4 63.1C167.7 65.4 167.8 67.9 166.9 70.4C163.8 78.6 153 83.5 138.3 83.5Z" fill="white"/>
<path d="M134.5 53.9C140.7 53.9 147.1 54.5 153.8 55.8C158.1 56.6 163.6 59.5 165.8 63.5C167 65.6 167.1 67.8 166.2 70.1C163.9 76.2 155.3 82.7 138.2 82.7C134.8 82.7 131.1 82.4 127.3 81.9C114 80.1 105.1 74.5 99.8997 70.2C98.5997 69.1 97.9997 67.5 98.0997 65.9C98.1997 64.2 99.1997 62.8 100.6 62C107.2 58.3 118.3 53.9 134.5 53.9ZM134.5 52.4C117.9 52.4 106.5 57 99.9997 60.7C95.9997 63 95.4997 68.5 98.9997 71.4C104.3 75.9 113.5 81.6 127.1 83.5C131.1 84 134.8 84.3 138.2 84.3C154.9 84.3 164.7 78.2 167.6 70.7C171 61.8 160.6 55.6 154.1 54.3C146.9 52.9 140.4 52.4 134.5 52.4Z" fill="#030047"/>
<path d="M149.9 80.2001C149 77.8001 149.4 75.1001 149.9 72.6001C150.4 70.2001 151.6 68.5001 150.3 66.4001C146.4 60.1001 135.6 60.8001 129.6 60.1001C125.9 59.7001 118.8 57.9 114.8 54.8C108.4 56.5 103.4 58.7001 99.8997 60.7001C95.9997 63.0001 95.4997 68.4001 98.9997 71.4001C104.3 75.9001 113.5 81.6001 127.1 83.5001C137 84.9001 145.1 84.4 151.4 82.8C150.8 82 150.3 81.1001 149.9 80.2001Z" fill="#5F5FFF"/>
<path d="M122.4 122.2C122.3 122.2 122.3 122.2 122.2 122.2C111.1 118.9 98.9998 105 100.6 92.7C100.7 92.3 101 91.9999 101.4 92.0999C101.8 92.1999 102.1 92.5 102 92.9C100.6 104.2 112.1 117.6 122.6 120.8C123 120.9 123.2 121.3 123.1 121.7C123 122 122.7 122.2 122.4 122.2Z" fill="#030047"/>
<path d="M93.1996 76.2C93.0996 76.2 92.8996 76.2 92.7996 76.1C89.2996 73.9 86.8996 70.4 86.4996 66.9C86.0996 63.6 87.3996 60.3 90.1996 57.4C90.4996 57.1 90.9996 57.1 91.2996 57.4C91.5996 57.7 91.5996 58.2 91.2996 58.5C88.7996 61 87.6996 63.9 88.0996 66.7C88.4996 69.8 90.5996 72.9 93.6996 74.9C93.9996 75.1 94.1996 75.6 93.8996 75.9C93.6996 76.1 93.3996 76.2 93.1996 76.2Z" fill="#030047"/>
<path d="M96.6996 85.7C96.5996 85.7 96.5996 85.7 96.6996 85.7C92.5996 85.4 85.2996 82.5999 81.6996 76.2999C81.4996 75.8999 81.5996 75.4999 81.9996 75.2999C82.3996 75.0999 82.7996 75.2 82.9996 75.6C86.2996 81.4 92.9996 83.9 96.6996 84.2C97.0996 84.2 97.3996 84.6 97.3996 85C97.3996 85.4 97.0996 85.7 96.6996 85.7Z" fill="#030047"/>
<path d="M93.1998 131.4C93.0998 131.4 93.0998 131.4 92.9998 131.4C92.8998 131.4 84.9998 129.5 83.8998 121.7C83.7998 121.3 84.0998 120.9 84.4998 120.9C84.8998 120.8 85.2998 121.1 85.2998 121.5C86.1998 128.3 93.1998 130 93.1998 130C93.5998 130.1 93.8998 130.5 93.7998 130.9C93.7998 131.1 93.4998 131.4 93.1998 131.4Z" fill="#030047"/>
<path d="M237 115.9C236.7 115.9 236.3 115.7 236.3 115.3C236.2 114.9 236.5 114.5 236.9 114.4C247 112.3 252.9 104.5 255 98.5C255.1 98.1 255.6 97.9 256 98C256.4 98.1 256.6 98.6 256.5 99C253.6 107.4 246.1 114.1 237.3 115.9C237.1 115.9 237.1 115.9 237 115.9Z" fill="#030047"/>
<path d="M235.5 125.2C235.2 125.2 234.8 125 234.8 124.6C234.7 124.2 235 123.8 235.4 123.7C242.2 122.3 247.4 119.8 251.6 115.9C251.9 115.6 252.4 115.6 252.7 115.9C253 116.2 253 116.7 252.7 117C248.3 121.1 242.8 123.8 235.8 125.2C235.6 125.2 235.6 125.2 235.5 125.2Z" fill="#030047"/>
<path d="M208.9 91.3L172.9 110L205.1 123.1L238.4 106.3L208.9 91.3Z" fill="#030047"/>
<path d="M216.9 86.3C216.4 77.2 206.9 61.1 180 58.7C180.2 60.4 179.1 62.2 178.8 63.9C178 67.7 176.5 71.3 174.1 73.6C182.8 74.4 194 79.7 196.6 85.4C196.8 85.9 197 86.5 197.2 87C193.6 89.5 191.4 94.7 193 96.4C194.6 98.2 197.2 93.9 197.2 93.9L197.9 93.8C197.8 97.4 197.1 100.1 198.9 101.1C201.4 102.5 202.5 100.1 202.5 100.1C206.3 102.2 217.4 95.7 216.9 86.3Z" fill="white"/>
<path d="M200.3 102.2C199.7 102.2 199.1 102 198.5 101.7C196.6 100.7 196.8 98.3 197 95.6C197 95.5 197 95.4 197 95.4C196.3 96.3 195.1 97.5 194 97.6C193.4 97.7 192.8 97.4 192.4 96.9C191.8 96.3 191.6 95.3 191.7 94.1C192 91.6 193.9 88.5 196.2 86.7C196.1 86.3 195.9 86 195.8 85.7C193.3 80.1 182.2 75.1 173.9 74.3L172.3 74.1L173.5 73C175.6 71.1 177.1 67.9 178 63.7C178.1 63 178.4 62.3 178.6 61.7C179 60.6 179.3 59.6 179.2 58.7L179.1 57.8L180 57.9C206.6 60.2 217.1 76.1 217.6 86.2C217.9 92.1 213.9 96.8 210 99.2C207.2 100.9 204.5 101.5 202.7 100.9C202.4 101.3 201.9 101.8 201.2 102C201 102.2 200.7 102.2 200.3 102.2ZM198.6 92.9V93.8C198.6 94.5 198.5 95.1 198.5 95.7C198.3 98.3 198.3 99.8 199.2 100.4C199.8 100.7 200.3 100.8 200.7 100.7C201.4 100.5 201.7 99.8 201.8 99.8L202.2 99.1L202.9 99.5C204.2 100.2 206.8 99.7 209.3 98.1C212.8 95.9 216.4 91.8 216.1 86.5C215.6 77 205.7 62.2 180.7 59.7C180.6 60.6 180.3 61.5 180 62.4C179.8 63 179.6 63.6 179.4 64.2C178.6 68 177.3 71 175.5 73.2C184 74.4 194.5 79.4 197.1 85.3C197.3 85.8 197.5 86.3 197.7 87L197.9 87.5L197.4 87.8C194.9 89.6 193.3 92.6 193 94.5C192.9 95.2 193 95.8 193.3 96.1C193.5 96.3 193.6 96.3 193.7 96.3C194.5 96.2 195.7 94.7 196.3 93.7L196.5 93.4L198.6 92.9Z" fill="#030047"/>
<path d="M198.4 90.8C198.3 91.4 198.1 92 198 92.6C197.9 93.2 198.8 93.5 199 92.9L199.4 91.2C199.5 90.4 198.5 90.2 198.4 90.8Z" fill="#030047"/>
<path d="M203.5 91.4001C203.1 93.6001 202.7 95.8 202.4 98C202.3 98.6 203.3 98.9 203.4 98.3C203.8 96.1 204.2 93.9 204.5 91.7C204.6 91.1 203.7 90.8001 203.5 91.4001Z" fill="#030047"/>
<path d="M238.4 106.3L205.1 123.1V86.8C205.1 85.7 205.7 84.6 206.8 84.1L236.9 69C238.9 68 241.3 69.5 241.3 71.7V101.8C241.3 103.7 240.2 105.4 238.4 106.3Z" fill="#030047"/>
<path d="M225.9 95.9001C223.6 95.9001 221.8 94.1 221.8 91.8C221.8 89.5 223.6 86.9 225.9 86.9C228.3 86.9 230 88.9 230 91.8C230 94.1 228.2 95.9001 225.9 95.9001ZM225.9 88.4001C224.5 88.4001 223.3 90.3 223.3 91.8C223.3 93.2 224.5 94.4001 225.9 94.4001C227.3 94.4001 228.5 93.2 228.5 91.8C228.5 89.7 227.5 88.4001 225.9 88.4001Z" fill="white"/>
<path d="M205.1 118.6C204.7 118.6 204.3 118.3 204.3 117.8V102C204.3 101.6 204.6 101.2 205.1 101.2C205.6 101.2 205.9 101.5 205.9 102V117.8C205.9 118.3 205.5 118.6 205.1 118.6Z" fill="white"/>
<path d="M186.2 107.9C185.9 107.9 185.7 107.8 185.5 107.5C185.3 107.1 185.4 106.7 185.8 106.5L190.3 104.1C190.7 103.9 191.1 104 191.3 104.4C191.5 104.8 191.4 105.2 191 105.4L186.5 107.8C186.4 107.9 186.3 107.9 186.2 107.9Z" fill="white"/>
<path d="M193.5 107.9C193.2 107.9 193 107.8 192.8 107.5C192.6 107.1 192.7 106.7 193.1 106.5L195.4 105.3C195.8 105.1 196.2 105.2 196.4 105.6C196.6 106 196.5 106.4 196.1 106.6L193.8 107.8C193.8 107.9 193.7 107.9 193.5 107.9Z" fill="white"/>
<path d="M195.7 113.9C195.4 113.9 195.2 113.8 195 113.5C194.8 113.1 194.9 112.7 195.3 112.5L198.9 110.6C199.3 110.4 199.7 110.5 199.9 110.9C200.1 111.3 200 111.7 199.6 111.9L196 113.8C196 113.9 195.8 113.9 195.7 113.9Z" fill="white"/>
<path d="M120.2 65.4C110.4 70.1 110.4 76.9 114.3 79.7C118.2 82.5 140.7 84.6 145.7 77.8C150.7 71 147.6 64.4 137.9 62.7C134.1 62 125.2 63 120.2 65.4Z" fill="white"/>
<path d="M125.1 65.2001C98.2 84.3001 109.5 117.5 151 121.4C158.6 122.1 163.5 116.9 167.7 119.3C170 120.6 173.7 117.8 175.1 118.7C179.7 121.5 180.8 116.8 180.8 116.8C181.6 117 183.9 114.6 182.7 112.7C182.7 112.7 185.1 111 182.6 107.9C177.5 101.5 162.4 100.1 154.5 98.4001C146.6 96.7001 130.8 95.4001 136.9 83.9001C138.7 80.4001 142.2 76.0001 142.2 75.9001" fill="white"/>
<path d="M152.4 122.2C151.9 122.2 151.4 122.2 150.9 122.1C129.8 120.1 114.4 110.1 110.6 96C107.6 84.7 112.8 72.9 124.6 64.5C124.9 64.3 125.4 64.3 125.6 64.7C125.8 65 125.8 65.5 125.4 65.7C114.1 73.7 109.1 84.9 111.9 95.6C115.5 109.1 130.4 118.6 150.9 120.6C154.4 120.9 157.3 119.9 159.9 119.1C162.9 118.1 165.4 117.2 167.9 118.6C168.9 119.2 170.4 118.7 171.8 118.2C173.2 117.8 174.4 117.4 175.3 117.9C176.5 118.6 177.5 118.9 178.3 118.5C179.5 118 179.9 116.5 179.9 116.4L180.1 115.7L180.8 115.9C180.9 115.9 181.6 115.3 181.9 114.5C182.2 113.9 182.1 113.4 181.8 112.9L181.4 112.3L182 111.9C182 111.9 182.6 111.4 182.7 110.6C182.8 109.9 182.5 109.1 181.8 108.2C177.9 103.3 167.3 101.4 159.5 100C157.5 99.6 155.7 99.3 154.1 99C153.1 98.8 152.1 98.6 150.9 98.4C144.9 97.2 137.3 95.8 135.1 91.2C134.1 89 134.3 86.4 135.9 83.4C137 81.3 138.8 78.6 141.2 75.5L141.3 75.3C141.5 75 142 74.9 142.3 75.1C142.6 75.3 142.7 75.8 142.5 76.1C142.5 76.1 142.4 76.2 142.3 76.3C139.4 80.1 137.9 82.6 137.2 84C135.8 86.6 135.6 88.7 136.4 90.4C138.3 94.3 145.7 95.7 151.1 96.8C152.3 97 153.3 97.2 154.3 97.4C155.8 97.7 157.7 98.1 159.7 98.4C168.1 99.9 178.6 101.8 182.9 107.1C183.9 108.3 184.3 109.5 184.1 110.6C184 111.4 183.6 112 183.3 112.4C183.7 113.4 183.5 114.6 182.7 115.7C182.3 116.3 181.7 116.9 181 117.1C180.7 117.8 180.1 119.1 178.7 119.7C177.5 120.2 176 120 174.3 118.9C174 118.7 172.9 119.1 172 119.3C170.4 119.8 168.5 120.4 166.9 119.5C165 118.5 162.9 119.2 160.1 120.1C158.1 121.4 155.5 122.2 152.4 122.2Z" fill="#030047"/>
<path d="M179.7 116.2C178 114.1 175.3 112.9 172.6 113.2C172 113.3 172 114.3 172.6 114.2C175.1 114 177.4 115 179 116.9C179.4 117.4 180.1 116.7 179.7 116.2Z" fill="#030047"/>
<path d="M181.7 111.1C180.1 109.3 177.8 108.2 175.3 108.1C174.7 108.1 174.7 109.1 175.3 109.1C177.5 109.2 179.5 110.1 181 111.8C181.5 112.3 182.2 111.5 181.7 111.1Z" fill="#030047"/>
<path d="M186.2 90.2C186 90.2 185.8 90.1 185.7 90L181.4 85.4C181.1 85.1 181.1 84.6 181.4 84.3C181.7 84 182.2 84 182.5 84.3L186.8 88.9C187.1 89.2 187.1 89.7 186.8 90C186.5 90.2 186.4 90.2 186.2 90.2Z" fill="#5F5FFF"/>
<path d="M190.7 88.4C190.4 88.4 190.2 88.3 190.1 88L185.6 80.4C185.4 80 185.5 79.6 185.9 79.4C186.3 79.2 186.7 79.3 186.9 79.7L191.4 87.3C191.6 87.7 191.5 88.1 191.1 88.3C190.9 88.4 190.8 88.4 190.7 88.4Z" fill="#5F5FFF"/>
<path d="M293.708 11.538L277.919 1.51672L265.219 21.5266L281.007 31.5479L293.708 11.538Z" fill="white"/>
<path d="M281.2 32.5L264.2 21.7L277.7 0.5L294.7 11.3L281.2 32.5ZM266.3 21.3L280.8 30.5L292.7 11.8L278.2 2.60001L266.3 21.3Z" fill="#030047"/>
<path d="M297.3 128.2L262.6 106.2L290.5 62.2L305.1 71.4999C316.2 78.5999 319.5 93.3 312.5 104.4L297.3 128.2Z" fill="white"/>
<path d="M297.6 129.2L261.6 106.4L290.3 61.1L305.5 70.8C317 78.1 320.4 93.3 313.1 104.7L297.6 129.2ZM263.6 105.9L297.1 127.1L311.9 103.8C318.7 93 315.5 78.7 304.8 71.9L290.8 63L263.6 105.9Z" fill="#030047"/>
<path d="M97.7846 168.357L81.3076 130.705L33.5788 151.592L50.0558 189.244L97.7846 168.357Z" fill="white"/>
<path d="M49.6 190.3L32.5 151.3L81.6 129.8L98.7 168.8L49.6 190.3ZM34.5 152L50.4 188.3L96.8 168L80.9 131.7L34.5 152Z" fill="#030047"/>
<path d="M75.3999 173.3L93.8999 146.7L105.6 173.3H75.3999Z" fill="white"/>
<path d="M106.7 174.1H74L94 145.1L106.7 174.1ZM76.8 172.6H104.4L93.7 148.2L76.8 172.6Z" fill="#030047"/>
<path d="M48.1 161C47.9 161 47.7 160.9 47.6 160.8C47.3 160.5 47.3 160 47.6 159.7L55 152.3C55.3 152 55.8 152 56.1 152.3C56.4 152.6 56.4 153.1 56.1 153.4L48.7 160.8C48.5 161 48.3 161 48.1 161Z" fill="#5F5FFF"/>
<path d="M55.5 161C55.3 161 55.1 160.9 55 160.8L47.6 153.4C47.3 153.1 47.3 152.6 47.6 152.3C47.9 152 48.4 152 48.7 152.3L56.1 159.7C56.4 160 56.4 160.5 56.1 160.8C55.9 161 55.7 161 55.5 161Z" fill="#5F5FFF"/>
<path d="M306.2 94.2C306.1 94.2 305.9 94.2 305.8 94.1L290.5 84.4C290.2 84.2 290 83.7 290.3 83.4C290.5 83.1 291 82.9 291.3 83.2L306.6 92.9001C306.9 93.1001 307.1 93.6001 306.8 93.9001C306.7 94.1001 306.5 94.2 306.2 94.2Z" fill="#5F5FFF"/>
<path d="M302.8 99.1C302.7 99.1 302.5 99.1 302.4 99L298.4 96.5C298.1 96.3 297.9 95.8 298.2 95.5C298.4 95.1 298.9 95 299.2 95.3L303.2 97.8C303.5 98 303.7 98.5 303.4 98.8C303.3 98.9 303.1 99.1 302.8 99.1Z" fill="#5F5FFF"/>
<path d="M294.8 94C294.7 94 294.5 94 294.4 93.9L287 89.2C286.7 89 286.5 88.5 286.8 88.2C287 87.8 287.5 87.7 287.8 88L295.2 92.7C295.5 92.9 295.7 93.4 295.4 93.7C295.3 93.9 295.1 94 294.8 94Z" fill="#5F5FFF"/>
<path d="M297.5 103.4C297.4 103.4 297.2 103.4 297.1 103.3L283.8 94.8C283.5 94.6 283.3 94.1 283.6 93.8C283.8 93.5 284.3 93.3 284.6 93.6L297.9 102.1C298.2 102.3 298.4 102.8 298.1 103.1C298 103.3 297.8 103.4 297.5 103.4Z" fill="#5F5FFF"/>
<path d="M161.9 51.2C153.4 44.1 144.5 42.9 140.5 52.3C140.5 52.3 130.5 52.7 134.8 60.5C134.8 60.5 128 66.8 139.1 71.9C150.1 77.1 160.9 61.4 160.9 61.4L161.9 51.2Z" fill="#030047"/>
<path d="M169 74.7C167.7 74.7 166.3 74.5 164.8 74C161.8 73.1 159.2 71.1 157.4 68.3L157.1 67.9L156.6 68C156.1 68.1 155.6 68.2 155.1 68.2C152.3 68.2 150 66.3 148.9 64.5C148.2 63.3 148.2 61.9 148.9 60.8C149.7 59.4 151.3 58.6 153.4 58.6C153.8 58.6 154.3 58.6 154.7 58.7L155.4 58.8L155.5 58.1V58C156.9 51.5 162.1 46.8 168 46.8C168.8 46.8 169.5 46.9 170.3 47C175.2 48 179 52.5 179.7 58C179.9 59.6 179.8 61.3 179.5 63C178.6 67.2 177.1 70.3 175 72.3C173.5 74 171.4 74.7 169 74.7Z" fill="white"/>
<path d="M168.2 47.7C168.9 47.7 169.6 47.8 170.3 47.9C174.9 48.9 178.5 53 179.1 58.2C179.3 59.7 179.2 61.3 178.9 62.9C178 67 176.6 70 174.7 71.8C173.2 73.2 171.3 73.9 169.1 73.9C167.9 73.9 166.5 73.7 165.1 73.3C162.3 72.4 159.8 70.5 158.1 68L157.5 67.1L156.5 67.3C156.1 67.4 155.6 67.5 155.2 67.5C152.7 67.5 150.6 65.8 149.7 64.2C149.1 63.2 149.1 62.1 149.7 61.2C150.4 60 151.8 59.4 153.5 59.4C153.9 59.4 154.3 59.4 154.7 59.5L156.1 59.7L156.4 58.3V58.2C157.6 52.1 162.6 47.7 168.2 47.7ZM168.2 46.2C162 46.2 156.4 51 154.9 58V58.1C154.4 58 153.9 58 153.5 58C148.8 58 146.6 61.9 148.4 65C149.7 67.2 152.3 69.1 155.2 69.1C155.7 69.1 156.3 69 156.9 68.9C158.7 71.8 161.5 73.9 164.7 74.9C166.3 75.4 167.8 75.6 169.1 75.6C171.9 75.6 174 74.6 175.7 73.1C178.1 70.8 179.6 67.3 180.4 63.4C180.8 61.6 180.8 59.9 180.6 58.2C179.9 52.5 176.1 47.7 170.6 46.6C169.8 46.2 169 46.2 168.2 46.2Z" fill="#030047"/>
<path d="M179.5 54.2C178.1 50.3 174.7 47.3 170.5 46.4C163.5 44.9 155.4 49.3 154.6 59.5C164.8 61.2 173.4 59.3 179.5 54.2Z" fill="#5F5FFF"/>
<path d="M171.068 61.7758C171.381 61.3209 171.266 60.6982 170.811 60.385C170.356 60.0718 169.734 60.1867 169.421 60.6416C169.107 61.0965 169.222 61.7192 169.677 62.0324C170.132 62.3456 170.755 62.2307 171.068 61.7758Z" fill="#030047"/>
<path d="M157.2 63.7C156.1 61.6 153.7 60.6 151.4 61.2C150.8 61.4 151 62.4 151.6 62.2C153.4 61.7 155.4 62.4 156.3 64.1C156.6 64.6 157.5 64.2 157.2 63.7Z" fill="#030047"/>
<path d="M176.5 66.8C176.7 64.6 176.5 62.3 176 60.1C175.9 59.5 174.9 59.7 175 60.3C175.5 62.4 175.6 64.5 175.5 66.7C175.4 67.4 176.4 67.5 176.5 66.8Z" fill="#030047"/>
</svg>
