<?xml version="1.0" encoding="iso-8859-1"?>
<!-- Generator: Adobe Illustrator 19.0.0, SVG Export Plug-In . SVG Version: 6.00 Build 0)  -->
<svg version="1.1" id="Capa_1" xmlns="http://www.w3.org/2000/svg" xmlns:xlink="http://www.w3.org/1999/xlink" x="0px" y="0px"
	 viewBox="0 0 512.001 512.001" style="enable-background:new 0 0 512.001 512.001;" xml:space="preserve">
<rect x="96.271" y="93.563" style="fill:#E0E0E0;" width="58.469" height="23.87"/>
<polygon style="fill:#FFAE47;" points="148.367,117.437 102.653,117.437 96.274,157.622 154.745,157.622 "/>
<rect x="182.561" y="7.492" style="fill:#FFCA10;" width="65.502" height="150.124"/>
<path style="fill:#0086C1;" d="M396.075,240.941h-31.576v-37.648h40.724c28.127,0,50.928,22.801,50.928,50.928v129.83
	c0,28.127-22.801,50.928-50.928,50.928h-40.724v-37.648h31.576c12.067,0,21.85-9.783,21.85-21.85v-112.69
	C417.925,250.724,408.142,240.941,396.075,240.941z"/>
<path style="fill:#39A4FA;" d="M105.487,504.508H334.53c16.551,0,29.969-13.417,29.969-29.969V157.622H75.518v316.917
	C75.518,491.09,88.935,504.508,105.487,504.508z"/>
<path style="fill:#0091E2;" d="M339.524,157.622v316.917c0,16.552-13.417,29.969-29.969,29.969h24.974
	c16.552,0,29.969-13.417,29.969-29.969V157.622H339.524z"/>
<polygon style="fill:#FFC89F;" points="306.526,8.491 339.659,73.908 273.392,73.908 "/>
<polygon style="fill:#F7B081;" points="306.526,8.491 294.056,33.112 314.719,73.908 339.659,73.908 "/>
<rect x="273.357" y="73.973" style="fill:#FFD039;" width="66.331" height="83.643"/>
<g>
	<polygon style="fill:#FFA304;" points="223.088,7.492 223.088,157.622 182.562,157.622 182.562,157.622 248.062,157.622 
		248.062,7.492 	"/>
	<rect x="314.724" y="73.973" style="fill:#FFA304;" width="24.974" height="83.643"/>
</g>
<path style="fill:#FF434D;" d="M249.719,374.006c0,19.002-15.405,34.407-34.407,34.407s-34.407-15.405-34.407-34.407
	c0-19.002,34.407-58.668,34.407-58.668S249.719,355.004,249.719,374.006z"/>
<path style="fill:#DD3646;" d="M215.312,315.338c0,0-5.715,6.589-12.487,15.682c9.844,13.218,21.92,31.728,21.92,42.985
	c0,14.596-9.094,27.061-21.92,32.061c3.872,1.509,8.081,2.347,12.487,2.347c19.002,0,34.407-15.405,34.407-34.407
	C249.719,355.004,215.312,315.338,215.312,315.338z"/>
<path style="fill:#FF434D;" d="M125.509,157.622v118.987c0,10.079,8.17,18.248,18.248,18.248l0,0
	c10.078,0,18.248-8.17,18.248-18.248v-46.923c0-9.454,7.664-17.118,17.118-17.118l0,0c9.454,0,17.118,7.664,17.118,17.118v26.836
	c0,10.408,8.438,18.846,18.846,18.846l0,0c10.408,0,18.846-8.438,18.846-18.846v-98.899L125.509,157.622L125.509,157.622z"/>
<rect x="125.51" y="157.617" style="fill:#DD3646;" width="108.428" height="24.974"/>
<rect x="129.776" y="93.563" style="fill:#C6C5CA;" width="24.974" height="23.87"/>
<polygon style="fill:#E29440;" points="148.367,117.437 123.393,117.437 129.771,157.622 154.745,157.622 "/>
<path style="fill:#FF6137;" d="M141.794,93.567h-32.569c-7.811-5.249-12.952-14.164-12.952-24.282
	c0-16.146,29.236-61.793,29.236-61.793s29.236,45.646,29.236,61.793C154.745,79.403,149.605,88.318,141.794,93.567z"/>
<path style="fill:#E04F32;" d="M125.509,7.492c0,0-5.954,9.295-12.487,20.98c7.945,14.209,16.749,31.952,16.749,40.812
	c0,10.118-5.141,19.033-12.951,24.282h24.974c7.811-5.249,12.951-14.164,12.951-24.282C154.745,53.138,125.509,7.492,125.509,7.492z
	"/>
<polygon style="fill:#3C5156;" points="306.526,8.491 321.989,39.02 291.064,39.02 "/>
<path d="M405.222,195.8H371.99v-30.686h12.175c4.139,0,7.492-3.354,7.492-7.492c0-4.139-3.354-7.492-7.492-7.492h-19.668h-17.312
	V73.976c0-1.217-0.297-2.363-0.811-3.378c-0.012-0.024-0.02-0.05-0.032-0.074L313.21,5.106c-1.277-2.518-3.86-4.107-6.684-4.107
	c-2.824,0-5.407,1.588-6.683,4.107l-33.134,65.417c-0.012,0.024-0.02,0.05-0.032,0.074c-0.514,1.016-0.811,2.162-0.811,3.379v76.153
	h-10.31V7.492c0-4.139-3.354-7.492-7.492-7.492h-65.502c-4.138,0-7.492,3.354-7.492,7.492V54.41c0,4.139,3.355,7.492,7.492,7.492
	c4.139,0,7.492-3.354,7.492-7.492V14.984h50.517v25.294h-12.629c-4.139,0-7.492,3.354-7.492,7.492s3.354,7.492,7.492,7.492h12.629
	v13.43h-20.762c-4.139,0-7.492,3.354-7.492,7.492c0,4.139,3.354,7.492,7.492,7.492h20.762v13.429h-12.629
	c-4.139,0-7.492,3.354-7.492,7.492c0,4.139,3.354,7.492,7.492,7.492h12.629v13.43h-20.762c-4.139,0-7.492,3.354-7.492,7.492
	c0,4.139,3.354,7.492,7.492,7.492h20.762v9.623h-6.636h-43.88V84.376c0-4.138-3.354-7.492-7.492-7.492
	c-4.138,0-7.492,3.355-7.492,7.492v65.752h-13.928l-4.06-25.576c2.993-0.982,5.155-3.794,5.155-7.116V93.567
	c0-3.04-1.813-5.651-4.414-6.826c2.854-5.283,4.414-11.259,4.414-17.457c0-17.456-25.339-57.903-30.418-65.833
	C130.441,1.301,128.064,0,125.509,0c-2.554,0-4.932,1.301-6.308,3.451c-5.08,7.93-30.418,48.378-30.418,65.833
	c0,6.198,1.56,12.174,4.414,17.457c-2.601,1.175-4.414,3.786-4.414,6.826v23.871c0,3.322,2.163,6.134,5.156,7.116l-4.06,25.575
	h-14.36H55.852c-4.138,0-7.492,3.354-7.492,7.492c0,4.139,3.355,7.492,7.492,7.492h12.175v53.758c0,4.139,3.354,7.492,7.492,7.492
	c4.139,0,7.492-3.354,7.492-7.492v-53.758h13.263h21.743v111.494c0,14.193,11.548,25.74,25.741,25.74
	c14.193,0,25.74-11.547,25.74-25.74v-46.923c0-5.308,4.318-9.627,9.626-9.627c5.307,0,9.627,4.319,9.627,9.627v26.835
	c0,14.523,11.816,26.339,26.339,26.339s26.338-11.816,26.338-26.339v-91.407h6.636h25.295h66.335h17.312v38.178v37.649v93.757
	c0,4.139,3.354,7.492,7.492,7.492c4.139,0,7.492-3.354,7.492-7.492v-86.265h24.084c7.918,0,14.358,6.441,14.358,14.359v112.69
	c0,7.918-6.44,14.358-14.358,14.358h-24.084v-25.173c0-4.139-3.354-7.492-7.492-7.492c-4.139,0-7.492,3.354-7.492,7.492v32.665
	v37.649v39.559c0,12.393-10.084,22.477-22.477,22.477H105.487c-12.393,0-22.477-10.084-22.477-22.477V248.841
	c0-4.139-3.354-7.492-7.492-7.492s-7.492,3.354-7.492,7.492V474.54c0,20.657,16.805,37.461,37.461,37.461h229.041
	c20.657,0,37.461-16.805,37.461-37.461v-32.067h33.233c32.213,0,58.419-26.207,58.419-58.42V254.22
	C463.643,222.007,437.435,195.8,405.222,195.8z M327.466,66.416h-41.881l10.082-19.904h21.717L327.466,66.416z M103.767,101.059
	h5.458h32.57h5.458v8.887h-43.486v-8.887H103.767z M125.509,21.774c10.486,17.629,21.743,39.546,21.743,47.511
	c0,6.542-2.929,12.675-7.928,16.791h-27.631c-4.999-4.116-7.928-10.248-7.928-16.791C103.767,61.32,115.023,39.403,125.509,21.774z
	 M109.05,124.93h32.92l4,25.199h-20.46h-20.46L109.05,124.93z M226.443,256.521c0,6.262-5.094,11.354-11.354,11.354
	c-6.261,0-11.353-5.094-11.353-11.354v-26.835c0-13.571-11.041-24.611-24.611-24.611c-13.57,0-24.61,11.041-24.61,24.611v46.923
	c0,5.93-4.825,10.756-10.756,10.756c-5.932,0-10.757-4.825-10.757-10.756V165.115h21.743h27.817h43.882V256.521z M280.85,150.129
	V81.469h51.351v68.661H280.85z M448.658,384.052c0,23.951-19.485,43.436-43.435,43.436h-33.233v-22.664h24.084
	c16.179,0,29.343-13.163,29.343-29.343V262.791c0-16.18-13.163-29.344-29.343-29.344h-24.084v-22.665h33.233
	c23.951,0,43.435,19.486,43.435,43.437V384.052z"/>
<path d="M257.212,374.007c0-9.581-6.07-22.911-18.558-40.757c-8.724-12.467-17.321-22.405-17.683-22.821
	c-1.423-1.641-3.487-2.583-5.659-2.583c-2.172,0-4.237,0.942-5.66,2.583c-0.361,0.417-8.957,10.353-17.682,22.822
	c-12.487,17.843-18.557,31.175-18.557,40.756c0,23.103,18.796,41.899,41.899,41.899C238.416,415.906,257.212,397.11,257.212,374.007
	z M188.397,374.007c0-10.134,14.768-31.84,26.914-46.963c12.146,15.123,26.915,36.829,26.915,46.963
	c0,14.842-12.074,26.914-26.915,26.914C200.471,400.921,188.397,388.848,188.397,374.007z"/>
<g>
</g>
<g>
</g>
<g>
</g>
<g>
</g>
<g>
</g>
<g>
</g>
<g>
</g>
<g>
</g>
<g>
</g>
<g>
</g>
<g>
</g>
<g>
</g>
<g>
</g>
<g>
</g>
<g>
</g>
</svg>
