<svg width="289" height="312" viewBox="0 0 289 312" fill="none" xmlns="http://www.w3.org/2000/svg">
<path d="M102.9 278.6L102.2 308L153.2 308.5C153.2 308.5 153.5 302.5 143.8 298C134.1 293.5 132.1 275.7 132.1 275.7L102.9 278.6Z" fill="#5F5FFF"/>
<path d="M11.1998 266.2L0.299805 293.5L47.8998 311.7C47.8998 311.7 50.1998 306.2 42.6998 298.6C35.1998 291 39.4998 273.6 39.4998 273.6L11.1998 266.2Z" fill="#5F5FFF"/>
<path d="M48 146.5C39.7 160.3 36.2 198.8 27 218.5C17.8 238.2 7 270 7 270L44.8 286C44.8 286 70.5 228.5 73.4 198.5C76.3 168.5 75.6 142.5 75.6 142.5L48 146.5Z" fill="#030047"/>
<path d="M64 161.5C64.8 177.5 85.3 207.7 88.6 229.3C91.9 250.9 100.5 289.8 100.5 289.8L140.8 282.2C140.8 282.2 135.5 221.8 118 184.5C105.2 157.2 86.8 139.1 86.8 139.1L64 161.5Z" fill="#030047"/>
<path d="M72.3998 187.5C72.0998 187.5 71.8998 187.4 71.6998 187.1L69.1998 182.6L61.6998 179.9C61.2998 179.8 61.0998 179.3 61.1998 178.9C61.2998 178.5 61.7998 178.3 62.1998 178.4L70.1998 181.2L72.8998 186.2C73.0998 186.6 72.9998 187 72.5998 187.2C72.6998 187.5 72.4998 187.5 72.3998 187.5Z" fill="white"/>
<path d="M39.3997 288.7C37.8997 289.5 36.2997 290.4 34.7997 291.2C34.1997 291.5 34.6997 292.4 35.2997 292.1C36.7997 291.3 38.3997 290.4 39.8997 289.6C40.3997 289.3 39.8997 288.4 39.3997 288.7Z" fill="#030047"/>
<path d="M40.1 291.9C38.9 292.9 37.6 293.8 36.4 294.8C35.9 295.2 36.4 296.1 36.9 295.7L40.6 292.8C41.1 292.3 40.6 291.5 40.1 291.9Z" fill="#030047"/>
<path d="M137.4 290.6C136.8 291.9 136.2 293.1 135.5 294.4C135.2 295 136.1 295.5 136.4 294.9L138.3 291.1C138.6 290.6 137.7 290.1 137.4 290.6Z" fill="#030047"/>
<path d="M140.3 294C139.7 295.3 139.1 296.5 138.4 297.8C138.1 298.4 139 298.9 139.3 298.3L141.2 294.5C141.4 294 140.6 293.4 140.3 294Z" fill="#030047"/>
<path d="M133 280.9C132.6 280.9 132.3 280.6 132.3 280.2C130.7 222.2 96.1998 159.1 95.8998 158.5C95.6998 158.1 95.7998 157.7 96.1998 157.5C96.5998 157.3 96.9998 157.4 97.1998 157.8C97.4998 158.4 132.1 221.8 133.8 280.2C133.7 280.6 133.4 280.9 133 280.9Z" fill="white"/>
<path d="M102.8 171.5C102.7 171.5 102.6 171.5 102.5 171.5C102.1 171.4 101.9 170.9 102.1 170.5C104 165.4 101.7 158.4 101.7 158.3C101.6 157.9 101.8 157.5 102.2 157.3C102.6 157.2 103 157.4 103.2 157.8C103.3 158.1 105.8 165.4 103.6 171C103.4 171.3 103.1 171.5 102.8 171.5Z" fill="white"/>
<path d="M111.5 65.2C115.8 67.5 120.1 69.8 124.4 72L130.9 41.4C127.7 41.2 120.5 42.7 113.4 56C112 58.7 110.4 61.6 109 64.6C109.8 64.6 110.6 64.7 111.5 65.2Z" fill="#FF3E6C"/>
<path d="M111.4 59.8C105.3 71.7 99.8 86.8 89.5 91.9C89.5 91.9 104.7 103.8 112.5 100.3C119.2 97.3 126.7 70.9 127.5 68.9C123.6 65.4 116.1 61.9 111.4 59.8Z" fill="#FFCC3E"/>
<path d="M97.6998 58.6C100.8 66 101 73.9 91.2997 77C84.6997 79.1 76.7997 76 73.6997 68.6C70.5997 61.2 73.4998 53 80.0998 50.2C86.6998 47.4 94.5998 51.2 97.6998 58.6Z" fill="#FF3E6C"/>
<path d="M92.1997 58.9C92.752 58.9 93.1997 58.4523 93.1997 57.9C93.1997 57.3477 92.752 56.9 92.1997 56.9C91.6474 56.9 91.1997 57.3477 91.1997 57.9C91.1997 58.4523 91.6474 58.9 92.1997 58.9Z" fill="#030047"/>
<path d="M92.8998 48.5C92.8998 41.9 81.9998 49.3 80.0998 50.2C74.1998 51.3 68.9998 59.1 70.7998 66C72.2998 71.9 79.0998 78.9 82.6998 77.2C88.5998 73.7 89.4998 67.9 86.7998 62.4C87.7998 61.2 86.5998 59.4 87.0998 58C87.7998 55.8 92.9998 50.9 92.8998 48.5Z" fill="#5F5FFF"/>
<path d="M84.6996 61.9C73.6996 60.9 74.9996 69.7 79.0996 71.7C82.4996 73.3 87.6996 72.7 89.7996 67.7C91.8996 62.7 84.6996 61.9 84.6996 61.9Z" fill="#FF3E6C"/>
<path d="M85.6998 65.7C83.5998 64.6 80.9998 65.1 79.4998 67C79.0998 67.5 79.7998 68.2 80.1998 67.7C81.3998 66.2 83.4998 65.7 85.1998 66.6C85.7998 66.8 86.2998 66 85.6998 65.7Z" fill="#030047"/>
<path d="M98.4997 61C97.3997 59.1 95.9997 57.3 94.2997 55.8C93.7997 55.4 93.0997 56.1 93.5997 56.5C95.1997 58 96.4997 59.6 97.5997 61.5C97.9997 62.1 98.7997 61.6 98.4997 61Z" fill="#030047"/>
<path d="M84.1 85.6C68.5 82.2 62.2 89.6 56.6 112.4C51 135.2 41 148.4 41 148.4C41 148.4 86.4 161.2 105.7 158.4C105.6 158.5 117.2 92.8 84.1 85.6Z" fill="#FFCC3E"/>
<path d="M71.7002 88.2L73.3002 80.4L94.6002 82.8L92.0002 92.4L71.7002 88.2Z" fill="#FFCC3E"/>
<path d="M175.2 30.3C174.9 30.3 174.7 30.1 174.5 29.9L166.4 13.6L150.8 21.6C150.4 21.8 150 21.6 149.8 21.3C149.6 20.9 149.8 20.5 150.1 20.3L167 11.6L175.7 29.2C175.9 29.6 175.7 30 175.4 30.2C175.4 30.2 175.3 30.3 175.2 30.3Z" fill="#E4E4EF"/>
<path d="M137.899 15.5711L120.023 66.9519L170.648 84.5648L188.524 33.184L137.899 15.5711Z" fill="#E4E4EF"/>
<path d="M137.808 15.5755L134.982 23.6982L185.607 41.3111L188.433 33.1884L137.808 15.5755Z" fill="#8FACFF"/>
<path d="M191.469 41.8796L188.069 40.6966L179.952 64.0258L183.353 65.2087L191.469 41.8796Z" fill="#E4E4EF"/>
<path d="M163.8 61.7L145.3 55.3C143.6 54.7 142.7 52.9 143.3 51.2L144.3 48.4C144.9 46.7 146.7 45.8 148.4 46.4L166.9 52.8C168.6 53.4 169.5 55.2 168.9 56.9L167.9 59.7C167.3 61.4 165.5 62.3 163.8 61.7Z" fill="white"/>
<path d="M169.1 49.2C169 49.2 168.9 49.2 168.9 49.2L150.4 42.8C150 42.7 149.8 42.2 149.9 41.8C150 41.4 150.5 41.2 150.9 41.3L169.4 47.7C169.8 47.8 170 48.3 169.9 48.7C169.7 49 169.4 49.2 169.1 49.2Z" fill="white"/>
<path d="M170.4 45.4C170.3 45.4 170.2 45.4 170.2 45.4L151.7 39C151.3 38.9 151.1 38.4 151.2 38C151.3 37.6 151.8 37.4 152.2 37.5L170.7 43.9C171.1 44 171.3 44.5 171.2 44.9C171 45.2 170.7 45.4 170.4 45.4Z" fill="white"/>
<path d="M180.5 28.1C181.77 28.1 182.8 27.0703 182.8 25.8C182.8 24.5297 181.77 23.5 180.5 23.5C179.23 23.5 178.2 24.5297 178.2 25.8C178.2 27.0703 179.23 28.1 180.5 28.1Z" fill="#E4E4EF"/>
<path d="M187 30.2C188.27 30.2 189.3 29.1702 189.3 27.9C189.3 26.6297 188.27 25.6 187 25.6C185.73 25.6 184.7 26.6297 184.7 27.9C184.7 29.1702 185.73 30.2 187 30.2Z" fill="#FFC2D6"/>
<path d="M130.5 43C128.5 41.4 124 45.3 120 52.5C120 52.5 118.5 57.1 118.3 60.7C120.4 60.9 120 62.2 120.6 63.9C127.6 59.7 127.5 49.3 127.5 49.3C127.5 49.3 132.5 44.6 130.5 43Z" fill="#FF3E6C"/>
<path d="M125.3 46.2C122.9 47.5 121.1 49.4 119.8 51.7C119.5 52.3 120.3 52.8 120.6 52.2C121.8 50 123.5 48.2 125.7 47C126.3 46.7 125.8 45.9 125.3 46.2Z" fill="#5F5FFF"/>
<path d="M179.3 75.7C180 74 180 71.5 178.9 70.9C178.9 70.9 178.7 69.5 178.9 68C179.1 66.5 177.3 63.7 173.9 68C170.5 72.3 164.7 73 164.7 73L165.2 69.8C165.2 69.8 168.2 66.4 168.6 64.8C169.2 62.7 166.6 61.7 161.7 65.4C155.9 69.8 150.6 76.5 145.6 82.5C150.5 87.7 155.1 93.1 159.2 98.9C161.4 95.8 163.4 93.6 165.7 93C175.6 90.7 177.7 83.3 179.4 80.4C181 77.5 179.3 75.7 179.3 75.7Z" fill="#FF3E6C"/>
<path d="M150.7 76.4C143.8 84.5 137.4 93 131 94.8C121.5 97.6 98.8002 85.1 84.6002 87.4L81.2002 116.5C81.2002 116.5 101.8 129.9 125.6 128C146.2 126.3 155.6 101.2 162.4 94.8C160 88 156.3 81.8 150.7 76.4Z" fill="#FFCC3E"/>
<path d="M116.7 94.1C116.6 94.1 116.6 94.1 116.5 94.1C114.7 93.7 112.9 93 111 92.2C107.4 90.8 103.2 89.2 97.3001 88.9C96.9001 88.9 96.6001 88.5 96.6001 88.1C96.6001 87.7 97.0001 87.4 97.4001 87.4C103.5 87.7 107.8 89.3 111.6 90.8C113.4 91.5 115.2 92.2 116.9 92.6C117.3 92.7 117.6 93.1 117.5 93.5C117.4 93.9 117.1 94.1 116.7 94.1Z" fill="white"/>
<path d="M103.5 126.1C103.4 126.1 103.3 126.1 103.2 126C103.2 126 98.4003 123.8 93.5003 123.9C93.1003 123.9 92.8003 123.6 92.8003 123.2C92.8003 122.8 93.1003 122.4 93.5003 122.4C98.7003 122.3 103.6 124.5 103.8 124.6C104.2 124.8 104.3 125.2 104.2 125.6C104 126 103.7 126.1 103.5 126.1Z" fill="#030047"/>
<path d="M177.7 70C176.8 73 174.6 75.4 171.6 76.7C171 77 171.5 77.8 172.1 77.6C175.3 76.2 177.6 73.6 178.6 70.3C178.9 69.6 177.9 69.3 177.7 70Z" fill="#5F5FFF"/>
<path d="M178.3 76.5C177.4 78.6 175.9 80.3 173.9 81.3C173.3 81.6 173.8 82.5 174.4 82.2C176.7 81 178.3 79.1 179.3 76.8C179.5 76.1 178.6 75.9 178.3 76.5Z" fill="#5F5FFF"/>
<path d="M236 126.1C235.8 126.1 235.7 126 235.5 125.9L217 111.2L199.8 126C199.5 126.3 199 126.2 198.7 125.9C198.4 125.6 198.5 125.1 198.8 124.8L217 109.2L236.5 124.8C236.8 125.1 236.9 125.5 236.6 125.9C236.4 126.1 236.2 126.1 236 126.1Z" fill="#E4E4EF"/>
<path d="M255.3 124.3H180V186.7H255.3V124.3Z" fill="#F2F2F9"/>
<path d="M255.3 164.4V186.8H180V144.5C199 142.2 216.2 147.8 218.9 164.5H255.3V164.4Z" fill="#FFC2D6"/>
<path d="M265.3 17.2C265.1 17.2 265 17.1 264.8 17L246.3 2.2L229.1 17C228.8 17.3 228.3 17.2 228 16.9C227.7 16.6 227.8 16.1 228.1 15.8L246.3 0.199997L265.8 15.8C266.1 16.1 266.2 16.5 265.9 16.9C265.8 17.1 265.5 17.2 265.3 17.2Z" fill="#E4E4EF"/>
<path d="M288.4 13.9H203.8V84.1H288.4V13.9Z" fill="#F2F2F9"/>
<path d="M246.2 25.2L237.5 75.6L203.8 56.6V35.9L246.2 25.2Z" fill="#E4E4EF"/>
<path d="M273.9 84.1H259.6L252.1 71.1L262.8 64.9L273.9 84.1Z" fill="#E4E4EF"/>
<path d="M193.4 113.9C193.1 113.9 192.9 113.8 192.7 113.5L187.1 103.5C186.9 103.1 187 102.7 187.4 102.5C187.8 102.3 188.2 102.4 188.4 102.8L194 112.8C194.2 113.2 194.1 113.6 193.7 113.8C193.7 113.8 193.6 113.9 193.4 113.9Z" fill="#8FACFF"/>
<path d="M185.6 111.6C185.3 111.6 185.1 111.5 184.9 111.2C184.7 110.8 184.8 110.4 185.2 110.2L195.2 104.6C195.6 104.4 196 104.5 196.2 104.9C196.4 105.3 196.3 105.7 195.9 105.9L185.9 111.5C185.9 111.6 185.7 111.6 185.6 111.6Z" fill="#8FACFF"/>
<path d="M166.7 146.3H151.7C151.3 146.3 150.9 146 150.9 145.5C150.9 145 151.2 144.7 151.7 144.7H166.7C167.1 144.7 167.5 145 167.5 145.5C167.5 146 167.1 146.3 166.7 146.3Z" fill="#8FACFF"/>
<path d="M159.2 158C158.9 158 158.7 157.8 158.5 157.6C158.3 157.2 158.5 156.8 158.8 156.6L166.3 152.8C166.7 152.6 167.1 152.8 167.3 153.1C167.5 153.5 167.3 153.9 167 154.1L159.5 157.9C159.5 158 159.3 158 159.2 158Z" fill="#8FACFF"/>
</svg>
