<?xml version="1.0" encoding="iso-8859-1"?>
<!-- Generator: Adobe Illustrator 19.0.0, SVG Export Plug-In . SVG Version: 6.00 Build 0)  -->
<svg version="1.1" id="Capa_1" xmlns="http://www.w3.org/2000/svg" xmlns:xlink="http://www.w3.org/1999/xlink" x="0px" y="0px"
	 viewBox="0 0 512 512" style="enable-background:new 0 0 512 512;" xml:space="preserve">
<path style="fill:#546F7A;" d="M499.045,37.1l-24.816-24.816c-6.39-6.39-16.75-6.39-23.14,0l-18.581,18.581l47.956,47.956
	l18.581-18.581C505.435,53.85,505.435,43.49,499.045,37.1z"/>
<rect x="411.774" y="50.375" transform="matrix(0.7071 0.7071 -0.7071 0.7071 176.9682 -295.9133)" style="fill:#FF6137;" width="67.818" height="30.576"/>
<path style="fill:#FF434D;" d="M298.692,260.592l-74.12,26.164l26.164-74.119L387.515,75.859
	c-39.558-29.393-88.56-46.789-141.629-46.789C114.601,29.07,8.174,135.498,8.174,266.783s106.428,237.713,237.713,237.713
	s237.713-106.428,237.713-237.713c0-53.756-17.852-103.338-47.939-143.158L298.692,260.592z"/>
<path style="fill:#DD3646;" d="M245.149,29.07c-4.195,0-8.364,0.111-12.506,0.325C358.522,35.9,458.588,140.023,458.588,267.52
	S358.523,499.14,232.643,505.645c4.142,0.214,8.311,0.325,12.506,0.325c131.692,0,238.45-106.757,238.45-238.45
	S376.841,29.07,245.149,29.07z"/>
<path style="fill:#E0E0E0;" d="M298.692,260.592l-74.12,26.164l26.164-74.119l92.38-92.38
	c-27.851-18.519-61.278-29.318-97.231-29.318c-97.116,0-175.844,78.728-175.844,175.844s78.728,175.844,175.844,175.844
	S421.73,363.899,421.73,266.783c0-36.645-11.215-70.669-30.392-98.837L298.692,260.592z"/>
<path style="fill:#FF434D;" d="M298.692,260.592l-74.12,26.164l26.164-74.119l48.682-48.682
	c-16.015-8.354-34.22-13.083-53.532-13.083c-64.016,0-115.911,51.895-115.911,115.912s51.895,115.911,115.911,115.911
	c64.016,0,115.911-51.895,115.911-115.911c0-20.019-5.075-38.853-14.01-55.286L298.692,260.592z"/>
<path style="fill:#E0E0E0;" d="M298.692,260.592l-74.12,26.164l26.164-74.119l0.183-0.183c-1.659-0.152-3.336-0.24-5.034-0.24
	c-30.138,0-54.57,24.432-54.57,54.57s24.432,54.57,54.57,54.57s54.57-24.432,54.57-54.57c0-2.524-0.186-5.003-0.517-7.436
	L298.692,260.592z"/>
<polygon style="fill:#FFC89F;" points="224.574,286.757 298.616,260.619 250.711,212.714 "/>
<polygon style="fill:#F7B081;" points="224.574,286.756 298.616,260.619 280.93,242.933 234.223,259.421 "/>
<polygon style="fill:#3C5156;" points="224.574,286.757 259.127,274.559 236.77,252.202 "/>
<polygon style="fill:#FFD039;" points="298.616,260.619 298.692,260.592 458.843,100.442 410.888,52.486 250.738,212.637 
	250.711,212.714 "/>
<path style="fill:#3C5156;" d="M481.359,42.554l-18.582,18.581l17.686,17.686l18.581-18.581c6.39-6.39,6.39-16.75,0-23.14
	l-17.686-17.686C487.749,25.804,487.749,36.164,481.359,42.554z"/>
<rect x="445.526" y="68.278" transform="matrix(0.7071 -0.7071 0.7071 0.7071 77.847 349.506)" style="fill:#E04F32;" width="30.576" height="25.012"/>
<polygon style="fill:#FFAE47;" points="280.93,242.933 250.711,212.714 250.711,212.714 298.616,260.619 298.692,260.592 
	458.843,100.441 441.158,82.756 281.006,242.906 "/>
<path d="M485.771,84.126l18.581-18.581c9.304-9.304,9.304-24.446,0-33.751L479.536,6.979c-9.305-9.305-24.448-9.305-33.752,0
	L427.203,25.56l-21.62,21.621l-18.86,18.86c-41.379-29.113-89.927-44.474-140.836-44.474c-65.5,0-127.079,25.507-173.395,71.822
	C26.177,139.705,0.67,201.283,0.67,266.783s25.507,127.079,71.822,173.394C118.808,486.492,180.387,512,245.887,512
	s127.08-25.507,173.395-71.823c46.316-46.315,71.823-107.895,71.823-173.395c0-51.6-15.746-100.689-45.586-142.403l18.633-18.633
	L485.771,84.126z M456.397,17.59c3.453-3.454,9.074-3.454,12.528,0l24.816,24.816c3.454,3.455,3.455,9.074,0,12.528l-13.274,13.275
	l-37.344-37.344L456.397,17.59z M430.358,118.315c-0.001,0.001-0.002,0.002-0.004,0.003l-44.323,44.323l-11.516,11.516
	c-2.93,2.93-2.93,7.682,0,10.611c2.931,2.93,7.682,2.93,10.612,0l4.931-4.931c15.838,26.19,24.167,56.06,24.167,86.946
	c0,92.823-75.518,168.34-168.341,168.34c-92.822,0-168.339-75.517-168.339-168.34c0-22.817,4.482-44.94,13.324-65.757
	c1.62-3.815-0.159-8.22-3.974-9.84c-3.808-1.618-8.219,0.159-9.84,3.973c-9.634,22.682-14.519,46.779-14.519,71.624
	c0,101.098,82.249,183.347,183.346,183.347c101.099,0,183.348-82.249,183.348-183.347c0-34.878-9.76-68.57-28.276-97.844l33.8-33.8
	c27.073,38.711,41.337,84.042,41.337,131.644c0,61.491-23.946,119.302-67.428,162.783c-43.48,43.48-101.292,67.427-162.783,67.427
	s-119.301-23.946-162.782-67.427c-43.478-43.481-67.424-101.292-67.424-162.783s23.945-119.302,67.428-162.783
	c43.48-43.48,101.291-67.427,162.782-67.427c46.915,0,91.693,13.884,130.062,40.241l-33.87,33.871
	c-28.889-17.843-62.01-27.249-96.192-27.249c-61.002,0-117.834,30.217-152.03,80.83c-2.319,3.435-1.417,8.099,2.018,10.418
	c3.434,2.32,8.098,1.417,10.418-2.017c31.4-46.477,83.584-74.225,139.594-74.225c30.19,0,59.475,7.983,85.264,23.17l-33.248,33.248
	c-16.197-7.524-34.06-11.492-52.015-11.492c-68.05,0-123.413,55.363-123.413,123.414s55.363,123.414,123.413,123.414
	c18.488,0,36.268-3.99,52.85-11.859c3.744-1.777,5.339-6.252,3.562-9.996c-1.777-3.745-6.253-5.338-9.996-3.563
	c-14.555,6.907-30.171,10.409-46.416,10.409c-59.775,0-108.406-48.631-108.406-108.407s48.631-108.407,108.406-108.407
	c14.15,0,27.774,2.642,40.634,7.867l-30.374,30.374l-8.144,8.144c-0.709-0.025-1.418-0.051-2.116-0.051
	c-34.227,0-62.072,27.846-62.072,62.073s27.845,62.072,62.072,62.072s62.073-27.845,62.073-62.072c0-1.529-0.067-3.086-0.188-4.657
	l32.702-32.703l5.158-5.158c5.688,13.367,8.662,27.882,8.662,42.518c0,32.471-14.38,62.963-39.454,83.655
	c-3.197,2.638-3.65,7.367-1.011,10.564c2.637,3.198,7.367,3.649,10.563,1.011c28.54-23.554,44.909-58.263,44.909-95.23
	c0-18.662-4.265-37.151-12.353-53.835l6.478-6.478c2.93-2.93,2.93-7.682,0-10.612c-2.932-2.931-7.683-2.929-10.612,0l-10.333,10.334
	c0,0,0,0-0.001,0.001l-7.218,7.218l-36.621,36.622l-37.344-37.344l43.427-43.427l43.699-43.699l44.398-44.398l18.067-18.067
	l37.344,37.344L430.358,118.315z M292.797,270.631c-1.965,24.158-22.254,43.217-46.911,43.217
	c-25.951,0-47.065-21.114-47.065-47.065c0-24.013,18.077-43.885,41.337-46.72l-10.461,29.635c-0.001,0.002-0.002,0.004-0.003,0.006
	l-12.197,34.554c-0.962,2.725-0.273,5.76,1.77,7.804c0.228,0.228,0.472,0.432,0.722,0.626l0.001,0.001
	c0.068,0.052,0.136,0.102,0.205,0.151c0.001,0.001,0.002,0.001,0.002,0.002c0.213,0.153,0.432,0.294,0.658,0.423
	c0.002,0.001,0.003,0.002,0.004,0.003c0.048,0.027,0.094,0.059,0.143,0.085h0.001c0.272,0.147,0.551,0.274,0.836,0.385
	c0,0,0.001,0,0.002,0.001c0.072,0.028,0.145,0.051,0.218,0.077c0.001,0,0.002,0,0.003,0.001c0.23,0.082,0.464,0.152,0.7,0.211
	c0.001,0,0.001,0,0.002,0.001c0.077,0.019,0.152,0.04,0.23,0.057c0.001,0,0.001,0,0.002,0c0.297,0.064,0.597,0.112,0.9,0.139l0,0
	c0.015,0.001,0.03,0.006,0.045,0.007c0.045,0.004,0.091-0.001,0.136,0.002c0.164,0.011,0.329,0.024,0.494,0.024
	c0.057,0,0.115-0.013,0.172-0.015c0.081-0.002,0.162,0.008,0.243,0.003c0.189-0.01,0.377-0.047,0.566-0.072
	c0.121-0.016,0.241-0.024,0.361-0.046l0,0c0.04-0.007,0.08-0.007,0.119-0.015c0.348-0.069,0.693-0.164,1.033-0.284L292.797,270.631z
	 M261.089,265.909l-15.668-15.668l4.799-13.595l3.603-10.207l31.069,31.069L261.089,265.909z M421.5,52.486l11.008-11.009
	l37.344,37.344L458.844,89.83L421.5,52.486z"/>
<g>
</g>
<g>
</g>
<g>
</g>
<g>
</g>
<g>
</g>
<g>
</g>
<g>
</g>
<g>
</g>
<g>
</g>
<g>
</g>
<g>
</g>
<g>
</g>
<g>
</g>
<g>
</g>
<g>
</g>
</svg>
