<?xml version="1.0" encoding="iso-8859-1"?>
<!-- Generator: Adobe Illustrator 19.0.0, SVG Export Plug-In . SVG Version: 6.00 Build 0)  -->
<svg version="1.1" id="Capa_1" xmlns="http://www.w3.org/2000/svg" xmlns:xlink="http://www.w3.org/1999/xlink" x="0px" y="0px"
	 viewBox="0 0 512 512" style="enable-background:new 0 0 512 512;" xml:space="preserve">
<path style="fill:#E0E0E0;" d="M42.861,414.366H182.01c28.451,0,55.502,10.543,74.153,28.9v-62.423h-16.462
	c-8.394,0-15.199-6.805-15.199-15.199v-28.205v-34.082V134.661c-13.114-5.379-27.61-8.269-42.492-8.269H42.861V414.366z"/>
<polygon style="fill:#FFC89F;" points="256,24.277 224.534,90.079 287.466,90.079 "/>
<polygon style="fill:#F7B081;" points="256,24.277 243.514,50.387 262.495,90.079 287.466,90.079 "/>
<path style="fill:#546F7A;" d="M224.502,337.439v28.205c0,8.394,6.805,15.199,15.199,15.199h32.599
	c8.394,0,15.199-6.805,15.199-15.199v-28.205H224.502z"/>
<path style="fill:#475D63;" d="M262.527,337.439v28.205c0,8.394-6.805,15.199-15.199,15.199h24.972
	c8.394,0,15.199-6.805,15.199-15.199v-28.205H262.527z"/>
<rect x="224.505" y="303.356" style="fill:#FF6137;" width="62.998" height="34.081"/>
<rect x="262.522" y="303.356" style="fill:#E04F32;" width="24.972" height="34.081"/>
<path style="fill:#39A4FA;" d="M42.861,155.293H7.491v332.43h497.017v-332.43h-35.043v259.072h-139.15
	c-28.451,0-55.502,10.543-74.153,28.9c-18.651-18.357-45.703-28.9-74.153-28.9H42.861V155.293z"/>
<rect x="476.538" y="155.294" style="fill:#0091E2;" width="27.968" height="332.432"/>
<path style="fill:#BFBFBF;" d="M330.316,126.393c-15.005,0-29.618,2.936-42.817,8.399v168.563v34.082v28.205
	c0,8.394-6.805,15.199-15.199,15.199h-16.137v62.423c18.651-18.357,45.703-28.9,74.153-28.9h139.149V126.393H330.316z"/>
<rect x="345.817" y="180.415" style="fill:#39A4FA;" width="68.662" height="68.662"/>
<rect x="100.066" y="297.392" style="fill:#FF434D;" width="68.662" height="68.662"/>
<circle style="fill:#FFD039;" cx="134.397" cy="212" r="41.432"/>
<path style="fill:#BFBFBF;" d="M182.01,414.366H42.861l-0.163,27.461h139.149c28.45,0,55.502,10.543,74.153,28.9V443.11
	C237.354,424.85,210.379,414.366,182.01,414.366z"/>
<path style="fill:#919191;" d="M329.99,414.366h139.149l0.163,27.461H330.153c-28.45,0-55.502,10.543-74.153,28.9V443.11
	C274.645,424.85,301.621,414.366,329.99,414.366z"/>
<polygon style="fill:#00B76C;" points="380.148,370.282 430.758,370.282 380.148,293.162 329.538,370.282 "/>
<rect x="224.535" y="90.078" style="fill:#FFD039;" width="62.968" height="213.278"/>
<rect x="262.522" y="90.078" style="fill:#FFAE47;" width="24.972" height="213.278"/>
<polygon style="fill:#3C5156;" points="256,24.277 241.316,54.985 270.684,54.985 "/>
<path d="M504.509,147.801h-27.552v-21.409c0-4.138-3.354-7.491-7.491-7.491h-139.15c-11.979,0-24.006,1.808-35.326,5.265V90.079
	c0-1.37-0.374-2.651-1.016-3.756l-16.529-34.568c0,0-0.001-0.002-0.001-0.003l-14.684-30.708c-1.245-2.603-3.874-4.26-6.758-4.26
	c-2.885,0-5.514,1.656-6.758,4.26l-31.466,65.802c-0.015,0.031-0.024,0.064-0.039,0.096c-0.106,0.228-0.2,0.461-0.283,0.702
	c-0.014,0.04-0.031,0.08-0.044,0.121c-0.091,0.281-0.167,0.567-0.225,0.861c-0.008,0.042-0.012,0.085-0.02,0.128
	c-0.042,0.236-0.074,0.474-0.093,0.717c-0.008,0.098-0.011,0.195-0.015,0.293c-0.004,0.105-0.016,0.209-0.016,0.315v34
	c-11.236-3.399-23.163-5.178-35.032-5.178H42.861c-4.137,0-7.491,3.353-7.491,7.491v21.409H7.491c-4.137,0-7.491,3.353-7.491,7.491
	v332.431c0,4.138,3.354,7.491,7.491,7.491h497.017c4.137,0,7.492-3.353,7.492-7.491V155.293
	C512,151.156,508.646,147.801,504.509,147.801z M246.037,62.476h19.925l9.617,20.111H236.42L246.037,62.476z M497.017,480.233
	H14.983V162.784H35.37v174.65v0.009c0,4.138,3.354,7.491,7.491,7.491s7.491-3.353,7.491-7.491v-0.009V155.293v-21.409H182.01
	c11.947,0,23.946,2.044,35,5.937v83.648c0,4.138,3.354,7.491,7.491,7.491c0.263,0,0.522-0.014,0.778-0.04
	c3.787-0.375,6.745-3.568,6.745-7.454V97.571h47.981v37.223v161.072h-47.981v-42.429c0-3.626-2.576-6.648-5.997-7.342
	c-0.493-0.102-1.004-0.157-1.527-0.157c-4.137,0-7.491,3.353-7.491,7.491v49.926v34.082v28.205c0,12.511,10.178,22.69,22.69,22.69
	h8.971v38.989c-18.696-13.131-42.202-20.45-66.661-20.45H50.353v-39.469c0-4.138-3.354-7.491-7.491-7.491s-7.491,3.353-7.491,7.491
	v46.918l-0.164,27.462c-0.012,1.995,0.772,3.912,2.179,5.326c1.406,1.415,3.318,2.211,5.313,2.211h139.15
	c26.515,0,51.627,9.749,68.898,26.748c0.121,0.119,0.25,0.227,0.378,0.336c0.043,0.037,0.083,0.077,0.127,0.113
	c0.251,0.207,0.514,0.392,0.786,0.561c0.063,0.039,0.129,0.076,0.193,0.113c0.257,0.15,0.519,0.286,0.79,0.403
	c0.03,0.013,0.057,0.031,0.087,0.044c0.013,0.006,0.027,0.009,0.04,0.014c0.135,0.056,0.274,0.101,0.413,0.149
	c0.095,0.033,0.189,0.071,0.286,0.1c0.132,0.039,0.266,0.068,0.399,0.1c0.105,0.025,0.209,0.056,0.314,0.077
	c0.13,0.026,0.262,0.04,0.393,0.058c0.109,0.015,0.218,0.037,0.328,0.048c0.181,0.018,0.363,0.022,0.545,0.027
	c0.059,0.001,0.119,0.009,0.178,0.009c0.001,0,0.001,0,0.001,0h0.002c0.059,0,0.118-0.007,0.177-0.009
	c0.183-0.004,0.365-0.009,0.546-0.027c0.108-0.01,0.215-0.032,0.323-0.047c0.133-0.019,0.266-0.033,0.398-0.059
	c0.105-0.021,0.209-0.052,0.314-0.077c0.133-0.032,0.268-0.061,0.399-0.1c0.097-0.029,0.193-0.068,0.289-0.101
	c0.137-0.047,0.275-0.092,0.409-0.148c0.013-0.005,0.027-0.009,0.041-0.015c0.031-0.013,0.058-0.032,0.088-0.045
	c0.27-0.117,0.531-0.252,0.787-0.401c0.066-0.039,0.132-0.076,0.197-0.116c0.27-0.169,0.531-0.353,0.781-0.557
	c0.049-0.04,0.093-0.084,0.14-0.125c0.124-0.107,0.25-0.212,0.368-0.328c17.27-16.999,42.383-26.747,68.898-26.747h139.149
	c1.995,0,3.907-0.795,5.313-2.211c1.406-1.414,2.19-3.331,2.179-5.326l-0.15-25.282c0.201-0.677,0.313-1.392,0.313-2.135V226.983
	c0-4.138-3.354-7.491-7.491-7.491c-4.137,0-7.491,3.353-7.491,7.491v179.892H330.316h-0.326c-24.307,0-47.689,7.245-66.336,20.235
	v-38.774h8.645c12.512,0,22.69-10.178,22.69-22.69V337.44v-34.082V139.935c11.143-3.968,23.255-6.051,35.326-6.051h131.657v21.409
	v41.724c0,4.138,3.354,7.491,7.491,7.491s7.491-3.353,7.491-7.491v-34.232h20.06L497.017,480.233L497.017,480.233z M50.308,421.856
	H182.01c1.522,0,3.04,0.036,4.551,0.1c0.082,0.003,0.165,0.005,0.247,0.008c1.459,0.065,2.912,0.163,4.358,0.287
	c0.13,0.011,0.261,0.02,0.391,0.031c1.417,0.126,2.828,0.284,4.231,0.465c0.152,0.02,0.304,0.037,0.454,0.058
	c1.39,0.186,2.773,0.402,4.147,0.641c0.157,0.027,0.314,0.054,0.47,0.082c1.371,0.246,2.735,0.518,4.088,0.817
	c0.151,0.033,0.303,0.067,0.453,0.101c1.36,0.307,2.711,0.638,4.05,0.997c0.134,0.036,0.267,0.072,0.401,0.109
	c1.354,0.369,2.699,0.762,4.029,1.184c0.108,0.035,0.216,0.07,0.324,0.104c1.352,0.434,2.694,0.892,4.02,1.379
	c0.075,0.028,0.15,0.057,0.225,0.084c1.357,0.502,2.701,1.031,4.027,1.589c0.029,0.012,0.058,0.025,0.087,0.037
	c5.486,2.314,10.698,5.1,15.55,8.326c0.026,0.017,0.052,0.034,0.078,0.051c1.174,0.781,2.323,1.59,3.454,2.422
	c0.061,0.045,0.122,0.088,0.182,0.133c1.103,0.817,2.183,1.659,3.241,2.523c0.08,0.065,0.16,0.13,0.24,0.195
	c1.042,0.857,2.061,1.737,3.058,2.639c0.046,0.042,0.093,0.084,0.139,0.126v8.438c-18.696-13.13-42.202-20.449-66.661-20.449H50.234
	L50.308,421.856z M263.491,446.641c15.435-14.183,36.526-22.89,59.133-24.507c0.254-0.017,0.507-0.034,0.761-0.05
	c0.981-0.063,1.965-0.111,2.95-0.147c1.097-0.037,2.195-0.069,3.297-0.072c0.228-0.001,0.455-0.008,0.683-0.008h131.376
	l0.074,12.479H330.153c-24.458,0-47.966,7.32-66.661,20.449L263.491,446.641L263.491,446.641z M256.163,373.351h-16.462
	c-4.25,0-7.707-3.457-7.707-7.707V344.93h48.014v20.713c0,4.25-3.457,7.707-7.707,7.707H256.163z M231.992,329.947v-19.099h48.014
	v19.099H231.992z"/>
<path d="M134.398,260.922c26.976,0,48.923-21.947,48.923-48.923c0-26.977-21.947-48.924-48.923-48.924s-48.923,21.947-48.923,48.924
	C85.475,238.976,107.422,260.922,134.398,260.922z M134.398,178.058c18.715,0,33.94,15.226,33.94,33.941
	c0,18.714-15.226,33.94-33.94,33.94s-33.94-15.226-33.94-33.94C100.458,193.284,115.684,178.058,134.398,178.058z"/>
<path d="M386.412,289.051c-1.385-2.11-3.74-3.381-6.263-3.381c-2.524,0-4.878,1.271-6.264,3.381l-50.61,77.119
	c-1.51,2.302-1.637,5.247-0.329,7.669c1.307,2.423,3.839,3.934,6.592,3.934h101.22c2.753,0,5.284-1.51,6.593-3.934
	c1.309-2.422,1.182-5.367-0.329-7.669L386.412,289.051z M343.415,362.79l36.733-55.973l36.733,55.973H343.415z"/>
<path d="M168.728,289.901h-68.659c-4.137,0-7.491,3.353-7.491,7.491v68.659c0,4.138,3.354,7.491,7.491,7.491h68.659
	c4.137,0,7.491-3.353,7.491-7.491v-68.659C176.22,293.254,172.866,289.901,168.728,289.901z M161.237,358.56h-53.676v-53.676h53.676
	V358.56z"/>
<path d="M345.818,256.57h68.659c4.137,0,7.491-3.353,7.491-7.492v-68.659c0-4.138-3.354-7.491-7.491-7.491h-68.659
	c-4.137,0-7.491,3.353-7.491,7.491v68.659C338.326,253.216,341.681,256.57,345.818,256.57z M353.309,187.911h53.676v53.676h-53.676
	V187.911z"/>
<g>
</g>
<g>
</g>
<g>
</g>
<g>
</g>
<g>
</g>
<g>
</g>
<g>
</g>
<g>
</g>
<g>
</g>
<g>
</g>
<g>
</g>
<g>
</g>
<g>
</g>
<g>
</g>
<g>
</g>
</svg>
