<?xml version="1.0" encoding="iso-8859-1"?>
<!-- Generator: Adobe Illustrator 19.0.0, SVG Export Plug-In . SVG Version: 6.00 Build 0)  -->
<svg version="1.1" id="Capa_1" xmlns="http://www.w3.org/2000/svg" xmlns:xlink="http://www.w3.org/1999/xlink" x="0px" y="0px"
	 viewBox="0 0 512 512" style="enable-background:new 0 0 512 512;" xml:space="preserve">
<path style="fill:#E0E0E0;" d="M489.511,453.512H22.488c-8.28,0-14.992-6.713-14.992-14.992V73.481
	c0-8.28,6.713-14.992,14.992-14.992h467.023c8.28,0,14.992,6.713,14.992,14.992v365.039
	C504.504,446.8,497.792,453.512,489.511,453.512z"/>
<path style="fill:#C6C5CA;" d="M489.511,58.489h-24.987c8.28,0,14.992,6.713,14.992,14.992v365.039
	c0,8.28-6.713,14.992-14.992,14.992h24.987c8.28,0,14.992-6.713,14.992-14.992V73.481C504.504,65.201,497.792,58.489,489.511,58.489
	z"/>
<g>
	<path style="fill:#FFD039;" d="M75.75,377.726l16.289,7.3c6.746,3.023,12.144,8.422,15.167,15.167l7.3,16.289l7.3-16.289
		c3.023-6.746,8.422-12.144,15.167-15.167l16.289-7.3l-16.289-7.3c-6.746-3.023-12.144-8.422-15.167-15.167l-7.3-16.289l-7.3,16.289
		c-3.023,6.746-8.422,12.144-15.167,15.167L75.75,377.726z"/>
	<path style="fill:#FFD039;" d="M333.514,369.318l16.289,7.3c6.746,3.023,12.144,8.422,15.167,15.167l7.3,16.289l7.3-16.289
		c3.023-6.746,8.422-12.144,15.167-15.167l16.289-7.3l-16.289-7.3c-6.746-3.023-12.144-8.422-15.167-15.167l-7.3-16.289l-7.3,16.289
		c-3.023,6.746-8.422,12.144-15.167,15.167L333.514,369.318z"/>
	<path style="fill:#FFD039;" d="M390.74,214.639l16.289,7.3c6.746,3.023,12.144,8.422,15.167,15.167l7.3,16.289l7.3-16.289
		c3.023-6.746,8.422-12.144,15.167-15.167l16.289-7.3l-16.289-7.3c-6.746-3.023-12.144-8.422-15.167-15.167l-7.3-16.289l-7.3,16.289
		c-3.023,6.746-8.422,12.144-15.167,15.167L390.74,214.639z"/>
</g>
<path style="fill:#546F7A;" d="M489.511,58.489H22.488c-8.28,0-14.992,6.713-14.992,14.992v59.937h497.008V73.481
	C504.504,65.201,497.792,58.489,489.511,58.489z"/>
<path style="fill:#475D63;" d="M489.511,58.489h-24.987c8.28,0,14.992,6.713,14.992,14.992v59.937h24.987V73.481
	C504.504,65.201,497.792,58.489,489.511,58.489z"/>
<polygon style="fill:#E85B62;" points="188.807,269.923 217.431,198.045 176.02,198.045 114.505,269.923 253.471,424.004 
	253.472,424.004 "/>
<polygon style="fill:#DD3646;" points="318.137,269.923 253.472,424.003 392.437,269.923 330.923,198.045 289.513,198.045 "/>
<polyline style="fill:#FF434D;" points="253.471,424.006 318.137,269.923 289.513,198.045 253.472,198.045 217.431,198.045 
	188.807,269.923 253.472,424.006 "/>
<path style="fill:#FFD039;" d="M118.793,198.045l16.289,7.3c6.746,3.023,12.144,8.422,15.167,15.167l7.3,16.289l7.3-16.289
	c3.023-6.746,8.422-12.144,15.167-15.167l16.289-7.3l-16.289-7.3c-6.746-3.023-12.144-8.422-15.167-15.167l-7.3-16.289l-7.3,16.289
	c-3.023,6.746-8.422,12.144-15.167,15.167L118.793,198.045z"/>
<path d="M88.972,363.585l-16.289,7.3c-2.696,1.207-4.431,3.887-4.431,6.84c0,2.953,1.735,5.633,4.431,6.841l16.288,7.3
	c5.074,2.274,9.119,6.321,11.393,11.393l7.3,16.288c1.207,2.696,3.887,4.431,6.84,4.431s5.632-1.734,6.84-4.431l7.3-16.288
	c2.273-5.072,6.32-9.119,11.392-11.393l16.289-7.3c2.696-1.207,4.431-3.887,4.431-6.841c0-2.953-1.735-5.633-4.431-6.84l-16.288-7.3
	c-5.073-2.274-9.12-6.32-11.393-11.392l-7.3-16.289c-1.208-2.696-3.887-4.431-6.84-4.431s-5.632,1.734-6.84,4.431l-7.3,16.289
	C98.092,357.265,94.046,361.311,88.972,363.585z M114.046,358.325l0.46-1.025l0.459,1.025c3.78,8.435,10.508,15.161,18.942,18.941
	l1.025,0.46l-1.025,0.46c-8.435,3.781-15.162,10.509-18.942,18.942l-0.459,1.025l-0.46-1.024
	c-3.779-8.434-10.506-15.162-18.942-18.943l-1.025-0.46l1.025-0.46C103.54,373.485,110.267,366.757,114.046,358.325z"/>
<path d="M397.803,355.177c-5.073-2.274-9.12-6.32-11.392-11.392l-7.3-16.289c-1.208-2.696-3.887-4.431-6.84-4.431
	c-2.954,0-5.632,1.734-6.84,4.431l-7.3,16.289c-2.273,5.072-6.32,9.118-11.392,11.392l-16.288,7.3
	c-2.696,1.207-4.431,3.887-4.431,6.84c0,2.953,1.735,5.633,4.431,6.841l16.288,7.3c5.073,2.274,9.12,6.321,11.393,11.393l7.3,16.288
	c1.208,2.696,3.887,4.431,6.84,4.431c2.953,0,5.632-1.734,6.84-4.431l7.301-16.289c2.273-5.071,6.319-9.118,11.392-11.392
	l16.289-7.3c2.696-1.207,4.431-3.887,4.431-6.841c0-2.953-1.735-5.633-4.431-6.84L397.803,355.177z M391.671,369.778
	c-8.436,3.781-15.162,10.51-18.941,18.942l-0.46,1.025l-0.46-1.025c-3.78-8.435-10.507-15.161-18.942-18.942l-1.024-0.46l1.025-0.46
	c8.435-3.78,15.161-10.508,18.942-18.941l0.46-1.025l0.46,1.025c3.779,8.434,10.507,15.16,18.942,18.941l1.024,0.46L391.671,369.778
	z"/>
<path d="M429.495,260.891c2.954,0,5.632-1.734,6.841-4.431l7.3-16.289c2.273-5.072,6.32-9.119,11.392-11.393l16.289-7.3
	c2.696-1.207,4.431-3.887,4.431-6.84c0-2.953-1.735-5.633-4.431-6.84l-16.289-7.3c-5.072-2.273-9.118-6.32-11.392-11.392
	l-7.3-16.289c-1.208-2.696-3.887-4.431-6.841-4.431c-2.954,0-5.632,1.734-6.84,4.431l-7.3,16.289
	c-2.274,5.073-6.32,9.119-11.392,11.392l-16.288,7.3c-2.696,1.207-4.431,3.887-4.431,6.84c0,2.953,1.735,5.633,4.431,6.84
	l16.288,7.3c5.073,2.274,9.12,6.321,11.393,11.393l7.3,16.289C423.863,259.157,426.542,260.891,429.495,260.891z M410.094,215.099
	l-1.024-0.46l1.024-0.459c8.435-3.78,15.162-10.508,18.943-18.942l0.46-1.024l0.459,1.024c3.781,8.435,10.508,15.162,18.942,18.941
	l1.025,0.46l-1.025,0.46c-8.435,3.781-15.162,10.509-18.942,18.942l-0.459,1.024l-0.46-1.024
	C425.256,225.607,418.53,218.88,410.094,215.099z"/>
<path d="M52.501,82.66c-6.929,0-12.566,5.637-12.566,12.566c0,6.928,5.637,12.566,12.566,12.566c6.929,0,12.566-5.637,12.566-12.566
	C65.067,88.297,59.43,82.66,52.501,82.66z"/>
<path d="M90.099,82.66c-6.929,0-12.566,5.637-12.566,12.566c0,6.928,5.637,12.566,12.566,12.566c6.929,0,12.566-5.637,12.566-12.566
	C102.664,88.297,97.028,82.66,90.099,82.66z"/>
<path d="M127.697,82.66c-6.929,0-12.566,5.637-12.566,12.566c0,6.928,5.637,12.566,12.566,12.566
	c6.929,0,12.566-5.637,12.566-12.566C140.262,88.297,134.626,82.66,127.697,82.66z"/>
<path d="M108.767,265.104c-0.071,0.084-0.136,0.173-0.203,0.261c-0.077,0.1-0.155,0.2-0.226,0.303
	c-0.062,0.09-0.119,0.184-0.177,0.277c-0.067,0.107-0.134,0.213-0.195,0.322c-0.054,0.096-0.103,0.195-0.152,0.294
	c-0.056,0.111-0.111,0.221-0.16,0.333c-0.046,0.103-0.086,0.207-0.127,0.313c-0.044,0.114-0.087,0.228-0.126,0.344
	c-0.035,0.107-0.068,0.214-0.099,0.323c-0.034,0.121-0.066,0.242-0.094,0.364c-0.024,0.106-0.048,0.212-0.067,0.319
	c-0.025,0.134-0.044,0.268-0.062,0.403c-0.013,0.098-0.026,0.196-0.035,0.295c-0.015,0.163-0.021,0.325-0.025,0.489
	c-0.001,0.061-0.009,0.121-0.009,0.183c0,0.015,0.002,0.029,0.002,0.044c0.001,0.238,0.012,0.476,0.036,0.714
	c0.004,0.041,0.013,0.081,0.018,0.122c0.023,0.193,0.05,0.386,0.088,0.577c0.02,0.102,0.047,0.2,0.072,0.301
	c0.031,0.128,0.061,0.255,0.098,0.382c0.032,0.107,0.069,0.211,0.106,0.316c0.041,0.117,0.081,0.234,0.128,0.349
	c0.042,0.103,0.088,0.204,0.134,0.305c0.052,0.113,0.104,0.225,0.162,0.336c0.051,0.098,0.105,0.194,0.16,0.29
	c0.062,0.108,0.126,0.214,0.194,0.319c0.06,0.094,0.123,0.186,0.187,0.276c0.071,0.101,0.145,0.199,0.222,0.297
	c0.07,0.089,0.142,0.177,0.217,0.264c0.037,0.043,0.07,0.089,0.108,0.132l138.966,154.08c0.003,0.004,0.007,0.007,0.01,0.01
	c0.018,0.02,0.038,0.037,0.055,0.057c0.112,0.121,0.228,0.237,0.348,0.351c0.038,0.035,0.074,0.071,0.113,0.106
	c0.029,0.027,0.058,0.054,0.088,0.08c0.105,0.093,0.215,0.182,0.326,0.269c0.042,0.033,0.086,0.065,0.129,0.098
	c0.015,0.012,0.03,0.023,0.045,0.034c0.039,0.029,0.076,0.06,0.115,0.088c0.091,0.064,0.184,0.125,0.279,0.185
	c0.015,0.009,0.028,0.02,0.042,0.03c0.017,0.01,0.034,0.017,0.051,0.027c0.051,0.031,0.101,0.063,0.153,0.093
	c0.046,0.027,0.091,0.058,0.137,0.084c0.173,0.097,0.354,0.185,0.537,0.269c0.012,0.006,0.025,0.013,0.037,0.019
	c0.018,0.008,0.035,0.018,0.053,0.026c0.023,0.01,0.046,0.022,0.07,0.032c0.027,0.011,0.051,0.026,0.079,0.038
	c0.179,0.075,0.361,0.136,0.542,0.196c0.031,0.01,0.061,0.023,0.092,0.033c0.065,0.021,0.129,0.039,0.194,0.058
	c0.012,0.004,0.025,0.006,0.037,0.009c0.313,0.089,0.627,0.153,0.942,0.2c0.034,0.005,0.067,0.01,0.1,0.015
	c0.331,0.044,0.662,0.075,0.99,0.075c0.089,0,0.176-0.016,0.264-0.02c0.216-0.007,0.431-0.021,0.645-0.047
	c0.135-0.017,0.268-0.039,0.401-0.062c0.189-0.033,0.376-0.076,0.562-0.123c0.074-0.019,0.148-0.03,0.222-0.051
	c0.046-0.013,0.092-0.029,0.138-0.044c0.274-0.085,0.544-0.185,0.809-0.302c0.02-0.009,0.039-0.018,0.058-0.027
	c0.084-0.038,0.163-0.085,0.246-0.126c0.192-0.095,0.381-0.198,0.565-0.311c0.037-0.023,0.077-0.038,0.114-0.061
	c0.01-0.006,0.019-0.014,0.029-0.02c0.059-0.038,0.115-0.081,0.174-0.121c0.081-0.055,0.161-0.11,0.24-0.168
	c0.13-0.096,0.253-0.197,0.375-0.3c0.059-0.05,0.121-0.096,0.178-0.148c0.005-0.005,0.01-0.01,0.015-0.015
	c0.189-0.171,0.37-0.349,0.539-0.536l0.001-0.001l138.964-154.079c0.039-0.043,0.071-0.089,0.108-0.132
	c0.074-0.086,0.146-0.174,0.217-0.264c0.077-0.098,0.151-0.196,0.222-0.297c0.064-0.091,0.127-0.183,0.187-0.276
	c0.068-0.105,0.132-0.212,0.194-0.319c0.055-0.096,0.109-0.192,0.16-0.29c0.057-0.111,0.11-0.223,0.162-0.336
	c0.046-0.101,0.092-0.202,0.134-0.305c0.047-0.115,0.087-0.232,0.128-0.349c0.036-0.105,0.074-0.209,0.106-0.316
	c0.038-0.126,0.067-0.254,0.098-0.382c0.024-0.1,0.052-0.199,0.072-0.301c0.038-0.191,0.065-0.384,0.088-0.577
	c0.005-0.041,0.014-0.081,0.018-0.122c0.024-0.237,0.035-0.475,0.036-0.714c0-0.015,0.002-0.029,0.002-0.044
	c0-0.062-0.008-0.122-0.009-0.183c-0.004-0.163-0.01-0.326-0.025-0.489c-0.009-0.099-0.023-0.197-0.035-0.295
	c-0.018-0.135-0.037-0.269-0.062-0.403c-0.02-0.108-0.043-0.214-0.067-0.319c-0.028-0.122-0.059-0.243-0.094-0.364
	c-0.031-0.109-0.063-0.216-0.099-0.323c-0.038-0.116-0.081-0.23-0.126-0.344c-0.041-0.105-0.082-0.21-0.127-0.313
	c-0.05-0.113-0.105-0.223-0.161-0.333c-0.05-0.099-0.098-0.198-0.152-0.294c-0.061-0.109-0.129-0.215-0.195-0.322
	c-0.058-0.093-0.115-0.187-0.177-0.277c-0.071-0.103-0.149-0.202-0.226-0.303c-0.067-0.088-0.132-0.177-0.203-0.261
	c-0.015-0.018-0.028-0.038-0.044-0.056l-61.514-71.878c-1.424-1.663-3.505-2.622-5.695-2.622h-41.41h-72.082h-19.524l-14.824-6.645
	c-5.073-2.274-9.119-6.321-11.393-11.393l-7.3-16.289c-1.208-2.696-3.887-4.431-6.84-4.431s-5.632,1.734-6.84,4.431l-7.3,16.289
	c-2.274,5.072-6.32,9.119-11.393,11.393l-16.288,7.3c-2.696,1.207-4.431,3.887-4.431,6.84s1.735,5.633,4.431,6.84l16.289,7.3
	c5.072,2.273,9.118,6.32,11.392,11.392l0.307,0.685l-34.904,40.786C108.795,265.067,108.782,265.086,108.767,265.104z
	 M131.361,277.419h52.463l11.979,28.542c0,0,0.001,0.001,0.001,0.002l0.002,0.006c1.601,3.816,5.996,5.612,9.813,4.012
	c3.817-1.603,5.613-5.996,4.011-9.813l-9.547-22.748h106.778l-53.39,127.215l-31.679-75.482c-1.602-3.818-5.997-5.611-9.813-4.012
	c-3.817,1.603-5.613,5.996-4.011,9.813l21.512,51.259L131.361,277.419z M323.121,277.419h52.461L277.463,386.21L323.121,277.419z
	 M284.429,205.541l22.653,56.886H199.862l22.653-56.886H284.429z M327.471,205.541l48.684,56.886h-52.935l-22.653-56.886H327.471z
	 M138.147,198.504l-1.024-0.46l1.025-0.46c8.435-3.781,15.161-10.509,18.942-18.942l0.459-1.024l0.46,1.024
	c3.78,8.435,10.508,15.161,18.942,18.942l1.024,0.46l-1.024,0.46c-8.435,3.779-15.162,10.507-18.943,18.941l-0.46,1.024
	l-0.459-1.024C153.309,209.011,146.582,202.283,138.147,198.504z M150.708,239.866c1.208,2.696,3.887,4.431,6.84,4.431
	c2.954,0,5.632-1.734,6.84-4.431l7.3-16.289c2.274-5.072,6.32-9.119,11.392-11.392l14.825-6.644h8.47l-22.653,56.886h-52.937
	l19.71-23.031L150.708,239.866z"/>
<path d="M504.504,381.734c-4.14,0-7.496,3.355-7.496,7.496v49.289c0,4.134-3.363,7.496-7.496,7.496H22.488
	c-4.133,0-7.496-3.362-7.496-7.496V210.594c0-4.141-3.356-7.496-7.496-7.496S0,206.453,0,210.594V438.52
	c0,12.4,10.088,22.488,22.488,22.488h467.023c12.401,0,22.488-10.089,22.488-22.488v-49.289
	C512,385.09,508.644,381.734,504.504,381.734z"/>
<path d="M489.511,50.992H22.488C10.088,50.992,0,61.081,0,73.48v59.937v47.192c0,4.141,3.356,7.496,7.496,7.496
	s7.496-3.355,7.496-7.496v-39.696h482.015v218.331c0,4.141,3.356,7.496,7.496,7.496c4.14,0,7.496-3.355,7.496-7.496V133.418V73.48
	C512,61.081,501.912,50.992,489.511,50.992z M14.992,125.922V73.48c0-4.134,3.363-7.496,7.496-7.496h467.023
	c4.133,0,7.496,3.362,7.496,7.496v52.441C497.008,125.922,14.992,125.922,14.992,125.922z"/>
<g>
</g>
<g>
</g>
<g>
</g>
<g>
</g>
<g>
</g>
<g>
</g>
<g>
</g>
<g>
</g>
<g>
</g>
<g>
</g>
<g>
</g>
<g>
</g>
<g>
</g>
<g>
</g>
<g>
</g>
</svg>
