<?xml version="1.0" encoding="iso-8859-1"?>
<!-- Generator: Adobe Illustrator 19.0.0, SVG Export Plug-In . SVG Version: 6.00 Build 0)  -->
<svg version="1.1" id="Capa_1" xmlns="http://www.w3.org/2000/svg" xmlns:xlink="http://www.w3.org/1999/xlink" x="0px" y="0px"
	 viewBox="0 0 512.001 512.001" style="enable-background:new 0 0 512.001 512.001;" xml:space="preserve">
<path style="fill:#546F7A;" d="M288.792,181.718L16.305,454.204c-11.513,11.513-11.513,30.179,0,41.693s30.179,11.513,41.693,0
	l272.487-272.487L288.792,181.718z"/>
<g>
	<path style="fill:#FFD039;" d="M417.619,50.831l18.217,8.165c7.545,3.382,13.582,9.419,16.964,16.964l8.165,18.217l8.165-18.217
		c3.382-7.545,9.419-13.582,16.964-16.964l18.217-8.165l-18.217-8.165c-7.545-3.382-13.582-9.419-16.964-16.964l-8.165-18.216
		L452.8,25.704c-3.382,7.545-9.419,13.582-16.964,16.964L417.619,50.831z"/>
	<path style="fill:#FFD039;" d="M392.973,258.025l18.217,8.165c7.545,3.382,13.582,9.419,16.964,16.964l8.165,18.217l8.165-18.217
		c3.382-7.545,9.419-13.582,16.964-16.964l18.217-8.165l-18.217-8.165c-7.545-3.382-13.582-9.419-16.964-16.964l-8.165-18.217
		l-8.165,18.217c-3.381,7.545-9.419,13.582-16.964,16.964L392.973,258.025z"/>
	<path style="fill:#FFD039;" d="M184.995,75.968l23.865,10.696c9.884,4.43,17.793,12.339,22.222,22.223l10.696,23.865l10.696-23.865
		c4.43-9.884,12.339-17.793,22.223-22.223l23.865-10.696l-23.865-10.696c-9.884-4.43-17.793-12.339-22.223-22.222l-10.696-23.865
		L231.082,43.05c-4.43,9.884-12.339,17.793-22.222,22.222L184.995,75.968z"/>
</g>
<path style="fill:#E0E0E0;" d="M330.485,223.41l-41.693-41.693l72.941-72.941c11.513-11.513,30.179-11.513,41.693,0l0,0
	c11.513,11.513,11.513,30.179,0,41.693L330.485,223.41z"/>
<path style="fill:#475D63;" d="M40.032,477.93c-8.297,8.297-20.307,10.612-30.679,6.952c1.419,4.022,3.735,7.798,6.952,11.015
	c11.513,11.513,30.179,11.513,41.693,0L330.485,223.41l-17.967-17.967L40.032,477.93z"/>
<path style="fill:#C6C5CA;" d="M403.426,108.777L403.426,108.777c-3.217-3.217-6.993-5.533-11.015-6.952
	c3.66,10.372,1.344,22.382-6.952,30.679l-72.941,72.941l0,0l17.967,17.967l72.941-72.941
	C414.939,138.956,414.939,120.29,403.426,108.777z"/>
<path d="M408.72,103.483c-14.414-14.412-37.866-14.412-52.281,0l-15.29,15.29c-2.924,2.925-2.924,7.664,0,10.588
	c2.925,2.923,7.664,2.923,10.587,0l15.29-15.29c8.576-8.576,22.529-8.576,31.105,0c8.576,8.575,8.576,22.53,0,31.105l-67.647,67.648
	l-31.106-31.106l31.078-31.078c2.924-2.925,2.924-7.664,0-10.589c-2.925-2.923-7.664-2.923-10.588,0l-36.361,36.364
	c-0.003,0.003-0.007,0.006-0.01,0.009L99.415,360.507c-2.924,2.925-2.924,7.664,0,10.587c1.461,1.461,3.378,2.192,5.293,2.192
	s3.832-0.731,5.293-2.192l178.789-178.79l31.106,31.106l-69.583,69.583c-2.924,2.925-2.924,7.664,0,10.588
	c2.924,2.923,7.663,2.923,10.588,0l74.878-74.878l72.941-72.941C423.133,141.349,423.133,117.896,408.72,103.483z"/>
<path d="M229.101,314.207L52.705,490.603c-8.575,8.577-22.531,8.576-31.106,0.001c-8.576-8.577-8.576-22.531-0.001-31.106
	l67.124-67.125c2.924-2.925,2.924-7.664,0-10.587c-2.924-2.923-7.664-2.923-10.587,0l-67.125,67.124
	c-14.412,14.413-14.413,37.866,0,52.281c7.207,7.207,16.673,10.809,26.14,10.809s18.933-3.602,26.14-10.809l176.395-176.396
	c2.924-2.925,2.924-7.664,0-10.588C236.764,311.285,232.023,311.285,229.101,314.207z"/>
<path d="M507.373,44.001l-18.218-8.167c-5.874-2.632-10.56-7.318-13.194-13.193l-8.165-18.217C466.59,1.732,463.915,0,460.965,0
	c-2.95,0-5.626,1.732-6.831,4.425l-8.165,18.217c-2.634,5.875-7.32,10.561-13.195,13.194l-18.217,8.166
	c-2.692,1.207-4.425,3.882-4.425,6.831c0,2.95,1.732,5.626,4.425,6.831l18.217,8.165c5.875,2.634,10.561,7.32,13.195,13.195
	l8.165,18.217c1.206,2.692,3.882,4.425,6.831,4.425s5.626-1.732,6.831-4.425l8.165-18.217c2.634-5.875,7.32-10.561,13.195-13.195
	l18.217-8.165c2.692-1.206,4.425-3.882,4.425-6.831C511.799,47.884,510.065,45.208,507.373,44.001z M483.032,52.166
	c-9.232,4.138-16.595,11.501-20.734,20.733l-1.334,2.975l-1.334-2.975c-4.137-9.232-11.501-16.595-20.733-20.733l-2.977-1.334
	l2.975-1.334c9.233-4.137,16.596-11.5,20.734-20.734l1.334-2.975l1.334,2.975c4.138,9.233,11.501,16.596,20.734,20.733l2.975,1.335
	L483.032,52.166z"/>
<path d="M482.727,251.194l-18.217-8.165c-5.875-2.634-10.561-7.32-13.195-13.195l-8.165-18.217
	c-1.206-2.692-3.882-4.425-6.831-4.425s-5.626,1.732-6.831,4.425l-8.165,18.217c-2.634,5.875-7.32,10.561-13.195,13.195
	l-18.217,8.165c-2.692,1.206-4.425,3.882-4.425,6.831s1.732,5.626,4.425,6.831l18.217,8.165c5.875,2.634,10.561,7.32,13.195,13.195
	l8.165,18.217c1.206,2.692,3.882,4.425,6.831,4.425s5.626-1.732,6.831-4.425l8.165-18.217c2.634-5.875,7.32-10.561,13.195-13.195
	l18.217-8.165c2.692-1.206,4.425-3.882,4.425-6.831C487.152,255.076,485.42,252.4,482.727,251.194z M458.387,259.359
	c-9.232,4.138-16.595,11.501-20.733,20.734l-1.334,2.975l-1.334-2.975c-4.138-9.232-11.501-16.595-20.733-20.734l-2.975-1.334
	l2.975-1.334c9.232-4.137,16.595-11.501,20.733-20.733l1.334-2.975l1.334,2.975c4.138,9.232,11.501,16.595,20.733,20.733
	l2.975,1.334L458.387,259.359z"/>
<path d="M181.934,82.8l23.865,10.696c8.217,3.682,14.77,10.236,18.453,18.453l10.695,23.864c1.207,2.692,3.882,4.425,6.831,4.425
	c2.951,0,5.625-1.732,6.831-4.425l10.695-23.864c3.684-8.217,10.236-14.771,18.453-18.453L301.623,82.8
	c2.692-1.206,4.425-3.882,4.425-6.831s-1.732-5.626-4.425-6.831L277.758,58.44c-8.217-3.682-14.77-10.236-18.453-18.453
	L248.61,16.122c-1.207-2.692-3.882-4.425-6.831-4.425c-2.95,0-5.625,1.732-6.831,4.425l-10.696,23.865
	c-3.682,8.217-10.235,14.771-18.452,18.453l-23.865,10.696c-2.692,1.206-4.425,3.882-4.425,6.831
	C177.509,78.918,179.242,81.594,181.934,82.8z M211.922,72.103c11.575-5.186,20.806-14.417,25.992-25.992l3.865-8.623l3.864,8.623
	c5.187,11.576,14.419,20.807,25.993,25.992l8.623,3.865l-8.623,3.865c-11.574,5.185-20.805,14.416-25.993,25.992l-3.864,8.622
	l-3.865-8.622c-5.186-11.575-14.417-20.806-25.992-25.992l-8.623-3.865L211.922,72.103z"/>
<g>
</g>
<g>
</g>
<g>
</g>
<g>
</g>
<g>
</g>
<g>
</g>
<g>
</g>
<g>
</g>
<g>
</g>
<g>
</g>
<g>
</g>
<g>
</g>
<g>
</g>
<g>
</g>
<g>
</g>
</svg>
