<?xml version="1.0" encoding="iso-8859-1"?>
<!-- Generator: Adobe Illustrator 19.0.0, SVG Export Plug-In . SVG Version: 6.00 Build 0)  -->
<svg version="1.1" id="Capa_1" xmlns="http://www.w3.org/2000/svg" xmlns:xlink="http://www.w3.org/1999/xlink" x="0px" y="0px"
	 viewBox="0 0 512 512" style="enable-background:new 0 0 512 512;" xml:space="preserve">
<path style="fill:#FFD039;" d="M87.533,474.046h332.689c16.6,0,30.059-13.457,30.059-30.059V37.954H57.474v406.033
	C57.474,460.588,70.932,474.046,87.533,474.046z"/>
<path style="fill:#FFAE47;" d="M425.232,37.954v406.033c0,16.601-13.458,30.059-30.059,30.059h25.049
	c16.6,0,30.059-13.457,30.059-30.059V37.954H425.232z"/>
<path style="fill:#FF434D;" d="M131.035,37.954v166.399c0,14.094,11.425,25.519,25.519,25.519l0,0
	c14.094,0,25.519-11.425,25.519-25.519v-65.62c0-13.222,10.718-23.94,23.94-23.94l0,0c13.222,0,23.94,10.718,23.94,23.94v37.529
	c0,14.556,11.8,26.356,26.356,26.356l0,0c14.556,0,26.356-11.8,26.356-26.356V37.954H131.035z"/>
<rect x="131.036" y="37.954" style="fill:#DD3646;" width="151.626" height="25.049"/>
<path style="fill:#546F7A;" d="M206.034,306.409h99.931c12.856,0,23.277,10.421,23.277,23.277l0,0
	c0,12.855-10.421,23.277-23.277,23.277h-99.931c-12.856,0-23.277-10.421-23.277-23.277l0,0
	C182.757,316.832,193.178,306.409,206.034,306.409z"/>
<path style="fill:#475D63;" d="M305.966,329.919h-99.931c-8.662,0-16.214-4.735-20.222-11.755
	c-1.941,3.399-3.055,7.329-3.055,11.522l0,0c0,12.855,10.421,23.277,23.277,23.277h99.931c12.856,0,23.277-10.421,23.277-23.277l0,0
	c0-4.193-1.114-8.124-3.055-11.522C322.179,325.184,314.629,329.919,305.966,329.919z"/>
<path d="M504.485,99.265h-46.691V45.469h19.219c4.15,0,7.515-3.364,7.515-7.515s-3.365-7.515-7.515-7.515h-26.733H282.665h-151.63
	H57.474H30.741c-4.15,0-7.515,3.364-7.515,7.515s3.365,7.515,7.515,7.515H49.96v53.796H7.515c-4.15,0-7.515,3.364-7.515,7.515
	v47.865c0,48.515,19.007,92.669,49.96,125.423v65.363c0,4.151,3.365,7.515,7.515,7.515s7.515-3.364,7.515-7.515v-51.154
	c30.269,25.57,68.928,41.494,111.201,42.995c3.388,13.322,15.482,23.207,29.844,23.207h99.932c14.362,0,26.457-9.884,29.844-23.207
	c40.321-1.432,77.354-15.981,106.955-39.51v146.226c0,12.43-10.113,22.544-22.544,22.544H87.533
	c-12.431,0-22.544-10.114-22.544-22.544v-68.491c0-4.151-3.365-7.515-7.515-7.515s-7.515,3.364-7.515,7.515v68.491
	c0,20.718,16.855,37.573,37.573,37.573h332.688c20.718,0,37.573-16.855,37.573-37.573V284.415
	C491.245,251.276,512,205.341,512,154.645V106.78C512,102.629,508.635,99.265,504.485,99.265z M15.029,154.645v-40.351h34.93
	v142.681C28.073,228.638,15.029,193.138,15.029,154.645z M305.967,345.449h-99.932c-8.691,0-15.762-7.071-15.762-15.762
	s7.071-15.763,15.762-15.763h99.932c8.691,0,15.763,7.071,15.763,15.763S314.658,345.449,305.967,345.449z M496.971,154.645
	c0,40.922-14.739,78.461-39.177,107.607V220.13c0-4.151-3.365-7.515-7.515-7.515c-4.15,0-7.515,3.364-7.515,7.515v57.869
	c-28.382,26.141-65.773,42.632-106.925,44.232c-3.343-13.387-15.466-23.336-29.874-23.336h-99.932
	c-14.408,0-26.532,9.948-29.874,23.336c-43.238-1.681-82.325-19.802-111.171-48.281V45.469h58.531v41.662
	c0,4.151,3.365,7.515,7.515,7.515s7.515-3.364,7.515-7.515V45.469h136.6v130.792c0,10.389-8.453,18.842-18.842,18.842
	c-10.389,0-18.842-8.453-18.842-18.842v-37.528c0-17.345-14.111-31.455-31.454-31.455s-31.454,14.111-31.454,31.455v65.62
	c0,9.927-8.077,18.004-18.005,18.004c-9.927,0-18.004-8.076-18.004-18.004V117.19c0-4.151-3.365-7.515-7.515-7.515
	s-7.515,3.364-7.515,7.515v87.163c0,18.215,14.819,33.034,33.034,33.034c18.216,0,33.035-14.819,33.035-33.034v-65.62
	c0-9.057,7.368-16.426,16.425-16.426s16.425,7.368,16.425,16.426v37.528c0,18.676,15.195,33.871,33.871,33.871
	s33.871-15.195,33.871-33.871V45.469h152.587v144.596c0,4.151,3.365,7.515,7.515,7.515c4.15,0,7.515-3.364,7.515-7.515v-75.771
	h39.177V154.645z"/>
<g>
</g>
<g>
</g>
<g>
</g>
<g>
</g>
<g>
</g>
<g>
</g>
<g>
</g>
<g>
</g>
<g>
</g>
<g>
</g>
<g>
</g>
<g>
</g>
<g>
</g>
<g>
</g>
<g>
</g>
</svg>
