<?xml version="1.0" encoding="iso-8859-1"?>
<!-- Generator: Adobe Illustrator 19.0.0, SVG Export Plug-In . SVG Version: 6.00 Build 0)  -->
<svg version="1.1" id="Capa_1" xmlns="http://www.w3.org/2000/svg" xmlns:xlink="http://www.w3.org/1999/xlink" x="0px" y="0px"
	 viewBox="0 0 512.001 512.001" style="enable-background:new 0 0 512.001 512.001;" xml:space="preserve">
<polygon style="fill:#FFD039;" points="469.834,392.73 469.867,392.662 469.867,84.996 406.857,84.996 406.857,392.662 
	406.888,392.73 "/>
<g>
	<polygon style="fill:#FFA304;" points="444.89,84.996 444.89,392.662 444.857,392.73 469.834,392.73 469.867,392.662 
		469.867,84.996 	"/>
	<polygon style="fill:#FFA304;" points="127.132,504.507 105.14,489.124 83.149,504.507 83.149,457.942 127.132,457.942 	"/>
</g>
<path style="fill:#FF434D;" d="M334.315,457.942H42.133V7.493h292.182c16.554,0,29.972,13.419,29.972,29.972v390.506
	C364.287,444.524,350.869,457.942,334.315,457.942z"/>
<g>
	<path style="fill:#DD3646;" d="M334.315,7.493h-24.977c16.554,0,29.972,13.419,29.972,29.972v390.506
		c0,16.554-13.419,29.972-29.972,29.972h24.977c16.554,0,29.972-13.419,29.972-29.972V37.465
		C364.287,20.912,350.869,7.493,334.315,7.493z"/>
	<rect x="241.445" y="7.493" style="fill:#DD3646;" width="24.977" height="450.451"/>
</g>
<rect x="266.422" y="7.493" style="fill:#FFD039;" width="30.836" height="450.451"/>
<polygon style="fill:#FFC89F;" points="438.361,458.545 469.834,392.73 406.888,392.73 "/>
<polygon style="fill:#F7B081;" points="444.857,392.73 425.873,432.429 438.361,458.545 469.834,392.73 "/>
<path style="fill:#546F7A;" d="M469.867,50.906V22.695c0-8.396-6.807-15.202-15.202-15.202h-32.606
	c-8.396,0-15.202,6.807-15.202,15.202v28.211H469.867z"/>
<path style="fill:#475D63;" d="M454.664,7.493h-24.977c8.396,0,15.202,6.807,15.202,15.202v28.211h24.977V22.695
	C469.867,14.3,463.06,7.493,454.664,7.493z"/>
<rect x="406.862" y="50.906" style="fill:#FF6137;" width="63.011" height="34.088"/>
<polygon style="fill:#3C5156;" points="438.361,458.545 453.049,427.83 423.674,427.83 "/>
<rect x="444.886" y="50.906" style="fill:#E04F32;" width="24.977" height="34.088"/>
<path d="M334.315,0h-37.059h-30.835H42.134c-4.138,0-7.493,3.355-7.493,7.493v69.291c0,4.138,3.355,7.493,7.493,7.493
	s7.493-3.355,7.493-7.493V14.986h209.302v280.068c0,4.138,3.354,7.493,7.493,7.493s7.493-3.355,7.493-7.493V14.986h15.849V450.45
	h-15.849V325.026c0-4.138-3.354-7.493-7.493-7.493s-7.493,3.355-7.493,7.493V450.45H127.132H83.149H49.627V106.756
	c0-4.138-3.355-7.493-7.493-7.493s-7.493,3.355-7.493,7.493v351.188c0,4.138,3.355,7.493,7.493,7.493h33.524v39.071
	c0,2.793,1.555,5.355,4.031,6.646c2.478,1.291,5.468,1.096,7.757-0.506l17.696-12.379l17.696,12.379
	c1.283,0.897,2.786,1.353,4.295,1.353c1.184,0,2.372-0.28,3.461-0.847c2.478-1.29,4.031-3.851,4.031-6.646v-39.071H266.42h30.835
	h37.059c20.659,0,37.465-16.806,37.465-37.465V37.465C371.78,16.806,354.974,0,334.315,0z M119.639,490.121l-10.203-7.137
	c-1.29-0.902-2.792-1.353-4.295-1.353s-3.005,0.452-4.295,1.353l-10.203,7.137v-24.685h28.995V490.121z M356.794,427.971
	c0,12.395-10.085,22.479-22.479,22.479h-29.565V14.986h29.565c12.395,0,22.479,10.084,22.479,22.479V427.971z"/>
<path d="M454.664,0h-32.606c-12.514,0-22.696,10.181-22.696,22.695v28.211v34.09v91.106c0,4.138,3.354,7.493,7.493,7.493
	s7.493-3.355,7.493-7.493V92.489h48.024v292.748h-48.024V206.074c0-4.138-3.354-7.493-7.493-7.493s-7.493,3.355-7.493,7.493v186.588
	c0,0.757,0.139,1.534,0.373,2.273c0.02,0.063,0.035,0.127,0.056,0.19c0.076,0.221,0.165,0.434,0.259,0.644
	c0.029,0.064,0.048,0.131,0.078,0.194l16.784,35.099c0,0,0,0.001,0.001,0.001l14.687,30.714c1.245,2.604,3.874,4.261,6.761,4.261
	s5.515-1.657,6.761-4.261l31.472-65.815c0-0.001,0-0.001,0.001-0.002c0.001-0.002,0.002-0.004,0.003-0.005
	c0.502-1.025,0.762-2.151,0.762-3.293V84.996v-34.09V22.695C477.36,10.181,467.178,0,454.664,0z M448.327,420.338h-19.929
	l-9.619-20.115h39.168L448.327,420.338z M462.374,77.503H414.35V58.399h48.024V77.503z M462.374,43.413H414.35V22.695
	c0-4.251,3.459-7.709,7.71-7.709h32.606c4.251,0,7.71,3.458,7.71,7.709v20.718H462.374z"/>
<g>
</g>
<g>
</g>
<g>
</g>
<g>
</g>
<g>
</g>
<g>
</g>
<g>
</g>
<g>
</g>
<g>
</g>
<g>
</g>
<g>
</g>
<g>
</g>
<g>
</g>
<g>
</g>
<g>
</g>
</svg>
