<svg width="212" height="269" viewBox="0 0 212 269" fill="none" xmlns="http://www.w3.org/2000/svg">
<path d="M137.1 33.1H9.2998V258H137.1V33.1Z" fill="#F2F2F9"/>
<path d="M129.499 99.8H37.6992V195.2H129.499V99.8Z" fill="#E4E4EF"/>
<path d="M28.5998 116.3C28.1998 116.3 27.7998 116 27.7998 115.5V88.1H52.2998C52.6998 88.1 53.0998 88.4 53.0998 88.9C53.0998 89.4 52.7998 89.7 52.2998 89.7H29.2998V115.6C29.3998 116 28.9998 116.3 28.5998 116.3Z" fill="#030047"/>
<path d="M53.7994 207.1H26.3994V182.6C26.3994 182.2 26.6994 181.8 27.1994 181.8C27.6994 181.8 27.9994 182.1 27.9994 182.6V205.6H53.8994C54.2994 205.6 54.6994 205.9 54.6994 206.4C54.6994 206.9 54.1994 207.1 53.7994 207.1Z" fill="#030047"/>
<path d="M73.1996 50.5H28.5996V60.8H73.1996V50.5Z" fill="#E4E4EF"/>
<path d="M80.5998 60.9C83.2508 60.9 85.3998 58.751 85.3998 56.1C85.3998 53.449 83.2508 51.3 80.5998 51.3C77.9488 51.3 75.7998 53.449 75.7998 56.1C75.7998 58.751 77.9488 60.9 80.5998 60.9Z" fill="#E4E4EF"/>
<path d="M5.09961 66.9H0.599609V119.9H5.09961V66.9Z" fill="#F2F2F9"/>
<path d="M50.8998 136.4C50.6998 136.4 50.4998 136.3 50.2998 136.1L47.2998 132.7C46.9998 132.4 46.9998 131.9 47.3998 131.6C47.6998 131.3 48.1998 131.3 48.4998 131.7L51.4998 135.1C51.7998 135.4 51.7998 135.9 51.3998 136.2C51.2998 136.3 51.0998 136.4 50.8998 136.4Z" fill="#5F5FFF"/>
<path d="M31.1996 155.5C30.9996 155.5 30.7996 155.4 30.6996 155.3C30.3996 155 30.3996 154.5 30.6996 154.2L37.5996 147C37.8996 146.7 38.3996 146.7 38.6996 147C38.9996 147.3 38.9996 147.8 38.6996 148.1L31.7996 155.3C31.4996 155.5 31.2996 155.5 31.1996 155.5Z" fill="#5F5FFF"/>
<path d="M57.2997 180.8C56.9997 180.8 56.6997 180.6 56.5997 180.4L54.8998 176.7C54.6998 176.3 54.8997 175.9 55.2997 175.7C55.6997 175.5 56.0997 175.7 56.2997 176.1L57.9997 179.8C58.1997 180.2 57.9997 180.6 57.5997 180.8C57.4997 180.8 57.3997 180.8 57.2997 180.8Z" fill="#5F5FFF"/>
<path d="M195.4 215.1L211.599 235.1L175.099 268.8C175.099 268.8 170.799 264.1 173.599 259.3C174.999 256.8 176.299 252.4 176.599 247.6C176.599 247.3 176.6 246.9 176.7 246.6C176.8 245.4 176.8 244.2 176.7 243C176.7 242.7 176.599 242.3 176.599 242C176.299 239.3 175.6 236.7 174.4 234.5L195.4 215.1Z" fill="#5F5FFF"/>
<path d="M186.1 241.7C183 242.1 179.8 242.6 176.7 243.1C176.7 242.8 176.6 242.4 176.6 242.1C179.7 241.7 182.8 241.2 185.9 240.8C186.5 240.6 186.7 241.6 186.1 241.7Z" fill="#FF3E6C"/>
<path d="M185.199 247.3C182.399 247.4 179.499 247.5 176.699 247.6C176.699 247.3 176.699 246.9 176.799 246.6C179.599 246.5 182.499 246.4 185.299 246.3C185.899 246.3 185.799 247.3 185.199 247.3Z" fill="#FF3E6C"/>
<path d="M125.5 240.1L123.8 265.8H74.0996C74.0996 265.8 74.0997 259.5 79.3997 257.8C82.0997 257 86.0996 254.5 89.5996 251.3C89.7996 251.1 90.0996 250.9 90.2996 250.6C91.0996 249.8 91.9996 248.9 92.6996 248C92.8996 247.7 93.0996 247.5 93.2996 247.2C94.8996 245 96.1996 242.6 96.6996 240.2H125.5V240.1Z" fill="#5F5FFF"/>
<path d="M129.5 119.9C129.8 182.1 163 235.4 173.5 241.9L200.9 219.4C200.9 219.4 183.6 198.1 178.5 180.1C173.4 162.1 165.1 111.8 165.1 111.8L129.5 119.9Z" fill="#FFCC3E"/>
<path d="M106.1 124.7C106.1 148.1 93.0996 241.3 93.0996 241.3L130.7 246.6C130.7 246.6 140.5 153.7 140.3 141.4C140.1 129.1 135.1 113.6 135.1 113.6L106.1 124.7Z" fill="#FFCC3E"/>
<path d="M157.3 119.3C157 119.3 156.7 119.1 156.6 118.8C156.2 117.9 155.8 117 155.4 116.1C155.2 115.7 155.4 115.3 155.8 115.1C156.2 114.9 156.6 115.1 156.8 115.5C157.2 116.4 157.6 117.3 158 118.3C158.2 118.7 158 119.1 157.6 119.3C157.5 119.3 157.4 119.3 157.3 119.3Z" fill="white"/>
<path d="M185.8 216.2C185.5 216.2 185.3 216.1 185.1 215.8C184.1 214.1 183.1 212.2 182.1 210.2C181.9 209.8 182.1 209.4 182.4 209.2C182.8 209 183.2 209.2 183.4 209.5C184.4 211.5 185.4 213.3 186.4 215C186.6 215.4 186.5 215.8 186.1 216C186 216.2 185.9 216.2 185.8 216.2ZM180 204.9C179.7 204.9 179.4 204.7 179.3 204.5C178.4 202.6 177.6 200.7 176.7 198.7C176.5 198.3 176.7 197.9 177.1 197.7C177.5 197.5 177.9 197.7 178.1 198.1C178.9 200.1 179.8 202 180.6 203.9C180.8 204.3 180.6 204.7 180.2 204.9C180.2 204.9 180.1 204.9 180 204.9ZM175.1 193.2C174.8 193.2 174.5 193 174.4 192.7C173.7 190.8 173.1 188.8 172.4 186.6C172.3 186.2 172.5 185.8 172.9 185.7C173.3 185.6 173.7 185.8 173.8 186.2C174.4 188.3 175.1 190.4 175.7 192.2C175.8 192.6 175.6 193 175.3 193.2C175.3 193.2 175.2 193.2 175.1 193.2ZM171.6 181C171.3 181 171 180.8 170.9 180.4C170.4 178.5 170 176.4 169.5 174.2C169.4 173.8 169.7 173.4 170.1 173.3C170.5 173.2 170.9 173.5 171 173.9C171.5 176.1 171.9 178.2 172.4 180.1C172.5 180.5 172.2 180.9 171.8 181C171.7 181 171.7 181 171.6 181ZM169 168.6C168.6 168.6 168.3 168.3 168.3 168C167.9 165.9 167.5 163.9 167.2 161.8C167.1 161.4 167.4 161 167.8 160.9C168.2 160.8 168.6 161.1 168.7 161.5C169.1 163.6 169.4 165.7 169.8 167.7C169.9 168.1 169.6 168.5 169.2 168.6C169.1 168.6 169.1 168.6 169 168.6ZM166.8 156.1C166.4 156.1 166.1 155.8 166.1 155.5C165.7 153.4 165.3 151.3 165 149.3C164.9 148.9 165.2 148.5 165.6 148.4C166 148.3 166.4 148.6 166.5 149C166.9 151.1 167.3 153.2 167.6 155.3C167.7 155.7 167.4 156.1 167 156.2C166.9 156.1 166.8 156.1 166.8 156.1ZM164.4 143.7C164.1 143.7 163.7 143.5 163.7 143.1C163.2 140.9 162.8 138.9 162.3 136.9C162.2 136.5 162.5 136.1 162.9 136C163.3 135.9 163.7 136.2 163.8 136.6C164.3 138.6 164.7 140.6 165.2 142.8C165.3 143.2 165 143.6 164.6 143.7C164.5 143.6 164.5 143.7 164.4 143.7ZM161.4 131.3C161.1 131.3 160.8 131.1 160.7 130.8C160.1 128.7 159.5 126.7 158.8 124.8C158.7 124.4 158.9 124 159.3 123.8C159.7 123.7 160.1 123.9 160.3 124.3C160.9 126.2 161.6 128.3 162.2 130.4C162.3 130.8 162.1 131.2 161.7 131.3C161.6 131.3 161.5 131.3 161.4 131.3Z" fill="white"/>
<path d="M191 224C190.8 224 190.6 223.9 190.4 223.8C190.4 223.8 189.7 223 188.5 221.3C188.3 221 188.3 220.5 188.7 220.3C189 220.1 189.5 220.1 189.7 220.5C190.8 222.1 191.4 222.8 191.5 222.8C191.8 223.1 191.7 223.6 191.4 223.9C191.3 223.9 191.1 224 191 224Z" fill="white"/>
<path d="M100.6 253.3C97.9998 251.5 95.3998 249.7 92.7998 247.9C92.9998 247.6 93.1998 247.4 93.3998 247.1C95.9998 248.9 98.5998 250.7 101.1 252.4C101.6 252.8 101.1 253.7 100.6 253.3Z" fill="#FF3E6C"/>
<path d="M96.0996 256.8C93.9996 254.9 91.7996 253.1 89.5996 251.2C89.7996 251 90.0996 250.8 90.2996 250.5C92.3996 252.4 94.5996 254.2 96.7996 256C97.2996 256.5 96.5996 257.2 96.0996 256.8Z" fill="#FF3E6C"/>
<path d="M137.1 168.1C136.8 168.1 136.5 167.9 136.4 167.6C134.3 162.5 131.9 140.9 131.4 137C130.4 136.9 127.9 136.5 123.4 135.6C123 135.5 122.7 135.1 122.8 134.7C122.9 134.3 123.3 134 123.7 134.1C129.8 135.3 132.1 135.6 132.1 135.6L132.7 135.7L132.8 136.3C132.8 136.6 135.6 161.8 137.7 167.1C137.9 167.5 137.7 167.9 137.3 168.1C137.3 168.1 137.2 168.1 137.1 168.1Z" fill="white"/>
<path d="M111.399 42.9C116.799 43 119.499 38.5 119.399 34.8C119.299 31.3 115.799 29.2 111.899 31.1C110.599 31.7 109.299 32.9 108.099 34.6C108.099 34.6 107.699 36.2 107.699 37.9C107.699 40.2 108.399 42.8 111.399 42.9Z" fill="#8FACFF"/>
<path d="M91.2995 50C95.3995 56 103.9 59.2 110.7 51.7C115.3 46.5 115.699 38.1 110.299 32.2C104.799 26.4 96.0995 25.6 90.8995 30.5C85.6995 35.4 86.7995 43.4 91.2995 50Z" fill="#8FACFF"/>
<path d="M99.7429 43.3789C99.9686 42.8748 99.743 42.2832 99.2389 42.0575C98.7348 41.8317 98.1432 42.0574 97.9175 42.5615C97.6918 43.0655 97.9174 43.6571 98.4215 43.8829C98.9256 44.1086 99.5172 43.8829 99.7429 43.3789Z" fill="#030047"/>
<path d="M96.3993 51C95.0993 49.2 94.0993 47.2 93.2993 45.1C93.0993 44.5 93.9993 44.1 94.1993 44.7C94.8993 46.7 95.8993 48.6 97.0993 50.4C97.5993 51 96.7993 51.6 96.3993 51Z" fill="#030047"/>
<path d="M89.4991 38.9C92.4991 37.8 101.699 29.8 105.199 35.6C106.099 37.1 106.099 38.3 107.799 37.9C109.399 37.2 108.199 34.6 108.199 34.6C109.399 32.9 110.699 31.8 111.999 31.1C115.599 25.3 106.699 18.1 101.699 22.4C101.699 22.4 90.5992 19.7 87.3992 26.6C81.6992 28.9 79.5991 33.3 80.7991 37.4C82.8991 44.4 89.4991 38.9 89.4991 38.9Z" fill="#5F5FFF"/>
<path d="M111.3 38.3C111.2 35.9 112.7 33.8 115 33.1C115.6 32.9 116 33.9 115.4 34C113.6 34.5 112.3 36.2 112.4 38.1C112.3 38.8 111.3 38.9 111.3 38.3Z" fill="#030047"/>
<path d="M115.699 51.6C105.599 55 97.199 61.9 99.399 90.9C101.599 119.9 102.199 127.4 102.199 127.4L167.199 118.2C167.199 118.1 148.199 40.6 115.699 51.6Z" fill="#FF3E6C"/>
<path d="M142.799 90.9C151.599 90.9 160.299 90.8 169.099 90.7C166.599 71.6 150.499 49.8 124.499 47.5V65.9C133.299 66.2 141.499 80.1 142.799 90.9Z" fill="#FF3E6C"/>
<path d="M150.2 26.5L157 8.3C159.8 0.800001 150 -2.9 147.2 4.6L140.5 22.5C143.7 23.7 147 25.1 150.2 26.5Z" fill="#030047"/>
<path d="M53.2991 267C51.9991 266.5 51.3991 265 51.8991 263.8L57.9991 248.3C58.4991 247 59.9991 246.4 61.1991 246.9C62.4991 247.4 63.0991 248.9 62.5991 250.1L56.4991 265.6C55.9991 266.9 54.5991 267.5 53.2991 267Z" fill="#030047"/>
<path d="M81.8996 234.2L157.5 31.6C164.3 13.7 136.4 3 129.6 21L53.9995 223.6C50.5995 232.6 50.0995 255 56.9995 257.7C63.9995 260.3 78.4996 243.2 81.8996 234.2Z" fill="#5F5FFF"/>
<path d="M128 25.5L124.6 34.7C133.8 38.5 143 42.3 152.1 46.2L155.6 36.7C146.5 32.8 137.2 29.1 128 25.5Z" fill="#030047"/>
<path d="M77.6994 241.9C79.5994 239.1 81.0994 236.4 81.8994 234.2L107.199 166.5C97.9994 162.7 88.7994 159 79.3994 155.6L53.9994 223.6C53.3994 225.3 52.7994 227.5 52.3994 229.9C60.7994 234.1 69.1994 238.1 77.6994 241.9Z" fill="#030047"/>
<path d="M123.4 104.6C121.9 93.2 116.3 90.4 110.5 88.3C106.1 86.7 105.8 91 112.6 96.1L112.8 103.6L123.4 104.6Z" fill="#8FACFF"/>
<path d="M141.8 86.5C143.5 92.9 143.3 99 140 101.8C131.7 108.9 116.6 101.5 108.2 95.5C99.7997 89.5 98.9997 96.5 98.9997 96.5C93.4997 97 95.1997 102.8 95.1997 102.8C91.5997 106.9 92.2997 109.2 108.6 121.3C127.4 135.2 162.9 134.1 168.7 101.8C170.3 93.2 168.2 82.9 163.1 73.6C155.9 77.5 148.6 81.6 141.8 86.5Z" fill="#8FACFF"/>
<path d="M102.7 100.1C101.7 99.3 101 98.3 100.6 97C100.4 96.4 99.4995 96.6 99.5995 97.3C99.9995 98.7 100.8 99.9 101.9 100.8C102.5 101.2 103.2 100.5 102.7 100.1Z" fill="white"/>
<path d="M98.9995 106.2C97.7995 105.9 96.8995 105 96.5995 103.8C96.3995 103.2 95.4995 103.4 95.5995 104.1C95.9995 105.6 97.1996 106.8 98.6996 107.2C99.3996 107.3 99.5995 106.3 98.9995 106.2Z" fill="white"/>
<path d="M92.1988 134.2C86.4988 121.9 84.1988 101.5 102.899 80.8C103.599 80.1 104.199 79.4 104.799 78.7C106.599 70.4 108.799 62.3 112.599 54.6C111.999 53.7 111.399 53.3 111.399 53.3C93.5988 61.4 70.3987 74 63.7987 107.3C59.5987 128.1 67.0987 145.3 77.7987 152.3C84.3987 156.6 89.6988 162.3 93.4988 160.8C93.4988 160.8 98.0988 161.5 100.999 156.8C100.999 156.8 105.799 156.7 105.299 152C104.599 147.5 94.3988 139.1 92.1988 134.2Z" fill="#8FACFF"/>
<path d="M92.6984 95.8C94.9984 90.9 98.2984 87.6 102.898 82.6C103.598 81.9 104.498 82.6 105.098 81.8C106.898 73.5 108.698 62.2 112.498 54.6C111.898 53.7 111.298 53.3 111.298 53.3C99.5984 58.6 85.4984 66 75.3984 79.9C80.9984 85.4 86.7984 90.6 92.6984 95.8Z" fill="#FF3E6C"/>
<path d="M88.8984 132.2C100.498 133.5 106.898 136.5 108.498 141.5C110.098 146.5 103.798 144.3 100.698 141.6L94.5984 145.3L88.8984 132.2Z" fill="#8FACFF"/>
<path d="M100.398 156.3C98.3983 152.6 96.0983 149 93.4983 145.6C93.0983 145.1 92.1983 145.6 92.5983 146.1C95.1983 149.5 97.3983 153 99.4983 156.8C99.7983 157.4 100.698 156.9 100.398 156.3Z" fill="white"/>
<path d="M94.4989 159.8C92.6989 155.6 89.9989 152 86.2989 149.3C85.7989 148.9 85.2989 149.8 85.7989 150.2C89.2989 152.7 91.8989 156.1 93.5989 160.1C93.7989 160.6 94.7989 160.4 94.4989 159.8Z" fill="white"/>
<path d="M98.3992 140.5C97.8992 140.3 97.6992 139.9 97.6992 139.4C97.6992 138.8 96.6992 138.8 96.6992 139.4C96.6992 140.2 97.1992 141 97.8992 141.4C98.3992 141.6 98.9992 140.7 98.3992 140.5Z" fill="white"/>
<path d="M98.7985 83.9C98.3985 83.9 98.0985 83.6 98.0985 83.3L97.0985 77.5C96.9985 77.1 97.2985 76.7 97.6985 76.6C98.0985 76.5 98.4985 76.8 98.5985 77.2L99.5985 83C99.6985 83.4 99.3985 83.8 98.9985 83.9C98.8985 83.9 98.8985 83.9 98.7985 83.9Z" fill="#030047"/>
<path d="M45.0991 267.5C44.8991 267.5 44.5992 267.4 44.4992 267.2L26.5991 241.7C26.3991 241.4 26.3992 240.9 26.7992 240.7C27.0992 240.5 27.5992 240.5 27.7992 240.9L45.6992 266.4C45.8992 266.7 45.8992 267.2 45.4992 267.4C45.3992 267.5 45.2991 267.5 45.0991 267.5Z" fill="#5F5FFF"/>
<path d="M37.6992 267.5C37.5992 267.5 37.3992 267.5 37.2992 267.4L24.2992 258.6C23.9992 258.4 23.8992 257.9 24.0992 257.6C24.2992 257.3 24.7992 257.2 25.0992 257.4L38.0992 266.2C38.3992 266.4 38.4992 266.9 38.2992 267.2C38.1992 267.4 37.8992 267.5 37.6992 267.5Z" fill="#5F5FFF"/>
</svg>
