<?xml version="1.0" encoding="iso-8859-1"?>
<!-- Generator: Adobe Illustrator 19.0.0, SVG Export Plug-In . SVG Version: 6.00 Build 0)  -->
<svg version="1.1" id="Capa_1" xmlns="http://www.w3.org/2000/svg" xmlns:xlink="http://www.w3.org/1999/xlink" x="0px" y="0px"
	 viewBox="0 0 512.001 512.001" style="enable-background:new 0 0 512.001 512.001;" xml:space="preserve">
<path style="fill:#E0E0E0;" d="M187.319,185.592c0.723,53.312,27.741,100.266,68.681,128.485
	c40.939-28.219,67.958-75.173,68.681-128.485C303.9,175.593,280.605,169.99,256,169.99
	C231.396,169.989,208.101,175.593,187.319,185.592z"/>
<path style="fill:#8B41F7;" d="M187.291,183.401c0,0.732,0.018,1.46,0.028,2.191c20.782-9.998,44.076-15.602,68.681-15.602
	s47.899,5.603,68.681,15.602c0.01-0.73,0.028-1.458,0.028-2.191c0-54.216-27.209-102.07-68.708-130.676
	C214.5,81.332,187.291,129.185,187.291,183.401z"/>
<path style="fill:#FF6137;" d="M256,314.077c-40.939-28.219-67.958-75.173-68.681-128.485
	c-52.587,25.302-89.06,78.756-89.902,140.819c20.782,9.998,44.076,15.602,68.681,15.602C199.48,342.011,230.447,331.69,256,314.077z
	"/>
<path id="SVGCleanerId_0" style="fill:#39A4FA;" d="M504.512,183.401c0-87.598-71.012-158.61-158.61-158.61
	c-33.382,0-64.349,10.322-89.902,27.935c41.5,28.605,68.708,76.46,68.708,130.676c0,0.732-0.018,1.461-0.028,2.191
	c52.587,25.302,89.06,78.756,89.902,140.819C467.788,300.81,504.512,246.395,504.512,183.401z"/>
<g>
	<path id="SVGCleanerId_0_1_" style="fill:#39A4FA;" d="M504.512,183.401c0-87.598-71.012-158.61-158.61-158.61
		c-33.382,0-64.349,10.322-89.902,27.935c41.5,28.605,68.708,76.46,68.708,130.676c0,0.732-0.018,1.461-0.028,2.191
		c52.587,25.302,89.06,78.756,89.902,140.819C467.788,300.81,504.512,246.395,504.512,183.401z"/>
</g>
<path style="fill:#0091E2;" d="M345.902,24.791c-4.204,0-8.371,0.165-12.493,0.486c81.77,6.359,146.142,74.723,146.142,158.124
	c0,52.954-25.956,99.84-65.833,128.648c0.49,4.731,0.799,9.516,0.865,14.361c53.206-25.599,89.929-80.014,89.929-143.008
	C504.512,95.803,433.5,24.791,345.902,24.791z"/>
<path style="fill:#FFD039;" d="M187.319,185.592c-0.01-0.73-0.028-1.458-0.028-2.191c0-54.216,27.209-102.07,68.708-130.676
	c-25.552-17.614-56.52-27.935-89.902-27.935c-87.597,0-158.609,71.012-158.609,158.61c0,62.994,36.724,117.409,89.929,143.008
	C98.259,264.348,134.732,210.893,187.319,185.592z"/>
<path style="fill:#FF434D;" d="M256,314.077c-25.552,17.614-56.52,27.935-89.902,27.935c-24.605,0-47.899-5.603-68.681-15.602
	c-0.01,0.73-0.028,1.458-0.028,2.19c0,87.598,71.012,158.61,158.61,158.61s158.61-71.012,158.61-158.61
	c0-0.732-0.018-1.46-0.028-2.19c-20.782,9.998-44.076,15.602-68.681,15.602C312.52,342.011,281.553,331.69,256,314.077z"/>
<path style="fill:#DD3646;" d="M414.583,326.409c-8.018,3.857-16.412,7.052-25.109,9.532
	c-3.647,80.035-66.603,144.604-145.954,150.781c4.119,0.321,8.28,0.487,12.481,0.487c87.598,0,158.61-71.012,158.61-158.61
	C414.611,327.867,414.593,327.139,414.583,326.409z"/>
<path style="fill:#00B76C;" d="M324.681,185.592C323.958,238.904,296.94,285.857,256,314.077
	c25.552,17.614,56.52,27.935,89.902,27.935c24.605,0,47.899-5.603,68.681-15.602C413.741,264.348,377.268,210.893,324.681,185.592z"
	/>
<path d="M345.902,17.303c-32.116,0-63.086,9.127-89.902,26.432c-26.816-17.305-57.785-26.432-89.902-26.432
	c-38.495,0-76.018,13.471-105.658,37.932c-3.19,2.632-3.641,7.352-1.009,10.542c2.632,3.191,7.352,3.641,10.543,1.009
	c26.962-22.251,61.1-34.506,96.124-34.506c27.213,0,53.52,7.195,76.708,20.896c-0.739,0.586-1.462,1.188-2.19,1.786
	c-0.403,0.33-0.813,0.655-1.213,0.988c-1.173,0.98-2.33,1.977-3.473,2.987c-0.072,0.064-0.147,0.125-0.219,0.189
	c-1.219,1.081-2.418,2.181-3.601,3.294c-0.34,0.32-0.671,0.65-1.008,0.973c-0.83,0.794-1.657,1.59-2.469,2.399
	c-0.427,0.426-0.844,0.862-1.266,1.292c-0.707,0.721-1.413,1.443-2.106,2.175c-0.45,0.476-0.892,0.961-1.336,1.442
	c-0.648,0.701-1.293,1.404-1.928,2.115c-0.453,0.507-0.899,1.02-1.345,1.534c-0.611,0.702-1.217,1.406-1.816,2.117
	c-0.444,0.528-0.883,1.059-1.32,1.592c-0.583,0.711-1.16,1.426-1.73,2.145c-0.431,0.543-0.859,1.088-1.283,1.636
	c-0.561,0.726-1.114,1.458-1.662,2.193c-0.411,0.551-0.823,1.102-1.227,1.658c-0.547,0.752-1.083,1.51-1.617,2.27
	c-0.386,0.55-0.775,1.099-1.155,1.653c-0.542,0.793-1.071,1.594-1.6,2.394c-0.351,0.533-0.708,1.062-1.052,1.6
	c-0.561,0.873-1.105,1.754-1.649,2.637c-0.294,0.477-0.595,0.949-0.885,1.428c-0.694,1.151-1.369,2.313-2.035,3.482
	c-0.124,0.218-0.256,0.432-0.378,0.651c-0.782,1.386-1.542,2.783-2.283,4.19c-0.235,0.446-0.456,0.899-0.688,1.346
	c-0.499,0.968-0.997,1.937-1.478,2.914c-0.278,0.566-0.543,1.139-0.815,1.708c-0.414,0.87-0.83,1.74-1.229,2.617
	c-0.281,0.616-0.55,1.237-0.823,1.856c-0.37,0.841-0.74,1.682-1.097,2.529c-0.272,0.645-0.534,1.293-0.798,1.941
	c-0.338,0.833-0.673,1.666-0.998,2.504c-0.258,0.663-0.508,1.329-0.757,1.996c-0.311,0.833-0.615,1.667-0.913,2.506
	c-0.24,0.674-0.475,1.35-0.706,2.027c-0.288,0.845-0.566,1.692-0.84,2.542c-0.218,0.676-0.435,1.353-0.645,2.032
	c-0.267,0.864-0.521,1.731-0.774,2.6c-0.195,0.672-0.392,1.342-0.579,2.017c-0.248,0.896-0.481,1.796-0.714,2.697
	c-0.169,0.653-0.343,1.305-0.505,1.961c-0.239,0.968-0.458,1.943-0.679,2.916c-0.134,0.592-0.278,1.181-0.405,1.775
	c-0.263,1.221-0.504,2.449-0.74,3.677c-0.068,0.352-0.145,0.702-0.21,1.055c-0.291,1.573-0.558,3.15-0.804,4.734
	c-0.081,0.523-0.147,1.05-0.224,1.575c-0.156,1.074-0.313,2.149-0.447,3.228c-0.081,0.642-0.146,1.287-0.219,1.93
	c-0.11,0.967-0.22,1.934-0.313,2.904c-0.066,0.689-0.119,1.38-0.177,2.071c-0.077,0.931-0.153,1.86-0.215,2.794
	c-0.047,0.712-0.084,1.426-0.122,2.14c-0.049,0.919-0.094,1.837-0.127,2.758c-0.026,0.722-0.045,1.445-0.062,2.168
	c-0.011,0.484-0.035,0.967-0.042,1.451c-25.598,13.23-47.359,32.916-63.135,57.167C101.79,261.027,92.848,287.147,90.52,314.3
	c-20.874-12.069-38.611-28.981-51.72-49.416c-15.584-24.297-23.823-52.474-23.823-81.483c0-34.823,12.129-68.808,34.153-95.694
	c2.621-3.2,2.152-7.918-1.047-10.539c-3.199-2.622-7.918-2.151-10.538,1.047C13.333,107.773,0,145.128,0,183.401
	c0,31.882,9.059,62.855,26.198,89.571c15.826,24.671,37.799,44.654,63.735,58.056C91.238,421.498,165.226,494.698,256,494.698
	c90.774,0,164.761-73.197,166.068-163.665c32.12-16.611,58.228-43.503,73.823-76.189c1.781-3.732,0.199-8.202-3.534-9.982
	c-3.735-1.784-8.202-0.2-9.983,3.534c-13.163,27.585-34.547,50.642-60.899,65.901c-2.326-27.154-11.268-53.269-26.162-76.164
	c-15.775-24.251-37.536-43.937-63.135-57.167c-0.007-0.484-0.03-0.966-0.042-1.451c-0.017-0.723-0.036-1.446-0.062-2.168
	c-0.034-0.921-0.079-1.839-0.127-2.759c-0.038-0.714-0.075-1.427-0.122-2.14c-0.062-0.933-0.138-1.863-0.215-2.794
	c-0.057-0.691-0.11-1.382-0.176-2.071c-0.093-0.97-0.203-1.938-0.313-2.905c-0.073-0.643-0.139-1.288-0.219-1.929
	c-0.136-1.084-0.293-2.164-0.449-3.243c-0.075-0.519-0.141-1.04-0.221-1.558c-0.246-1.586-0.513-3.165-0.805-4.739
	c-0.063-0.34-0.138-0.677-0.203-1.016c-0.238-1.241-0.481-2.481-0.747-3.715c-0.127-0.587-0.268-1.17-0.4-1.755
	c-0.223-0.981-0.444-1.964-0.685-2.94c-0.16-0.648-0.331-1.292-0.499-1.937c-0.235-0.909-0.47-1.816-0.72-2.719
	c-0.185-0.669-0.381-1.334-0.574-2c-0.254-0.875-0.51-1.748-0.779-2.618c-0.208-0.673-0.422-1.343-0.639-2.013
	c-0.277-0.858-0.557-1.712-0.848-2.565c-0.228-0.67-0.461-1.338-0.697-2.004c-0.301-0.847-0.608-1.691-0.923-2.533
	c-0.246-0.658-0.493-1.315-0.747-1.97c-0.329-0.85-0.668-1.694-1.011-2.538c-0.259-0.636-0.516-1.273-0.783-1.906
	c-0.363-0.863-0.739-1.719-1.116-2.575c-0.267-0.604-0.529-1.21-0.804-1.811c-0.409-0.898-0.834-1.788-1.258-2.679
	c-0.262-0.549-0.517-1.101-0.786-1.647c-0.497-1.012-1.012-2.016-1.53-3.018c-0.214-0.413-0.418-0.832-0.635-1.243
	c-0.746-1.416-1.511-2.821-2.296-4.214c-0.082-0.146-0.17-0.289-0.253-0.434c-0.705-1.24-1.424-2.474-2.161-3.696
	c-0.272-0.451-0.556-0.896-0.833-1.344c-0.561-0.912-1.124-1.822-1.703-2.724c-0.33-0.515-0.673-1.022-1.009-1.535
	c-0.543-0.825-1.087-1.648-1.645-2.463c-0.366-0.535-0.742-1.065-1.115-1.597c-0.547-0.78-1.097-1.559-1.658-2.329
	c-0.392-0.539-0.791-1.073-1.19-1.607c-0.562-0.753-1.128-1.502-1.703-2.246c-0.412-0.533-0.828-1.062-1.247-1.591
	c-0.583-0.736-1.173-1.467-1.769-2.193c-0.425-0.518-0.852-1.035-1.284-1.549c-0.611-0.727-1.232-1.447-1.856-2.164
	c-0.433-0.498-0.867-0.996-1.307-1.491c-0.649-0.728-1.309-1.446-1.971-2.162c-0.431-0.466-0.859-0.936-1.296-1.398
	c-0.709-0.75-1.432-1.488-2.156-2.226c-0.406-0.414-0.808-0.834-1.219-1.244c-0.832-0.83-1.679-1.645-2.53-2.458
	c-0.319-0.305-0.63-0.616-0.951-0.918c-1.187-1.117-2.389-2.22-3.611-3.304c-0.044-0.039-0.09-0.076-0.134-0.116
	c-1.169-1.034-2.354-2.054-3.554-3.058c-0.395-0.331-0.802-0.652-1.2-0.979c-0.731-0.6-1.457-1.205-2.2-1.793
	c23.188-13.702,49.495-20.896,76.708-20.896c83.328,0,151.122,67.792,151.122,151.121c0,12.313-1.484,24.557-4.408,36.391
	c-0.992,4.015,1.458,8.074,5.472,9.067c4.018,0.991,8.074-1.458,9.067-5.472c3.216-13.01,4.846-26.463,4.846-39.986
	C512,91.814,437.489,17.303,345.902,17.303z M263.675,68.029c0.801,0.678,1.6,1.359,2.385,2.052
	c0.405,0.358,0.803,0.724,1.204,1.086c0.688,0.621,1.375,1.243,2.051,1.876c0.423,0.396,0.84,0.799,1.258,1.199
	c0.641,0.614,1.28,1.231,1.909,1.855c0.42,0.417,0.836,0.838,1.25,1.259c0.616,0.625,1.226,1.255,1.83,1.89
	c0.406,0.427,0.81,0.856,1.211,1.288c0.602,0.648,1.197,1.303,1.787,1.961c0.383,0.427,0.767,0.855,1.145,1.286
	c0.603,0.688,1.196,1.385,1.787,2.083c0.346,0.41,0.697,0.819,1.039,1.232c0.635,0.768,1.257,1.546,1.876,2.325
	c0.282,0.354,0.569,0.705,0.847,1.062c0.784,1.005,1.552,2.021,2.309,3.044c0.102,0.138,0.208,0.273,0.31,0.41
	c0.873,1.188,1.728,2.389,2.565,3.601c0.13,0.188,0.254,0.379,0.382,0.568c0.687,1.004,1.366,2.015,2.028,3.035
	c0.243,0.374,0.477,0.754,0.717,1.13c0.537,0.844,1.07,1.689,1.591,2.544c0.268,0.44,0.528,0.885,0.792,1.327
	c0.477,0.803,0.951,1.607,1.414,2.418c0.269,0.471,0.532,0.946,0.796,1.419c0.442,0.796,0.88,1.595,1.307,2.398
	c0.259,0.485,0.514,0.972,0.768,1.461c0.419,0.809,0.831,1.62,1.235,2.436c0.241,0.485,0.481,0.97,0.718,1.459
	c0.406,0.843,0.802,1.69,1.193,2.54c0.215,0.465,0.431,0.93,0.641,1.397c0.408,0.912,0.803,1.83,1.193,2.75
	c0.175,0.412,0.355,0.823,0.527,1.236c0.459,1.109,0.902,2.227,1.334,3.348c0.088,0.227,0.182,0.452,0.269,0.68
	c0.524,1.376,1.028,2.761,1.513,4.153c0.049,0.141,0.093,0.283,0.142,0.423c0.421,1.225,0.83,2.455,1.22,3.691
	c0.133,0.422,0.257,0.848,0.385,1.271c0.295,0.961,0.585,1.923,0.86,2.891c0.145,0.509,0.281,1.021,0.42,1.532
	c0.243,0.889,0.481,1.779,0.708,2.673c0.14,0.55,0.272,1.102,0.405,1.653c0.209,0.865,0.412,1.73,0.605,2.6
	c0.127,0.569,0.25,1.14,0.37,1.711c0.182,0.862,0.354,1.725,0.521,2.591c0.111,0.576,0.221,1.152,0.325,1.73
	c0.158,0.876,0.305,1.753,0.447,2.632c0.092,0.568,0.187,1.136,0.273,1.705c0.138,0.917,0.261,1.837,0.382,2.758
	c0.07,0.533,0.146,1.064,0.211,1.6c0.125,1.038,0.233,2.082,0.336,3.124c0.042,0.417,0.092,0.833,0.13,1.251
	c0.132,1.447,0.244,2.896,0.334,4.351c-0.356-0.141-0.716-0.272-1.073-0.41c-0.51-0.198-1.021-0.393-1.534-0.586
	c-0.873-0.328-1.748-0.647-2.626-0.961c-0.486-0.174-0.97-0.349-1.458-0.518c-1.012-0.35-2.028-0.687-3.045-1.017
	c-0.346-0.113-0.691-0.232-1.038-0.341c-1.365-0.433-2.735-0.849-4.109-1.245c-0.307-0.088-0.615-0.169-0.922-0.255
	c-1.072-0.303-2.147-0.598-3.225-0.879c-0.482-0.126-0.967-0.244-1.451-0.364c-0.916-0.23-1.832-0.453-2.751-0.666
	c-0.521-0.121-1.043-0.239-1.567-0.354c-0.908-0.202-1.818-0.393-2.73-0.58c-0.508-0.104-1.015-0.209-1.525-0.308
	c-1.005-0.195-2.014-0.376-3.023-0.553c-0.406-0.071-0.812-0.148-1.219-0.216c-1.417-0.237-2.837-0.457-4.261-0.656
	c-0.195-0.027-0.39-0.049-0.585-0.076c-1.228-0.167-2.458-0.322-3.692-0.462c-0.481-0.055-0.964-0.101-1.445-0.152
	c-0.96-0.101-1.921-0.196-2.885-0.28c-0.538-0.047-1.077-0.09-1.617-0.131c-0.928-0.072-1.857-0.136-2.788-0.193
	c-0.537-0.033-1.073-0.066-1.612-0.093c-0.992-0.051-1.988-0.089-2.983-0.123c-0.463-0.016-0.927-0.036-1.391-0.048
	c-1.455-0.037-2.912-0.06-4.375-0.06c-1.462,0-2.919,0.023-4.375,0.06c-0.464,0.012-0.927,0.033-1.391,0.048
	c-0.995,0.034-1.991,0.072-2.983,0.123c-0.538,0.028-1.074,0.061-1.611,0.093c-0.931,0.057-1.86,0.121-2.788,0.193
	c-0.539,0.042-1.078,0.084-1.616,0.131c-0.963,0.084-1.925,0.18-2.885,0.281c-0.481,0.05-0.963,0.097-1.443,0.151
	c-1.236,0.141-2.469,0.296-3.7,0.463c-0.192,0.026-0.385,0.047-0.578,0.074c-1.426,0.2-2.847,0.42-4.263,0.657
	c-0.405,0.068-0.809,0.144-1.213,0.215c-1.011,0.177-2.022,0.359-3.029,0.554c-0.507,0.099-1.013,0.203-1.52,0.307
	c-0.914,0.187-1.826,0.379-2.737,0.581c-0.52,0.116-1.04,0.233-1.56,0.353c-0.923,0.214-1.842,0.438-2.761,0.669
	c-0.481,0.121-0.963,0.238-1.442,0.362c-1.085,0.283-2.167,0.579-3.245,0.884c-0.3,0.085-0.601,0.163-0.901,0.25
	c-1.377,0.397-2.749,0.813-4.116,1.247c-0.341,0.108-0.68,0.225-1.02,0.335c-1.023,0.332-2.046,0.671-3.064,1.023
	c-0.483,0.168-0.964,0.341-1.447,0.514c-0.881,0.315-1.76,0.635-2.637,0.965c-0.509,0.192-1.018,0.386-1.527,0.583
	c-0.358,0.139-0.719,0.27-1.077,0.411c0.09-1.454,0.203-2.904,0.334-4.35c0.038-0.419,0.089-0.836,0.13-1.254
	c0.104-1.041,0.211-2.083,0.335-3.12c0.065-0.535,0.141-1.068,0.211-1.602c0.121-0.92,0.244-1.838,0.381-2.754
	c0.086-0.571,0.181-1.14,0.273-1.709c0.143-0.878,0.289-1.754,0.446-2.628c0.105-0.579,0.215-1.157,0.326-1.734
	c0.166-0.864,0.338-1.725,0.52-2.584c0.121-0.573,0.245-1.146,0.371-1.718c0.193-0.867,0.395-1.73,0.603-2.592
	c0.134-0.554,0.268-1.109,0.407-1.661c0.226-0.891,0.463-1.776,0.705-2.662c0.141-0.515,0.278-1.03,0.423-1.544
	c0.274-0.963,0.563-1.919,0.855-2.875c0.131-0.428,0.256-0.86,0.39-1.287c0.387-1.228,0.794-2.45,1.212-3.667
	c0.051-0.149,0.098-0.299,0.149-0.447c0.483-1.391,0.987-2.773,1.511-4.148c0.089-0.235,0.186-0.466,0.277-0.7
	c0.43-1.114,0.87-2.225,1.326-3.328c0.173-0.417,0.354-0.83,0.531-1.245c0.389-0.917,0.782-1.832,1.189-2.741
	c0.211-0.47,0.428-0.937,0.644-1.404c0.39-0.848,0.785-1.693,1.191-2.534c0.236-0.489,0.477-0.974,0.718-1.461
	c0.404-0.816,0.815-1.627,1.234-2.435c0.254-0.488,0.509-0.975,0.768-1.461c0.428-0.804,0.865-1.604,1.308-2.399
	c0.264-0.473,0.526-0.947,0.795-1.417c0.463-0.814,0.939-1.62,1.418-2.425c0.262-0.44,0.521-0.882,0.788-1.319
	c0.522-0.858,1.058-1.708,1.599-2.555c0.238-0.372,0.469-0.749,0.71-1.119c0.667-1.027,1.349-2.045,2.041-3.055
	c0.125-0.182,0.244-0.367,0.368-0.548c0.839-1.214,1.694-2.417,2.569-3.607c0.092-0.126,0.189-0.248,0.281-0.372
	c0.767-1.037,1.546-2.066,2.339-3.084c0.272-0.348,0.552-0.69,0.827-1.036c0.626-0.789,1.255-1.576,1.898-2.351
	c0.336-0.406,0.68-0.808,1.02-1.211c0.597-0.706,1.197-1.411,1.807-2.107c0.372-0.424,0.75-0.845,1.127-1.266
	c0.596-0.665,1.197-1.326,1.806-1.982c0.395-0.426,0.795-0.85,1.195-1.271c0.61-0.642,1.226-1.277,1.848-1.909
	c0.409-0.415,0.819-0.83,1.232-1.24c0.637-0.632,1.283-1.256,1.932-1.878c0.411-0.393,0.82-0.789,1.236-1.178
	c0.684-0.64,1.38-1.27,2.077-1.899c0.394-0.354,0.783-0.714,1.181-1.065c0.796-0.703,1.604-1.392,2.417-2.079
	c0.311-0.263,0.615-0.531,0.928-0.792c1.132-0.943,2.279-1.871,3.443-2.784c0.171-0.134,0.345-0.262,0.517-0.394
	c0.912-0.708,1.831-1.407,2.761-2.097c0.914,0.677,1.817,1.364,2.713,2.06c0.189,0.146,0.381,0.287,0.569,0.433
	c1.16,0.911,2.304,1.837,3.435,2.778C263.04,67.478,263.354,67.757,263.675,68.029z M129.241,246.299
	c13.05-20.062,30.605-36.676,51.183-48.578c1.455,17.097,5.518,33.726,12.13,49.577c1.592,3.817,5.975,5.619,9.794,4.029
	c3.817-1.592,5.62-5.977,4.029-9.794c-6.796-16.297-10.633-33.501-11.427-51.209c0.781-0.345,1.566-0.68,2.35-1.012
	c0.38-0.161,0.758-0.329,1.138-0.487c1.262-0.521,2.529-1.027,3.801-1.513c0.105-0.04,0.211-0.076,0.316-0.116
	c1.166-0.442,2.336-0.872,3.511-1.284c0.44-0.155,0.883-0.297,1.324-0.447c0.843-0.288,1.686-0.574,2.533-0.847
	c0.519-0.167,1.042-0.322,1.564-0.482c0.773-0.239,1.547-0.478,2.322-0.704c0.556-0.162,1.114-0.314,1.672-0.468
	c0.748-0.208,1.496-0.415,2.247-0.612c0.575-0.15,1.152-0.293,1.729-0.435c0.739-0.184,1.478-0.365,2.22-0.537
	c0.587-0.137,1.175-0.267,1.764-0.395c0.737-0.162,1.475-0.32,2.215-0.47c0.593-0.121,1.188-0.237,1.783-0.35
	c0.741-0.142,1.483-0.277,2.226-0.407c0.597-0.105,1.195-0.207,1.794-0.305c0.748-0.122,1.498-0.236,2.248-0.346
	c0.596-0.088,1.192-0.175,1.79-0.256c0.762-0.103,1.526-0.196,2.29-0.287c0.589-0.071,1.178-0.143,1.768-0.206
	c0.785-0.084,1.572-0.157,2.358-0.229c0.574-0.052,1.148-0.109,1.724-0.155c0.823-0.066,1.648-0.118,2.474-0.171
	c0.542-0.035,1.083-0.075,1.626-0.104c0.915-0.049,1.832-0.081,2.751-0.114c0.457-0.016,0.914-0.04,1.372-0.052
	c1.377-0.036,2.757-0.057,4.141-0.057c1.384,0,2.764,0.02,4.141,0.057c0.46,0.012,0.918,0.037,1.377,0.053
	c0.917,0.033,1.832,0.065,2.746,0.113c0.544,0.029,1.085,0.07,1.628,0.104c0.826,0.053,1.65,0.105,2.473,0.171
	c0.577,0.046,1.153,0.103,1.729,0.156c0.784,0.072,1.568,0.144,2.348,0.228c0.595,0.064,1.187,0.136,1.78,0.208
	c0.76,0.091,1.52,0.183,2.277,0.286c0.602,0.081,1.203,0.17,1.804,0.258c0.745,0.11,1.489,0.223,2.231,0.343
	c0.606,0.099,1.21,0.202,1.814,0.308c0.735,0.129,1.469,0.263,2.202,0.402c0.603,0.115,1.205,0.233,1.807,0.355
	c0.731,0.149,1.46,0.305,2.188,0.464c0.598,0.132,1.196,0.264,1.793,0.401c0.73,0.17,1.459,0.348,2.186,0.529
	c0.587,0.146,1.174,0.291,1.759,0.443c0.739,0.193,1.475,0.397,2.212,0.602c0.57,0.158,1.14,0.314,1.708,0.478
	c0.759,0.221,1.515,0.454,2.269,0.688c0.539,0.166,1.079,0.326,1.616,0.499c0.822,0.264,1.638,0.543,2.456,0.821
	c0.466,0.159,0.935,0.31,1.4,0.472c1.121,0.394,2.238,0.805,3.353,1.226c0.157,0.059,0.316,0.114,0.472,0.174
	c1.268,0.484,2.53,0.987,3.788,1.508c0.402,0.167,0.802,0.344,1.203,0.514c0.765,0.324,1.53,0.65,2.29,0.986
	c-2.072,45.305-24.565,87.494-61.051,114.551c-13.493-9.995-25.149-22.069-34.694-35.947c-2.344-3.409-7.005-4.269-10.414-1.927
	c-3.408,2.344-4.27,7.006-1.927,10.414c9.462,13.759,20.814,25.899,33.83,36.206c-23.185,13.699-49.485,20.905-76.697,20.905
	c-21.296,0-41.806-4.322-61.043-12.841C106.273,294.799,114.584,268.83,129.241,246.299z M256,479.722
	c-80.18,0-145.978-62.77-150.834-141.75c19.348,7.655,39.792,11.528,60.933,11.528c32.116,0,63.088-9.121,89.902-26.423
	c26.814,17.302,57.786,26.423,89.902,26.423c21.141,0,41.585-3.873,60.933-11.528C401.978,416.951,336.181,479.722,256,479.722z
	 M382.759,246.299c14.657,22.531,22.968,48.5,24.185,75.384c-19.237,8.519-39.746,12.841-61.043,12.841
	c-27.218,0-53.522-7.209-76.711-20.913c35.815-28.41,58.421-70.456,62.359-115.906C352.139,209.608,369.704,226.228,382.759,246.299
	z"/>
<g>
</g>
<g>
</g>
<g>
</g>
<g>
</g>
<g>
</g>
<g>
</g>
<g>
</g>
<g>
</g>
<g>
</g>
<g>
</g>
<g>
</g>
<g>
</g>
<g>
</g>
<g>
</g>
<g>
</g>
</svg>
