<?xml version="1.0" encoding="iso-8859-1"?>
<!-- Generator: Adobe Illustrator 19.0.0, SVG Export Plug-In . SVG Version: 6.00 Build 0)  -->
<svg version="1.1" id="Capa_1" xmlns="http://www.w3.org/2000/svg" xmlns:xlink="http://www.w3.org/1999/xlink" x="0px" y="0px"
	 viewBox="0 0 512 512" style="enable-background:new 0 0 512 512;" xml:space="preserve">
<rect x="122.378" y="108.48" style="fill:#E0E0E0;" width="68.606" height="28.004"/>
<polygon style="fill:#FFAE47;" points="183.5,136.485 129.865,136.485 122.381,183.632 190.984,183.632 "/>
<path style="fill:#FF6137;" d="M175.789,108.477h-38.213c-9.164-6.158-15.195-16.618-15.195-28.49c0-18.945,34.302-72.5,34.302-72.5
	s34.3,53.556,34.3,72.5C190.984,91.859,184.953,102.319,175.789,108.477z"/>
<rect x="166.025" y="108.48" style="fill:#C6C5CA;" width="24.959" height="28.004"/>
<polygon style="fill:#E29440;" points="183.5,136.485 158.542,136.485 166.025,183.632 190.984,183.632 "/>
<path style="fill:#E04F32;" d="M156.683,7.488c0,0-5.716,8.924-12.479,20.773c9.808,17.182,21.822,40.516,21.822,51.727
	c0,11.871-6.031,22.332-15.195,28.49h24.959c9.164-6.158,15.195-16.618,15.195-28.49C190.984,61.044,156.683,7.488,156.683,7.488z"
	/>
<rect x="223.62" y="7.488" style="fill:#FFD039;" width="76.851" height="176.148"/>
<path style="fill:#FFC89F;" d="M461.489,183.678H89.815c-11.407,29.477-32.763,81.132-43.66,107.346
	c-3.216,7.736,2.472,16.248,10.85,16.248h29.748c0,0,13.073,69.85,22.5,94.737c15.667,41.361,78.058,26.159,78.058,26.159
	l13.533,76.344h204.03l-18.948-122.635C439.371,304.416,461.262,238.033,461.489,183.678z"/>
<path style="fill:#F7B081;" d="M461.489,183.678h-24.959c-0.228,54.355-22.118,120.738-75.565,198.199l18.948,122.635h24.959
	l-18.948-122.635C439.371,304.416,461.262,238.033,461.489,183.678z"/>
<path style="fill:#FFA304;" d="M218.693,270.735l18.221,8.166c7.546,3.382,13.584,9.42,16.967,16.967l8.166,18.221l8.166-18.221
	c3.382-7.546,9.42-13.584,16.967-16.967l18.221-8.166l-18.221-8.166c-7.546-3.382-13.584-9.42-16.967-16.967l-8.166-18.221
	l-8.166,18.221c-3.381,7.546-9.42,13.584-16.967,16.967L218.693,270.735z"/>
<g>
	<path style="fill:#FFD039;" d="M8.181,80.482l18.221,8.166c7.545,3.382,13.584,9.42,16.967,16.967l8.166,18.221l8.166-18.221
		c3.382-7.546,9.42-13.584,16.967-16.967l18.221-8.166l-18.221-8.166c-7.546-3.382-13.584-9.42-16.967-16.967l-8.166-18.221
		l-8.166,18.221c-3.382,7.545-9.42,13.584-16.967,16.967L8.181,80.482z"/>
	<path style="fill:#FFD039;" d="M426.397,47.984l16.27,7.292c6.738,3.02,12.13,8.412,15.15,15.15l7.292,16.27l7.292-16.27
		c3.02-6.738,8.412-12.13,15.15-15.15l16.27-7.292l-16.27-7.292c-6.738-3.02-12.13-8.412-15.15-15.15l-7.292-16.269l-7.292,16.27
		c-3.02,6.738-8.412,12.13-15.15,15.15L426.397,47.984z"/>
</g>
<polygon style="fill:#FFC89F;" points="369.067,8.66 407.941,85.413 330.191,85.413 "/>
<rect x="330.153" y="85.488" style="fill:#FFD039;" width="77.831" height="98.137"/>
<polygon style="fill:#FFA304;" points="275.514,7.488 275.514,183.632 223.621,183.632 223.621,183.632 300.472,183.632 
	300.472,7.488 "/>
<polygon style="fill:#F7B081;" points="369.067,8.66 356.587,33.299 382.982,85.413 407.941,85.413 "/>
<rect x="383.025" y="85.488" style="fill:#FFA304;" width="24.959" height="98.137"/>
<polygon style="fill:#3C5156;" points="369.067,8.66 387.208,44.478 350.925,44.478 "/>
<path d="M290.242,255.737c-5.876-2.635-10.563-7.321-13.196-13.197l-8.166-18.221c-1.207-2.693-3.883-4.426-6.833-4.426
	c-2.951,0-5.626,1.732-6.833,4.426l-8.166,18.221c-2.634,5.876-7.32,10.562-13.196,13.197l-18.222,8.166
	c-2.693,1.206-4.426,3.883-4.426,6.833c0,2.95,1.733,5.627,4.426,6.833l18.222,8.166c5.876,2.635,10.562,7.321,13.196,13.197
	l8.166,18.221c1.207,2.693,3.883,4.426,6.833,4.426c2.951,0,5.626-1.732,6.833-4.426l8.166-18.221
	c2.634-5.876,7.32-10.562,13.196-13.197l18.221-8.166c2.693-1.206,4.426-3.883,4.426-6.833c0-2.95-1.733-5.627-4.426-6.833
	L290.242,255.737z M284.117,272.07c-9.235,4.138-16.598,11.503-20.738,20.737l-1.333,2.975l-1.333-2.975
	c-4.139-9.234-11.503-16.598-20.738-20.737l-2.975-1.334l2.975-1.334c9.234-4.139,16.598-11.503,20.738-20.737l1.333-2.975
	l1.333,2.975c4.139,9.234,11.503,16.598,20.738,20.737l2.975,1.334L284.117,272.07z"/>
<path d="M51.534,131.323c2.95,0,5.626-1.732,6.833-4.426l8.167-18.221c2.634-5.876,7.319-10.562,13.196-13.197l18.222-8.166
	c2.693-1.206,4.426-3.883,4.426-6.833s-1.733-5.627-4.426-6.833L79.73,65.481c-5.876-2.635-10.562-7.321-13.196-13.197
	l-8.166-18.221c-1.206-2.693-3.882-4.426-6.833-4.426s-5.626,1.732-6.833,4.426l-8.166,18.221
	c-2.634,5.876-7.32,10.563-13.196,13.197L5.119,73.648c-2.693,1.206-4.426,3.883-4.426,6.833s1.733,5.627,4.426,6.833L23.34,95.48
	c5.876,2.634,10.562,7.321,13.196,13.197l8.166,18.221C45.908,129.591,48.584,131.323,51.534,131.323z M29.464,81.815l-2.975-1.334
	l2.975-1.334c9.234-4.139,16.598-11.502,20.738-20.737l1.333-2.975l1.334,2.975c4.138,9.234,11.502,16.598,20.737,20.737
	l2.975,1.334l-2.975,1.334c-9.235,4.139-16.598,11.503-20.737,20.737l-1.334,2.975l-1.333-2.975
	C46.062,93.318,38.697,85.954,29.464,81.815z"/>
<path d="M506.883,41.153l-16.269-7.292c-5.068-2.271-9.11-6.313-11.38-11.38l-7.292-16.27c-1.207-2.693-3.883-4.426-6.833-4.426
	c-2.95,0-5.626,1.732-6.833,4.426l-7.292,16.27c-2.271,5.067-6.313,9.108-11.379,11.38l-16.27,7.292
	c-2.693,1.206-4.426,3.883-4.426,6.833c0,2.95,1.733,5.627,4.426,6.833l16.269,7.292c5.068,2.271,9.109,6.313,11.379,11.379
	l7.292,16.27c1.207,2.693,3.883,4.426,6.833,4.426c2.95,0,5.626-1.732,6.833-4.426l7.292-16.27
	c2.271-5.067,6.313-9.108,11.379-11.379l16.269-7.292c2.693-1.206,4.426-3.883,4.426-6.833
	C511.307,45.035,509.575,42.359,506.883,41.153z M484.488,48.444c-8.425,3.776-15.144,10.496-18.921,18.92l-0.459,1.024
	l-0.459-1.024c-3.776-8.424-10.495-15.143-18.921-18.92l-1.023-0.459l1.024-0.459c8.425-3.777,15.144-10.496,18.92-18.92
	l0.459-1.024l0.459,1.024c3.776,8.425,10.496,15.144,18.921,18.92l1.023,0.459L484.488,48.444z"/>
<path d="M461.489,176.191h-46.021v-90.7c0-1.222-0.299-2.371-0.818-3.39c-0.012-0.024-0.019-0.049-0.031-0.072l-20.733-40.934
	v-0.001L375.746,5.276c-1.275-2.517-3.858-4.104-6.68-4.104s-5.405,1.587-6.68,4.104l-18.142,35.819
	c-0.001,0.002-0.002,0.005-0.003,0.007l-20.73,40.928c-0.012,0.023-0.019,0.048-0.031,0.072c-0.519,1.018-0.818,2.168-0.818,3.39
	v39.47c0,4.136,3.352,7.488,7.488,7.488c4.135,0,7.488-3.351,7.488-7.488V92.98h62.856v83.165h-62.856v-21.233
	c0-4.136-3.352-7.488-7.488-7.488c-4.135,0-7.488,3.351-7.488,7.488v21.279H307.96V7.488c0-4.136-3.352-7.488-7.488-7.488h-76.851
	c-4.135,0-7.488,3.351-7.488,7.488v32.283c0,4.136,3.352,7.488,7.488,7.488c4.135,0,7.488-3.351,7.488-7.488V14.975h61.875v32.283
	h-16.119c-4.135,0-7.488,3.351-7.488,7.488s3.352,7.488,7.488,7.488h16.119v18.363h-25.662c-4.135,0-7.488,3.351-7.488,7.488
	c0,4.136,3.352,7.488,7.488,7.488h25.662v18.364h-16.119c-4.135,0-7.488,3.351-7.488,7.488c0,4.136,3.352,7.488,7.488,7.488h16.119
	v18.364h-25.662c-4.135,0-7.488,3.351-7.488,7.488c0,4.136,3.352,7.488,7.488,7.488h25.662v13.896h-61.875V69.72
	c0-4.136-3.352-7.488-7.488-7.488c-4.135,0-7.488,3.351-7.488,7.488v106.47h-18.75l-5.132-32.334c3.53-0.603,6.22-3.67,6.22-7.373
	v-28.008c0-3.551-2.474-6.517-5.79-7.287c3.731-6.332,5.79-13.619,5.79-21.203c0-3.399,0-13.746-18.062-46.933
	c-8.604-15.81-17.066-29.05-17.422-29.605C161.612,1.3,159.234,0,156.683,0c-2.553,0-4.929,1.3-6.305,3.449
	c-0.356,0.556-8.818,13.795-17.422,29.605c-18.062,33.187-18.062,43.533-18.062,46.933c0,7.583,2.06,14.871,5.79,21.203
	c-3.316,0.77-5.79,3.736-5.79,7.287v28.008c0,3.703,2.69,6.769,6.221,7.373l-5.132,32.334H89.815c-3.093,0-5.867,1.901-6.983,4.785
	c-11.257,29.094-32.143,79.636-43.59,107.174c-2.473,5.946-1.815,12.695,1.759,18.051c3.576,5.359,9.559,8.559,16.004,8.559h23.556
	c3.441,17.747,13.692,68.788,21.69,89.901c7.507,19.819,25.254,31.369,51.324,33.403c10.914,0.851,21.052-0.151,27.682-1.153
	l12.214,68.908c0.634,3.576,3.742,6.181,7.373,6.181h204.03c2.185,0,4.262-0.954,5.685-2.614c1.423-1.659,2.049-3.857,1.715-6.017
	l-18.495-119.701c11.168-16.341,21.23-32.631,29.931-48.462c1.993-3.624,0.669-8.176-2.954-10.169
	c-3.624-1.992-8.176-0.67-10.168,2.954c-8.896,16.183-19.267,32.882-30.826,49.633c-1.086,1.574-1.528,3.506-1.237,5.396
	l17.614,114.003H207.12l-12.436-70.163c-0.36-2.037-1.548-3.834-3.281-4.965c-1.733-1.13-3.857-1.494-5.864-1.004
	c-0.56,0.138-56.113,13.233-69.283-21.535c-9.084-23.981-22.013-92.77-22.142-93.462c-0.664-3.542-3.756-6.11-7.36-6.11H57.006
	c-2.06,0-3.167-1.326-3.547-1.896c-0.379-0.568-1.176-2.096-0.388-3.99c10.871-26.15,30.236-73.008,41.866-102.732H453.83
	c-1.414,34.084-11.414,71.177-29.776,110.39c-1.754,3.745-0.14,8.203,3.605,9.956c3.746,1.754,8.203,0.141,9.956-3.605
	c20.65-44.099,31.2-85.885,31.362-124.197c0.008-1.991-0.777-3.904-2.181-5.314C465.391,176.985,463.481,176.191,461.489,176.191z
	 M375.023,36.991H363.11l5.956-11.76L375.023,36.991z M355.525,51.966h27.082l13.148,25.96h-53.379L355.525,51.966z
	 M183.496,115.965v13.032h-53.628v-13.032h7.707h38.213H183.496z M136.258,143.972h40.849l5.107,32.173h-51.062L136.258,143.972z
	 M156.639,21.696c3.035,5.056,6.836,11.568,10.617,18.516c14.658,26.933,16.24,36.788,16.24,39.775
	c0,8.226-3.755,15.929-10.143,21.002h-33.342c-6.387-5.074-10.143-12.776-10.143-21.002
	C129.868,74.118,137.265,53.578,156.639,21.696z"/>
<g>
</g>
<g>
</g>
<g>
</g>
<g>
</g>
<g>
</g>
<g>
</g>
<g>
</g>
<g>
</g>
<g>
</g>
<g>
</g>
<g>
</g>
<g>
</g>
<g>
</g>
<g>
</g>
<g>
</g>
</svg>
