<?xml version="1.0" encoding="iso-8859-1"?>
<!-- Generator: Adobe Illustrator 19.0.0, SVG Export Plug-In . SVG Version: 6.00 Build 0)  -->
<svg version="1.1" id="Capa_1" xmlns="http://www.w3.org/2000/svg" xmlns:xlink="http://www.w3.org/1999/xlink" x="0px" y="0px"
	 viewBox="0 0 511.999 511.999" style="enable-background:new 0 0 511.999 511.999;" xml:space="preserve">
<polygon style="fill:#E0E0E0;" points="84.422,84.422 460.624,84.422 460.624,376.124 376.12,460.623 84.422,460.623 "/>
<polygon style="fill:#C6C5CA;" points="110.49,109.488 460.624,109.488 460.624,84.422 84.422,84.422 84.422,460.624 
	110.49,460.624 "/>
<rect x="7.52" y="7.52" style="fill:#FFD039;" width="76.901" height="496.956"/>
<rect x="59.355" y="7.52" style="fill:#FFA304;" width="25.065" height="496.956"/>
<rect x="7.52" y="7.52" style="fill:#FFD039;" width="496.956" height="76.901"/>
<rect x="7.52" y="59.355" style="fill:#FFA304;" width="496.956" height="25.065"/>
<rect x="7.52" y="7.52" style="fill:#FF6137;" width="76.901" height="76.901"/>
<rect x="84.42" y="84.42" style="fill:#FFFFFF;" width="234.03" height="234.03"/>
<polygon style="fill:#E0E0E0;" points="110.49,109.488 318.449,109.488 318.449,84.422 84.422,84.422 84.422,318.449 
	110.49,318.449 "/>
<polygon style="fill:#919191;" points="376.12,376.12 460.624,376.12 376.12,460.623 "/>
<path d="M504.479,0h-144.73c-4.153,0-7.52,3.367-7.52,7.52s3.367,7.52,7.52,7.52h137.212v61.863h-28.817V55.647
	c0-4.153-3.367-7.52-7.52-7.52s-7.52,3.367-7.52,7.52v21.255h-32.352V55.647c0-4.153-3.367-7.52-7.52-7.52s-7.52,3.367-7.52,7.52
	v21.255h-32.352V55.647c0-4.153-3.367-7.52-7.52-7.52s-7.52,3.367-7.52,7.52v21.255h-32.352V55.647c0-4.153-3.367-7.52-7.52-7.52
	c-4.153,0-7.52,3.367-7.52,7.52v21.255h-32.352V55.647c0-4.153-3.367-7.52-7.52-7.52c-4.153,0-7.52,3.367-7.52,7.52v21.255h-32.352
	V55.647c0-4.153-3.367-7.52-7.52-7.52c-4.153,0-7.52,3.367-7.52,7.52v21.255h-32.352V55.647c0-4.153-3.367-7.52-7.52-7.52
	s-7.52,3.367-7.52,7.52v21.255h-32.352V55.647c0-4.153-3.367-7.52-7.52-7.52c-4.153,0-7.52,3.367-7.52,7.52v21.255H91.942V15.039
	H329.67c4.153,0,7.52-3.367,7.52-7.52S333.822,0,329.67,0H84.422H7.52C3.367,0,0,3.367,0,7.52v76.903v87.422
	c0,4.153,3.367,7.52,7.52,7.52s7.52-3.367,7.52-7.52V91.942h61.863v29.422H55.647c-4.153,0-7.52,3.367-7.52,7.52
	c0,4.153,3.367,7.52,7.52,7.52h21.255v32.352H55.647c-4.153,0-7.52,3.367-7.52,7.52s3.367,7.52,7.52,7.52h21.255v32.352H55.647
	c-4.153,0-7.52,3.367-7.52,7.52c0,4.153,3.367,7.52,7.52,7.52h21.255v32.352H55.647c-4.153,0-7.52,3.367-7.52,7.52
	s3.367,7.52,7.52,7.52h21.255v32.352H55.647c-4.153,0-7.52,3.367-7.52,7.52s3.367,7.52,7.52,7.52h21.255v32.352H55.647
	c-4.153,0-7.52,3.367-7.52,7.52s3.367,7.52,7.52,7.52h21.255v32.352H55.647c-4.153,0-7.52,3.367-7.52,7.52
	c0,4.153,3.367,7.52,7.52,7.52h21.255v32.352H55.647c-4.153,0-7.52,3.367-7.52,7.52c0,4.153,3.367,7.52,7.52,7.52h21.255v28.817
	H15.039V201.922c0-4.153-3.367-7.52-7.52-7.52S0,197.769,0,201.922v302.558c0,4.153,3.367,7.52,7.52,7.52h76.903
	c4.153,0,7.52-3.367,7.52-7.52v-36.337H376.12c0.031,0,0.061-0.004,0.091-0.005c0.216-0.003,0.43-0.011,0.644-0.032
	c0.115-0.011,0.23-0.034,0.344-0.05c0.127-0.018,0.257-0.032,0.383-0.057c0.118-0.023,0.235-0.058,0.352-0.087
	c0.12-0.03,0.242-0.055,0.36-0.09c0.108-0.033,0.213-0.075,0.32-0.113c0.124-0.044,0.251-0.083,0.373-0.133
	c0.091-0.038,0.179-0.084,0.27-0.126c0.132-0.061,0.267-0.118,0.397-0.188c0.081-0.043,0.157-0.094,0.237-0.14
	c0.133-0.077,0.268-0.151,0.397-0.238c0.088-0.059,0.17-0.126,0.257-0.189c0.113-0.083,0.23-0.161,0.339-0.251
	c0.192-0.157,0.378-0.325,0.554-0.502l84.503-84.5c0.246-0.246,0.465-0.51,0.672-0.784c0.038-0.051,0.076-0.102,0.113-0.153
	c0.391-0.545,0.706-1.137,0.937-1.763c0.025-0.066,0.049-0.133,0.072-0.201c0.21-0.616,0.339-1.258,0.383-1.916
	c0.006-0.083,0.009-0.166,0.012-0.25c0.003-0.084,0.012-0.167,0.012-0.252v-69.317c0-4.153-3.367-7.52-7.52-7.52
	s-7.52,3.367-7.52,7.52v61.793h-76.984c-4.153,0-7.52,3.367-7.52,7.52v76.984H91.942V91.942H310.93v7.52
	c0,4.153,3.367,7.52,7.52,7.52c4.153,0,7.52-3.367,7.52-7.52v-7.52h127.134v184.787c0,4.153,3.367,7.52,7.52,7.52
	s7.52-3.367,7.52-7.52V91.942h36.337c4.153,0,7.52-3.367,7.52-7.52V7.52C511.999,3.367,508.633,0,504.479,0z M383.639,383.639h58.83
	l-58.83,58.83V383.639z M15.039,15.039h61.863v61.863H15.039V15.039z"/>
<path d="M318.449,292.465c-4.153,0-7.52,3.367-7.52,7.52v15.039c0,4.153,3.367,7.52,7.52,7.52c4.153,0,7.52-3.367,7.52-7.52v-15.039
	C325.969,295.831,322.602,292.465,318.449,292.465z"/>
<path d="M325.969,256.872c0-4.153-3.367-7.52-7.52-7.52c-4.153,0-7.52,3.367-7.52,7.52v15.039c0,4.153,3.367,7.52,7.52,7.52
	c4.153,0,7.52-3.367,7.52-7.52V256.872z"/>
<path d="M235.65,310.93c-4.153,0-7.52,3.367-7.52,7.52s3.367,7.52,7.52,7.52h15.039c4.153,0,7.52-3.367,7.52-7.52
	s-3.367-7.52-7.52-7.52H235.65z"/>
<path d="M106.313,310.93c-4.153,0-7.52,3.367-7.52,7.52s3.367,7.52,7.52,7.52h15.039c4.153,0,7.52-3.367,7.52-7.52
	s-3.367-7.52-7.52-7.52H106.313z"/>
<path d="M149.426,310.93c-4.153,0-7.52,3.367-7.52,7.52s3.367,7.52,7.52,7.52h15.039c4.153,0,7.52-3.367,7.52-7.52
	s-3.367-7.52-7.52-7.52H149.426z"/>
<path d="M192.538,310.93c-4.153,0-7.52,3.367-7.52,7.52s3.367,7.52,7.52,7.52h15.039c4.153,0,7.52-3.367,7.52-7.52
	s-3.367-7.52-7.52-7.52H192.538z"/>
<path d="M278.763,310.93c-4.153,0-7.52,3.367-7.52,7.52s3.367,7.52,7.52,7.52h15.039c4.153,0,7.52-3.367,7.52-7.52
	s-3.367-7.52-7.52-7.52H278.763z"/>
<path d="M325.969,213.759c0-4.153-3.367-7.52-7.52-7.52c-4.153,0-7.52,3.367-7.52,7.52v15.039c0,4.153,3.367,7.52,7.52,7.52
	c4.153,0,7.52-3.367,7.52-7.52V213.759z"/>
<path d="M325.969,127.535c0-4.153-3.367-7.52-7.52-7.52c-4.153,0-7.52,3.367-7.52,7.52v15.039c0,4.153,3.367,7.52,7.52,7.52
	c4.153,0,7.52-3.367,7.52-7.52V127.535z"/>
<path d="M325.969,170.647c0-4.153-3.367-7.52-7.52-7.52c-4.153,0-7.52,3.367-7.52,7.52v15.039c0,4.153,3.367,7.52,7.52,7.52
	c4.153,0,7.52-3.367,7.52-7.52V170.647z"/>
<g>
</g>
<g>
</g>
<g>
</g>
<g>
</g>
<g>
</g>
<g>
</g>
<g>
</g>
<g>
</g>
<g>
</g>
<g>
</g>
<g>
</g>
<g>
</g>
<g>
</g>
<g>
</g>
<g>
</g>
</svg>
