<svg width="315" height="249" viewBox="0 0 315 249" fill="none" xmlns="http://www.w3.org/2000/svg">
<path d="M298.399 194.8L314.599 214.8L278.099 248.5C278.099 248.5 273.799 243.8 276.599 239C277.999 236.5 279.299 232.1 279.599 227.3C279.599 227 279.599 226.6 279.699 226.3C279.799 225.1 279.799 223.9 279.699 222.7C279.699 222.4 279.599 222 279.599 221.7C279.299 219 278.599 216.4 277.399 214.2L298.399 194.8Z" fill="#030047"/>
<path d="M289.1 221.4C286 221.8 282.8 222.3 279.7 222.8C279.7 222.5 279.6 222.1 279.6 221.8C282.7 221.4 285.8 220.9 288.9 220.5C289.5 220.4 289.7 221.3 289.1 221.4Z" fill="white"/>
<path d="M288.199 227C285.399 227.1 282.499 227.2 279.699 227.3C279.699 227 279.699 226.6 279.799 226.3C282.599 226.2 285.499 226.1 288.299 226C288.899 226 288.799 227 288.199 227Z" fill="white"/>
<path d="M228.5 219.8L226.8 245.5H177.1C177.1 245.5 177.1 239.2 182.4 237.5C185.1 236.7 189.1 234.2 192.6 231C192.8 230.8 193.1 230.6 193.3 230.3C194.1 229.5 195 228.6 195.7 227.7C195.9 227.4 196.1 227.2 196.3 226.9C197.9 224.7 199.2 222.3 199.7 219.9H228.5V219.8Z" fill="#030047"/>
<path d="M281.6 159.8C276.5 141.8 268.2 91.5 268.2 91.5L239.5 98.1C238.7 95.2 238.1 93.4 238.1 93.4L209.1 104.5C209.1 127.9 196.1 221.1 196.1 221.1L233.7 226.4C233.7 226.4 238 185.7 240.8 154.6C251.4 190.8 269.3 217.2 276.5 221.7L303.9 199.2C303.9 199.1 286.6 177.8 281.6 159.8Z" fill="white"/>
<path d="M234.399 227.2L195.199 221.7L195.299 221C195.399 220.1 208.299 127.5 208.299 104.5V104L238.499 92.4L238.699 93.2C238.699 93.2 239.199 94.8 239.899 97.3L268.699 90.7L268.799 91.5C268.899 92 277.199 142 282.199 159.8C287.199 177.4 304.299 198.6 304.399 198.8L304.899 199.4L276.499 222.7L275.999 222.4C269.099 218.2 251.999 193.5 241.099 158.6C238.299 188.8 234.399 226.2 234.299 226.6L234.399 227.2ZM196.899 220.4L232.999 225.4C233.599 219.6 237.399 182.8 239.999 154.4L240.399 150.5L241.499 154.3C251.999 190 269.199 215.6 276.399 220.6L302.799 198.9C299.999 195.3 285.299 176.2 280.699 159.9C275.999 143.3 268.499 98.7 267.399 92.3L238.799 98.8L238.599 98.1C238.099 96.3 237.699 95 237.499 94.2L209.799 105C209.599 127.8 198.099 211.6 196.899 220.4Z" fill="#030047"/>
<path d="M260.3 99.1C260 99.1 259.7 98.9 259.6 98.6C259.2 97.7 258.8 96.8 258.4 95.9C258.2 95.5 258.4 95.1 258.8 94.9C259.2 94.7 259.6 94.9 259.8 95.3C260.2 96.2 260.6 97.1 261 98.1C261.2 98.5 261 98.9 260.6 99.1C260.5 99 260.4 99.1 260.3 99.1Z" fill="#030047"/>
<path d="M288.8 196C288.5 196 288.3 195.9 288.1 195.6C287.1 193.9 286.1 192 285.1 190C284.9 189.6 285.1 189.2 285.4 189C285.8 188.8 286.2 189 286.4 189.3C287.4 191.3 288.4 193.1 289.4 194.8C289.6 195.2 289.5 195.6 289.1 195.8C289 195.9 288.9 196 288.8 196ZM283 184.7C282.7 184.7 282.4 184.5 282.3 184.3C281.4 182.4 280.6 180.5 279.7 178.5C279.5 178.1 279.7 177.7 280.1 177.5C280.5 177.3 280.9 177.5 281.1 177.9C281.9 179.9 282.8 181.8 283.6 183.7C283.8 184.1 283.6 184.5 283.2 184.7C283.2 184.6 283.1 184.7 283 184.7ZM278.1 173C277.8 173 277.5 172.8 277.4 172.5C276.7 170.6 276.1 168.6 275.4 166.4C275.3 166 275.5 165.6 275.9 165.5C276.3 165.4 276.7 165.6 276.8 166C277.4 168.1 278.1 170.2 278.7 172C278.8 172.4 278.6 172.8 278.3 173C278.3 172.9 278.2 173 278.1 173ZM274.6 160.8C274.3 160.8 274 160.6 273.9 160.2C273.4 158.3 273 156.2 272.5 154C272.4 153.6 272.7 153.2 273.1 153.1C273.5 153 273.9 153.3 274 153.7C274.5 155.9 274.9 158 275.4 159.9C275.5 160.3 275.2 160.7 274.8 160.8C274.7 160.8 274.6 160.8 274.6 160.8ZM272 148.3C271.6 148.3 271.3 148 271.3 147.7C270.9 145.6 270.5 143.6 270.2 141.5C270.1 141.1 270.4 140.7 270.8 140.6C271.2 140.5 271.6 140.8 271.7 141.2C272.1 143.3 272.4 145.4 272.8 147.4C272.9 147.8 272.6 148.2 272.2 148.3C272.1 148.3 272.1 148.3 272 148.3ZM269.8 135.9C269.4 135.9 269.1 135.6 269.1 135.3C268.7 133.2 268.3 131.1 268 129.1C267.9 128.7 268.2 128.3 268.6 128.2C269 128.1 269.4 128.4 269.5 128.8C269.9 130.9 270.3 133 270.6 135.1C270.7 135.5 270.4 135.9 270 136C269.8 135.8 269.8 135.9 269.8 135.9ZM267.4 123.4C267.1 123.4 266.7 123.2 266.7 122.8C266.2 120.6 265.8 118.6 265.3 116.6C265.2 116.2 265.5 115.8 265.9 115.7C266.3 115.6 266.7 115.9 266.8 116.3C267.3 118.3 267.7 120.3 268.2 122.5C268.3 122.9 268 123.3 267.6 123.4C267.5 123.4 267.4 123.4 267.4 123.4ZM264.4 111.1C264.1 111.1 263.8 110.9 263.7 110.6C263.1 108.5 262.5 106.5 261.8 104.6C261.7 104.2 261.9 103.8 262.3 103.6C262.7 103.5 263.1 103.7 263.3 104.1C263.9 106 264.6 108.1 265.2 110.2C265.3 110.6 265.1 111 264.7 111.1C264.6 111 264.5 111.1 264.4 111.1Z" fill="#030047"/>
<path d="M293.9 203.7C293.7 203.7 293.5 203.6 293.3 203.5C293.3 203.5 292.6 202.7 291.4 201C291.2 200.7 291.2 200.2 291.6 200C291.9 199.8 292.4 199.8 292.6 200.2C293.7 201.8 294.3 202.5 294.4 202.5C294.7 202.8 294.6 203.3 294.3 203.6C294.3 203.6 294.1 203.7 293.9 203.7Z" fill="#030047"/>
<path d="M203.6 233.1C201 231.3 198.4 229.5 195.8 227.7C196 227.4 196.2 227.2 196.4 226.9C199 228.7 201.6 230.5 204.1 232.2C204.6 232.6 204.1 233.4 203.6 233.1Z" fill="white"/>
<path d="M199.1 236.5C197 234.6 194.8 232.8 192.6 230.9C192.8 230.7 193.1 230.5 193.3 230.2C195.4 232.1 197.6 233.9 199.8 235.7C200.3 236.3 199.6 237 199.1 236.5Z" fill="white"/>
<path d="M240.1 147.8C239.8 147.8 239.5 147.6 239.4 147.3C237.3 142.2 234.9 120.6 234.4 116.7C233.4 116.6 230.9 116.2 226.4 115.3C226 115.2 225.7 114.8 225.8 114.4C225.9 114 226.3 113.7 226.7 113.8C232.8 115 235.1 115.3 235.1 115.3L235.7 115.4L235.8 116C235.8 116.3 238.6 141.5 240.7 146.8C240.9 147.2 240.7 147.6 240.3 147.8C240.3 147.8 240.2 147.8 240.1 147.8Z" fill="#030047"/>
<path d="M102.3 81.3C102 81.3 101.7 81.1 101.6 80.8L96.6996 68.9C96.4996 68.5 96.6996 68.1 97.0996 67.9C97.4996 67.7 97.8996 67.9 98.0996 68.3L103 80.2C103.2 80.6 103 81 102.6 81.2C102.5 81.3 102.4 81.3 102.3 81.3Z" fill="#030047"/>
<path d="M111.899 79.3C111.499 79.3 111.199 78.9999 111.199 78.5999L109.899 68.7C109.799 68.3 110.099 67.9 110.499 67.9C110.899 67.8 111.299 68.1 111.299 68.5L112.599 78.4C112.699 78.9 112.399 79.2 111.899 79.3Z" fill="#030047"/>
<path d="M123.199 213.6C122.699 213.6 122.399 213.2 122.399 212.8L123.499 195.5C123.499 195.1 123.899 194.8 124.299 194.8C124.699 194.8 124.999 195.2 124.999 195.6L123.899 212.9C123.999 213.3 123.599 213.6 123.199 213.6Z" fill="#030047"/>
<path d="M144.399 204.9C144.099 204.9 143.899 204.8 143.699 204.5L137.999 194.4C137.799 194 137.899 193.6 138.299 193.4C138.699 193.2 139.099 193.3 139.299 193.7L144.999 203.8C145.199 204.2 145.099 204.6 144.699 204.8C144.599 204.9 144.499 204.9 144.399 204.9Z" fill="#030047"/>
<path d="M168 180.8H9.40011C2.00011 180.8 -1.69989 171.8 3.60011 166.6L50.8001 119.9C52.4001 118.4 54.4001 117.5 56.6001 117.5H215.2C222.6 117.5 226.3 126.5 221 131.7L173.8 178.4C172.3 180 170.2 180.8 168 180.8Z" fill="white"/>
<path d="M168 181.6H9.39964C5.69964 181.6 2.49965 179.5 0.999647 176C-0.400353 172.5 0.299647 168.8 2.99965 166.1L50.1996 119.4C51.8996 117.7 54.1996 116.8 56.5997 116.8H215.2C218.9 116.8 222.1 118.9 223.6 122.4C225 125.9 224.3 129.6 221.6 132.3L174.4 179C172.7 180.7 170.4 181.6 168 181.6ZM56.5997 118.3C54.5997 118.3 52.6996 119.1 51.2996 120.5L4.09965 167.2C1.89965 169.4 1.19965 172.5 2.39965 175.4C3.59965 178.3 6.29964 180.1 9.39964 180.1H168C170 180.1 171.9 179.3 173.3 177.9L220.5 131.2C222.7 129 223.4 125.9 222.2 123C221 120.1 218.3 118.3 215.2 118.3H56.5997Z" fill="#030047"/>
<path d="M155.4 169.5H14.5L64 120.6H204.9L155.4 169.5Z" fill="#030047"/>
<path d="M77.8992 148.9H53.6992L62.1992 140.5H86.3992L77.8992 148.9Z" fill="white"/>
<path d="M104.299 164.6H82.8994L90.3994 157.1H111.899L104.299 164.6Z" fill="white"/>
<path d="M67.4996 163.5H50.0996L57.6996 156.1H74.9996L67.4996 163.5Z" fill="white"/>
<path d="M137.5 131.5C122.9 131.5 110.2 127.7 105.7 122C105.4 121.7 105.5 121.2 105.8 120.9C106.1 120.6 106.6 120.7 106.9 121C111 126.2 123.6 129.9 137.5 129.9C154.8 129.9 169.4 124.2 169.4 117.5C169.4 117.1 169.7 116.7 170.2 116.7C170.7 116.7 171 117 171 117.5C170.9 125.4 156.2 131.5 137.5 131.5Z" fill="#5F5FFF"/>
<path d="M109 111.8C108.8 111.8 108.5 111.7 108.4 111.5C108.2 111.2 108.2 110.7 108.6 110.5C113.5 107.1 121.7 104.7 131.2 104C133.2 103.8 135.3 103.8 137.4 103.8C137.8 103.8 138.2 104.1 138.2 104.6C138.2 105.1 137.9 105.4 137.4 105.4C135.3 105.4 133.3 105.5 131.3 105.6C122 106.3 114.1 108.6 109.4 111.9C109.3 111.8 109.2 111.8 109 111.8Z" fill="#5F5FFF"/>
<path d="M164.6 135.3C164.3 135.3 164 135.1 163.9 134.7C163.8 134.3 164 133.9 164.4 133.8C168.4 132.8 172 131.5 175.1 130.1C182.8 126.6 187 122.1 187 117.5C187 106.8 164.8 98.1 137.5 98.1C123.7 98.1 110.8 100.3 101.3 104.3C100.9 104.5 100.5 104.3 100.3 103.9C100.1 103.5 100.3 103.1 100.7 102.9C110.4 98.8 123.4 96.6 137.4 96.6C166 96.6 188.4 105.8 188.4 117.5C188.4 122.7 183.9 127.6 175.6 131.4C172.4 132.9 168.7 134.1 164.7 135.2C164.7 135.3 164.6 135.3 164.6 135.3Z" fill="#5F5FFF"/>
<path d="M137.5 138.5C134.6 138.5 131.8 138.4 129 138.2C104.4 136.5 86.5 127.8 86.5 117.5C86.5 117.1 86.8 116.7 87.3 116.7C87.8 116.7 88.1 117 88.1 117.5C88.1 126.8 105.8 135.1 129.2 136.7C132 136.9 134.8 137 137.6 137C138 137 138.4 137.3 138.4 137.8C138.4 138.3 137.9 138.5 137.5 138.5Z" fill="#5F5FFF"/>
<path d="M146.3 138.2C145.9 138.2 145.6 137.9 145.6 137.5C145.6 137.1 145.9 136.7 146.3 136.7C150.6 136.4 154.9 135.8 158.8 135.1C159.2 135 159.6 135.3 159.7 135.7C159.8 136.1 159.5 136.5 159.1 136.6C155 137.3 150.8 137.9 146.3 138.2C146.4 138.2 146.3 138.2 146.3 138.2Z" fill="#5F5FFF"/>
<path d="M155.3 144.5C154.9 144.5 154.6 144.2 154.6 143.8C154.6 143.4 154.9 143 155.3 143C178.6 140.4 196.6 133.1 202.4 123.7C203.6 121.7 204.2 119.7 204.2 117.6C204.2 113.9 202.8 110.6 200.1 108.4C199.8 108.1 199.7 107.7 200 107.3C200.3 107 200.7 106.9 201.1 107.2C204.1 109.7 205.8 113.4 205.8 117.6C205.8 120 205.1 122.3 203.7 124.5C197.6 134.2 179.1 141.8 155.3 144.5C155.3 144.4 155.3 144.5 155.3 144.5Z" fill="#5F5FFF"/>
<path d="M73.6993 109.5C73.4993 109.5 73.3993 109.4 73.1993 109.3C72.8993 109 72.8994 108.6 73.0994 108.2C77.6994 102.9 85.9994 98.4 97.0994 95C97.4994 94.9 97.8993 95.1 97.9993 95.5C98.0993 95.9 97.8993 96.3 97.4993 96.4C86.5993 99.6 78.5993 104 74.1993 109.1C74.0993 109.4 73.8993 109.5 73.6993 109.5Z" fill="#5F5FFF"/>
<path d="M100.1 140.9C99.9998 140.9 99.9998 140.9 99.8998 140.9C80.6998 135.8 69.2998 127.1 69.2998 117.6C69.2998 117.2 69.5998 116.8 70.0998 116.8C70.5998 116.8 70.8998 117.1 70.8998 117.6C70.8998 126.3 81.8998 134.5 100.4 139.4C100.8 139.5 101 139.9 100.9 140.3C100.7 140.7 100.4 140.9 100.1 140.9Z" fill="#5F5FFF"/>
<path d="M137.5 124.1C146.447 124.1 153.7 121.19 153.7 117.6C153.7 114.01 146.447 111.1 137.5 111.1C128.553 111.1 121.3 114.01 121.3 117.6C121.3 121.19 128.553 124.1 137.5 124.1Z" fill="#5F5FFF"/>
<path d="M218.599 31.3C199.499 37.4 190.599 61.9 186.099 68.5C174.899 84.7 146.799 86.8 139.799 93C133.199 98.8 137.499 102.2 137.499 102.2C137.499 102.2 136.699 105.6 139.199 107.2C139.199 107.2 133.799 112.9 136.399 115.4C138.899 117.9 146.899 107.3 150.399 106.7L151.399 109.1C151.099 110.6 147.099 113.9 148.999 115.8C150.799 117.8 157.499 111.1 159.299 108.9C161.099 106.7 164.499 107.2 167.999 103.9C171.499 100.6 187.499 101.6 198.299 90.4C208.999 79.2 225.199 45.6 225.199 45.6L218.599 31.3Z" fill="white"/>
<path d="M149.699 116.8C148.999 116.8 148.499 116.5 148.199 116.2C146.499 114.4 148.199 112.1 149.399 110.4C149.799 109.9 150.199 109.3 150.399 108.9L149.799 107.4C148.499 108 146.499 109.8 144.699 111.4C141.099 114.6 137.699 117.7 135.699 115.7C133.199 113.2 136.499 108.8 137.999 107.1C136.399 105.5 136.499 103.2 136.599 102.3C136.099 101.8 135.399 100.7 135.299 99.1C135.299 96.9 136.599 94.6 139.199 92.3C141.799 90 147.199 88.3 153.399 86.2C164.499 82.6 178.399 78.1 185.399 67.9C186.299 66.6 187.399 64.4 188.799 62C194.099 52.1 202.899 35.4 218.299 30.5L218.899 30.3L225.699 45.4L225.599 45.7C224.899 47.1 209.299 79.6 198.599 90.7C191.499 98.1 182.199 100.2 175.499 101.8C172.199 102.6 169.399 103.2 168.299 104.2C166.299 106.1 164.299 106.8 162.699 107.4C161.399 107.9 160.399 108.3 159.699 109.1C159.699 109.4 153.199 116.7 149.699 116.8C149.799 116.8 149.699 116.8 149.699 116.8ZM150.799 105.7L152.099 108.8V109C151.999 109.6 151.399 110.4 150.799 111.2C149.599 112.9 148.699 114.3 149.399 115.1C149.399 115.1 149.499 115.2 149.799 115.2C151.799 115.2 156.499 110.7 158.599 108.2C159.599 107.1 160.899 106.6 162.299 106C163.799 105.4 165.599 104.8 167.299 103.1C168.699 101.8 171.399 101.2 175.199 100.3C181.799 98.8 190.799 96.7 197.599 89.6C207.599 79.2 222.499 48.7 224.199 45.3L218.299 32.1C203.799 37.1 195.399 53.1 190.299 62.7C188.899 65.3 187.799 67.4 186.899 68.8C179.599 79.4 165.399 84 154.099 87.7C148.099 89.7 142.899 91.4 140.499 93.5C138.199 95.5 136.999 97.4 137.099 99.1C137.099 100.6 138.199 101.5 138.199 101.5L138.599 101.8L138.499 102.3C138.499 102.3 137.899 105.2 139.799 106.5L140.599 107L139.999 107.7C138.699 109 135.499 113.2 137.099 114.8C138.099 115.8 141.699 112.5 143.999 110.4C146.399 108.2 148.699 106.2 150.399 105.9L150.799 105.7Z" fill="#030047"/>
<path d="M203.3 76.2C204.5 77 205.7 77.8 206.8 78.5C215.9 64.3 224.9 45.4 224.9 45.4L218.6 31.2C201.6 36.6 192.7 56.6 187.8 65.6C193.1 68.9 198.2 72.8 203.3 76.2Z" fill="#5F5FFF"/>
<path d="M207.099 79.6L206.499 79.2C205.299 78.4 204.199 77.6 202.999 76.9C200.799 75.5 198.699 74 196.599 72.5C193.699 70.4 190.599 68.3 187.499 66.4L186.899 66L187.199 65.4C187.699 64.4 188.299 63.4 188.899 62.2C194.199 52.3 202.999 35.6 218.399 30.7L218.999 30.5L225.799 45.6L225.699 45.9C225.599 46.1 216.499 65 207.499 79L207.099 79.6ZM188.799 65.4C191.699 67.2 194.599 69.2 197.299 71.2C199.399 72.7 201.599 74.2 203.699 75.6C204.699 76.2 205.599 76.9 206.599 77.5C214.799 64.6 222.899 48 224.099 45.5L218.199 32.3C203.699 37.3 195.299 53.3 190.199 62.9C189.699 63.8 189.299 64.6 188.799 65.4Z" fill="#5F5FFF"/>
<path d="M144.799 101.9C142.599 102.9 140.8 104.4 139.2 106.2C138.8 106.7 139.499 107.4 139.899 106.9C141.399 105.1 143.199 103.7 145.299 102.7C145.899 102.5 145.399 101.6 144.799 101.9Z" fill="#030047"/>
<path d="M142.599 97.4C140.499 98 138.799 99.3 137.599 101.1C137.299 101.6 138.099 102.1 138.499 101.6C139.499 100 141.099 98.8 142.899 98.3C143.399 98.2 143.199 97.2 142.599 97.4Z" fill="#030047"/>
<path d="M218.599 31.3C208.499 34.7 201.099 40.1 203.299 69.1C205.499 98.1 205.099 107 205.099 107L270.099 97.8C270.099 97.8 251.199 20.4 218.599 31.3Z" fill="#5F5FFF"/>
<path d="M204.399 107.9V107C204.399 106.9 204.699 97.8 202.599 69.2C200.399 39.2 208.399 34 218.399 30.6L218.599 31.3L218.399 30.6C223.999 28.7 229.599 29.3 234.999 32.2C257.699 44.7 270.399 95.4 270.899 97.6L271.099 98.4L204.399 107.9ZM224.899 31C222.899 31 220.899 31.3 218.899 32C209.199 35.3 201.899 40.1 204.099 69.1C205.899 92.9 205.999 103.3 205.899 106.2L269.199 97.2C267.499 90.6 254.899 44.9 234.299 33.6C231.199 31.9 228.099 31 224.899 31Z" fill="#5F5FFF"/>
<path d="M203.599 74.4C203.199 74.4 202.899 74.1 202.899 73.7L202.299 56.6C202.299 56.2 202.599 55.8 202.999 55.8C203.399 55.8 203.799 56.1 203.799 56.5L204.399 73.6C204.399 74.1 204.099 74.4 203.599 74.4C203.699 74.4 203.599 74.4 203.599 74.4Z" fill="#030047"/>
<path d="M278.8 72C268.5 46 243 23.6 218.6 31.3C218.6 31.3 243.1 57.4 253.9 71.7C261.6 81.9 267.9 102.7 271.3 114.9C264.7 122.1 267.2 135.9 268.6 136.3C272.6 137.6 273.1 128.8 273.1 128.8L274.6 128C275.2 131.6 275.8 136.1 277.4 137.4C279.8 139.3 282.2 136.5 282.2 136.5C285.1 137.8 288 135.7 288 135.7C301.6 134.8 289.1 98 278.8 72Z" fill="white"/>
<path d="M279.199 138.9C278.499 138.9 277.699 138.7 276.999 138.1C275.299 136.7 274.599 132.8 274.099 129.3L273.899 129.4C273.799 130.9 273.199 135.3 270.999 136.8C270.199 137.3 269.299 137.4 268.399 137.1C267.999 137 267.399 136.5 266.899 134.4C265.999 131 264.999 121 270.499 114.7C264.699 93.9 258.999 79.6 253.399 72.2C242.799 58.1 218.399 32.1 218.199 31.9L217.399 31L218.499 30.6C243.399 22.7 269.099 45.3 279.599 71.7C293.099 105.6 297.599 126.4 293.099 133.6C291.999 135.3 290.399 136.3 288.299 136.5C287.599 136.9 285.099 138.3 282.499 137.4C281.599 138.2 280.499 138.9 279.199 138.9ZM275.199 126.9L275.399 128.5C275.899 131.6 276.499 135.9 277.899 137C279.699 138.4 281.599 136.3 281.599 136.2L281.999 135.8L282.499 136C284.899 137.1 287.499 135.3 287.499 135.3L287.699 135.2H287.899C289.599 135.1 290.899 134.3 291.699 132.9C294.599 128.2 294.599 113.9 278.099 72.4C267.999 47 243.699 25.2 219.999 31.8C224.399 36.5 244.999 58.7 254.499 71.3C260.199 78.9 266.099 93.5 271.999 114.7L272.099 115.1L271.799 115.4C265.699 122 267.699 134.3 268.899 135.7C269.399 135.8 269.699 135.8 270.099 135.5C271.699 134.4 272.299 130.2 272.299 128.8V128.4L275.199 126.9Z" fill="#030047"/>
<path d="M257.5 61.3C261.1 58.6 264.4 55.7 267.8 52.8C255.2 36.3 236.6 25.6 218.6 31.3C218.6 31.3 238.1 52 249.9 66.6C252.5 64.9 255 63.1 257.5 61.3Z" fill="#5F5FFF"/>
<path d="M249.8 67.7L249.4 67.2C237.7 52.8 218.3 32.1 218.1 31.9L217.3 31L218.4 30.6C234.9 25.3 254.1 33.7 268.4 52.3L268.8 52.9L268.3 53.4C267.6 54 266.9 54.6 266.1 55.2C263.5 57.5 260.7 59.8 257.9 61.9C255.7 63.6 253.3 65.3 250.3 67.3L249.8 67.7ZM220 31.7C223.8 35.8 239.7 53 250.1 65.7C252.8 63.8 255 62.3 257.1 60.7C259.9 58.6 262.6 56.3 265.2 54.1C265.7 53.6 266.3 53.2 266.8 52.7C256.1 39 238.4 26.6 220 31.7Z" fill="#5F5FFF"/>
<path d="M281.5 125.2C281.3 124.6 280.3 124.8 280.5 125.5C281.5 128.8 281.8 132.1 281.3 135.5C281.2 136.1 282.2 136.1 282.3 135.5C282.9 132 282.6 128.6 281.5 125.2Z" fill="#030047"/>
<path d="M287.6 123.7C287.4 123.1 286.5 123.3 286.6 124C287.5 127.4 287.7 130.9 287.4 134.4C287.3 135 288.3 135 288.4 134.4C288.8 130.7 288.5 127.2 287.6 123.7Z" fill="#030047"/>
<path d="M247.099 64C246.899 64 246.599 63.9 246.499 63.7C241.199 56.7 238.899 53.3 238.799 53.3C238.599 53 238.599 52.5 238.999 52.3C239.299 52.1 239.799 52.1 239.999 52.5C239.999 52.5 242.399 55.9 247.599 62.9C247.899 63.2 247.799 63.7 247.499 64C247.399 63.9 247.299 64 247.099 64Z" fill="#030047"/>
<path d="M222.399 14.5C222.299 11 218.799 8.9 214.899 10.8C214.299 11.1 213.799 11.5 213.199 12C213.199 12 213.199 12 213.099 11.9C207.599 6.10004 198.899 5.30003 193.699 10.2C188.499 15.1 189.699 23 194.099 29.7C198.199 35.7 206.699 38.9 213.499 31.4C215.699 28.9 216.999 25.6 217.099 22.2C220.799 21.1 222.499 17.6 222.399 14.5Z" fill="white"/>
<path d="M204.7 36.6C204.4 36.6 204.2 36.6 203.9 36.6C199.9 36.3 196.1 33.9 193.6 30.2C188.4 22.5 188.3 14.5 193.3 9.8C198.7 4.7 207.6 5.29998 213.3 11.1C213.7 10.8 214.2 10.5 214.6 10.3C216.7 9.2 218.9 9.20002 220.6 10.2C222.1 11.1 223.1 12.7 223.1 14.6C223.2 17.6 221.6 21.4 217.8 22.9C217.6 26.3 216.3 29.5 214.1 32C210.8 35.7 207.3 36.6 204.7 36.6ZM202.2 7.8C199.3 7.8 196.5 8.8 194.3 10.8C188.9 15.9 191.2 23.9 194.8 29.3C197.1 32.7 200.5 34.8 204 35C207.3 35.2 210.4 33.8 213 30.9C215.1 28.6 216.3 25.5 216.4 22.2V21.7L216.9 21.5C220.2 20.4 221.7 17.1 221.6 14.5C221.6 13.2 220.9 12 219.8 11.4C218.5 10.6 216.8 10.7 215.2 11.5C214.7 11.8 214.2 12.1 213.6 12.6L213.1 13.1L212.6 12.6C209.8 9.39998 205.9 7.8 202.2 7.8Z" fill="#030047"/>
<path d="M202.712 23.0956C202.937 22.5915 202.712 21.9999 202.208 21.7742C201.704 21.5484 201.112 21.7741 200.886 22.2782C200.661 22.7822 200.886 23.3738 201.39 23.5996C201.894 23.8253 202.486 23.5996 202.712 23.0956Z" fill="#030047"/>
<path d="M199.399 30.8C198.099 29 197.099 27 196.299 24.9C196.099 24.3 196.999 23.9 197.199 24.5C197.899 26.5 198.899 28.4 200.099 30.2C200.599 30.7 199.799 31.3 199.399 30.8Z" fill="#030047"/>
<path d="M192.399 18.6C195.399 17.5 204.6 9.5 208.1 15.3C209 16.8 209 18 210.7 17.6C212.3 16.9 212 14.9 212 14.9C213.2 13.2 213.599 11.5 214.899 10.8C218.499 5 209.6 -2.20001 204.6 2.09999C204.6 2.09999 193.499 -0.599997 190.299 6.3C184.599 8.6 182.5 13 183.7 17.1C185.9 24.1 192.399 18.6 192.399 18.6Z" fill="#030047"/>
<path d="M214.2 18C214.1 15.6 215.6 13.5 217.9 12.8C218.5 12.6 218.9 13.6 218.3 13.7C216.5 14.2 215.2 15.9 215.3 17.8C215.3 18.6 214.3 18.7 214.2 18Z" fill="#030047"/>
<path d="M138.599 164.2C138.399 164.2 138.199 164.1 138.099 164L125.499 151.4C125.199 151.1 125.199 150.6 125.499 150.3C125.799 150 126.299 150 126.599 150.3L139.199 162.9C139.499 163.2 139.499 163.7 139.199 164C138.999 164.1 138.799 164.2 138.599 164.2Z" fill="#5F5FFF"/>
<path d="M126.099 164.2C125.899 164.2 125.699 164.1 125.599 164C125.299 163.7 125.299 163.2 125.599 162.9L138.199 150.3C138.499 150 138.999 150 139.299 150.3C139.599 150.6 139.599 151.1 139.299 151.4L126.699 164C126.399 164.1 126.299 164.2 126.099 164.2Z" fill="#5F5FFF"/>
</svg>
