<svg width="316" height="160" viewBox="0 0 316 160" fill="none" xmlns="http://www.w3.org/2000/svg">
<path d="M314.5 142.6C312.4 151.4 304.6 158.6 294.3 158.6H101C87.2002 158.6 74.3002 152.7 65.3002 142.6C62.9002 140 60.9002 137 59.1002 133.9L3.30021 32.4C2.50021 30.9 1.90022 29.4 1.50022 27.9C-2.09978 15.1 7.4002 1.59998 21.6002 1.59998H214.9C215.5 1.59998 216.2 1.59998 216.8 1.59998C232.1 2.19998 245.8 11 253.4 24.3L312.6 127.8C315.2 132.6 315.7 137.8 314.5 142.6Z" fill="white"/>
<path d="M294.3 159.3H101C87.2001 159.3 74.0001 153.4 64.8001 143C62.4001 140.3 60.3001 137.3 58.5001 134.1L2.70015 32.7C1.90015 31.2 1.20013 29.6 0.800129 28.1C-0.999871 21.7 0.400166 14.7 4.40017 9.29999C8.50017 3.89999 14.7001 0.799988 21.5001 0.799988H214.8C215.4 0.799988 216.1 0.799988 216.7 0.799988C231.9 1.39999 246.1 10.2 253.9 23.9L313.1 127.4C315.7 132.1 316.4 137.6 315.2 142.8C312.9 152.5 304.3 159.3 294.3 159.3ZM21.6001 2.29999C15.3001 2.29999 9.50015 5.20001 5.70015 10.2C1.90015 15.2 0.600129 21.7 2.30013 27.7C2.70013 29.2 3.30012 30.6 4.10012 32L59.9002 133.5C61.6002 136.6 63.6001 139.5 66.0001 142.1C74.9001 152.1 87.7001 157.9 101.1 157.9H294.4C303.7 157.9 311.7 151.6 313.9 142.5C315.1 137.6 314.4 132.7 312 128.2L252.9 24.7C245.4 11.5 231.6 2.99999 216.9 2.39999C216.3 2.39999 215.7 2.39999 215.1 2.39999H21.6001V2.29999Z" fill="#030047"/>
<path d="M255.4 27.9H1.50022C-2.09978 15.1 7.4002 1.59998 21.6002 1.59998C21.6002 1.59998 216.2 1.59998 216.8 1.59998C232.1 2.19998 245.8 11 253.4 24.3L255.4 27.9Z" fill="#030047"/>
<path d="M314.5 142.6C312.4 151.4 304.6 158.6 294.3 158.6H101C87.2003 158.6 74.3003 152.6 65.3003 142.6H314.5Z" fill="#030047"/>
<path d="M60.9004 19.9H29.2004C27.1004 19.9 25.4004 18.2 25.4004 16.1C25.4004 14 27.1004 12.3 29.2004 12.3H60.9004C63.0004 12.3 64.7004 14 64.7004 16.1C64.7004 18.2 63.0004 19.9 60.9004 19.9Z" fill="white"/>
<path d="M213 19.9H197.4C195.3 19.9 193.6 18.2 193.6 16.1C193.6 14 195.3 12.3 197.4 12.3H213C215.1 12.3 216.8 14 216.8 16.1C216.8 18.2 215.1 19.9 213 19.9Z" fill="white"/>
<path d="M121.6 112.8C121.5 112.8 121.5 112.8 121.4 112.8C110.3 109.5 98.2004 95.6 99.8004 83.3C99.9004 82.9 100.2 82.6 100.6 82.7C101 82.8 101.3 83.1 101.2 83.5C99.8005 94.8 111.3 108.2 121.8 111.4C122.2 111.5 122.4 111.9 122.3 112.3C122.2 112.6 121.9 112.8 121.6 112.8Z" fill="#030047"/>
<path d="M92.4003 66.8C92.3003 66.8 92.1003 66.8 92.0003 66.7C88.5003 64.5 86.1003 61 85.7003 57.5C85.3003 54.2 86.6003 50.9 89.4003 48C89.7003 47.7 90.2003 47.7 90.5003 48C90.8003 48.3 90.8003 48.8 90.5003 49.1C88.0003 51.6 86.9003 54.5 87.3003 57.3C87.7003 60.4 89.8003 63.5 92.9003 65.5C93.2003 65.7 93.4003 66.2 93.1003 66.5C92.9003 66.6 92.7003 66.8 92.4003 66.8Z" fill="#030047"/>
<path d="M95.9003 76.3C91.8003 76 84.5003 73.2 80.9003 66.9C80.7003 66.5 80.8003 66.1 81.2003 65.9C81.6003 65.7 82.0003 65.8001 82.2003 66.2001C85.5003 72.0001 92.2003 74.5 95.9003 74.8C96.3003 74.8 96.6002 75.2001 96.6002 75.6001C96.6002 76.0001 96.3003 76.3 95.9003 76.3Z" fill="#030047"/>
<path d="M92.4005 121.9C92.3005 121.9 92.3005 121.9 92.2005 121.9C92.1005 121.9 84.2004 120 83.1004 112.2C83.0004 111.8 83.3005 111.4 83.7005 111.4C84.1005 111.3 84.5005 111.6 84.5005 112C85.4005 118.8 92.1005 120.4 92.4005 120.5C92.8005 120.6 93.1005 121 93.0005 121.4C93.1005 121.7 92.8005 121.9 92.4005 121.9Z" fill="#030047"/>
<path d="M137.5 74.9C134 74.9 130.3 74.6 126.5 74.1C113.1 72.2 104 66.6 98.6997 62.2C97.1997 61 96.4997 59.1 96.5997 57.2C96.7997 55.3 97.7997 53.6 99.4997 52.7C106 49 117.3 44.5 133.7 44.5C139.9 44.5 146.4 45.1 153.1 46.4C157.6 47.3 163.3 50.3 165.6 54.5C166.9 56.8 167 59.3 166.1 61.8C163 70 152.3 74.9 137.5 74.9Z" fill="white"/>
<path d="M133.7 45.3C139.9 45.3 146.3 45.9 153 47.2C157.3 48 162.8 50.9 165 54.9C166.2 57 166.3 59.2 165.4 61.5C163.1 67.6 154.5 74.1 137.4 74.1C134 74.1 130.3 73.8 126.5 73.3C113.2 71.5 104.3 65.9 99.0999 61.6C97.7999 60.5 97.1999 58.9 97.2999 57.3C97.3999 55.6 98.3999 54.2 99.7999 53.4C106.4 49.7 117.5 45.3 133.7 45.3ZM133.7 43.8C117.1 43.8 105.7 48.4 99.1999 52.1C95.1999 54.4 94.6999 59.9 98.1999 62.8C103.5 67.3 112.7 73 126.3 74.9C130.3 75.4 134 75.7 137.4 75.7C154.1 75.7 163.9 69.6 166.8 62.1C170.2 53.2 159.8 47 153.3 45.7C146.1 44.4 139.6 43.8 133.7 43.8Z" fill="#030047"/>
<path d="M149.2 71.6C148.3 69.2 148.7 66.5 149.2 64C149.7 61.6 150.9 59.9 149.6 57.8C145.7 51.5 134.9 52.2 128.9 51.5C125.2 51.1 118.1 49.3 114.1 46.2C107.7 47.9 102.7 50.1 99.2 52.1C95.3 54.4 94.8 59.8 98.3 62.8C103.6 67.3 112.8 73 126.4 74.9C136.3 76.3 144.4 75.8 150.7 74.2C150 73.4 149.5 72.6 149.2 71.6Z" fill="#5F5FFF"/>
<path d="M267.9 34.5H227.5V74.9H267.9V34.5Z" fill="#5F5FFF"/>
<path d="M260.5 68.5C260.3 68.5 260.1 68.4 260 68.3L234.2 42.5C233.9 42.2 233.9 41.7 234.2 41.4C234.5 41.1 235 41.1 235.3 41.4L261.1 67.2C261.4 67.5 261.4 68 261.1 68.3C260.9 68.4 260.7 68.5 260.5 68.5Z" fill="white"/>
<path d="M234.7 68.5C234.5 68.5 234.3 68.4 234.2 68.3C233.9 68 233.9 67.5 234.2 67.2L260 41.4C260.3 41.1 260.8 41.1 261.1 41.4C261.4 41.7 261.4 42.2 261.1 42.5L235.3 68.3C235.1 68.4 234.9 68.5 234.7 68.5Z" fill="white"/>
<path d="M267.8 85.5H246V107.3H267.8V85.5Z" fill="#5F5FFF"/>
<path d="M295.2 57.5H276.6C276.2 57.5 275.8 57.2 275.8 56.7C275.8 56.2 276.1 55.9 276.6 55.9H295.2C295.6 55.9 296 56.2 296 56.7C296 57.2 295.6 57.5 295.2 57.5Z" fill="#030047"/>
<path d="M262.5 97.2H251.2C250.8 97.2 250.4 96.9 250.4 96.4C250.4 95.9 250.7 95.6 251.2 95.6H262.5C262.9 95.6 263.3 95.9 263.3 96.4C263.3 96.9 263 97.2 262.5 97.2Z" fill="#030047"/>
<path d="M213.7 81.8C213.5 81.8 213.2 81.7 213.1 81.5C212.9 81.2 213 80.7 213.3 80.5L220.8 75.4C221.1 75.2 221.6 75.3 221.8 75.6C222 75.9 221.9 76.4 221.6 76.6L214.1 81.7C214 81.7 213.8 81.8 213.7 81.8Z" fill="#030047"/>
<path d="M223.2 87.4C223 87.4 222.9 87.4001 222.7 87.2001C222.4 86.9001 222.3 86.5001 222.6 86.1001L226.9 80.4C227.2 80.1 227.6 80 228 80.3C228.3 80.6 228.4 81 228.1 81.4L223.8 87.1001C223.6 87.3001 223.4 87.4 223.2 87.4Z" fill="#030047"/>
<path d="M176.1 122.8C173.7 122.8 171.2 122.5 168.5 121.9C168.1 121.8 167.8 121.4 167.9 121C168 120.6 168.4 120.3 168.8 120.4C183.5 123.6 193.4 116.7 196.2 111.7C196.4 111.3 196.9 111.2 197.2 111.4C197.6 111.6 197.7 112.1 197.5 112.4C195 117 187.4 122.8 176.1 122.8Z" fill="#030047"/>
<path d="M172.2 116.7C169.8 116.7 167.6 116.4 165.8 115.8C165.4 115.7 165.2 115.3 165.3 114.9C165.4 114.5 165.8 114.3 166.2 114.4C171.1 115.9 179.3 115.5 185 111.5C185.3 111.3 185.8 111.3 186 111.7C186.2 112 186.2 112.5 185.8 112.7C181.9 115.5 176.8 116.7 172.2 116.7Z" fill="#030047"/>
<path d="M247.6 54.5999C247.6 51.3999 239.9 53.1999 239.9 53.1999C239.9 50.4999 235.6 49.9999 235.6 49.9999C234.2 47.5999 230.6 46.5999 218.6 50.3999C207.2 53.9999 189.6 51.7999 176.8 49.2999C176.8 51.7999 172.4 57.3999 168.6 59.0999V59.1999C167.6 61.2999 166.8 63.5999 165.4 65.4999C176.3 69.5999 214.9 74.4999 227.3 64.4999C233.6 66.8999 240.6 64.5999 241.2 62.0999C241.9 58.7999 234.7 60.6999 234.7 60.6999L233.3 59.3999C238.5 57.6999 247.6 57.3999 247.6 54.5999Z" fill="white"/>
<path d="M248.4 54.5999C248.4 53.8999 248.1 53.1999 247.5 52.7999C245.9 51.4999 242.2 51.9999 240.5 52.3999C239.9 50.2999 237 49.5999 236 49.3999C233.9 46.2999 228.7 46.3999 218.3 49.6999C209.4 52.4999 195.4 52.1999 176.8 48.5999L175.9 48.3999V49.2999C175.9 50.5999 174 53.8999 171.1 56.3999C169.4 57.8999 167.8 58.7999 166.5 58.8999C166.2 59.8999 165.8 60.8999 165.4 61.8999C164.9 63.1999 164.2 64.3999 163.5 65.5999C168.9 68.1999 185 71.1999 200.3 71.1999C211.2 71.1999 221.7 69.6999 227.3 65.3999C232 66.9999 236.9 66.1999 239.5 64.7999C240.8 64.0999 241.6 63.1999 241.8 62.2999C242 61.1999 241.6 60.5999 241.3 60.1999C239.9 58.7999 236.2 59.4999 234.8 59.7999L234.6 59.5999C236.1 59.1999 237.8 58.8999 239.5 58.4999C244.3 57.8999 248.4 57.0999 248.4 54.5999ZM233 58.7999L231.8 59.1999L234.4 61.6999L234.8 61.5999C236.6 61.0999 239.6 60.7999 240.3 61.4999C240.4 61.5999 240.5 61.6999 240.4 62.1999C240.3 62.6999 239.7 63.1999 238.9 63.6999C236.5 64.9999 231.9 65.6999 227.5 64.0999L227.1 63.9999L226.8 64.2999C214.5 74.1999 174.4 69.0999 164.7 64.7999C164.9 64.2999 165.3 63.3999 165.6 62.7999C166 61.8999 166.3 61.1999 166.5 60.7999C168.7 60.6999 171 58.9999 172.2 57.8999C174.5 55.8999 176.9 52.6999 177.4 50.4999C195.9 53.8999 209.8 54.1999 218.8 51.3999C231.2 47.4999 233.9 48.9999 234.9 50.6999L235.1 50.9999L235.5 51.0999C235.5 51.0999 239.2 51.6999 239.2 53.5999V54.5999L240.1 54.3999C242 53.8999 245.5 53.4999 246.6 54.3999C246.8 54.5999 246.9 54.7999 246.9 55.0999C246.9 56.2999 242.5 57.0999 239.3 57.6999C237.1 57.6999 234.8 58.0999 233 58.7999Z" fill="#030047"/>
<path d="M234.4 50.4C232.9 50.2 231.5 50.4 230.1 51C229.5 51.3 230 52.1 230.6 51.9C231.7 51.4 232.9 51.2 234.1 51.4C234.7 51.5 235 50.5 234.4 50.4Z" fill="#030047"/>
<path d="M238 53.7C236.4 53.9 234.7 54.1999 233.1 54.4999C232.5 54.5999 232.7 55.5999 233.4 55.4999C234.9 55.1999 236.5 54.9 238 54.7C238.6 54.6 238.6 53.6 238 53.7Z" fill="#030047"/>
<path d="M119.4 56.8C109.6 61.5 109.6 68.3 113.5 71.1C117.4 73.9 139.9 76 144.9 69.2C149.9 62.4 146.8 55.8 137.1 54.1C133.3 53.4 124.5 54.4 119.4 56.8Z" fill="white"/>
<path d="M124.3 56.7C97.4002 75.8 108.7 109 150.2 112.9C157.8 113.6 162.7 108.4 166.9 110.8C169.2 112.1 172.9 109.3 174.3 110.2C178.9 113 180 108.3 180 108.3C180.8 108.5 183.1 106 181.9 104.2C181.9 104.2 184.3 102.5 181.8 99.4C176.7 93 161.6 91.6999 153.7 89.8999C145.8 88.0999 130 86.8999 136.1 75.3999C137.9 71.8999 141.4 67.4999 141.4 67.3999" fill="white"/>
<path d="M151.6 113.7C151.1 113.7 150.6 113.7 150.1 113.6C129 111.6 113.6 101.6 109.8 87.5C106.8 76.2 112 64.4 123.8 56C124.1 55.8 124.6 55.8 124.8 56.2C125 56.5 125 57 124.6 57.2C113.3 65.2 108.3 76.4 111.1 87.1C114.7 100.6 129.6 110.1 150.1 112.1C153.6 112.4 156.5 111.4 159.1 110.6C162.1 109.6 164.6 108.7 167.1 110.1C168.1 110.7 169.6 110.2 171 109.7C172.4 109.3 173.6 108.9 174.5 109.4C175.7 110.1 176.7 110.4 177.5 110C178.7 109.5 179.1 108 179.1 107.9L179.3 107.2L180 107.4C180.1 107.4 180.8 106.8 181.1 106C181.4 105.4 181.3 104.9 181 104.4L180.6 103.8L181.2 103.4C181.2 103.4 181.8 102.9 181.9 102.1C182 101.4 181.7 100.6 181 99.7C177.1 94.8 166.5 92.9 158.7 91.5C156.7 91.1 154.9 90.8 153.3 90.5C152.3 90.3 151.3 90.1 150.1 89.9C144.1 88.7 136.5 87.3 134.3 82.7C133.3 80.5 133.5 77.9 135.1 74.9C135.9 73.5 137.4 70.9 140.4 67L140.5 66.7999C140.7 66.4999 141.2 66.4 141.5 66.6C141.8 66.8 141.9 67.3 141.7 67.6C141.7 67.6 141.6 67.6999 141.5 67.7999C138.6 71.5999 137.1 74.1 136.4 75.5C135 78.1 134.8 80.2 135.6 81.9C137.5 85.8 144.9 87.1999 150.3 88.2999C151.5 88.4999 152.5 88.7 153.5 88.9C155 89.2 156.9 89.6 158.9 89.9C167.3 91.4 177.8 93.2999 182.1 98.5999C183.1 99.7999 183.5 101 183.3 102.1C183.2 102.9 182.8 103.5 182.5 103.9C182.9 104.9 182.7 106.1 181.9 107.2C181.5 107.8 180.9 108.4 180.2 108.6C179.9 109.3 179.3 110.6 177.9 111.2C176.7 111.7 175.2 111.5 173.5 110.4C173.2 110.2 172.1 110.6 171.2 110.8C169.6 111.3 167.7 111.9 166.1 111C164.2 110 162.1 110.7 159.3 111.6C157.4 112.8 154.7 113.7 151.6 113.7Z" fill="#030047"/>
<path d="M178.9 107.6C177.2 105.5 174.5 104.3 171.8 104.6C171.2 104.7 171.2 105.7 171.8 105.6C174.3 105.4 176.6 106.4 178.2 108.3C178.6 108.8 179.3 108.1 178.9 107.6Z" fill="#030047"/>
<path d="M180.9 102.5C179.3 100.7 177 99.6 174.5 99.5C173.9 99.5 173.9 100.5 174.5 100.5C176.7 100.6 178.7 101.5 180.2 103.2C180.7 103.7 181.4 103 180.9 102.5Z" fill="#030047"/>
<path d="M157 41.4C146.4 38.3 137.8 40.7 137.8 50.9C137.8 50.9 128.8 55.2 135.9 60.7C135.9 60.7 132.2 69.1 144.4 69.5C156.6 69.9 160.2 51.2 160.2 51.2L157 41.4Z" fill="#030047"/>
<path d="M167.3 61.2999C164.6 61.2999 162 60.4999 159.7 58.8999L159.3 58.5999L158.9 58.8999C157.8 59.6999 156.4 60.2 155 60.2C153.4 60.2 151.8 59.7 150.5 58.7C149.3 57.8 148.8 56.3999 149 54.9999C149.4 53.1999 151 51.6999 153.5 51.0999L154.2 50.8999L154.1 50.2V50.0999C153.3 46.2999 154 42.3 156.1 39.2C157.9 36.6 160.4 34.8 163.4 34.2C164.1 34.1 164.9 33.9999 165.6 33.9999C169.9 33.9999 174 36.4999 176.4 40.5999C177.2 41.9999 177.8 43.5999 178.2 45.2999C179.1 49.4999 178.9 52.9999 177.8 55.5999C176.4 58.7999 173.4 60.7 169 61.2C168.3 61.3 167.8 61.2999 167.3 61.2999Z" fill="white"/>
<path d="M165.4 34.7999C169.4 34.7999 173.3 37.1999 175.5 40.9999C176.3 42.2999 176.9 43.7999 177.2 45.3999C178 49.4999 177.9 52.8 176.8 55.2C175.5 58.2 172.8 59.8999 168.6 60.3999C168.1 60.4999 167.7 60.4999 167.2 60.4999C164.7 60.4999 162.2 59.6999 160.1 58.2999L159.2 57.7L158.3 58.2999C157.3 58.9999 156.1 59.3999 154.8 59.3999C153.4 59.3999 151.9 58.8999 150.8 58.0999C149.8 57.3999 149.4 56.3 149.6 55.2C149.9 53.7 151.4 52.3999 153.5 51.7999L154.9 51.3999L154.6 49.9999V49.8999C153.9 46.2999 154.5 42.4999 156.5 39.5999C158.1 37.0999 160.6 35.3999 163.3 34.8999C164.1 34.8999 164.7 34.7999 165.4 34.7999ZM165.4 33.2999C164.6 33.2999 163.8 33.3999 163 33.4999C156 34.8999 151.6 42.4999 153.2 50.2999V50.3999C147.6 51.8999 146.8 56.9999 150 59.2999C151.3 60.2999 153.1 60.8999 154.9 60.8999C156.4 60.8999 157.9 60.4999 159.3 59.4999C161.7 61.0999 164.5 61.9999 167.3 61.9999C167.8 61.9999 168.3 61.9999 168.9 61.8999C174 61.2999 176.9 58.9999 178.3 55.7999C179.6 52.6999 179.5 48.8999 178.7 45.0999C178.3 43.2999 177.7 41.7 176.8 40.2C174.4 36 170 33.2999 165.4 33.2999Z" fill="#030047"/>
<path d="M174.4 37.1C171.6 34 167.2 32.7 163.1 33.5C156.1 34.9 151.7 41.4 153.7 51.8C157.9 51.1 171 44.6 174.4 37.1Z" fill="#5F5FFF"/>
<path d="M170.535 48.4332C170.828 47.9653 170.686 47.3482 170.218 47.0549C169.75 46.7616 169.133 46.9033 168.84 47.3712C168.547 47.8392 168.688 48.4562 169.156 48.7495C169.624 49.0428 170.241 48.9012 170.535 48.4332Z" fill="#030047"/>
<path d="M157.6 54.7C155.7 53.3 153.1 53.2 151.3 54.7C150.8 55.1 151.4 55.9 151.9 55.5C153.4 54.3 155.5 54.2 157 55.4C157.4 55.8 158.1 55.1 157.6 54.7Z" fill="#030047"/>
<path d="M176.2 53.3C176.3 51.1 176 48.8 175.4 46.7C175.2 46.1 174.3 46.3 174.4 46.9C175 49 175.2 51.1 175.1 53.3C175.2 53.9 176.2 54 176.2 53.3Z" fill="#030047"/>
</svg>
