<?xml version="1.0" encoding="iso-8859-1"?>
<!-- Generator: Adobe Illustrator 19.0.0, SVG Export Plug-In . SVG Version: 6.00 Build 0)  -->
<svg version="1.1" id="Capa_1" xmlns="http://www.w3.org/2000/svg" xmlns:xlink="http://www.w3.org/1999/xlink" x="0px" y="0px"
	 viewBox="0 0 512.001 512.001" style="enable-background:new 0 0 512.001 512.001;" xml:space="preserve">
<rect x="146.93" y="472.431" style="fill:#E0E0E0;" width="218.144" height="26.328"/>
<rect x="340.066" y="472.431" style="fill:#C6C5CA;" width="25.008" height="26.328"/>
<polygon style="fill:#919191;" points="322.76,472.428 189.241,472.428 195.243,420.144 316.758,420.144 "/>
<path style="fill:#E0E0E0;" d="M7.503,351.033v54.105c0,8.287,6.718,15.005,15.005,15.005h466.985
	c8.287,0,15.005-6.718,15.005-15.005v-54.105H7.503z"/>
<path style="fill:#C6C5CA;" d="M479.489,351.033v54.105c0,8.287-6.718,15.005-15.005,15.005h25.008
	c8.287,0,15.005-6.718,15.005-15.005v-54.105H479.489z"/>
<path style="fill:#39A4FA;" d="M504.497,351.033V71.69c0-8.287-6.718-15.005-15.005-15.005H22.508
	c-8.287,0-15.005,6.718-15.005,15.005v279.344L504.497,351.033L504.497,351.033z"/>
<path style="fill:#0091E2;" d="M489.492,56.685h-25.008c8.287,0,15.005,6.718,15.005,15.005v279.344h25.009V71.69
	C504.497,63.403,497.779,56.685,489.492,56.685z"/>
<polygon style="fill:#FFC89F;" points="180.474,111.59 141.151,189.227 219.797,189.227 "/>
<polygon style="fill:#F7B081;" points="180.474,111.59 167.99,136.237 194.828,189.227 219.797,189.227 "/>
<rect x="141.148" y="189.224" style="fill:#FFCA10;" width="78.687" height="161.705"/>
<rect x="194.826" y="189.224" style="fill:#FFA304;" width="25.008" height="161.705"/>
<path style="fill:#FFD039;" d="M30.287,192.197l18.257,8.183c7.561,3.389,13.612,9.439,17.001,17.001l8.183,18.257l8.183-18.257
	c3.389-7.562,9.439-13.612,17.001-17.001l18.257-8.183l-18.257-8.183c-7.562-3.389-13.612-9.439-17.001-17.001l-8.183-18.257
	l-8.183,18.257c-3.388,7.562-9.439,13.612-17.001,17.001L30.287,192.197z"/>
<polygon style="fill:#777777;" points="316.758,420.144 291.749,420.144 297.751,472.428 322.76,472.428 "/>
<polygon style="fill:#3C5156;" points="180.474,111.59 162.123,147.821 198.825,147.821 "/>
<rect x="277.004" y="111.588" style="fill:#FFCA10;" width="99.234" height="239.341"/>
<polygon style="fill:#FFA304;" points="351.224,111.59 351.224,350.93 277.001,350.93 277.001,350.93 376.233,350.93 
	376.233,111.59 "/>
<g>
	<path style="fill:#FFD039;" d="M393.633,350.93l18.257,8.183c7.562,3.389,13.612,9.439,17.001,17.001l8.183,18.257l8.183-18.257
		c3.389-7.562,9.439-13.612,17.001-17.001l18.257-8.183l-18.257-8.183c-7.562-3.389-13.612-9.439-17.001-17.001l-8.183-18.257
		l-8.183,18.257c-3.389,7.562-9.439,13.612-17.001,17.001L393.633,350.93z"/>
	<path style="fill:#FFD039;" d="M198.825,56.684l18.257,8.183c7.562,3.389,13.612,9.439,17.001,17.001l8.183,18.257l8.183-18.257
		c3.389-7.562,9.439-13.612,17.001-17.001l18.257-8.183l-18.257-8.183c-7.562-3.389-13.612-9.439-17.001-17.001l-8.183-18.257
		l-8.183,18.257c-3.389,7.561-9.439,13.612-17.001,17.001L198.825,56.684z"/>
</g>
<path d="M45.476,207.226c5.888,2.639,10.584,7.335,13.222,13.223l8.183,18.258c1.209,2.698,3.89,4.435,6.846,4.435
	c2.957,0,5.637-1.737,6.846-4.435l8.183-18.258c2.639-5.888,7.334-10.584,13.222-13.223l18.257-8.183
	c2.698-1.208,4.435-3.889,4.435-6.846c0-2.957-1.737-5.637-4.435-6.846l-18.258-8.183c-5.888-2.639-10.584-7.335-13.222-13.223
	l-8.183-18.257c-1.209-2.698-3.89-4.435-6.846-4.435c-2.957,0-5.637,1.737-6.846,4.435l-8.183,18.257
	c-2.639,5.888-7.334,10.584-13.222,13.223l-18.257,8.183c-2.698,1.209-4.435,3.89-4.435,6.846c0,2.957,1.736,5.637,4.435,6.846
	L45.476,207.226z M51.613,190.861c9.253-4.146,16.632-11.525,20.78-20.778l1.335-2.981l1.336,2.981
	c4.147,9.253,11.527,16.632,20.779,20.778l2.981,1.335l-2.981,1.336c-9.253,4.146-16.632,11.525-20.779,20.778l-1.336,2.981
	l-1.335-2.981c-4.147-9.253-11.527-16.632-20.779-20.778l-2.981-1.336L51.613,190.861z"/>
<path d="M489.492,49.182H287.311l-16.794-7.527c-5.888-2.639-10.584-7.334-13.223-13.222l-8.183-18.257
	c-1.209-2.698-3.889-4.435-6.846-4.435s-5.637,1.737-6.846,4.435l-8.183,18.257c-2.639,5.888-7.334,10.584-13.222,13.222
	l-16.794,7.527H22.508C10.096,49.182,0,59.278,0,71.689v36.14c0,4.143,3.359,7.503,7.503,7.503s7.503-3.359,7.503-7.503v-36.14
	c0-4.136,3.366-7.503,7.503-7.503H197.22l16.794,7.527c5.888,2.639,10.584,7.334,13.222,13.222l8.183,18.257
	c1.209,2.698,3.89,4.435,6.846,4.435c2.956,0,5.637-1.737,6.846-4.435l8.184-18.258c2.639-5.888,7.335-10.584,13.223-13.222
	l16.794-7.527h202.182c4.136,0,7.503,3.366,7.503,7.503V343.53H482.35l-17.024-7.63c-5.888-2.639-10.585-7.335-13.222-13.222
	l-8.183-18.257c-1.209-2.698-3.89-4.435-6.846-4.435c-2.957,0-5.637,1.737-6.846,4.435l-8.182,18.257
	c-2.639,5.888-7.335,10.584-13.223,13.222l-17.025,7.63h-8.062V111.59c0-1.99-0.79-3.898-2.198-5.305
	c-1.406-1.407-3.315-2.198-5.305-2.198l-99.233,0.001c-4.143,0-7.503,3.359-7.503,7.503v50.597c0,4.143,3.359,7.503,7.503,7.503
	s7.503-3.359,7.503-7.503v-43.095l84.228-0.001V168.3h-22.98c-4.143,0-7.503,3.359-7.503,7.503c0,4.143,3.359,7.503,7.503,7.503
	h22.98V213.6h-35.302c-4.143,0-7.503,3.359-7.503,7.503c0,4.143,3.359,7.503,7.503,7.503h35.302v30.294h-22.98
	c-4.143,0-7.503,3.359-7.503,7.503s3.359,7.503,7.503,7.503h22.98v30.294h-35.302c-4.143,0-7.503,3.359-7.503,7.503
	c0,4.143,3.359,7.503,7.503,7.503h35.302v24.224h-84.228V192.196c0-4.143-3.359-7.503-7.503-7.503s-7.503,3.359-7.503,7.503v151.334
	H227.34V189.227c0-1.457-0.422-2.813-1.141-3.964l-20.679-40.829c0-0.001-0.001-0.001-0.001-0.002l-18.351-36.231
	c-1.277-2.523-3.865-4.112-6.693-4.112s-5.416,1.59-6.693,4.112l-39.323,77.637c-0.02,0.039-0.032,0.08-0.051,0.119
	c-0.104,0.213-0.197,0.432-0.281,0.656c-0.025,0.068-0.051,0.134-0.074,0.202c-0.085,0.251-0.159,0.506-0.217,0.768
	c-0.006,0.028-0.015,0.055-0.021,0.082c-0.061,0.285-0.103,0.576-0.131,0.873c-0.007,0.076-0.007,0.151-0.011,0.227
	c-0.009,0.154-0.023,0.306-0.023,0.462v73.303c0,4.143,3.359,7.503,7.503,7.503s7.503-3.359,7.503-7.503v-65.8h63.682v146.698
	h-63.682V292.54c0-4.143-3.359-7.503-7.503-7.503s-7.503,3.359-7.503,7.503v50.991H15.005V137.841c0-4.143-3.359-7.503-7.503-7.503
	S0,133.697,0,137.841v213.193v54.105c0,12.411,10.096,22.508,22.508,22.508h164.322l-4.279,37.28h-35.621
	c-4.143,0-7.503,3.359-7.503,7.503v26.328c0,4.143,3.359,7.503,7.503,7.503h218.143c4.143,0,7.503-3.359,7.503-7.503V472.43
	c0-4.143-3.359-7.503-7.503-7.503h-35.621l-4.279-37.28h164.322c12.411,0,22.508-10.096,22.508-22.508v-54.105V71.689
	C512,59.279,501.904,49.182,489.492,49.182z M243.601,78.8l-1.336,2.981l-1.335-2.981c-0.259-0.578-0.531-1.149-0.815-1.713
	c-4.261-8.45-11.289-15.179-19.964-19.066l-2.981-1.336l2.981-1.335c9.253-4.147,16.632-11.527,20.778-20.779l1.335-2.981
	l1.336,2.981c4.146,9.253,11.525,16.632,20.779,20.779l2.981,1.335l-2.981,1.336C255.127,62.168,247.747,69.548,243.601,78.8z
	 M153.361,181.725l13.372-26.401h27.482l13.372,26.401H153.361z M435.737,328.816l1.336-2.981l1.336,2.981
	c4.146,9.253,11.526,16.632,20.778,20.778l2.981,1.336l-2.981,1.336c-9.253,4.146-16.633,11.525-20.78,20.778l-1.335,2.981
	l-1.336-2.981c-4.147-9.253-11.527-16.632-20.779-20.778l-2.981-1.336l2.981-1.336C424.211,345.447,431.59,338.069,435.737,328.816z
	 M357.57,491.253H154.431V479.93h34.81H322.76h34.81V491.253z M314.347,464.926H197.654l4.279-37.28h108.133L314.347,464.926z
	 M496.995,405.139c0,4.137-3.366,7.503-7.503,7.503H316.758H195.243H22.508c-4.136,0-7.503-3.365-7.503-7.503v-46.603h377.253
	l16.564,7.424c5.888,2.639,10.584,7.335,13.222,13.222l8.183,18.257c1.209,2.698,3.89,4.435,6.846,4.435
	c2.957,0,5.637-1.737,6.846-4.435l8.183-18.257c2.639-5.888,7.335-10.584,13.222-13.222l16.563-7.424h15.107L496.995,405.139
	L496.995,405.139z"/>
<g>
</g>
<g>
</g>
<g>
</g>
<g>
</g>
<g>
</g>
<g>
</g>
<g>
</g>
<g>
</g>
<g>
</g>
<g>
</g>
<g>
</g>
<g>
</g>
<g>
</g>
<g>
</g>
<g>
</g>
</svg>
