<?xml version="1.0" encoding="utf-8"?>
<!-- Generator: Adobe Illustrator 25.0.0, SVG Export Plug-In . SVG Version: 6.00 Build 0)  -->
<svg version="1.1" id="Capa_1" xmlns="http://www.w3.org/2000/svg" xmlns:xlink="http://www.w3.org/1999/xlink" x="0px" y="0px"
	 viewBox="0 0 512 512" style="enable-background:new 0 0 512 512;" xml:space="preserve">
<style type="text/css">
	.st0{fill:url(#SVGID_1_);}
	.st1{fill:url(#SVGID_2_);}
	.st2{fill:url(#SVGID_3_);}
	.st3{fill:url(#SVGID_4_);}
	.st4{fill:url(#SVGID_5_);}
	.st5{fill:url(#SVGID_6_);}
	.st6{fill:url(#SVGID_7_);}
	.st7{fill:url(#SVGID_8_);}
	.st8{fill:url(#SVGID_9_);}
</style>
<g>
	<linearGradient id="SVGID_1_" gradientUnits="userSpaceOnUse" x1="270.5999" y1="190.8" x2="467.2" y2="190.8">
		<stop  offset="0" style="stop-color:#EE4337"/>
		<stop  offset="0.2" style="stop-color:#B8001F"/>
		<stop  offset="0.4" style="stop-color:#EC2311"/>
		<stop  offset="0.6" style="stop-color:#EE0A09"/>
		<stop  offset="0.8" style="stop-color:#FC2D27"/>
		<stop  offset="1" style="stop-color:#C5151A"/>
	</linearGradient>
	<path class="st0" d="M412.3,150.5c-22-24.3-49-42.9-78.9-54.7h104.9c3.8,0,6.8-3.1,6.8-6.8c0-3.8-3.1-6.8-6.8-6.8H277.2
		c-0.5,0-1,0-1.4,0.1h-0.1c-0.2,0-0.4,0.1-0.5,0.1s-0.2,0.1-0.3,0.1c-0.1,0-0.2,0.1-0.3,0.1c-0.1,0.1-0.3,0.1-0.4,0.2
		c-0.1,0-0.1,0.1-0.2,0.1c-0.1,0.1-0.3,0.1-0.4,0.2c-0.1,0-0.1,0.1-0.2,0.1c-0.1,0.1-0.2,0.2-0.3,0.2c-0.1,0-0.1,0.1-0.2,0.1
		c-0.1,0.1-0.2,0.2-0.3,0.2c-0.1,0.1-0.2,0.1-0.2,0.2c-0.1,0.1-0.1,0.1-0.2,0.2s-0.2,0.2-0.2,0.3c-0.1,0.1-0.1,0.1-0.1,0.2
		c-0.1,0.1-0.2,0.2-0.2,0.3c0,0.1-0.1,0.1-0.1,0.2c-0.1,0.1-0.2,0.3-0.2,0.4s-0.1,0.1-0.1,0.2c-0.1,0.1-0.1,0.3-0.2,0.4
		c0,0.1-0.1,0.2-0.1,0.3c0,0.1-0.1,0.2-0.1,0.4c0,0.1-0.1,0.3-0.1,0.4s-0.1,0.2-0.1,0.3c0,0.2-0.1,0.3-0.1,0.5c0,0.1,0,0.1,0,0.2
		l0,0c0,0.1,0,0.2,0,0.3c0,0.1,0,0.3,0,0.4l0,0l0,0c0,0.2,0,0.4,0,0.7c0,0.1,0,0.1,0,0.2c0,0.2,0,0.3,0.1,0.5c0,0.1,0.1,0.2,0.1,0.4
		c0,0.1,0,0.2,0.1,0.3c0.1,0.2,0.1,0.3,0.2,0.5c0,0,0,0.1,0.1,0.1c0.1,0.2,0.2,0.3,0.2,0.5v0.1c0.1,0.2,0.2,0.3,0.3,0.5
		c0,0,0,0,0,0.1c0.1,0.2,0.2,0.3,0.3,0.5c0,0,0,0,0,0.1c0.1,0.1,0.2,0.3,0.4,0.4c0,0,0,0.1,0.1,0.1c0.1,0.1,0.3,0.2,0.4,0.4l0.1,0.1
		c0.1,0.1,0.3,0.2,0.4,0.3l0.1,0.1c0.2,0.1,0.3,0.2,0.5,0.3c0,0,0,0,0.1,0c0.8,0.4,1.7,0.7,2.6,0.8c48.3,5.1,92.9,27.8,125.7,63.9
		c33,36.4,51.2,83.6,51.2,132.8c0,3.8,3.1,6.8,6.8,6.8s6.8-3.1,6.8-6.8C467.1,239.8,447.6,189.4,412.3,150.5z"/>
	<linearGradient id="SVGID_2_" gradientUnits="userSpaceOnUse" x1="44.2" y1="190.5" x2="241" y2="190.5">
		<stop  offset="0" style="stop-color:#EE4337"/>
		<stop  offset="0.2" style="stop-color:#B8001F"/>
		<stop  offset="0.4" style="stop-color:#EC2311"/>
		<stop  offset="0.6" style="stop-color:#EE0A09"/>
		<stop  offset="0.8" style="stop-color:#FC2D27"/>
		<stop  offset="1" style="stop-color:#C5151A"/>
	</linearGradient>
	<path class="st1" d="M239.5,93.1c0.1-0.1,0.2-0.3,0.3-0.4c0,0,0-0.1,0.1-0.1c0.1-0.2,0.2-0.3,0.3-0.5c0,0,0-0.1,0.1-0.1
		c0.1-0.2,0.2-0.3,0.2-0.5c0-0.1,0.1-0.1,0.1-0.2c0.1-0.1,0.1-0.3,0.1-0.4s0.1-0.2,0.1-0.4c0-0.1,0.1-0.2,0.1-0.3
		c0-0.2,0.1-0.4,0.1-0.6c0,0,0,0,0-0.1c0-0.4,0-0.8,0-1.3v-0.1l0,0c0-0.1,0-0.2-0.1-0.3c0-0.1,0-0.2-0.1-0.3c0-0.2-0.1-0.3-0.1-0.5
		c0-0.1,0-0.1-0.1-0.2c-0.1-0.2-0.1-0.4-0.2-0.6l0,0c-0.4-1-1.1-1.9-1.9-2.6l0,0c-0.1-0.1-0.3-0.2-0.5-0.3c0,0-0.1,0-0.1-0.1
		c-0.1-0.1-0.3-0.2-0.4-0.3l-0.1-0.1c-0.2-0.1-0.3-0.2-0.5-0.2c0,0-0.1,0-0.1-0.1c-0.2-0.1-0.4-0.1-0.5-0.2h-0.1
		c-0.7-0.2-1.4-0.3-2.1-0.3H72.9c-3.8,0-6.8,3.1-6.8,6.8s3.1,6.8,6.8,6.8h104.9c-29.9,11.8-56.9,30.4-78.9,54.7
		c-35.3,38.9-54.7,89.3-54.7,141.9c0,3.8,3.1,6.8,6.8,6.8s6.8-3.1,6.8-6.8c0-49.2,18.2-96.3,51.2-132.8
		c32.8-36.2,77.4-58.8,125.7-63.9c1-0.1,1.8-0.4,2.6-0.8c0,0,0.1,0,0.1-0.1c0.2-0.1,0.3-0.2,0.5-0.3l0.1-0.1
		c0.1-0.1,0.3-0.2,0.4-0.3l0.1-0.1c0.1-0.1,0.2-0.2,0.4-0.3l0.1-0.1c0.1-0.1,0.2-0.2,0.3-0.4C239.4,93.2,239.4,93.2,239.5,93.1z"/>
</g>
<g>
	<linearGradient id="SVGID_3_" gradientUnits="userSpaceOnUse" x1="23" y1="88.3" x2="79.8" y2="88.3">
		<stop  offset="0" style="stop-color:#EE4337"/>
		<stop  offset="0.2" style="stop-color:#B8001F"/>
		<stop  offset="0.4" style="stop-color:#EC2311"/>
		<stop  offset="0.6" style="stop-color:#EE0A09"/>
		<stop  offset="0.8" style="stop-color:#FC2D27"/>
		<stop  offset="1" style="stop-color:#C5151A"/>
	</linearGradient>
	<path class="st2" d="M51.4,59.9C35.7,59.9,23,72.6,23,88.3c0,15.6,12.7,28.4,28.4,28.4S79.8,104,79.8,88.3
		C79.7,72.6,67,59.9,51.4,59.9z"/>
	<linearGradient id="SVGID_4_" gradientUnits="userSpaceOnUse" x1="431.5" y1="88.3" x2="488.3" y2="88.3">
		<stop  offset="0" style="stop-color:#EE4337"/>
		<stop  offset="0.2" style="stop-color:#B8001F"/>
		<stop  offset="0.4" style="stop-color:#EC2311"/>
		<stop  offset="0.6" style="stop-color:#EE0A09"/>
		<stop  offset="0.8" style="stop-color:#FC2D27"/>
		<stop  offset="1" style="stop-color:#C5151A"/>
	</linearGradient>
	<path class="st3" d="M459.9,59.9c-15.6,0-28.4,12.7-28.4,28.4s12.7,28.4,28.4,28.4c15.6,0,28.4-12.7,28.4-28.4
		S475.5,59.9,459.9,59.9z"/>
</g>
<linearGradient id="SVGID_5_" gradientUnits="userSpaceOnUse" x1="23" y1="314.15" x2="79.7023" y2="314.15">
	<stop  offset="0" style="stop-color:#EE4337"/>
	<stop  offset="0.2" style="stop-color:#B8001F"/>
	<stop  offset="0.4" style="stop-color:#EC2311"/>
	<stop  offset="0.6" style="stop-color:#EE0A09"/>
	<stop  offset="0.8" style="stop-color:#FC2D27"/>
	<stop  offset="1" style="stop-color:#C5151A"/>
</linearGradient>
<path class="st4" d="M72.9,285.8H29.8c-3.8,0-6.8,3.1-6.8,6.8v43.1c0,3.8,3.1,6.8,6.8,6.8h43.1c3.8,0,6.8-3.1,6.8-6.8v-43.1
	C79.8,288.9,76.7,285.8,72.9,285.8z"/>
<linearGradient id="SVGID_6_" gradientUnits="userSpaceOnUse" x1="432.3" y1="314.15" x2="489" y2="314.15">
	<stop  offset="0" style="stop-color:#EE4437"/>
	<stop  offset="0.2" style="stop-color:#B80B26"/>
	<stop  offset="0.4" style="stop-color:#EC2411"/>
	<stop  offset="0.6" style="stop-color:#EE0B09"/>
	<stop  offset="0.8" style="stop-color:#FC2E27"/>
	<stop  offset="1" style="stop-color:#C51518"/>
</linearGradient>
<path class="st5" d="M482.2,285.8h-43.1c-3.8,0-6.8,3.1-6.8,6.8v43.1c0,3.8,3.1,6.8,6.8,6.8h43.1c3.8,0,6.8-3.1,6.8-6.8v-43.1
	C489,288.9,485.9,285.8,482.2,285.8z"/>
<linearGradient id="SVGID_7_" gradientUnits="userSpaceOnUse" x1="159.3" y1="418.85" x2="351.9" y2="418.85">
	<stop  offset="0" style="stop-color:#EE4337"/>
	<stop  offset="0.2" style="stop-color:#B8001F"/>
	<stop  offset="0.4" style="stop-color:#EC2311"/>
	<stop  offset="0.6" style="stop-color:#EE0A09"/>
	<stop  offset="0.8" style="stop-color:#FC2D27"/>
	<stop  offset="1" style="stop-color:#C5151A"/>
</linearGradient>
<path class="st6" d="M349.9,386.7c-1.2-1.2-2.9-2-4.8-2h-22.8H166.1c-3.8,0-6.8,3.1-6.8,6.8v54.6c0,3.8,3.1,6.8,6.8,6.8h156.2v0.1
	h22.8c3.8,0,6.8-3.1,6.8-6.8v-54.6C351.9,389.7,351.1,388,349.9,386.7z"/>
<linearGradient id="SVGID_8_" gradientUnits="userSpaceOnUse" x1="130.625" y1="250.7" x2="380.575" y2="250.7">
	<stop  offset="0" style="stop-color:#EE4337"/>
	<stop  offset="0.2" style="stop-color:#B8001F"/>
	<stop  offset="0.4" style="stop-color:#EC2311"/>
	<stop  offset="0.6" style="stop-color:#EE0A09"/>
	<stop  offset="0.8" style="stop-color:#FC2D27"/>
	<stop  offset="1" style="stop-color:#C5151A"/>
</linearGradient>
<path class="st7" d="M379.6,304.7L261.8,106.8c-0.1-0.1-0.1-0.2-0.2-0.4c0,0,0,0,0,0c0-0.1-0.1-0.1-0.1-0.2
	c-0.1-0.2-0.2-0.4-0.4-0.5c0-0.1-0.1-0.1-0.1-0.2c-0.2-0.2-0.3-0.4-0.5-0.6l-0.1-0.1c-0.2-0.1-0.3-0.3-0.5-0.4
	c-0.1,0-0.1-0.1-0.2-0.1c-0.1,0-0.2-0.1-0.2-0.1c-0.1-0.1-0.2-0.1-0.3-0.2l-0.1-0.1c-0.2-0.1-0.5-0.3-0.7-0.4c0,0,0,0-0.1,0
	c-0.2-0.1-0.5-0.2-0.7-0.2c-0.1,0-0.1,0-0.2-0.1c0,0,0,0-0.1,0c-0.2,0-0.4-0.1-0.6-0.1c0,0-0.1,0-0.1,0c-0.2,0-0.5-0.1-0.7-0.1
	c-0.1,0-0.1,0-0.2,0c0,0-0.1,0-0.1,0c0,0,0,0-0.1,0c-0.1,0-0.1,0-0.2,0c0,0,0,0,0,0c-0.2,0-0.4,0-0.5,0c-0.1,0-0.2,0-0.2,0
	c-0.1,0-0.1,0-0.2,0c0,0,0,0,0,0c-0.1,0-0.2,0-0.3,0.1c0,0-0.1,0-0.1,0c-0.1,0-0.1,0-0.1,0c-0.3,0.1-0.5,0.2-0.8,0.3c0,0,0,0-0.1,0
	c-0.2,0.1-0.4,0.2-0.6,0.3c-0.5,0.3-1,0.6-1.4,1c0,0,0,0,0,0l0,0c-0.5,0.4-0.9,0.9-1.3,1.5l-9.5,15.9l0,0L131.6,304.7
	c-1.3,2.2-1.3,4.8,0,7l49.5,83.4c1.2,2.1,3.5,3.3,5.9,3.3h110.3l0,0h26.8c0,0,0,0,0,0h0.1c2.4,0,4.6-1.3,5.9-3.3l49.5-83.4
	C380.9,309.6,380.9,306.9,379.6,304.7z M255.6,308.1c-11.3,0-20.5-9.2-20.5-20.5c0-9,5.9-16.7,14-19.4c0.4-0.1,0.8-0.2,1.2-0.4
	c0.1,0,0.3-0.1,0.4-0.1c0.5-0.1,0.9-0.2,1.4-0.3c0.1,0,0.3,0,0.4-0.1c0.4-0.1,0.9-0.1,1.3-0.2c0.4,0,0.8-0.1,1.2-0.1
	c0.2,0,0.4,0,0.6,0c0.7,0,1.4,0,2,0.1c0,0,0,0,0.1,0c10.3,1.1,18.4,9.8,18.4,20.4C276.1,298.9,266.9,308.1,255.6,308.1z"/>
<linearGradient id="SVGID_9_" gradientUnits="userSpaceOnUse" x1="227.3" y1="87.35" x2="284" y2="87.35">
	<stop  offset="0" style="stop-color:#EE4337"/>
	<stop  offset="0.2" style="stop-color:#B8001F"/>
	<stop  offset="0.4" style="stop-color:#EC2311"/>
	<stop  offset="0.6" style="stop-color:#EE0A09"/>
	<stop  offset="0.8" style="stop-color:#FC2D27"/>
	<stop  offset="1" style="stop-color:#C5151A"/>
</linearGradient>
<path class="st8" d="M277.2,59h-43.1c-3.8,0-6.8,3.1-6.8,6.8v43.1c0,3.8,3.1,6.8,6.8,6.8h43.1c3.8,0,6.8-3.1,6.8-6.8V65.8
	C284,62.1,280.9,59,277.2,59z"/>
</svg>
