<?xml version="1.0" encoding="utf-8"?>
<!-- Generator: Adobe Illustrator 24.3.0, SVG Export Plug-In . SVG Version: 6.00 Build 0)  -->
<svg version="1.1" xmlns="http://www.w3.org/2000/svg" xmlns:xlink="http://www.w3.org/1999/xlink" x="0px" y="0px"
	 viewBox="0 0 512 512" style="enable-background:new 0 0 512 512;" xml:space="preserve">
<style type="text/css">
	.st0{fill:#F1EDE9;}
	.st1{fill:#FFD039;}
	.st2{fill:#D81F30;}
	.st3{fill:#FFAE47;}
	.st4{fill:#881729;}
	.st5{fill:#100E27;}
</style>
<g id="Layer_3">
	<circle class="st0" cx="256" cy="256" r="256"/>
</g>
<g id="Capa_1">
	<g>
		<path class="st1" d="M255.7,156l-80.8,135.7l33.9,57h46.9h7.8h9.3h9.3h20.4l33.9-57L255.7,156z M255.7,291.7c-7.7,0-14-6.3-14-14
			c0-7.7,6.3-14,14-14s14,6.3,14,14C269.8,285.4,263.5,291.7,255.7,291.7z"/>
		<g>
			<circle class="st2" cx="116" cy="141.3" r="14.7"/>
			<circle class="st2" cx="395.5" cy="141.3" r="14.7"/>
		</g>
		<g>
			<rect x="101.3" y="281.1" class="st1" width="29.5" height="29.5"/>
			<rect x="241" y="125.9" class="st1" width="29.5" height="29.5"/>
			<rect x="381.2" y="281.1" class="st1" width="29.5" height="29.5"/>
		</g>
		<polygon class="st3" points="255.7,156 248,169.1 321,291.7 287.1,348.7 302.7,348.7 336.5,291.7 		"/>
		<rect x="194.5" y="348.7" class="st2" width="122.4" height="37.3"/>
		<rect x="301.4" y="348.7" class="st4" width="15.6" height="37.3"/>
		<path class="st5" d="M209.9,381.4h-10.7v-28h9.5c0,0,0.1,0,0.1,0h54.7c2.6,0,4.7-2.1,4.7-4.7l0,0c0,0,0,0,0,0
			c0-2.6-2.1-4.7-4.7-4.7h-52.1l-31.1-52.3l27.9-46.9c1.3-2.2,0.6-5.1-1.6-6.4c-2.2-1.3-5.1-0.6-6.4,1.6l-29.3,49.2
			c-0.9,1.5-0.9,3.3,0,4.8l29.7,50h-6.1c-2.6,0-4.7,2.1-4.7,4.7v37.3c0,2.6,2.1,4.7,4.7,4.7h15.4c2.6,0,4.7-2.1,4.7-4.7
			C214.6,383.5,212.5,381.4,209.9,381.4z"/>
		<path class="st5" d="M410.7,276.4h-10.4c-1.1-34.3-14.2-67.1-37.4-92.6c-15.1-16.6-33.5-29.3-54-37.4h67.8
			c2.2,8.2,9.8,14.3,18.7,14.3c10.7,0,19.4-8.7,19.4-19.4s-8.7-19.4-19.4-19.4c-9.2,0-17,6.5-18.9,15.2H275.1v-11.1
			c0-2.6-2.1-4.7-4.7-4.7H241c-2.6,0-4.7,2.1-4.7,4.7V137H135c-1.9-8.7-9.7-15.2-18.9-15.2c-10.7,0-19.4,8.7-19.4,19.4
			c0,10.7,8.7,19.4,19.4,19.4c8.9,0,16.5-6.1,18.7-14.3h67.8c-20.4,8.1-38.9,20.8-54,37.4c-23.1,25.5-36.3,58.2-37.4,92.6h-9.9
			c-2.6,0-4.7,2.1-4.7,4.7v29.5c0,2.6,2.1,4.7,4.7,4.7h29.5c2.6,0,4.7-2.1,4.7-4.7v-29.5c0-2.6-2.1-4.7-4.7-4.7h-10.2
			c1.1-32,13.4-62.5,34.9-86.3c21.2-23.4,49.8-38.6,80.9-43.1v8.4c0,2.6,2.1,4.7,4.7,4.7h6.9l-38,63.8c-1.3,2.2-0.6,5.1,1.6,6.4
			c2.2,1.3,5.1,0.6,6.4-1.6l33.2-55.7v86.5c-8.1,2.1-14,9.4-14,18.1c0,10.3,8.4,18.7,18.7,18.7c10.3,0,18.7-8.4,18.7-18.7
			c0-8.7-6-16-14-18.1V173l70.7,118.7L300,344.1h-17.8c-2.4,0-4.4,1.8-4.7,4.2c0,0.2,0,0.3,0,0.5c0,2.6,2.1,4.7,4.7,4.7h20.4
			c0,0,0.1,0,0.1,0h9.5v28h-83.7c-2.6,0-4.7,2.1-4.7,4.7s2.1,4.7,4.7,4.7h88.3c2.6,0,4.7-2.1,4.7-4.7v-37.3c0-2.6-2.1-4.7-4.7-4.7
			h-6.1l29.7-50c0.9-1.5,0.9-3.3,0-4.8l-77-129.3h6.9c2.6,0,4.7-2.1,4.7-4.7V147c31.1,4.5,59.6,19.6,80.9,43.1
			c21.6,23.8,33.9,54.3,34.9,86.3h-9.7c-2.6,0-4.7,2.1-4.7,4.7v29.5c0,2.6,2.1,4.7,4.7,4.7h29.5c2.6,0,4.7-2.1,4.7-4.7v-29.5
			C415.4,278.5,413.3,276.4,410.7,276.4z M126.1,305.9H106v-20.1h20.1V305.9z M395.5,131.2c5.5,0,10.1,4.5,10.1,10.1
			c0,5.5-4.5,10.1-10.1,10.1c-5.5,0-10.1-4.5-10.1-10.1C385.4,135.7,389.9,131.2,395.5,131.2z M116,151.3c-5.5,0-10.1-4.5-10.1-10.1
			c0-5.5,4.5-10.1,10.1-10.1c5.5,0,10.1,4.5,10.1,10.1C126.1,146.8,121.6,151.3,116,151.3z M265.1,277.6c0,5.2-4.2,9.3-9.3,9.3
			c-5.2,0-9.3-4.2-9.3-9.3c0-5.2,4.2-9.3,9.3-9.3C260.9,268.3,265.1,272.5,265.1,277.6z M265.8,150.7h-20.1v-9c0,0,0,0,0,0v-11.1
			h20.1v11.1c0,0,0,0,0,0V150.7z M406,305.9h-20.1v-20.1H406V305.9z"/>
	</g>
</g>
</svg>
