<?xml version="1.0" encoding="iso-8859-1"?>
<!-- Generator: Adobe Illustrator 19.0.0, SVG Export Plug-In . SVG Version: 6.00 Build 0)  -->
<svg version="1.1" id="Capa_1" xmlns="http://www.w3.org/2000/svg" xmlns:xlink="http://www.w3.org/1999/xlink" x="0px" y="0px"
	 viewBox="0 0 511.999 511.999" style="enable-background:new 0 0 511.999 511.999;" xml:space="preserve">
<g>
	<circle style="fill:#FF6137;" cx="31.166" cy="62.441" r="23.655"/>
	<circle style="fill:#FF6137;" cx="480.01" cy="62.441" r="23.655"/>
</g>
<g>
	<rect x="7.509" y="286.979" style="fill:#FFD039;" width="47.334" height="47.334"/>
	<rect x="231.916" y="37.78" style="fill:#FFD039;" width="47.334" height="47.334"/>
	<rect x="457.164" y="286.979" style="fill:#FFD039;" width="47.334" height="47.334"/>
</g>
<path style="fill:#FF434D;" d="M302.587,85.112H256h-46.586L79.286,474.219h76.121l40.685-128.324H256h59.908l40.685,128.324h76.121
	L302.587,85.112z M256.001,279.202h-38.659l38.659-120.088l38.659,120.088H256.001z"/>
<g>
	<polygon style="fill:#DD3646;" points="230.799,159.114 192.312,279.202 217.341,279.202 256.001,159.114 	"/>
	<polygon style="fill:#DD3646;" points="302.587,85.112 277.558,85.112 407.685,474.219 432.714,474.219 	"/>
	<polygon style="fill:#DD3646;" points="130.378,474.219 155.407,474.219 196.093,345.895 171.064,345.895 	"/>
</g>
<path d="M400.533,354.317c-1.315-3.933-5.57-6.059-9.503-4.738c-3.933,1.315-6.055,5.569-4.739,9.502l35.994,107.63h-60.196
	l-39.025-123.085c-0.989-3.12-3.884-5.239-7.157-5.239H196.093c-3.273,0-6.168,2.119-7.157,5.239l-20.342,64.163
	c-1.253,3.953,0.935,8.173,4.889,9.427c3.951,1.251,8.173-0.936,9.427-4.889l18.681-58.923h108.822l39.024,123.085
	c0.989,3.12,3.884,5.239,7.157,5.239h76.121c2.415,0,4.682-1.161,6.093-3.121c1.412-1.96,1.794-4.479,1.027-6.77L400.533,354.317z"
	/>
<path d="M168.62,432.543c-3.954-1.254-8.174,0.935-9.427,4.889l-9.283,29.279H89.714l88.408-264.359
	c1.316-3.934-0.807-8.187-4.739-9.502c-3.935-1.317-8.187,0.807-9.503,4.738L72.165,471.838c-0.766,2.291-0.383,4.809,1.027,6.77
	c1.411,1.959,3.678,3.121,6.093,3.121h76.122c3.273,0,6.168-2.119,7.157-5.239l10.944-34.518
	C174.761,438.018,172.574,433.797,168.62,432.543z"/>
<path d="M217.341,286.71h77.319c2.4,0,4.655-1.147,6.069-3.087c1.414-1.94,1.815-4.439,1.079-6.723l-38.659-120.088
	c-0.999-3.105-3.886-5.208-7.147-5.208c-3.261,0-6.148,2.104-7.147,5.208l-38.659,120.088c-0.735,2.284-0.334,4.782,1.079,6.723
	C212.686,285.563,214.941,286.71,217.341,286.71z M256,183.616l28.354,88.077h-56.708L256,183.616z"/>
<path d="M504.491,279.475h-16.719c-1.704-55.161-22.849-107.729-60.002-148.723c-24.181-26.682-53.875-47.119-86.682-60.106h108.861
	c3.613,13.212,15.716,22.954,30.058,22.954c17.184,0,31.164-13.98,31.164-31.164s-13.98-31.164-31.164-31.164
	c-14.845,0-27.29,10.437-30.406,24.356H286.76V37.78c0-4.147-3.362-7.509-7.509-7.509H231.92c-4.147,0-7.509,3.362-7.509,7.509
	v17.848H61.57c-3.115-13.919-15.561-24.356-30.406-24.356C13.98,31.272,0,45.252,0,62.436S13.98,93.6,31.164,93.6
	c14.342,0,26.445-9.742,30.058-22.954h108.861c-32.808,12.987-62.502,33.424-86.682,60.106
	c-37.153,40.995-58.298,93.562-60.002,148.723H7.509c-4.147,0-7.509,3.361-7.509,7.509v47.331c0,4.147,3.362,7.509,7.509,7.509
	H54.84c4.147,0,7.509-3.362,7.509-7.509v-47.331c0-4.148-3.362-7.509-7.509-7.509H38.424c1.699-51.425,21.46-100.412,56.103-138.64
	c34.13-37.659,79.991-62.018,129.883-69.191v5.959h-14.997c-3.23,0-6.097,2.065-7.121,5.127l-28.889,86.383
	c-1.316,3.934,0.807,8.187,4.739,9.503c3.934,1.315,8.187-0.807,9.503-4.739l27.174-81.256h17.1h47.331h17.93l79.571,237.932
	c1.051,3.143,3.98,5.129,7.12,5.129c0.79,0,1.593-0.125,2.383-0.389c3.932-1.315,6.055-5.569,4.739-9.503L309.708,82.729
	c-1.024-3.063-3.891-5.127-7.121-5.127H286.76v-5.959c49.892,7.173,95.754,31.533,129.883,69.193
	c34.644,38.227,54.405,87.214,56.103,138.639h-15.587c-4.147,0-7.509,3.361-7.509,7.509v47.331c0,4.147,3.362,7.509,7.509,7.509
	h47.331c4.147,0,7.509-3.362,7.509-7.509v-47.331C512,282.837,508.638,279.475,504.491,279.475z M47.331,326.807H15.017v-32.314
	h32.314V326.807z M480.007,46.29c8.903,0,16.147,7.243,16.147,16.147s-7.243,16.147-16.147,16.147
	c-8.903,0-16.147-7.243-16.147-16.147C463.861,53.534,471.104,46.29,480.007,46.29z M31.164,78.583
	c-8.903,0-16.147-7.243-16.147-16.147S22.261,46.29,31.164,46.29S47.31,53.533,47.31,62.436S40.067,78.583,31.164,78.583z
	 M239.429,77.604V63.145c0-0.015,0-0.031,0-0.046v-17.81h32.314v17.819c0,0.009,0,0.018,0,0.027v14.469H239.429z M496.983,326.807
	h-32.314v-32.314h32.314V326.807z"/>
<g>
</g>
<g>
</g>
<g>
</g>
<g>
</g>
<g>
</g>
<g>
</g>
<g>
</g>
<g>
</g>
<g>
</g>
<g>
</g>
<g>
</g>
<g>
</g>
<g>
</g>
<g>
</g>
<g>
</g>
</svg>
