<?xml version="1.0" encoding="iso-8859-1"?>
<!-- Generator: Adobe Illustrator 19.0.0, SVG Export Plug-In . SVG Version: 6.00 Build 0)  -->
<svg version="1.1" id="Capa_1" xmlns="http://www.w3.org/2000/svg" xmlns:xlink="http://www.w3.org/1999/xlink" x="0px" y="0px"
	 viewBox="0 0 512.002 512.002" style="enable-background:new 0 0 512.002 512.002;" xml:space="preserve">
<polygon style="fill:#39A4FA;" points="256,362.248 131.752,309.389 7.504,362.776 256,468.495 504.497,362.776 380.249,309.389 "/>
<polygon style="fill:#546F7A;" points="256,256.001 131.752,203.142 7.504,256.529 256,362.248 504.497,256.529 380.249,203.142 "/>
<polygon style="fill:#E0E0E0;" points="504.497,150.282 256,256.001 7.504,150.282 256,43.507 "/>
<polygon style="fill:#475D63;" points="256,281.009 409.494,215.708 380.249,203.142 256,256.001 131.752,203.142 102.506,215.708 
	"/>
<polygon style="fill:#0091E2;" points="256,387.257 409.494,321.955 380.249,309.389 256,362.248 131.752,309.389 102.506,321.955 
	"/>
<path d="M436.734,285.358c1.622,3.812,6.025,5.591,9.841,3.966l60.86-25.892c2.764-1.175,4.56-3.886,4.565-6.89
	c0.006-3.004-1.781-5.721-4.541-6.906l-108.126-46.461l108.102-45.99c2.764-1.175,4.56-3.886,4.565-6.89
	c0.006-3.004-1.781-5.721-4.541-6.906L258.962,36.613c-1.892-0.813-4.032-0.813-5.924,0L97.815,103.31
	c-3.807,1.636-5.567,6.048-3.931,9.855c1.637,3.806,6.048,5.568,9.855,3.931L256,51.672l229.414,98.576l-108.096,45.988
	c-0.002,0.001-0.004,0.001-0.007,0.003l-121.312,51.611l-121.311-51.611c-0.003-0.002-0.007-0.002-0.01-0.004L26.587,150.248
	l49.421-21.236c3.807-1.636,5.567-6.048,3.931-9.854c-1.637-3.806-6.047-5.568-9.855-3.931L4.541,143.39
	c-2.76,1.185-4.547,3.902-4.541,6.906c0.006,3.003,1.802,5.714,4.565,6.89l108.102,45.991L4.541,249.637
	c-2.76,1.185-4.547,3.902-4.541,6.906c0.006,3.004,1.802,5.714,4.565,6.89l108.102,45.991L4.541,355.884
	c-2.76,1.185-4.547,3.902-4.541,6.906c0.006,3.003,1.802,5.714,4.565,6.89l248.497,105.719c0.939,0.399,1.939,0.599,2.938,0.599
	c0.999,0,1.999-0.2,2.938-0.599l38.029-16.178c3.812-1.623,5.589-6.028,3.966-9.84c-1.623-3.814-6.029-5.588-9.841-3.966
	l-35.091,14.929L26.586,362.742l105.18-45.193l121.297,51.604c0.939,0.399,1.939,0.599,2.938,0.599c0.999,0,1.999-0.2,2.938-0.599
	l121.297-51.604l105.18,45.194l-166.55,70.855c-3.812,1.623-5.589,6.028-3.966,9.84c1.622,3.814,6.028,5.588,9.841,3.966
	l182.696-77.724c2.764-1.175,4.56-3.886,4.565-6.89c0.006-3.004-1.781-5.721-4.541-6.906l-108.127-46.461l19.47-8.283
	c3.812-1.623,5.589-6.028,3.966-9.84c-1.621-3.812-6.024-5.59-9.841-3.966l-35.615,15.152l0,0l-121.312,51.611l-121.311-51.611
	c-0.005-0.002-0.009-0.003-0.014-0.005L26.586,256.495l105.18-45.193l121.297,51.604c0.939,0.399,1.939,0.599,2.938,0.599
	c0.999,0,1.999-0.2,2.938-0.599l121.297-51.604l105.179,45.194l-44.713,19.022C436.888,277.139,435.112,281.546,436.734,285.358z"/>
<g>
</g>
<g>
</g>
<g>
</g>
<g>
</g>
<g>
</g>
<g>
</g>
<g>
</g>
<g>
</g>
<g>
</g>
<g>
</g>
<g>
</g>
<g>
</g>
<g>
</g>
<g>
</g>
<g>
</g>
</svg>
