<?xml version="1.0" encoding="iso-8859-1"?>
<!-- Generator: Adobe Illustrator 19.0.0, SVG Export Plug-In . SVG Version: 6.00 Build 0)  -->
<svg version="1.1" id="Capa_1" xmlns="http://www.w3.org/2000/svg" xmlns:xlink="http://www.w3.org/1999/xlink" x="0px" y="0px"
	 viewBox="0 0 512.001 512.001" style="enable-background:new 0 0 512.001 512.001;" xml:space="preserve">
<path style="fill:#FFD039;" d="M436.96,194.726l-146.238-37.091l37.092,146.238l61.398,15.626l31.688-31.688l31.688-31.688
	L436.96,194.726z M382.347,249.261c-5.231,5.231-13.71,5.231-18.941,0c-5.231-5.231-5.231-13.71,0-18.941
	c5.231-5.231,13.71-5.231,18.941,0C387.577,235.551,387.577,244.03,382.347,249.261z"/>
<polygon style="fill:#FF434D;" points="244.714,7.438 24.548,7.438 24.548,142.806 72.428,142.806 92.929,81.817 199.139,81.817 
	199.139,444.419 112.988,444.419 112.988,504.562 244.714,504.562 376.44,504.562 376.44,444.419 290.289,444.419 290.289,81.817 
	396.499,81.817 417,142.806 464.88,142.806 464.88,7.438 "/>
<g>
	<rect x="440.091" y="7.438" style="fill:#DD3646;" width="24.794" height="135.367"/>
	<polygon style="fill:#DD3646;" points="68.135,81.817 47.634,142.806 72.428,142.806 92.929,81.817 	"/>
	<rect x="265.499" y="81.821" style="fill:#DD3646;" width="24.794" height="362.603"/>
	<rect x="351.644" y="444.424" style="fill:#DD3646;" width="24.794" height="60.141"/>
</g>
<rect x="375.042" y="282.587" transform="matrix(-0.7071 0.7071 -0.7071 -0.7071 952.464 206.3187)" style="fill:#546F7A;" width="116.919" height="35.669"/>
<polygon style="fill:#FFA304;" points="347.649,284.038 317.297,164.376 290.721,157.635 327.813,303.873 389.211,319.499 
	409.046,299.664 "/>
<rect x="384.256" y="317.812" transform="matrix(0.7071 0.7071 -0.7071 0.7071 352.4125 -187.1286)" style="fill:#475D63;" width="35.669" height="28.047"/>
<rect x="272.749" y="352.705" style="fill:#FFD039;" width="35.952" height="35.952"/>
<path d="M376.44,438.521c-4.109,0-7.438,3.329-7.438,7.438v51.164H120.426v-45.266h78.712c4.109,0,7.438-3.329,7.438-7.438V337.588
	c0-4.108-3.329-7.438-7.438-7.438c-4.109,0-7.438,3.33-7.438,7.438v99.394h-78.712c-4.109,0-7.438,3.329-7.438,7.438v60.142
	c0,4.109,3.329,7.438,7.438,7.438H376.44c4.109,0,7.438-3.329,7.438-7.438v-58.602C383.878,441.852,380.549,438.521,376.44,438.521z
	"/>
<path d="M191.7,307.836c0,4.109,3.329,7.438,7.438,7.438c4.109,0,7.438-3.329,7.438-7.438V81.817c0-4.109-3.329-7.438-7.438-7.438
	H92.929c-3.196,0-6.033,2.04-7.051,5.068l-18.797,55.919H31.986v-30.491c0-4.109-3.329-7.438-7.438-7.438s-7.438,3.329-7.438,7.438
	v37.929c0,4.109,3.329,7.438,7.438,7.438h47.879c3.195,0,6.033-2.04,7.051-5.068l18.798-55.919H191.7V307.836z"/>
<path d="M492.713,266.434l-25.223-25.223c-2.906-2.904-7.615-2.904-10.52,0l-0.402,0.402l-12.401-48.722
	c-0.673-2.643-2.737-4.705-5.38-5.375l-57.404-14.559c-3.985-1.015-8.028,1.398-9.038,5.381c-1.011,3.982,1.399,8.029,5.381,9.038
	l53.116,13.471l13.49,53.001l-57.396,57.395l-53.001-13.489l-29.358-115.744l49.296,49.296c-3.405,7.653-1.994,16.945,4.272,23.213
	c4.061,4.061,9.396,6.091,14.731,6.091c5.335,0,10.67-2.03,14.731-6.091c3.934-3.935,6.101-9.166,6.101-14.731
	c0-5.564-2.168-10.796-6.101-14.732c-6.267-6.267-15.56-7.676-23.212-4.272l-49.296-49.296l32.956,8.359
	c3.977,1.01,8.028-1.398,9.038-5.381c1.01-3.982-1.399-8.029-5.381-9.038l-53.984-13.692V89.256h93.425l18.797,55.919
	c1.018,3.029,3.856,5.068,7.051,5.068h47.879c4.109,0,7.438-3.329,7.438-7.438V7.438c0-4.108-3.329-7.438-7.438-7.438H24.548
	c-4.109,0-7.438,3.33-7.438,7.438v67.684c0,4.109,3.329,7.438,7.438,7.438s7.438-3.329,7.438-7.438V14.877h425.455v120.49h-35.093
	l-18.797-55.919c-1.018-3.029-3.856-5.068-7.051-5.068H290.289c-4.109,0-7.438,3.329-7.438,7.438V345.27h-10.104
	c-4.109,0-7.438,3.329-7.438,7.438v35.951c0,4.109,3.329,7.438,7.438,7.438h35.95c4.109,0,7.438-3.329,7.438-7.438v-35.951
	c0-4.109-3.329-7.438-7.438-7.438h-10.969V215.512l22.875,90.19c0.67,2.643,2.733,4.707,5.375,5.38l48.721,12.4l-0.402,0.402
	c-2.905,2.906-2.905,7.615,0,10.52l25.223,25.223c1.453,1.452,3.357,2.178,5.26,2.178c1.903,0,3.807-0.726,5.26-2.178l82.671-82.671
	C495.617,274.048,495.617,269.339,492.713,266.434z M301.257,381.221h-21.073v-21.074h21.073V381.221z M377.086,235.579
	c2.323,2.322,2.323,6.099,0,8.421c-2.321,2.323-6.099,2.322-8.42,0.001c-2.322-2.323-2.322-6.1,0-8.422
	c1.125-1.126,2.62-1.745,4.21-1.745C374.467,233.835,375.962,234.454,377.086,235.579z M404.781,343.846l-14.703-14.703l4.292-4.292
	c0.033-0.032,0.068-0.06,0.101-0.091l63.375-63.375c0.025-0.025,0.045-0.054,0.068-0.078l4.314-4.315l14.703,14.703L404.781,343.846
	z"/>
<g>
</g>
<g>
</g>
<g>
</g>
<g>
</g>
<g>
</g>
<g>
</g>
<g>
</g>
<g>
</g>
<g>
</g>
<g>
</g>
<g>
</g>
<g>
</g>
<g>
</g>
<g>
</g>
<g>
</g>
</svg>
