<?xml version="1.0" encoding="iso-8859-1"?>
<!-- Generator: Adobe Illustrator 19.0.0, SVG Export Plug-In . SVG Version: 6.00 Build 0)  -->
<svg version="1.1" id="Capa_1" xmlns="http://www.w3.org/2000/svg" xmlns:xlink="http://www.w3.org/1999/xlink" x="0px" y="0px"
	 viewBox="0 0 512 512" style="enable-background:new 0 0 512 512;" xml:space="preserve">
<g>
	<rect x="7.952" y="7.492" style="fill:#FFD039;" width="58.615" height="58.615"/>
	<rect x="445.429" y="7.492" style="fill:#FFD039;" width="58.615" height="58.615"/>
	<rect x="7.952" y="445.888" style="fill:#FFD039;" width="58.615" height="58.615"/>
	<rect x="445.429" y="445.888" style="fill:#FFD039;" width="58.615" height="58.615"/>
</g>
<g>
	<rect x="66.568" y="66.109" style="fill:#546F7A;" width="75.958" height="75.958"/>
	<rect x="218.025" y="66.109" style="fill:#546F7A;" width="75.958" height="75.958"/>
	<rect x="369.471" y="66.109" style="fill:#546F7A;" width="75.958" height="75.958"/>
	<rect x="142.296" y="142.067" style="fill:#546F7A;" width="75.958" height="75.958"/>
	<rect x="293.753" y="142.067" style="fill:#546F7A;" width="75.958" height="75.958"/>
	<rect x="66.568" y="218.025" style="fill:#546F7A;" width="75.958" height="75.958"/>
	<rect x="218.025" y="218.025" style="fill:#546F7A;" width="75.958" height="75.958"/>
	<rect x="369.471" y="218.025" style="fill:#546F7A;" width="75.958" height="75.958"/>
	<rect x="142.296" y="293.982" style="fill:#546F7A;" width="75.958" height="75.958"/>
	<rect x="293.753" y="293.982" style="fill:#546F7A;" width="75.958" height="75.958"/>
	<rect x="66.568" y="369.93" style="fill:#546F7A;" width="75.958" height="75.958"/>
	<rect x="218.025" y="369.93" style="fill:#546F7A;" width="75.958" height="75.958"/>
	<rect x="369.471" y="369.93" style="fill:#546F7A;" width="75.958" height="75.958"/>
</g>
<g>
	<rect x="142.296" y="218.025" style="fill:#E0E0E0;" width="75.958" height="75.958"/>
	<rect x="293.753" y="218.025" style="fill:#E0E0E0;" width="75.958" height="75.958"/>
	<rect x="66.568" y="293.982" style="fill:#E0E0E0;" width="75.958" height="75.958"/>
	<rect x="218.025" y="293.982" style="fill:#E0E0E0;" width="75.958" height="75.958"/>
	<rect x="369.471" y="293.982" style="fill:#E0E0E0;" width="75.958" height="75.958"/>
	<rect x="142.296" y="369.93" style="fill:#E0E0E0;" width="75.958" height="75.958"/>
	<rect x="293.753" y="369.93" style="fill:#E0E0E0;" width="75.958" height="75.958"/>
	<rect x="142.296" y="66.109" style="fill:#E0E0E0;" width="75.958" height="75.958"/>
	<rect x="293.753" y="66.109" style="fill:#E0E0E0;" width="75.958" height="75.958"/>
	<rect x="66.568" y="142.067" style="fill:#E0E0E0;" width="75.958" height="75.958"/>
	<rect x="218.025" y="142.067" style="fill:#E0E0E0;" width="75.958" height="75.958"/>
	<rect x="369.471" y="142.067" style="fill:#E0E0E0;" width="75.958" height="75.958"/>
</g>
<path d="M445.433,248.836c4.139,0,7.492-3.353,7.492-7.492v-23.324v-75.958V73.599h51.123c4.139,0,7.492-3.354,7.492-7.492V7.492
	c0-4.138-3.353-7.492-7.492-7.492h-58.615c-4.139,0-7.492,3.354-7.492,7.492v51.123h-68.236h-0.229h-75.497h-0.23h-75.496h-0.23
	h-75.497h-0.229H74.06V7.492C74.06,3.354,70.707,0,66.568,0H7.952C3.814,0,0.461,3.354,0.461,7.492v58.615
	c0,4.138,3.353,7.492,7.492,7.492h51.123v17.889c0,4.139,3.353,7.492,7.492,7.492c4.139,0,7.492-3.353,7.492-7.492V73.599h60.744
	v60.973H74.059v-13.117c0-4.139-3.353-7.492-7.492-7.492s-7.492,3.353-7.492,7.492v20.609v75.958v75.957v22.995
	c0,4.139,3.353,7.492,7.492,7.492s7.492-3.353,7.492-7.492V301.47h60.744v60.973H74.059V346.94c0-4.139-3.353-7.492-7.492-7.492
	s-7.492,3.353-7.492,7.492v22.995v68.465H7.952c-4.139,0-7.492,3.353-7.492,7.492v58.616c0,4.139,3.353,7.492,7.492,7.492h58.615
	c4.139,0,7.492-3.353,7.492-7.492v-51.124h68.236h0.229h75.497h0.23h75.496h0.23h75.497h0.229h68.236v51.124
	c0,4.139,3.353,7.492,7.492,7.492h58.615c4.139,0,7.492-3.353,7.492-7.492v-58.616c0-4.139-3.353-7.492-7.492-7.492h-51.123v-68.465
	v-75.957v-22.666c0-4.139-3.353-7.492-7.492-7.492c-4.139,0-7.492,3.353-7.492,7.492v15.174h-60.744v-60.973h60.744v15.832
	C437.941,245.483,441.295,248.836,445.433,248.836z M452.925,14.984h43.631v43.631h-43.631V14.984z M437.941,134.572h-60.744V73.599
	h60.744V134.572z M437.941,438.401h-60.744v-60.973h60.744V438.401z M150.016,225.513h60.514v60.973h-60.514V225.513z
	 M225.743,225.513h60.513v60.973h-60.513V225.513z M301.47,225.513h60.514v60.973H301.47V225.513z M361.984,210.53H301.47v-60.974
	h60.514V210.53z M286.256,210.53h-60.513v-60.974h60.513V210.53z M210.53,210.53h-60.514v-60.974h60.514V210.53z M150.016,301.47
	h60.514v60.973h-60.514V301.47z M225.743,301.47h60.513v60.973h-60.513V301.47z M301.47,301.47h60.514v60.973H301.47V301.47z
	 M361.984,134.572H301.47V73.599h60.514V134.572z M286.256,134.572h-60.513V73.599h60.513V134.572z M210.53,134.572h-60.514V73.599
	h60.514V134.572z M150.016,377.427h60.514v60.973h-60.514V377.427z M225.743,377.427h60.513v60.973h-60.513V377.427z
	 M301.47,377.427h60.514v60.973H301.47V377.427z M15.444,14.984h43.631v43.631H15.444V14.984z M134.802,149.555v60.974H74.058
	v-60.974L134.802,149.555L134.802,149.555z M74.059,225.513h60.744v60.973H74.059C74.059,286.487,74.059,225.513,74.059,225.513z
	 M59.075,497.016H15.444v-43.632h43.631V497.016z M74.059,377.427h60.744v60.973H74.059
	C74.059,438.401,74.059,377.427,74.059,377.427z M496.556,497.016h-43.631v-43.632h43.631V497.016z M437.941,362.444h-60.744V301.47
	h60.744V362.444z M377.197,210.53v-60.974h60.744v60.974L377.197,210.53L377.197,210.53z"/>
<g>
</g>
<g>
</g>
<g>
</g>
<g>
</g>
<g>
</g>
<g>
</g>
<g>
</g>
<g>
</g>
<g>
</g>
<g>
</g>
<g>
</g>
<g>
</g>
<g>
</g>
<g>
</g>
<g>
</g>
</svg>
