<svg width="291" height="313" viewBox="0 0 291 313" fill="none" xmlns="http://www.w3.org/2000/svg">
<path d="M103.9 278.6L103.2 308L154.2 308.5C154.2 308.5 154.5 302.5 144.8 298C135.1 293.5 133.1 275.7 133.1 275.7L103.9 278.6Z" fill="#FF3E6C"/>
<path d="M155 309.2L102.5 308.7L103.2 277.9L133.8 274.9L133.9 275.6C133.9 275.8 136 293 145.2 297.3C155.2 301.9 155.1 308.2 155.1 308.5L155 309.2ZM104 307.2L153.4 307.7C153.1 306.1 151.7 302 144.5 298.7C135.6 294.6 133 280 132.5 276.6L104.7 279.4L104 307.2Z" fill="#FF3E6C"/>
<path d="M12.1998 266.2L1.2998 293.5L48.8998 311.7C48.8998 311.7 51.1998 306.2 43.6998 298.6C36.1998 291 40.4998 273.6 40.4998 273.6L12.1998 266.2Z" fill="#FF3E6C"/>
<path d="M49.3999 312.7L0.399902 293.9L11.7999 265.3L41.4999 273.1L41.2999 273.8C41.2999 274 37.1999 290.9 44.2999 298.1C52.0999 305.9 49.6999 311.8 49.5999 312L49.3999 312.7ZM2.29991 293L48.3999 310.7C48.6999 309.1 48.7999 304.7 43.1999 299.1C36.2999 292.1 38.8999 277.6 39.5999 274.2L12.5999 267.1L2.29991 293Z" fill="#FF3E6C"/>
<path d="M49 146.5C40.7 160.3 37.2 198.8 28 218.5C18.8 238.2 8 270 8 270L45.8 286C45.8 286 71.5 228.5 74.4 198.5C77.3 168.5 76.6 142.5 76.6 142.5L49 146.5Z" fill="#030047"/>
<path d="M65 161.5C65.8 177.5 86.3 207.7 89.6 229.3C92.9 250.9 101.5 289.8 101.5 289.8L141.8 282.2C141.8 282.2 136.5 221.8 119 184.5C106.2 157.2 87.8 139.1 87.8 139.1L65 161.5Z" fill="#030047"/>
<path d="M73.3998 187.5C73.0998 187.5 72.8998 187.4 72.6998 187.1L70.1998 182.6L62.6998 179.9C62.2998 179.8 62.0998 179.3 62.1998 178.9C62.2998 178.5 62.7998 178.3 63.1998 178.4L71.1998 181.2L73.8998 186.2C74.0998 186.6 73.9998 187 73.5998 187.2C73.6998 187.5 73.4998 187.5 73.3998 187.5Z" fill="white"/>
<path d="M40.4001 288.8C38.9001 289.6 37.3001 290.5 35.8001 291.3C35.2001 291.6 35.7001 292.5 36.3001 292.2C37.8001 291.4 39.4001 290.5 40.9001 289.7C41.4001 289.3 40.9001 288.4 40.4001 288.8Z" fill="#030047"/>
<path d="M41.1 291.9C39.9 292.9 38.6 293.8 37.4 294.8C36.9 295.2 37.4 296.1 37.9 295.7L41.6 292.8C42.1 292.4 41.6 291.5 41.1 291.9Z" fill="#030047"/>
<path d="M138.4 290.7C137.8 292 137.2 293.2 136.5 294.5C136.2 295.1 137.1 295.6 137.4 295L139.3 291.2C139.6 290.6 138.7 290.1 138.4 290.7Z" fill="#030047"/>
<path d="M141.3 294C140.7 295.3 140.1 296.5 139.4 297.8C139.1 298.4 140 298.9 140.3 298.3L142.2 294.5C142.4 294 141.6 293.5 141.3 294Z" fill="#030047"/>
<path d="M134 281C133.6 281 133.3 280.7 133.3 280.3C131.7 222.3 97.1998 159.2 96.8998 158.6C96.6998 158.2 96.7998 157.8 97.1998 157.6C97.5998 157.4 97.9998 157.5 98.1998 157.9C98.4998 158.5 133.1 221.9 134.8 280.3C134.7 280.6 134.4 280.9 134 281Z" fill="white"/>
<path d="M103.8 171.5C103.7 171.5 103.6 171.5 103.5 171.5C103.1 171.4 102.9 170.9 103.1 170.5C105 165.4 102.7 158.4 102.7 158.3C102.6 157.9 102.8 157.5 103.2 157.3C103.6 157.2 104 157.4 104.2 157.8C104.3 158.1 106.8 165.4 104.6 171C104.4 171.3 104.1 171.5 103.8 171.5Z" fill="white"/>
<path d="M124.9 70.9C120.8 68.8 116.6 66.6 112.8 64.6C112.3 64.3 111.7 64.1 111.1 64C112.3 61.5 113.6 59.1 114.8 56.8L115.1 56.3C121.6 44 128.2 42.2 131 42.1L124.9 70.9Z" fill="white"/>
<path d="M130.1 43L124.4 69.8C120.5 67.8 116.7 65.8 113.2 63.9C112.9 63.7 112.6 63.6 112.2 63.5C113.3 61.3 114.4 59.2 115.5 57.1L115.7 56.6C121.5 46 127.1 43.5 130.1 43ZM131.4 41.4C128 41.4 121.2 43.5 114.5 56C113.1 58.7 111.5 61.6 110.1 64.6C110.1 64.6 110.1 64.6 110.2 64.6C111 64.6 111.8 64.8 112.6 65.2C116.9 67.5 121.2 69.8 125.5 72L132 41.4C131.8 41.4 131.6 41.4 131.4 41.4Z" fill="#030047"/>
<path d="M112.4 59.8C106.3 71.7 100.8 86.8 90.5 91.9C90.5 91.9 105.7 103.8 113.5 100.3C120.2 97.3 127.7 70.9 128.5 68.9C124.6 65.5 117.1 62 112.4 59.8Z" fill="#FF3E6C"/>
<path d="M98.6998 58.5999C101.8 65.9999 102 73.9 92.2997 77C85.6997 79.1 77.7997 75.9999 74.6997 68.5999C71.5997 61.1999 74.4998 53 81.0998 50.2C87.6998 47.5 95.5998 51.1999 98.6998 58.5999Z" fill="white"/>
<path d="M88.0996 78.4C82.1996 78.4 76.3996 74.8 73.9996 68.9C72.3996 65.2 72.2996 61.1 73.4996 57.4C74.7996 53.7 77.3996 50.9 80.7996 49.5C84.1996 48.1 87.9996 48.2 91.4996 49.9C94.9996 51.6 97.7996 54.5 99.2996 58.3C101.5 63.6 101.8 68.1 100.3 71.5C98.9996 74.4 96.2996 76.4 92.4996 77.7C90.9996 78.2 89.4996 78.4 88.0996 78.4ZM85.5996 50.1C84.0996 50.1 82.6996 50.4 81.2996 51C78.2996 52.3 75.9996 54.7 74.8996 58C73.7996 61.3 73.8996 65 75.2996 68.4C78.3996 75.7001 86.1996 78.2 91.9996 76.3C95.4996 75.2 97.7996 73.4 98.8996 70.9C100.3 67.9 99.9996 63.8 97.8996 58.9C96.4996 55.5 93.9996 52.8 90.7996 51.3C89.1996 50.5 87.3996 50.1 85.5996 50.1Z" fill="#030047"/>
<path d="M93.1997 58.9C93.752 58.9 94.1997 58.4523 94.1997 57.9C94.1997 57.3477 93.752 56.9 93.1997 56.9C92.6474 56.9 92.1997 57.3477 92.1997 57.9C92.1997 58.4523 92.6474 58.9 93.1997 58.9Z" fill="#030047"/>
<path d="M93.8998 48.6C93.8998 42 82.9998 49.4 81.0998 50.3C75.1998 51.4 69.9998 59.2 71.7998 66.1C73.2998 72 80.0998 79 83.6998 77.3C89.5998 73.8 90.4998 68 87.7998 62.5C88.7998 61.3 87.5998 59.5 88.0998 58.1C88.7998 55.8 93.9998 50.9 93.8998 48.6Z" fill="#030047"/>
<path d="M85.6996 61.9C74.6996 60.9 75.9996 69.7 80.0996 71.7C83.4996 73.3 88.6996 72.7 90.7996 67.7C92.8996 62.8 85.6996 61.9 85.6996 61.9Z" fill="white"/>
<path d="M86.6998 65.7C84.5998 64.6 81.9998 65.1 80.4998 67C80.0998 67.5 80.7998 68.2 81.1998 67.7C82.3998 66.2 84.4998 65.7 86.1998 66.6C86.7998 66.8 87.2998 66 86.6998 65.7Z" fill="#030047"/>
<path d="M99.4997 61C98.3997 59.1 96.9997 57.3 95.2997 55.8C94.7997 55.4 94.0997 56.1 94.5997 56.5C96.1997 58 97.4997 59.6 98.5997 61.5C98.9997 62.1 99.7997 61.6 99.4997 61Z" fill="#030047"/>
<path d="M85.1 85.6C69.5 82.2 63.2 89.6 57.6 112.4C52 135.2 42 148.4 42 148.4C42 148.4 87.4 161.2 106.7 158.4C106.6 158.5 118.2 92.8 85.1 85.6Z" fill="#FF3E6C"/>
<path d="M72.7002 88.3L74.3002 80.4L95.6002 82.8L93.0002 92.4L72.7002 88.3Z" fill="#FF3E6C"/>
<path d="M176.2 30.3C175.9 30.3 175.7 30.1 175.5 29.9L167.4 13.6L151.8 21.6C151.4 21.8 151 21.6 150.8 21.3C150.6 20.9 150.8 20.5 151.1 20.3L168 11.6L176.7 29.2C176.9 29.6 176.7 30 176.4 30.2C176.4 30.3 176.3 30.3 176.2 30.3Z" fill="#030047"/>
<path d="M138.885 15.5912L121.009 66.972L171.635 84.585L189.51 33.2042L138.885 15.5912Z" fill="white"/>
<path d="M172 85.5L120 67.4L138.4 14.6L190.4 32.7L172 85.5ZM121.9 66.5L171.1 83.6L188.5 33.6L139.3 16.5L121.9 66.5Z" fill="#030047"/>
<path d="M138.888 15.6285L136.062 23.7512L186.688 41.3641L189.514 33.2414L138.888 15.6285Z" fill="#030047"/>
<path d="M192.475 41.8926L189.075 40.7096L180.959 64.0388L184.359 65.2217L192.475 41.8926Z" fill="#030047"/>
<path d="M164.8 61.7L146.3 55.3C144.6 54.7 143.7 52.9 144.3 51.2L145.3 48.4C145.9 46.7 147.7 45.8 149.4 46.4L167.9 52.8C169.6 53.4 170.5 55.2 169.9 56.9L168.9 59.7C168.3 61.4 166.5 62.3 164.8 61.7Z" fill="#030047"/>
<path d="M170.1 49.2C170 49.2 169.9 49.2 169.9 49.2L151.4 42.8C151 42.7 150.8 42.2 150.9 41.8C151 41.4 151.5 41.2 151.9 41.3L170.4 47.7C170.8 47.8 171 48.3 170.9 48.7C170.7 49.1 170.4 49.2 170.1 49.2Z" fill="#030047"/>
<path d="M171.4 45.4C171.3 45.4 171.2 45.4 171.2 45.4L152.7 39C152.3 38.9 152.1 38.4 152.2 38C152.3 37.6 152.8 37.4 153.2 37.5L171.7 43.9C172.1 44 172.3 44.5 172.2 44.9C172 45.2 171.7 45.4 171.4 45.4Z" fill="#030047"/>
<path d="M181.5 28.1C182.77 28.1 183.8 27.0702 183.8 25.8C183.8 24.5297 182.77 23.5 181.5 23.5C180.23 23.5 179.2 24.5297 179.2 25.8C179.2 27.0702 180.23 28.1 181.5 28.1Z" fill="#FF3E6C"/>
<path d="M181.5 28.8C179.8 28.8 178.5 27.4 178.5 25.8C178.5 24.2 179.9 22.8 181.5 22.8C183.1 22.8 184.5 24.2 184.5 25.8C184.5 27.4 183.2 28.8 181.5 28.8ZM181.5 24.3C180.7 24.3 180 25 180 25.8C180 26.6 180.7 27.3 181.5 27.3C182.3 27.3 183 26.6 183 25.8C183 25 182.4 24.3 181.5 24.3Z" fill="#FF3E6C"/>
<path d="M188 30.2C189.27 30.2 190.3 29.1703 190.3 27.9C190.3 26.6298 189.27 25.6 188 25.6C186.73 25.6 185.7 26.6298 185.7 27.9C185.7 29.1703 186.73 30.2 188 30.2Z" fill="#FF3E6C"/>
<path d="M188 30.9C186.3 30.9 185 29.5 185 27.9C185 26.3 186.4 24.9 188 24.9C189.6 24.9 191 26.3 191 27.9C191 29.5 189.7 30.9 188 30.9ZM188 26.4C187.2 26.4 186.5 27.1 186.5 27.9C186.5 28.7 187.2 29.4 188 29.4C188.8 29.4 189.5 28.7 189.5 27.9C189.5 27.1 188.9 26.4 188 26.4Z" fill="#FF3E6C"/>
<path d="M121.5 63.9C128.5 59.7 128.4 49.3 128.4 49.3C128.4 49.3 133.4 44.7 131.4 43C129.4 41.3 124.9 45.3 120.9 52.5" fill="white"/>
<path d="M121.5 64.7C121.2 64.7 121 64.6 120.9 64.3C120.7 63.9 120.8 63.5 121.2 63.3C127.8 59.4 127.8 49.4 127.8 49.3V49L128 48.8C129.3 47.6 131.3 45.3 131.2 44.1C131.2 43.9 131.1 43.8 131 43.7C130.8 43.5 130.5 43.5 130.1 43.5C128.3 43.9 125 46.9 121.6 53C121.4 53.4 120.9 53.5 120.6 53.3C120.2 53.1 120.1 52.6 120.3 52.3C123.5 46.5 127.1 42.6 129.8 42.1C130.6 41.9 131.4 42.1 131.9 42.6C132.4 43 132.6 43.5 132.6 44.1C132.7 46.1 130 48.9 129.1 49.7C129.1 51.6 128.5 60.7 121.8 64.6C121.8 64.7 121.7 64.7 121.5 64.7Z" fill="#030047"/>
<path d="M180.3 75.7C181 74 181 71.5 179.9 70.9C179.9 70.9 179.7 69.5 179.9 68C180.1 66.5 178.3 63.7 174.9 68C171.5 72.3 165.7 73 165.7 73L166.2 69.8C166.2 69.8 169.2 66.4 169.6 64.8C170.2 62.7 167.6 61.7 162.7 65.4C156.9 69.8 151.6 76.5 146.6 82.5C151.5 87.7 156.1 93.1 160.2 98.9C162.4 95.8 164.4 93.6 166.7 93C176.6 90.7 178.7 83.3 180.4 80.4C182 77.5 180.3 75.7 180.3 75.7Z" fill="white"/>
<path d="M160.1 100.2L159.5 99.3C155.7 93.9 151.3 88.6 146 83L145.5 82.5L145.9 82C146.6 81.1 147.4 80.3 148.1 79.4C152.6 74.1 157.2 68.6 162.2 64.8C165.4 62.4 168 61.5 169.5 62.5C170.2 63 170.5 63.9 170.2 64.9C169.8 66.4 167.4 69.3 166.8 70L166.5 71.9C168.2 71.5 171.9 70.3 174.2 67.4C176.4 64.7 178 64.6 179 65C180.2 65.5 180.7 66.9 180.5 68C180.4 69 180.4 69.9 180.5 70.4C181.7 71.4 181.6 73.8 181 75.5C181.5 76.3 182.2 78.1 180.7 80.7C180.5 81.1 180.2 81.6 179.9 82.2C178.2 85.7 175.3 91.5 166.6 93.6C164.5 94.1 162.4 96.6 160.6 99.2L160.1 100.2ZM147.6 82.5C152.4 87.7 156.6 92.6 160.2 97.6C162.3 94.8 164.3 92.8 166.5 92.3C174.6 90.4 177.1 85.2 178.8 81.7C179.1 81.1 179.4 80.5 179.7 80.1C181.1 77.7 179.9 76.3 179.9 76.3L179.6 76L179.8 75.6C180.5 73.9 180.3 72 179.8 71.8L179.5 71.6L179.4 71.2C179.4 71.1 179.1 69.6 179.4 68C179.5 67.5 179.2 66.8 178.7 66.6C178 66.3 176.9 67 175.7 68.5C172.1 73 166.2 73.7 166 73.8L165 73.9L165.6 69.5L165.7 69.3C166.8 68 168.7 65.6 169 64.6C169.1 64.3 169.1 64 168.9 63.8C168.4 63.5 166.6 63.5 163.3 66C158.4 69.7 153.9 75.1 149.5 80.4C148.7 81.1 148.2 81.8 147.6 82.5Z" fill="#030047"/>
<path d="M151.7 76.5C144.8 84.6 138.4 93.1 132 94.9C122.5 97.7 99.7997 85.2 85.5997 87.5L82.1997 116.6C82.1997 116.6 102.8 130 126.6 128.1C147.2 126.4 156.6 101.3 163.4 94.9C161 88 157.3 81.8 151.7 76.5Z" fill="#FF3E6C"/>
<path d="M121.9 129.1C100.2 129.1 81.9999 117.4 81.7999 117.3L81.3999 117L84.8999 86.9L85.4999 86.8C92.9999 85.5 102.6 88.3 111.8 90.9C119.8 93.2 127.4 95.4 131.8 94.1C137 92.6 142.4 86.1 148.2 79.3C149.2 78.2 150.1 77 151.1 75.9L151.6 75.3L152.2 75.8C157.5 80.9 161.4 87.1 164.1 94.6L164.3 95.1L163.9 95.4C162.2 97 160.2 100.1 157.9 103.5C151.3 113.6 142.2 127.5 126.7 128.8C125.1 129 123.5 129.1 121.9 129.1ZM83.0999 116.3C85.9999 118.1 105.1 129.2 126.6 127.4C141.4 126.2 150.2 112.7 156.7 102.8C158.9 99.5 160.8 96.5 162.6 94.7C160.1 87.9 156.6 82.2 151.8 77.5C151 78.4 150.2 79.4 149.4 80.3C143.5 87.3 137.9 93.9 132.3 95.6C127.5 97 119.7 94.7 111.4 92.4C103 90 93.4999 87.2 86.2999 88.2L83.0999 116.3Z" fill="#FF3E6C"/>
<path d="M117.7 94.1C117.6 94.1 117.6 94.1 117.5 94.1C115.7 93.7 113.9 93 112 92.2C108.4 90.8 104.2 89.2 98.3001 88.9C97.9001 88.9 97.6001 88.5 97.6001 88.1C97.6001 87.7 98.0001 87.4 98.4001 87.4C104.5 87.7 108.8 89.3 112.6 90.8C114.4 91.5 116.2 92.2 117.9 92.6C118.3 92.7 118.6 93.1 118.5 93.5C118.4 93.9 118.1 94.1 117.7 94.1Z" fill="white"/>
<path d="M104.5 126.2C104.4 126.2 104.3 126.2 104.2 126.1C104.2 126.1 99.3998 123.9 94.4998 124C94.0998 124 93.7998 123.7 93.7998 123.3C93.7998 122.9 94.0998 122.5 94.4998 122.5C99.6998 122.4 104.6 124.6 104.8 124.7C105.2 124.9 105.3 125.3 105.2 125.7C105 126 104.7 126.2 104.5 126.2Z" fill="#030047"/>
<path d="M178.7 70C177.8 73 175.6 75.4 172.6 76.7C172 77 172.5 77.8 173.1 77.6C176.3 76.2 178.6 73.6 179.6 70.3C179.9 69.6 178.9 69.4 178.7 70Z" fill="#030047"/>
<path d="M178.7 76.8C177.8 78.9 176.3 80.6 174.3 81.6C173.7 81.9 174.2 82.8 174.8 82.5C177.1 81.3 178.7 79.4 179.7 77.1C179.9 76.5 178.9 76.2 178.7 76.8Z" fill="#030047"/>
<path d="M237 126.2C236.8 126.2 236.7 126.1 236.5 126L218 111.2L200.8 126C200.5 126.3 200 126.2 199.7 125.9C199.4 125.6 199.5 125.1 199.8 124.8L218 109.2L237.5 124.8C237.8 125.1 237.9 125.5 237.6 125.9C237.4 126.1 237.2 126.2 237 126.2Z" fill="#030047"/>
<path d="M256.3 124.4H181V186.8H256.3V124.4Z" fill="white"/>
<path d="M257.1 187.5H180.3V123.6H257.1V187.5ZM181.8 186H255.6V125.1H181.8V186Z" fill="#030047"/>
<path d="M256.3 164.4V186.8H181V144.5C200 142.2 217.2 147.8 219.9 164.5H256.3V164.4Z" fill="#030047"/>
<path d="M266.3 17.2C266.1 17.2 266 17.1 265.8 17L247.3 2.20001L230.1 17C229.8 17.3 229.3 17.2 229 16.9C228.7 16.6 228.8 16.1 229.1 15.8L247.3 0.200012L266.8 15.8C267.1 16.1 267.2 16.5 266.9 16.9C266.8 17.1 266.5 17.2 266.3 17.2Z" fill="#030047"/>
<path d="M289.4 14H204.8V84.2H289.4V14Z" fill="white"/>
<path d="M290.2 84.9H204.1V13.2H290.2V84.9ZM205.6 83.4H288.7V14.7H205.6V83.4Z" fill="#030047"/>
<path d="M247.2 25.2L238.5 75.7L204.8 56.6V35.9L247.2 25.2Z" fill="white"/>
<path d="M239.1 76.8L204.1 57.1V35.4L248.1 24.2L239.1 76.8ZM205.6 56.2L237.9 74.5L246.2 26.2L205.6 36.5V56.2Z" fill="#030047"/>
<path d="M274.9 84.1H260.6L253.1 71.1L263.8 64.9L274.9 84.1Z" fill="#030047"/>
<path d="M194.4 113.9C194.1 113.9 193.9 113.8 193.7 113.5L188.1 103.5C187.9 103.1 188 102.7 188.4 102.5C188.8 102.3 189.2 102.4 189.4 102.8L195 112.8C195.2 113.2 195.1 113.6 194.7 113.8C194.7 113.9 194.6 113.9 194.4 113.9Z" fill="#030047"/>
<path d="M186.6 111.7C186.3 111.7 186.1 111.6 185.9 111.3C185.7 110.9 185.8 110.5 186.2 110.3L196.2 104.7C196.6 104.5 197 104.6 197.2 105C197.4 105.4 197.3 105.8 196.9 106L186.9 111.6C186.9 111.6 186.7 111.7 186.6 111.7Z" fill="#030047"/>
<path d="M167.7 146.3H152.7C152.3 146.3 151.9 146 151.9 145.5C151.9 145 152.2 144.7 152.7 144.7H167.7C168.1 144.7 168.5 145 168.5 145.5C168.5 146 168.1 146.3 167.7 146.3Z" fill="#030047"/>
<path d="M160.2 158C159.9 158 159.7 157.8 159.5 157.6C159.3 157.2 159.5 156.8 159.8 156.6L167.3 152.8C167.7 152.6 168.1 152.8 168.3 153.1C168.5 153.5 168.3 153.9 168 154.1L160.5 157.9C160.5 158 160.3 158 160.2 158Z" fill="#030047"/>
</svg>
