<?xml version="1.0" encoding="iso-8859-1"?>
<!-- Generator: Adobe Illustrator 19.0.0, SVG Export Plug-In . SVG Version: 6.00 Build 0)  -->
<svg version="1.1" id="Capa_1" xmlns="http://www.w3.org/2000/svg" xmlns:xlink="http://www.w3.org/1999/xlink" x="0px" y="0px"
	 viewBox="0 0 512 512" style="enable-background:new 0 0 512 512;" xml:space="preserve">
<path style="fill:#E0E0E0;" d="M504.451,147.372H7.549v287.561c0.721,26.66,22.544,48.055,49.378,48.055h398.145
	c26.834,0,48.657-21.395,49.378-48.055L504.451,147.372L504.451,147.372z"/>
<g>
	<path style="fill:#C6C5CA;" d="M110.522,371.249c-3.302-0.834-6.57-2.01-9.758-3.544l107.008-220.333h-25.049L75.714,367.705
		C86.991,373.133,99.264,374.076,110.522,371.249z"/>
	<path style="fill:#C6C5CA;" d="M317.529,343.664c10.787,22.41,35.69,33.449,58.901,27.584
		c-14.298-3.589-26.959-13.263-33.852-27.584l-86.364-177.85c-0.071,0.001-0.142,0.004-0.214,0.005l-12.431,25.537L317.529,343.664z
		"/>
	<path style="fill:#C6C5CA;" d="M504.451,147.372h-76.606v21.322v216.004c28.038,0,50.835,22.371,51.557,50.234
		c-0.721,26.66-22.544,48.055-49.378,48.055h25.049c26.834,0,48.657-21.395,49.378-48.055
		C503.73,407.068,504.451,147.372,504.451,147.372z"/>
</g>
<circle style="fill:#FFD039;" cx="255.259" cy="114.764" r="51.076"/>
<path style="fill:#FFA304;" d="M255.256,63.688c-4.322,0-8.517,0.542-12.524,1.552c22.152,5.585,38.55,25.637,38.55,49.523
	s-16.399,43.938-38.55,49.523c4.008,1.01,8.202,1.552,12.524,1.552c28.208,0,51.076-22.867,51.076-51.075
	S283.464,63.688,255.256,63.688z"/>
<g>
	<path style="fill:#919191;" d="M59.105,384.697V65.512c-28.493,0-51.591,23.098-51.591,51.591v319.185
		C7.515,407.795,30.613,384.697,59.105,384.697z"/>
	<path style="fill:#919191;" d="M452.895,384.697V65.512c28.493,0,51.591,23.098,51.591,51.591v319.185
		C504.485,407.795,481.387,384.697,452.895,384.697z"/>
</g>
<path style="fill:#546F7A;" d="M255.256,165.839c-18.834,0-35.275-10.201-44.131-25.373L100.763,367.705
	c25.598,12.321,56.338,1.558,68.659-24.04L256,165.82C255.752,165.823,255.506,165.839,255.256,165.839z"/>
<path style="fill:#475D63;" d="M255.256,165.838c-7.617,0-14.842-1.669-21.333-4.661l-89.549,182.487
	c-6.893,14.322-19.554,23.995-33.852,27.585c23.211,5.864,48.114-5.175,58.901-27.585L256,165.82
	C255.752,165.824,255.506,165.838,255.256,165.838z"/>
<path style="fill:#546F7A;" d="M300.301,138.847c-8.465,15.798-24.995,26.615-44.086,26.968l86.364,177.85
	c12.321,25.598,43.061,36.361,68.659,24.04L300.301,138.847z"/>
<path style="fill:#475D63;" d="M389.514,372.793c7.304-0.078,14.707-1.71,21.722-5.088L300.299,138.847
	c-3.885,7.251-9.473,13.447-16.224,18.07L389.514,372.793z"/>
<path d="M512,117.103c0-32.591-26.515-59.105-59.104-59.105c-4.151,0-7.515,3.365-7.515,7.515v74.344h-136.24l-0.493-1.016
	c3.328-7.35,5.197-15.497,5.197-24.077c0-29.759-22.308-54.39-51.076-58.091V29.014c0-4.15-3.364-7.515-7.515-7.515
	c-4.15,0-7.515,3.365-7.515,7.515v27.658c-28.768,3.702-51.076,28.332-51.076,58.091c0,8.976,2.034,17.482,5.657,25.093H66.62
	V65.512c0-4.15-3.365-7.515-7.515-7.515C26.515,57.997,0,84.512,0,117.103v319.185c0,0.555,0.064,1.094,0.178,1.615
	c1.038,13.83,7.021,26.679,17.02,36.433c10.688,10.424,24.796,16.165,39.729,16.165h398.145c14.932,0,29.042-5.74,39.729-16.165
	c10.001-9.754,15.982-22.603,17.02-36.433c0.114-0.521,0.178-1.06,0.178-1.615L512,117.103L512,117.103z M374.412,362.813
	c-11.074-3.878-19.974-11.835-25.073-22.431l-81.75-168.346c5.956-1.282,11.572-3.474,16.708-6.419
	c0.26-0.148,0.519-0.296,0.777-0.447c0.394-0.234,0.784-0.474,1.172-0.716c0.409-0.255,0.813-0.515,1.215-0.781
	c0.276-0.181,0.551-0.363,0.824-0.549c0.639-0.437,1.27-0.886,1.893-1.348c0.045-0.033,0.091-0.065,0.135-0.098
	c3.182-2.375,6.134-5.073,8.793-8.069l101.803,210.015C392.257,366.097,383.074,365.845,374.412,362.813z M254.582,234.753
	c-4.15,0-7.515,3.365-7.515,7.515v15.334h-27.392l36.423-74.819l36.332,74.819h-30.335v-15.334
	C262.097,238.118,258.733,234.753,254.582,234.753z M255.256,71.203c24.019,0,43.56,19.541,43.56,43.561
	c0,7.738-2.038,15.006-5.59,21.312c-0.254,0.453-0.511,0.905-0.781,1.347c-0.255,0.418-0.524,0.828-0.794,1.236
	c-0.18,0.275-0.364,0.547-0.551,0.818c-0.293,0.423-0.587,0.845-0.895,1.256c-0.138,0.186-0.285,0.366-0.426,0.549
	c-0.599,0.779-1.224,1.536-1.875,2.271c-0.19,0.215-0.378,0.433-0.572,0.644c-0.336,0.366-0.679,0.723-1.027,1.077
	c-0.253,0.257-0.51,0.508-0.769,0.758c-0.321,0.311-0.64,0.624-0.971,0.926c-0.558,0.507-1.127,1.001-1.71,1.478
	c-0.23,0.189-0.469,0.369-0.703,0.553c-0.475,0.373-0.954,0.738-1.443,1.09c-0.201,0.145-0.403,0.29-0.606,0.431
	c-6.957,4.83-15.284,7.629-24.03,7.791h-0.001c-0.046,0.001-0.091,0.002-0.126,0.003c-0.01,0-0.019,0.002-0.028,0.002
	c-0.008,0-0.016-0.001-0.024-0.001l-0.64,0.018c-0.892,0-1.779-0.034-2.663-0.089c-0.2-0.012-0.398-0.031-0.597-0.045
	c-0.753-0.057-1.505-0.13-2.251-0.226c-0.119-0.015-0.239-0.029-0.359-0.046c-8.392-1.154-16.25-4.749-22.603-10.229
	c-0.058-0.05-0.116-0.1-0.174-0.151c-0.666-0.58-1.317-1.18-1.948-1.803c-0.019-0.019-0.039-0.037-0.058-0.056
	c-0.613-0.606-1.205-1.236-1.785-1.88c-0.165-0.184-0.325-0.374-0.486-0.561c-0.391-0.45-0.772-0.909-1.145-1.377
	c-0.195-0.245-0.391-0.49-0.581-0.739c-0.403-0.527-0.793-1.066-1.172-1.614c-0.167-0.241-0.334-0.484-0.496-0.728
	c-0.387-0.583-0.76-1.176-1.12-1.78c-3.884-6.514-6.122-14.117-6.122-22.235C211.695,90.743,231.237,71.203,255.256,71.203z
	 M455.073,475.472H56.928c-22.792,0-41.14-17.794-41.862-40.544c0.043-1.429,0.154-2.846,0.332-4.247
	c0.001-0.006,0.002-0.012,0.002-0.018c0.084-0.667,0.186-1.332,0.301-1.992c0.013-0.072,0.026-0.144,0.039-0.216
	c0.105-0.591,0.224-1.178,0.354-1.762c0.035-0.158,0.072-0.316,0.109-0.473c0.115-0.496,0.239-0.99,0.372-1.481
	c0.07-0.258,0.145-0.515,0.219-0.772c0.112-0.387,0.227-0.773,0.35-1.156c0.119-0.37,0.245-0.737,0.374-1.103
	c0.093-0.268,0.186-0.536,0.286-0.802c0.181-0.484,0.372-0.964,0.569-1.44c0.06-0.146,0.119-0.295,0.181-0.441
	c0.252-0.591,0.517-1.176,0.794-1.753c0.016-0.034,0.031-0.068,0.048-0.102c5.878-12.16,17.182-21.226,30.747-24.04
	c0.038-0.008,0.076-0.017,0.114-0.025c0.622-0.127,1.25-0.236,1.882-0.337c0.105-0.017,0.21-0.038,0.317-0.054
	c0.571-0.087,1.147-0.155,1.725-0.22c0.162-0.018,0.323-0.042,0.486-0.059c0.557-0.056,1.119-0.093,1.681-0.128
	c0.178-0.011,0.356-0.03,0.534-0.039c0.736-0.037,1.478-0.056,2.223-0.056c4.15,0,7.515-3.365,7.515-7.515V215.575v-0.001
	c0-4.15-3.365-7.515-7.515-7.515s-7.515,3.365-7.515,7.515v0.001v162.08c-12.69,1.605-24.469,7.264-33.757,16.335
	c-0.977,0.954-1.903,1.945-2.804,2.954V117.103c0-21.741,15.826-39.858,36.561-43.435v73.704v38.144v0.001
	c0,4.15,3.365,7.515,7.515,7.515s7.515-3.365,7.515-7.515v-0.001v-30.63h129.147l-10.908,22.461l-4.999,10.293
	c-1.814,3.733-0.257,8.229,3.477,10.043c0.253,0.123,0.51,0.227,0.77,0.32c0.068,0.024,0.137,0.041,0.205,0.064
	c0.188,0.061,0.378,0.118,0.568,0.163c0.093,0.022,0.185,0.038,0.279,0.056c0.168,0.033,0.337,0.064,0.505,0.085
	c0.101,0.013,0.202,0.022,0.304,0.031c0.161,0.014,0.322,0.023,0.483,0.027c0.055,0.001,0.11,0.009,0.164,0.009
	c0.04,0,0.079-0.008,0.119-0.008c0.293-0.005,0.583-0.022,0.872-0.06c0.019-0.003,0.038-0.003,0.057-0.006
	c0.304-0.043,0.601-0.109,0.896-0.188c0.081-0.022,0.161-0.047,0.242-0.071c0.239-0.073,0.475-0.157,0.706-0.253
	c0.058-0.024,0.117-0.045,0.175-0.07c0.276-0.123,0.543-0.264,0.803-0.42c0.066-0.04,0.13-0.084,0.195-0.126
	c0.205-0.131,0.404-0.274,0.596-0.425c0.063-0.05,0.127-0.098,0.189-0.15c0.234-0.197,0.459-0.409,0.669-0.636
	c0.039-0.042,0.073-0.087,0.111-0.13c0.174-0.197,0.339-0.406,0.493-0.624c0.051-0.072,0.101-0.143,0.15-0.217
	c0.177-0.27,0.345-0.548,0.489-0.846l0.001-0.001l0,0l1.382-2.845l17.755-36.556c0.319,0.339,0.648,0.665,0.974,0.996
	c0.164,0.167,0.326,0.338,0.492,0.503c0.461,0.456,0.931,0.901,1.406,1.341c0.595,0.554,1.203,1.092,1.822,1.621
	c0.135,0.115,0.268,0.236,0.405,0.351c0.535,0.449,1.081,0.884,1.631,1.315c0.065,0.051,0.129,0.102,0.194,0.152
	c7.201,5.582,15.73,9.52,25.029,11.259l-81.816,168.063c-2.935,6.096-7.101,11.208-12.059,15.181
	c-10.906,8.74-25.639,11.968-39.492,8.036l69.008-142.091c0.567-1.166,0.805-2.408,0.748-3.618
	c-0.121-2.663-1.659-5.178-4.226-6.425c-3.733-1.812-8.229-0.256-10.043,3.477l-20.707,42.638h-28.391
	c-4.15,0-7.515,3.365-7.515,7.515c0,4.15,3.365,7.515,7.515,7.515h21.092l-44.578,91.789c-0.109,0.224-0.206,0.454-0.292,0.685
	c-0.342,0.929-0.496,1.912-0.457,2.893c0.029,0.735,0.165,1.469,0.412,2.176c0.657,1.887,2.038,3.434,3.837,4.3
	c3.083,1.484,6.232,2.675,9.416,3.584c5.306,1.515,10.709,2.246,16.063,2.246c21.953-0.002,43.064-12.305,53.196-33.352
	l36.181-74.322h34.708v22.95c0,4.15,3.365,7.515,7.515,7.515c4.15,0,7.515-3.365,7.515-7.515v-22.95h37.635l36.076,74.292
	c6.829,14.189,18.776,24.87,33.638,30.074c6.377,2.233,12.963,3.343,19.527,3.343c7.64,0,15.25-1.505,22.459-4.493
	c1.03-0.427,2.052-0.884,3.064-1.372c1.799-0.866,3.179-2.412,3.836-4.297c0.657-1.886,0.537-3.955-0.334-5.751l-44.497-91.795
	h18.172c4.151,0,7.515-3.365,7.515-7.515c0-4.15-3.364-7.515-7.515-7.515h-25.458l-49.79-102.717H445.38v148.766
	c0,4.15,3.365,7.515,7.515,7.515h0.001l0,0c4.151,0,7.515-3.365,7.515-7.515V73.668c20.735,3.577,36.56,21.693,36.56,43.435v279.841
	c-0.902-1.009-1.828-2-2.804-2.954c-9.287-9.07-21.067-14.73-33.756-16.335V333.71c0-4.15-3.364-7.515-7.515-7.515l0,0l0,0
	c-4.151,0-7.515,3.365-7.515,7.515v50.988c0,4.15,3.365,7.515,7.515,7.515c0.006,0,0.012,0,0.018,0c0.739,0,1.474,0.02,2.205,0.056
	c0.185,0.009,0.37,0.029,0.555,0.04c0.555,0.035,1.11,0.071,1.659,0.126c0.17,0.017,0.339,0.043,0.508,0.061
	c0.57,0.064,1.138,0.131,1.701,0.216c0.114,0.017,0.226,0.04,0.341,0.058c0.622,0.099,1.242,0.207,1.856,0.333
	c0.047,0.009,0.093,0.021,0.14,0.031c13.556,2.819,24.851,11.881,30.726,24.035c0.016,0.034,0.032,0.068,0.048,0.102
	c0.278,0.578,0.542,1.163,0.795,1.754c0.062,0.145,0.12,0.292,0.18,0.437c0.197,0.477,0.389,0.958,0.57,1.443
	c0.098,0.265,0.191,0.532,0.285,0.8c0.129,0.367,0.255,0.734,0.375,1.105c0.122,0.383,0.237,0.768,0.35,1.156
	c0.075,0.255,0.149,0.512,0.219,0.77c0.133,0.492,0.257,0.987,0.373,1.485c0.036,0.156,0.073,0.313,0.108,0.469
	c0.129,0.585,0.248,1.173,0.355,1.765c0.013,0.071,0.026,0.142,0.038,0.213c0.115,0.661,0.216,1.326,0.302,1.995
	c0.001,0.005,0.001,0.01,0.002,0.014c0.177,1.403,0.289,2.821,0.333,4.249C496.213,457.679,477.864,475.472,455.073,475.472z"/>
<g>
</g>
<g>
</g>
<g>
</g>
<g>
</g>
<g>
</g>
<g>
</g>
<g>
</g>
<g>
</g>
<g>
</g>
<g>
</g>
<g>
</g>
<g>
</g>
<g>
</g>
<g>
</g>
<g>
</g>
</svg>
