<?xml version="1.0" encoding="iso-8859-1"?>
<!-- Generator: Adobe Illustrator 19.0.0, SVG Export Plug-In . SVG Version: 6.00 Build 0)  -->
<svg version="1.1" id="Capa_1" xmlns="http://www.w3.org/2000/svg" xmlns:xlink="http://www.w3.org/1999/xlink" x="0px" y="0px"
	 viewBox="0 0 511.999 511.999" style="enable-background:new 0 0 511.999 511.999;" xml:space="preserve">
<path style="fill:#E0E0E0;" d="M265.759,414.377L126.216,274.833l-115.66,115.66c-4.085,4.086-4.085,10.709,0,14.793l67.492,67.492
	c2.002,2.002,4.718,3.126,7.549,3.126h114.212c2.831,0,5.547-1.125,7.549-3.126L265.759,414.377z"/>
<path style="fill:#C6C5CA;" d="M168.226,475.905h31.583c2.831,0,5.547-1.125,7.549-3.126l58.402-58.401l-18.003-18.003
	L168.226,475.905z"/>
<path style="fill:#39A4FA;" d="M279.454,428.073L112.52,261.138c-0.606-0.607-0.606-1.589,0-2.196L334.917,36.545
	c0.607-0.606,1.589-0.606,2.196,0L504.047,203.48c0.606,0.606,0.606,1.589,0,2.196L281.651,428.073
	C281.045,428.679,280.062,428.679,279.454,428.073z"/>
<path style="fill:#0091E2;" d="M488.143,187.576L263.55,412.168l15.904,15.904c0.606,0.606,1.589,0.606,2.196,0l222.397-222.397
	c0.607-0.606,0.607-1.589,0-2.196L488.143,187.576z"/>
<path d="M509.352,198.175L342.418,31.241c-3.531-3.529-9.273-3.531-12.806,0L186.307,174.547c-2.929,2.93-2.929,7.679,0,10.609
	c2.93,2.927,7.679,2.929,10.609,0l139.099-139.1l158.522,158.522l-66.557,66.556c-2.929,2.93-2.929,7.679,0,10.609
	c1.465,1.464,3.385,2.196,5.305,2.196c1.919,0,3.84-0.732,5.305-2.196l70.762-70.762
	C512.882,207.449,512.882,201.707,509.352,198.175z"/>
<path d="M406.352,292.763L280.554,418.561l-9.489-9.489l-0.001-0.001L131.52,269.529c-0.006-0.006-0.014-0.012-0.02-0.018
	l-9.47-9.47l51.501-51.5c2.929-2.93,2.929-7.679,0-10.609c-2.931-2.93-7.68-2.928-10.609,0l-55.71,55.711
	c-3.522,3.528-3.522,9.267,0.004,12.8l8.391,8.391l-63.979,63.979c-2.929,2.93-2.929,7.679,0,10.609c2.93,2.928,7.679,2.928,10.61,0
	l63.979-63.98l128.936,128.935l-53.097,53.097c-0.591,0.592-1.409,0.931-2.245,0.931H85.598c-0.836,0-1.654-0.339-2.245-0.931
	l-67.491-67.492c-1.154-1.153-1.154-3.031,0-4.186l24.475-24.475c2.929-2.93,2.929-7.679,0-10.609c-2.93-2.928-7.679-2.928-10.609,0
	L5.252,385.188c-7.003,7.004-7.003,18.399,0,25.403l67.491,67.491c3.435,3.434,7.999,5.324,12.855,5.324h114.211h178.758
	c4.144,0,7.501-3.358,7.501-7.501c0-4.144-3.357-7.501-7.501-7.501H222.341l43.418-43.419l8.391,8.391
	c1.765,1.765,4.084,2.646,6.402,2.646s4.637-0.882,6.402-2.646l130.006-130.003c2.929-2.93,2.929-7.679,0-10.609
	C414.031,289.835,409.282,289.835,406.352,292.763z"/>
<g>
</g>
<g>
</g>
<g>
</g>
<g>
</g>
<g>
</g>
<g>
</g>
<g>
</g>
<g>
</g>
<g>
</g>
<g>
</g>
<g>
</g>
<g>
</g>
<g>
</g>
<g>
</g>
<g>
</g>
</svg>
