<?xml version="1.0" encoding="iso-8859-1"?>
<!-- Generator: Adobe Illustrator 19.0.0, SVG Export Plug-In . SVG Version: 6.00 Build 0)  -->
<svg version="1.1" id="Capa_1" xmlns="http://www.w3.org/2000/svg" xmlns:xlink="http://www.w3.org/1999/xlink" x="0px" y="0px"
	 viewBox="0 0 511.999 511.999" style="enable-background:new 0 0 511.999 511.999;" xml:space="preserve">
<path style="fill:#546F7A;" d="M486.514,55.142h-33.35v74.49h33.35c9.926,0,17.972-8.047,17.972-17.972V73.114
	C504.486,63.188,496.44,55.142,486.514,55.142z"/>
<path style="fill:#3C5156;" d="M486.514,104.586h-33.35v25.046h33.35c9.926,0,17.972-8.047,17.972-17.972V86.614
	C504.486,96.539,496.44,104.586,486.514,104.586z"/>
<rect x="412.86" y="55.141" style="fill:#FF6137;" width="40.304" height="74.487"/>
<rect x="412.86" y="104.552" style="fill:#E04F32;" width="40.304" height="25.086"/>
<polygon style="fill:#FFC89F;" points="7.514,92.386 85.32,129.593 85.32,55.18 "/>
<polygon style="fill:#F7B081;" points="7.514,92.386 85.32,129.593 85.32,104.547 33.702,79.863 "/>
<g>
	<rect x="85.317" y="55.181" style="fill:#FFD039;" width="71.431" height="74.417"/>
	<rect x="362.647" y="55.141" style="fill:#FFD039;" width="50.222" height="74.487"/>
</g>
<g>
	<rect x="85.317" y="104.552" style="fill:#FFAE47;" width="71.431" height="25.046"/>
	<rect x="362.647" y="104.582" style="fill:#FFAE47;" width="50.222" height="25.046"/>
</g>
<path style="fill:#F7B081;" d="M195.775,119.597V92.268c0-21.554-17.472-39.026-39.026-39.026l0,0v158.181
	c0,14.584,6.093,28.505,16.808,38.4l13.886,12.823v241.466h143.348V262.647l15.533-19.186
	c10.456-12.916,16.161-29.029,16.161-45.646v-78.217C362.484,119.598,195.775,119.598,195.775,119.597z"/>
<g>
	<path style="fill:#DD9A76;" d="M337.438,119.597v78.217c0,16.618-5.704,32.731-16.161,45.646l-15.533,19.186v241.466h25.046
		V262.647l15.533-19.186c10.456-12.916,16.161-29.029,16.161-45.646v-78.217C362.484,119.598,337.438,119.598,337.438,119.597z"/>
	<path style="fill:#DD9A76;" d="M211.274,119.597l20.963,25.511c9.307,3.691,19.009,8.733,27.278,15.569
		c7.833-0.267,14.87-3.723,19.845-9.116c5.182,5.616,12.596,9.142,20.821,9.142s15.641-3.525,20.821-9.142
		c5.181,5.616,12.596,9.142,20.821,9.142c8.141,0,15.486-3.456,20.66-8.973v-32.133
		C362.483,119.597,211.274,119.597,211.274,119.597z"/>
</g>
<path style="fill:#FFC89F;" d="M216.896,137.159L216.896,137.159c-11.499,0-20.821-9.322-20.821-20.821V38.331
	c0-11.499,9.322-20.821,20.821-20.821l0,0c11.499,0,20.821,9.322,20.821,20.821v78.007
	C237.717,127.837,228.395,137.159,216.896,137.159z"/>
<path style="fill:#F7B081;" d="M216.896,17.51c-2.653,0-5.181,0.516-7.514,1.42c7.781,3.017,13.307,10.554,13.307,19.401v78.007
	c0,8.846-5.526,16.385-13.307,19.402c2.333,0.905,4.861,1.42,7.514,1.42c11.499,0,20.821-9.322,20.821-20.821V38.331
	C237.717,26.832,228.395,17.51,216.896,17.51z"/>
<path style="fill:#FFC89F;" d="M300.181,137.159L300.181,137.159c-11.499,0-20.821-9.322-20.821-20.821V38.331
	c0-11.499,9.322-20.821,20.821-20.821l0,0c11.499,0,20.821,9.322,20.821,20.821v78.007
	C321.003,127.837,311.68,137.159,300.181,137.159z"/>
<path style="fill:#F7B081;" d="M300.181,17.51L300.181,17.51c-2.653,0-5.181,0.516-7.514,1.42
	c7.781,3.017,13.307,10.554,13.307,19.401v78.007c0,8.846-5.526,16.385-13.307,19.402c2.333,0.905,4.861,1.42,7.514,1.42l0,0
	c11.499,0,20.821-9.322,20.821-20.821V38.331C321.003,26.832,311.681,17.51,300.181,17.51z"/>
<path style="fill:#FFC89F;" d="M341.824,137.159L341.824,137.159c-11.499,0-20.821-9.322-20.821-20.821V59.803
	c0-11.499,9.322-20.821,20.821-20.821l0,0c11.499,0,20.821,9.322,20.821,20.821v56.534
	C362.645,127.837,353.323,137.159,341.824,137.159z"/>
<path style="fill:#F7B081;" d="M341.824,38.983c-2.653,0-5.181,0.515-7.514,1.42c7.781,3.017,13.307,10.554,13.307,19.402v56.534
	c0,8.846-5.526,16.385-13.307,19.402c2.333,0.905,4.861,1.42,7.514,1.42c11.499,0,20.821-9.322,20.821-20.821V59.804
	C362.645,48.304,353.323,38.983,341.824,38.983z"/>
<path style="fill:#FFC89F;" d="M258.539,137.159L258.539,137.159c-11.499,0-20.821-9.322-20.821-20.821v-87.63
	c0-11.499,9.322-20.821,20.821-20.821l0,0c11.499,0,20.821,9.322,20.821,20.821v87.63
	C279.36,127.837,270.038,137.159,258.539,137.159z"/>
<path style="fill:#F7B081;" d="M258.539,7.886L258.539,7.886c-2.653,0-5.181,0.515-7.514,1.42
	c7.781,3.017,13.307,10.554,13.307,19.402v87.63c0,8.846-5.526,16.385-13.307,19.402c2.333,0.905,4.861,1.42,7.514,1.42l0,0
	c11.499,0,20.821-9.322,20.821-20.821v-87.63C279.36,17.208,270.038,7.886,258.539,7.886z"/>
<polygon style="fill:#3C5156;" points="7.514,92.386 43.824,109.75 43.824,75.023 "/>
<path d="M362.483,180.16c-4.151,0-7.514,3.364-7.514,7.514v10.141c0,14.847-5.145,29.379-14.487,40.918l-15.533,19.185
	c-1.083,1.337-1.674,3.007-1.674,4.728v56.724c0,4.15,3.363,7.514,7.514,7.514c4.15,0,7.514-3.364,7.514-7.514v-54.063
	l13.859-17.117c11.5-14.206,17.835-32.096,17.835-50.375v-10.141C369.997,183.524,366.634,180.16,362.483,180.16z"/>
<path d="M330.791,341.911c-4.151,0-7.514,3.364-7.514,7.514v147.174h-128.32v-38.813c0-4.15-3.363-7.514-7.514-7.514
	c-4.151,0-7.514,3.364-7.514,7.514v46.327c0,4.15,3.363,7.514,7.514,7.514h143.348c4.15,0,7.514-3.364,7.514-7.514V349.424
	C338.304,345.275,334.94,341.911,330.791,341.911z"/>
<path d="M486.514,47.628h-33.349h-40.301h-45.459c-4.562-9.547-14.313-16.159-25.581-16.159c-4.894,0-9.5,1.247-13.522,3.44
	c-1.696-14.015-13.656-24.913-28.122-24.913c-6.21,0-11.956,2.014-16.631,5.415c-4.772-8.939-14.191-15.039-25.011-15.039
	c-10.821,0-20.24,6.099-25.012,15.039c-4.675-3.401-10.42-5.415-16.631-5.415c-15.625,0-28.335,12.711-28.335,28.335v20.012
	c-8.328-7.814-19.517-12.615-31.812-12.615c-1.935,0-3.692,0.737-5.024,1.938H85.32c-0.108,0-0.214,0.012-0.322,0.016
	c-0.095,0.004-0.189,0.007-0.284,0.014c-0.249,0.02-0.495,0.052-0.736,0.096c-0.037,0.007-0.075,0.01-0.112,0.017
	c-0.297,0.058-0.586,0.134-0.87,0.226c-0.038,0.012-0.075,0.028-0.112,0.041c-0.242,0.083-0.479,0.178-0.71,0.286
	c-0.032,0.014-0.065,0.024-0.096,0.039L4.273,85.608C1.661,86.856,0,89.492,0,92.386c0,2.893,1.661,5.53,4.273,6.778l36.31,17.364
	c0.001,0.001,0.002,0.001,0.003,0.001l41.493,19.841c0.035,0.017,0.072,0.028,0.108,0.044c0.176,0.081,0.356,0.154,0.539,0.221
	c0.071,0.026,0.142,0.054,0.213,0.078c0.189,0.063,0.383,0.116,0.579,0.164c0.066,0.016,0.132,0.036,0.199,0.051
	c0.205,0.045,0.416,0.077,0.627,0.105c0.057,0.007,0.113,0.02,0.17,0.026c0.264,0.028,0.533,0.044,0.805,0.044h63.916v74.317
	c0,16.63,7.007,32.638,19.223,43.92l11.469,10.592v161.795c0,4.15,3.363,7.514,7.514,7.514c4.151,0,7.514-3.364,7.514-7.514V262.646
	c0-2.097-0.876-4.098-2.416-5.52l-13.886-12.823c-9.146-8.447-14.39-20.431-14.39-32.879v-81.831V61.662
	c13.759,3.378,23.998,15.819,23.998,30.606v43.392c0,3.831,2.889,7.05,6.696,7.469c0.203,0.023,20.614,2.354,40.549,11.545
	c25.119,11.583,37.856,28.28,37.856,49.626c0,4.15,3.363,7.514,7.514,7.514c4.151,0,7.514-3.364,7.514-7.514
	c0-27.449-16.231-49.383-46.938-63.432c-2.163-0.99-4.321-1.898-6.459-2.746c0.965-0.802,1.874-1.67,2.725-2.592
	c5.181,5.616,12.596,9.142,20.821,9.142s15.64-3.525,20.82-9.142c5.182,5.616,12.596,9.142,20.821,9.142s15.641-3.525,20.821-9.142
	c5.181,5.616,12.596,9.142,20.821,9.142c4.744,0,9.215-1.177,13.145-3.247v16.193c0,4.15,3.363,7.514,7.514,7.514
	s7.514-3.364,7.514-7.514v-20.473h42.867h40.301h33.349c14.052,0,25.485-11.433,25.485-25.486V73.114
	C512,59.061,500.567,47.628,486.514,47.628z M77.806,117.671l-26.469-12.657V79.759l26.469-12.657V117.671z M149.236,122.079H92.834
	V62.694h56.402V122.079z M230.204,116.338c0,7.337-5.97,13.307-13.307,13.307s-13.307-5.969-13.307-13.307V38.332
	c0-7.337,5.97-13.307,13.307-13.307s13.307,5.97,13.307,13.307V116.338z M271.846,38.332v78.007c0,7.337-5.969,13.307-13.306,13.307
	c-7.338,0-13.307-5.969-13.307-13.307V38.332v-9.624c0-7.337,5.97-13.307,13.307-13.307c7.337,0,13.306,5.97,13.306,13.307V38.332z
	 M313.489,59.804v56.534c0,7.337-5.97,13.307-13.307,13.307c-7.337,0-13.307-5.969-13.307-13.307V38.332
	c0-7.337,5.97-13.307,13.307-13.307c7.337,0,13.307,5.97,13.307,13.307V59.804z M341.824,129.645
	c-7.338,0-13.307-5.969-13.307-13.307V59.803c0-7.338,5.97-13.307,13.307-13.307s13.307,5.97,13.307,13.307v56.534
	C355.131,123.676,349.162,129.645,341.824,129.645z M405.35,122.118h-35.191v-5.781V62.656h35.191V122.118z M445.651,122.118
	h-25.273V62.656h25.273V122.118z M496.972,111.66c0,5.767-4.692,10.458-10.457,10.458H460.68V62.656h25.836
	c5.767,0,10.457,4.692,10.457,10.458V111.66z"/>
<g>
</g>
<g>
</g>
<g>
</g>
<g>
</g>
<g>
</g>
<g>
</g>
<g>
</g>
<g>
</g>
<g>
</g>
<g>
</g>
<g>
</g>
<g>
</g>
<g>
</g>
<g>
</g>
<g>
</g>
</svg>
