<?xml version="1.0" encoding="iso-8859-1"?>
<!-- Generator: Adobe Illustrator 19.0.0, SVG Export Plug-In . SVG Version: 6.00 Build 0)  -->
<svg version="1.1" id="Capa_1" xmlns="http://www.w3.org/2000/svg" xmlns:xlink="http://www.w3.org/1999/xlink" x="0px" y="0px"
	 viewBox="0 0 512 512" style="enable-background:new 0 0 512 512;" xml:space="preserve">
<rect x="272.491" y="7.502" style="fill:#E0E0E0;" width="231.887" height="277.762"/>
<rect x="479.37" y="7.502" style="fill:#C6C5CA;" width="25.008" height="277.762"/>
<rect x="271.891" y="317.966" style="fill:#E0E0E0;" width="231.887" height="186.532"/>
<rect x="478.769" y="317.966" style="fill:#C6C5CA;" width="25.008" height="186.532"/>
<circle style="fill:#FF434D;" cx="387.829" cy="411.227" r="69.743"/>
<path style="fill:#DD3646;" d="M387.829,341.481c-4.271,0-8.445,0.404-12.504,1.139c32.55,5.895,57.244,34.358,57.244,68.608
	s-24.694,62.713-57.244,68.608c4.059,0.735,8.233,1.139,12.504,1.139c38.521,0,69.748-31.227,69.748-69.748
	C457.577,372.709,426.35,341.481,387.829,341.481z"/>
<rect x="7.623" y="7.502" style="fill:#E0E0E0;" width="231.887" height="496.935"/>
<rect x="214.502" y="7.502" style="fill:#C6C5CA;" width="25.008" height="496.935"/>
<rect x="308.753" y="51.849" style="fill:#39A4FA;" width="159.363" height="110.257"/>
<polygon style="fill:#008950;" points="413.534,96.442 381.053,125.425 422.163,162.105 468.114,162.105 468.114,145.143 "/>
<polygon style="fill:#00B76C;" points="308.753,146.206 308.753,162.105 422.163,162.105 356.548,103.559 "/>
<circle style="fill:#FFD039;" cx="381.477" cy="82.177" r="12.604"/>
<path d="M239.51,344.449c-4.144,0-7.502,3.359-7.502,7.503v144.981H15.126V156.024c0-4.143-3.359-7.502-7.502-7.502
	c-4.144,0-7.502,3.359-7.502,7.502v348.412c0,4.143,3.358,7.502,7.502,7.502H239.51c4.144,0,7.502-3.359,7.502-7.502V351.952
	C247.012,347.807,243.653,344.449,239.51,344.449z"/>
<path d="M239.51,0H7.623C3.479,0,0.121,3.359,0.121,7.502v118.511c0,4.143,3.358,7.502,7.502,7.502c4.143,0,7.502-3.359,7.502-7.502
	V15.005h216.882v306.937c0,4.143,3.358,7.503,7.502,7.503s7.502-3.359,7.502-7.503V7.502C247.012,3.359,243.653,0,239.51,0z"/>
<path d="M504.377,145.534c4.144,0,7.503-3.359,7.503-7.503V7.502c0-4.143-3.358-7.502-7.503-7.502H272.49
	c-4.144,0-7.502,3.359-7.502,7.502v277.759c0,4.143,3.358,7.503,7.502,7.503h231.887c4.144,0,7.503-3.359,7.503-7.503v-117.22
	c0-4.143-3.358-7.502-7.503-7.502c-4.143,0-7.502,3.359-7.502,7.502v109.717H279.992V15.005h216.882v123.027
	C496.874,142.175,500.234,145.534,504.377,145.534z"/>
<path d="M503.774,310.46H271.886c-4.144,0-7.503,3.359-7.503,7.502v186.535c0,4.143,3.358,7.502,7.503,7.502h231.888
	c4.144,0,7.502-3.359,7.502-7.502V317.963C511.276,313.818,507.917,310.46,503.774,310.46z M496.271,496.995H279.388v-171.53
	h216.883L496.271,496.995L496.271,496.995z"/>
<path d="M387.829,488.48c42.596,0,77.251-34.655,77.251-77.251s-34.655-77.251-77.251-77.251s-77.251,34.655-77.251,77.251
	C310.58,453.826,345.233,488.48,387.829,488.48z M387.829,348.985c34.322,0,62.246,27.923,62.246,62.246
	c0,34.321-27.923,62.246-62.246,62.246s-62.246-27.923-62.246-62.246C325.585,376.908,353.508,348.985,387.829,348.985z"/>
<path d="M475.616,145.143V51.849c0-4.143-3.359-7.502-7.502-7.502H308.753c-4.144,0-7.503,3.359-7.503,7.502v94.356v15.9
	c0,4.143,3.358,7.502,7.503,7.502h113.41h45.952c4.143,0,7.502-3.359,7.502-7.502v-16.963H475.616z M460.611,59.352v69.043
	l-42.083-37.549c-2.845-2.539-7.145-2.539-9.989,0l-27.486,24.525l-19.509-17.408c-2.845-2.539-7.145-2.539-9.989,0l-35.298,31.495
	V59.352H460.611z M316.255,149.566l40.292-35.951l19.504,17.403c0.002,0.002,0.003,0.003,0.005,0.005l26.428,23.58h-86.23V149.566z
	 M460.611,154.602h-35.589l-32.701-29.179l21.212-18.927l47.079,42.006L460.611,154.602L460.611,154.602z"/>
<path d="M381.474,102.288c11.087,0,20.107-9.02,20.107-20.107s-9.02-20.107-20.107-20.107c-11.088,0-20.108,9.02-20.108,20.107
	S370.386,102.288,381.474,102.288z M381.474,77.08c2.813,0,5.102,2.289,5.102,5.102c0,2.813-2.289,5.102-5.102,5.102
	c-2.814,0-5.103-2.289-5.103-5.102C376.371,79.368,378.66,77.08,381.474,77.08z"/>
<path d="M364.743,418.732h15.584v15.584c0,4.143,3.358,7.503,7.502,7.503s7.503-3.359,7.503-7.503v-15.584h15.584
	c4.144,0,7.503-3.359,7.503-7.502s-3.358-7.503-7.503-7.503h-15.584v-15.585c0-4.143-3.358-7.503-7.503-7.503
	s-7.502,3.359-7.502,7.503v15.585h-15.584c-4.144,0-7.503,3.359-7.503,7.503S360.599,418.732,364.743,418.732z"/>
<path d="M468.114,189.297H308.753c-4.144,0-7.503,3.359-7.503,7.502s3.358,7.502,7.503,7.502h159.362
	c4.143,0,7.502-3.359,7.502-7.502C475.616,192.656,472.258,189.297,468.114,189.297z"/>
<path d="M468.114,227.411H308.753c-4.144,0-7.503,3.359-7.503,7.502s3.358,7.503,7.503,7.503h159.362
	c4.143,0,7.502-3.359,7.502-7.503C475.616,230.77,472.258,227.411,468.114,227.411z"/>
<path d="M36.384,214.487c0,4.143,3.358,7.502,7.502,7.502h159.361c4.144,0,7.502-3.359,7.502-7.502s-3.358-7.502-7.502-7.502H43.886
	C39.743,206.985,36.384,210.344,36.384,214.487z"/>
<path d="M43.886,260.103h159.361c4.144,0,7.502-3.359,7.502-7.503s-3.358-7.502-7.502-7.502H43.886
	c-4.144,0-7.502,3.359-7.502,7.502S39.743,260.103,43.886,260.103z"/>
<path d="M43.886,298.217h159.361c4.144,0,7.502-3.359,7.502-7.502s-3.358-7.503-7.502-7.503H43.886
	c-4.144,0-7.502,3.359-7.502,7.503S39.743,298.217,43.886,298.217z"/>
<path d="M43.886,336.331h159.361c4.144,0,7.502-3.359,7.502-7.503s-3.358-7.502-7.502-7.502H43.886
	c-4.144,0-7.502,3.359-7.502,7.502S39.743,336.331,43.886,336.331z"/>
<path d="M43.886,374.444h159.361c4.144,0,7.502-3.359,7.502-7.503s-3.358-7.503-7.502-7.503H43.886
	c-4.144,0-7.502,3.359-7.502,7.503S39.743,374.444,43.886,374.444z"/>
<path d="M43.886,412.558h159.361c4.144,0,7.502-3.359,7.502-7.502s-3.358-7.503-7.502-7.503H43.886
	c-4.144,0-7.502,3.359-7.502,7.503S39.743,412.558,43.886,412.558z"/>
<path d="M43.886,450.672h159.361c4.144,0,7.502-3.359,7.502-7.503s-3.358-7.502-7.502-7.502H43.886
	c-4.144,0-7.502,3.359-7.502,7.502S39.743,450.672,43.886,450.672z"/>
<path d="M179.302,94.766c4.144,0,7.502-3.359,7.502-7.502V69.536c0-4.143-3.358-7.502-7.502-7.502h-55.737H67.831
	c-4.144,0-7.502,3.359-7.502,7.502v17.728c0,4.143,3.358,7.502,7.502,7.502s7.502-3.359,7.502-7.502V77.039h40.731v88.925h-14.83
	c-4.144,0-7.502,3.359-7.502,7.502s3.358,7.503,7.502,7.503h22.332H145.9c4.144,0,7.503-3.359,7.503-7.503s-3.358-7.502-7.503-7.502
	h-14.831V77.039h40.732v10.225C171.8,91.407,175.159,94.766,179.302,94.766z"/>
<g>
</g>
<g>
</g>
<g>
</g>
<g>
</g>
<g>
</g>
<g>
</g>
<g>
</g>
<g>
</g>
<g>
</g>
<g>
</g>
<g>
</g>
<g>
</g>
<g>
</g>
<g>
</g>
<g>
</g>
</svg>
