<?xml version="1.0" encoding="iso-8859-1"?>
<!-- Generator: Adobe Illustrator 19.0.0, SVG Export Plug-In . SVG Version: 6.00 Build 0)  -->
<svg version="1.1" id="Capa_1" xmlns="http://www.w3.org/2000/svg" xmlns:xlink="http://www.w3.org/1999/xlink" x="0px" y="0px"
	 viewBox="0 0 512 512" style="enable-background:new 0 0 512 512;" xml:space="preserve">
<path style="fill:#FFD039;" d="M255.586,95.369L125.795,313.374l54.428,91.593h75.362h12.542h15.017h15.017h32.787l54.428-91.593
	L255.586,95.369z M255.586,313.281c-12.439,0-22.523-10.084-22.523-22.523c0-12.439,10.084-22.523,22.523-22.523
	s22.523,10.084,22.523,22.523C278.108,303.197,268.025,313.281,255.586,313.281z"/>
<g>
	<circle style="fill:#FF6137;" cx="31.166" cy="71.712" r="23.655"/>
	<circle style="fill:#FF6137;" cx="480.009" cy="71.712" r="23.655"/>
</g>
<g>
	<rect x="7.509" y="296.259" style="fill:#FFD039;" width="47.334" height="47.334"/>
	<rect x="231.915" y="47.054" style="fill:#FFD039;" width="47.334" height="47.334"/>
	<rect x="457.163" y="296.259" style="fill:#FFD039;" width="47.334" height="47.334"/>
</g>
<polygon style="fill:#FFAE47;" points="255.586,95.369 243.071,116.388 360.347,313.374 305.919,404.966 330.948,404.966 
	385.376,313.374 "/>
<rect x="157.28" y="404.953" style="fill:#546F7A;" width="196.615" height="59.986"/>
<rect x="328.866" y="404.953" style="fill:#475D63;" width="25.029" height="59.986"/>
<path d="M181.943,457.434h-17.158v-44.968h15.28c0.053,0.001,0.104,0.01,0.156,0.01h87.905c4.147,0,7.509-3.362,7.509-7.509l0,0
	c0-0.003,0-0.007,0-0.01c0-4.147-3.362-7.509-7.509-7.509h-83.639l-49.958-84.07l44.813-75.27c2.121-3.563,0.953-8.171-2.61-10.293
	c-3.565-2.123-8.172-0.952-10.293,2.61l-47.098,79.109c-1.408,2.365-1.41,5.311-0.003,7.677l47.681,80.238h-9.743
	c-4.147,0-7.509,3.362-7.509,7.509v59.986c0,4.147,3.362,7.509,7.509,7.509h24.666c4.147,0,7.509-3.362,7.509-7.509
	C189.452,460.795,186.091,457.434,181.943,457.434z"/>
<path d="M504.491,288.752h-16.72c-1.704-55.161-22.849-107.728-60.002-148.723c-24.181-26.682-53.874-47.119-86.681-60.106h108.86
	c3.613,13.212,15.716,22.953,30.058,22.953c17.184,0,31.164-13.98,31.164-31.164s-13.98-31.164-31.164-31.164
	c-14.845,0-27.291,10.437-30.406,24.356H286.759V47.058c0-4.147-3.362-7.509-7.509-7.509h-47.331c-4.147,0-7.509,3.362-7.509,7.509
	v17.848H61.569C58.455,50.987,46.009,40.55,31.164,40.55C13.98,40.55,0,54.53,0,71.713c0,17.184,13.98,31.164,31.164,31.164
	c14.342,0,26.445-9.742,30.058-22.953h108.86c-32.808,12.987-62.501,33.424-86.681,60.106
	c-37.153,40.995-58.298,93.562-60.002,148.723H7.509c-4.147,0-7.509,3.362-7.509,7.509v47.331c0,4.147,3.362,7.509,7.509,7.509
	H54.84c4.147,0,7.509-3.362,7.509-7.509v-47.331c0-4.147-3.362-7.509-7.509-7.509H38.424c1.699-51.425,21.46-100.412,56.103-138.639
	c34.129-37.659,79.991-62.019,129.883-69.192v13.467c0,4.147,3.362,7.509,7.509,7.509h11.04l-61.04,102.529
	c-2.121,3.563-0.953,8.171,2.61,10.293c3.564,2.122,8.172,0.951,10.293-2.61l53.255-89.451v139.018
	c-12.938,3.343-22.523,15.113-22.523,29.081c0,16.56,13.472,30.031,30.031,30.031s30.032-13.472,30.032-30.031
	c0-13.968-9.585-25.738-22.524-29.081V122.658l113.545,190.719l-49.958,84.07h-28.519c-3.889,0-7.088,2.957-7.471,6.747
	c-0.026,0.254-0.039,0.512-0.039,0.772c0,4.147,3.362,7.509,7.509,7.509h32.787c0.053,0,0.104-0.009,0.156-0.01h15.281v44.968
	H211.978c-4.147,0-7.509,3.362-7.509,7.509c0,4.147,3.362,7.509,7.509,7.509h141.915c4.147,0,7.509-3.362,7.509-7.509v-59.986
	c0-4.147-3.362-7.509-7.509-7.509h-9.743l47.681-80.238c1.406-2.367,1.405-5.312-0.003-7.677L268.211,101.898h11.04
	c4.147,0,7.509-3.362,7.509-7.509V80.922c49.892,7.173,95.754,31.533,129.884,69.192c34.644,38.227,54.404,87.214,56.103,138.639
	h-15.587c-4.147,0-7.509,3.362-7.509,7.509v47.331c0,4.147,3.362,7.509,7.509,7.509h47.332c4.147,0,7.509-3.362,7.509-7.509v-47.331
	C512,292.114,508.638,288.752,504.491,288.752z M47.331,336.084H15.017V303.77h32.314V336.084z M480.006,55.568
	c8.903,0,16.146,7.243,16.146,16.146s-7.243,16.146-16.146,16.146s-16.146-7.243-16.146-16.146
	C463.861,62.811,471.103,55.568,480.006,55.568z M31.164,87.86c-8.903,0-16.146-7.243-16.146-16.146s7.243-16.146,16.146-16.146
	S47.31,62.81,47.31,71.713S40.067,87.86,31.164,87.86z M270.6,290.758c0,8.279-6.736,15.014-15.015,15.014
	s-15.014-6.736-15.014-15.014c0-8.279,6.736-15.014,15.014-15.014C263.864,275.743,270.6,282.478,270.6,290.758z M271.742,86.88
	h-32.314V72.423c0-0.015,0-0.031,0-0.046v-17.81h32.314v17.819c0,0.009,0,0.018,0,0.027V86.88z M496.983,336.084h-32.315V303.77
	h32.315V336.084z"/>
<g>
</g>
<g>
</g>
<g>
</g>
<g>
</g>
<g>
</g>
<g>
</g>
<g>
</g>
<g>
</g>
<g>
</g>
<g>
</g>
<g>
</g>
<g>
</g>
<g>
</g>
<g>
</g>
<g>
</g>
</svg>
