<svg width="202" height="230" viewBox="0 0 202 230" fill="none" xmlns="http://www.w3.org/2000/svg">
<path d="M117.2 90.5L120.6 126.7L159.9 124.1L162.5 86.6L117.2 90.5Z" fill="#8FACFF"/>
<path d="M134.7 118.1C134.3 118.1 134 117.8 134 117.4L132.7 107.2L128.1 105.7C127.7 105.6 127.5 105.1 127.6 104.8C127.7 104.4 128.2 104.2 128.5 104.3L133.9 106.1L135.3 117.2C135.5 117.6 135.2 118 134.7 118.1C134.8 118 134.8 118.1 134.7 118.1Z" fill="#030047"/>
<path d="M61.5999 75.6L51.8999 115.7L27.3999 130.8L39.6999 86.4L40.7999 85.8L46.9999 82.8L48.0999 82.2L61.5999 75.6Z" fill="#FFCC3E"/>
<path d="M115.6 27.9999C122 25.9999 140.7 21.0999 156.6 47.6999C172.6 74.2999 162.5 97.1999 162.5 97.1999L114.6 94.7999C114.6 94.7999 113.1 67.7999 108.8 50.4999C107.9 46.6999 105.4 31.1999 115.6 27.9999Z" fill="#5F5FFF"/>
<path d="M68.3998 66.2999C64.5998 69.8999 62.4997 73.5999 61.5997 75.5999L40.7998 85.7999C39.8998 78.7999 42.6997 67.3999 51.5997 56.2999C57.3997 59.3999 62.8998 62.7999 68.3998 66.2999Z" fill="#FF3E6C"/>
<path d="M56.9 47.4C52.9 51.3 47 58.1 44.5 63.8C50.4 66.2 62 70.8 67.8 73.4C69.9 70.5 79 62.4 83.6 59.7C98.4 51 116.7 46.6 116.7 46.6L119 26.3C98.6 24.5 74.2 30.5 56.9 47.4Z" fill="#5F5FFF"/>
<path d="M53.1 78.1999C50.4 77.5999 48.6 79.7999 48.1 82.1999L47 82.6999C47.4 79.4999 49.8 76.4999 53.4 77.1999C54 77.3999 53.8 78.3999 53.1 78.1999Z" fill="#030047"/>
<path d="M108.6 47.5C108.2 47.5 107.9 47.2 107.9 46.8L107.2 41C107.1 40.6 107.4 40.2 107.9 40.2C108.3 40.2 108.7 40.3999 108.7 40.8999L109.4 46.7C109.4 47.1 109.1 47.5 108.6 47.5Z" fill="white"/>
<path d="M60.9998 71.1C60.4998 71.2 60.0998 70.9 59.6998 70.4C59.6998 70.4 59.6998 70.4 59.5998 70.4C59.0998 70.5 58.5998 70.6 58.0998 70.6C57.4998 70.6 56.9998 70.4 56.5998 70.1C53.9998 71.6 51.2998 74.1 51.2998 74.1C56.5998 80.4 55.9998 82.7 55.9998 82.7C55.9998 82.7 53.1998 88.9 57.1998 89.8C59.4998 90.5 65.4998 77.9 60.9998 71.1Z" fill="#FF3E6C"/>
<path d="M115 130.8H39.5997L37.1997 126.9L55.7997 115.5L92.0997 93.3999L105.6 115.5L115 130.8Z" fill="#8FACFF"/>
<path d="M60.9998 122.9C60.6998 122.9 60.4998 122.8 60.3998 122.5C60.1998 122.1 60.2998 121.7 60.6998 121.5L87.6998 105C88.0998 104.8 88.4998 104.9 88.6998 105.2C88.8998 105.6 88.7998 106 88.3998 106.2L61.3998 122.7C61.1998 122.9 61.0998 122.9 60.9998 122.9Z" fill="#030047"/>
<path d="M65.7996 130.9C65.4996 130.9 65.2996 130.8 65.1996 130.5C64.9996 130.1 65.0996 129.7 65.4996 129.5L92.4996 113C92.8996 112.8 93.2996 112.9 93.4996 113.2C93.6996 113.6 93.5996 114 93.1996 114.2L66.1996 130.7C66.0996 130.9 65.9996 130.9 65.7996 130.9Z" fill="#030047"/>
<path d="M91.2997 88.4999C91.1997 88.4999 91.1997 88.4999 91.0997 88.4999C90.6997 88.3999 90.4997 87.9999 90.5997 87.5999L91.8998 82.5999C91.9998 82.1999 92.3997 81.9999 92.7997 82.0999C93.1997 82.1999 93.3997 82.5999 93.2997 82.9999L91.9997 87.9999C91.9997 88.2999 91.6997 88.4999 91.2997 88.4999Z" fill="#E4E4EF"/>
<path d="M19.6998 106.2L10.7998 112L20.2998 116.1L19.6998 106.2Z" fill="#E4E4EF"/>
<path d="M78.6765 94.1256L72.8076 88.2567L66.9387 94.1256L72.8076 99.9946L78.6765 94.1256Z" fill="#5F5FFF"/>
<path d="M96.3996 125.7C96.1996 125.7 96.0996 125.6 95.8996 125.5L92.6996 122.7C92.3996 122.4 92.2996 122 92.5996 121.6C92.8996 121.3 93.2996 121.2 93.6996 121.5L96.8996 124.3C97.1996 124.6 97.2996 125 96.9996 125.4C96.7996 125.6 96.5996 125.7 96.3996 125.7Z" fill="#E4E4EF"/>
<path d="M84.5997 89.2999C84.3997 89.2999 84.0997 89.1999 83.9997 88.8999L78.6998 80.4999C78.4998 80.0999 78.5998 79.6999 78.8998 79.4999C79.2998 79.2999 79.6998 79.3999 79.8998 79.6999L85.1998 88.0999C85.3998 88.4999 85.2997 88.8999 84.9997 89.0999C84.8997 89.1999 84.7997 89.2999 84.5997 89.2999Z" fill="#E4E4EF"/>
<path d="M120.6 82.7C120.4 82.7 120.2 82.6 120.1 82.5C119.8 82.2 119.8 81.7 120.1 81.4L126.4 75.1C126.7 74.8 127.2 74.8 127.5 75.1C127.8 75.4 127.8 75.9 127.5 76.2L121.2 82.5C120.9 82.6 120.7 82.7 120.6 82.7Z" fill="#E4E4EF"/>
<path d="M108.6 100.5C108.2 100.5 107.9 100.2 107.9 99.8L107.5 96C107.5 95.6 107.8 95.2 108.2 95.2C108.6 95.2 109 95.4999 109 95.8999L109.4 99.7C109.4 100.1 109.1 100.5 108.6 100.5Z" fill="#E4E4EF"/>
<path d="M130.8 90.5L135.8 86.6L136.8 93.4L130.8 90.5Z" fill="#F2F2F9"/>
<path d="M92.8999 67.2L98.3999 64.1L98.5999 71.2L92.8999 67.2Z" fill="#FFCC3E"/>
<path d="M61.5996 106.9C61.4996 106.9 61.4997 106.9 61.3997 106.9C60.9997 106.8 60.6997 106.4 60.7997 106L62.0996 100.4C62.1996 100 62.5997 99.7 62.9997 99.8C63.3997 99.9 63.6996 100.3 63.5996 100.7L62.2997 106.3C62.1997 106.7 61.8996 106.9 61.5996 106.9Z" fill="#E4E4EF"/>
<path d="M55.7999 115.5L37.1999 126.9L39.5999 130.8H27.3999L51.4999 115.5H55.7999Z" fill="#030047"/>
<path d="M173.4 115.5L159.9 124.1L149.3 130.8H115L105.6 115.5H173.4Z" fill="#030047"/>
<path d="M159.9 124.1L149.3 130.8H111.6C122.6 122.9 138.6 121.5 155 123.1C157.1 123.4 158.7 123.7 159.9 124.1Z" fill="#F2F2F9"/>
<path d="M33.5 97.7999H33.4001L21.3 95.5999C20.9 95.4999 20.6 95.0999 20.7 94.6999C20.8 94.2999 21.2 93.9999 21.6 94.0999L33.7 96.2999C34.1 96.3999 34.4 96.7999 34.3 97.1999C34.1 97.4999 33.8 97.7999 33.5 97.7999Z" fill="#E4E4EF"/>
<path d="M26.3 102.7H26.2C25.8 102.6 25.4999 102.2 25.5999 101.8L27.8 89.6999C27.9 89.2999 28.3 88.9999 28.7 89.0999C29.1 89.1999 29.4 89.5999 29.3 89.9999L27.0999 102.1C26.9999 102.5 26.7 102.7 26.3 102.7Z" fill="#E4E4EF"/>
<path d="M108.6 122.5C113.294 122.5 117.1 118.694 117.1 114C117.1 109.306 113.294 105.5 108.6 105.5C103.905 105.5 100.1 109.306 100.1 114C100.1 118.694 103.905 122.5 108.6 122.5Z" fill="#E4E4EF"/>
<path d="M41.3998 97.3L39.7998 115.5L54.7998 108.7L41.3998 97.3Z" fill="#E4E4EF"/>
<path d="M149.2 130.8H27.3999V229.7H149.2V130.8Z" fill="#FFCC3E"/>
<path d="M173.4 214.4L149.2 229.8V130.8L173.4 115.5V214.4Z" fill="#FFCC3E"/>
<path d="M149.2 225C148.8 225 148.4 224.7 148.4 224.2V137.7C148.4 137.3 148.7 136.9 149.2 136.9C149.7 136.9 150 137.2 150 137.7V224.2C150 224.7 149.7 225 149.2 225Z" fill="white"/>
<path d="M64.5999 130.8V131C64.5999 156.9 48.0999 169.3 27.3999 170V130.9H64.5999V130.8Z" fill="#E4E4EF"/>
<path d="M54.3999 164.8L45.8999 171.6L56.3999 176.3L54.3999 164.8Z" fill="#F2F2F9"/>
<path d="M134.8 152.7H75.0996V158.7H134.8V152.7Z" fill="#5F5FFF"/>
<path d="M110.9 170H100.5C99.2999 170 98.3999 169 98.3999 167.9C98.3999 166.7 99.3999 165.8 100.5 165.8H110.9C112.1 165.8 113 166.8 113 167.9C113.1 169 112.1 170 110.9 170Z" fill="#030047"/>
<path d="M122.3 170H118.8C117.6 170 116.7 169 116.7 167.9C116.7 166.7 117.7 165.8 118.8 165.8H122.3C123.5 165.8 124.4 166.8 124.4 167.9C124.5 169 123.5 170 122.3 170Z" fill="#030047"/>
<path d="M132.6 170H129C127.8 170 126.9 169 126.9 167.9C126.9 166.7 127.9 165.8 129 165.8H132.5C133.7 165.8 134.6 166.8 134.6 167.9C134.7 169 133.8 170 132.6 170Z" fill="#030047"/>
<path d="M98.3999 191.7H27.3999V229.7H98.3999V191.7Z" fill="#E4E4EF"/>
<path d="M76.3998 228.8C76.1998 228.8 76.0997 228.8 75.9997 228.7L28.3998 194C28.0998 193.8 27.9998 193.3 28.1998 193C28.3998 192.7 28.8998 192.6 29.1998 192.8L76.6998 227.5C76.9998 227.7 77.0998 228.2 76.8998 228.5C76.8998 228.7 76.5998 228.8 76.3998 228.8Z" fill="white"/>
<path d="M49.2997 228.8C49.0997 228.8 48.7997 228.7 48.6997 228.5C48.4997 228.2 48.4997 227.7 48.8997 227.5L95.9997 192.8C96.2997 192.6 96.7997 192.6 96.9997 193C97.1997 193.3 97.1997 193.8 96.7997 194L49.6997 228.7C49.5997 228.8 49.4997 228.8 49.2997 228.8Z" fill="white"/>
<path d="M182.6 145.3H178.7V187.8H182.6V145.3Z" fill="#E4E4EF"/>
<path d="M182.6 76.9L158.5 92.2L149.2 131L173.4 115.7L182.6 76.9Z" fill="#FFCC3E"/>
<path d="M152 129.9C151.8 129.9 151.5 129.8 151.4 129.6C151.2 129.3 151.3 128.8 151.6 128.6L170.2 116.8C170.5 116.6 171 116.7 171.2 117C171.4 117.3 171.3 117.8 171 118L152.4 129.8C152.2 129.8 152.1 129.9 152 129.9Z" fill="white"/>
<path d="M127.4 25.4C156.2 24.2 183 32.4 192.3 44C202.5 56.7 197.3 81.7 184.8 88.2C181.7 89.8 178.2 90.2 176.3 91.1C170.5 93.8 169.2 93.5 167.3 92C167.3 92 162.5 95 161.1 91.3C161.1 91.3 159.3 96 155.9 94.8C152.6 93.6 156.6 84.3 165.7 79.5C174.9 74.7 179.5 62.7 174.4 55.5C169.2 48.3 137.7 39.5 137.7 39.5L127.4 25.4Z" fill="#FF3E6C"/>
<path d="M174.5 55.5C177.3 59.3 177.2 64.6 175.2 69.3C181.7 71.7 191.5 74 197.8 76.9C202.7 66.6 202.8 51.5 195.1 43.4C180.1 27.9 156.3 24.1 127.5 25.3L141.1 48.8C141 48.8 169.3 48.4 174.5 55.5Z" fill="#5F5FFF"/>
<path d="M167.6 82.9C165 84.7 162.9 87 161.5 89.8C161.2 90.4 162.1 90.9 162.4 90.3C163.8 87.6 165.7 85.4 168.2 83.8C168.7 83.4 168.2 82.5 167.6 82.9Z" fill="#030047"/>
<path d="M172.7 84.6C170.6 86.1 169 88 167.8 90.3C167.5 90.9 168.4 91.4 168.7 90.8C169.8 88.7 171.3 86.9 173.2 85.5C173.7 85.1 173.2 84.2 172.7 84.6Z" fill="#030047"/>
<path d="M155 50.4C154.9 50.4 154.9 50.4 154.8 50.4L150.7 49.1001C150.3 49.0001 150.1 48.6 150.2 48.2C150.3 47.8 150.7 47.6 151.1 47.7L155.2 49C155.6 49.1 155.8 49.5 155.7 49.9C155.6 50.2 155.3 50.4 155 50.4Z" fill="#030047"/>
<path d="M17 177C16.8 177 16.6 176.9 16.5 176.8L0.6 160.9C0.3 160.6 0.3 160.1 0.6 159.8C0.9 159.5 1.40004 159.5 1.70004 159.8L17.6 175.7C17.9 176 17.9 176.5 17.6 176.8C17.4 177 17.2 177 17 177Z" fill="#FF3E6C"/>
<path d="M1.1 177C0.9 177 0.7 176.9 0.6 176.8C0.3 176.5 0.3 176 0.6 175.7L16.5 159.8C16.8 159.5 17.3 159.5 17.6 159.8C17.9 160.1 17.9 160.6 17.6 160.9L1.70004 176.8C1.50004 177 1.3 177 1.1 177Z" fill="#FF3E6C"/>
<path d="M16.9998 190.7H1.09979C0.699792 190.7 0.299805 190.4 0.299805 189.9C0.299805 189.4 0.599792 189.1 1.09979 189.1H16.9998C17.3998 189.1 17.7998 189.4 17.7998 189.9C17.7998 190.4 17.3998 190.7 16.9998 190.7Z" fill="#FF3E6C"/>
<path d="M128.599 24.3001C133.899 25.2001 136.999 22.5001 137.399 18.8001C137.799 15.4001 134.899 11.4001 130.799 12.7001C129.399 13.2001 127.999 14.1001 126.499 15.6001C126.499 15.6001 125.899 17.1001 125.599 18.8001C125.299 21.0001 125.599 23.7001 128.599 24.3001Z" fill="#FF3E6C"/>
<path d="M128.4 29.6C120.6 36.1 112.9 32.7 109.5 25.1C108 21.7 106.6 18 107.1 14.3C107.5 10.9 109.1 7.79995 111.9 5.79995C117.8 1.69995 126.3 3.69995 130.8 10.3C130.8 10.3 130.8 10.2999 130.8 10.3999C135.4 16.8999 133.7 25.2 128.4 29.6Z" fill="#FF3E6C"/>
<path d="M118.805 19.7384C119.103 19.2731 118.966 18.6547 118.501 18.3573C118.036 18.0599 117.417 18.1961 117.12 18.6614C116.823 19.1268 116.959 19.7451 117.424 20.0425C117.889 20.3399 118.508 20.2038 118.805 19.7384Z" fill="#030047"/>
<path d="M114.399 26.8C113.399 24.8 112.699 22.7 112.199 20.5C112.099 19.9 113.099 19.7 113.199 20.3C113.599 22.4 114.299 24.4 115.299 26.4C115.599 27 114.699 27.4 114.399 26.8Z" fill="#030047"/>
<path d="M129.1 19.7C129.3 17.4 131.1 15.4 133.5 15.1C134.1 15 134.4 16 133.7 16.1C131.8 16.3 130.3 17.8 130.1 19.7C130 20.3 129 20.3 129.1 19.7Z" fill="#030047"/>
<path d="M127.4 14.8C126.7 17.3 124.3 14.2 118.1 13C115.4 12.5 103.9 16.5 102.1 12.6C99.3996 6.90001 107 3.6 111.9 5.7C111.4 3.6 113.8 0.500009 117 2.10001C125.6 -2.19999 133.3 2.70001 132.3 12.3C132.3 12.4 128.2 14 127.4 14.8Z" fill="#030047"/>
</svg>
