<svg width="306" height="287" viewBox="0 0 306 287" fill="none" xmlns="http://www.w3.org/2000/svg">
<path d="M108.001 255.8C109.101 261.6 111.101 265.7 113.401 268.8C113.601 269.1 113.801 269.3 114.001 269.6C114.501 270.2 115.001 270.7 115.501 271.2C115.801 271.5 116.001 271.7 116.301 271.9C119.001 274.3 121.901 275.7 124.401 276.8C130.701 279.5 131.001 286.4 131.001 286.4L81.6006 286.1C82.2006 277.9 82.2006 262.4 82.2006 262.4C92.5006 259.3 97.4006 257.5 108.001 255.8Z" fill="#FF3E6C"/>
<path d="M113.4 268.8C113.6 269.1 113.8 269.3 114 269.6C112 270.5 110 271.5 108 272.4C107.4 272.7 106.9 271.8 107.5 271.6C109.5 270.6 111.4 269.7 113.4 268.8Z" fill="white"/>
<path d="M115.5 271.1C115.8 271.4 116 271.6 116.3 271.8C114.1 272.9 111.8 273.9 109.6 275C109 275.3 108.5 274.4 109.1 274.2C111.2 273.2 113.4 272.2 115.5 271.1Z" fill="white"/>
<path d="M112.901 148.6C119.001 201.3 114.1 266.1 114.1 266.1L78.3005 268.4C78.3005 268.4 81.9005 167.9 78.5005 150.2C75.1005 132.6 112.901 148.6 112.901 148.6Z" fill="#5F5FFF"/>
<path d="M39.4004 251.2C34.8004 254.9 32.1004 258.6 30.5004 262.1C30.4004 262.4 30.2003 262.7 30.1003 263C29.8003 263.7 29.6004 264.4 29.4004 265.1C29.3004 265.4 29.2003 265.8 29.1003 266.1C28.3003 269.6 28.4003 272.9 28.6003 275.6C29.1003 282.4 23.2004 285.9 23.2004 285.9L0.400391 242.1C7.30039 237.3 14.1004 233 19.4004 227.6C26.8004 235.3 33.0004 242.7 39.4004 251.2Z" fill="#FF3E6C"/>
<path d="M92.0008 128L60.4008 130.1C57.0008 149.6 55.6008 177.9 41.2008 202.8C34.7008 214.1 23.5008 223.1 11.8008 233.2C18.3008 242.1 28.7008 253.8 35.3008 262.7C37.4008 259.2 73.8008 240.3 84.9008 189.1C91.0008 161 92.0008 128 92.0008 128Z" fill="#5F5FFF"/>
<path d="M30.5009 262.1C30.4009 262.4 30.2008 262.7 30.1008 263C28.3008 261.7 26.6009 260.3 24.8009 259C24.3009 258.6 24.8009 257.7 25.3009 258.1C27.0009 259.5 28.8009 260.8 30.5009 262.1Z" fill="white"/>
<path d="M29.4003 265.1C29.3003 265.4 29.2002 265.8 29.1002 266.1C27.1002 264.6 25.1003 263.2 23.2003 261.7C22.7003 261.3 23.2003 260.4 23.7003 260.8C25.6003 262.3 27.5003 263.7 29.4003 265.1Z" fill="white"/>
<path d="M81.6007 203.6C81.5007 203.6 81.4007 203.6 81.3007 203.5C80.9007 203.4 80.7007 202.9 80.9007 202.5C88.0007 184 91.2007 160.7 91.2007 160.4L91.3007 159.8H91.9007C92.0007 159.8 97.5007 159.5 101.201 158.5C101.601 158.4 102.001 158.6 102.101 159C102.201 159.4 102.001 159.8 101.601 159.9C98.5007 160.7 94.2007 161.1 92.6007 161.2C92.1007 165 88.8007 186.1 82.3007 203C82.2007 203.4 81.9007 203.6 81.6007 203.6Z" fill="#030047"/>
<path d="M152 60.1C146.5 65.4 138 75.2 129.9 78.4C119.8 82.4 102 60.6 89.4004 61.9L92.6003 83.8C92.6003 83.8 103.2 105.7 122.8 110C142.4 114.3 162.4 80 162.5 79.9C159.9 74 156.6 64 152 60.1Z" fill="#030047"/>
<path d="M80.6 59.8L79 64.1L97.8 66.2L98.7 57.5L80.6 59.8Z" fill="#030047"/>
<path d="M95.5004 64.6C84.9004 56.4 67.0004 66.9 61.7004 82.7C57.7004 94.7 51.9004 153.5 51.9004 153.5L116.2 152.6C116.2 152.6 111 89.2 103.5 78.5C96.0004 67.8 99.0004 67.4 95.5004 64.6Z" fill="#030047"/>
<path d="M109.5 98.8C109.2 98.8 108.8 98.6 108.8 98.2C108.8 98.1 107.5 92.2 104.8 83C104.7 82.6 104.9 82.2 105.3 82.1C105.7 82 106.1 82.2 106.2 82.6C109 91.9 110.2 97.8 110.2 97.9C110.3 98.3 110 98.7 109.6 98.8C109.6 98.8 109.6 98.8 109.5 98.8Z" fill="white"/>
<path d="M87.1002 57.1C85.2002 62.2 80.0003 62.9 76.5003 61.4C73.3003 60 72.7003 55.9 75.9003 53.1C77.0003 52.2 78.5002 51.4 80.6002 50.9C80.6002 50.9 82.2002 51.1 83.8002 51.8C86.0002 52.6 88.2002 54.3 87.1002 57.1Z" fill="#FFCC3E"/>
<path d="M101.301 41.2C104.601 48.5 105.001 56.4 95.4009 59.8C88.9009 62.1 80.9008 59.3 77.6008 52C74.3008 44.7 76.9009 36.4 83.5009 33.4C90.1009 30.4 98.0009 33.9 101.301 41.2Z" fill="#FFCC3E"/>
<path d="M92.0617 46.5052C92.6138 46.4888 93.048 46.0281 93.0317 45.476C93.0154 44.9239 92.5546 44.4896 92.0025 44.506C91.4505 44.5223 91.0162 44.9831 91.0325 45.5352C91.0488 46.0872 91.5096 46.5215 92.0617 46.5052Z" fill="#030047"/>
<path d="M100.301 46.3C99.1009 44.4 97.7009 42.7 96.0009 41.2C95.5009 40.8 94.8009 41.5 95.3009 41.9C96.9009 43.3 98.3009 45 99.5009 46.8C99.8009 47.4 100.701 46.9 100.301 46.3Z" fill="#030047"/>
<path d="M91.8005 35.3C89.6005 37.7 78.7005 43.1 82.8005 48.5C83.8005 49.9 85.0006 50.4 83.9006 51.8C82.6006 53 80.7005 50.9 80.7005 50.9C78.7005 51.4 77.1005 52.2 76.0005 53.1C70.7005 48.5 70.8005 43.3 73.2005 41.4C73.2005 41.4 87.2005 21.3 93.7005 26.6C99.4005 31.3 91.8005 35.3 91.8005 35.3Z" fill="#5F5FFF"/>
<path d="M82.9005 55.2C80.8005 54.2 78.2005 54.8 76.7005 56.6C76.3005 57.1 77.0005 57.8 77.4005 57.3C78.6005 55.8 80.6005 55.2 82.4005 56.1C83.0005 56.3 83.5005 55.4 82.9005 55.2Z" fill="#030047"/>
<path d="M139.601 71.4C145.901 59.4 153.101 58.4 157.101 58.6C161.101 58.8 160.101 63.8 160.101 63.8L139.601 71.4Z" fill="#FFCC3E"/>
<path d="M221.3 91.3L157.8 103.1L149.7 59.9L145.9 39.6L168 35.5L209.4 27.8L212.5 44.4C204.6 45.9 199.2 52 200.9 61.3C202.4 69.2 210 74.4 217.8 72.9L221.3 91.3Z" fill="#FF3E6C"/>
<path d="M217.401 89.4C217.301 89.4 217.101 89.4 217.001 89.3L149.401 42.9C149.101 42.7 149.001 42.2 149.201 41.9C149.401 41.6 149.901 41.5 150.201 41.7L217.801 88.1C218.101 88.3 218.201 88.8 218.001 89.1C217.901 89.3 217.701 89.4 217.401 89.4Z" fill="white"/>
<path d="M160.4 100.1C160.3 100.1 160.1 100.1 160 100C159.7 99.8 159.6 99.3 159.8 99L206.2 31.4C206.4 31.1 206.9 31 207.2 31.2C207.5 31.4 207.6 31.9 207.4 32.2L161 99.7C160.9 100 160.7 100.1 160.4 100.1Z" fill="white"/>
<path d="M168 36C168 47.5 160.2 57.1 149.7 60L145.9 39.7L168 35.6C168 35.7 168 35.8 168 36Z" fill="#E4E4EF"/>
<path d="M166 66.2C166 66.2 168 61.1 162.5 61.8C157 62.5 145.7 62.2 134.7 75.8C133.8 76.9 132.8 78.1 131.7 79.4C137.7 84.7 143.2 90.4 148.7 96.2C149.8 93.8 150.6 91.7 151.3 90.3C156.6 79.8 169.5 85.2 167.5 73.8C167.5 73.9 170.8 66.9 166 66.2Z" fill="#FFCC3E"/>
<path d="M133.1 77.8C124.7 88 106.7 107.2 93.0002 98.1C78.3002 88.3 76.3002 77.7 76.3002 77.7L65.4002 78C56.1002 98.1 63.1002 130.7 103.6 128.1C135.3 126 144.9 105.6 149.5 94.9C144.2 88.8 138.6 83.3 133.1 77.8Z" fill="#030047"/>
<path d="M103.1 99.5C89.3999 99.5 80.3999 89.7 78.2999 81.8C78.1999 81.4 78.3999 81 78.7999 80.9C79.1999 80.8 79.5999 81 79.6999 81.4C81.8999 89.9 92.8999 100.8 109.3 97.3C120.8 94.8 130 80.2 130.1 80.1C130.3 79.7 130.8 79.6 131.1 79.9C131.5 80.1 131.6 80.6 131.3 80.9C130.9 81.5 121.7 96.2 109.5 98.8C107.4 99.3 105.2 99.5 103.1 99.5Z" fill="white"/>
<path d="M165.801 73.7C161.701 73.8 157.901 74.8 154.201 76.7C153.601 77 154.101 77.9 154.701 77.6C158.201 75.8 161.801 74.8 165.801 74.7C166.401 74.7 166.401 73.7 165.801 73.7Z" fill="#FF3E6C"/>
<path d="M163.1 66.9C159.9 67.1 156.8 67.8 153.8 69.1C153.2 69.3 153.5 70.3 154.1 70.1C157 68.9 160 68.2 163.1 68C163.8 67.9 163.8 66.9 163.1 66.9Z" fill="#FF3E6C"/>
<path d="M106 128.2C88.6001 128.2 74.2 115.8 67.6 103.2C67.4 102.8 67.6001 102.4 67.9001 102.2C68.3001 102 68.7001 102.2 68.9001 102.5C75.8001 115.7 91.7001 128.8 110.5 126.4C110.9 126.3 111.3 126.6 111.3 127C111.4 127.4 111.1 127.8 110.7 127.8C109.1 128.1 107.6 128.2 106 128.2Z" fill="white"/>
<path d="M292.401 25.7V90.3H227.801V71.6C219.801 71.6 213.301 65.1 213.301 57.1C213.301 47.7 219.801 42.6 227.801 42.6V25.7H292.401Z" fill="#FFCC3E"/>
<path d="M260.801 41.5H240.501C240.101 41.5 239.701 41.2 239.701 40.7C239.701 40.2 240.001 39.9 240.501 39.9H260.801C261.201 39.9 261.601 40.2 261.601 40.7C261.601 41.2 261.201 41.5 260.801 41.5Z" fill="white"/>
<path d="M260.801 48.6H240.501C240.101 48.6 239.701 48.3 239.701 47.8C239.701 47.3 240.001 47 240.501 47H260.801C261.201 47 261.601 47.3 261.601 47.8C261.601 48.3 261.201 48.6 260.801 48.6Z" fill="white"/>
<path d="M292.4 53.8V90.3H262C259.4 86.4 257.9 81.7 257.9 76.7C257.9 60.5 269 51.9 282.7 51.9C286.2 51.9 289.5 52.6 292.4 53.8Z" fill="#E4E4EF"/>
<path d="M223.8 238.1L195.7 245.3L178 249.9L166.2 204.1L179.5 200.7C178 195 181.5 189.2 187.2 187.8C193.9 186.1 198.7 189.8 200.1 195.5L212.1 192.4L215.2 204.4L223.8 238.1Z" fill="#F2F2F9"/>
<path d="M187 220.4L181.1 221.9L177.4 222.9L174.9 213.3L184.6 210.8L185.2 213.3L187 220.4Z" fill="#E4E4EF"/>
<path d="M199.1 217.4L193.2 218.9L189.5 219.9L187 210.3L196.7 207.8L197.3 210.3L199.1 217.4Z" fill="#E4E4EF"/>
<path d="M223.8 238.1L195.7 245.3C195 242.5 194.7 239.6 194.7 236.7C194.7 222.4 203 210 215.2 204.2L223.8 238.1Z" fill="#E4E4EF"/>
<path d="M305.601 152.9L299.101 167.8C292.001 164.7 284.301 166.7 280.701 175C277.601 182.1 280.901 190.3 288.001 193.4L280.801 209.9L223.801 185.1L240.701 146.3L248.601 128.1L268.401 136.7L275.001 139.6L297.201 149.3L305.601 152.9Z" fill="#E4E4EF"/>
<path d="M274.901 163.3C274.901 174.3 267.701 179.4 258.801 179.4C249.901 179.4 242.701 172.2 242.701 163.3C242.701 154.4 249.901 147.2 258.801 147.2C267.701 147.2 274.901 154.4 274.901 163.3Z" fill="#F2F2F9"/>
<path d="M253.801 171L251.401 159.5C251.301 159.1 251.601 158.7 252.001 158.6C252.401 158.5 252.801 158.8 252.901 159.2L254.801 168.4L268.201 158.7C268.501 158.5 269.001 158.5 269.201 158.9C269.401 159.2 269.401 159.7 269.001 159.9L253.801 171Z" fill="white"/>
<path d="M297.201 149.2C294.901 150.9 292.001 151.9 288.901 151.9C281.701 151.9 275.801 146.5 275.001 139.5L297.201 149.2Z" fill="#F2F2F9"/>
<path d="M202.601 20.4L214.801 12.7L215.901 26.4L202.601 20.4Z" fill="#E4E4EF"/>
<path d="M141.6 218.1C141.4 218.1 141.3 218 141.1 217.9C140.8 217.6 140.7 217.2 141 216.8L144.3 212.5C144.6 212.2 145.001 212.1 145.401 212.4C145.701 212.7 145.8 213.1 145.5 213.5L142.2 217.8C142 218 141.8 218.1 141.6 218.1Z" fill="#E4E4EF"/>
<path d="M225.2 20.3C224.9 20.3 224.7 20.2 224.6 19.9C224.4 19.5 224.5 19.1 224.8 18.9L235.8 12.2C236.2 12 236.6 12.1 236.8 12.4C237 12.8 236.9 13.2 236.6 13.4L225.6 20.1C225.5 20.3 225.3 20.3 225.2 20.3Z" fill="#E4E4EF"/>
<path d="M226.001 108.4C225.901 108.4 225.801 108.4 225.701 108.3C225.301 108.1 225.201 107.7 225.401 107.3L230.001 98.4C230.201 98 230.601 97.9 231.001 98.1C231.401 98.3 231.501 98.7 231.301 99.1L226.701 108C226.501 108.3 226.201 108.4 226.001 108.4Z" fill="#E4E4EF"/>
<path d="M157.101 205.9C157.001 205.9 156.901 205.9 156.801 205.8L147.001 201.4C146.601 201.2 146.501 200.8 146.601 200.4C146.801 200 147.201 199.9 147.601 200L157.401 204.4C157.801 204.6 157.901 205 157.801 205.4C157.701 205.8 157.401 205.9 157.101 205.9Z" fill="#E4E4EF"/>
<path d="M213.101 166.5C212.901 166.5 212.601 166.4 212.501 166.2C212.301 165.9 212.401 165.4 212.701 165.2L216.601 162.7C217.001 162.5 217.401 162.6 217.601 162.9C217.801 163.2 217.701 163.7 217.401 163.9L213.501 166.4C213.401 166.5 213.301 166.5 213.101 166.5Z" fill="#E4E4EF"/>
<path d="M230.601 199.5C230.401 199.5 230.201 199.4 230.101 199.3L224.701 193.8C224.401 193.5 224.401 193 224.701 192.7C225.001 192.4 225.501 192.4 225.801 192.7L231.201 198.2C231.501 198.5 231.501 199 231.201 199.3C231.001 199.5 230.801 199.5 230.601 199.5Z" fill="#E4E4EF"/>
<path d="M253.8 120C253.5 120 253.2 119.8 253.1 119.5L248.3 107.9C248.1 107.5 248.3 107.1 248.7 106.9C249.1 106.7 249.5 106.9 249.7 107.3L254.5 118.9C254.7 119.3 254.5 119.7 254.1 119.9C254 120 253.9 120 253.8 120Z" fill="#E4E4EF"/>
<path d="M218.7 8.2C218.4 8.2 218.2 8.10001 218 7.80001L214.6 1.80001C214.4 1.40001 214.5 1.00001 214.9 0.800006C215.3 0.600006 215.7 0.700001 215.9 1.1L219.3 7.10001C219.5 7.50001 219.4 7.90001 219 8.10001C219 8.10001 218.8 8.2 218.7 8.2Z" fill="#E4E4EF"/>
</svg>
