<?xml version="1.0" encoding="iso-8859-1"?>
<!-- Generator: Adobe Illustrator 19.0.0, SVG Export Plug-In . SVG Version: 6.00 Build 0)  -->
<svg version="1.1" id="Capa_1" xmlns="http://www.w3.org/2000/svg" xmlns:xlink="http://www.w3.org/1999/xlink" x="0px" y="0px"
	 viewBox="0 0 512.001 512.001" style="enable-background:new 0 0 512.001 512.001;" xml:space="preserve">
<polygon style="fill:#E0E0E0;" points="442.005,504.514 157.648,504.514 69.996,416.862 69.996,7.486 442.005,7.486 "/>
<rect x="417.052" y="7.486" style="fill:#C6C5CA;" width="24.954" height="497.024"/>
<polygon style="fill:#919191;" points="157.648,416.863 69.996,416.863 157.648,504.514 "/>
<path style="fill:#FFFFFF;" d="M389.399,236.258c0,0-59.724,84.79-133.397,84.79s-133.397-84.79-133.397-84.79
	s59.724-84.79,133.397-84.79S389.399,236.258,389.399,236.258z"/>
<circle style="fill:#546F7A;" cx="255.999" cy="236.254" r="54.1"/>
<circle style="fill:#3C5156;" cx="255.999" cy="236.254" r="30.953"/>
<path d="M162.702,202.998c3.049-2.792,3.258-7.527,0.465-10.577c-2.792-3.048-7.527-3.258-10.576-0.465
	c-22.105,20.242-35.546,39.196-36.107,39.991c-1.822,2.586-1.822,6.037,0,8.623c0.63,0.894,15.725,22.172,40.252,43.708
	c32.972,28.953,67.297,44.255,99.266,44.255s66.295-15.303,99.266-44.255c24.527-21.536,39.622-42.814,40.253-43.708
	c1.821-2.586,1.821-6.037,0-8.623c-0.631-0.894-15.726-22.172-40.253-43.708c-32.971-28.953-67.297-44.256-99.266-44.256
	c-25.794,0-52.503,9.601-79.386,28.538c-3.38,2.382-4.19,7.051-1.809,10.432c2.382,3.381,7.052,4.191,10.432,1.81
	c24.309-17.124,48.117-25.807,70.763-25.807c59.565,0,110.88,60.449,124.024,77.303c-13.153,16.863-64.463,77.302-124.024,77.302
	c-59.578,0-110.9-60.473-124.032-77.313C137.051,229.7,147.867,216.583,162.702,202.998z"/>
<path d="M317.586,236.258c0-33.958-27.627-61.585-61.585-61.585s-61.585,27.627-61.585,61.585s27.627,61.584,61.585,61.584
	C289.959,297.843,317.586,270.217,317.586,236.258z M209.387,236.258c0-25.703,20.91-46.613,46.613-46.613
	s46.613,20.91,46.613,46.613c0,25.702-20.91,46.612-46.613,46.612C230.298,282.871,209.387,261.96,209.387,236.258z"/>
<path d="M442.005,419.389c-4.135,0-7.486,3.351-7.486,7.486v70.153H165.134v-80.165c0-4.135-3.352-7.486-7.486-7.486H77.483V115.176
	c0-4.135-3.352-7.486-7.486-7.486s-7.486,3.351-7.486,7.486v301.687c0,0.082,0.009,0.164,0.012,0.246
	c0.003,0.09,0.007,0.179,0.013,0.268c0.021,0.307,0.055,0.612,0.114,0.912c0.003,0.016,0.005,0.033,0.008,0.049
	c0.062,0.309,0.151,0.612,0.251,0.91c0.028,0.085,0.059,0.168,0.09,0.252c0.104,0.275,0.22,0.544,0.354,0.805
	c0.014,0.027,0.025,0.056,0.039,0.083c0.149,0.279,0.322,0.545,0.506,0.805c0.053,0.075,0.108,0.148,0.164,0.222
	c0.191,0.249,0.392,0.489,0.614,0.714c0.01,0.01,0.017,0.021,0.026,0.031l87.651,87.651c0.177,0.177,0.361,0.343,0.553,0.5
	c0.097,0.08,0.201,0.149,0.301,0.223c0.098,0.072,0.192,0.149,0.292,0.216c0.116,0.077,0.237,0.143,0.356,0.214
	c0.092,0.054,0.181,0.113,0.275,0.164c0.12,0.064,0.244,0.117,0.366,0.174c0.099,0.046,0.195,0.097,0.295,0.138
	c0.119,0.049,0.243,0.088,0.363,0.13c0.109,0.038,0.215,0.082,0.325,0.115c0.118,0.036,0.24,0.06,0.359,0.09
	c0.117,0.029,0.232,0.063,0.35,0.087c0.126,0.025,0.253,0.038,0.379,0.057c0.115,0.017,0.229,0.039,0.344,0.051
	c0.213,0.021,0.426,0.029,0.641,0.032c0.031,0,0.061,0.005,0.091,0.005h284.357c4.135,0,7.486-3.351,7.486-7.486v-77.639
	C449.491,422.741,446.14,419.389,442.005,419.389z M150.162,486.441L88.071,424.35h62.091V486.441z"/>
<path d="M442.005,0H69.996c-4.134,0-7.486,3.351-7.486,7.486V85.23c0,4.135,3.352,7.486,7.486,7.486s7.486-3.351,7.486-7.486V14.972
	h357.036V396.93c0,4.135,3.351,7.486,7.486,7.486s7.486-3.351,7.486-7.486V7.486C449.491,3.351,446.14,0,442.005,0z"/>
<g>
</g>
<g>
</g>
<g>
</g>
<g>
</g>
<g>
</g>
<g>
</g>
<g>
</g>
<g>
</g>
<g>
</g>
<g>
</g>
<g>
</g>
<g>
</g>
<g>
</g>
<g>
</g>
<g>
</g>
</svg>
