<svg width="208" height="249" viewBox="0 0 208 249" fill="none" xmlns="http://www.w3.org/2000/svg">
<path d="M191.101 194.9L207.301 214.9L170.801 248.6C170.801 248.6 166.501 243.9 169.301 239.1C170.701 236.6 172.001 232.2 172.301 227.4C172.301 227.1 172.301 226.7 172.401 226.4C172.501 225.2 172.501 224 172.401 222.8C172.401 222.5 172.301 222.1 172.301 221.8C172.001 219.1 171.301 216.5 170.101 214.3L191.101 194.9Z" fill="#5F5FFF"/>
<path d="M181.8 221.6C178.7 222 175.5 222.5 172.4 223C172.4 222.7 172.3 222.3 172.3 222C175.4 221.6 178.5 221.1 181.6 220.7C182.2 220.5 182.4 221.5 181.8 221.6Z" fill="#FF3E6C"/>
<path d="M180.8 227.2C178 227.3 175.1 227.4 172.3 227.5C172.3 227.2 172.3 226.8 172.4 226.5C175.2 226.4 178.1 226.3 180.9 226.2C181.5 226.1 181.5 227.1 180.8 227.2Z" fill="#FF3E6C"/>
<path d="M121.1 219.9L119.4 245.6H69.7002C69.7002 245.6 69.7002 239.3 75.0002 237.6C77.7002 236.8 81.7002 234.3 85.2002 231.1C85.4002 230.9 85.7002 230.7 85.9002 230.4C86.7002 229.6 87.6002 228.7 88.3002 227.8C88.5002 227.5 88.7002 227.3 88.9002 227C90.5002 224.8 91.8002 222.4 92.3002 220H121.1V219.9Z" fill="#5F5FFF"/>
<path d="M125.101 99.8C125.401 162 158.601 215.3 169.101 221.8L196.501 199.3C196.501 199.3 179.201 178 174.101 160C169.001 142 160.701 91.7 160.701 91.7L125.101 99.8Z" fill="#FFCC3E"/>
<path d="M101.7 104.6C101.7 128 88.7002 221.2 88.7002 221.2L126.3 226.5C126.3 226.5 136.1 133.6 135.9 121.3C135.7 109 130.7 93.5 130.7 93.5L101.7 104.6Z" fill="#FFCC3E"/>
<path d="M153 99.2C152.7 99.2 152.4 99 152.3 98.7C151.9 97.8 151.5 96.9 151.1 96C150.9 95.6 151.1 95.2 151.5 95C151.9 94.8 152.3 95 152.5 95.4C152.9 96.3 153.3 97.2 153.7 98.2C153.9 98.6 153.7 99 153.3 99.2C153.2 99.2 153.1 99.2 153 99.2Z" fill="white"/>
<path d="M181.4 196.1C181.1 196.1 180.9 196 180.7 195.7C179.7 194 178.7 192.1 177.7 190.1C177.5 189.7 177.7 189.3 178 189.1C178.4 188.9 178.8 189.1 179 189.4C180 191.4 181 193.2 182 194.9C182.2 195.3 182.1 195.7 181.7 195.9C181.7 196 181.5 196.1 181.4 196.1ZM175.6 184.8C175.3 184.8 175 184.6 174.9 184.4C174 182.5 173.2 180.6 172.3 178.6C172.1 178.2 172.3 177.8 172.7 177.6C173.1 177.4 173.5 177.6 173.7 178C174.5 180 175.4 181.9 176.2 183.8C176.4 184.2 176.2 184.6 175.8 184.8C175.9 184.8 175.8 184.8 175.6 184.8ZM170.8 173.1C170.5 173.1 170.2 172.9 170.1 172.6C169.4 170.7 168.8 168.7 168.1 166.5C168 166.1 168.2 165.7 168.6 165.6C169 165.5 169.4 165.7 169.5 166.1C170.1 168.2 170.8 170.3 171.4 172.1C171.5 172.5 171.3 172.9 171 173.1C170.9 173.1 170.9 173.1 170.8 173.1ZM167.2 160.9C166.9 160.9 166.6 160.7 166.5 160.3C166 158.4 165.6 156.3 165.1 154.1C165 153.7 165.3 153.3 165.7 153.2C166.1 153.1 166.5 153.4 166.6 153.8C167.1 156 167.5 158.1 168 160C168.1 160.4 167.8 160.8 167.4 160.9C167.4 160.9 167.3 160.9 167.2 160.9ZM164.7 148.5C164.3 148.5 164 148.2 164 147.9C163.6 145.8 163.2 143.8 162.9 141.7C162.8 141.3 163.1 140.9 163.5 140.8C163.9 140.7 164.3 141 164.4 141.4C164.8 143.5 165.1 145.6 165.5 147.6C165.6 148 165.3 148.4 164.9 148.5C164.8 148.5 164.7 148.5 164.7 148.5ZM162.4 136C162 136 161.7 135.7 161.7 135.4C161.3 133.3 160.9 131.2 160.6 129.2C160.5 128.8 160.8 128.4 161.2 128.3C161.6 128.2 162 128.5 162.1 128.9C162.5 131 162.9 133.1 163.2 135.2C163.3 135.6 163 136 162.6 136.1C162.5 136 162.5 136 162.4 136ZM160 123.5C159.7 123.5 159.3 123.3 159.3 122.9C158.8 120.7 158.4 118.7 157.9 116.7C157.8 116.3 158.1 115.9 158.5 115.8C158.9 115.7 159.3 116 159.4 116.4C159.9 118.4 160.3 120.4 160.8 122.6C160.9 123 160.6 123.4 160.2 123.5C160.1 123.5 160.1 123.5 160 123.5ZM157.1 111.2C156.8 111.2 156.5 111 156.4 110.7C155.8 108.6 155.2 106.6 154.5 104.7C154.4 104.3 154.6 103.9 155 103.7C155.4 103.6 155.8 103.8 156 104.2C156.6 106.1 157.3 108.2 157.9 110.3C158 110.7 157.8 111.1 157.4 111.2C157.2 111.2 157.1 111.2 157.1 111.2Z" fill="white"/>
<path d="M186.6 203.8C186.4 203.8 186.2 203.7 186 203.6C186 203.6 185.3 202.8 184.1 201.1C183.9 200.8 183.9 200.3 184.3 200.1C184.6 199.9 185.1 199.9 185.3 200.3C186.4 201.9 187 202.6 187.1 202.6C187.4 202.9 187.4 203.4 187 203.7C187 203.8 186.8 203.8 186.6 203.8Z" fill="white"/>
<path d="M96.2004 233.2C93.6004 231.4 91.0004 229.6 88.4004 227.8C88.6004 227.5 88.8004 227.3 89.0004 227C91.6004 228.8 94.2004 230.6 96.7004 232.3C97.3004 232.7 96.8004 233.5 96.2004 233.2Z" fill="#FF3E6C"/>
<path d="M91.7998 236.7C89.6998 234.8 87.4998 233 85.2998 231.1C85.4998 230.9 85.7998 230.7 85.9998 230.4C88.0998 232.3 90.2998 234.1 92.4998 235.9C92.9998 236.4 92.2998 237.1 91.7998 236.7Z" fill="#FF3E6C"/>
<path d="M132.7 147.9C132.4 147.9 132.1 147.7 132 147.4C129.9 142.3 127.5 120.7 127 116.8C126 116.7 123.5 116.3 119 115.4C118.6 115.3 118.3 114.9 118.4 114.5C118.5 114.1 118.9 113.8 119.3 113.9C125.4 115.1 127.7 115.4 127.7 115.4L128.3 115.5L128.4 116.1C128.4 116.4 131.2 141.6 133.3 146.9C133.5 147.3 133.3 147.7 132.9 147.9C132.9 147.9 132.8 147.9 132.7 147.9Z" fill="white"/>
<path d="M102.8 36C77.5 46.9 54 60.6 42 80.6C30 100.6 32.2 126.2 44.3 120.2C44.3 120.2 48.8 120.8 51.2 116.3C51.2 116.3 55.4001 118.2 56.9001 114.7C57.6001 113.1 55.3001 108.2 56.9001 101.8C58.9001 94 65.9 84.1 79.1 75.8C103 60.8 110 59.7 110 59.7L102.8 36Z" fill="#8FACFF"/>
<path d="M88.1996 70.3C104.8 60.6 109.9 59.7 109.9 59.7L102.8 35.9C94.1996 39.6 85.8996 43.6 78.0996 48.1C81.2996 55.6 84.6996 62.9 88.1996 70.3Z" fill="#FF3E6C"/>
<path d="M39 88.9C26.8 97 30.8 113.7 34.2 114.6C37.9 115.6 38 104.6 38 104.6L43.8 104.3L39 88.9Z" fill="#8FACFF"/>
<path d="M45.6998 98.9C44.0998 102 40.7998 103.3 37.6998 104.3C37.4998 104.4 37.2998 104.6 37.3998 104.9C38.3998 107.7 37.9998 110.6 36.1998 113C35.7998 113.5 36.6998 114 37.0998 113.5C38.8998 111 39.3998 108 38.4998 105.1C41.6998 104 44.9998 102.6 46.6998 99.4C46.8998 98.8 45.9998 98.3 45.6998 98.9Z" fill="white"/>
<path d="M44.2005 117.9C42.3005 114.7 41.7005 111.2 42.7005 107.6C42.9005 107 41.9005 106.7 41.7005 107.3C40.7005 111.1 41.2004 115 43.3004 118.4C43.7004 119 44.5005 118.5 44.2005 117.9Z" fill="white"/>
<path d="M50.3002 115.4C49.2002 112.6 48.9002 109.6 49.6002 106.7C49.7002 106.1 48.8002 105.8 48.6002 106.4C47.9002 109.5 48.2002 112.7 49.3002 115.7C49.6002 116.2 50.6002 116 50.3002 115.4Z" fill="white"/>
<path d="M107.1 22.8C112.5 22.9 115.2 18.4 115.1 14.7C115 11.2 111.5 9.1 107.6 11C106.3 11.6 105 12.8 103.8 14.5C103.8 14.5 103.4 16.1 103.4 17.8C103.4 20 104 22.7 107.1 22.8Z" fill="#8FACFF"/>
<path d="M86.9003 29.9C91.0003 35.9 99.5002 39.1 106.3 31.6C110.9 26.4 111.3 18 105.9 12.1C100.5 6.20001 91.7002 5.5 86.5002 10.4C81.2002 15.3 82.4003 23.2 86.9003 29.9Z" fill="#8FACFF"/>
<path d="M95.362 23.1645C95.5877 22.6604 95.3621 22.0688 94.858 21.8431C94.354 21.6174 93.7623 21.843 93.5366 22.3471C93.3109 22.8512 93.5366 23.4428 94.0406 23.6685C94.5447 23.8942 95.1363 23.6686 95.362 23.1645Z" fill="#030047"/>
<path d="M92.1005 30.9C90.8005 29.1 89.8005 27.1 89.0005 25C88.8005 24.4 89.7005 24 89.9005 24.6C90.6005 26.6 91.6005 28.5 92.8005 30.3C93.3005 30.8 92.5005 31.4 92.1005 30.9Z" fill="#030047"/>
<path d="M85.1006 18.7C88.1006 17.6 97.3007 9.6 100.801 15.4C101.701 16.9 101.701 18.1 103.401 17.7C105.001 17 103.801 14.4 103.801 14.4C105.001 12.7 106.301 11.6 107.601 10.9C111.201 5.1 102.301 -2.1 97.3007 2.2C97.3007 2.2 86.2007 -0.500004 83.0007 6.4C77.3007 8.7 75.2007 13.1 76.4007 17.2C78.6007 24.3 85.1006 18.7 85.1006 18.7Z" fill="#5F5FFF"/>
<path d="M106.901 18.1C106.801 15.7 108.301 13.6 110.601 12.9C111.201 12.7 111.601 13.7 111.001 13.8C109.201 14.3 107.901 16 108.001 17.9C107.901 18.7 106.901 18.8 106.901 18.1Z" fill="#030047"/>
<path d="M111.3 31.4C101.2 34.8 93.7996 40.2 95.9996 69.2C98.1996 98.2 97.7995 107.1 97.7995 107.1L162.8 97.9C162.8 97.9 143.8 20.5 111.3 31.4Z" fill="#FF3E6C"/>
<path d="M96.3 74.6C95.9 74.6 95.6 74.3 95.6 73.9L95 56.8C95 56.4 95.3 56 95.7 56C96.1 56 96.5 56.3 96.5 56.7L97.1 73.8C97.1 74.2 96.7 74.5 96.3 74.6Z" fill="#030047"/>
<path d="M59 159.4C53.9 159.4 49.7 157.6 46.4 154.1C38.5 145.7 38.6 130 38.8 126.3H1.79999C1.39999 126.3 1 126 1 125.5C1 125 1.29999 124.7 1.79999 124.7H40.4L40.3 125.5C40.3 125.7 39.2 144.1 47.5 153C50.5 156.2 54.4 157.8 59 157.8C63.5 157.8 67.2 156.2 70 153.1C78.3 143.9 76.2 124.1 76.2 123.9C76.2 123.5 76.5 123.1 76.9 123.1C77.3 123.1 77.7 123.4 77.7 123.8C77.8 124.6 79.9 144.4 71.2 154.1C68 157.7 63.9 159.4 59 159.4Z" fill="#030047"/>
<path d="M25.0004 145.6H1.70038C1.30038 145.6 0.900391 145.3 0.900391 144.8C0.900391 144.3 1.20038 144 1.70038 144H25.0004C25.4004 144 25.8004 144.3 25.8004 144.8C25.8004 145.3 25.4004 145.6 25.0004 145.6Z" fill="#5F5FFF"/>
<path d="M25.0004 139.2H1.70038C1.30038 139.2 0.900391 138.9 0.900391 138.4C0.900391 137.9 1.20038 137.6 1.70038 137.6H25.0004C25.4004 137.6 25.8004 137.9 25.8004 138.4C25.8004 138.9 25.4004 139.2 25.0004 139.2Z" fill="#5F5FFF"/>
<path d="M25.0004 151.9H1.70038C1.30038 151.9 0.900391 151.6 0.900391 151.1C0.900391 150.6 1.20038 150.3 1.70038 150.3H25.0004C25.4004 150.3 25.8004 150.6 25.8004 151.1C25.8004 151.6 25.4004 151.9 25.0004 151.9Z" fill="#5F5FFF"/>
<path d="M4.79999 116.6C6.89867 116.6 8.59998 114.899 8.59998 112.8C8.59998 110.701 6.89867 109 4.79999 109C2.70131 109 1 110.701 1 112.8C1 114.899 2.70131 116.6 4.79999 116.6Z" fill="#E4E4EF"/>
<path d="M16.1008 116.6C18.1995 116.6 19.9008 114.899 19.9008 112.8C19.9008 110.701 18.1995 109 16.1008 109C14.0021 109 12.3008 110.701 12.3008 112.8C12.3008 114.899 14.0021 116.6 16.1008 116.6Z" fill="#E4E4EF"/>
<path d="M63.9008 140.8C63.9008 146.5 59.3008 151.1 53.6008 151.1C47.9008 151.1 43.3008 146.5 43.3008 140.8C43.3008 135.1 47.9008 130.5 53.6008 130.5C59.3008 130.5 63.9008 133.1 63.9008 140.8Z" fill="#5F5FFF"/>
<path d="M69.8 147.2C69.8 150.5 67.2 153.1 63.9 153.1C60.6 153.1 58 150.5 58 147.2C58 143.9 60.6 141.3 63.9 141.3C67.2 141.3 69.8 142.8 69.8 147.2Z" fill="#8FACFF"/>
<path d="M52.0664 109.815L47.8164 117.176L55.1774 121.426L59.4274 114.065L52.0664 109.815Z" fill="#FFCC3E"/>
<path d="M58 123.7L73.4 118.7L71.2 135.6L58 123.7Z" fill="#FFC2D6"/>
<path d="M47.2004 127.9C47.1004 127.9 46.9004 127.9 46.8004 127.8L42.8004 125.5C42.4004 125.3 42.3004 124.8 42.5004 124.5C42.7004 124.1 43.2004 124 43.5004 124.2L47.5004 126.5C47.9004 126.7 48.0004 127.2 47.8004 127.5C47.8004 127.8 47.5004 127.9 47.2004 127.9Z" fill="#E4E4EF"/>
<path d="M65.7002 110.6C65.6002 110.6 65.4002 110.6 65.3002 110.5C65.0002 110.3 64.9001 109.8 65.1001 109.5L70.3002 101.4C70.5002 101.1 71.0002 101 71.3002 101.2C71.6002 101.4 71.7002 101.9 71.5002 102.2L66.3002 110.3C66.2002 110.5 66.0002 110.6 65.7002 110.6Z" fill="#E4E4EF"/>
<path d="M63.9006 101.3C63.5006 101.3 63.1006 101 63.1006 100.5V96.1C63.1006 95.7 63.4006 95.3 63.9006 95.3C64.4006 95.3 64.7006 95.6 64.7006 96.1V100.5C64.7006 101 64.4006 101.3 63.9006 101.3Z" fill="#E4E4EF"/>
<path d="M25.0001 101.3C24.8001 101.3 24.6001 101.2 24.4001 101L18.1001 93.9C17.8001 93.6 17.9001 93.1 18.2001 92.8C18.5001 92.5 19.0001 92.6 19.3001 92.9L25.6001 100C25.9001 100.3 25.8001 100.8 25.5001 101.1C25.3001 101.3 25.2001 101.3 25.0001 101.3Z" fill="#E4E4EF"/>
<path d="M29.8007 84.1C29.6007 84.1 29.3007 84 29.2007 83.8C29.0007 83.5 29.1007 83 29.4007 82.8L34.7007 79.3C35.0007 79.1 35.5007 79.2 35.7007 79.5C35.9007 79.8 35.8007 80.3 35.5007 80.5L30.2007 84C30.0007 84 29.9007 84.1 29.8007 84.1Z" fill="#E4E4EF"/>
<path d="M88.0007 91.1C87.7007 91.1 87.4007 90.9 87.3007 90.7L84.9007 85.7C84.7007 85.3 84.9007 84.9 85.3007 84.7C85.7007 84.5 86.1007 84.7 86.3007 85.1L88.7007 90.1C88.9007 90.5 88.7007 90.9 88.3007 91.1C88.2007 91 88.1007 91.1 88.0007 91.1Z" fill="#E4E4EF"/>
<path d="M100.401 103.5C89.6007 100.5 84.8007 100.5 81.2007 106.4C80.6007 107.3 80.4007 108.3 80.2007 109.1C79.8007 110.8 81.5007 112.3 83.2007 111.6L100.401 103.5Z" fill="#8FACFF"/>
<path d="M80.3008 121.5L96.8008 99.2C98.3008 97.2 95.2008 94.9 93.7008 96.9L77.2008 119.2C76.5008 120.2 75.6008 122.9 76.4008 123.5C77.1008 124 79.5008 122.4 80.3008 121.5Z" fill="#5F5FFF"/>
<path d="M126 32.4C139.5 35.9 175.7 73.1 154.7 99.1C142.7 114 129.8 118.2 117.2 121.1C112.4 122.2 109.3 122.2 103.5 121.7C103.5 123.9 103.4 124.9 99.3003 124.9C93.4003 124.9 90.8003 124 90.3003 121.1C90.3003 121.1 86.7003 121 87.1003 116.4C87.1003 116.4 80.5003 122.8 78.1003 119.5C76.5003 117.3 78.1004 114.8 89.9004 107C95.8004 103.1 117.2 98.6 128.9 88.9C137.1 82.1 135.2 57 125.2 53.1C115.2 49.2 126 32.4 126 32.4Z" fill="#8FACFF"/>
<path d="M125.101 53.1C129.801 54.9 132.701 61.4 133.601 68.4C140.701 65.7 147.801 62.9 154.901 60.1C146.901 45.8 133.201 34.2 125.901 32.3C126.001 32.4 115.201 49.2 125.101 53.1Z" fill="#FF3E6C"/>
<path d="M103.001 116.7C99.4007 115.9 95.9007 116.9 93.1007 119.3C92.6007 119.7 93.3007 120.4 93.8007 120C96.2007 117.8 99.5008 116.9 102.701 117.6C103.401 117.8 103.601 116.8 103.001 116.7Z" fill="white"/>
<path d="M98.8004 110.7C94.6004 110.2 90.6004 111.7 87.7004 114.7C87.2004 115.2 88.0005 115.9 88.4005 115.4C91.2005 112.6 94.9004 111.3 98.8004 111.7C99.5004 111.8 99.5004 110.8 98.8004 110.7Z" fill="white"/>
<path d="M132.701 66C132.401 66 132.101 65.8 132.001 65.4C132.001 65.4 130.701 60.4 127.001 55.1C126.801 54.8 126.901 54.3 127.201 54.1C127.501 53.9 128.001 54 128.201 54.3C132.101 59.9 133.401 64.9 133.401 65.1C133.501 65.5 133.301 65.9 132.901 66C132.801 66 132.801 66 132.701 66Z" fill="white"/>
<path d="M101.8 121.2H99.1004C98.5004 121.2 98.5004 122.2 99.1004 122.2H101.8C102.4 122.2 102.4 121.2 101.8 121.2Z" fill="white"/>
</svg>
