<?xml version="1.0" encoding="iso-8859-1"?>
<!-- Generator: Adobe Illustrator 19.0.0, SVG Export Plug-In . SVG Version: 6.00 Build 0)  -->
<svg version="1.1" id="Capa_1" xmlns="http://www.w3.org/2000/svg" xmlns:xlink="http://www.w3.org/1999/xlink" x="0px" y="0px"
	 viewBox="0 0 512 512" style="enable-background:new 0 0 512 512;" xml:space="preserve">
<path style="fill:#E0E0E0;" d="M222.005,353.889C100.875,342.635,7.518,271.592,7.518,185.631
	c0-93.784,111.122-169.811,248.198-169.811s248.198,76.027,248.198,169.811c0,46.766-27.632,89.118-72.335,119.827"/>
<polygon style="fill:#FF434D;" points="340.478,382.584 504.482,373.278 221.82,110.319 221.82,496.181 "/>
<polygon style="fill:#DD3646;" points="476.736,347.466 326.551,355.988 221.82,456.252 221.82,496.181 340.478,382.584 
	504.482,373.278 "/>
<circle style="fill:#B2B1B5;" cx="89.878" cy="269.001" r="35.306"/>
<path d="M509.602,367.774l-66.181-61.568c43.932-32.82,68.011-75.339,68.011-120.575c0-47.915-26.979-92.763-75.968-126.28
	c-48.117-32.92-111.952-51.05-179.748-51.05c-79.664,0-153.329,24.968-202.106,68.502c-3.097,2.765-3.367,7.518-0.603,10.616
	c2.765,3.096,7.516,3.369,10.616,0.603c21.955-19.595,50.617-35.841,82.888-46.982c34.024-11.746,70.767-17.702,109.206-17.702
	c132.711,0,240.68,72.804,240.68,162.293c0,41.08-22.741,80.007-64.174,110.156L226.942,104.815
	c-2.19-2.037-5.378-2.583-8.124-1.388c-2.742,1.194-4.516,3.901-4.516,6.893v59.498c0,4.152,3.365,7.518,7.518,7.518
	c4.153,0,7.518-3.366,7.518-7.518v-42.235l257.11,239.189l-57.857,3.283c-4.146,0.235-7.316,3.786-7.081,7.932
	c0.228,4.001,3.542,7.092,7.5,7.092c0.142,0,0.288-0.004,0.433-0.012l75.464-4.282c3.008-0.17,5.623-2.12,6.646-4.954
	C512.576,372.996,511.807,369.826,509.602,367.774z"/>
<path d="M397.73,371.805l-57.679,3.273c-1.787,0.101-3.48,0.837-4.774,2.075l-105.94,101.422V355.513
	c0.067-0.303,0.122-0.611,0.151-0.928c0.075-0.805,0.016-1.592-0.151-2.341V199.89c0-4.152-3.365-7.518-7.518-7.518
	c-4.153,0-7.518,3.366-7.518,7.518v145.619c-41.561-4.887-80.371-17.122-112.668-35.338c17.913-5.122,31.067-21.632,31.067-41.168
	c0-23.612-19.21-42.822-42.823-42.822c-22.747,0-41.4,17.829-42.737,40.244c-20.891-24.457-32.105-52.293-32.105-80.796
	c0-26.384,9.674-52.605,27.979-75.829c2.57-3.261,2.01-7.988-1.251-10.559c-3.261-2.57-7.986-2.01-10.559,1.251
	C10.791,126.396,0,155.835,0,185.631c0,43.701,22.987,85.635,64.724,118.08c5.432,4.223,11.141,8.24,17.084,12.057
	c18.317,13.353,64.107,54.584,58.82,86.749c-2.851,17.342-20.41,31.163-52.192,41.08c-3.964,1.237-6.174,5.452-4.937,9.417
	c1.003,3.218,3.972,5.281,7.174,5.281c0.741,0,1.496-0.11,2.241-0.343c37.667-11.753,58.713-29.591,62.552-53.015
	c3.734-22.776-10.038-46.29-25.863-64.949c26.101,10.244,54.757,17.286,84.695,20.659v135.534c0,3.011,1.796,5.732,4.566,6.915
	c0.951,0.406,1.955,0.603,2.95,0.603c1.901,0,3.774-0.721,5.201-2.087L343.67,389.933l54.909-3.116
	c4.146-0.235,7.316-3.786,7.08-7.932C405.427,374.74,401.87,371.557,397.73,371.805z M89.88,241.217
	c15.321,0,27.786,12.465,27.786,27.785c0,15.32-12.465,27.785-27.786,27.785s-27.786-12.465-27.786-27.785
	C62.093,253.682,74.559,241.217,89.88,241.217z"/>
<g>
</g>
<g>
</g>
<g>
</g>
<g>
</g>
<g>
</g>
<g>
</g>
<g>
</g>
<g>
</g>
<g>
</g>
<g>
</g>
<g>
</g>
<g>
</g>
<g>
</g>
<g>
</g>
<g>
</g>
</svg>
