<?xml version="1.0" encoding="iso-8859-1"?>
<!-- Generator: Adobe Illustrator 19.0.0, SVG Export Plug-In . SVG Version: 6.00 Build 0)  -->
<svg version="1.1" id="Capa_1" xmlns="http://www.w3.org/2000/svg" xmlns:xlink="http://www.w3.org/1999/xlink" x="0px" y="0px"
	 viewBox="0 0 512 512" style="enable-background:new 0 0 512 512;" xml:space="preserve">
<g>
	<rect x="62.761" y="270.751" style="fill:#E0E0E0;" width="386.488" height="160.321"/>
	<rect x="62.761" y="39.197" style="fill:#E0E0E0;" width="386.488" height="84.752"/>
</g>
<rect x="62.761" y="431.082" style="fill:#39A4FA;" width="386.488" height="73.416"/>
<rect x="62.761" y="7.511" style="fill:#546F7A;" width="386.488" height="31.689"/>
<g>
	<rect x="117.16" y="307.975" style="fill:#FFD039;" width="56.331" height="56.331"/>
	<rect x="227.829" y="307.975" style="fill:#FFD039;" width="56.331" height="56.331"/>
	<rect x="338.509" y="307.975" style="fill:#FFD039;" width="56.331" height="56.331"/>
</g>
<rect x="62.761" y="123.949" style="fill:#FF434D;" width="386.488" height="146.802"/>
<g>
	<rect x="424.203" y="270.751" style="fill:#C6C5CA;" width="25.036" height="160.321"/>
	<rect x="424.203" y="39.197" style="fill:#C6C5CA;" width="25.036" height="84.752"/>
</g>
<rect x="424.203" y="431.082" style="fill:#0091E2;" width="25.036" height="73.416"/>
<rect x="424.203" y="7.511" style="fill:#475D63;" width="25.036" height="31.689"/>
<rect x="424.203" y="123.949" style="fill:#DD3646;" width="25.036" height="146.802"/>
<path d="M449.243,0H62.757c-4.149,0-7.511,3.362-7.511,7.511v31.69v27.355c0,4.149,3.362,7.511,7.511,7.511
	c4.149,0,7.511-3.362,7.511-7.511V46.711h371.464v69.731H70.268V96.599c0-4.149-3.362-7.511-7.511-7.511
	c-4.149,0-7.511,3.362-7.511,7.511v27.352v146.803v160.323v73.411c0,4.149,3.362,7.511,7.511,7.511h386.486
	c4.149,0,7.511-3.362,7.511-7.511v-73.411v-60.902c0-4.149-3.362-7.511-7.511-7.511s-7.511,3.362-7.511,7.511v53.391H70.268V278.266
	h371.464v61.861c0,4.149,3.362,7.511,7.511,7.511s7.511-3.362,7.511-7.511v-69.372V123.952V39.2V7.511
	C456.754,3.362,453.392,0,449.243,0z M70.268,134.84l164.579,62.513L70.268,259.867V134.84z M103.684,131.463h304.632L256,189.318
	L103.684,131.463z M256,205.388l48.591,18.457c0.878,0.332,1.779,0.491,2.666,0.491c3.028,0,5.882-1.846,7.023-4.846
	c1.473-3.878-0.478-8.215-4.355-9.689l-32.772-12.448l164.579-62.513v125.027l-103.628-39.362c-3.878-1.469-8.215,0.477-9.689,4.355
	c-1.473,3.878,0.478,8.215,4.355,9.689l75.544,28.694h-304.63L256,205.388z M70.268,31.689V15.022h371.464v16.667H70.268z
	 M441.732,438.589v58.389H70.268v-58.389H441.732z"/>
<path d="M324.441,89.088c4.149,0,7.511-3.362,7.511-7.511s-3.362-7.511-7.511-7.511H187.559c-4.149,0-7.511,3.362-7.511,7.511
	s3.362,7.511,7.511,7.511H324.441z"/>
<path d="M181.001,307.977c0-4.149-3.362-7.511-7.511-7.511h-56.334c-4.149,0-7.511,3.362-7.511,7.511v56.334
	c0,4.149,3.362,7.511,7.511,7.511h56.334c4.149,0,7.511-3.362,7.511-7.511V307.977z M165.979,356.8h-41.313v-41.313h41.313V356.8z"
	/>
<path d="M173.49,383.454h-56.334c-4.149,0-7.511,3.362-7.511,7.511s3.362,7.511,7.511,7.511h56.334c4.149,0,7.511-3.362,7.511-7.511
	C181.001,386.817,177.638,383.454,173.49,383.454z"/>
<path d="M291.678,307.977c0-4.149-3.362-7.511-7.511-7.511h-56.334c-4.149,0-7.511,3.362-7.511,7.511v56.334
	c0,4.149,3.362,7.511,7.511,7.511h56.334c4.149,0,7.511-3.362,7.511-7.511V307.977z M276.656,356.8h-41.313v-41.313h41.313V356.8z"
	/>
<path d="M284.167,383.454h-56.334c-4.149,0-7.511,3.362-7.511,7.511s3.362,7.511,7.511,7.511h56.334
	c4.149,0,7.511-3.362,7.511-7.511C291.678,386.817,288.316,383.454,284.167,383.454z"/>
<path d="M402.356,307.977c0-4.149-3.362-7.511-7.511-7.511h-56.334c-4.149,0-7.511,3.362-7.511,7.511v56.334
	c0,4.149,3.362,7.511,7.511,7.511h56.334c4.149,0,7.511-3.362,7.511-7.511V307.977z M387.335,356.8h-41.313v-41.313h41.313V356.8z"
	/>
<path d="M394.845,383.454h-56.334c-4.149,0-7.511,3.362-7.511,7.511s3.362,7.511,7.511,7.511h56.334
	c4.149,0,7.511-3.362,7.511-7.511C402.356,386.817,398.993,383.454,394.845,383.454z"/>
<path d="M110.104,475.294h45.933c4.149,0,7.511-3.363,7.511-7.511c0-4.149-3.362-7.511-7.511-7.511h-45.933
	c-4.149,0-7.511,3.362-7.511,7.511C102.594,471.932,105.955,475.294,110.104,475.294z"/>
<path d="M192.057,475.294h45.934c4.149,0,7.511-3.363,7.511-7.511c0-4.149-3.362-7.511-7.511-7.511h-45.934
	c-4.149,0-7.511,3.362-7.511,7.511C184.546,471.932,187.908,475.294,192.057,475.294z"/>
<path d="M274.01,475.294h45.934c4.148,0,7.511-3.363,7.511-7.511c0-4.149-3.363-7.511-7.511-7.511H274.01
	c-4.149,0-7.511,3.362-7.511,7.511C266.499,471.932,269.861,475.294,274.01,475.294z"/>
<path d="M355.963,475.294h45.933c4.149,0,7.511-3.363,7.511-7.511c0-4.149-3.362-7.511-7.511-7.511h-45.933
	c-4.149,0-7.511,3.362-7.511,7.511C348.452,471.932,351.814,475.294,355.963,475.294z"/>
<g>
</g>
<g>
</g>
<g>
</g>
<g>
</g>
<g>
</g>
<g>
</g>
<g>
</g>
<g>
</g>
<g>
</g>
<g>
</g>
<g>
</g>
<g>
</g>
<g>
</g>
<g>
</g>
<g>
</g>
</svg>
