<svg width="215" height="228" viewBox="0 0 215 228" fill="none" xmlns="http://www.w3.org/2000/svg">
<path d="M131.3 88.6999L175 84.9999L172.5 120.9L134.5 123.4L131.3 88.6999Z" fill="white"/>
<path d="M174.2 85.7999L171.7 120.2L135.1 122.6L132 89.2999L174.2 85.7999ZM175.9 84.0999L130.6 87.9999L133.9 124.2L173.2 121.6L175.9 84.0999Z" fill="#030047"/>
<path d="M148 115.6C147.6 115.6 147.3 115.3 147.3 114.9L146 104.7L141.4 103.2C141 103.1 140.8 102.6 140.9 102.3C141 101.9 141.5 101.7 141.8 101.8L147.2 103.6L148.6 114.7C148.8 115.1 148.5 115.5 148 115.6C148.1 115.6 148.1 115.6 148 115.6Z" fill="#030047"/>
<path d="M128.9 25.4999C135.3 23.4999 154 18.5999 169.9 45.1999C185.9 71.7999 175.8 94.7 175.8 94.7L127.9 92.2999C127.9 92.2999 126.4 65.2999 122.1 47.9999C121.2 44.2999 118.7 28.6999 128.9 25.4999Z" fill="#030047"/>
<path d="M92.6998 87.2999C98.5998 90.7999 101.7 99.5999 101.7 99.5999L96.4998 100.9C96.4998 100.9 92.5998 96.0999 89.4998 96.0999C86.3998 96.0999 92.6998 87.2999 92.6998 87.2999Z" fill="white"/>
<path d="M96.0999 101.7L95.7999 101.3C94.7999 99.9999 91.6 96.7999 89.4 96.7999C88.5 96.7999 88.0999 96.2999 87.9999 95.9999C86.9999 94.0999 90.4999 88.9999 92.0999 86.7999L92.4999 86.2L93.0999 86.4999C99.0999 90.0999 102.3 98.7999 102.4 99.0999L102.7 99.9L96.0999 101.7ZM89.2999 95.2999C89.2999 95.2999 89.3999 95.2999 89.2999 95.2999C92.2999 95.2999 95.5999 98.7999 96.6999 99.9999L100.6 98.9999C99.6999 96.8999 97.0999 91.1999 92.7999 88.2999C90.6999 91.4999 89.0999 94.5999 89.2999 95.2999Z" fill="#030047"/>
<path d="M127 127.6H53.3L51.5 124.6L70.6 113L105.2 91.8999L118.1 113L127 127.6Z" fill="white"/>
<path d="M104.9 92.8999L117.6 113.8L125.6 126.8H53.8L52.6 124.8L69.9 114.2L104.9 92.8999ZM105.4 90.8999L69.1 113L50.5 124.4L52.9 128.4H128.3L119 113.1L105.4 90.8999Z" fill="#030047"/>
<path d="M74.3001 120.4C74.0001 120.4 73.8001 120.3 73.7001 120C73.5001 119.6 73.6001 119.2 74.0001 119L101 102.5C101.4 102.3 101.8 102.4 102 102.7C102.2 103.1 102.1 103.5 101.7 103.7L74.7001 120.2C74.5001 120.4 74.4001 120.4 74.3001 120.4Z" fill="#030047"/>
<path d="M79.0999 128.4C78.7999 128.4 78.5999 128.3 78.4999 128C78.2999 127.6 78.3999 127.2 78.7999 127L105.8 110.5C106.2 110.3 106.6 110.4 106.8 110.7C107 111.1 106.9 111.5 106.5 111.7L79.4999 128.2C79.3999 128.4 79.2999 128.4 79.0999 128.4Z" fill="#030047"/>
<path d="M94.1001 88.2999C93.5001 86.4999 93.0002 83.9999 94.9002 81.0999C88.6002 80.2999 82.4001 79.6999 76.1001 79.3999C72.4001 88.2999 73.6001 96.9999 75.3001 104.9C78.3001 118.6 82.9002 114.5 82.9002 114.5C82.9002 114.5 85.5001 116.3 88.1001 113.2C88.1001 113.2 91.9001 115.6 93.2001 112.1C94.5001 108.6 88.9001 103.3 90.8001 99.7999C91.3001 98.8999 91.9001 98.0999 92.5001 97.2999" fill="white"/>
<path d="M81.2 115.8C80.9 115.8 80.6 115.8 80.2 115.6C77.8 114.8 75.9 111.3 74.5 105C72.7 96.7999 71.6 87.9999 75.3 79.0999L75.5 78.5999H76C82.5 78.8999 88.9 79.5999 94.9 80.2999L96.0999 80.3999L95.5 81.3999C93.8 83.9999 94.2 86.1999 94.8 87.9999C94.9 88.3999 94.7 88.7999 94.3 88.9999C93.9 89.0999 93.5 88.8999 93.3 88.4999C92.7 86.6999 92.1999 84.3999 93.5999 81.6999C88.1999 80.9999 82.4 80.3999 76.5 80.0999C73.2 88.4999 74.3 96.7999 76 104.7C77.6 112.1 79.6 113.8 80.7 114.2C81.6 114.5 82.3 113.9 82.4 113.9L82.8 113.5L83.3 113.8C83.5 113.9 85.4 115.1 87.5 112.6L87.9 112.1L88.5 112.4C88.9 112.7 90.3 113.3 91.3 113C91.8 112.8 92.2 112.4 92.5 111.7C93 110.3 92.1 108.4 91.2 106.4C90.1 104 88.8999 101.4 90.0999 99.2999C90.5999 98.2999 91.3 97.4999 91.9 96.6999C92.2 96.3999 92.6 96.2999 93 96.5999C93.3 96.8999 93.3999 97.2999 93.0999 97.6999C92.4999 98.3999 91.9 99.1999 91.4 100.1C90.6 101.6 91.6 103.8 92.5 105.9C93.5 108.1 94.5 110.4 93.8 112.3C93.4 113.4 92.7 114.2 91.7 114.5C90.4 114.9 88.9 114.4 88.2 114.1C86.2 116.1 84.1 115.9 82.9 115.4C82.5 115.6 82 115.8 81.2 115.8Z" fill="#030047"/>
<path d="M83.3001 101.3C82.5001 105 84.7001 108.1 86.8001 110.9C87.2001 111.4 88.0001 110.9 87.6001 110.4C85.6001 107.9 83.5001 105 84.2001 101.5C84.5001 100.9 83.5001 100.7 83.3001 101.3Z" fill="#030047"/>
<path d="M78.1999 104.4C78.5999 107.7 79.1999 111.1 82.1999 113C82.6999 113.3 83.1999 112.4 82.6999 112.1C79.9999 110.5 79.5999 107.2 79.1999 104.4C79.0999 103.7 78.0999 103.7 78.1999 104.4Z" fill="#030047"/>
<path d="M72.4 89.1999C72.3 70.6999 79.4999 44.4999 97.9999 32.2999C122 16.3999 139.1 23.9 139.1 23.9V45.9C139.1 45.9 118.2 37.1999 105.5 57.6999C95.7999 73.2999 99.0999 84.1999 99.0999 84.1999L72.4 89.1999Z" fill="#030047"/>
<path d="M121.9 44.9999C121.5 44.9999 121.2 44.6999 121.2 44.2999L120.5 38.4999C120.4 38.0999 120.7 37.7 121.2 37.7C121.6 37.7 122 37.9 122 38.4L122.7 44.2C122.7 44.6 122.4 44.9999 121.9 44.9999C122 44.9999 121.9 44.9999 121.9 44.9999Z" fill="white"/>
<path d="M34.6001 50L10.1001 65.2L40.7001 128.3L65.2001 113.2L34.6001 50Z" fill="#FFCC3E"/>
<path d="M107.5 82.2999C107.1 82.2999 106.8 81.9999 106.7 81.5999L106.6 74.3999C106.6 73.9999 106.9 73.5999 107.3 73.5999C107.7 73.5999 108.1 73.8999 108.1 74.2999L108.2 81.4999C108.3 81.8999 108 82.2999 107.5 82.2999C107.6 82.2999 107.5 82.2999 107.5 82.2999Z" fill="#FFCC3E"/>
<path d="M111.9 85.2998C111.8 85.2998 111.7 85.2998 111.6 85.1998C111.2 84.9998 111.1 84.5998 111.2 84.1998L113.7 78.7998C113.9 78.3998 114.3 78.2998 114.7 78.3998C115.1 78.5998 115.2 78.9998 115.1 79.3998L112.6 84.7998C112.5 85.0998 112.2 85.2998 111.9 85.2998Z" fill="#FFCC3E"/>
<path d="M58.4997 84.0999C56.2997 84.0999 53.6998 83.2999 51.3998 80.5999C50.7998 79.7999 50.1997 78.9999 49.5997 78.1999C47.2997 74.7999 45.5998 72.3999 39.8998 75.0999C39.4998 75.2999 39.0998 75.0999 38.8998 74.6999C38.6998 74.2999 38.8997 73.8999 39.2997 73.6999C46.0997 70.4999 48.4997 73.9999 50.7997 77.2999C51.2997 78.0999 51.8997 78.8999 52.4997 79.5999C56.6997 84.5999 61.9997 81.7999 62.1997 81.6999C62.5997 81.4999 62.9997 81.5999 63.1997 81.9999C63.3997 82.3999 63.2998 82.7999 62.8998 82.9999C62.9998 82.9999 61.0997 84.0999 58.4997 84.0999Z" fill="#030047"/>
<path d="M57.2 89.1999C55 89.1999 52.3999 88.3999 50.0999 85.6999C49.4999 84.8999 48.9 84.0999 48.3 83.2999C46 79.8999 44.2999 77.4999 38.5999 80.1999C38.1999 80.3999 37.7999 80.1999 37.5999 79.7999C37.3999 79.3999 37.6 78.9999 38 78.7999C44.8 75.5999 47.2 79 49.5 82.4C50 83.2 50.6 83.9999 51.2 84.6999C55.4 89.6999 60.7 86.8999 60.9 86.7999C61.3 86.5999 61.7 86.6999 61.9 87.0999C62.1 87.4999 61.9999 87.8999 61.5999 88.0999C61.6999 88.0999 59.7 89.1999 57.2 89.1999Z" fill="#030047"/>
<path d="M47.5001 44.2998L45.1001 54.5998L54.8001 50.9998L47.5001 44.2998Z" fill="white"/>
<path d="M44.1001 55.7999L47.0001 42.8999L56.2001 51.2999L44.1001 55.7999ZM47.9001 45.6999L46.2001 53.3999L53.4001 50.6999L47.9001 45.6999Z" fill="#030047"/>
<path d="M13.2964 87.3511L7.42749 81.4822L1.55857 87.3511L7.42749 93.22L13.2964 87.3511Z" fill="white"/>
<path d="M7.40002 94.1999L0.5 87.2999L7.40002 80.3999L14.3 87.2999L7.40002 94.1999ZM2.59998 87.2999L7.40002 92.0999L12.2 87.2999L7.40002 82.4999L2.59998 87.2999Z" fill="#030047"/>
<path d="M109.7 123.2C109.5 123.2 109.4 123.1 109.2 123L106 120.2C105.7 119.9 105.6 119.5 105.9 119.1C106.2 118.8 106.6 118.7 107 119L110.2 121.8C110.5 122.1 110.6 122.5 110.3 122.9C110.1 123.1 109.9 123.2 109.7 123.2Z" fill="#FFCC3E"/>
<path d="M62.5999 66.6999C62.4999 66.6999 62.3999 66.6999 62.2999 66.5999C61.8999 66.3999 61.7999 65.9999 61.9999 65.5999L65.2999 58.8999C65.4999 58.4999 65.8999 58.3999 66.2999 58.5999C66.6999 58.7999 66.7999 59.1999 66.5999 59.5999L63.2999 66.2999C63.1999 66.5999 62.8999 66.6999 62.5999 66.6999Z" fill="#FFCC3E"/>
<path d="M133.9 80.1999C133.7 80.1999 133.5 80.0999 133.4 79.9999C133.1 79.6999 133.1 79.1999 133.4 78.8999L139.7 72.5999C140 72.2999 140.5 72.2999 140.8 72.5999C141.1 72.8999 141.1 73.3999 140.8 73.6999L134.5 79.9999C134.2 80.0999 134.1 80.1999 133.9 80.1999Z" fill="#FFCC3E"/>
<path d="M121.9 97.9999C121.5 97.9999 121.2 97.6999 121.2 97.2999L120.8 93.4999C120.8 93.0999 121.1 92.7 121.5 92.7C121.9 92.7 122.3 93 122.3 93.4L122.7 97.2C122.7 97.6 122.4 97.9999 121.9 97.9999Z" fill="#FFCC3E"/>
<path d="M144.1 87.9999L149.1 84.0999L150.1 90.8999L144.1 87.9999Z" fill="white"/>
<path d="M162.5 128.3H40.7002V227.2H162.5V128.3Z" fill="#FFCC3E"/>
<path d="M186.7 211.9L162.5 227.3V128.3L186.7 113V211.9Z" fill="#FFCC3E"/>
<path d="M111 190H41.5V226.5H111V190Z" fill="white"/>
<path d="M110.2 190.7V225.7H42.2002V190.7H110.2ZM111.7 189.2H40.7002V227.2H111.7V189.2Z" fill="#030047"/>
<path d="M89.7002 226.3C89.5002 226.3 89.4002 226.3 89.3002 226.2L41.8002 191.5C41.5002 191.3 41.4001 190.8 41.6001 190.5C41.8001 190.2 42.3001 190.1 42.6001 190.3L90.1001 225C90.4001 225.2 90.5002 225.7 90.3002 226C90.2002 226.2 89.9002 226.3 89.7002 226.3Z" fill="#030047"/>
<path d="M62.6 226.3C62.4 226.3 62.1 226.2 62 226C61.8 225.7 61.8 225.2 62.2 225L109.3 190.3C109.6 190.1 110.1 190.1 110.3 190.5C110.5 190.8 110.5 191.3 110.1 191.5L63 226.2C62.9 226.3 62.8 226.3 62.6 226.3Z" fill="#030047"/>
<path d="M162.5 222.5C162.1 222.5 161.7 222.2 161.7 221.7V135.2C161.7 134.8 162 134.4 162.5 134.4C163 134.4 163.3 134.7 163.3 135.2V221.7C163.3 222.2 163 222.5 162.5 222.5Z" fill="white"/>
<path d="M77.9002 128.3V128.5C77.9002 154.4 61.4002 166.8 40.7002 167.5V128.4H77.9002V128.3Z" fill="#030047"/>
<path d="M67.7002 162.3L59.2002 169.2L69.7002 173.8L67.7002 162.3Z" fill="#030047"/>
<path d="M148.1 150.2H88.4004V156.2H148.1V150.2Z" fill="white"/>
<path d="M124.2 167.5H113.8C112.6 167.5 111.7 166.5 111.7 165.4C111.7 164.2 112.7 163.3 113.8 163.3H124.2C125.4 163.3 126.3 164.3 126.3 165.4C126.4 166.5 125.4 167.5 124.2 167.5Z" fill="#030047"/>
<path d="M135.6 167.5H132.1C130.9 167.5 130 166.5 130 165.4C130 164.2 131 163.3 132.1 163.3H135.6C136.8 163.3 137.7 164.3 137.7 165.4C137.8 166.5 136.8 167.5 135.6 167.5Z" fill="#030047"/>
<path d="M145.9 167.5H142.4C141.2 167.5 140.3 166.5 140.3 165.4C140.3 164.2 141.3 163.3 142.4 163.3H145.9C147.1 163.3 148 164.3 148 165.4C148 166.5 147.1 167.5 145.9 167.5Z" fill="#030047"/>
<path d="M195.9 142.8H192V185.3H195.9V142.8Z" fill="#030047"/>
<path d="M186.7 113L173.2 121.6L162.6 128.4H40.7002L64.8002 113H70.6002L51.5002 124.6L53.3002 127.6H127L118.1 113H186.7Z" fill="#030047"/>
<path d="M127.4 127.6C134.7 123.1 144.6 120.8 156.8 120.8C160.4 120.8 164.2 121 168.2 121.4C169.4 121.5 170.4 121.7 171.3 121.9L162.3 127.6H127.4Z" fill="white"/>
<path d="M156.8 120.1V121.6C160.4 121.6 164.2 121.8 168.1 122.2C168.5 122.2 168.9 122.3 169.3 122.3L162.2 126.8H130.3C137.2 123.3 146.1 121.5 156.8 121.5V120.1ZM156.8 120.1C144.6 120.1 133.3 122.3 124.9 128.4H162.6L173.2 121.7C172 121.3 170.4 121 168.3 120.7C164.4 120.3 160.6 120.1 156.8 120.1Z" fill="#030047"/>
<path d="M34.7002 103.3H34.6002L22.5002 101.1C22.1002 101 21.8002 100.6 21.9002 100.2C22.0002 99.8 22.4002 99.4999 22.8002 99.5999L34.9002 101.8C35.3002 101.9 35.6002 102.3 35.5002 102.7C35.4002 103 35.1002 103.3 34.7002 103.3Z" fill="#030047"/>
<path d="M27.6002 108.2H27.5002C27.1002 108.1 26.8002 107.7 26.9002 107.3L29.1002 95.2C29.2002 94.8 29.6002 94.4999 30.0002 94.5999C30.4002 94.6999 30.7002 95.1 30.6002 95.5L28.4002 107.6C28.2002 107.9 27.9002 108.2 27.6002 108.2Z" fill="#030047"/>
<path d="M121.9 120C126.595 120 130.4 116.194 130.4 111.5C130.4 106.806 126.595 103 121.9 103C117.206 103 113.4 106.806 113.4 111.5C113.4 116.194 117.206 120 121.9 120Z" fill="white"/>
<path d="M121.9 120.8C116.8 120.8 112.6 116.6 112.6 111.5C112.6 106.4 116.8 102.2 121.9 102.2C127 102.2 131.2 106.4 131.2 111.5C131.2 116.6 127 120.8 121.9 120.8ZM121.9 103.7C117.6 103.7 114.1 107.2 114.1 111.5C114.1 115.8 117.6 119.3 121.9 119.3C126.2 119.3 129.7 115.8 129.7 111.5C129.7 107.2 126.2 103.7 121.9 103.7Z" fill="#030047"/>
<path d="M54.7001 94.7999L53.1001 113L68.1001 106.2L54.7001 94.7999Z" fill="white"/>
<path d="M52.3003 114.2L54.1003 93.2999L69.5003 106.4L52.3003 114.2ZM55.3003 96.2999L54.0003 111.8L66.8003 106L55.3003 96.2999Z" fill="#030047"/>
<path d="M195.9 74.3999L171.8 89.6999L162.5 128.5L186.7 113.2L195.9 74.3999Z" fill="#FFCC3E"/>
<path d="M165.3 127.4C165.1 127.4 164.8 127.3 164.7 127.1C164.5 126.8 164.6 126.3 164.9 126.1L183.5 114.3C183.8 114.1 184.3 114.2 184.5 114.5C184.7 114.8 184.6 115.3 184.3 115.5L165.7 127.3C165.6 127.3 165.4 127.4 165.3 127.4Z" fill="white"/>
<path d="M140.7 22.9C169.5 21.7 196.3 29.8999 205.6 41.4999C215.8 54.1999 210.6 79.1999 198.1 85.6999C195 87.2999 191.5 87.6999 189.6 88.5999C183.8 91.2999 182.5 90.9999 180.6 89.4999C180.6 89.4999 175.8 92.4999 174.4 88.7999C174.4 88.7999 172.6 93.4999 169.2 92.2999C165.9 91.0999 169.9 81.7999 179 76.9999C188.1 72.1999 192.8 60.1999 187.7 52.9999C182.5 45.7999 151 36.9999 151 36.9999L140.7 22.9Z" fill="white"/>
<path d="M170.3 93.2999C169.9 93.2999 169.5 93.1999 169 93.0999C168 92.7999 167.4 91.9 167.3 90.7C167 86.9 171.6 80.1 178.7 76.4C183.6 73.8 187.4 68.8999 188.7 63.5999C189.6 59.7999 189 56.1999 187.1 53.4999C182.1 46.5999 151.2 37.8999 150.8 37.7999L150.6 37.7L139.2 22.2L140.6 22.0999C168.9 20.8999 196.4 28.8999 206.2 40.9999C211.2 47.2999 213 57 210.9 67C209 76 204.4 83.1999 198.5 86.2999C196.6 87.2999 194.6 87.7999 192.9 88.2999C191.7 88.5999 190.7 88.9 190 89.2C184.5 91.8 182.7 91.7999 180.6 90.2999C179.7 90.7999 177.6 91.6999 175.9 91.0999C175.4 90.8999 174.9 90.6 174.6 90.2C173.7 91.8 172.2 93.2999 170.3 93.2999ZM151.6 36.4C154.8 37.3 183.4 45.5999 188.4 52.5999C190.6 55.5999 191.2 59.6 190.2 63.9C188.9 69.6 184.7 74.9 179.4 77.7C172.5 81.3 168.6 87.5999 168.8 90.5999C168.9 91.4999 169.3 91.6 169.5 91.7C172.1 92.6 173.7 88.6999 173.7 88.5999L174.4 86.7999L175.1 88.5999C175.3 89.2999 175.7 89.6999 176.3 89.7999C177.6 90.1999 179.6 89.3 180.2 88.9L180.7 88.5999L181.1 88.9C182.6 90.1 183.6 90.6 189.3 87.9C190.2 87.5 191.2 87.2 192.4 86.9C194.1 86.4 196 85.9 197.7 85C203.2 82.0999 207.6 75.2999 209.4 66.7999C211.4 57.1999 209.8 47.9999 205 41.9999C195.7 30.3999 169.4 22.7999 142.1 23.5999L151.6 36.4Z" fill="#030047"/>
<path d="M187.8 52.9999C190.6 56.7999 190.5 62.0999 188.5 66.7999C195 69.1999 204.8 71.4999 211.1 74.3999C216 64.0999 216.1 48.9999 208.4 40.8999C193.4 25.3999 169.6 21.5999 140.8 22.7999L154.4 46.2999C154.3 46.2999 182.6 45.8999 187.8 52.9999Z" fill="#030047"/>
<path d="M180.5 79.9999C177.9 81.7999 175.8 84.0999 174.4 86.8999C174.1 87.4999 175 87.9999 175.3 87.3999C176.7 84.6999 178.6 82.4999 181.1 80.8999C181.5 80.4999 181 79.6999 180.5 79.9999Z" fill="#030047"/>
<path d="M186 82.1C183.9 83.6 182.3 85.5 181.1 87.8C180.8 88.4 181.7 88.9 182 88.3C183.1 86.2 184.6 84.4 186.5 83C187 82.6 186.5 81.8 186 82.1Z" fill="#030047"/>
<path d="M168.3 47.8999C168.2 47.8999 168.2 47.8999 168.1 47.8999L164 46.5999C163.6 46.4999 163.4 46.0999 163.5 45.6999C163.6 45.2999 164 45.0999 164.4 45.1999L168.5 46.4999C168.9 46.5999 169.1 46.9999 169 47.3999C168.9 47.6999 168.6 47.8999 168.3 47.8999Z" fill="#030047"/>
<path d="M30.3003 174.5C30.1003 174.5 29.9003 174.4 29.8003 174.3L13.9003 158.4C13.6003 158.1 13.6003 157.6 13.9003 157.3C14.2003 157 14.7003 157 15.0003 157.3L30.9003 173.2C31.2003 173.5 31.2003 174 30.9003 174.3C30.7003 174.5 30.5003 174.5 30.3003 174.5Z" fill="#030047"/>
<path d="M14.4003 174.5C14.2003 174.5 14.0003 174.4 13.9003 174.3C13.6003 174 13.6003 173.5 13.9003 173.2L29.8003 157.3C30.1003 157 30.6003 157 30.9003 157.3C31.2003 157.6 31.2003 158.1 30.9003 158.4L15.0003 174.3C14.8003 174.5 14.6003 174.5 14.4003 174.5Z" fill="#030047"/>
<path d="M30.3001 188.2H14.4001C14.0001 188.2 13.6001 187.9 13.6001 187.4C13.6001 186.9 13.9001 186.6 14.4001 186.6H30.3001C30.7001 186.6 31.1001 186.9 31.1001 187.4C31.1001 187.9 30.7001 188.2 30.3001 188.2Z" fill="#030047"/>
<path d="M144.401 11.9C144.101 11.2 143.701 10.5 143.201 9.79995C143.201 9.79995 143.201 9.79998 143.201 9.69998C138.601 3.09998 130.201 1.09998 124.301 5.19998C121.501 7.19998 119.901 10.3 119.501 13.7C119.001 17.4 120.401 21.2 121.901 24.5C125.301 32.1 133.001 35.5 140.801 29C142.501 27.6 143.801 25.8 144.701 23.7C147.701 23.1 149.501 20.9 149.801 18.2C150.101 15.1 147.801 11.6 144.401 11.9Z" fill="white"/>
<path d="M132.4 33.2C131.6 33.2 130.8 33.1 130 32.9C126.3 32 123 29.1 121.1 24.8C119.7 21.7 118.1 17.5999 118.7 13.5999C119.2 9.69994 121 6.49994 123.8 4.59994C126.6 2.69994 130.1 1.89994 133.6 2.59994C137.6 3.29994 141.3 5.79996 143.8 9.29996C144.2 9.89996 144.6 10.5 144.9 11.2C146.3 11.2 147.6 11.8 148.7 12.9C150.1 14.3 150.8 16.4 150.5 18.4C150.1 21.5 148.1 23.8 145.2 24.5C144.3 26.5 142.9 28.3 141.2 29.7C138.3 32 135.3 33.2 132.4 33.2ZM131.1 3.79996C128.8 3.79996 126.5 4.49996 124.6 5.79996C122.1 7.49996 120.6 10.3 120.1 13.8C119.6 17.4 121 21.1 122.4 24.2C124.1 28 127 30.7 130.3 31.5C133.5 32.2 136.9 31.2 140.2 28.5C141.8 27.2 143.1 25.5 143.9 23.5L144.1 23.0999L144.5 23C147 22.5 148.7 20.6999 149 18.0999C149.2 16.5999 148.6 14.9 147.6 13.8C147 13.2 146 12.4999 144.5 12.5999H144L143.8 12.0999C143.4 11.2999 143.1 10.6999 142.7 10.0999C140.4 6.79994 137.1 4.59999 133.4 3.89999C132.6 3.89999 131.8 3.79996 131.1 3.79996Z" fill="#030047"/>
<path d="M131.154 19.2063C131.452 18.741 131.316 18.1226 130.85 17.8252C130.385 17.5278 129.767 17.664 129.469 18.1293C129.172 18.5947 129.308 19.213 129.773 19.5104C130.239 19.8078 130.857 19.6717 131.154 19.2063Z" fill="#030047"/>
<path d="M126.7 26.3C125.7 24.3 125 22.2 124.5 20C124.4 19.4 125.4 19.2 125.5 19.8C125.9 21.9 126.6 23.9001 127.6 25.9001C127.9 26.4001 127 26.9 126.7 26.3Z" fill="#030047"/>
<path d="M141.401 19.0999C141.601 16.7999 143.401 14.7999 145.801 14.4999C146.401 14.3999 146.701 15.3999 146.001 15.4999C144.101 15.6999 142.601 17.1999 142.401 19.0999C142.301 19.7999 141.301 19.6999 141.401 19.0999Z" fill="#030047"/>
<path d="M140.4 14.4999C139.7 16.9999 136.5 13.6 130.4 12.4C127.7 11.9 116.2 15.8999 114.4 11.9999C111.7 6.29993 119.3 2.99991 124.2 5.09991C123.7 2.99991 126.1 -0.100069 129.3 1.49993C137.9 -2.80007 145.7 2.79996 144.7 12.4C144.7 12.5 141.2 13.6999 140.4 14.4999Z" fill="#030047"/>
</svg>
