<?xml version="1.0" encoding="iso-8859-1"?>
<!-- Generator: Adobe Illustrator 19.0.0, SVG Export Plug-In . SVG Version: 6.00 Build 0)  -->
<svg version="1.1" id="Capa_1" xmlns="http://www.w3.org/2000/svg" xmlns:xlink="http://www.w3.org/1999/xlink" x="0px" y="0px"
	 viewBox="0 0 512.001 512.001" style="enable-background:new 0 0 512.001 512.001;" xml:space="preserve">
<rect x="27.712" y="187.35" style="fill:#546F7A;" width="126.275" height="38.003"/>
<path style="fill:#FFD039;" d="M27.171,100.721l-19.679,28.6l34.956,58.032h48.401h48.401l34.956-58.033L90.849,8.174L44.347,75.757
	 M90.849,129.262c-7.989,0-14.465-6.389-14.465-14.27s6.476-14.271,14.465-14.271s14.465,6.389,14.465,14.271
	S98.838,129.262,90.849,129.262z"/>
<rect x="129.022" y="187.35" style="fill:#475D63;" width="24.969" height="38.003"/>
<polygon style="fill:#FFA304;" points="90.849,8.174 78.364,26.319 149.238,129.321 114.281,187.353 139.251,187.353 
	174.207,129.321 "/>
<path style="fill:#E0E0E2;" d="M409.38,503.655L409.38,503.655c-52.539,0-95.129-42.591-95.129-95.129v-87.837
	c0-52.539,42.591-95.129,95.129-95.129l0,0c52.539,0,95.129,42.591,95.129,95.129v87.837
	C504.51,461.064,461.919,503.655,409.38,503.655z"/>
<path style="fill:#C6C5CA;" d="M409.38,225.559L409.38,225.559c-4.233,0-8.399,0.281-12.485,0.816
	c46.638,6.115,82.645,46.008,82.645,94.313v87.837c0,48.307-36.007,88.2-82.645,94.313c4.086,0.535,8.252,0.816,12.485,0.816l0,0
	c52.539,0,95.129-42.591,95.129-95.129v-87.837C504.51,268.15,461.919,225.559,409.38,225.559z"/>
<path style="fill:#546F7A;" d="M409.613,319.815h-0.466c-9.423,0-17.063-7.64-17.063-17.063v-22.843
	c0-9.423,7.64-17.063,17.063-17.063h0.466c9.423,0,17.063,7.64,17.063,17.063v22.843
	C426.676,312.175,419.037,319.815,409.613,319.815z"/>
<path d="M243.453,207.412c-4.138,0-7.491,3.353-7.491,7.491v213.895c0,37.24-30.868,67.537-68.812,67.537
	c-37.942,0-68.812-30.297-68.812-67.537V232.844h55.648c4.138,0,7.491-3.353,7.491-7.491v-38.006c0-4.138-3.353-7.491-7.491-7.491
	h-1.476l28.113-46.671c1.516-2.518,1.42-5.69-0.246-8.111L97.069,3.998c-0.007-0.01-0.013-0.02-0.02-0.029l-0.028-0.04
	c-0.017-0.025-0.038-0.046-0.055-0.07c-0.14-0.198-0.289-0.389-0.447-0.571c-0.057-0.066-0.117-0.13-0.176-0.194
	c-0.133-0.144-0.272-0.282-0.415-0.415c-0.065-0.06-0.129-0.121-0.197-0.179c-0.173-0.149-0.353-0.289-0.537-0.42
	c-0.038-0.027-0.073-0.057-0.112-0.084c-0.233-0.16-0.475-0.306-0.726-0.438c-0.033-0.019-0.07-0.034-0.104-0.052
	c-0.213-0.109-0.431-0.208-0.656-0.296c-0.068-0.027-0.137-0.051-0.206-0.075c-0.197-0.071-0.397-0.134-0.6-0.188
	c-0.078-0.021-0.157-0.042-0.236-0.061c-0.205-0.048-0.412-0.085-0.622-0.115c-0.075-0.011-0.15-0.026-0.226-0.034
	c-0.282-0.032-0.566-0.053-0.856-0.053c-0.29,0-0.575,0.021-0.856,0.053c-0.076,0.009-0.15,0.023-0.226,0.034
	c-0.211,0.031-0.418,0.068-0.622,0.115c-0.079,0.019-0.158,0.039-0.236,0.061c-0.204,0.054-0.404,0.117-0.6,0.188
	c-0.069,0.025-0.138,0.049-0.206,0.075c-0.224,0.089-0.442,0.188-0.655,0.296c-0.035,0.018-0.072,0.033-0.106,0.051
	c-0.251,0.133-0.492,0.28-0.726,0.438c-0.038,0.026-0.074,0.057-0.112,0.084c-0.186,0.133-0.366,0.273-0.537,0.42
	C85.9,2.557,85.836,2.617,85.77,2.678c-0.144,0.133-0.282,0.271-0.415,0.415c-0.059,0.064-0.119,0.127-0.176,0.194
	c-0.158,0.183-0.307,0.374-0.447,0.571c-0.017,0.024-0.038,0.046-0.055,0.07l-0.028,0.04c-0.007,0.01-0.014,0.02-0.02,0.029
	L38.177,71.511c-2.345,3.408-1.483,8.072,1.926,10.417c3.406,2.345,8.072,1.484,10.417-1.926l32.84-47.727v62.261
	c-8.429,3.041-14.464,11.062-14.464,20.456c0,11.999,9.849,21.761,21.955,21.761c12.107,0,21.956-9.762,21.956-21.761
	c0-9.392-6.036-17.415-14.465-20.456V32.275l66.96,97.315l-30.279,50.266H46.678l-30.28-50.266l16.943-24.623
	c2.345-3.408,1.483-8.072-1.926-10.417c-3.406-2.345-8.072-1.483-10.417,1.926l-19.679,28.6c-1.666,2.421-1.763,5.593-0.246,8.111
	l28.114,46.671h-1.476c-4.138,0-7.491,3.353-7.491,7.491v38.006c0,4.138,3.353,7.491,7.491,7.491h55.647v195.954
	c0,45.501,37.59,82.519,83.793,82.519s83.793-37.019,83.793-82.519V214.903C250.944,210.766,247.591,207.412,243.453,207.412z
	 M90.849,121.771c-3.846,0-6.973-3.041-6.973-6.78s3.128-6.78,6.973-6.78s6.974,3.041,6.974,6.78S94.695,121.771,90.849,121.771z
	 M35.202,194.838h7.156c0.03,0,0.06,0.006,0.09,0.006h96.802c0.03,0,0.06-0.005,0.09-0.006h7.156v23.025H35.202V194.838z"/>
<path d="M417.104,218.358V89.867c0-49.176-40.63-89.184-90.572-89.184c-49.941,0-90.571,40.008-90.571,89.184v95.073
	c0,4.138,3.353,7.491,7.491,7.491c4.138,0,7.491-3.353,7.491-7.491V89.867c0-40.915,33.909-74.202,75.59-74.202
	c41.68,0,75.589,33.287,75.589,74.202v128.462c-53.212,3.736-95.363,48.216-95.363,102.36v13.955c0,4.138,3.353,7.491,7.491,7.491
	s7.491-3.353,7.491-7.491v-13.955c0-48.325,39.315-87.639,87.639-87.639s87.639,39.314,87.639,87.639v87.837
	c0,48.325-39.314,87.639-87.639,87.639s-87.639-39.314-87.639-87.639v-43.919c0-4.138-3.353-7.491-7.491-7.491
	s-7.491,3.353-7.491,7.491v43.919c0,56.585,46.036,102.62,102.621,102.62c56.585,0,102.62-46.036,102.62-102.62v-87.837
	C512.001,266.702,470.096,222.32,417.104,218.358z"/>
<path d="M409.613,327.305c13.539,0,24.554-11.014,24.554-24.554v-22.843c0-13.539-11.014-24.554-24.554-24.554h-0.466
	c-13.539,0-24.554,11.014-24.554,24.554v22.843c0,13.539,11.014,24.554,24.554,24.554L409.613,327.305L409.613,327.305z
	 M399.576,302.751v-22.843c0-5.277,4.295-9.572,9.572-9.572h0.466c5.278,0,9.572,4.295,9.572,9.572v22.843
	c0,5.278-4.295,9.572-9.572,9.572h-0.466C403.869,312.324,399.576,308.029,399.576,302.751z"/>
<g>
</g>
<g>
</g>
<g>
</g>
<g>
</g>
<g>
</g>
<g>
</g>
<g>
</g>
<g>
</g>
<g>
</g>
<g>
</g>
<g>
</g>
<g>
</g>
<g>
</g>
<g>
</g>
<g>
</g>
</svg>
