<svg width="315" height="158" viewBox="0 0 315 158" fill="none" xmlns="http://www.w3.org/2000/svg">
<path d="M314.1 141.6C312 150.4 304.2 157.6 293.9 157.6H100.6C86.7998 157.6 73.8998 151.7 64.8998 141.6C62.4998 139 60.4998 136 58.6998 132.9L2.89982 31.4C2.09982 29.9 1.49983 28.4 1.09983 26.9C-2.50017 14.1 6.99984 0.600006 21.1998 0.600006H214.5C215.1 0.600006 215.8 0.600006 216.4 0.600006C231.7 1.20001 245.4 10 253 23.3L312.2 126.8C314.8 131.6 315.3 136.8 314.1 141.6Z" fill="#5F5FFF"/>
<path d="M255 26.9H1.09983C-2.50017 14.1 6.99984 0.600006 21.1998 0.600006C21.1998 0.600006 215.8 0.600006 216.4 0.600006C231.7 1.20001 245.4 10 253 23.3L255 26.9Z" fill="#030047"/>
<path d="M314.1 141.6C312 150.4 304.2 157.6 293.9 157.6H100.6C86.7999 157.6 73.8999 151.6 64.8999 141.6H314.1Z" fill="#030047"/>
<path d="M60.5 18.9H28.8C26.7 18.9 25 17.2 25 15.1C25 13 26.7 11.3 28.8 11.3H60.5C62.6 11.3 64.3 13 64.3 15.1C64.3 17.2 62.6 18.9 60.5 18.9Z" fill="white"/>
<path d="M212.6 18.9H197C194.9 18.9 193.2 17.2 193.2 15.1C193.2 13 194.9 11.3 197 11.3H212.6C214.7 11.3 216.4 13 216.4 15.1C216.4 17.2 214.7 18.9 212.6 18.9Z" fill="white"/>
<path d="M152.9 43.9C125.4 38.6 107.6 45.2 98.7995 50.2C94.7995 52.5 94.2995 58 97.7995 60.9C103.1 65.4 112.3 71.1 125.9 73C149.5 76.3 162.9 69.2 166.3 60.2C169.7 51.2 159.5 45.1 152.9 43.9Z" fill="#FFCC3E"/>
<path d="M148.8 69.7C147.9 67.3 148.3 64.6 148.8 62.1C149.3 59.7 150.5 58 149.2 55.9C145.3 49.6 134.5 50.3 128.5 49.6C124.8 49.2 117.7 47.4 113.7 44.3C107.3 46 102.3 48.2 98.7996 50.2C94.8996 52.5 94.3996 57.9 97.8996 60.9C103.2 65.4 112.4 71.1 126 73C135.9 74.4 144 73.9 150.3 72.3C149.6 71.5 149.1 70.7 148.8 69.7Z" fill="#030047"/>
<path d="M121.2 111.8C121.1 111.8 121.1 111.8 121 111.8C109.9 108.5 97.8001 94.6 99.4001 82.3C99.5001 81.9 99.8 81.6 100.2 81.7C100.6 81.8 100.9 82.1 100.8 82.5C99.4 93.8 110.9 107.2 121.4 110.4C121.8 110.5 122 110.9 121.9 111.3C121.8 111.6 121.5 111.8 121.2 111.8Z" fill="white"/>
<path d="M91.9999 65.7C91.8999 65.7 91.6999 65.7 91.5999 65.6C88.0999 63.4 85.6999 59.9 85.2999 56.4C84.8999 53.1 86.1999 49.8 88.9999 46.9C89.2999 46.6 89.7999 46.6 90.0999 46.9C90.3999 47.2 90.3999 47.7 90.0999 48C87.5999 50.5 86.4999 53.4 86.8999 56.2C87.2999 59.3 89.3999 62.4 92.4999 64.4C92.7999 64.6 92.9999 65.1 92.6999 65.4C92.4999 65.6 92.2999 65.7 91.9999 65.7Z" fill="white"/>
<path d="M95.4999 75.2C91.3999 74.9 84.0999 72.1 80.4999 65.8C80.2999 65.4 80.3999 65 80.7999 64.8C81.1999 64.6 81.5999 64.7 81.7999 65.1C85.0999 70.9 91.7999 73.4 95.4999 73.7C95.8999 73.7 96.1999 74.1 96.1999 74.5C96.1999 74.9 95.8999 75.2 95.4999 75.2Z" fill="white"/>
<path d="M92 120.9C91.9 120.9 91.9 120.9 91.8 120.9C91.7 120.9 83.8 119 82.7 111.2C82.6 110.8 82.9 110.4 83.3 110.4C83.7 110.3 84.1 110.6 84.1 111C85 117.8 91.7 119.4 92 119.5C92.4 119.6 92.7 120 92.6 120.4C92.7 120.7 92.4 120.9 92 120.9Z" fill="white"/>
<path d="M235.8 105.4C235.5 105.4 235.1 105.2 235.1 104.8C235 104.4 235.3 104 235.7 103.9C245.8 101.8 251.7 94 253.8 88C253.9 87.6 254.4 87.4 254.8 87.5C255.2 87.6 255.4 88.1 255.3 88.5C252.4 96.9 244.9 103.6 236.1 105.4C235.9 105.4 235.9 105.4 235.8 105.4Z" fill="white"/>
<path d="M234.4 114.8C234.1 114.8 233.7 114.6 233.7 114.2C233.6 113.8 233.9 113.4 234.3 113.3C241.1 111.9 246.3 109.4 250.5 105.5C250.8 105.2 251.3 105.2 251.6 105.5C251.9 105.8 251.9 106.3 251.6 106.6C247.2 110.7 241.7 113.4 234.7 114.8C234.5 114.8 234.4 114.8 234.4 114.8Z" fill="white"/>
<path d="M181.7 96.5L172.6 121.1L197.2 119.4L181.7 96.5Z" fill="#E4E4EF"/>
<path d="M208.427 54.845L200.83 72.8045L218.79 80.4017L226.387 62.4422L208.427 54.845Z" fill="#E4E4EF"/>
<path d="M234 77.7L228.8 71.9L235.8 70.3L234 77.7Z" fill="#E4E4EF"/>
<path d="M206.899 50.6C206.699 50.6 206.399 50.5 206.299 50.3L202.799 44.8C202.599 44.5 202.699 44 202.999 43.8C203.299 43.6 203.799 43.7 203.999 44L207.499 49.5C207.699 49.8 207.599 50.3 207.299 50.5C207.199 50.5 206.999 50.6 206.899 50.6Z" fill="#8FACFF"/>
<path d="M218.6 42.7C218.3 42.7 218.1 42.6 217.9 42.3C217.7 41.9 217.8 41.5 218.2 41.3L222.2 39C222.6 38.8 223 38.9 223.2 39.3C223.4 39.7 223.3 40.1 222.9 40.3L218.9 42.6C218.8 42.6 218.7 42.7 218.6 42.7Z" fill="#8FACFF"/>
<path d="M157.7 124.7C157.5 124.7 157.3 124.6 157.2 124.5C156.9 124.2 156.9 123.7 157.2 123.4L160.3 120.5C160.6 120.2 161.1 120.2 161.4 120.5C161.7 120.8 161.7 121.3 161.4 121.6L158.3 124.5C158 124.7 157.8 124.7 157.7 124.7Z" fill="#8FACFF"/>
<path d="M199.2 70.1L160.6 90.5C158 91.9 158.2 95.6 160.9 96.7L189.8 110.4C190.7 110.8 191.7 110.7 192.6 110.3L230.9 90.8C233.4 89.5 233.4 85.9 230.9 84.7L202.4 70C201.4 69.5 200.2 69.5 199.2 70.1Z" fill="#030047"/>
<path d="M161.1 96.8L207.1 72.4L202.3 70C201.3 69.5 200.1 69.5 199.2 70L160.6 90.4C158 91.8 158.2 95.5 160.9 96.6L161.1 96.8Z" fill="#8FACFF"/>
<path d="M228.1 83.2L182.9 107.2L189.8 110.5C190.7 110.9 191.7 110.8 192.6 110.4L232.6 90C234.4 89.1 234.4 86.5 232.6 85.6L228.1 83.2Z" fill="#8FACFF"/>
<path d="M199.1 75.2C189.7 76.4 192 87.3 194.8 88.2C197 88.9 195.9 83.5 195.9 83.5L203.3 82.1L199.1 75.2Z" fill="#FFCC3E"/>
<path d="M201.3 89.6C201.3 89.6 200.2 92 197.7 90.6C194.7 88.9 198.6 82.2 195.3 75C192.7 69.2 184.5 64 175.8 63.2C178.2 60.9 179.7 57.4 180.5 53.5C180.9 51.7 180.9 50 180.7 48.3C207.6 50.7 215.2 66.8 215.6 75.9C216.2 85.2 205.1 91.7 201.3 89.6Z" fill="#FFCC3E"/>
<path d="M196.7 93.4C196.3 93.4 196 93.1 196 92.7L195.3 68.9C195.3 68.5 195.6 68.1 196 68.1C196.4 68.1 196.8 68.4 196.8 68.8L197.5 92.6C197.5 93 197.1 93.4 196.7 93.4Z" fill="#FF3E6C"/>
<path d="M197.6 78.1C197.5 78.7 197.3 79.3 197.2 79.9C197.1 80.5 198 80.8 198.2 80.2L198.6 78.5C198.7 77.7 197.7 77.4 197.6 78.1Z" fill="#030047"/>
<path d="M202.4 81C202 83.2 201.6 85.4 201.3 87.6C201.2 88.2 202.2 88.5 202.3 87.9C202.7 85.7 203.1 83.5 203.4 81.3C203.5 80.6 202.5 80.4 202.4 81Z" fill="#030047"/>
<path d="M207.4 81.7C207.3 84 207 86 205.5 87.9C205.1 88.4 205.8 89.1 206.2 88.6C207.9 86.5 208.3 84.3 208.4 81.7C208.4 81.1 207.4 81.1 207.4 81.7Z" fill="#030047"/>
<path d="M193.2 106.8C192.9 106.8 192.7 106.7 192.5 106.4C192.3 106 192.4 105.6 192.8 105.4L200.9 100.9C201.3 100.7 201.7 100.8 201.9 101.2C202.1 101.6 202 102 201.6 102.2L193.5 106.7C193.4 106.7 193.3 106.8 193.2 106.8Z" fill="white"/>
<path d="M218.6 93.2C218.3 93.2 218.1 93.1 217.9 92.8C217.7 92.4 217.8 92 218.2 91.8L226.3 87.3C226.7 87.1 227.1 87.2 227.3 87.6C227.5 88 227.4 88.4 227 88.6L218.9 93.1C218.8 93.2 218.7 93.2 218.6 93.2Z" fill="white"/>
<path d="M197.2 80.7C196 86.2 196.1 90 197.7 90.6C199.3 91.2 197.2 80.7 197.2 80.7Z" fill="#FFCC3E"/>
<path d="M119 55C109.2 59.7 109.2 66.5 113.1 69.3C117 72.1 139.5 74.2 144.5 67.4C149.5 60.6 146.4 54 136.7 52.3C133 51.6 124.1 52.5 119 55Z" fill="#FFCC3E"/>
<path d="M129.5 54.1C127.6 53.4 125.5 53.6 123.9 54.8C96.9998 73.9 108.3 107.1 149.8 111C157.4 111.7 162.3 106.5 166.5 108.9C168.8 110.2 172.5 107.4 173.9 108.3C178.5 111.1 179.6 106.4 179.6 106.4C180.4 106.6 182.7 104.2 181.5 102.3C181.5 102.3 183.9 100.6 181.4 97.5C176.3 91.1 161.2 89.7 153.3 88C145.4 86.2 128.7 84.4 135.7 73.5C135.8 73.4 135.8 73.3 135.9 73.2C140.3 66.3 136.5 59.8 128.8 56.9L129.5 54.1Z" fill="#FFCC3E"/>
<path d="M178.6 105.8C176.9 103.7 174.2 102.5 171.5 102.8C170.9 102.9 170.9 103.9 171.5 103.8C174 103.6 176.3 104.6 177.9 106.5C178.3 107 179 106.3 178.6 105.8Z" fill="#030047"/>
<path d="M180.6 100.6C179 98.8 176.7 97.7 174.2 97.6C173.6 97.6 173.6 98.6 174.2 98.6C176.4 98.7 178.4 99.6 179.9 101.3C180.3 101.8 181 101.1 180.6 100.6Z" fill="#030047"/>
<path d="M113.5 66.2C113.4 66.2 113.2 66.2 113.1 66.1C112.7 65.9 112.6 65.4 112.8 65.1C112.9 64.9 116.1 59.3 121.5 55.6C121.8 55.4 122.3 55.5 122.5 55.8C122.7 56.1 122.6 56.6 122.3 56.8C117.2 60.3 114.1 65.7 114.1 65.8C114 66.1 113.8 66.2 113.5 66.2Z" fill="#5F5FFF"/>
<path d="M137.2 71C137.1 71 136.9 71 136.8 70.9C136.5 70.7 136.4 70.2 136.6 69.9L140.1 64.7C140.3 64.4 140.8 64.3 141.1 64.5C141.4 64.7 141.5 65.2 141.3 65.5L137.8 70.7C137.7 70.9 137.4 71 137.2 71Z" fill="#5F5FFF"/>
<path d="M236 93.7H228.799C228.399 93.7 228 93.4 228 92.9C228 92.4 228.299 92.1 228.799 92.1H236C239.3 92.1 241.9 89.4 241.9 86.2V68.5C241.9 64.4 245.199 61.1 249.299 61.1H294.4C298.5 61.1 301.799 64.4 301.799 68.5V70.6C301.799 74.7 298.5 78 294.4 78H286.299C285.899 78 285.5 77.7 285.5 77.2C285.5 76.7 285.799 76.4 286.299 76.4H294.4C297.7 76.4 300.299 73.7 300.299 70.5V68.4C300.299 65.1 297.6 62.5 294.4 62.5H249.299C246 62.5 243.4 65.2 243.4 68.4V86.1C243.4 90.4 240.1 93.7 236 93.7Z" fill="#030047"/>
<path d="M225.6 93.6L229.6 94.8C230.1 94.9 230.6 94.9 231.1 94.6L232.5 93.9C234 93.1 233.8 90.8 232.2 90.3L225.6 93.6Z" fill="#030047"/>
<path d="M282.2 74.5L286.7 82.4C289.4 82.4 291.1 79.5 289.8 77.1L289.4 76.3C288.8 75.2 287.6 74.5 286.3 74.5H282.2Z" fill="#030047"/>
<path d="M160.8 40.8C152.3 33.7 143.4 32.5 139.4 41.9C139.4 41.9 129.4 42.3 133.7 50.1C133.7 50.1 126.9 56.4 138 61.5C149 66.7 159.8 51 159.8 51L160.8 40.8Z" fill="#FF3E6C"/>
<path d="M179.2 52.8C178.4 56.7 176.9 60.2 174.5 62.5C172 64.9 168.4 65.8 163.5 64.3C156.9 62.3 152.1 55.3 153.8 47.5C155.4 39.7 162.5 34.5 169.5 36C169.7 36 170 36.1 170.2 36.2C170.6 36.3 171 36.4 171.4 36.6C175.7 38.3 178.7 42.4 179.3 47.3C179.3 47.4 179.4 47.6 179.4 47.7C179.6 49.3 179.5 51.1 179.2 52.8Z" fill="#FFCC3E"/>
<path d="M179.3 47.2C172.8 51.3 160.2 49.9 153.7 47.5C155.3 39.7 162.4 34.5 169.4 36C169.6 36 169.9 36.1 170.1 36.2C170.5 36.3 170.9 36.4 171.3 36.6C175.7 38.3 178.6 42.4 179.3 47.2Z" fill="#8FACFF"/>
<path d="M170.276 52.8057C170.73 52.4912 170.844 51.8682 170.529 51.4142C170.215 50.9602 169.592 50.847 169.138 51.1615C168.683 51.476 168.57 52.099 168.885 52.553C169.199 53.007 169.822 53.1202 170.276 52.8057Z" fill="#030047"/>
<path d="M156.7 48.4C149.1 45.2 144.9 50.5 147.2 54.5C149.1 57.7 153.7 60.2 158.3 57.3C162.9 54.4 156.7 48.4 156.7 48.4Z" fill="#FFCC3E"/>
<path d="M156 53.2C154.9 51.1 152.5 50.1 150.2 50.7C149.6 50.9 149.8 51.9 150.4 51.7C152.2 51.2 154.2 51.9 155.1 53.6C155.4 54.2 156.3 53.8 156 53.2Z" fill="#030047"/>
<path d="M173.5 59.5C174.4 57.5 175.1 55.3 175.4 53.1C175.5 52.5 174.5 52.3 174.4 52.9C174.1 55 173.5 57.1 172.6 59C172.4 59.7 173.3 60.1 173.5 59.5Z" fill="#030047"/>
<path d="M165.3 66.2C165.2 66.2 165.2 66.2 165.1 66.2C160.1 64.8 158.5 62.3 158.4 62.2C158.2 61.9 158.3 61.4 158.6 61.2C158.9 61 159.4 61.1 159.6 61.4C159.6 61.4 161.1 63.5 165.4 64.8C165.8 64.9 166 65.3 165.9 65.7C166 66 165.7 66.2 165.3 66.2Z" fill="#5F5FFF"/>
</svg>
