<svg width="317" height="187" viewBox="0 0 317 187" fill="none" xmlns="http://www.w3.org/2000/svg">
<path d="M315.1 142.6C313 151.4 305.2 158.6 294.9 158.6H101.6C87.7998 158.6 74.8998 152.7 65.8998 142.6C63.4998 140 61.4998 137 59.6998 133.9L3.89982 32.4C3.09982 30.9 2.49983 29.4 2.09983 27.9C-1.50017 15.1 7.99984 1.59998 22.1998 1.59998H215.5C216.1 1.59998 216.8 1.59998 217.4 1.59998C232.7 2.19998 246.4 11 254 24.3L313.2 127.8C315.8 132.6 316.3 137.8 315.1 142.6Z" fill="white"/>
<path d="M313.8 127.4L254.6 23.9C246.8 10.3 232.5 1.39999 217.4 0.799988C216.8 0.799988 216.1 0.799988 215.5 0.799988H22.1998C15.3998 0.799988 9.09977 3.89999 4.99977 9.29999C0.899775 14.7 -0.400232 21.7 1.39977 28.1C1.79977 29.7 2.49976 31.3 3.29976 32.7L27.9998 77.7L59.0998 134.2C60.7998 137.4 62.8998 140.4 65.3998 143.1C74.5998 153.4 87.7997 159.4 101.6 159.4H294.9C299.9 159.4 304.6 157.7 308.2 154.8C311.8 151.9 314.6 147.7 315.8 142.8C317.1 137.6 316.4 132.2 313.8 127.4ZM314.4 142.4C312.2 151.5 304.2 157.8 294.9 157.8H101.6C88.1997 157.8 75.3998 152.1 66.4998 142C64.1998 139.4 62.0998 136.5 60.3998 133.4L28.8998 76.1L4.59978 32C3.79978 30.6 3.19976 29.1 2.79976 27.7C1.09976 21.8 2.39979 15.2 6.19979 10.2C9.99979 5.20001 15.7998 2.29999 22.1998 2.29999H215.5C216.1 2.29999 216.7 2.29999 217.3 2.29999C231.9 2.89999 245.7 11.4 253.3 24.6L312.4 128.1C314.9 132.6 315.6 137.5 314.4 142.4Z" fill="#030047"/>
<path d="M256 27.9H2.09983C-1.50017 15.1 7.99984 1.59998 22.1998 1.59998C22.1998 1.59998 216.8 1.59998 217.4 1.59998C232.7 2.19998 246.4 11 254 24.3L256 27.9Z" fill="#030047"/>
<path d="M315.1 142.6C313 151.4 305.2 158.6 294.9 158.6H101.6C87.7999 158.6 74.8999 152.6 65.8999 142.6H315.1Z" fill="#030047"/>
<path d="M61.5 19.9H29.8C27.7 19.9 26 18.2 26 16.1C26 14 27.7 12.3 29.8 12.3H61.5C63.6 12.3 65.3 14 65.3 16.1C65.3 18.2 63.6 19.9 61.5 19.9Z" fill="white"/>
<path d="M213.6 19.9H198C195.9 19.9 194.2 18.2 194.2 16.1C194.2 14 195.9 12.3 198 12.3H213.6C215.7 12.3 217.4 14 217.4 16.1C217.4 18.2 215.7 19.9 213.6 19.9Z" fill="white"/>
<path d="M122.2 112.8C122.1 112.8 122.1 112.8 122 112.8C110.9 109.5 98.8001 95.6 100.4 83.3C100.5 82.9 100.8 82.6 101.2 82.7C101.6 82.8 101.9 83.1 101.8 83.5C100.4 94.8 111.9 108.2 122.4 111.4C122.8 111.5 123 111.9 122.9 112.3C122.8 112.6 122.5 112.8 122.2 112.8Z" fill="#030047"/>
<path d="M92.9999 66.8C92.8999 66.8 92.6999 66.8 92.5999 66.7C89.0999 64.5 86.6999 61 86.2999 57.5C85.8999 54.2 87.1999 50.9 89.9999 48C90.2999 47.7 90.7999 47.7 91.0999 48C91.3999 48.3 91.3999 48.8 91.0999 49.1C88.5999 51.6 87.5 54.5 87.9 57.3C88.3 60.4 90.3999 63.5 93.4999 65.5C93.7999 65.7 93.9999 66.2 93.6999 66.5C93.4999 66.6 93.2999 66.8 92.9999 66.8Z" fill="#030047"/>
<path d="M96.4999 76.3C92.3999 76 85.0999 73.2 81.4999 66.9C81.2999 66.5 81.3999 66.1 81.7999 65.9C82.1999 65.7 82.5999 65.8001 82.7999 66.2001C86.0999 72.0001 92.7999 74.5 96.4999 74.8C96.8999 74.8 97.1999 75.2001 97.1999 75.6001C97.1999 76.0001 96.8999 76.3 96.4999 76.3Z" fill="#030047"/>
<path d="M93 121.9C92.9 121.9 92.9 121.9 92.8 121.9C92.7 121.9 84.8 120 83.7 112.2C83.6 111.8 83.9 111.4 84.3 111.4C84.7 111.3 85.1 111.6 85.1 112C86 118.8 93 120.5 93 120.5C93.4 120.6 93.7 121 93.6 121.4C93.7 121.7 93.4 121.9 93 121.9Z" fill="#030047"/>
<path d="M236.8 106.5C236.5 106.5 236.1 106.3 236.1 105.9C236 105.5 236.3 105.1 236.7 105C246.8 102.9 252.7 95.1001 254.8 89.1001C254.9 88.7001 255.4 88.5001 255.8 88.6001C256.2 88.7001 256.4 89.2001 256.3 89.6001C253.4 98.0001 245.9 104.7 237.1 106.5C236.9 106.4 236.9 106.5 236.8 106.5Z" fill="#030047"/>
<path d="M235.4 115.8C235.1 115.8 234.7 115.6 234.7 115.2C234.6 114.8 234.9 114.4 235.3 114.3C242.1 112.9 247.3 110.4 251.5 106.5C251.8 106.2 252.3 106.2 252.6 106.5C252.9 106.8 252.9 107.3 252.6 107.6C248.2 111.7 242.7 114.4 235.7 115.8C235.5 115.8 235.4 115.8 235.4 115.8Z" fill="#030047"/>
<path d="M137.8 74.2C134.3 74.2 130.6 73.8999 126.8 73.3999C113.4 71.4999 104.3 65.8999 99 61.4999C97.5 60.2999 96.8 58.3999 96.9 56.4999C97.1 54.5999 98.1 52.8999 99.8 51.9999C106.3 48.2999 117.6 43.7999 134 43.7999C140.2 43.7999 146.7 44.4 153.4 45.7C157.9 46.6 163.6 49.5999 165.9 53.7999C167.2 56.0999 167.3 58.5999 166.4 61.0999C163.3 69.2999 152.6 74.2 137.8 74.2Z" fill="white"/>
<path d="M134.1 44.6C140.3 44.6 146.7 45.2 153.4 46.5C157.7 47.3 163.2 50.2 165.4 54.2C166.6 56.3 166.7 58.5 165.8 60.8C163.5 66.9 154.9 73.4 137.8 73.4C134.4 73.4 130.7 73.1 126.9 72.6C113.6 70.8 104.7 65.2 99.4999 60.9C98.1999 59.8 97.5999 58.2 97.6999 56.6C97.7999 54.9 98.7999 53.5 100.2 52.7C106.8 49 117.9 44.6 134.1 44.6ZM134.1 43.1C117.5 43.1 106.1 47.7 99.5998 51.4C95.5998 53.7 95.0998 59.2 98.5998 62.1C103.9 66.6 113.1 72.3 126.7 74.2C130.7 74.7 134.4 75 137.8 75C154.5 75 164.3 68.9 167.2 61.4C170.6 52.5 160.2 46.3 153.7 45C146.5 43.7 139.9 43.1 134.1 43.1Z" fill="#030047"/>
<path d="M149.5 70.9C148.6 68.5 149 65.8 149.5 63.3C150 60.9 151.2 59.2 149.9 57.1C146 50.8 135.2 51.5 129.2 50.8C125.5 50.4 118.4 48.6 114.4 45.5C108 47.2 103 49.4 99.4998 51.4C95.5998 53.7 95.0998 59.1 98.5998 62.1C103.9 66.6 113.1 72.3 126.7 74.2C136.6 75.6 144.7 75.1 151 73.5C150.4 72.7 149.8 71.9 149.5 70.9Z" fill="#5F5FFF"/>
<path d="M182.7 97.5L173.6 122.1L198.2 120.4L182.7 97.5Z" fill="#5F5FFF"/>
<path d="M209.412 55.8506L201.814 73.8101L219.774 81.4073L227.371 63.4478L209.412 55.8506Z" fill="#5F5FFF"/>
<path d="M235 78.7001L229.8 72.9001L236.8 71.3L235 78.7001Z" fill="#030047"/>
<path d="M207.9 51.6001C207.7 51.6001 207.4 51.5 207.3 51.3L203.8 45.8C203.6 45.5 203.7 45 204 44.8C204.3 44.6 204.8 44.7 205 45L208.5 50.5C208.7 50.8 208.6 51.3 208.3 51.5C208.2 51.6 208 51.6001 207.9 51.6001Z" fill="#030047"/>
<path d="M219.6 43.7C219.3 43.7 219.1 43.6 218.9 43.3C218.7 42.9 218.8 42.5 219.2 42.3L223.2 40C223.6 39.8 224 39.9 224.2 40.3C224.4 40.7 224.3 41.1 223.9 41.3L219.9 43.6C219.8 43.7 219.7 43.7 219.6 43.7Z" fill="#030047"/>
<path d="M158.7 125.8C158.5 125.8 158.3 125.7 158.2 125.6C157.9 125.3 157.9 124.8 158.2 124.5L161.3 121.6C161.6 121.3 162.1 121.3 162.4 121.6C162.7 121.9 162.7 122.4 162.4 122.7L159.3 125.6C159 125.7 158.8 125.8 158.7 125.8Z" fill="#030047"/>
<path d="M150 159.3C136.5 175.8 115.9 186.3 92.9997 186.3C52.2997 186.3 19.1997 153.3 19.1997 112.5C19.1997 99.9 22.3997 88 27.8997 77.6L58.9997 134.1C60.6997 137.3 62.7997 140.3 65.2997 143C74.4997 153.3 87.6997 159.3 101.5 159.3H150Z" fill="#5F5FFF"/>
<path d="M200.8 72.2999L162.2 92.7C159.6 94.1 159.8 97.8 162.5 98.9L191.4 112.6C192.3 113 193.3 112.9 194.2 112.5L232.5 92.9999C235 91.6999 235 88.0999 232.5 86.8999L204 72.2999C203 71.7999 201.8 71.7999 200.8 72.2999Z" fill="#030047"/>
<path d="M204.3 71.6C203.1 71 201.7 71 200.5 71.6L161.9 92C160.4 92.8 159.6 94.3 159.7 95.9C159.8 97.5 160.8 99 162.3 99.5L182.3 108.9C182.4 108.8 187.5 111.2 187.6 111.2C188 110.9 188.4 110.7 188.9 110.4L163 98.0999C162 97.6999 161.4 96.8 161.3 95.7C161.2 94.6 161.8 93.7 162.7 93.2L201.3 72.7999C202.1 72.3999 203 72.3999 203.7 72.7999L230.8 86.7C231 86.3 228.8 84.5 229.1 84.1L204.3 71.6Z" fill="#030047"/>
<path d="M162.1 97.7999L208.1 73.3999L203.3 70.9999C202.3 70.4999 201.1 70.4999 200.2 70.9999L161.6 91.3999C159 92.7999 159.2 96.4999 161.9 97.5999L162.1 97.7999Z" fill="white"/>
<path d="M162.1 98.6999L161.6 98.4C160.1 97.8 159.1 96.3999 159 94.7999C158.9 93.1999 159.8 91.5999 161.2 90.8999L199.8 70.4999C201 69.8999 202.4 69.8999 203.6 70.4999L209.7 73.4999L162.1 98.6999ZM201.8 71.3999C201.4 71.3999 200.9 71.4999 200.5 71.6999L161.9 92.0999C160.9 92.5999 160.4 93.4999 160.5 94.5999C160.6 95.5999 161.1 96.5 162.1 96.9L206.5 73.3999L203 71.6999C202.7 71.4999 202.2 71.3999 201.8 71.3999Z" fill="#030047"/>
<path d="M229.1 85.1L183.9 109.1L190.8 112.4C191.7 112.8 192.7 112.7 193.6 112.3L233.6 91.9C235.4 91 235.4 88.4 233.6 87.5L229.1 85.1Z" fill="white"/>
<path d="M192.1 113.3C191.6 113.3 191 113.2 190.6 113L182.3 109.1L229.2 84.2L234.1 86.7C235.2 87.3 235.9 88.3999 235.9 89.5999C235.9 90.7999 235.2 91.8999 234.1 92.4999L194.1 112.9C193.4 113.2 192.7 113.3 192.1 113.3ZM185.5 109L191.1 111.6C191.8 111.9 192.6 111.8 193.3 111.5L233.3 91.0999C233.9 90.7999 234.2 90.1999 234.2 89.5999C234.2 88.8999 233.8 88.3999 233.2 88.0999L229 85.9999L185.5 109Z" fill="#030047"/>
<path d="M199.5 91.7C199.2 91.7 198.9 91.6 198.6 91.4C198.4 91.3 197.9 90.1 198.5 86.4L197 86.1C196.5 88.1 195.9 88.5 195.7 88.5C194.4 88.5 193.8 87 193.7 86.4C193 83.6 194.1 79.6 197.1 77.9L197.6 77.6L197.4 77C197.2 76.6 197.1 76.1 196.9 75.7C194.3 69.8 181.9 63.4 173.4 62C175.2 59.9 176.5 56.8 177.3 53C177.6 51.5 177.7 49.9 177.6 48.4C203.7 51.1 215.4 68.2 215.9 76.9C216.1 80.8 214.1 83.8 212.4 85.6C210 88.2 206.5 89.9 204 89.9C203.4 89.9 202.9 89.8 202.5 89.6L201.8 89.2L201.5 89.9C201.6 90 200.7 91.7 199.5 91.7Z" fill="white"/>
<path d="M178.5 49.3C192.1 50.9 200.8 56.4 205.7 60.8C212.4 66.8 215 73.3 215.2 76.9C215.4 80.6 213.5 83.4 211.9 85C209.3 87.7 206 89.1 204.1 89.1C203.5 89.1 203.2 89 203 88.9L201.6 88.1L200.9 89.5C200.7 89.9 200.1 90.8 199.5 90.8C199.4 90.8 199.2 90.8 199.1 90.7C199 90.4 198.7 89.4 199.3 86.5C199.6 85.4 199.7 84.4 199.7 84.3L196.8 83.7C196.8 83.7 196.6 84.6 196.4 85.8C196.1 86.9 195.8 87.4 195.7 87.6C195 87.5 194.7 86.4 194.6 86.1C194.1 84 194.7 80.1 197.7 78.5L198.8 77.9L198.4 76.7C198.2 76.2 198 75.7 197.8 75.3C195.1 69.4 183.6 63.1 174.9 61.4C176.4 59.3 177.5 56.5 178.2 53.1C178.4 51.9 178.5 50.6 178.5 49.3ZM176.8 47.6C177 49.3 176.9 51.1 176.6 52.8C175.8 56.6 174.3 60.2 171.9 62.5C180.6 63.3 193.7 70.2 196.3 76C196.5 76.4 196.7 76.9 196.8 77.3C191.4 80.3 191.8 89.3 195.7 89.3H195.8C196.7 89.3 197.4 87.7 197.7 86.3C197.9 85.1 198.1 84.3 198.1 84.3C198.1 84.3 198 85.3 197.7 86.3C197.3 88.4 197 91.5 198.2 92.1C198.6 92.3 199.1 92.4 199.4 92.4C201.1 92.4 202.2 90.3 202.2 90.3C202.7 90.6 203.3 90.7 204.1 90.7C208.8 90.7 217.2 85 216.7 76.9C216.2 67.8 203.8 50 176.8 47.6Z" fill="#030047"/>
<path d="M196.2 93.2H196.1C195.7 93.1 195.4 92.7999 195.5 92.2999L199.1 69.7C199.2 69.3 199.6 68.9999 200 69.0999C200.4 69.1999 200.7 69.4999 200.6 69.9999L197 92.5999C196.8 92.8999 196.5 93.2 196.2 93.2Z" fill="#5F5FFF"/>
<path d="M203 81.1C202.6 83.3 202.2 85.5 201.9 87.7C201.8 88.3 202.8 88.6 202.9 88C203.3 85.8 203.7 83.6 204 81.4C204 80.8 203.1 80.5 203 81.1Z" fill="#030047"/>
<path d="M208.4 82.8C208.3 85.1 208 87.1 206.5 89C206.1 89.5 206.8 90.2 207.2 89.7C208.9 87.6 209.3 85.4 209.4 82.8C209.4 82.1 208.4 82.1 208.4 82.8Z" fill="#030047"/>
<path d="M194.2 107.8C193.9 107.8 193.7 107.7 193.5 107.4C193.3 107 193.4 106.6 193.8 106.4L201.9 101.9C202.3 101.7 202.7 101.8 202.9 102.2C203.1 102.6 203 103 202.6 103.2L194.5 107.7C194.4 107.8 194.3 107.8 194.2 107.8Z" fill="#030047"/>
<path d="M219.6 94.2C219.3 94.2 219.1 94.0999 218.9 93.7999C218.7 93.3999 218.8 92.9999 219.2 92.7999L227.3 88.2999C227.7 88.0999 228.1 88.2 228.3 88.6C228.5 89 228.4 89.4 228 89.6L219.9 94.0999C219.8 94.1999 219.7 94.2 219.6 94.2Z" fill="#030047"/>
<path d="M237 94.7999H229.8C229.4 94.7999 229 94.4999 229 93.9999C229 93.4999 229.3 93.2 229.8 93.2H237C240.3 93.2 242.9 90.4999 242.9 87.2999V69.5999C242.9 65.4999 246.2 62.2 250.3 62.2H295.4C299.5 62.2 302.8 65.4999 302.8 69.5999V71.7C302.8 75.8 299.5 79.0999 295.4 79.0999H287.3C286.9 79.0999 286.5 78.7999 286.5 78.2999C286.5 77.7999 286.8 77.4999 287.3 77.4999H295.4C298.7 77.4999 301.3 74.7999 301.3 71.5999V69.4999C301.3 66.1999 298.6 63.5999 295.4 63.5999H250.3C247 63.5999 244.4 66.2999 244.4 69.4999V87.2C244.4 91.4 241.1 94.7999 237 94.7999Z" fill="#030047"/>
<path d="M226.6 94.5999L230.6 95.7999C231.1 95.8999 231.6 95.8999 232.1 95.5999L233.5 94.9C235 94.1 234.8 91.7999 233.2 91.2999L226.6 94.5999Z" fill="#030047"/>
<path d="M283.2 75.4999L287.7 83.3999C290.4 83.3999 292.1 80.4999 290.8 78.0999L290.4 77.2999C289.8 76.1999 288.6 75.4999 287.3 75.4999H283.2Z" fill="#030047"/>
<path d="M119.7 56.1C109.9 60.8 109.9 67.6 113.8 70.4C117.7 73.2 140.2 75.3 145.2 68.5C150.2 61.7 147.1 55.1 137.4 53.4C133.7 52.7 124.8 53.7 119.7 56.1Z" fill="white"/>
<path d="M124.6 56C97.7 75.1 109 108.3 150.5 112.2C158.1 112.9 163 107.7 167.2 110.1C169.5 111.4 173.2 108.6 174.6 109.5C179.2 112.3 180.3 107.6 180.3 107.6C181.1 107.8 183.4 105.3 182.2 103.5C182.2 103.5 184.6 101.8 182.1 98.7C177 92.3 161.9 91 154 89.2C146.1 87.4 130.3 86.2 136.4 74.7C138.2 71.2 141.7 66.8 141.7 66.7" fill="white"/>
<path d="M152 113C151.5 113 151 113 150.5 112.9C129.4 110.9 114 100.9 110.2 86.7999C107.2 75.4999 112.4 63.6999 124.2 55.2999C124.5 55.0999 125 55.1 125.2 55.5C125.4 55.8 125.4 56.3 125 56.5C113.7 64.5 108.7 75.7 111.5 86.4C115.1 99.9 130 109.4 150.5 111.4C154 111.7 156.9 110.7 159.5 109.9C162.5 108.9 165 108 167.5 109.4C168.5 110 170 109.5 171.4 109C172.8 108.6 174 108.2 174.9 108.7C176.1 109.4 177.1 109.7 177.9 109.3C179.1 108.8 179.5 107.3 179.5 107.2L179.7 106.5L180.4 106.7C180.5 106.7 181.2 106.1 181.5 105.3C181.8 104.7 181.7 104.2 181.4 103.7L181 103.1L181.6 102.7C181.6 102.7 182.2 102.2 182.3 101.4C182.4 100.7 182.1 99.9 181.4 99C177.5 94.1 166.9 92.1999 159.1 90.7999C157.1 90.3999 155.3 90.0999 153.7 89.7999C152.7 89.5999 151.7 89.4 150.5 89.2C144.5 88 136.9 86.6 134.7 82C133.7 79.8 133.9 77.2 135.5 74.2C136.6 72.1 138.4 69.3999 140.8 66.2999L140.9 66.1C141.1 65.8 141.6 65.7 141.9 65.9C142.2 66.1 142.3 66.6 142.1 66.9C142.1 66.9 142 67 141.9 67.1C139 70.9 137.5 73.3999 136.8 74.7999C135.4 77.3999 135.2 79.5 136 81.2C137.9 85.1 145.3 86.5 150.7 87.6C151.9 87.8 152.9 88 153.9 88.2C155.4 88.5 157.3 88.9 159.3 89.2C167.7 90.7 178.2 92.6 182.5 97.9C183.5 99.1 183.9 100.3 183.7 101.4C183.6 102.2 183.2 102.8 182.9 103.2C183.3 104.2 183.1 105.4 182.3 106.5C181.9 107.1 181.3 107.7 180.6 107.9C180.3 108.6 179.7 109.9 178.3 110.5C177.1 111 175.6 110.8 173.9 109.7C173.6 109.5 172.5 109.9 171.6 110.1C170 110.6 168.1 111.2 166.5 110.3C164.6 109.3 162.5 110 159.7 110.9C157.7 112.1 155.1 113 152 113Z" fill="#030047"/>
<path d="M179.3 107C177.6 104.9 174.9 103.7 172.2 104C171.6 104.1 171.6 105.1 172.2 105C174.7 104.8 177 105.8 178.6 107.7C179 108.2 179.7 107.4 179.3 107Z" fill="#030047"/>
<path d="M181.3 101.8C179.7 99.9999 177.4 98.8999 174.9 98.7999C174.3 98.7999 174.3 99.7999 174.9 99.7999C177.1 99.8999 179.1 100.8 180.6 102.5C181 103 181.7 102.3 181.3 101.8Z" fill="#030047"/>
<path d="M161.5 42C153 34.9 144.1 33.7 140.1 43.1C140.1 43.1 130.1 43.5 134.4 51.3C134.4 51.3 127.6 57.6 138.7 62.7C149.7 67.9 160.5 52.2 160.5 52.2L161.5 42Z" fill="#030047"/>
<path d="M168.6 65.5C167.3 65.5 165.9 65.3 164.4 64.8C161.4 63.9 158.8 61.9 157 59.1L156.7 58.7L156.2 58.8C155.7 58.9 155.2 59 154.7 59C151.9 59 149.6 57.1 148.5 55.3C147.8 54.1 147.8 52.7 148.5 51.6C149.3 50.2 150.9 49.4 153 49.4C153.4 49.4 153.9 49.4 154.3 49.5L155 49.6L155.2 48.9V48.8C156.6 42.3 161.8 37.6 167.7 37.6C168.5 37.6 169.2 37.7 170 37.8C174.9 38.8 178.7 43.3 179.4 48.8C179.6 50.4 179.5 52.1 179.2 53.8C178.3 58 176.8 61.1 174.7 63.1C173 64.7 171 65.5 168.6 65.5Z" fill="white"/>
<path d="M167.7 38.4C168.4 38.4 169.1 38.5 169.8 38.6C174.4 39.6 178 43.7 178.6 48.9C178.8 50.4 178.7 52 178.4 53.6C177.5 57.7 176.1 60.7 174.2 62.5C172.7 63.9 170.8 64.6 168.6 64.6C167.4 64.6 166 64.4 164.6 64C161.8 63.1 159.3 61.2 157.6 58.7L157 57.8L156 58C155.6 58.1 155.1 58.2 154.7 58.2C152.2 58.2 150.1 56.5 149.2 54.9C148.6 53.9 148.6 52.8 149.2 51.9C149.9 50.7 151.3 50.1 153 50.1C153.4 50.1 153.8 50.1 154.2 50.2L155.6 50.4L155.9 49V48.9C157.2 42.8 162.2 38.4 167.7 38.4ZM167.7 36.9C161.5 36.9 155.9 41.7 154.4 48.7V48.8C153.9 48.7 153.4 48.7 153 48.7C148.3 48.7 146.1 52.6 147.9 55.7C149.2 57.9 151.8 59.8 154.7 59.8C155.2 59.8 155.8 59.7 156.4 59.6C158.2 62.5 161 64.6 164.2 65.6C165.8 66.1 167.3 66.3 168.6 66.3C171.4 66.3 173.5 65.3 175.2 63.8C177.6 61.5 179.1 58 179.9 54.1C180.3 52.3 180.3 50.6 180.1 48.9C179.4 43.2 175.6 38.4 170.1 37.3C169.3 37 168.5 36.9 167.7 36.9Z" fill="#030047"/>
<path d="M179.9 47.6C178.7 40.4 174.3 38 170.1 37.1C163.1 35.6 156.7 39.9 154 49.9C153.7 51 173.9 53.1 179.9 47.6Z" fill="#5F5FFF"/>
<path d="M171.127 53.8104C171.582 53.4973 171.697 52.8747 171.384 52.4197C171.071 51.9648 170.448 51.8499 169.993 52.163C169.538 52.4762 169.423 53.0988 169.736 53.5537C170.05 54.0087 170.672 54.1236 171.127 53.8104Z" fill="#030047"/>
<path d="M156.7 54.4C155.6 52.3 153.2 51.3 150.9 51.9C150.3 52.1 150.5 53.1 151.1 52.9C152.9 52.4 154.9 53.1 155.8 54.8C156.1 55.4 157 55 156.7 54.4Z" fill="#030047"/>
<path d="M174.4 60.5C175.3 58.5 176 56.3 176.3 54.1C176.4 53.5 175.4 53.3 175.3 53.9C175 56 174.4 58.1 173.4 60C173.2 60.7 174.1 61.1 174.4 60.5Z" fill="#030047"/>
</svg>
