<svg width="203" height="230" viewBox="0 0 203 230" fill="none" xmlns="http://www.w3.org/2000/svg">
<path d="M118 90.6001L161.7 86.9001L159.2 122.9L121.2 125.4L118 90.6001Z" fill="white"/>
<path d="M160.9 87.8001L158.4 122.2L121.8 124.6L118.7 91.3001L160.9 87.8001ZM162.5 86.1001L117.2 90.0001L120.5 126.2L159.8 123.6L162.5 86.1001Z" fill="#030047"/>
<path d="M134.7 117.5C134.3 117.5 134 117.2 134 116.8L132.7 106.6L128.1 105.1C127.7 105 127.5 104.5 127.6 104.2C127.7 103.9 128.2 103.6 128.5 103.7L133.9 105.5L135.3 116.6C135.5 117.1 135.2 117.5 134.7 117.5C134.8 117.5 134.8 117.5 134.7 117.5Z" fill="#030047"/>
<path d="M61.5999 75.1001L51.8999 115.1L27.3999 130.3L39.6999 85.8001L40.7999 85.3001L46.9999 82.2001L48.0999 81.7001L61.5999 75.1001Z" fill="#FFCC3E"/>
<path d="M113.6 129.6H39.9997L38.1997 126.6L57.2997 115L91.8997 93.9001L104.8 115L113.6 129.6Z" fill="white"/>
<path d="M91.5997 94.9001L104.3 115.8L112.3 128.8H40.4997L39.2997 126.8L56.5997 116.2L91.5997 94.9001ZM92.0997 92.8L55.7997 115L37.1997 126.4L39.5997 130.4H115L105.7 115.1L92.0997 92.8Z" fill="#030047"/>
<path d="M60.9998 122.4C60.6998 122.4 60.4998 122.3 60.3998 122C60.1998 121.6 60.2998 121.2 60.6998 121L87.6998 104.5C88.0998 104.3 88.4998 104.4 88.6998 104.7C88.8998 105.1 88.7998 105.5 88.3998 105.7L61.3998 122.2C61.1998 122.3 61.0998 122.4 60.9998 122.4Z" fill="#030047"/>
<path d="M65.7996 130.4C65.4996 130.4 65.2996 130.3 65.1996 130C64.9996 129.6 65.0996 129.2 65.4996 129L92.4996 112.5C92.8996 112.3 93.2996 112.4 93.4996 112.7C93.6996 113 93.5996 113.5 93.1996 113.7L66.1996 130.2C66.0996 130.3 65.9996 130.4 65.7996 130.4Z" fill="#030047"/>
<path d="M115.6 27.5001C122 25.5001 140.7 20.6001 156.6 47.2001C172.6 73.8001 162.5 96.7001 162.5 96.7001L114.6 94.3C114.6 94.3 113.1 67.3001 108.8 50.0001C107.9 46.2001 105.4 30.7001 115.6 27.5001Z" fill="#030047"/>
<path d="M41.5003 84.1C41.1003 77.7 43.5003 67.2 51.9003 56.8C57.4003 59.7 62.7003 63.0001 67.2003 65.9001C63.9003 69.3001 61.9003 72.6 61.0003 74.6L41.5003 84.1Z" fill="white"/>
<path d="M52.1001 57.7001C57.1001 60.4001 61.9001 63.3001 66.1001 66.0001C63.2001 69.1001 61.4001 72.1001 60.5001 74.0001L42.2001 83.0001C42.1001 76.8001 44.6001 67.3001 52.1001 57.7001ZM51.7001 55.8C42.7001 66.8 40.0001 78.2 40.9001 85.3L61.7001 75.1C62.6001 73.1 64.7001 69.4 68.5001 65.8C62.9001 62.2 57.4001 58.8 51.7001 55.8Z" fill="#030047"/>
<path d="M56.9 46.8C52.9 50.7 47 57.5001 44.5 63.2001C50.4 65.6001 62 70.2 67.8 72.8C69.9 69.9 79 61.8 83.6 59.1C98.4 50.4 116.7 46 116.7 46L119 25.7001C98.6 23.9001 74.2 30 56.9 46.8Z" fill="#030047"/>
<path d="M108.6 47.0001C108.2 47.0001 107.9 46.7 107.9 46.3L107.2 40.5001C107.1 40.1001 107.4 39.7001 107.9 39.7001C108.3 39.7001 108.7 39.9001 108.7 40.4001L109.4 46.2001C109.4 46.6001 109.1 46.9001 108.6 47.0001Z" fill="white"/>
<path d="M49.7998 76.4C56.1998 72.7 55.7998 82.2 55.7998 82.2C55.7998 82.2 52.9998 88.4 56.9998 89.3C59.4998 89.9 65.3998 77.3 60.8998 70.5" fill="white"/>
<path d="M57.3001 90.1C57.2001 90.1 57.1001 90.1 56.9001 90.1C55.8001 89.8 55.0001 89.2 54.6001 88.3C53.5001 86.1 54.8001 82.8 55.1001 82.1C55.1001 80.8 54.9001 77.5 53.4001 76.6C52.7001 76.2 51.6001 76.3 50.2001 77.1C49.8001 77.3 49.4001 77.2 49.2001 76.8C49.0001 76.4 49.1001 76 49.5001 75.8C51.4001 74.7 52.9001 74.6 54.2001 75.3C56.8001 76.9 56.7001 81.7 56.7001 82.3V82.4001L56.6001 82.5C56.2001 83.4 55.3001 86.1 56.0001 87.6C56.2001 88.1 56.7001 88.4 57.3001 88.6C57.4001 88.6 58.2001 88.3 59.2001 86.5C61.5001 82.7 63.3001 75.4 60.4001 71C60.2001 70.7 60.3001 70.2 60.6001 70C60.9001 69.8 61.4001 69.9001 61.6001 70.2001C65.4001 75.8001 62.4001 84.6 60.0001 88.1C59.0001 89.5 58.1001 90.1 57.3001 90.1Z" fill="#030047"/>
<path d="M173.4 115L159.9 123.6L149.3 130.3H27.3999L51.4999 115H57.2999L38.1999 126.6L39.9999 129.6H113.6L104.8 115H173.4Z" fill="#030047"/>
<path d="M149.2 130.3H27.3999V229.2H149.2V130.3Z" fill="#FFCC3E"/>
<path d="M173.4 213.9L149.2 229.2V130.3L173.4 115V213.9Z" fill="#FFCC3E"/>
<path d="M149.2 224.5C148.8 224.5 148.4 224.2 148.4 223.7V137.2C148.4 136.8 148.7 136.4 149.2 136.4C149.7 136.4 150 136.7 150 137.2V223.7C150 224.1 149.7 224.5 149.2 224.5Z" fill="white"/>
<path d="M64.5999 130.3V130.5C64.5999 156.4 48.0999 168.8 27.3999 169.5V130.4H64.5999V130.3Z" fill="#030047"/>
<path d="M54.3999 164.3L45.8999 171.1L56.3999 175.8L54.3999 164.3Z" fill="#030047"/>
<path d="M134.8 152.1H75.0996V158.1H134.8V152.1Z" fill="white"/>
<path d="M110.9 169.4H100.5C99.2999 169.4 98.3999 168.4 98.3999 167.3C98.3999 166.1 99.3999 165.2 100.5 165.2H110.9C112.1 165.2 113 166.2 113 167.3C113.1 168.5 112.1 169.4 110.9 169.4Z" fill="#030047"/>
<path d="M122.3 169.4H118.8C117.6 169.4 116.7 168.4 116.7 167.3C116.7 166.1 117.7 165.2 118.8 165.2H122.3C123.5 165.2 124.4 166.2 124.4 167.3C124.5 168.5 123.5 169.4 122.3 169.4Z" fill="#030047"/>
<path d="M132.6 169.4H129C127.8 169.4 126.9 168.4 126.9 167.3C126.9 166.1 127.9 165.2 129 165.2H132.5C133.7 165.2 134.6 166.2 134.6 167.3C134.7 168.5 133.8 169.4 132.6 169.4Z" fill="#030047"/>
<path d="M97.6997 191.9H28.1997V228.4H97.6997V191.9Z" fill="white"/>
<path d="M96.8999 192.7V227.7H28.8999V192.7H96.8999ZM98.3999 191.2H27.3999V229.2H98.3999V191.2Z" fill="#030047"/>
<path d="M76.3999 228.3C76.1999 228.3 76.0999 228.3 75.9999 228.2L28.4999 193.5C28.1999 193.3 28.0998 192.8 28.2998 192.5C28.4998 192.2 28.9998 192.1 29.2998 192.3L76.7999 227C77.0998 227.2 77.1999 227.7 76.9999 228C76.8999 228.2 76.5999 228.3 76.3999 228.3Z" fill="#030047"/>
<path d="M49.2997 228.3C49.0997 228.3 48.7997 228.2 48.6997 228C48.4997 227.7 48.4997 227.2 48.8997 227L95.9997 192.3C96.2997 192.1 96.7997 192.1 96.9997 192.5C97.1997 192.8 97.1997 193.3 96.7997 193.5L49.6997 228.2C49.5997 228.3 49.4997 228.3 49.2997 228.3Z" fill="#030047"/>
<path d="M182.6 144.8H178.7V187.3H182.6V144.8Z" fill="#030047"/>
<path d="M91.2997 88C91.1997 88 91.1997 88 91.0997 88C90.6997 87.9 90.4997 87.4999 90.5997 87.0999L91.8998 82.0999C91.9998 81.6999 92.3997 81.4999 92.7997 81.5999C93.1997 81.6999 93.3997 82.1 93.2997 82.5L91.9997 87.5C91.9997 87.8 91.6997 88 91.2997 88Z" fill="#FFCC3E"/>
<path d="M19.6998 105.7L10.7998 111.4L20.2998 115.6L19.6998 105.7Z" fill="#030047"/>
<path d="M78.7307 93.5442L72.8618 87.6753L66.9929 93.5442L72.8618 99.4131L78.7307 93.5442Z" fill="#030047"/>
<path d="M96.3996 125.1C96.1996 125.1 96.0996 125 95.8996 124.9L92.6996 122.1C92.3996 121.8 92.2996 121.4 92.5996 121C92.8996 120.7 93.2996 120.6 93.6996 120.9L96.8996 123.7C97.1996 124 97.2996 124.4 96.9996 124.8C96.7996 125 96.5996 125.1 96.3996 125.1Z" fill="#FFCC3E"/>
<path d="M84.5997 88.7C84.3997 88.7 84.0997 88.5999 83.9997 88.2999L78.6998 79.9C78.4998 79.5 78.5998 79.1 78.8998 78.9C79.2998 78.7 79.6998 78.7999 79.8998 79.0999L85.1998 87.4999C85.3998 87.8999 85.2997 88.2999 84.9997 88.4999C84.8997 88.6999 84.7997 88.7 84.5997 88.7Z" fill="#FFCC3E"/>
<path d="M120.6 82.1C120.4 82.1 120.2 82 120.1 81.9C119.8 81.6 119.8 81.1 120.1 80.8L126.4 74.5C126.7 74.2 127.2 74.2 127.5 74.5C127.8 74.8 127.8 75.3 127.5 75.6L121.2 81.9C120.9 82.1 120.7 82.1 120.6 82.1Z" fill="#E4E4EF"/>
<path d="M108.6 99.9999C108.2 99.9999 107.9 99.6999 107.9 99.2999L107.5 95.4999C107.5 95.0999 107.8 94.7 108.2 94.7C108.6 94.7 109 95 109 95.4L109.4 99.2C109.4 99.6 109.1 99.8999 108.6 99.9999Z" fill="#FFCC3E"/>
<path d="M130.8 90L135.8 86.1L136.8 92.8L130.8 90Z" fill="#F2F2F9"/>
<path d="M92.8999 66.7L98.3999 63.5L98.5999 70.7L92.8999 66.7Z" fill="#FFCC3E"/>
<path d="M61.5996 106.4C61.4996 106.4 61.4997 106.4 61.3997 106.4C60.9997 106.3 60.6997 105.9 60.7997 105.5L62.0996 99.8999C62.1996 99.4999 62.5997 99.1999 62.9997 99.2999C63.3997 99.3999 63.6996 99.7999 63.5996 100.2L62.2997 105.8C62.1997 106.2 61.8996 106.4 61.5996 106.4Z" fill="#FFCC3E"/>
<path d="M114.1 129.6C121.4 125.1 131.3 122.8 143.5 122.8C147.1 122.8 150.9 123 154.9 123.4C156.1 123.5 157.1 123.7 158 123.9L149 129.6H114.1Z" fill="white"/>
<path d="M143.5 122V123.5C147.1 123.5 150.9 123.7 154.8 124.1C155.2 124.1 155.6 124.2 156 124.2L148.9 128.7H117C123.9 125.2 132.8 123.4 143.5 123.4V122ZM143.5 122C131.3 122 120 124.2 111.6 130.3H149.3L159.9 123.6C158.7 123.2 157.1 122.9 155 122.6C151.1 122.3 147.3 122 143.5 122Z" fill="#030047"/>
<path d="M33.5 97.3H33.4001L21.3 95.0999C20.9 94.9999 20.6 94.6 20.7 94.2C20.8 93.8 21.2 93.4999 21.6 93.5999L33.7 95.8C34.1 95.9 34.4 96.3 34.3 96.7C34.1 97 33.8 97.3 33.5 97.3Z" fill="#030047"/>
<path d="M26.3 102.2H26.2C25.8 102.1 25.4999 101.7 25.5999 101.3L27.8 89.2C27.9 88.8 28.3 88.4999 28.7 88.5999C29.1 88.6999 29.4 89.1 29.3 89.5L27.0999 101.6C26.9999 101.9 26.7 102.2 26.3 102.2Z" fill="#030047"/>
<path d="M108.6 122C113.294 122 117.1 118.194 117.1 113.5C117.1 108.806 113.294 105 108.6 105C103.905 105 100.1 108.806 100.1 113.5C100.1 118.194 103.905 122 108.6 122Z" fill="#E4E4EF"/>
<path d="M41.9997 98.3L53.3997 108L40.6997 113.8L41.9997 98.3Z" fill="white"/>
<path d="M42.5998 99.8L51.9998 107.8L41.4998 112.6L42.5998 99.8ZM41.3998 96.8L39.7998 115L54.7998 108.2L41.3998 96.8Z" fill="#030047"/>
<path d="M182.6 76.3L158.5 91.7001L149.2 130.5L173.4 115.1L182.6 76.3Z" fill="#FFCC3E"/>
<path d="M152 129.3C151.8 129.3 151.5 129.2 151.4 129C151.2 128.7 151.3 128.2 151.6 128L170.2 116.2C170.5 116 171 116.1 171.2 116.4C171.4 116.7 171.3 117.2 171 117.4L152.4 129.2C152.2 129.3 152.1 129.3 152 129.3Z" fill="white"/>
<path d="M128.3 25.2C157.1 24 183.9 32.2 193.2 43.8C203.4 56.5 198.2 81.5 185.7 88C182.6 89.6 179.1 90 177.2 90.9C171.4 93.6 170.1 93.3 168.2 91.8C168.2 91.8 163.4 94.8 162 91.1C162 91.1 160.2 95.8 156.8 94.6C153.4 93.4 157.5 84.1 166.6 79.3C175.8 74.5 180.4 62.5 175.3 55.3C170.2 48.1 138.6 39.3 138.6 39.3L128.3 25.2Z" fill="white"/>
<path d="M158 95.6C157.6 95.6 157.2 95.5001 156.7 95.4001C155.7 95.1001 155.1 94.2001 155 93.0001C154.7 89.2001 159.3 82.4001 166.4 78.7001C171.3 76.1001 175.1 71.2001 176.4 65.9001C177.3 62.1001 176.7 58.5001 174.8 55.8001C169.8 48.9001 138.9 40.2 138.5 40.1L138.3 40.0001L126.9 24.5001L128.3 24.4001C156.6 23.2001 184.1 31.2001 193.9 43.3001C198.9 49.6001 200.7 59.3001 198.6 69.3001C196.7 78.3001 192.1 85.5 186.2 88.6C184.3 89.6 182.3 90.1 180.6 90.6C179.4 90.9 178.4 91.2001 177.7 91.5001C172.2 94.1001 170.4 94.1 168.3 92.6C167.4 93.1 165.3 94.0001 163.6 93.4001C163.1 93.2001 162.6 92.9001 162.3 92.5001C161.3 94.1001 159.9 95.6 158 95.6ZM139.2 38.7001C142.4 39.6001 171 47.9001 176 54.9001C178.2 57.9001 178.8 61.9001 177.8 66.2001C176.5 71.9001 172.3 77.2001 167 80.0001C160.1 83.6001 156.2 89.9001 156.4 92.9001C156.5 93.8001 156.9 93.9001 157.1 94.0001C159.7 94.9001 161.3 91.0001 161.3 90.9001L162 89.1L162.7 90.9001C162.9 91.6001 163.3 92 163.9 92.1C165.2 92.5 167.2 91.6001 167.8 91.2001L168.3 90.9001L168.7 91.2001C170.2 92.4001 171.2 92.9001 176.9 90.2001C177.8 89.8001 178.8 89.5001 180 89.2001C181.7 88.7001 183.6 88.2001 185.3 87.3001C190.8 84.4001 195.2 77.6 197 69.1C199 59.5 197.4 50.3001 192.6 44.3001C183.3 32.7001 157 25.1001 129.7 25.9001L139.2 38.7001Z" fill="#030047"/>
<path d="M175.5 55.4C178.3 59.2 178.2 64.5 176.2 69.2C182.7 71.6 192.5 73.9 198.8 76.8C203.7 66.5 203.8 51.4 196.1 43.3C181.1 27.8 157.3 24 128.5 25.2L142.1 48.7C142 48.7 170.3 48.2 175.5 55.4Z" fill="#030047"/>
<path d="M168 82.8C165.4 84.6 163.3 86.9001 161.9 89.7001C161.6 90.3001 162.5 90.8001 162.8 90.2001C164.2 87.5001 166.1 85.3001 168.6 83.7001C169 83.3001 168.5 82.4 168 82.8Z" fill="#030047"/>
<path d="M173.6 84.5001C171.5 86.0001 169.9 87.9001 168.7 90.2001C168.4 90.8001 169.3 91.3001 169.6 90.7001C170.7 88.6001 172.2 86.8001 174.1 85.4001C174.6 85.0001 174.1 84.1001 173.6 84.5001Z" fill="#030047"/>
<path d="M156 50.2001C155.9 50.2001 155.9 50.2001 155.8 50.2001L151.7 48.9001C151.3 48.8001 151.1 48.4001 151.2 48.0001C151.3 47.6001 151.7 47.4001 152.1 47.5001L156.2 48.8001C156.6 48.9001 156.8 49.3001 156.7 49.7001C156.6 50.0001 156.3 50.2001 156 50.2001Z" fill="#030047"/>
<path d="M17 176.5C16.8 176.5 16.6 176.4 16.5 176.3L0.6 160.4C0.3 160.1 0.3 159.6 0.6 159.3C0.9 159 1.40004 159 1.70004 159.3L17.6 175.2C17.9 175.5 17.9 176 17.6 176.3C17.4 176.4 17.2 176.5 17 176.5Z" fill="#030047"/>
<path d="M1.1 176.5C0.9 176.5 0.7 176.4 0.6 176.3C0.3 176 0.3 175.5 0.6 175.2L16.5 159.3C16.8 159 17.3 159 17.6 159.3C17.9 159.6 17.9 160.1 17.6 160.4L1.70004 176.3C1.50004 176.4 1.3 176.5 1.1 176.5Z" fill="#030047"/>
<path d="M16.9998 190.1H1.09979C0.699792 190.1 0.299805 189.8 0.299805 189.3C0.299805 188.8 0.599792 188.5 1.09979 188.5H16.9998C17.3998 188.5 17.7998 188.8 17.7998 189.3C17.7998 189.8 17.3998 190.1 16.9998 190.1Z" fill="#030047"/>
<path d="M132.1 11.9001C131.8 11.2001 131.4 10.5001 130.9 9.80007C130.9 9.80007 130.9 9.8001 130.9 9.7001C126.3 3.1001 117.9 1.1001 112 5.2001C109.2 7.2001 107.6 10.3001 107.2 13.7001C106.7 17.4001 108.1 21.2001 109.6 24.5001C113 32.1001 120.7 35.5001 128.5 29.0001C130.2 27.6001 131.5 25.8001 132.4 23.7001C135.4 23.1001 137.2 20.9001 137.5 18.2001C137.8 15.1001 135.5 11.6001 132.1 11.9001Z" fill="white"/>
<path d="M120.1 33.2001C119.3 33.2001 118.5 33.1001 117.7 32.9001C114 32.0001 110.7 29.1001 108.8 24.8001C107.4 21.7001 105.8 17.6001 106.4 13.6001C106.9 9.70007 108.7 6.50007 111.5 4.60007C114.3 2.70007 117.8 1.90007 121.3 2.60007C125.3 3.30007 129 5.80008 131.5 9.30008C131.9 9.90008 132.3 10.5001 132.6 11.2001C134 11.2001 135.3 11.8001 136.4 12.9001C137.8 14.3001 138.5 16.4001 138.2 18.4001C137.8 21.5001 135.8 23.8001 132.9 24.5001C132 26.5001 130.6 28.3001 128.9 29.7001C126 32.0001 123 33.2001 120.1 33.2001ZM118.8 3.80008C116.5 3.80008 114.2 4.50008 112.3 5.80008C109.8 7.50008 108.3 10.3001 107.8 13.8001C107.3 17.4001 108.7 21.1001 110.1 24.2001C111.8 28.0001 114.7 30.7001 118 31.5001C121.2 32.2001 124.6 31.2001 127.9 28.5001C129.5 27.2001 130.8 25.5001 131.6 23.5001L131.8 23.1001L132.2 23.0001C134.7 22.5001 136.4 20.7001 136.7 18.1001C136.9 16.6001 136.3 14.9001 135.3 13.8001C134.7 13.2001 133.7 12.5001 132.2 12.6001H131.7L131.5 12.1001C131.1 11.3001 130.8 10.7001 130.4 10.1001C128.1 6.80007 124.8 4.60011 121.1 3.90011C120.3 3.90011 119.5 3.80008 118.8 3.80008Z" fill="#030047"/>
<path d="M118.82 19.2226C119.118 18.7572 118.982 18.1389 118.516 17.8415C118.051 17.5441 117.433 17.6802 117.135 18.1456C116.838 18.6109 116.974 19.2293 117.439 19.5267C117.905 19.8241 118.523 19.6879 118.82 19.2226Z" fill="#030047"/>
<path d="M114.399 26.3C113.399 24.3 112.699 22.2 112.199 20C112.099 19.4 113.099 19.2 113.199 19.8C113.599 21.9 114.299 23.9001 115.299 25.9001C115.599 26.4001 114.699 26.9 114.399 26.3Z" fill="#030047"/>
<path d="M129.1 19.1C129.3 16.8 131.1 14.8001 133.5 14.5001C134.1 14.4001 134.4 15.4001 133.7 15.5001C131.8 15.7001 130.3 17.2 130.1 19.1C130 19.8 129 19.8 129.1 19.1Z" fill="#030047"/>
<path d="M128.1 14.6C127.4 17.1 124.2 13.7001 118.1 12.5001C115.4 12.0001 103.9 16 102.1 12.1C99.3996 6.40003 107 3.10007 111.9 5.20007C111.4 3.10007 113.8 2.88486e-05 117 1.60003C125.6 -2.69997 133.4 2.90005 132.4 12.5001C132.4 12.5001 128.9 13.8 128.1 14.6Z" fill="#030047"/>
</svg>
