<svg width="208" height="249" viewBox="0 0 208 249" fill="none" xmlns="http://www.w3.org/2000/svg">
<path d="M191.4 194.7L207.599 214.7L171.099 248.4C171.099 248.4 166.799 243.7 169.599 238.9C170.999 236.4 172.299 232 172.599 227.2C172.599 226.9 172.6 226.5 172.7 226.2C172.8 225 172.8 223.8 172.7 222.6C172.7 222.3 172.599 221.9 172.599 221.6C172.299 218.9 171.6 216.3 170.4 214.1L191.4 194.7Z" fill="#030047"/>
<path d="M182.1 221.3C179 221.7 175.8 222.2 172.7 222.7C172.7 222.4 172.6 222 172.6 221.7C175.7 221.3 178.8 220.8 181.9 220.4C182.5 220.2 182.7 221.2 182.1 221.3Z" fill="white"/>
<path d="M181.1 226.9C178.3 227 175.4 227.1 172.6 227.2C172.6 226.9 172.6 226.5 172.7 226.2C175.5 226.1 178.4 226 181.2 225.9C181.8 225.9 181.8 226.9 181.1 226.9Z" fill="white"/>
<path d="M121.4 219.7L119.7 245.4H70C70 245.4 70 239.1 75.3 237.4C78 236.6 82 234.1 85.5 230.9C85.7 230.7 86 230.5 86.2 230.2C87 229.4 87.9 228.5 88.6 227.6C88.8 227.3 89 227.1 89.2 226.8C90.8 224.6 92.1 222.2 92.6 219.8H121.4V219.7Z" fill="#030047"/>
<path d="M174.5 159.7C169.4 141.7 161.1 91.4 161.1 91.4L132.4 98C131.6 95.1 131 93.3 131 93.3L102 104.4C102 127.8 89 221 89 221L126.6 226.3C126.6 226.3 130.9 185.6 133.7 154.5C144.3 190.7 162.2 217.1 169.4 221.6L196.8 199.1C196.9 199 179.6 177.7 174.5 159.7Z" fill="white"/>
<path d="M127.3 227L88.0996 221.5L88.1996 220.8C88.2996 219.9 101.2 127.3 101.2 104.3V103.8L131.4 92.2L131.6 93C131.6 93 132.1 94.6 132.8 97.1L161.6 90.5L161.7 91.3C161.8 91.8 170.1 141.8 175.1 159.6C180.1 177.2 197.2 198.4 197.3 198.6L197.8 199.2L169.4 222.5L168.9 222.2C162 218 144.9 193.3 134 158.4C131.2 188.6 127.3 226 127.2 226.4L127.3 227ZM89.8997 220.3L126 225.3C126.6 219.5 130.4 182.7 133 154.3L133.4 150.4L134.5 154.2C145 189.9 162.2 215.5 169.4 220.5L195.8 198.8C193 195.2 178.3 176.1 173.7 159.8C169 143.2 161.5 98.6 160.4 92.2L131.8 98.7L131.6 98C131.1 96.2 130.7 94.9 130.5 94.1L102.7 104.7C102.6 127.7 91.0997 211.5 89.8997 220.3Z" fill="#030047"/>
<path d="M153.3 98.9C153 98.9 152.7 98.7 152.6 98.4C152.2 97.5 151.8 96.6 151.4 95.7C151.2 95.3 151.4 94.9 151.8 94.7C152.2 94.5 152.6 94.7 152.8 95.1C153.2 96 153.6 96.9 154 97.9C154.2 98.3 154 98.7 153.6 98.9C153.5 98.9 153.4 98.9 153.3 98.9Z" fill="#030047"/>
<path d="M181.7 195.8C181.4 195.8 181.2 195.7 181 195.4C180 193.7 179 191.8 178 189.8C177.8 189.4 178 189 178.3 188.8C178.7 188.6 179.1 188.8 179.3 189.1C180.3 191.1 181.3 192.9 182.3 194.6C182.5 195 182.4 195.4 182 195.6C182 195.8 181.8 195.8 181.7 195.8ZM175.9 184.5C175.6 184.5 175.3 184.3 175.2 184.1C174.3 182.2 173.5 180.3 172.6 178.3C172.4 177.9 172.6 177.5 173 177.3C173.4 177.1 173.8 177.3 174 177.7C174.8 179.7 175.7 181.6 176.5 183.5C176.7 183.9 176.5 184.3 176.1 184.5C176.2 184.5 176.1 184.5 175.9 184.5ZM171.1 172.8C170.8 172.8 170.5 172.6 170.4 172.3C169.7 170.4 169.1 168.4 168.4 166.2C168.3 165.8 168.5 165.4 168.9 165.3C169.3 165.2 169.7 165.4 169.8 165.8C170.4 167.9 171.1 170 171.7 171.8C171.8 172.2 171.6 172.6 171.3 172.8C171.2 172.8 171.2 172.8 171.1 172.8ZM167.5 160.6C167.2 160.6 166.9 160.4 166.8 160C166.3 158.1 165.9 156 165.4 153.8C165.3 153.4 165.6 153 166 152.9C166.4 152.8 166.8 153.1 166.9 153.5C167.4 155.7 167.8 157.8 168.3 159.7C168.4 160.1 168.1 160.5 167.7 160.6C167.7 160.6 167.6 160.6 167.5 160.6ZM165 148.2C164.6 148.2 164.3 147.9 164.3 147.6C163.9 145.5 163.5 143.5 163.2 141.4C163.1 141 163.4 140.6 163.8 140.5C164.2 140.4 164.6 140.7 164.7 141.1C165.1 143.2 165.4 145.3 165.8 147.3C165.9 147.7 165.6 148.1 165.2 148.2C165.1 148.2 165 148.2 165 148.2ZM162.7 135.7C162.3 135.7 162 135.4 162 135.1C161.6 133 161.2 130.9 160.9 128.9C160.8 128.5 161.1 128.1 161.5 128C161.9 127.9 162.3 128.2 162.4 128.6C162.8 130.7 163.2 132.8 163.5 134.9C163.6 135.3 163.3 135.7 162.9 135.8C162.8 135.7 162.8 135.7 162.7 135.7ZM160.3 123.2C160 123.2 159.6 123 159.6 122.6C159.1 120.4 158.7 118.4 158.2 116.4C158.1 116 158.4 115.6 158.8 115.5C159.2 115.4 159.6 115.7 159.7 116.1C160.2 118.1 160.6 120.1 161.1 122.3C161.2 122.7 160.9 123.1 160.5 123.2C160.4 123.2 160.4 123.2 160.3 123.2ZM157.4 110.9C157.1 110.9 156.8 110.7 156.7 110.4C156.1 108.3 155.5 106.3 154.8 104.4C154.7 104 154.9 103.6 155.3 103.4C155.7 103.3 156.1 103.5 156.3 103.9C156.9 105.8 157.6 107.9 158.2 110C158.3 110.4 158.1 110.8 157.7 110.9C157.5 110.9 157.5 110.9 157.4 110.9Z" fill="#030047"/>
<path d="M186.9 203.6C186.7 203.6 186.5 203.5 186.3 203.4C186.3 203.4 185.6 202.6 184.4 200.9C184.2 200.6 184.2 200.1 184.6 199.9C184.9 199.7 185.4 199.7 185.6 200.1C186.7 201.7 187.3 202.4 187.4 202.4C187.7 202.7 187.6 203.2 187.3 203.5C187.3 203.5 187.1 203.6 186.9 203.6Z" fill="#030047"/>
<path d="M96.5002 232.9C93.9002 231.1 91.3002 229.3 88.7002 227.5C88.9002 227.2 89.1002 227 89.3002 226.7C91.9002 228.5 94.5002 230.3 97.0002 232C97.6002 232.4 97.1002 233.3 96.5002 232.9Z" fill="white"/>
<path d="M92.0996 236.4C89.9996 234.5 87.7996 232.7 85.5996 230.8C85.7996 230.6 86.0996 230.4 86.2996 230.1C88.3996 232 90.5996 233.8 92.7996 235.6C93.2996 236.1 92.5996 236.8 92.0996 236.4Z" fill="white"/>
<path d="M133 147.7C132.7 147.7 132.4 147.5 132.3 147.2C130.2 142.1 127.8 120.5 127.3 116.6C126.3 116.5 123.8 116.1 119.3 115.2C118.9 115.1 118.6 114.7 118.7 114.3C118.8 113.9 119.2 113.6 119.6 113.7C125.7 114.9 128 115.2 128 115.2L128.6 115.3L128.7 115.9C128.7 116.2 131.5 141.4 133.6 146.7C133.8 147.1 133.6 147.5 133.2 147.7C133.2 147.7 133.1 147.7 133 147.7Z" fill="#030047"/>
<path d="M102.8 35C77.4999 45.9 53.9999 59.6 41.9999 79.6C40.0999 82.7 38.6 86 37.4 89.2C27.2 97.6 31 112.8 34.2 113.7C34.4 113.8 34.5999 113.8 34.7999 113.7C36.1999 119 39.4999 121.6 44.2999 119.2C44.2999 119.2 48.8 119.8 51.2 115.3C51.2 115.3 55.4 117.2 56.9 113.7C57.6 112.1 55.3 107.2 56.9 100.8C58.9 93 65.8999 83.1 79.0999 74.8C103 59.8 110 58.7 110 58.7L102.8 35Z" fill="white"/>
<path d="M40.9001 120.8C40.1001 120.8 39.3001 120.6 38.6001 120.3C36.7001 119.4 35.2001 117.4 34.2001 114.4C34.1001 114.4 34.0001 114.4 34.0001 114.3C32.3001 113.8 31.1001 111 30.5001 108.5C29.2001 102.6 30.1001 94.2 36.7001 88.7C37.9001 85.3 39.5001 82.1 41.3001 79.1C51.6001 62 71.0001 47.7 102.5 34.2L103.3 33.9L110.9 59.3L110.1 59.4C110 59.4 102.9 60.8 79.5001 75.4C68.1001 82.5 59.9001 92.1 57.7001 100.9C56.7001 104.7 57.2001 108 57.6001 110.4C57.8001 112 58.0001 113.1 57.7001 113.9C57.2001 115 56.5001 115.8 55.4001 116.2C54.0001 116.7 52.5001 116.4 51.6001 116.1C49.3001 119.8 45.5001 119.9 44.5001 119.8C43.2001 120.6 42.0001 120.8 40.9001 120.8ZM35.4001 112.9L35.6001 113.5C36.4001 116.3 37.6001 118.2 39.3001 119C40.6001 119.6 42.2001 119.5 44.0001 118.6L44.2001 118.5H44.4001C44.6001 118.5 48.5001 118.9 50.5001 115L50.8001 114.4L51.4001 114.7C51.4001 114.7 53.2001 115.5 54.7001 115C55.3001 114.8 55.8001 114.3 56.1001 113.5C56.3001 113.1 56.1001 112 55.9001 110.9C55.5001 108.5 55.0001 104.9 56.0001 100.8C58.4001 91.5 66.6001 81.8 78.5001 74.4C98.1001 62.1 106.4 59.1 108.8 58.4L102.1 36.2C71.4001 49.5 52.4001 63.5 42.4001 80.2C40.6001 83.2 39.1001 86.4 37.9001 89.7L37.8001 89.9L37.6001 90C31.4001 95.1 30.6001 103.2 31.7001 108.5C32.4001 111.6 33.5001 113 34.1001 113.2C34.2001 113.2 34.3001 113.2 34.4001 113.2L35.4001 112.9Z" fill="#030047"/>
<path d="M88.1996 69.3C104.8 59.6 109.9 58.7 109.9 58.7L102.8 34.9C94.1996 38.6 85.8996 42.6 78.0996 47.1C81.2996 54.6 84.6996 62 88.1996 69.3Z" fill="#5F5FFF"/>
<path d="M87.8997 70.4L87.4996 69.7C83.8996 62.1 80.4997 54.6 77.3997 47.5L77.0996 46.9L77.6996 46.6C84.8996 42.5 92.9996 38.5 102.5 34.4L103.3 34.1L110.9 59.5L110.1 59.6C110.1 59.6 104.8 60.6 88.6996 70.1L87.8997 70.4ZM78.9996 47.5C81.9996 54.2 85.0996 61.1 88.4996 68.3C101.1 61 106.9 58.8 108.9 58.3L102.2 36.1C93.4996 39.8 85.7996 43.6 78.9996 47.5Z" fill="#5F5FFF"/>
<path d="M45.6998 97.9C44.0998 101 40.7998 102.3 37.6998 103.3C37.4998 103.4 37.2998 103.6 37.3998 103.9C38.3998 106.7 37.9998 109.6 36.1998 112C35.7998 112.5 36.6998 113 37.0998 112.5C38.8998 110 39.3998 107 38.4998 104.1C41.6998 103 44.9998 101.6 46.6998 98.4C46.8998 97.9 45.9998 97.4 45.6998 97.9Z" fill="#030047"/>
<path d="M44.2005 117C42.3005 113.8 41.7005 110.3 42.7005 106.7C42.9005 106.1 41.9005 105.8 41.7005 106.4C40.7005 110.2 41.2004 114.1 43.3004 117.5C43.7004 118 44.5005 117.5 44.2005 117Z" fill="#030047"/>
<path d="M50.3002 114.4C49.2002 111.6 48.9002 108.6 49.6002 105.7C49.7002 105.1 48.8002 104.8 48.6002 105.4C47.9002 108.5 48.2002 111.7 49.3002 114.7C49.6002 115.2 50.6002 115 50.3002 114.4Z" fill="#030047"/>
<path d="M111.301 30.5C101.201 33.9 93.8005 39.3 96.0005 68.3C98.2005 97.3 97.8005 106.2 97.8005 106.2L162.801 97C162.801 97 143.801 19.5 111.301 30.5Z" fill="#5F5FFF"/>
<path d="M97.0009 107.1V106.2C97.0009 106.1 97.3009 97 95.2009 68.4C93.0009 38.4 101.001 33.2 111.001 29.8C116.601 27.9 122.201 28.5 127.601 31.4C150.301 43.9 163.001 94.6 163.501 96.8L163.701 97.6L97.0009 107.1ZM117.601 30.2C115.601 30.2 113.601 30.5 111.601 31.2C101.901 34.5 94.6009 39.3 96.8009 68.3C98.6009 92.1 98.7008 102.5 98.6008 105.4L161.901 96.4C160.201 89.8 147.601 44.1 127.001 32.8C123.901 31 120.701 30.2 117.601 30.2Z" fill="#5F5FFF"/>
<path d="M96.301 73.6C95.901 73.6 95.601 73.3 95.601 72.9L95.001 55.8C95.001 55.4 95.301 55 95.701 55C96.101 55 96.501 55.3 96.501 55.7L97.101 72.8C97.101 73.2 96.701 73.6 96.301 73.6Z" fill="#030047"/>
<path d="M79.7008 119.7C78.4008 119.7 77.6008 119 77.3008 118.1L77.2008 118.2C76.5008 119.2 75.6008 121.9 76.4008 122.5C77.2008 123.1 79.6008 121.5 80.3008 120.5L81.2008 119.3C80.8008 119.6 80.3008 119.7 79.7008 119.7Z" fill="#5F5FFF"/>
<path d="M126.001 31.4C126.001 31.4 115.201 48.2 125.201 52.2C135.201 56.2 137.201 81.2 128.901 88C120.801 94.7 108.101 98.9 99.0014 102.2C89.2014 99.6 84.7014 99.9 81.2014 105.5C80.6014 106.4 80.4014 107.4 80.2014 108.2C79.8014 109.9 81.5014 111.4 83.2014 110.7L83.6014 110.5C77.6014 115 76.9014 116.9 78.1014 118.6C80.5014 121.9 86.9014 116 86.9014 116C86.6014 119.5 90.4014 120.1 90.4014 120.1C91.0014 122.9 93.6014 123.9 99.4014 123.9C103.501 123.9 103.601 123 103.601 120.7C109.401 121.2 112.501 121.2 117.301 120.1C129.901 117.3 142.801 113.1 154.801 98.1C175.701 72.1 139.501 34.8 126.001 31.4Z" fill="white"/>
<path d="M99.3011 124.6C94.1011 124.6 90.7011 123.9 89.7011 120.7C88.4011 120.3 86.7011 119.4 86.2011 117.4C84.7011 118.6 82.0011 120.4 79.8011 120.2C78.8011 120.1 78.1011 119.7 77.5011 118.9C75.8011 116.6 77.5011 114.3 81.2011 111.2C80.9011 111.1 80.7011 110.9 80.4011 110.7C79.5011 110 79.2011 108.9 79.5011 107.8C79.7011 106.9 80.0011 105.9 80.6011 104.9C84.4011 98.7 89.6011 98.8 99.0011 101.2L101.001 100.5C109.901 97.3 121.001 93.4 128.401 87.3C132.401 84 134.201 75.5 132.801 66.6C131.701 59.4 128.701 54.2 124.901 52.7C122.701 51.8 121.301 50.3 120.601 48.3C118.501 41.7 125.101 31.3 125.401 30.9L125.701 30.4L126.201 30.5C135.501 32.9 153.701 49.7 159.801 68C163.601 79.5 162.101 90.1 155.301 98.5C142.901 113.9 129.701 117.9 117.401 120.7C112.701 121.8 109.501 121.8 104.301 121.4C104.101 123.6 103.301 124.6 99.3011 124.6ZM87.7011 114.1L87.6011 116C87.4011 118.8 90.3011 119.3 90.4011 119.4L90.9011 119.5L91.0011 120C91.4011 122 92.9011 123.2 99.3011 123.2C102.701 123.2 102.701 122.8 102.701 120.8V120L103.501 120.1C109.101 120.6 112.101 120.6 116.901 119.5C129.001 116.8 141.901 112.8 154.001 97.8C160.501 89.7 162.001 79.9 158.201 68.7C152.501 51.5 135.101 35.1 126.201 32.4C125.001 34.5 120.201 42.9 121.901 48.1C122.401 49.8 123.501 50.9 125.301 51.6C129.601 53.3 132.901 58.9 134.201 66.6C135.401 74.2 134.401 84.4 129.301 88.7C121.701 95 110.501 99 101.401 102.2L98.9011 103.1L98.7011 103C88.6011 100.3 84.8011 101 81.7011 105.9C81.2011 106.7 81.0011 107.6 80.8011 108.4C80.7011 109 80.8011 109.5 81.2011 109.8C81.6011 110.2 82.2011 110.2 82.7011 110L89.7011 106.7L84.0011 111C77.7011 115.7 77.9011 117.1 78.7011 118.1C79.0011 118.5 79.4011 118.7 79.9011 118.8C82.0011 119 85.2011 116.4 86.3011 115.4L87.7011 114.1Z" fill="#030047"/>
<path d="M90.9008 106.2L96.8008 98.2C98.3008 96.2 95.2008 93.9 93.7008 95.9L82.8008 110C85.6008 108.9 89.9008 106.8 90.9008 106.2Z" fill="#5F5FFF"/>
<path d="M125.101 52.1C129.801 53.9 132.701 60.4 133.601 67.4C140.701 64.7 147.801 61.9 154.901 59.1C146.901 44.8 133.201 33.2 125.901 31.3C126.001 31.4 115.201 48.2 125.101 52.1Z" fill="#5F5FFF"/>
<path d="M133.001 68.5L132.901 67.6C131.901 60.1 128.801 54.5 124.901 52.9C122.701 52 121.301 50.5 120.601 48.5C118.501 41.9 125.101 31.5 125.401 31.1L125.701 30.6L126.201 30.7C133.801 32.6 147.801 44.7 155.601 58.8L156.001 59.5L150.901 61.5C145.301 63.7 139.601 66 133.901 68.1L133.001 68.5ZM125.401 51.4C129.801 53.1 133.001 58.7 134.201 66.4C139.601 64.4 145.001 62.2 150.301 60.1L153.801 58.7C146.201 45.5 133.501 34.4 126.201 32.2C125.001 34.3 120.201 42.7 121.901 47.9C122.501 49.6 123.701 50.7 125.401 51.4Z" fill="#5F5FFF"/>
<path d="M103.001 115.7C99.4007 114.9 95.9007 115.9 93.1007 118.3C92.6007 118.7 93.3007 119.4 93.8007 119C96.2007 116.8 99.5008 115.9 102.701 116.6C103.401 116.8 103.601 115.8 103.001 115.7Z" fill="#030047"/>
<path d="M99.5006 109.5C95.3006 109 91.3006 110.5 88.4006 113.5C87.9006 114 88.7006 114.7 89.1006 114.2C91.9006 111.4 95.6006 110.1 99.5006 110.5C100.201 110.6 100.201 109.6 99.5006 109.5Z" fill="#030047"/>
<path d="M132.701 65C132.401 65 132.101 64.8 132.001 64.4C132.001 64.4 130.701 59.4 127.001 54.1C126.801 53.8 126.901 53.3 127.201 53.1C127.501 52.9 128.001 53 128.201 53.3C132.101 58.9 133.401 63.9 133.401 64.1C133.501 64.5 133.301 64.9 132.901 65C132.801 65 132.801 65 132.701 65Z" fill="white"/>
<path d="M101.8 120.2H99.1004C98.5004 120.2 98.5004 121.2 99.1004 121.2H101.8C102.4 121.2 102.4 120.2 101.8 120.2Z" fill="#030047"/>
<path d="M57.5004 157.9C52.4004 157.9 48.2004 156.1 44.9004 152.6C37.0004 144.2 37.1004 128.5 37.3004 124.8H1.70038C1.30038 124.8 0.900391 124.5 0.900391 124C0.900391 123.5 1.20038 123.2 1.70038 123.2H38.9004L38.8004 124C38.8004 124.2 37.7004 142.6 46.0004 151.5C49.0004 154.7 52.9004 156.3 57.5004 156.3C62.0004 156.3 65.7004 154.7 68.5004 151.6C76.8004 142.4 74.7004 122.6 74.7004 122.4C74.7004 122 75.0004 121.6 75.4004 121.6C75.8004 121.6 76.2004 121.9 76.2004 122.3C76.3004 123.1 78.4004 142.9 69.7004 152.6C66.5004 156.2 62.4004 157.9 57.5004 157.9Z" fill="#030047"/>
<path d="M25.0004 144.6H1.70038C1.30038 144.6 0.900391 144.3 0.900391 143.8C0.900391 143.3 1.20038 143 1.70038 143H25.0004C25.4004 143 25.8004 143.3 25.8004 143.8C25.8004 144.3 25.4004 144.6 25.0004 144.6Z" fill="#5F5FFF"/>
<path d="M25.0004 138.2H1.70038C1.30038 138.2 0.900391 137.9 0.900391 137.4C0.900391 136.9 1.20038 136.6 1.70038 136.6H25.0004C25.4004 136.6 25.8004 136.9 25.8004 137.4C25.8004 137.9 25.4004 138.2 25.0004 138.2Z" fill="#5F5FFF"/>
<path d="M25.0004 151H1.70038C1.30038 151 0.900391 150.7 0.900391 150.2C0.900391 149.7 1.20038 149.4 1.70038 149.4H25.0004C25.4004 149.4 25.8004 149.7 25.8004 150.2C25.8004 150.7 25.4004 151 25.0004 151Z" fill="#5F5FFF"/>
<path d="M4.79999 115.7C6.89867 115.7 8.59998 113.999 8.59998 111.9C8.59998 109.801 6.89867 108.1 4.79999 108.1C2.70131 108.1 1 109.801 1 111.9C1 113.999 2.70131 115.7 4.79999 115.7Z" fill="#5F5FFF"/>
<path d="M16.1008 115.7C18.1995 115.7 19.9008 113.999 19.9008 111.9C19.9008 109.801 18.1995 108.1 16.1008 108.1C14.0021 108.1 12.3008 109.801 12.3008 111.9C12.3008 113.999 14.0021 115.7 16.1008 115.7Z" fill="#5F5FFF"/>
<path d="M63.9008 139.8C63.9008 145.5 59.3008 150.1 53.6008 150.1C47.9008 150.1 43.3008 145.5 43.3008 139.8C43.3008 134.1 47.9008 129.5 53.6008 129.5C59.3008 129.5 63.9008 132.1 63.9008 139.8Z" fill="#5F5FFF"/>
<path d="M69.8 146.2C69.8 149.5 67.2 152.1 63.9 152.1C60.6 152.1 58 149.5 58 146.2C58 142.9 60.6 140.3 63.9 140.3C67.2 140.3 69.8 141.8 69.8 146.2Z" fill="#030047"/>
<path d="M59.4333 113.056L52.0723 108.806L47.8223 116.167L55.1833 120.417L59.4333 113.056Z" fill="#030047"/>
<path d="M58.001 122.7L73.401 117.7L71.201 134.7L58.001 122.7Z" fill="white"/>
<path d="M71.7006 136.2L56.6006 122.4L74.3006 116.6L71.7006 136.2ZM59.5006 123L70.6006 133.1L72.5006 118.7L59.5006 123Z" fill="#030047"/>
<path d="M47.2004 126.9C47.1004 126.9 46.9004 126.9 46.8004 126.8L42.8004 124.5C42.4004 124.3 42.3004 123.8 42.5004 123.5C42.7004 123.1 43.2004 123 43.5004 123.2L47.5004 125.5C47.9004 125.7 48.0004 126.2 47.8004 126.5C47.8004 126.8 47.5004 126.9 47.2004 126.9Z" fill="#030047"/>
<path d="M65.7002 109.6C65.6002 109.6 65.4002 109.6 65.3002 109.5C65.0002 109.3 64.9001 108.8 65.1001 108.5L70.3002 100.4C70.5002 100.1 71.0002 100 71.3002 100.2C71.6002 100.4 71.7002 100.9 71.5002 101.2L66.3002 109.3C66.2002 109.5 66.0002 109.6 65.7002 109.6Z" fill="#030047"/>
<path d="M63.9006 100.3C63.5006 100.3 63.1006 100 63.1006 99.5V95.1C63.1006 94.7 63.4006 94.3 63.9006 94.3C64.4006 94.3 64.7006 94.6 64.7006 95.1V99.5C64.7006 100 64.4006 100.3 63.9006 100.3Z" fill="#030047"/>
<path d="M25.0001 100.3C24.8001 100.3 24.6001 100.2 24.4001 100L18.1001 92.9C17.8001 92.6 17.9001 92.1 18.2001 91.8C18.5001 91.5 19.0001 91.6 19.3001 91.9L25.6001 99C25.9001 99.3 25.8001 99.7999 25.5001 100.1C25.3001 100.3 25.2001 100.3 25.0001 100.3Z" fill="#030047"/>
<path d="M29.8007 83.1C29.6007 83.1 29.3007 83 29.2007 82.8C29.0007 82.5 29.1007 82 29.4007 81.8L34.7007 78.3C35.0007 78.1 35.5007 78.2 35.7007 78.5C35.9007 78.8 35.8007 79.3 35.5007 79.5L30.2007 83C30.0007 83.1 29.9007 83.1 29.8007 83.1Z" fill="#030047"/>
<path d="M88.0007 90.1C87.7007 90.1 87.4007 89.9 87.3007 89.7L84.9007 84.7C84.7007 84.3 84.9007 83.9 85.3007 83.7C85.7007 83.5 86.1007 83.7 86.3007 84.1L88.7007 89.1C88.9007 89.5 88.7007 89.9 88.3007 90.1C88.2007 90.1 88.1007 90.1 88.0007 90.1Z" fill="#030047"/>
<path d="M115.4 14.4C115.3 10.9 111.8 8.80003 107.9 10.7C107.3 11 106.8 11.4 106.2 11.9C106.2 11.9 106.2 11.9 106.1 11.8C100.6 6 91.9002 5.19999 86.7002 10.1C81.5002 15 82.7001 22.9 87.1001 29.6C91.2001 35.6 99.7002 38.8 106.5 31.3C108.7 28.8 110 25.5 110.1 22.1C113.7 21 115.5 17.4 115.4 14.4Z" fill="white"/>
<path d="M97.7005 36.4C97.4005 36.4 97.2005 36.4 96.9005 36.4C92.9005 36.1 89.1005 33.7 86.6005 30C81.4005 22.3 81.3005 14.3 86.3005 9.59995C89.0005 7.09995 92.6005 5.89999 96.5005 6.19999C100.201 6.49999 103.6 8.2 106.3 10.9C106.7 10.6 107.2 10.3 107.6 10.1C109.7 8.99995 111.9 8.99998 113.6 9.99998C115.1 10.9 116.1 12.5 116.1 14.4C116.2 17.4 114.6 21.2 110.8 22.7C110.6 26.1 109.3 29.3 107.1 31.8C103.8 35.5 100.301 36.4 97.7005 36.4ZM95.2005 7.59995C92.2005 7.59995 89.4005 8.69995 87.3005 10.6C81.9005 15.7 84.2005 23.7 87.8005 29.1C90.1005 32.5 93.5005 34.6 97.0005 34.8C100.301 35 103.401 33.6 106.001 30.7C108.101 28.4 109.301 25.3 109.401 22V21.5L109.901 21.3C113.201 20.2 114.7 16.9 114.6 14.3C114.6 13 113.9 11.8 112.8 11.2C111.5 10.4 109.801 10.5 108.201 11.3C107.701 11.6 107.2 11.9 106.6 12.4L106.001 12.9L105.501 12.4C102.901 9.7 99.6005 7.99999 96.1005 7.69999C95.9005 7.59999 95.6005 7.59995 95.2005 7.59995Z" fill="#030047"/>
<path d="M95.7331 22.9287C95.9588 22.4247 95.7332 21.8331 95.2291 21.6073C94.7251 21.3816 94.1334 21.6073 93.9077 22.1113C93.682 22.6154 93.9077 23.207 94.4117 23.4327C94.9158 23.6585 95.5074 23.4328 95.7331 22.9287Z" fill="#030047"/>
<path d="M92.4003 30.6C91.1003 28.8 90.1003 26.8 89.3003 24.7C89.1003 24.1 90.0003 23.7 90.2003 24.3C90.9003 26.3 91.9003 28.2 93.1003 30C93.6003 30.6 92.8003 31.2 92.4003 30.6Z" fill="#030047"/>
<path d="M85.4005 18.5C88.4005 17.4 97.6005 9.40003 101.1 15.2C102 16.7 102 17.9 103.7 17.5C105.3 16.8 105 14.8 105 14.8C106.2 13.1 106.601 11.4 107.901 10.7C111.501 4.90003 102.6 -2.29998 97.6005 2.00002C97.6005 2.00002 86.5005 -0.699972 83.3005 6.20003C77.6005 8.50003 75.5005 12.9 76.7005 17C78.9005 24 85.4005 18.5 85.4005 18.5Z" fill="#030047"/>
<path d="M107.2 17.9C107.1 15.5 108.6 13.4 110.9 12.7C111.5 12.5 111.9 13.5 111.3 13.6C109.5 14.1 108.2 15.8 108.3 17.7C108.2 18.4 107.2 18.5 107.2 17.9Z" fill="#030047"/>
</svg>
