<?xml version="1.0" encoding="iso-8859-1"?>
<!-- Generator: Adobe Illustrator 19.0.0, SVG Export Plug-In . SVG Version: 6.00 Build 0)  -->
<svg version="1.1" id="Capa_1" xmlns="http://www.w3.org/2000/svg" xmlns:xlink="http://www.w3.org/1999/xlink" x="0px" y="0px"
	 viewBox="0 0 512 512" style="enable-background:new 0 0 512 512;" xml:space="preserve">
<path style="fill:#FF434D;" d="M253.29,504.517L253.29,504.517c22.678,0,41.063-18.384,41.063-41.063V324.183h14.178
	c46.603,0,84.383-37.779,84.383-84.382l0,0H253.29H113.666l0,0c0,46.603,37.779,84.382,84.382,84.382h14.178v139.271
	C212.228,486.132,230.612,504.517,253.29,504.517L253.29,504.517z"/>
<path style="fill:#DD3646;" d="M367.973,239.8L367.973,239.8c0,46.603-37.78,84.382-84.383,84.382l0,0
	c-7.831,0-14.178,6.348-14.178,14.178v125.093c0,18.329-12.012,33.849-28.592,39.129c3.934,1.253,8.122,1.934,12.471,1.934l0,0
	c22.678,0,41.063-18.384,41.063-41.063v-139.27h14.178c46.603,0,84.383-37.779,84.383-84.382l0,0L367.973,239.8L367.973,239.8z"/>
<polygon style="fill:#546F7A;" points="164.37,188.601 100.789,188.601 100.789,239.8 405.793,239.8 405.793,188.601 194.3,188.601 
	"/>
<rect x="380.852" y="188.6" style="fill:#475D63;" width="24.942" height="51.201"/>
<polyline style="fill:#FFD039;" points="164.37,188.601 113.667,188.601 113.667,7.483 392.915,7.483 392.915,188.601 
	194.3,188.601 "/>
<rect x="367.972" y="7.483" style="fill:#FFAE47;" width="24.942" height="181.118"/>
<path style="fill:#FF434D;" d="M164.37,7.483v120.434c0,13.15,10.66,23.81,23.81,23.81l0,0c13.15,0,23.81-10.66,23.81-23.81V92.393
	c0-12.336,10.001-22.336,22.336-22.336l0,0c12.336,0,22.336,10.001,22.336,22.336v17.134c0,13.581,11.009,24.591,24.591,24.591l0,0
	c13.581,0,24.591-11.009,24.591-24.591V7.483H164.37z"/>
<g>
	<path style="fill:#DD3646;" d="M209.384,70.057c-12.336,0-22.336,10.001-22.336,22.336v35.523c0,8.577-4.536,16.091-11.34,20.284
		c3.628,2.235,7.898,3.527,12.471,3.527l0,0c13.15,0,23.81-10.66,23.81-23.81V92.393c0-7.717,3.914-14.52,9.865-18.533
		C218.294,71.458,214.003,70.057,209.384,70.057z"/>
	<path style="fill:#DD3646;" d="M280.903,7.483v102.044c0,9.029-4.869,16.916-12.12,21.193c3.657,2.157,7.918,3.399,12.471,3.399
		l0,0c13.581,0,24.591-11.01,24.591-24.592V7.483H280.903z"/>
</g>
<g>
	<path style="fill:#FFD039;" d="M7.97,159.605l18.209,8.161c7.541,3.38,13.575,9.414,16.955,16.955l8.161,18.209l8.161-18.209
		c3.38-7.541,9.414-13.575,16.955-16.955l18.209-8.161l-18.209-8.161c-7.541-3.38-13.575-9.414-16.955-16.955l-8.161-18.209
		l-8.161,18.209c-3.379,7.541-9.414,13.575-16.955,16.955L7.97,159.605z"/>
	<path style="fill:#FFD039;" d="M417.38,103.547l18.209,8.161c7.541,3.38,13.575,9.414,16.955,16.955l8.161,18.209l8.161-18.209
		c3.38-7.541,9.414-13.575,16.955-16.955l18.209-8.161l-18.209-8.161c-7.541-3.38-13.575-9.414-16.955-16.955l-8.161-18.209
		l-8.161,18.209c-3.379,7.541-9.414,13.575-16.955,16.955L417.38,103.547z"/>
	<path style="fill:#FFD039;" d="M374.055,342.181l18.209,8.161c7.541,3.38,13.575,9.414,16.955,16.955l8.161,18.209l8.161-18.209
		c3.38-7.541,9.414-13.575,16.955-16.955l18.209-8.161l-18.209-8.161c-7.541-3.38-13.575-9.414-16.955-16.955l-8.161-18.209
		l-8.161,18.209c-3.38,7.54-9.414,13.575-16.955,16.955L374.055,342.181z"/>
</g>
<path style="fill:#FF434D;" d="M166.701,405.879c0,22.596-18.317,40.914-40.914,40.914s-40.914-18.317-40.914-40.914
	s40.914-69.762,40.914-69.762S166.701,383.284,166.701,405.879z"/>
<path style="fill:#DD3646;" d="M125.788,336.117c0,0-5.503,6.346-12.471,15.493c12.035,15.798,28.443,39.96,28.443,54.269
	c0,18.246-11.947,33.696-28.443,38.971c3.933,1.257,8.121,1.942,12.471,1.942c22.596,0,40.914-18.317,40.914-40.914
	S125.788,336.117,125.788,336.117z"/>
<path d="M400.091,247.282h5.702c4.132,0,7.483-3.35,7.483-7.483v-51.199c0-4.132-3.35-7.483-7.483-7.483h-5.395V7.483
	c0-4.132-3.35-7.483-7.483-7.483h-29.074c-4.132,0-7.483,3.35-7.483,7.483s3.35,7.483,7.483,7.483h21.592V181.12H194.3h-0.001
	c-4.132,0-7.483,3.35-7.483,7.483c0,4.132,3.35,7.483,7.483,7.483h0.001h204.009l0,0v36.234l0,0h-46.52l0,0
	c-4.132,0-7.483,3.35-7.483,7.483c0,4.132,3.35,7.483,7.483,7.483l0,0h33.281c-3.773,38.906-36.66,69.417-76.54,69.417h-14.178
	c-4.132,0-7.483,3.35-7.483,7.483v139.271c0,18.517-15.064,33.581-33.581,33.581s-33.581-15.064-33.581-33.581V324.183
	c0-4.132-3.35-7.483-7.483-7.483h-14.178c-39.88,0-72.766-30.511-76.54-69.417h200.35l0,0c4.132,0,7.483-3.35,7.483-7.483
	c0-4.132-3.35-7.483-7.483-7.483l0,0H108.272l0,0v-36.233l0,0h56.098h0.001c4.132,0,7.483-3.35,7.483-7.483
	c0-4.132-3.35-7.483-7.483-7.483h-0.001h-43.22V14.965h35.738v112.952c0,17.255,14.038,31.292,31.293,31.292
	s31.293-14.037,31.293-31.292V92.393c0-8.191,6.663-14.853,14.853-14.853s14.853,6.663,14.853,14.853v17.134
	c0,17.686,14.388,32.073,32.073,32.073c17.686,0,32.073-14.388,32.073-32.073V14.965h20.584c4.132,0,7.483-3.35,7.483-7.483
	S338.043,0,333.91,0l0,0H113.667l0,0c-4.132,0-7.483,3.35-7.483,7.483V181.12h-5.395c-4.132,0-7.483,3.35-7.483,7.483v51.199
	c0,4.132,3.35,7.483,7.483,7.483h5.702c3.82,47.168,43.424,84.382,91.559,84.382h6.695v131.789
	c0,26.769,21.777,48.546,48.546,48.546s48.546-21.777,48.546-48.546V331.666h6.695C356.667,331.666,396.271,294.451,400.091,247.282
	z M298.362,14.965v94.561c0,9.434-7.675,17.108-17.108,17.108c-9.434,0-17.108-7.675-17.108-17.108V92.393
	c0-16.442-13.377-29.818-29.818-29.818s-29.818,13.377-29.818,29.818v35.524c0,9.003-7.325,16.327-16.328,16.327
	s-16.328-7.324-16.328-16.327V14.965H298.362z"/>
<path d="M97.68,166.433c2.691-1.206,4.423-3.88,4.423-6.828c0-2.949-1.732-5.622-4.423-6.828l-18.209-8.161
	c-5.872-2.632-10.556-7.315-13.187-13.187l-8.161-18.209c-1.206-2.691-3.88-4.423-6.828-4.423c-2.948,0-5.622,1.732-6.828,4.423
	l-8.161,18.209c-2.632,5.872-7.315,10.555-13.187,13.187l-18.209,8.161c-2.691,1.206-4.423,3.88-4.423,6.828
	c0,2.949,1.732,5.622,4.423,6.828l18.209,8.161c5.872,2.632,10.555,7.315,13.187,13.187l8.161,18.209
	c1.206,2.691,3.88,4.423,6.828,4.423c2.949,0,5.622-1.732,6.828-4.423l8.161-18.209c2.632-5.872,7.316-10.556,13.187-13.187
	L97.68,166.433z M73.351,160.937c-9.228,4.136-16.587,11.496-20.724,20.724l-1.332,2.973l-1.333-2.973
	c-4.135-9.228-11.494-16.588-20.723-20.725l-2.973-1.332l2.973-1.332c9.228-4.136,16.587-11.495,20.723-20.723l1.333-2.973
	l1.333,2.973c4.135,9.227,11.495,16.587,20.723,20.723l2.973,1.332L73.351,160.937z"/>
<path d="M507.09,96.718l-18.209-8.161c-5.872-2.632-10.556-7.316-13.187-13.187l-8.161-18.209c-1.206-2.691-3.88-4.423-6.828-4.423
	c-2.949,0-5.622,1.732-6.828,4.423l-8.161,18.209c-2.632,5.872-7.315,10.555-13.187,13.187l-18.209,8.161
	c-2.691,1.206-4.423,3.88-4.423,6.828c0,2.949,1.732,5.622,4.423,6.828l18.209,8.161c5.872,2.632,10.556,7.315,13.187,13.187
	l8.161,18.209c1.206,2.691,3.88,4.423,6.828,4.423c2.949,0,5.622-1.732,6.828-4.423l8.161-18.209
	c2.632-5.872,7.316-10.555,13.187-13.187l18.209-8.161c2.691-1.206,4.423-3.88,4.423-6.828
	C511.512,100.598,509.78,97.925,507.09,96.718z M482.76,104.879c-9.228,4.136-16.588,11.495-20.724,20.724l-1.332,2.973
	l-1.332-2.973c-4.136-9.228-11.495-16.588-20.724-20.724l-2.973-1.332l2.973-1.332c9.228-4.136,16.587-11.495,20.724-20.724
	l1.332-2.973l1.332,2.973c4.135,9.228,11.495,16.588,20.724,20.724l2.973,1.332L482.76,104.879z"/>
<path d="M463.765,335.353l-18.209-8.161c-5.872-2.632-10.556-7.315-13.187-13.187l-8.161-18.209
	c-1.206-2.691-3.88-4.423-6.828-4.423c-2.949,0-5.622,1.732-6.828,4.423l-8.16,18.209c-2.632,5.872-7.316,10.555-13.188,13.187
	l-18.209,8.161c-2.691,1.206-4.423,3.88-4.423,6.828c0,2.948,1.732,5.622,4.423,6.828l18.209,8.161
	c5.872,2.632,10.556,7.315,13.187,13.187l8.161,18.209c1.206,2.691,3.88,4.423,6.828,4.423c2.949,0,5.622-1.732,6.828-4.423
	l8.161-18.209c2.632-5.872,7.315-10.556,13.187-13.187l18.209-8.161c2.691-1.206,4.423-3.88,4.423-6.828
	C468.187,339.233,466.455,336.559,463.765,335.353z M439.435,343.513c-9.228,4.136-16.587,11.496-20.724,20.724l-1.332,2.973
	l-1.333-2.973c-4.136-9.227-11.495-16.587-20.724-20.724l-2.973-1.332l2.973-1.333c9.227-4.136,16.587-11.495,20.724-20.723
	l1.333-2.973l1.333,2.973c4.135,9.227,11.495,16.587,20.723,20.723l2.973,1.333L439.435,343.513z"/>
<path d="M125.788,328.635c-2.169,0-4.231,0.941-5.653,2.579c-4.375,5.044-42.743,49.988-42.743,74.665
	c0,26.686,21.71,48.396,48.396,48.396s48.396-21.71,48.396-48.396c0-24.676-38.369-69.622-42.744-74.665
	C130.019,329.576,127.957,328.635,125.788,328.635z M125.788,439.311c-18.434,0-33.431-14.997-33.431-33.431
	c0-12.711,18.659-39.911,33.431-58.11c14.772,18.2,33.431,45.398,33.431,58.11C159.219,424.314,144.222,439.311,125.788,439.311z"/>
<g>
</g>
<g>
</g>
<g>
</g>
<g>
</g>
<g>
</g>
<g>
</g>
<g>
</g>
<g>
</g>
<g>
</g>
<g>
</g>
<g>
</g>
<g>
</g>
<g>
</g>
<g>
</g>
<g>
</g>
</svg>
