<?xml version="1.0" encoding="iso-8859-1"?>
<!-- Generator: Adobe Illustrator 19.0.0, SVG Export Plug-In . SVG Version: 6.00 Build 0)  -->
<svg version="1.1" id="Capa_1" xmlns="http://www.w3.org/2000/svg" xmlns:xlink="http://www.w3.org/1999/xlink" x="0px" y="0px"
	 viewBox="0 0 512 512" style="enable-background:new 0 0 512 512;" xml:space="preserve">
<path style="fill:#E0E0E0;" d="M450.469,499.527H61.531c-29.849,0-54.046-24.198-54.046-54.047l0,0h497.031l0,0
	C504.515,475.329,480.318,499.527,450.469,499.527z"/>
<path style="fill:#C6C5CA;" d="M474.577,445.48L474.577,445.48c0,29.849-24.198,54.047-54.047,54.047h29.939
	c29.849,0,54.047-24.198,54.047-54.047l0,0H474.577z"/>
<path style="fill:#919191;" d="M457.957,138.332h-98.645c3.999,11.336,6.181,23.534,6.181,36.246
	c0,21.828-6.422,42.148-17.464,59.17c-0.013,0.02-0.025,0.039-0.038,0.058c-0.326,0.502-0.651,1.004-0.985,1.5
	c-38.736,59.064-51.994,96.23-51.994,96.23h-0.263v32.805v25.821c0,9.974-8.085,18.059-18.058,18.059h-38.732
	c-9.974,0-18.058-8.085-18.058-18.059v-25.821v-32.805h-0.263c0,0-13.258-37.166-51.994-96.23c-0.334-0.496-0.659-0.999-0.985-1.5
	c-0.013-0.02-0.025-0.039-0.038-0.058c-11.042-17.022-17.464-37.343-17.464-59.17c0-12.711,2.184-24.909,6.182-36.246H54.043
	c-16.535,0-29.939,13.404-29.939,29.939V445.48h463.791V168.271C487.895,151.737,474.491,138.332,457.957,138.332z"/>
<g>
	<path style="fill:#727272;" d="M141.67,233.748c0.013,0.02,0.025,0.039,0.038,0.058c0.326,0.502,0.651,1.004,0.985,1.5
		c38.736,59.064,51.994,96.23,51.994,96.23h0.263v32.805v25.821c0,9.974,8.084,18.059,18.058,18.059h24.949
		c-9.974,0-18.058-8.085-18.058-18.059v-25.821v-32.805h-0.263c0,0-13.258-37.166-51.994-96.23c-0.334-0.496-0.659-0.999-0.985-1.5
		c-0.013-0.02-0.025-0.039-0.038-0.058c-11.042-17.022-17.464-37.343-17.464-59.17c0-12.711,2.184-24.909,6.182-36.246h-24.949
		c-3.999,11.336-6.181,23.534-6.181,36.246C124.206,196.406,130.628,216.726,141.67,233.748z"/>
	<path style="fill:#727272;" d="M457.957,138.332h-24.949c16.535,0,29.939,13.404,29.939,29.939V445.48h24.949V168.271
		C487.895,151.737,474.491,138.332,457.957,138.332z"/>
</g>
<path style="fill:#FF434D;" d="M348.028,233.748L348.028,233.748c11.042-17.022,17.464-37.343,17.464-59.17
	c0-59.967-48.429-108.581-108.169-108.581s-108.169,48.614-108.169,108.581c0,21.828,6.422,42.148,17.464,59.17l0,0
	c0.013,0.02,0.025,0.039,0.038,0.058c0.326,0.502,0.651,1.005,0.985,1.501c38.736,59.064,51.994,96.23,51.994,96.23h37.688h37.688
	c0,0,13.258-37.166,51.994-96.23c0.334-0.496,0.659-0.999,0.985-1.501C348.003,233.787,348.015,233.768,348.028,233.748z"/>
<path style="fill:#DD3646;" d="M365.494,174.578c0-59.967-48.429-108.581-108.169-108.581c-3.877,0-7.705,0.209-11.477,0.609
	c54.344,5.753,96.692,51.897,96.692,107.973c0,21.828-6.422,42.148-17.465,59.17l0,0c-0.013,0.02-0.025,0.039-0.038,0.058
	c-0.326,0.502-0.651,1.004-0.985,1.5c-38.736,59.064-51.994,96.23-51.994,96.23h22.953c0,0,13.258-37.166,51.994-96.23
	c0.334-0.496,0.659-0.999,0.985-1.5c0.013-0.02,0.025-0.039,0.038-0.058l0,0C359.071,216.726,365.494,196.406,365.494,174.578z"/>
<polygon style="fill:#FFC89F;" points="257.324,137.869 219.937,216.05 294.71,216.05 "/>
<rect x="219.9" y="331.532" style="fill:#FF6137;" width="74.847" height="32.805"/>
<path style="fill:#546F7A;" d="M219.899,364.342v25.821c0,9.974,8.084,18.059,18.058,18.059h38.732
	c9.974,0,18.059-8.085,18.059-18.059v-25.821H219.899z"/>
<rect x="219.9" y="216.128" style="fill:#FFD039;" width="74.847" height="115.404"/>
<polygon style="fill:#F7B081;" points="257.324,137.869 245.348,162.912 270.759,216.05 294.71,216.05 "/>
<rect x="270.796" y="331.532" style="fill:#E04F32;" width="23.951" height="32.805"/>
<path style="fill:#475D63;" d="M270.797,364.342v25.821c0,9.974-8.085,18.059-18.059,18.059h23.951
	c9.974,0,18.059-8.085,18.059-18.059v-25.821H270.797z"/>
<rect x="270.796" y="216.128" style="fill:#FFA304;" width="23.951" height="115.404"/>
<path style="fill:#39A4FA;" d="M365.35,179.893c-0.953,19.808-7.18,38.223-17.322,53.855c-0.013,0.02-0.025,0.039-0.038,0.058
	c-0.326,0.502-0.651,1.004-0.985,1.5c-38.736,59.064-51.994,96.23-51.994,96.23h-0.263v32.805v25.821
	c0,9.974-8.085,18.059-18.058,18.059h-38.732c-9.974,0-18.058-8.085-18.058-18.059v-25.821v-32.805h-0.263
	c0,0-13.258-37.166-51.994-96.23c-0.334-0.496-0.659-0.999-0.985-1.5c-0.013-0.02-0.025-0.039-0.038-0.058
	c-10.14-15.632-16.369-34.048-17.322-53.855H64.352V445.48h383.296V179.893L365.35,179.893L365.35,179.893z"/>
<g>
	<path style="fill:#0091E2;" d="M141.708,233.807c0.326,0.502,0.651,1.004,0.985,1.5c38.736,59.064,51.994,96.23,51.994,96.23h0.263
		v32.805v25.821c0,9.974,8.084,18.059,18.058,18.059h24.949c-9.974,0-18.058-8.085-18.058-18.059v-25.821v-32.805h-0.263
		c0,0-13.258-37.166-51.994-96.23c-0.334-0.496-0.659-0.999-0.985-1.5c-0.013-0.02-0.025-0.039-0.038-0.058
		c-10.14-15.632-16.369-34.048-17.322-53.855h-24.949c0.953,19.807,7.18,38.223,17.322,53.855
		C141.683,233.768,141.696,233.787,141.708,233.807z"/>
	<rect x="422.696" y="179.892" style="fill:#0091E2;" width="24.949" height="265.587"/>
</g>
<path style="fill:#C6C5CA;" d="M294.633,470.123h-77.268c-13.609,0-24.643-11.032-24.643-24.643l0,0h126.552l0,0
	C319.276,459.09,308.244,470.123,294.633,470.123z"/>
<polygon style="fill:#3C5156;" points="257.324,137.869 239.876,174.354 274.771,174.354 "/>
<path d="M504.515,437.995h-9.135V168.272c0-20.636-16.788-37.423-37.423-37.423h-93.509
	c-17.243-42.386-58.761-72.336-107.124-72.336s-89.88,29.951-107.123,72.336H54.042c-20.636,0-37.423,16.788-37.423,37.423v269.723
	H7.485c-4.135,0-7.485,3.35-7.485,7.485c0,33.929,27.603,61.531,61.531,61.531h388.938c33.929,0,61.531-27.603,61.531-61.531
	C512,441.346,508.649,437.995,504.515,437.995z M31.588,168.272c0-12.381,10.073-22.454,22.454-22.454h91.212
	c-0.147,0.579-0.276,1.162-0.414,1.742c-0.086,0.36-0.175,0.72-0.257,1.081c-0.14,0.613-0.271,1.227-0.401,1.843
	c-0.099,0.467-0.195,0.935-0.288,1.405c-0.113,0.573-0.225,1.146-0.329,1.72c-0.1,0.549-0.193,1.1-0.285,1.652
	c-0.086,0.512-0.176,1.023-0.254,1.535c-0.157,1.016-0.3,2.036-0.43,3.061c-0.048,0.377-0.086,0.756-0.13,1.135
	c-0.085,0.73-0.168,1.461-0.24,2.196c-0.043,0.437-0.079,0.875-0.117,1.313c-0.06,0.693-0.114,1.387-0.162,2.083
	c-0.029,0.427-0.057,0.855-0.081,1.283c-0.043,0.751-0.076,1.505-0.105,2.259c-0.014,0.365-0.031,0.73-0.042,1.096
	c-0.011,0.395-0.017,0.792-0.024,1.189H64.351c-4.135,0-7.485,3.35-7.485,7.485v187.572c0,4.135,3.35,7.485,7.485,7.485
	s7.485-3.35,7.485-7.485v-180.09h70.536c0.369,3.366,0.899,6.702,1.557,10.01c0.003,0.015,0.006,0.031,0.009,0.046
	c1.093,5.479,2.578,10.864,4.446,16.121c0.025,0.071,0.05,0.142,0.076,0.213c0.357,1,0.727,1.995,1.112,2.985
	c0.035,0.09,0.072,0.179,0.107,0.268c1.085,2.767,2.277,5.494,3.576,8.178c0.18,0.371,0.354,0.745,0.538,1.116
	c0.307,0.619,0.626,1.232,0.945,1.846c0.287,0.555,0.578,1.108,0.875,1.659c0.283,0.525,0.57,1.048,0.861,1.569
	c0.38,0.68,0.77,1.354,1.165,2.027c0.242,0.411,0.478,0.823,0.725,1.231c0.657,1.09,1.327,2.173,2.021,3.241l0.144,0.221
	c0.154,0.237,0.31,0.471,0.465,0.707c0.148,0.226,0.293,0.452,0.444,0.676c2.309,3.428,6.963,4.335,10.39,2.024
	c1.502-1.012,2.52-2.474,2.995-4.085c0.007-0.024,0.011-0.048,0.018-0.072c0.059-0.207,0.112-0.414,0.152-0.625
	c0.01-0.054,0.015-0.109,0.024-0.163c0.031-0.182,0.062-0.363,0.079-0.547c0.007-0.076,0.006-0.153,0.011-0.229
	c0.011-0.163,0.023-0.325,0.024-0.489c0-0.116-0.011-0.232-0.016-0.347c-0.006-0.125-0.006-0.248-0.018-0.373
	c-0.014-0.152-0.042-0.302-0.066-0.453c-0.014-0.088-0.021-0.177-0.039-0.264c-0.036-0.182-0.084-0.361-0.134-0.541
	c-0.016-0.056-0.025-0.113-0.042-0.169c-0.069-0.231-0.151-0.458-0.242-0.684c-0.002-0.004-0.003-0.009-0.005-0.013
	c-0.191-0.462-0.43-0.912-0.721-1.343c-0.229-0.338-0.451-0.682-0.675-1.025c-0.029-0.044-0.058-0.088-0.087-0.133l-0.187-0.286
	c-0.632-0.974-1.243-1.959-1.84-2.952c-0.266-0.444-0.519-0.894-0.778-1.342c-0.313-0.541-0.631-1.08-0.933-1.626
	c-0.329-0.594-0.646-1.196-0.963-1.795c-0.21-0.395-0.422-0.79-0.627-1.189c-0.358-0.7-0.704-1.405-1.045-2.113
	c-0.143-0.294-0.286-0.588-0.425-0.882c-0.371-0.789-0.732-1.585-1.083-2.383c-0.091-0.206-0.182-0.412-0.27-0.619
	c-0.378-0.876-0.744-1.757-1.097-2.644c-0.046-0.117-0.093-0.233-0.138-0.349c-0.38-0.966-0.748-1.937-1.099-2.914
	c-0.006-0.016-0.012-0.033-0.017-0.049c-3.354-9.374-5.327-19.246-5.809-29.285v-0.001c-0.08-1.647-0.135-3.297-0.135-4.955
	c0-1.295,0.033-2.588,0.081-3.877c0.01-0.252,0.017-0.506,0.029-0.757c0.055-1.223,0.132-2.441,0.231-3.658
	c0.023-0.286,0.051-0.572,0.076-0.858c0.105-1.169,0.225-2.334,0.369-3.496c0.028-0.223,0.059-0.444,0.088-0.666
	c0.139-1.06,0.299-2.116,0.471-3.17c0.06-0.364,0.117-0.73,0.181-1.094c0.188-1.075,0.395-2.145,0.618-3.212
	c0.092-0.44,0.189-0.879,0.286-1.317c0.208-0.931,0.426-1.86,0.661-2.785c0.14-0.554,0.288-1.104,0.438-1.655
	c0.186-0.685,0.378-1.366,0.579-2.048c0.221-0.749,0.448-1.495,0.686-2.236c0.204-0.64,0.413-1.277,0.63-1.913
	c13.58-39.723,51.152-68.354,95.263-68.354c44.113,0,81.687,28.634,95.265,68.362c0.214,0.626,0.419,1.254,0.62,1.884
	c0.241,0.751,0.472,1.507,0.696,2.266c0.199,0.677,0.391,1.356,0.575,2.037c0.151,0.555,0.3,1.11,0.441,1.669
	c0.233,0.921,0.451,1.845,0.658,2.772c0.098,0.44,0.196,0.88,0.287,1.322c0.223,1.066,0.43,2.135,0.618,3.207
	c0.064,0.364,0.122,0.732,0.182,1.097c0.172,1.053,0.332,2.109,0.471,3.168c0.029,0.222,0.06,0.443,0.088,0.666
	c0.145,1.162,0.264,2.327,0.369,3.496c0.026,0.285,0.053,0.572,0.076,0.858c0.099,1.217,0.176,2.435,0.231,3.658
	c0.011,0.252,0.019,0.505,0.029,0.757c0.049,1.289,0.081,2.582,0.081,3.877c0,1.657-0.055,3.307-0.135,4.955v0.001
	c-0.482,10.023-2.449,19.88-5.8,29.25c-0.015,0.041-0.029,0.082-0.043,0.123c-0.344,0.959-0.706,1.911-1.079,2.859
	c-0.054,0.136-0.107,0.271-0.162,0.407c-0.347,0.871-0.708,1.737-1.079,2.599c-0.096,0.223-0.195,0.445-0.292,0.668
	c-0.345,0.786-0.701,1.569-1.066,2.346c-0.146,0.309-0.296,0.617-0.446,0.924c-0.336,0.698-0.678,1.392-1.03,2.082
	c-0.21,0.41-0.429,0.815-0.645,1.223c-0.313,0.592-0.625,1.185-0.95,1.771c-0.307,0.554-0.629,1.101-0.947,1.649
	c-0.257,0.443-0.508,0.891-0.771,1.33c-0.599,0.995-1.211,1.984-1.846,2.961l-0.153,0.236c-0.003,0.004-0.005,0.008-0.008,0.012
	c-0.248,0.384-0.498,0.766-0.753,1.145c-0.018,0.028-0.037,0.057-0.056,0.084c-0.276,0.422-0.542,0.834-0.816,1.254
	c-0.73,1.119-1.46,2.236-2.173,3.339c-0.417,0.647-0.822,1.28-1.233,1.921c-0.571,0.889-1.144,1.78-1.704,2.659
	c-0.418,0.658-0.826,1.305-1.238,1.957c-0.535,0.846-1.07,1.693-1.595,2.529c-0.411,0.657-0.815,1.305-1.219,1.955
	c-0.507,0.814-1.012,1.626-1.508,2.429c-0.396,0.643-0.788,1.279-1.179,1.915c-0.494,0.804-0.982,1.604-1.466,2.398
	c-0.373,0.614-0.744,1.225-1.111,1.832c-0.486,0.804-0.965,1.601-1.44,2.394c-0.347,0.58-0.696,1.161-1.037,1.733
	c-0.486,0.817-0.962,1.623-1.437,2.427c-0.315,0.534-0.633,1.072-0.943,1.6c-0.507,0.865-1.002,1.717-1.496,2.569
	c-0.259,0.447-0.525,0.9-0.78,1.343c-0.634,1.099-1.253,2.181-1.865,3.253c-0.105,0.185-0.215,0.374-0.319,0.558
	c-0.719,1.264-1.42,2.509-2.108,3.735c-0.169,0.301-0.329,0.593-0.496,0.891c-0.508,0.911-1.012,1.816-1.503,2.706
	c-0.232,0.421-0.456,0.831-0.684,1.247c-0.415,0.757-0.828,1.511-1.23,2.252c-0.24,0.441-0.473,0.874-0.708,1.31
	c-0.379,0.704-0.756,1.403-1.125,2.092c-0.232,0.433-0.459,0.861-0.686,1.288c-0.358,0.674-0.711,1.34-1.057,2
	c-0.221,0.42-0.439,0.836-0.656,1.249c-0.343,0.656-0.679,1.302-1.011,1.944c-0.204,0.393-0.407,0.785-0.606,1.173
	c-0.336,0.654-0.664,1.294-0.988,1.932c-0.181,0.354-0.362,0.711-0.539,1.059c-0.189,0.372-0.373,0.739-0.558,1.106v-81.124
	c0-1.151-0.267-2.236-0.73-3.209c-0.015-0.033-0.025-0.067-0.04-0.1l-19.938-41.695c0-0.001,0-0.001,0-0.001l-17.447-36.485
	c-1.243-2.6-3.87-4.256-6.753-4.256c-2.883,0-5.509,1.656-6.753,4.256l-17.447,36.485c-0.001,0.003-0.002,0.006-0.004,0.009
	l-19.935,41.688c-0.016,0.033-0.025,0.067-0.04,0.1c-0.464,0.974-0.73,2.059-0.73,3.209v81.146c-0.121-0.24-0.242-0.479-0.363-0.721
	c-0.191-0.378-0.387-0.763-0.583-1.147c-0.219-0.43-0.438-0.862-0.663-1.3c-0.204-0.397-0.409-0.798-0.618-1.202
	c-0.23-0.446-0.462-0.895-0.698-1.349c-0.208-0.4-0.416-0.801-0.628-1.208c-0.248-0.476-0.501-0.958-0.755-1.441
	c-0.21-0.398-0.418-0.794-0.631-1.198c-0.277-0.525-0.561-1.057-0.845-1.591c-0.201-0.376-0.398-0.749-0.603-1.131
	c-0.35-0.655-0.711-1.32-1.071-1.988c-0.146-0.269-0.286-0.533-0.434-0.804c-0.509-0.938-1.029-1.89-1.558-2.853
	c-0.154-0.279-0.312-0.565-0.467-0.846c-0.386-0.701-0.774-1.402-1.171-2.116c-0.212-0.38-0.428-0.766-0.643-1.15
	c-0.347-0.622-0.697-1.244-1.052-1.875c-0.242-0.428-0.486-0.86-0.732-1.293c-0.344-0.609-0.692-1.22-1.044-1.837
	c-0.249-0.438-0.502-0.877-0.755-1.319c-0.364-0.634-0.732-1.273-1.104-1.916c-0.251-0.436-0.504-0.871-0.759-1.311
	c-0.389-0.67-0.785-1.347-1.183-2.026c-0.248-0.423-0.494-0.844-0.745-1.271c-0.443-0.752-0.894-1.514-1.347-2.276
	c-0.215-0.362-0.425-0.72-0.643-1.084c-0.676-1.133-1.359-2.275-2.058-3.432c-2.136-3.54-6.736-4.676-10.275-2.541
	c-0.664,0.4-1.242,0.887-1.732,1.438c-2.119,2.385-2.545,5.962-0.809,8.837c0.817,1.355,1.619,2.694,2.405,4.016
	c0.032,0.054,0.063,0.107,0.095,0.161c0.734,1.236,1.455,2.458,2.162,3.666c0.139,0.236,0.271,0.467,0.409,0.702
	c0.595,1.019,1.184,2.032,1.759,3.03c0.175,0.302,0.344,0.6,0.517,0.9c0.531,0.923,1.056,1.841,1.57,2.745
	c0.187,0.327,0.368,0.651,0.552,0.976c0.487,0.86,0.968,1.715,1.44,2.559c0.192,0.342,0.38,0.682,0.57,1.021
	c0.458,0.823,0.911,1.639,1.355,2.445c0.181,0.327,0.359,0.652,0.537,0.976c0.442,0.805,0.876,1.602,1.303,2.388
	c0.17,0.312,0.339,0.625,0.507,0.935c0.427,0.789,0.845,1.569,1.257,2.339c0.155,0.289,0.31,0.581,0.463,0.867
	c0.42,0.789,0.83,1.566,1.235,2.335c0.132,0.25,0.265,0.503,0.395,0.75c0.425,0.81,0.839,1.606,1.246,2.393
	c0.101,0.196,0.206,0.394,0.305,0.588c0.446,0.863,0.879,1.71,1.304,2.544c0.055,0.107,0.112,0.218,0.166,0.324
	c1.943,3.821,3.67,7.334,5.193,10.522c0.053,0.11,0.102,0.215,0.154,0.324c0.317,0.666,0.628,1.321,0.928,1.958
	c0.083,0.176,0.162,0.345,0.243,0.519c0.26,0.555,0.516,1.103,0.762,1.635c0.097,0.21,0.191,0.413,0.286,0.62
	c0.224,0.484,0.443,0.961,0.655,1.425c0.098,0.215,0.194,0.425,0.289,0.636c0.2,0.439,0.395,0.871,0.584,1.292
	c0.094,0.209,0.187,0.415,0.277,0.619c0.182,0.405,0.357,0.802,0.529,1.189c0.087,0.197,0.174,0.392,0.257,0.584
	c0.164,0.372,0.322,0.734,0.476,1.089c0.082,0.189,0.165,0.379,0.244,0.563c0.148,0.342,0.289,0.672,0.428,0.995
	c0.073,0.17,0.147,0.342,0.217,0.507c0.136,0.317,0.263,0.62,0.389,0.918c0.066,0.155,0.134,0.315,0.197,0.465
	c0.119,0.282,0.229,0.548,0.338,0.811c0.059,0.143,0.123,0.294,0.18,0.432c0.103,0.25,0.197,0.48,0.291,0.712
	c0.054,0.132,0.113,0.274,0.165,0.401c0.081,0.198,0.151,0.374,0.225,0.557c0.158,0.391,0.303,0.756,0.431,1.079
	c0.015,0.037,0.032,0.081,0.046,0.117c0.085,0.217,0.161,0.41,0.232,0.594c0.01,0.027,0.023,0.059,0.033,0.086
	c0.156,0.402,0.277,0.721,0.364,0.953v30.753v25.821c0,14.084,11.459,25.543,25.544,25.543h38.732
	c14.084,0,25.544-11.458,25.544-25.543v-25.821v-30.753c0.12-0.317,0.309-0.812,0.557-1.444c0.925-2.355,2.764-6.854,5.692-13.261
	c0.175-0.383,0.356-0.776,0.539-1.173c0.796-1.728,1.671-3.587,2.619-5.567c0.344-0.718,0.698-1.45,1.062-2.201
	c0.757-1.559,1.55-3.172,2.398-4.867c0.756-1.512,1.562-3.096,2.392-4.713c0.369-0.72,0.74-1.44,1.124-2.181
	c5.702-10.988,13.048-24.22,22.316-39.338c0.041-0.067,0.084-0.136,0.125-0.203c0.891-1.452,1.799-2.921,2.725-4.407
	c0.14-0.225,0.285-0.454,0.426-0.68c0.844-1.351,1.698-2.711,2.572-4.09c0.283-0.447,0.578-0.903,0.864-1.353
	c0.753-1.184,1.507-2.367,2.282-3.57c0.826-1.281,1.674-2.581,2.524-3.883c0.264-0.404,0.518-0.8,0.784-1.207
	c0.299-0.444,0.593-0.894,0.885-1.345l0.186-0.286c0.693-1.067,1.361-2.147,2.017-3.234c0.243-0.403,0.476-0.809,0.715-1.215
	c0.395-0.675,0.786-1.35,1.167-2.032c0.29-0.519,0.576-1.04,0.857-1.563c0.295-0.549,0.586-1.101,0.872-1.654
	c0.318-0.613,0.636-1.227,0.943-1.844c0.18-0.363,0.351-0.73,0.527-1.094c1.306-2.701,2.506-5.448,3.597-8.236
	c0.025-0.064,0.051-0.128,0.076-0.192c0.392-1.009,0.768-2.023,1.132-3.043c0.016-0.043,0.031-0.087,0.046-0.13
	c3.004-8.449,5.036-17.234,6.02-26.207h67.888v41.064c0,4.135,3.35,7.485,7.485,7.485c4.134,0,7.485-3.35,7.485-7.485v-48.549
	c0-4.135-3.351-7.485-7.485-7.485h-74.698c-0.007-0.396-0.013-0.793-0.025-1.189c-0.01-0.366-0.028-0.732-0.042-1.097
	c-0.029-0.753-0.062-1.505-0.105-2.254c-0.024-0.43-0.052-0.86-0.082-1.289c-0.047-0.695-0.102-1.387-0.161-2.079
	c-0.038-0.438-0.074-0.876-0.117-1.314c-0.072-0.734-0.154-1.465-0.24-2.196c-0.044-0.378-0.082-0.757-0.13-1.135
	c-0.13-1.024-0.274-2.045-0.43-3.061c-0.079-0.514-0.169-1.026-0.254-1.538c-0.092-0.55-0.185-1.1-0.284-1.647
	c-0.105-0.576-0.217-1.152-0.33-1.725c-0.093-0.468-0.189-0.934-0.287-1.4c-0.13-0.616-0.261-1.231-0.401-1.844
	c-0.083-0.361-0.172-0.721-0.257-1.081c-0.139-0.581-0.267-1.164-0.414-1.742h88.564c12.381,0,22.454,10.073,22.454,22.454v269.723
	h-25.277V258.382c0-4.135-3.351-7.485-7.485-7.485c-4.135,0-7.485,3.35-7.485,7.485v179.615H319.276H192.723H71.836v-40.591
	c0-4.135-3.35-7.485-7.485-7.485s-7.485,3.35-7.485,7.485v40.591H31.588C31.588,437.996,31.588,168.272,31.588,168.272z
	 M244.594,181.838h25.46l12.781,26.727h-51.022L244.594,181.838z M287.265,324.052h-59.881V223.617h59.881V324.052z
	 M227.384,339.022h59.881v17.835h-59.881V339.022z M227.384,371.826h59.881v18.336c0,5.83-4.743,10.573-10.574,10.573h-38.732
	c-5.831,0-10.574-4.743-10.574-10.573L227.384,371.826L227.384,371.826z M310.071,452.965c-2.785,5.72-8.658,9.672-15.437,9.672
	h-77.268c-6.779,0-12.653-3.952-15.438-9.672H310.071z M450.469,492.042H61.531c-23.127,0-42.369-16.949-45.961-39.077h8.534h40.248
	h121.776c3.382,14.115,16.1,24.642,31.238,24.642h77.268c15.137,0,27.855-10.526,31.237-24.642h121.777h40.247h8.535
	C492.838,475.092,473.596,492.042,450.469,492.042z"/>
<path d="M257.325,47.94c4.135,0,7.485-3.35,7.485-7.485V12.473c0-4.135-3.35-7.485-7.485-7.485c-4.135,0-7.485,3.35-7.485,7.485
	v27.982C249.84,44.589,253.19,47.94,257.325,47.94z"/>
<path d="M370.919,95.065c1.26,0,2.538-0.318,3.71-0.989l24.288-13.895c3.588-2.053,4.832-6.625,2.779-10.213
	c-2.053-3.589-6.625-4.833-10.213-2.779l-24.288,13.895c-3.588,2.053-4.832,6.625-2.779,10.213
	C365.798,93.712,368.322,95.065,370.919,95.065z"/>
<path d="M317.376,58.586c1.357,1.039,2.958,1.542,4.545,1.542c2.25,0,4.475-1.01,5.949-2.934l17.011-22.217
	c2.513-3.282,1.89-7.98-1.393-10.494c-3.283-2.512-7.981-1.889-10.494,1.393l-17.01,22.216
	C313.471,51.375,314.094,56.072,317.376,58.586z"/>
<path d="M113.082,80.181l24.287,13.895c1.173,0.671,2.45,0.989,3.71,0.989c2.598,0,5.122-1.353,6.504-3.768
	c2.053-3.589,0.808-8.161-2.779-10.213l-24.287-13.895c-3.59-2.054-8.161-0.808-10.213,2.779
	C108.251,73.557,109.495,78.129,113.082,80.181z"/>
<path d="M184.13,57.193c1.474,1.925,3.698,2.934,5.949,2.934c1.587,0,3.186-0.503,4.545-1.542c3.282-2.514,3.905-7.212,1.393-10.494
	l-17.013-22.216c-2.513-3.282-7.21-3.904-10.494-1.393c-3.282,2.514-3.905,7.212-1.392,10.494L184.13,57.193z"/>
<g>
</g>
<g>
</g>
<g>
</g>
<g>
</g>
<g>
</g>
<g>
</g>
<g>
</g>
<g>
</g>
<g>
</g>
<g>
</g>
<g>
</g>
<g>
</g>
<g>
</g>
<g>
</g>
<g>
</g>
</svg>
