<?xml version="1.0" encoding="iso-8859-1"?>
<!-- Generator: Adobe Illustrator 19.0.0, SVG Export Plug-In . SVG Version: 6.00 Build 0)  -->
<svg version="1.1" id="Capa_1" xmlns="http://www.w3.org/2000/svg" xmlns:xlink="http://www.w3.org/1999/xlink" x="0px" y="0px"
	 viewBox="0 0 512 512" style="enable-background:new 0 0 512 512;" xml:space="preserve">
<rect x="146.93" y="450.713" style="fill:#E0E0E0;" width="218.144" height="26.328"/>
<polygon style="fill:#919191;" points="322.76,450.708 189.241,450.708 195.243,398.423 316.758,398.423 "/>
<path style="fill:#E0E0E0;" d="M7.503,329.314v54.104c0,8.287,6.718,15.005,15.005,15.005h466.985
	c8.287,0,15.005-6.718,15.005-15.005v-54.104H7.503z"/>
<path style="fill:#39A4FA;" d="M504.497,329.314V49.97c0-8.287-6.718-15.005-15.005-15.005H22.508
	c-8.287,0-15.005,6.718-15.005,15.005v279.344H504.497z"/>
<path style="fill:#C6C5CA;" d="M479.489,329.314v54.104c0,8.287-6.718,15.005-15.005,15.005h25.008
	c8.287,0,15.005-6.718,15.005-15.005v-54.104H479.489z"/>
<path style="fill:#0091E2;" d="M489.492,34.965h-25.008c8.287,0,15.005,6.718,15.005,15.005v279.344h25.009V49.97
	C504.497,41.682,497.779,34.965,489.492,34.965z"/>
<path style="fill:#FFD039;" d="M255.773,96.319l-71.238,119.657l29.874,50.273h41.364h41.364l29.874-50.273L255.773,96.319z
	 M255.773,215.924c-6.827,0-12.362-5.535-12.362-12.362s5.535-12.362,12.362-12.362c6.827,0,12.362,5.535,12.362,12.362
	S262.6,215.924,255.773,215.924z"/>
<polygon style="fill:#777777;" points="316.758,398.423 291.749,398.423 297.751,450.708 322.76,450.708 "/>
<rect x="340.066" y="450.713" style="fill:#C6C5CA;" width="25.008" height="26.328"/>
<polygon style="fill:#FFA304;" points="255.773,96.319 243.269,117.322 302.003,215.975 272.129,266.248 297.137,266.248 
	327.011,215.975 "/>
<rect x="201.819" y="266.24" style="fill:#546F7A;" width="107.917" height="32.924"/>
<rect x="284.727" y="266.24" style="fill:#475D63;" width="25.008" height="32.924"/>
<g>
	<rect x="119.611" y="206.58" style="fill:#FFD039;" width="25.979" height="25.979"/>
	<rect x="366.415" y="206.58" style="fill:#FFD039;" width="25.979" height="25.979"/>
	<rect x="242.783" y="69.802" style="fill:#FFD039;" width="25.979" height="25.979"/>
</g>
<g>
	<circle style="fill:#FF6137;" cx="132.595" cy="83.338" r="12.983"/>
	<circle style="fill:#FF6137;" cx="378.949" cy="83.338" r="12.983"/>
</g>
<path d="M489.492,27.462H22.508C10.097,27.462,0,37.56,0,49.97v45.812c0,4.144,3.358,7.503,7.503,7.503
	c4.143,0,7.503-3.358,7.503-7.503V49.97c0-4.137,3.365-7.503,7.503-7.503h466.985c4.137,0,7.503,3.365,7.503,7.503v201.274
	c0,4.143,3.358,7.503,7.503,7.503c4.144,0,7.503-3.358,7.503-7.503V49.97C512,37.559,501.903,27.462,489.492,27.462z"/>
<path d="M504.497,273.752c-4.144,0-7.503,3.358-7.503,7.503v40.557H15.005V125.79c0-4.143-3.359-7.503-7.503-7.503
	c-4.144,0-7.503,3.359-7.503,7.503v203.523v54.105c0,12.41,10.097,22.508,22.508,22.508h164.322l-4.279,37.279h-35.621
	c-4.144,0-7.503,3.358-7.503,7.503v26.328c0,4.144,3.358,7.503,7.503,7.503h218.142c4.144,0,7.503-3.358,7.503-7.503v-26.328
	c0-4.144-3.358-7.503-7.503-7.503H329.45l-4.279-37.279h164.322c12.41,0,22.508-10.097,22.508-22.508v-54.105v-48.059
	C512,277.11,508.642,273.752,504.497,273.752z M357.569,469.534H154.431v-11.323h34.81H322.76h34.81v11.323H357.569z
	 M314.346,443.205H197.654l4.279-37.279h108.133L314.346,443.205z M496.995,383.419c0,4.137-3.365,7.503-7.503,7.503H316.757
	H195.243H22.508c-4.137,0-7.503-3.365-7.503-7.503v-46.603h481.99V383.419z"/>
<path d="M158.759,118.56c-20.196,22.286-31.996,50.64-33.664,80.52h-5.485c-4.144,0-7.503,3.358-7.503,7.503v25.979
	c0,4.144,3.358,7.503,7.503,7.503h25.98c4.144,0,7.503-3.358,7.503-7.503v-25.979c0-4.144-3.358-7.503-7.503-7.503h-5.466
	c1.65-26.145,12.064-50.925,29.754-70.444c17.318-19.108,40.298-31.799,65.402-36.282v3.426c0,4.144,3.358,7.503,7.503,7.503h0.111
	l-28.823,48.413c-2.12,3.561-0.951,8.165,2.608,10.285c3.561,2.119,8.165,0.953,10.285-2.608l21.306-35.787v61.594
	c-7.243,2.967-12.362,10.084-12.362,18.382c0,10.954,8.911,19.865,19.865,19.865s19.865-8.911,19.865-19.865
	c0-8.298-5.12-15.415-12.362-18.382v-61.594l55.007,92.393l-25.411,42.761h-74.198l-25.41-42.761l17.861-30.001
	c2.12-3.561,0.951-8.165-2.608-10.285c-3.56-2.117-8.164-0.952-10.285,2.608l-20.145,33.835c-1.406,2.363-1.407,5.307-0.003,7.671
	l23.152,38.961c-3.873,0.295-6.925,3.524-6.925,7.474v32.925c0,4.144,3.358,7.503,7.503,7.503H309.73
	c4.144,0,7.503-3.358,7.503-7.503v-32.925c0-3.949-3.052-7.177-6.925-7.474l23.153-38.961c1.404-2.364,1.403-5.308-0.003-7.671
	l-64.806-108.854h0.111c4.143,0,7.503-3.358,7.503-7.503v-3.426c25.106,4.483,48.084,17.173,65.402,36.283
	c17.69,19.519,28.105,44.299,29.754,70.443h-5.009c-4.144,0-7.503,3.358-7.503,7.503v25.979c0,4.144,3.358,7.503,7.503,7.503h25.979
	c4.144,0,7.503-3.358,7.503-7.503v-25.979c0-4.144-3.358-7.503-7.503-7.503h-5.94c-1.669-29.88-13.468-58.235-33.664-80.519
	c-10.091-11.136-21.889-20.339-34.841-27.338h42.104c3.096,7.391,10.401,12.598,18.902,12.598c11.296,0,20.486-9.19,20.486-20.486
	s-9.191-20.486-20.486-20.486c-8.79,0-16.284,5.577-19.185,13.369h-83.502v-6.416c0-4.144-3.359-7.503-7.503-7.503h-25.981
	c-4.144,0-7.503,3.358-7.503,7.503v6.416h-83.502c-2.901-7.793-10.394-13.369-19.185-13.369c-11.296,0-20.486,9.191-20.486,20.486
	s9.191,20.486,20.486,20.486c8.502,0,15.806-5.207,18.902-12.598h42.103C180.648,98.222,168.85,107.426,158.759,118.56z
	 M138.087,225.059h-10.975v-10.974h10.975V225.059z M302.229,291.665h-92.913v-17.92h5.003c0.03,0,0.059,0.006,0.089,0.006h82.729
	c0.03,0,0.059-0.006,0.089-0.006h5.002v17.92H302.229z M384.888,225.059h-10.974v-10.974h10.974V225.059z M255.773,208.422
	c-2.68,0-4.86-2.181-4.86-4.86c0-2.68,2.181-4.859,4.86-4.859c2.679,0,4.86,2.18,4.86,4.859
	C260.633,206.241,258.452,208.422,255.773,208.422z M378.951,77.854c3.022,0,5.481,2.459,5.481,5.481
	c0,3.022-2.459,5.481-5.481,5.481c-3.022,0-5.481-2.459-5.481-5.481C373.471,80.313,375.93,77.854,378.951,77.854z M261.26,77.304
	v6.394c0,0.005,0,0.01,0,0.015v4.566h-10.975v-4.546c0-0.018,0-0.036,0-0.054v-6.375H261.26z M132.594,88.816
	c-3.022,0-5.481-2.459-5.481-5.481c0-3.022,2.459-5.481,5.481-5.481s5.481,2.459,5.481,5.481
	C138.074,86.357,135.615,88.816,132.594,88.816z"/>
<g>
</g>
<g>
</g>
<g>
</g>
<g>
</g>
<g>
</g>
<g>
</g>
<g>
</g>
<g>
</g>
<g>
</g>
<g>
</g>
<g>
</g>
<g>
</g>
<g>
</g>
<g>
</g>
<g>
</g>
</svg>
