<?xml version="1.0" encoding="iso-8859-1"?>
<!-- Generator: Adobe Illustrator 19.0.0, SVG Export Plug-In . SVG Version: 6.00 Build 0)  -->
<svg version="1.1" id="Capa_1" xmlns="http://www.w3.org/2000/svg" xmlns:xlink="http://www.w3.org/1999/xlink" x="0px" y="0px"
	 viewBox="0 0 512 512" style="enable-background:new 0 0 512 512;" xml:space="preserve">
<rect x="234.095" y="7.536" style="fill:#546F7A;" width="103.217" height="31.489"/>
<path style="fill:#FFD039;" d="M325.26,39.019h-39.562h-39.561l-28.572,48.082l68.132,95.703l68.132-95.703L325.26,39.019z
	 M285.699,110.796c-6.53,0-11.824-5.294-11.824-11.824s5.294-11.823,11.824-11.823c6.53,0,11.824,5.293,11.824,11.823
	C297.522,105.503,292.228,110.796,285.699,110.796z"/>
<rect x="312.183" y="7.536" style="fill:#3C5156;" width="25.118" height="31.489"/>
<polygon style="fill:#FFAE47;" points="325.26,39.019 300.142,39.019 328.713,87.101 273.139,165.162 285.699,182.803 
	353.832,87.101 "/>
<rect x="267.905" y="183.285" style="fill:#FFD039;" width="35.587" height="35.587"/>
<g>
	<circle style="fill:#FF6137;" cx="116.963" cy="201.822" r="17.785"/>
	<circle style="fill:#FF6137;" cx="454.434" cy="201.822" r="17.785"/>
</g>
<path style="fill:#39A4FA;" d="M422.059,360.032c0.061-1.682,0.103-3.37,0.103-5.067c0-75.096-60.877-135.973-135.973-135.973
	c-50.972,0-95.386,28.052-118.666,69.556c-0.226-0.002-0.448-0.017-0.674-0.017c-41.34,0-75.338,31.426-79.412,71.692
	c-36.606,3.557-65.219,34.407-65.219,71.946l0,0c0,39.927,32.368,72.295,72.295,72.295h322.973
	c39.927,0,72.295-32.368,72.295-72.295l0,0C489.783,393.778,459.855,362.393,422.059,360.032z"/>
<path style="fill:#0091E2;" d="M417.487,479.346H94.514c-35.645,0-65.245-25.805-71.188-59.748
	c-0.716,4.084-1.107,8.281-1.107,12.57l0,0c0,39.927,32.368,72.295,72.295,72.295h322.973c39.927,0,72.296-32.368,72.296-72.295l0,0
	c0-4.287-0.393-8.481-1.109-12.563C482.728,453.545,453.13,479.346,417.487,479.346z"/>
<path d="M323.126,496.929H94.515c-35.709,0-64.76-29.051-64.76-64.76c0-16.191,6.005-31.688,16.913-43.636
	c10.836-11.872,25.575-19.262,41.501-20.809c3.575-0.348,6.407-3.169,6.768-6.743c3.743-37.007,34.658-64.914,71.888-64.914
	l0.122,0.004c0.171,0.006,0.341,0.011,0.512,0.012c0.022,0.001,0.044,0.001,0.065,0.001c2.724,0,5.238-1.471,6.572-3.849
	c5.88-10.48,13.204-20.093,21.769-28.569c2.958-2.928,2.983-7.699,0.056-10.656c-2.927-2.959-7.698-2.983-10.656-0.056
	c-8.523,8.436-15.947,17.878-22.11,28.12c-20.437,0.858-39.863,8.817-55.054,22.629c-14.504,13.188-24.08,30.705-27.352,49.828
	c-17.34,3.017-33.218,11.703-45.212,24.842c-13.446,14.731-20.852,33.837-20.852,53.798c0,44.019,35.812,79.831,79.832,79.831
	h228.611c4.162,0,7.536-3.374,7.536-7.536C330.662,500.303,327.289,496.929,323.126,496.929z"/>
<path d="M429.689,353.282c-0.805-69.915-51.86-127.968-118.661-139.672v-3.724h119.408c3.376,10.019,12.855,17.257,23.997,17.257
	c13.962,0,25.32-11.359,25.32-25.32c0-13.963-11.36-25.321-25.32-25.321c-11.531,0-21.279,7.751-24.328,18.313H311.028v-11.53
	c0-4.162-3.373-7.536-7.536-7.536h-3.524l60.001-84.281c1.731-2.431,1.864-5.655,0.34-8.22L338.45,46.463
	c3.617-0.553,6.391-3.668,6.391-7.44V7.536c0-4.162-3.374-7.536-7.536-7.536H234.093c-4.163,0-7.536,3.374-7.536,7.536v31.49
	c0,3.772,2.773,6.887,6.391,7.44L211.09,83.252c-1.525,2.565-1.392,5.789,0.339,8.22l16.871,23.699
	c2.414,3.389,7.118,4.183,10.51,1.768c3.39-2.413,4.182-7.119,1.769-10.509l-14.025-19.701l23.87-40.169h70.554l23.87,40.169
	l-51.611,72.496v-42.421c6.942-2.945,11.824-9.828,11.824-17.831c0-10.674-8.685-19.359-19.359-19.359
	c-10.674,0-19.359,8.684-19.359,19.359c0,8.003,4.882,14.887,11.824,17.831v42.421l-19.619-27.557
	c-2.412-3.389-7.117-4.183-10.509-1.768c-3.39,2.413-4.182,7.119-1.768,10.51l25.161,35.343h-3.523
	c-4.163,0-7.536,3.374-7.536,7.536v11.53H141.29c-3.048-10.563-12.796-18.313-24.327-18.313c-13.962,0-25.32,11.359-25.32,25.321
	c0,13.962,11.36,25.32,25.32,25.32c11.143,0,20.621-7.238,23.996-17.257h119.409v3.907c-17.751,3.233-34.77,9.78-50.172,19.414
	c-3.529,2.206-4.599,6.856-2.392,10.385c2.206,3.528,6.856,4.599,10.385,2.392c20.353-12.731,43.866-19.46,67.998-19.46
	c70.821,0,128.438,57.617,128.438,128.438c0,1.421-0.031,2.944-0.098,4.795c-0.147,4.082,2.984,7.539,7.06,7.793
	c34.013,2.125,60.658,30.507,60.658,64.617c0,35.708-29.051,64.759-64.76,64.759h-64.218c-4.162,0-7.536,3.374-7.536,7.536
	c0,4.162,3.374,7.536,7.536,7.536h64.218c44.019,0,79.832-35.812,79.832-79.832C497.319,392.546,468.145,359.19,429.689,353.282z
	 M454.434,191.575c5.652,0,10.249,4.599,10.249,10.25s-4.598,10.249-10.249,10.249c-5.652,0-10.25-4.598-10.25-10.249
	S448.783,191.575,454.434,191.575z M241.629,15.071h88.142V31.49h-4.42c-0.03,0-0.059-0.006-0.089-0.006h-79.122
	c-0.03,0-0.059,0.006-0.089,0.006h-4.42V15.071H241.629z M116.965,212.074c-5.652,0-10.249-4.598-10.249-10.249
	s4.598-10.25,10.249-10.25s10.249,4.599,10.249,10.25S122.616,212.074,116.965,212.074z M275.441,190.822h20.516v20.516h-20.516
	V190.822z M285.699,94.685c2.364,0,4.288,1.923,4.288,4.288c0,2.364-1.923,4.288-4.288,4.288c-2.365,0-4.288-1.923-4.288-4.288
	C281.411,96.609,283.334,94.685,285.699,94.685z"/>
<g>
</g>
<g>
</g>
<g>
</g>
<g>
</g>
<g>
</g>
<g>
</g>
<g>
</g>
<g>
</g>
<g>
</g>
<g>
</g>
<g>
</g>
<g>
</g>
<g>
</g>
<g>
</g>
<g>
</g>
</svg>
