<svg width="18" height="18"
    xmlns="http://www.w3.org/2000/svg">
    <g>
        <title>background</title>
        <rect x="-1" y="-1" width="20" height="20" id="canvas_background" fill="none"/>
    </g>

    <g>
        <title>Layer 1</title>
        <path d="m791.109,297.518l-0.878,-0.516l-2.03,-0.619c0.817,0.689 1.839,1.089 2.908,1.135z" fill="#0D0C22" id="svg_1"/>
        <path d="m803.896,388.891l-0.98,0.275l0.98,-0.275z" fill="#0D0C22" id="svg_2"/>
        <path d="m791.484,297.377c-0.125,-0.016 -0.247,-0.045 -0.366,-0.087c-0.007,0.081 -0.007,0.163 0,0.244c0.134,-0.018 0.261,-0.072 0.366,-0.157z" fill="#0D0C22" id="svg_3"/>
        <path d="m791.113,297.529l0.131,0l0,-0.082l-0.131,0.082z" fill="#0D0C22" id="svg_4"/>
        <path d="m803.111,388.726l1.48,-0.843l0.551,-0.31l0.499,-0.533c-0.939,0.404 -1.795,0.976 -2.53,1.686z" fill="#0D0C22" id="svg_5"/>
        <path d="m793.669,299.515l-1.446,-1.377l-0.98,-0.533c0.527,0.93 1.398,1.616 2.426,1.91z" fill="#0D0C22" id="svg_6"/>
        <path d="m430.019,1186.18c-1.155,0.5 -2.167,1.28 -2.943,2.27l0.912,-0.58c0.62,-0.57 1.497,-1.24 2.031,-1.69z" fill="#0D0C22" id="svg_7"/>
        <path d="m641.187,1144.63c0,-1.3 -0.636,-1.06 -0.482,3.58c0,-0.37 0.155,-0.75 0.224,-1.11c0.086,-0.83 0.155,-1.64 0.258,-2.47z" fill="#0D0C22" id="svg_8"/>
        <path d="m619.284,1186.18c-1.155,0.5 -2.166,1.28 -2.942,2.27l0.912,-0.58c0.619,-0.57 1.497,-1.24 2.03,-1.69z" fill="#0D0C22" id="svg_9"/>
        <path d="m281.304,1196.06c-0.877,-0.76 -1.95,-1.26 -3.097,-1.45c0.929,0.45 1.858,0.9 2.477,1.24l0.62,0.21z" fill="#0D0C22" id="svg_10"/>
        <path d="m247.841,1164.01c-0.137,-1.35 -0.553,-2.66 -1.222,-3.85c0.474,1.23 0.87,2.5 1.187,3.78l0.035,0.07z" fill="#0D0C22" id="svg_11"/>
        <path d="m78.6885,386.132l0.7914,0.74l0.5163,0.31c-0.3975,-0.395 -0.8359,-0.747 -1.3077,-1.05z" fill="#0D0C22" id="svg_13"/>
        <g stroke="null" id="svg_15">
            <path stroke="null" d="m8.80828,8.36614c-0.59839,0.25616 -1.27746,0.54661 -2.15755,0.54661c-0.36816,-0.00073 -0.73456,-0.05125 -1.08919,-0.15015l0.60869,6.24947c0.02155,0.26115 0.14053,0.50472 0.33335,0.68224c0.19281,0.17753 0.44534,0.276 0.70743,0.276c0,0 0.86306,0.04481 1.15106,0.04481c0.30995,0 1.23934,-0.04481 1.23934,-0.04481c0.26207,0 0.51453,-0.0986 0.70729,-0.27613c0.19278,-0.17753 0.31173,-0.42097 0.33327,-0.68212l0.65194,-6.90591c-0.29134,-0.09949 -0.58538,-0.16561 -0.91684,-0.16561c-0.57329,-0.00023 -1.03519,0.19722 -1.56879,0.4256l0,-0.00001z" fill="#FFDD00" id="svg_12"/>
            <path stroke="null" d="m14.10873,5.12309l-0.09166,-0.46235c-0.08226,-0.41484 -0.26895,-0.80681 -0.69476,-0.95673c-0.13649,-0.04797 -0.29135,-0.06857 -0.39601,-0.16786c-0.10466,-0.09928 -0.13559,-0.25347 -0.15979,-0.39645c-0.04483,-0.26244 -0.08696,-0.5251 -0.13291,-0.78709c-0.03967,-0.22525 -0.07104,-0.47827 -0.17435,-0.68489c-0.13447,-0.27745 -0.41349,-0.43971 -0.69095,-0.54707c-0.14217,-0.05307 -0.28725,-0.09797 -0.43456,-0.13447c-0.69319,-0.18287 -1.42201,-0.25011 -2.13514,-0.28844c-0.85596,-0.04723 -1.71419,-0.033 -2.56813,0.04258c-0.63558,0.05782 -1.30501,0.12774 -1.909,0.3476c-0.22075,0.08045 -0.44823,0.17705 -0.61608,0.3476c-0.20597,0.20955 -0.27321,0.53362 -0.12283,0.79493c0.1069,0.18557 0.288,0.31668 0.48007,0.40341c0.25017,0.11175 0.51144,0.1968 0.77947,0.2537c0.74629,0.16495 1.51926,0.22971 2.2817,0.25728c0.84506,0.0341 1.69146,0.00646 2.53248,-0.08271c0.20798,-0.02286 0.41559,-0.05028 0.62282,-0.08224c0.24406,-0.03744 0.40071,-0.35657 0.32877,-0.57889c-0.08607,-0.26578 -0.31736,-0.36888 -0.57888,-0.32876c-0.03856,0.00605 -0.07688,0.01164 -0.11543,0.01725l-0.02778,0.00403c-0.08861,0.01121 -0.1772,0.02166 -0.2658,0.03138c-0.18302,0.01972 -0.3665,0.03586 -0.55042,0.04841c-0.41192,0.02868 -0.82496,0.0419 -1.23778,0.04258c-0.40565,0 -0.81153,-0.01144 -1.21627,-0.0381c-0.18467,-0.0121 -0.36889,-0.02749 -0.55266,-0.04617c-0.08359,-0.00874 -0.16697,-0.01792 -0.25032,-0.02824l-0.07935,-0.01008l-0.01725,-0.00246l-0.08226,-0.01188c-0.16809,-0.02534 -0.33617,-0.05446 -0.50246,-0.08965c-0.01677,-0.00373 -0.03179,-0.01305 -0.04255,-0.02646c-0.01076,-0.01341 -0.01662,-0.03008 -0.01662,-0.04726c0,-0.01719 0.00586,-0.03386 0.01662,-0.04726c0.01076,-0.01341 0.02578,-0.02274 0.04255,-0.02646l0.00314,0c0.14411,-0.03071 0.28932,-0.05693 0.435,-0.07979c0.04858,-0.00762 0.09728,-0.0151 0.14613,-0.02242l0.00134,0c0.09122,-0.00605 0.18288,-0.02242 0.27365,-0.03316c0.7897,-0.08214 1.5841,-0.11014 2.37764,-0.08382c0.38524,0.0112 0.77027,0.03385 1.15373,0.07283c0.08247,0.00852 0.1645,0.01748 0.24653,0.02757c0.03138,0.00381 0.06298,0.00829 0.09459,0.0121l0.06365,0.00919c0.18557,0.02765 0.37015,0.06119 0.55378,0.10063c0.27208,0.05917 0.62147,0.07844 0.74249,0.3765c0.03856,0.09458 0.05603,0.19968 0.07732,0.29896l0.02713,0.12662c0.00071,0.00227 0.00122,0.0046 0.00156,0.00694c0.0641,0.29882 0.12827,0.59764 0.19251,0.89645c0.00471,0.02208 0.00481,0.04488 0.00033,0.067c-0.0045,0.02213 -0.0135,0.04307 -0.02645,0.06157c-0.01294,0.01849 -0.02957,0.0341 -0.04883,0.04588c-0.01927,0.01177 -0.04072,0.01944 -0.06309,0.02255l-0.0018,0l-0.03921,0.00538l-0.03876,0.00514c-0.12283,0.01599 -0.24579,0.03093 -0.36889,0.04483c-0.2425,0.02763 -0.48536,0.05154 -0.72859,0.07171c-0.48334,0.04018 -0.96765,0.06656 -1.45294,0.07912c-0.24726,0.00656 -0.49447,0.00964 -0.74159,0.00919c-0.98364,-0.00077 -1.96642,-0.05795 -2.9435,-0.17123c-0.10579,-0.01254 -0.21156,-0.02599 -0.31736,-0.03967c0.08203,0.01053 -0.05961,-0.00808 -0.08829,-0.0121c-0.06724,-0.00941 -0.13447,-0.0192 -0.20171,-0.02936c-0.22569,-0.03386 -0.45002,-0.07553 -0.67525,-0.11207c-0.2723,-0.04482 -0.53271,-0.0224 -0.77902,0.11207c-0.20218,0.11063 -0.36581,0.28029 -0.46907,0.48633c-0.10624,0.21963 -0.13782,0.45875 -0.18534,0.69476c-0.04752,0.23598 -0.12147,0.48991 -0.09346,0.73218c0.06028,0.52286 0.42581,0.94778 0.95158,1.04281c0.49462,0.08964 0.99193,0.16226 1.49058,0.22411c1.95883,0.2399 3.93776,0.26861 5.90272,0.08561c0.16001,-0.01494 0.3198,-0.03122 0.47938,-0.04885c0.04985,-0.00547 0.10028,0.00026 0.14762,0.0168c0.04733,0.01654 0.09037,0.04346 0.12596,0.07879c0.03558,0.03532 0.0628,0.07816 0.07969,0.12536c0.0169,0.04721 0.023,0.0976 0.01788,0.14748l-0.04976,0.48365c-0.10025,0.97727 -0.20051,1.9545 -0.30076,2.93163c-0.10457,1.02615 -0.20985,2.05221 -0.31578,3.07815c-0.02988,0.28902 -0.05976,0.57792 -0.08964,0.86668c-0.02869,0.28447 -0.03272,0.57779 -0.08673,0.85887c-0.08517,0.44194 -0.38435,0.71338 -0.82093,0.81263c-0.39997,0.09104 -0.80856,0.13885 -1.21874,0.1425c-0.45473,0.00247 -0.90922,-0.01772 -1.36395,-0.01523c-0.48544,0.00273 -1.08001,-0.04207 -1.45472,-0.40338c-0.32923,-0.31729 -0.37473,-0.8142 -0.41955,-1.24389c-0.05976,-0.5688 -0.119,-1.13749 -0.17773,-1.70613l-0.32944,-3.16202l-0.21313,-2.04593c-0.00359,-0.03385 -0.00718,-0.06724 -0.01053,-0.10131c-0.02555,-0.24405 -0.19835,-0.48295 -0.47064,-0.47063c-0.23307,0.01031 -0.49797,0.20843 -0.47063,0.47063l0.158,1.51682l0.32676,3.13759c0.09309,0.89122 0.18595,1.78255 0.27857,2.67411c0.01793,0.17076 0.03474,0.34204 0.05356,0.51279c0.10243,0.93325 0.8151,1.43614 1.69766,1.57772c0.51546,0.08297 1.04348,0.10004 1.56655,0.1085c0.67055,0.01081 1.34783,0.0366 2.00738,-0.08493c0.97737,-0.17936 1.71066,-0.8319 1.81532,-1.8442c0.02989,-0.29228 0.05978,-0.58456 0.08965,-0.87697c0.09936,-0.96699 0.19857,-1.93405 0.29763,-2.90118l0.32407,-3.15999l0.14859,-1.44822c0.0074,-0.07182 0.03773,-0.13934 0.08649,-0.19257c0.04875,-0.05324 0.11335,-0.08936 0.18423,-0.10303c0.27947,-0.05446 0.54662,-0.14746 0.74541,-0.36015c0.31644,-0.33863 0.37942,-0.78014 0.26759,-1.22523l-0.00004,0zm-10.51295,0.31242c0.00426,-0.00202 -0.00359,0.0345 -0.00694,0.05154c-0.00067,-0.02578 0.00067,-0.04864 0.00694,-0.05154zm0.02712,0.20976c0.00224,-0.00158 0.00896,0.0074 0.01591,0.01816c-0.01053,-0.00988 -0.01725,-0.01726 -0.01614,-0.01816l0.00023,0zm0.02668,0.03518c0.00964,0.01636 0.01479,0.02668 0,0l0,0zm0.05356,0.04347l0.00135,0c0,0.00158 0.00247,0.00314 0.00336,0.00471c-0.00149,-0.00173 -0.00314,-0.00331 -0.00493,-0.00471l0.00023,0l-0.00001,0zm9.37961,-0.06499c-0.1004,0.09547 -0.25168,0.13985 -0.40116,0.16204c-1.67636,0.24876 -3.37716,0.37472 -5.07192,0.31913c-1.2129,-0.04146 -2.41302,-0.17617 -3.61383,-0.34581c-0.11766,-0.01658 -0.24518,-0.0381 -0.32609,-0.12483c-0.1524,-0.16361 -0.07754,-0.49305 -0.03788,-0.69071c0.0363,-0.18108 0.10578,-0.42246 0.32115,-0.44823c0.33617,-0.03944 0.72657,0.10242 1.05916,0.15284c0.40042,0.0611 0.80233,0.11004 1.20572,0.1468c1.72164,0.15689 3.47221,0.13246 5.18622,-0.09704c0.31242,-0.042 0.6237,-0.09077 0.93388,-0.14634c0.27634,-0.04953 0.5827,-0.14254 0.74967,0.14366c0.11451,0.19498 0.12976,0.45585 0.11206,0.67616c-0.00546,0.09598 -0.0474,0.18626 -0.11721,0.25235l0.00023,0l0,-0.00003z" fill="#0D0C22" id="svg_14"/>
        </g>
    </g>
</svg>