<svg width="312" height="51"
	xmlns="http://www.w3.org/2000/svg">
	<style type="text/css">.st1{fill:#000000;}
	.st2{fill:#000000;}
	.st3{fill:#000000;}
	.st4{fill:#000000;}</style>

	<g>
		<title>background</title>
		<rect x="-1" y="-1" width="158" height="27.5" id="canvas_background" fill="none"/>
	</g>
	<g>
		<title>Layer 1</title>
		<g id="svg_14" stroke="null">
			<path id="svg_1" class="st0" d="m60.99388,12.09195c-0.44694,-0.44694 -0.89387,-1.19183 -0.89387,-1.93672c0,-0.74489 0.29796,-1.48978 0.89387,-1.93672c0.44694,-0.59591 1.19183,-0.89387 1.93672,-0.89387c0.74489,0 1.48978,0.29796 1.93672,0.89387c0.44694,0.44694 0.89387,1.19183 0.89387,1.93672c0,0.74489 -0.29796,1.48978 -0.89387,2.0857s-1.19183,0.89387 -1.93672,0.89387c-0.74489,-0.29796 -1.34081,-0.59591 -1.93672,-1.04285zm-0.74489,31.88137l0,-22.79369c0,-1.48978 1.19183,-2.83059 2.83059,-2.83059c1.48978,0 2.83059,1.19183 2.83059,2.83059l0,22.79369c0,1.48978 -1.19183,2.83059 -2.83059,2.83059c-1.63876,0 -2.83059,-1.34081 -2.83059,-2.83059z" stroke="null" fill="#000000"/>
			<path id="svg_2" class="st0" d="m69.18769,43.97332l0,-36.64868c0,-1.48978 1.19183,-2.83059 2.83059,-2.83059c1.48978,0 2.83059,1.19183 2.83059,2.83059l0,36.64868c0,1.48978 -1.19183,2.83059 -2.83059,2.83059c-1.63876,0 -2.83059,-1.34081 -2.83059,-2.83059z" stroke="null" fill="#000000"/>
			<path id="svg_3" class="st0" d="m78.27537,43.97332l0,-36.64868c0,-1.48978 1.19183,-2.83059 2.83059,-2.83059c1.48978,0 2.83059,1.19183 2.83059,2.83059l0,36.64868c0,1.48978 -1.19183,2.83059 -2.83059,2.83059c-1.48978,0 -2.83059,-1.34081 -2.83059,-2.83059z" stroke="null" fill="#000000"/>
			<path id="svg_4" class="st0" d="m110.15674,21.17963l0,14.15294l0,0.14898c-0.14898,6.25709 -5.06526,11.32236 -11.47133,11.32236c-6.25709,0 -11.32236,-5.06526 -11.32236,-11.32236l0,-0.14898l0,-14.15294c0,-1.48978 1.19183,-2.83059 2.83059,-2.83059s2.83059,1.19183 2.83059,2.83059l0,14.00397c0,3.12855 2.53263,5.81016 5.81016,5.81016c3.27752,0 5.81016,-2.68161 5.81016,-5.81016l0,-14.00397c0,-1.48978 1.19183,-2.83059 2.83059,-2.83059c1.48978,0.14898 2.68161,1.34081 2.68161,2.83059l-0.00001,0z" stroke="null" fill="#000000"/>
			<path id="svg_5" class="st0" d="m130.41779,38.31214c0,4.76731 -3.72446,8.49177 -8.34279,8.49177c-4.02242,0 -7.15096,-2.83059 -8.34279,-6.10811c-0.44694,-1.48978 0.74489,-2.97957 2.0857,-3.27752c1.48978,-0.29796 2.53263,0.89387 3.27752,2.0857c0.89387,1.48978 1.48978,1.63876 2.83059,1.63876c1.48978,0 2.83059,-1.34081 2.83059,-2.97957c0,-1.48978 -1.34081,-2.83059 -2.83059,-2.83059c-2.23468,0 -4.46935,-0.89387 -5.95913,-2.53263c-1.63876,-1.48978 -2.53263,-3.72446 -2.53263,-5.95913c0,-4.76731 3.72446,-8.34279 8.34279,-8.34279c3.87344,0 7.5979,2.68161 8.04483,5.81016c0.29796,1.48978 -0.59591,3.12855 -2.0857,3.27752c-1.48978,0.29796 -2.83059,-0.74489 -3.27752,-2.0857c-0.29796,-0.89387 -1.34081,-1.48978 -2.68161,-1.48978c-1.48978,0 -2.83059,1.34081 -2.83059,2.83059c0,1.48978 1.34081,2.83059 2.83059,2.83059c2.23468,0 4.46935,0.89387 5.95913,2.53263c1.93672,1.63876 2.68161,3.87344 2.68161,6.10811l0,0l0,-0.00001z" stroke="null" fill="#000000"/>
			<path id="svg_6" class="st0" d="m151.87068,21.17963c0,1.48978 -1.19183,2.83059 -2.83059,2.83059l-4.02242,0l0,19.81412c0,1.48978 -1.19183,2.83059 -2.83059,2.83059c-1.48978,0 -2.83059,-1.34081 -2.83059,-2.83059l0,-19.81412l-4.17139,0c-1.48978,0 -2.83059,-1.34081 -2.83059,-2.83059c0,-1.48978 1.19183,-2.83059 2.83059,-2.83059l4.17139,0l0,-11.32236c0,-1.48978 1.19183,-2.83059 2.83059,-2.83059c1.48978,0 2.83059,1.19183 2.83059,2.83059l0,11.32236l4.02242,0c1.63876,0.14898 2.83059,1.34081 2.83059,2.83059z" stroke="null" fill="#000000"/>
			<path id="svg_7" class="st0" d="m168.70523,21.17963c0,1.48978 -1.19183,2.83059 -2.83059,2.83059c-4.76731,0 -8.64074,3.72446 -8.64074,8.64074l0,11.32236c0,1.48978 -1.19183,2.83059 -2.83059,2.83059s-2.83059,-1.34081 -2.83059,-2.83059l0,-11.32236c0,-7.74687 6.40607,-14.15294 14.15294,-14.15294c1.78774,0 2.97957,1.19183 2.97957,2.68161l0,0z" stroke="null" fill="#000000"/>
			<path id="svg_8" class="st0" d="m196.41521,32.79994l0,11.0244c0,1.63876 -1.19183,2.83059 -2.83059,2.83059c-1.19183,0 -2.68161,-1.19183 -2.68161,-2.83059c-2.53263,2.0857 -5.06526,2.83059 -8.34279,2.83059c-8.04483,0 -14.30192,-5.95913 -14.30192,-13.85499s6.40607,-14.30192 14.30192,-14.30192c7.89585,0.14898 13.85499,6.40607 13.85499,14.30192l0,0zm-5.5122,0c0,-4.76731 -3.57548,-8.64074 -8.34279,-8.64074c-4.76731,0 -8.64074,4.02242 -8.64074,8.64074s4.02242,8.34279 8.64074,8.34279c4.76731,0 8.34279,-3.72446 8.34279,-8.34279z" stroke="null" fill="#000000"/>
			<path id="svg_9" class="st0" d="m215.63341,21.17963c0,1.48978 -1.19183,2.83059 -2.83059,2.83059l-4.02242,0l0,19.81412c0,1.48978 -1.19183,2.83059 -2.83059,2.83059c-1.48978,0 -2.83059,-1.34081 -2.83059,-2.83059l0,-19.81412l-4.17139,0c-1.48978,0 -2.83059,-1.34081 -2.83059,-2.83059c0,-1.48978 1.19183,-2.83059 2.83059,-2.83059l4.17139,0l0,-11.32236c0,-1.48978 1.19183,-2.83059 2.83059,-2.83059c1.48978,0 2.83059,1.19183 2.83059,2.83059l0,11.32236l4.02242,0c1.63876,0.14898 2.83059,1.34081 2.83059,2.83059z" stroke="null" fill="#000000"/>
			<path id="svg_10" class="st0" d="m219.95379,12.09195c-0.44694,-0.44694 -0.89387,-1.19183 -0.89387,-1.93672c0,-0.74489 0.29796,-1.48978 0.89387,-1.93672c0.44694,-0.44694 1.19183,-0.89387 1.93672,-0.89387s1.48978,0.29796 1.93672,0.89387c0.44694,0.44694 0.89387,1.19183 0.89387,1.93672c0,0.74489 -0.29796,1.48978 -0.89387,1.93672c-0.44694,0.44694 -1.19183,0.89387 -1.93672,0.89387s-1.48978,-0.44694 -1.93672,-0.89387zm-0.89387,31.88137l0,-22.79369c0,-1.48978 1.19183,-2.83059 2.83059,-2.83059s2.83059,1.19183 2.83059,2.83059l0,22.79369c0,1.48978 -1.19183,2.83059 -2.83059,2.83059c-1.48978,0 -2.83059,-1.34081 -2.83059,-2.83059z" stroke="null" fill="#000000"/>
			<path id="svg_11" class="st0" d="m227.84964,32.50198c0,-7.74687 6.40607,-14.15294 14.15294,-14.15294c7.74687,0 14.15294,6.40607 14.15294,14.15294s-6.40607,14.15294 -14.15294,14.15294c-7.89585,0 -14.15294,-6.25709 -14.15294,-14.15294zm5.66118,0c0,4.76731 3.72446,8.64074 8.64074,8.64074c4.76731,0 8.64074,-3.87344 8.64074,-8.64074s-3.72446,-8.64074 -8.64074,-8.64074c-4.91629,0.14898 -8.64074,4.02242 -8.64074,8.64074z" stroke="null" fill="#000000"/>
			<path id="svg_12" class="st0" d="m287.73894,32.50198l0,11.32236c0,1.48978 -1.19183,2.83059 -2.83059,2.83059c-1.48978,0 -2.83059,-1.19183 -2.83059,-2.83059l0,-11.32236c0,-4.76731 -3.72446,-8.64074 -8.64074,-8.64074c-4.76731,0 -8.64074,3.72446 -8.64074,8.64074l0,11.32236c0,1.48978 -1.19183,2.83059 -2.83059,2.83059c-1.48978,0 -2.83059,-1.19183 -2.83059,-2.83059l0,-11.32236c0,-7.74687 6.40607,-14.15294 14.15294,-14.15294c8.19381,0.14898 14.4509,6.40607 14.4509,14.15294z" stroke="null" fill="#000000"/>
			<path id="svg_13" class="st0" d="m308,38.31214c0,4.76731 -3.72446,8.49177 -8.34279,8.49177c-4.02242,0 -7.15096,-2.83059 -8.34279,-6.10811c-0.44694,-1.48978 0.74489,-2.97957 2.0857,-3.27752c1.48978,-0.29796 2.53263,0.89387 3.27752,2.0857c0.89387,1.48978 1.48978,1.63876 2.83059,1.63876c1.48978,0 2.83059,-1.34081 2.83059,-2.97957c0,-1.48978 -1.34081,-2.83059 -2.83059,-2.83059c-2.23468,0 -4.46935,-0.89387 -5.95913,-2.53263c-1.63876,-1.48978 -2.53263,-3.72446 -2.53263,-5.95913c0,-4.76731 3.72446,-8.34279 8.34279,-8.34279c3.87344,0 7.5979,2.68161 8.04483,5.81016c0.29796,1.48978 -0.59591,3.12855 -2.0857,3.27752c-1.48978,0.29796 -2.83059,-0.74489 -3.27752,-2.0857c-0.29796,-0.89387 -1.34081,-1.48978 -2.68161,-1.48978c-1.48978,0 -2.83059,1.34081 -2.83059,2.83059c0,1.48978 1.34081,2.83059 2.83059,2.83059c2.23468,0 4.46935,0.89387 5.95913,2.53263c1.93672,1.63876 2.68161,3.87344 2.68161,6.10811l0,0l0,-0.00001z" stroke="null" fill="#000000"/>
		</g>
		<g stroke="null" id="svg_37">
			<g stroke="null" transform="matrix(0.10079365666460141,0,0,0.10079365666460141,-0.4535166301396618,-103.33589024504127) " id="svg_20">
				<g stroke="null" id="svg_21">
					<path stroke="null" id="svg_22" d="m445.88602,1188.92689c-22,-24.3 -49,-42.9 -78.9,-54.7l104.9,0c3.8,0 6.8,-3.1 6.8,-6.8c0,-3.8 -3.1,-6.8 -6.8,-6.8l-161.1,0c-0.5,0 -1,0 -1.4,0.1c0,0 -0.1,0 -0.1,0c-0.2,0 -0.4,0.1 -0.5,0.1c-0.1,0 -0.2,0.1 -0.3,0.1c-0.1,0 -0.2,0.1 -0.3,0.1c-0.1,0.1 -0.3,0.1 -0.4,0.2c-0.1,0 -0.1,0.1 -0.2,0.1c-0.1,0.1 -0.3,0.1 -0.4,0.2c-0.1,0 -0.1,0.1 -0.2,0.1c-0.1,0.1 -0.2,0.2 -0.3,0.2c-0.1,0 -0.1,0.1 -0.2,0.1c-0.1,0.1 -0.2,0.2 -0.3,0.2c-0.1,0.1 -0.2,0.1 -0.2,0.2c-0.1,0.1 -0.1,0.1 -0.2,0.2c-0.1,0.1 -0.2,0.2 -0.2,0.3c-0.1,0.1 -0.1,0.1 -0.1,0.2c-0.1,0.1 -0.2,0.2 -0.2,0.3c0,0.1 -0.1,0.1 -0.1,0.2c-0.1,0.1 -0.2,0.3 -0.2,0.4c0,0.1 -0.1,0.1 -0.1,0.2c-0.1,0.1 -0.1,0.3 -0.2,0.4c0,0.1 -0.1,0.2 -0.1,0.3c0,0.1 -0.1,0.2 -0.1,0.4c0,0.1 -0.1,0.3 -0.1,0.4c0,0.1 -0.1,0.2 -0.1,0.3c0,0.2 -0.1,0.3 -0.1,0.5c0,0.1 0,0.1 0,0.2c0,0 0,0 0,0c0,0.1 0,0.2 0,0.3c0,0.1 0,0.3 0,0.4l0,0c0,0 0,0 0,0c0,0.2 0,0.4 0,0.7c0,0.1 0,0.1 0,0.2c0,0.2 0,0.3 0.1,0.5c0,0.1 0.1,0.2 0.1,0.4c0,0.1 0,0.2 0.1,0.3c0.1,0.2 0.1,0.3 0.2,0.5c0,0 0,0.1 0.1,0.1c0.1,0.2 0.2,0.3 0.2,0.5c0,0 0,0.1 0,0.1c0.1,0.2 0.2,0.3 0.3,0.5c0,0 0,0 0,0.1c0.1,0.2 0.2,0.3 0.3,0.5c0,0 0,0 0,0.1c0.1,0.1 0.2,0.3 0.4,0.4c0,0 0,0.1 0.1,0.1c0.1,0.1 0.3,0.2 0.4,0.4c0,0 0.1,0.1 0.1,0.1c0.1,0.1 0.3,0.2 0.4,0.3c0,0 0.1,0.1 0.1,0.1c0.2,0.1 0.3,0.2 0.5,0.3c0,0 0,0 0.1,0c0.8,0.4 1.7,0.7 2.6,0.8c48.3,5.1 92.9,27.8 125.7,63.9c33,36.4 51.2,83.6 51.2,132.8c0,3.8 3.1,6.8 6.8,6.8s6.8,-3.1 6.8,-6.8c-0.1,-52.8 -19.6,-103.2 -54.9,-142.1z" class="st0" fill="#000000"/>
					<path stroke="null" id="svg_23" d="m273.08602,1131.52689c0.1,-0.1 0.2,-0.3 0.3,-0.4c0,0 0,-0.1 0.1,-0.1c0.1,-0.2 0.2,-0.3 0.3,-0.5c0,0 0,-0.1 0.1,-0.1c0.1,-0.2 0.2,-0.3 0.2,-0.5c0,-0.1 0.1,-0.1 0.1,-0.2c0.1,-0.1 0.1,-0.3 0.1,-0.4c0,-0.1 0.1,-0.2 0.1,-0.4c0,-0.1 0.1,-0.2 0.1,-0.3c0,-0.2 0.1,-0.4 0.1,-0.6c0,0 0,0 0,-0.1c0,-0.4 0,-0.8 0,-1.3c0,0 0,-0.1 0,-0.1c0,0 0,0 0,0c0,-0.1 0,-0.2 -0.1,-0.3c0,-0.1 0,-0.2 -0.1,-0.3c0,-0.2 -0.1,-0.3 -0.1,-0.5c0,-0.1 0,-0.1 -0.1,-0.2c-0.1,-0.2 -0.1,-0.4 -0.2,-0.6c0,0 0,0 0,0c-0.4,-1 -1.1,-1.9 -1.9,-2.6c0,0 0,0 0,0c-0.1,-0.1 -0.3,-0.2 -0.5,-0.3c0,0 -0.1,0 -0.1,-0.1c-0.1,-0.1 -0.3,-0.2 -0.4,-0.3c0,0 -0.1,-0.1 -0.1,-0.1c-0.2,-0.1 -0.3,-0.2 -0.5,-0.2c0,0 -0.1,0 -0.1,-0.1c-0.2,-0.1 -0.4,-0.1 -0.5,-0.2c0,0 -0.1,0 -0.1,0c-0.7,-0.2 -1.4,-0.3 -2.1,-0.3l-161.2,0c-3.8,0 -6.8,3.1 -6.8,6.8s3.1,6.8 6.8,6.8l104.9,0c-29.9,11.8 -56.9,30.4 -78.9,54.7c-35.3,38.9 -54.7,89.3 -54.7,141.9c0,3.8 3.1,6.8 6.8,6.8s6.8,-3.1 6.8,-6.8c0,-49.2 18.2,-96.3 51.2,-132.8c32.8,-36.2 77.4,-58.8 125.7,-63.9c1,-0.1 1.8,-0.4 2.6,-0.8c0,0 0.1,0 0.1,-0.1c0.2,-0.1 0.3,-0.2 0.5,-0.3c0,0 0.1,-0.1 0.1,-0.1c0.1,-0.1 0.3,-0.2 0.4,-0.3c0,0 0.1,-0.1 0.1,-0.1c0.1,-0.1 0.2,-0.2 0.4,-0.3c0,0 0.1,-0.1 0.1,-0.1c0.1,-0.1 0.2,-0.2 0.3,-0.4c0.1,0.2 0.1,0.2 0.2,0.1z" class="st0" fill="#000000"/>
				</g>
				<g stroke="null" id="svg_24">
					<path stroke="null" id="svg_25" d="m84.98602,1098.32689c-15.7,0 -28.4,12.7 -28.4,28.4c0,15.6 12.7,28.4 28.4,28.4s28.4,-12.7 28.4,-28.4c-0.1,-15.7 -12.8,-28.4 -28.4,-28.4z" class="st0" fill="#000000"/>
					<path stroke="null" id="svg_26" d="m493.48602,1098.32689c-15.6,0 -28.4,12.7 -28.4,28.4s12.7,28.4 28.4,28.4c15.6,0 28.4,-12.7 28.4,-28.4s-12.8,-28.4 -28.4,-28.4z" class="st0" fill="#000000"/>
				</g>
				<g stroke="null" id="svg_27">
					<path stroke="null" id="svg_28" d="m106.48602,1324.22689l-43.1,0c-3.8,0 -6.8,3.1 -6.8,6.8l0,43.1c0,3.8 3.1,6.8 6.8,6.8l43.1,0c3.8,0 6.8,-3.1 6.8,-6.8l0,-43.1c0.1,-3.7 -3,-6.8 -6.8,-6.8z" class="st0" fill="#000000"/>
					<path stroke="null" id="svg_29" d="m515.78602,1324.22689l-43.1,0c-3.8,0 -6.8,3.1 -6.8,6.8l0,43.1c0,3.8 3.1,6.8 6.8,6.8l43.1,0c3.8,0 6.8,-3.1 6.8,-6.8l0,-43.1c0,-3.7 -3.1,-6.8 -6.8,-6.8z" class="st0" fill="#000000"/>
					<path stroke="null" id="svg_30" d="m413.18602,1343.12689l-118.1,-198.4c-1.2,-2.1 -3.5,-3.3 -5.9,-3.3s-4.6,1.3 -5.9,3.3l-118.1,198.4c-1.3,2.2 -1.3,4.8 0,7l49.5,83.4c1.2,2.1 3.5,3.3 5.9,3.3l137.2,0c2.4,0 4.6,-1.3 5.9,-3.3l49.5,-83.4c1.3,-2.1 1.3,-4.8 0,-7zm-124,-37.6c11.3,0 20.5,9.2 20.5,20.5c0,11.3 -9.2,20.5 -20.5,20.5c-11.3,0 -20.5,-9.2 -20.5,-20.5c0,-11.3 9.2,-20.5 20.5,-20.5z" class="st0" fill="#000000"/>
				</g>
				<path stroke="null" id="svg_31" d="m413.18602,1343.12689l-118.1,-198.4c-1.2,-2.1 -3.5,-3.3 -5.9,-3.3s-4.6,1.3 -5.9,3.3l-9.5,15.9l110.7,186l-53.6,90.2l26.8,0c2.4,0 4.6,-1.3 5.9,-3.3l49.5,-83.4c1.4,-2.1 1.4,-4.8 0.1,-7z" class="st0" fill="#000000"/>
				<path stroke="null" id="svg_32" d="m378.68602,1423.12689l-179,0c-3.8,0 -6.8,3.1 -6.8,6.8l0,54.6c0,3.8 3.1,6.8 6.8,6.8l178.9,0c3.8,0 6.8,-3.1 6.8,-6.8l0,-54.6c0.1,-3.7 -2.9,-6.8 -6.7,-6.8z" class="st0" fill="#000000"/>
				<path stroke="null" id="svg_33" d="m378.68602,1423.12689l-22.8,0l0,68.3l22.8,0c3.8,0 6.8,-3.1 6.8,-6.8l0,-54.6c0,-3.8 -3,-6.9 -6.8,-6.9z" class="st0" fill="#000000"/>
				<path stroke="null" id="svg_34" d="m288.18602,1141.52689c-0.2,0 -0.4,0.1 -0.6,0.1c-0.1,0 -0.1,0 -0.2,0.1c-0.2,0.1 -0.5,0.1 -0.7,0.2c0,0 0,0 -0.1,0c-0.3,0.1 -0.5,0.2 -0.7,0.4c0,0 -0.1,0.1 -0.1,0.1c-0.2,0.1 -0.4,0.2 -0.5,0.3c-0.1,0 -0.1,0.1 -0.2,0.1c-0.2,0.1 -0.3,0.3 -0.5,0.4c0,0 -0.1,0.1 -0.1,0.1c-0.2,0.2 -0.4,0.4 -0.5,0.6c0,0.1 -0.1,0.1 -0.1,0.2c-0.1,0.2 -0.2,0.3 -0.4,0.5c-0.6,1 -1,2.3 -1,3.6l0,157.3c0,0.4 0,0.8 0.1,1.1c2.1,-0.7 4.4,-1.1 6.7,-1.1s4.6,0.4 6.7,1.1c0.1,-0.4 0.1,-0.7 0.1,-1.1l0,-157.3c0,-1.3 -0.4,-2.5 -1,-3.6c-0.1,-0.2 -0.2,-0.4 -0.4,-0.5c0,-0.1 -0.1,-0.1 -0.1,-0.2c-0.2,-0.2 -0.3,-0.4 -0.5,-0.6c0,0 -0.1,-0.1 -0.1,-0.1c-0.2,-0.1 -0.3,-0.3 -0.5,-0.4c-0.1,0 -0.1,-0.1 -0.2,-0.1c-0.2,-0.1 -0.3,-0.2 -0.5,-0.3c0,0 -0.1,-0.1 -0.1,-0.1c-0.2,-0.1 -0.5,-0.3 -0.7,-0.4c0,0 0,0 -0.1,0c-0.2,-0.1 -0.5,-0.2 -0.7,-0.2c-0.1,0 -0.1,0 -0.2,-0.1c-0.2,0 -0.4,-0.1 -0.6,-0.1c-0.1,0 -0.1,0 -0.2,0c-0.3,0 -0.5,-0.1 -0.8,-0.1c-0.3,0 -0.5,0 -0.8,0.1c-0.3,-0.1 -0.3,-0.1 -0.4,0z" class="st0" fill="#000000"/>
				<path stroke="null" id="svg_35" d="m288.18602,1141.52689c-0.1,0 -0.2,0 -0.3,0.1c-0.1,0 -0.2,0 -0.3,0.1c-0.1,0 -0.1,0 -0.2,0.1c0,0 0,0 0,0c-0.2,0.1 -0.4,0.1 -0.6,0.2c0,0 0,0 -0.1,0c-0.3,0.1 -0.5,0.2 -0.7,0.4c0,0 -0.1,0.1 -0.1,0.1c-0.1,0.1 -0.2,0.2 -0.4,0.2c-0.1,0 -0.1,0.1 -0.2,0.1c-0.1,0 -0.1,0.1 -0.2,0.1c-0.2,0.1 -0.3,0.3 -0.5,0.4c0,0 -0.1,0.1 -0.1,0.1c-0.2,0.2 -0.4,0.4 -0.5,0.6c0,0.1 -0.1,0.1 -0.1,0.2c-0.1,0.1 -0.1,0.2 -0.2,0.3c-0.1,0.1 -0.1,0.1 -0.2,0.2c-0.6,1 -1,2.3 -1,3.6l0,26.8l13.7,23l0,-49.7c0,-1.3 -0.4,-2.5 -1,-3.6c0,-0.1 -0.1,-0.1 -0.2,-0.2c-0.1,-0.1 -0.1,-0.2 -0.2,-0.3c0,-0.1 -0.1,-0.1 -0.1,-0.2c-0.2,-0.2 -0.3,-0.4 -0.5,-0.6c0,0 -0.1,-0.1 -0.1,-0.1c-0.1,-0.1 -0.2,-0.2 -0.3,-0.2c-0.1,-0.1 -0.1,-0.1 -0.2,-0.2c-0.1,0 -0.1,-0.1 -0.2,-0.1c-0.1,0 -0.1,-0.1 -0.2,-0.1c-0.1,-0.1 -0.2,-0.2 -0.4,-0.2c0,0 -0.1,-0.1 -0.1,-0.1c-0.2,-0.1 -0.5,-0.3 -0.7,-0.4c0,0 0,0 -0.1,0c-0.1,-0.1 -0.3,-0.1 -0.4,-0.1c-0.1,0 -0.2,-0.1 -0.3,-0.1c-0.1,0 -0.1,0 -0.2,-0.1c-0.2,0 -0.4,-0.1 -0.6,-0.1c-0.1,0 -0.1,0 -0.2,0c-0.3,0 -0.5,-0.1 -0.8,-0.1c-0.3,0 -0.5,0 -0.8,0.1c-0.3,-0.3 -0.3,-0.3 -0.4,-0.2z" class="st0" fill="#000000"/>
				<path stroke="null" id="svg_36" d="m310.78602,1097.42689l-43.1,0c-3.8,0 -6.8,3.1 -6.8,6.8l0,43.1c0,3.8 3.1,6.8 6.8,6.8l43.1,0c3.8,0 6.8,-3.1 6.8,-6.8l0,-43.1c0,-3.7 -3.1,-6.8 -6.8,-6.8z" class="st0" fill="#000000"/>
			</g>
		</g>
	</g>
</svg>