<svg width="312" height="51" version="1.1" id="Layer_1"
	xmlns="http://www.w3.org/2000/svg"
	xmlns:xlink="http://www.w3.org/1999/xlink" x="0px" y="0px" viewBox="0 0 312 51" style="enable-background:new 0 0 312 51;" xml:space="preserve">
	<style type="text/css">
	.st0{fill:url(#SVGID_1_);}
	.st1{fill:url(#SVGID_2_);}
	.st2{fill:url(#SVGID_3_);}
	.st3{fill:url(#SVGID_4_);}
	.st4{fill:url(#SVGID_5_);}
	.st5{fill:url(#SVGID_6_);}
	.st6{fill:url(#SVGID_7_);}
	.st7{fill:url(#SVGID_8_);}
	.st8{fill:url(#SVGID_9_);}
	</style>
	<path id="svg_1" d="M62,12.1c-0.4-0.4-0.9-1.2-0.9-1.9s0.3-1.5,0.9-1.9c0.4-0.6,1.2-0.9,1.9-0.9c0.7,0,1.5,0.3,1.9,0.9
	c0.4,0.4,0.9,1.2,0.9,1.9s-0.3,1.5-0.9,2.1s-1.2,0.9-1.9,0.9C63.2,12.8,62.6,12.5,62,12.1z M61.2,44V21.2c0-1.5,1.2-2.8,2.8-2.8
	c1.5,0,2.8,1.2,2.8,2.8V44c0,1.5-1.2,2.8-2.8,2.8C62.4,46.8,61.2,45.5,61.2,44z"/>
	<path id="svg_2" d="M70.2,44V7.3c0-1.5,1.2-2.8,2.8-2.8c1.5,0,2.8,1.2,2.8,2.8V44c0,1.5-1.2,2.8-2.8,2.8
	C71.4,46.8,70.2,45.5,70.2,44z"/>
	<path id="svg_3" d="M79.3,44V7.3c0-1.5,1.2-2.8,2.8-2.8c1.5,0,2.8,1.2,2.8,2.8V44c0,1.5-1.2,2.8-2.8,2.8
	C80.6,46.8,79.3,45.5,79.3,44z"/>
	<path id="svg_4" d="M111.2,21.2v14.2v0.1c-0.1,6.3-5.1,11.3-11.5,11.3c-6.3,0-11.3-5.1-11.3-11.3v-0.1V21.2c0-1.5,1.2-2.8,2.8-2.8
	s2.8,1.2,2.8,2.8v14c0,3.1,2.5,5.8,5.8,5.8c3.3,0,5.8-2.7,5.8-5.8v-14c0-1.5,1.2-2.8,2.8-2.8C110,18.5,111.2,19.7,111.2,21.2
	L111.2,21.2z"/>
	<path id="svg_5" d="M131.4,38.3c0,4.8-3.7,8.5-8.3,8.5c-4,0-7.2-2.8-8.3-6.1c-0.4-1.5,0.7-3,2.1-3.3c1.5-0.3,2.5,0.9,3.3,2.1
	c0.9,1.5,1.5,1.6,2.8,1.6c1.5,0,2.8-1.3,2.8-3c0-1.5-1.3-2.8-2.8-2.8c-2.2,0-4.5-0.9-6-2.5c-1.6-1.5-2.5-3.7-2.5-6
	c0-4.8,3.7-8.3,8.3-8.3c3.9,0,7.6,2.7,8,5.8c0.3,1.5-0.6,3.1-2.1,3.3c-1.5,0.3-2.8-0.7-3.3-2.1c-0.3-0.9-1.3-1.5-2.7-1.5
	c-1.5,0-2.8,1.3-2.8,2.8c0,1.5,1.3,2.8,2.8,2.8c2.2,0,4.5,0.9,6,2.5C130.7,33.8,131.4,36.1,131.4,38.3L131.4,38.3L131.4,38.3z"/>
	<path id="svg_6" d="M152.9,21.2c0,1.5-1.2,2.8-2.8,2.8h-4v19.8c0,1.5-1.2,2.8-2.8,2.8c-1.5,0-2.8-1.3-2.8-2.8V24h-4.2
	c-1.5,0-2.8-1.3-2.8-2.8c0-1.5,1.2-2.8,2.8-2.8h4.2V7c0-1.5,1.2-2.8,2.8-2.8c1.5,0,2.8,1.2,2.8,2.8v11.3h4
	C151.7,18.5,152.9,19.7,152.9,21.2z"/>
	<path id="svg_7" d="M169.7,21.2c0,1.5-1.2,2.8-2.8,2.8c-4.8,0-8.6,3.7-8.6,8.6V44c0,1.5-1.2,2.8-2.8,2.8s-2.8-1.3-2.8-2.8V32.7
	c0-7.7,6.4-14.2,14.2-14.2C168.5,18.5,169.7,19.7,169.7,21.2L169.7,21.2L169.7,21.2z"/>
	<path id="svg_8" d="M197.4,32.8v11c0,1.6-1.2,2.8-2.8,2.8c-1.2,0-2.7-1.2-2.7-2.8c-2.5,2.1-5.1,2.8-8.3,2.8c-8,0-14.3-6-14.3-13.9
	s6.4-14.3,14.3-14.3C191.5,18.6,197.4,24.9,197.4,32.8C197.4,32.8,197.4,32.8,197.4,32.8z M191.9,32.8c0-4.8-3.6-8.6-8.3-8.6
	s-8.6,4-8.6,8.6s4,8.3,8.6,8.3C188.3,41.1,191.9,37.4,191.9,32.8z"/>
	<path id="svg_9" d="M216.6,21.2c0,1.5-1.2,2.8-2.8,2.8h-4v19.8c0,1.5-1.2,2.8-2.8,2.8c-1.5,0-2.8-1.3-2.8-2.8V24h-4.2
	c-1.5,0-2.8-1.3-2.8-2.8c0-1.5,1.2-2.8,2.8-2.8h4.2V7c0-1.5,1.2-2.8,2.8-2.8c1.5,0,2.8,1.2,2.8,2.8v11.3h4
	C215.4,18.5,216.6,19.7,216.6,21.2z"/>
	<path id="svg_10" d="M221,12.1c-0.4-0.4-0.9-1.2-0.9-1.9s0.3-1.5,0.9-1.9c0.4-0.4,1.2-0.9,1.9-0.9s1.5,0.3,1.9,0.9
	c0.4,0.4,0.9,1.2,0.9,1.9s-0.3,1.5-0.9,1.9c-0.4,0.4-1.2,0.9-1.9,0.9S221.4,12.5,221,12.1z M220.1,44V21.2c0-1.5,1.2-2.8,2.8-2.8
	s2.8,1.2,2.8,2.8V44c0,1.5-1.2,2.8-2.8,2.8C221.4,46.8,220.1,45.5,220.1,44z"/>
	<path id="svg_11" d="M228.8,32.5c0-7.7,6.4-14.2,14.2-14.2s14.2,6.4,14.2,14.2s-6.4,14.2-14.2,14.2
	C235.1,46.7,228.8,40.4,228.8,32.5z M234.5,32.5c0,4.8,3.7,8.6,8.6,8.6c4.8,0,8.6-3.9,8.6-8.6s-3.7-8.6-8.6-8.6
	C238.2,24,234.5,27.9,234.5,32.5z"/>
	<path id="svg_12" d="M288.7,32.5v11.3c0,1.5-1.2,2.8-2.8,2.8c-1.5,0-2.8-1.2-2.8-2.8V32.5c0-4.8-3.7-8.6-8.6-8.6
	c-4.8,0-8.6,3.7-8.6,8.6v11.3c0,1.5-1.2,2.8-2.8,2.8c-1.5,0-2.8-1.2-2.8-2.8V32.5c0-7.7,6.4-14.2,14.2-14.2
	C282.5,18.5,288.7,24.8,288.7,32.5L288.7,32.5z"/>
	<path id="svg_13" d="M309,38.3c0,4.8-3.7,8.5-8.3,8.5c-4,0-7.2-2.8-8.3-6.1c-0.4-1.5,0.7-3,2.1-3.3c1.5-0.3,2.5,0.9,3.3,2.1
	c0.9,1.5,1.5,1.6,2.8,1.6c1.5,0,2.8-1.3,2.8-3c0-1.5-1.3-2.8-2.8-2.8c-2.2,0-4.5-0.9-6-2.5c-1.6-1.5-2.5-3.7-2.5-6
	c0-4.8,3.7-8.3,8.3-8.3c3.9,0,7.6,2.7,8,5.8c0.3,1.5-0.6,3.1-2.1,3.3c-1.5,0.3-2.8-0.7-3.3-2.1c-0.3-0.9-1.3-1.5-2.7-1.5
	c-1.5,0-2.8,1.3-2.8,2.8c0,1.5,1.3,2.8,2.8,2.8c2.2,0,4.5,0.9,6,2.5C308.3,33.8,309,36.1,309,38.3L309,38.3L309,38.3z"/>
	<linearGradient id="SVGID_1_" gradientUnits="userSpaceOnUse" x1="30.2886" y1="18.4492" x2="51.5492" y2="18.4492">
		<stop offset="0" style="stop-color:#EE4337"/>
		<stop offset="0.2" style="stop-color:#B8001F"/>
		<stop offset="0.4" style="stop-color:#EC2311"/>
		<stop offset="0.6" style="stop-color:#EE0A09"/>
		<stop offset="0.8" style="stop-color:#FC2D27"/>
		<stop offset="1" style="stop-color:#C5151A"/>
	</linearGradient>
	<path class="st0" d="M45.6,14.1c-2.4-2.6-5.3-4.6-8.5-5.9h11.3c0.4,0,0.7-0.3,0.7-0.7c0-0.4-0.3-0.7-0.7-0.7H31c-0.1,0-0.1,0-0.2,0
	h0c0,0,0,0-0.1,0s0,0,0,0c0,0,0,0,0,0c0,0,0,0,0,0c0,0,0,0,0,0c0,0,0,0,0,0c0,0,0,0,0,0c0,0,0,0,0,0c0,0,0,0,0,0c0,0,0,0,0,0
	c0,0,0,0,0,0c0,0,0,0,0,0c0,0,0,0,0,0c0,0,0,0,0,0c0,0,0,0,0,0c0,0,0,0,0,0c0,0,0,0,0,0c0,0,0,0,0,0c0,0,0,0,0,0c0,0,0,0,0,0
	c0,0,0,0,0,0c0,0,0,0,0,0c0,0,0,0,0,0c0,0,0,0,0,0.1c0,0,0,0,0,0l0,0c0,0,0,0,0,0c0,0,0,0,0,0l0,0l0,0c0,0,0,0,0,0.1c0,0,0,0,0,0
	c0,0,0,0,0,0.1c0,0,0,0,0,0c0,0,0,0,0,0c0,0,0,0,0,0.1c0,0,0,0,0,0c0,0,0,0,0,0.1v0c0,0,0,0,0,0.1c0,0,0,0,0,0c0,0,0,0,0,0.1
	c0,0,0,0,0,0c0,0,0,0,0,0c0,0,0,0,0,0c0,0,0,0,0,0l0,0c0,0,0,0,0,0l0,0c0,0,0,0,0.1,0c0,0,0,0,0,0c0.1,0,0.2,0.1,0.3,0.1
	c5.2,0.6,10,3,13.6,6.9c3.6,3.9,5.5,9,5.5,14.4c0,0.4,0.3,0.7,0.7,0.7c0.4,0,0.7-0.3,0.7-0.7C51.5,23.7,49.4,18.3,45.6,14.1z"/>
	<linearGradient id="SVGID_2_" gradientUnits="userSpaceOnUse" x1="5.8053" y1="18.4167" x2="27.0876" y2="18.4167">
		<stop offset="0" style="stop-color:#EE4337"/>
		<stop offset="0.2" style="stop-color:#B8001F"/>
		<stop offset="0.4" style="stop-color:#EC2311"/>
		<stop offset="0.6" style="stop-color:#EE0A09"/>
		<stop offset="0.8" style="stop-color:#FC2D27"/>
		<stop offset="1" style="stop-color:#C5151A"/>
	</linearGradient>
	<path class="st1" d="M26.9,7.9C26.9,7.9,26.9,7.9,26.9,7.9C27,7.8,27,7.8,26.9,7.9C27,7.8,27,7.8,27,7.8c0,0,0,0,0,0c0,0,0,0,0-0.1
	c0,0,0,0,0,0c0,0,0,0,0,0c0,0,0,0,0,0c0,0,0,0,0,0c0,0,0,0,0-0.1c0,0,0,0,0,0c0,0,0-0.1,0-0.1v0l0,0c0,0,0,0,0,0c0,0,0,0,0,0
	c0,0,0,0,0-0.1c0,0,0,0,0,0c0,0,0,0,0-0.1l0,0c0-0.1-0.1-0.2-0.2-0.3l0,0c0,0,0,0-0.1,0c0,0,0,0,0,0c0,0,0,0,0,0l0,0c0,0,0,0-0.1,0
	c0,0,0,0,0,0c0,0,0,0-0.1,0h0c-0.1,0-0.2,0-0.2,0H8.9C8.5,6.7,8.2,7,8.2,7.4c0,0.4,0.3,0.7,0.7,0.7h11.3c-3.2,1.3-6.2,3.3-8.5,5.9
	c-3.8,4.2-5.9,9.7-5.9,15.3c0,0.4,0.3,0.7,0.7,0.7s0.7-0.3,0.7-0.7c0-5.3,2-10.4,5.5-14.4c3.5-3.9,8.4-6.4,13.6-6.9
	c0.1,0,0.2,0,0.3-0.1c0,0,0,0,0,0c0,0,0,0,0.1,0l0,0c0,0,0,0,0,0l0,0C26.8,7.9,26.8,7.9,26.9,7.9L26.9,7.9
	C26.9,7.9,26.9,7.9,26.9,7.9C26.9,7.9,26.9,7.9,26.9,7.9z"/>
	<linearGradient id="SVGID_3_" gradientUnits="userSpaceOnUse" x1="3.5127" y1="7.3646" x2="9.6552" y2="7.3646">
		<stop offset="0" style="stop-color:#EE4337"/>
		<stop offset="0.2" style="stop-color:#B8001F"/>
		<stop offset="0.4" style="stop-color:#EC2311"/>
		<stop offset="0.6" style="stop-color:#EE0A09"/>
		<stop offset="0.8" style="stop-color:#FC2D27"/>
		<stop offset="1" style="stop-color:#C5151A"/>
	</linearGradient>
	<path class="st2" d="M6.6,4.3c-1.7,0-3.1,1.4-3.1,3.1c0,1.7,1.4,3.1,3.1,3.1s3.1-1.4,3.1-3.1C9.6,5.7,8.3,4.3,6.6,4.3z"/>
	<linearGradient id="SVGID_4_" gradientUnits="userSpaceOnUse" x1="47.6886" y1="7.3646" x2="53.831" y2="7.3646">
		<stop offset="0" style="stop-color:#EE4337"/>
		<stop offset="0.2" style="stop-color:#B8001F"/>
		<stop offset="0.4" style="stop-color:#EC2311"/>
		<stop offset="0.6" style="stop-color:#EE0A09"/>
		<stop offset="0.8" style="stop-color:#FC2D27"/>
		<stop offset="1" style="stop-color:#C5151A"/>
	</linearGradient>
	<path class="st3" d="M50.8,4.3c-1.7,0-3.1,1.4-3.1,3.1s1.4,3.1,3.1,3.1c1.7,0,3.1-1.4,3.1-3.1S52.4,4.3,50.8,4.3z"/>
	<linearGradient id="SVGID_5_" gradientUnits="userSpaceOnUse" x1="3.5127" y1="31.7884" x2="9.6446" y2="31.7884">
		<stop offset="0" style="stop-color:#EE4337"/>
		<stop offset="0.2" style="stop-color:#B8001F"/>
		<stop offset="0.4" style="stop-color:#EC2311"/>
		<stop offset="0.6" style="stop-color:#EE0A09"/>
		<stop offset="0.8" style="stop-color:#FC2D27"/>
		<stop offset="1" style="stop-color:#C5151A"/>
	</linearGradient>
	<path class="st4" d="M8.9,28.7H4.2c-0.4,0-0.7,0.3-0.7,0.7v4.7c0,0.4,0.3,0.7,0.7,0.7h4.7c0.4,0,0.7-0.3,0.7-0.7v-4.7
	C9.7,29.1,9.3,28.7,8.9,28.7z"/>
	<linearGradient id="SVGID_6_" gradientUnits="userSpaceOnUse" x1="47.7751" y1="31.7884" x2="53.9067" y2="31.7884">
		<stop offset="0" style="stop-color:#EE4437"/>
		<stop offset="0.2" style="stop-color:#B80B26"/>
		<stop offset="0.4" style="stop-color:#EC2411"/>
		<stop offset="0.6" style="stop-color:#EE0B09"/>
		<stop offset="0.8" style="stop-color:#FC2E27"/>
		<stop offset="1" style="stop-color:#C51518"/>
	</linearGradient>
	<path class="st5" d="M53.2,28.7h-4.7c-0.4,0-0.7,0.3-0.7,0.7v4.7c0,0.4,0.3,0.7,0.7,0.7h4.7c0.4,0,0.7-0.3,0.7-0.7v-4.7
	C53.9,29.1,53.6,28.7,53.2,28.7z"/>
	<linearGradient id="SVGID_7_" gradientUnits="userSpaceOnUse" x1="18.2524" y1="43.1109" x2="39.0805" y2="43.1109">
		<stop offset="0" style="stop-color:#EE4337"/>
		<stop offset="0.2" style="stop-color:#B8001F"/>
		<stop offset="0.4" style="stop-color:#EC2311"/>
		<stop offset="0.6" style="stop-color:#EE0A09"/>
		<stop offset="0.8" style="stop-color:#FC2D27"/>
		<stop offset="1" style="stop-color:#C5151A"/>
	</linearGradient>
	<path class="st6" d="M38.9,39.6c-0.1-0.1-0.3-0.2-0.5-0.2h-2.5H19c-0.4,0-0.7,0.3-0.7,0.7v5.9c0,0.4,0.3,0.7,0.7,0.7h16.9v0h2.5
	c0.4,0,0.7-0.3,0.7-0.7v-5.9C39.1,40,39,39.8,38.9,39.6z"/>
	<linearGradient id="SVGID_8_" gradientUnits="userSpaceOnUse" x1="15.1515" y1="24.9269" x2="42.1815" y2="24.9269">
		<stop offset="0" style="stop-color:#EE4337"/>
		<stop offset="0.2" style="stop-color:#B8001F"/>
		<stop offset="0.4" style="stop-color:#EC2311"/>
		<stop offset="0.6" style="stop-color:#EE0A09"/>
		<stop offset="0.8" style="stop-color:#FC2D27"/>
		<stop offset="1" style="stop-color:#C5151A"/>
	</linearGradient>
	<path class="st7" d="M42.1,30.8L29.3,9.4c0,0,0,0,0,0c0,0,0,0,0,0c0,0,0,0,0,0c0,0,0,0,0-0.1c0,0,0,0,0,0c0,0,0,0-0.1-0.1l0,0
	c0,0,0,0-0.1,0c0,0,0,0,0,0c0,0,0,0,0,0c0,0,0,0,0,0l0,0C29,9,29,9,29,9c0,0,0,0,0,0c0,0-0.1,0-0.1,0c0,0,0,0,0,0c0,0,0,0,0,0
	c0,0,0,0-0.1,0c0,0,0,0,0,0c0,0-0.1,0-0.1,0c0,0,0,0,0,0c0,0,0,0,0,0c0,0,0,0,0,0c0,0,0,0,0,0c0,0,0,0,0,0c0,0,0,0-0.1,0
	c0,0,0,0,0,0c0,0,0,0,0,0c0,0,0,0,0,0c0,0,0,0,0,0c0,0,0,0,0,0c0,0,0,0,0,0c0,0-0.1,0-0.1,0c0,0,0,0,0,0c0,0,0,0-0.1,0
	c-0.1,0-0.1,0.1-0.2,0.1c0,0,0,0,0,0l0,0c-0.1,0-0.1,0.1-0.1,0.2L27,11l0,0L15.3,30.8c-0.1,0.2-0.1,0.5,0,0.8l5.4,9
	c0.1,0.2,0.4,0.4,0.6,0.4h11.9l0,0h2.9c0,0,0,0,0,0h0c0.3,0,0.5-0.1,0.6-0.4l5.4-9C42.2,31.3,42.2,31,42.1,30.8z M28.7,31.1
	c-1.2,0-2.2-1-2.2-2.2c0-1,0.6-1.8,1.5-2.1c0,0,0.1,0,0.1,0c0,0,0,0,0,0c0,0,0.1,0,0.1,0c0,0,0,0,0,0c0,0,0.1,0,0.1,0
	c0,0,0.1,0,0.1,0c0,0,0,0,0.1,0c0.1,0,0.1,0,0.2,0c0,0,0,0,0,0c1.1,0.1,2,1.1,2,2.2C30.9,30.1,29.9,31.1,28.7,31.1z"/>
	<linearGradient id="SVGID_9_" gradientUnits="userSpaceOnUse" x1="25.606" y1="7.2619" x2="31.7377" y2="7.2619">
		<stop offset="0" style="stop-color:#EE4337"/>
		<stop offset="0.2" style="stop-color:#B8001F"/>
		<stop offset="0.4" style="stop-color:#EC2311"/>
		<stop offset="0.6" style="stop-color:#EE0A09"/>
		<stop offset="0.8" style="stop-color:#FC2D27"/>
		<stop offset="1" style="stop-color:#C5151A"/>
	</linearGradient>
	<path class="st8" d="M31,4.2h-4.7c-0.4,0-0.7,0.3-0.7,0.7v4.7c0,0.4,0.3,0.7,0.7,0.7H31c0.4,0,0.7-0.3,0.7-0.7V4.9
	C31.7,4.5,31.4,4.2,31,4.2z"/>
</svg>
