<svg width="312" height="51"
    xmlns="http://www.w3.org/2000/svg">
    <style type="text/css">.st0{fill:#100E27;}
	.st1{fill:#FFD039;}
	.st2{fill:#D81F30;}
	.st3{fill:#FFAE47;}
	.st4{fill:#881729;}</style>

    <g>
        <title>background</title>
        <rect fill="none" id="canvas_background" height="53" width="314" y="-1" x="-1"/>
    </g>
    <g>
        <title>Layer 1</title>
        <g stroke="null" id="svg_16">
            <g stroke="null" id="svg_14">
                <path stroke="null" d="m60.99388,12.09195c-0.44694,-0.44694 -0.89387,-1.19183 -0.89387,-1.93672c0,-0.74489 0.29796,-1.48978 0.89387,-1.93672c0.44694,-0.59591 1.19183,-0.89387 1.93672,-0.89387c0.74489,0 1.48978,0.29796 1.93672,0.89387c0.44694,0.44694 0.89387,1.19183 0.89387,1.93672c0,0.74489 -0.29796,1.48978 -0.89387,2.0857s-1.19183,0.89387 -1.93672,0.89387c-0.74489,-0.29796 -1.34081,-0.59591 -1.93672,-1.04285zm-0.74489,31.88137l0,-22.79369c0,-1.48978 1.19183,-2.83059 2.83059,-2.83059c1.48978,0 2.83059,1.19183 2.83059,2.83059l0,22.79369c0,1.48978 -1.19183,2.83059 -2.83059,2.83059c-1.63876,0 -2.83059,-1.34081 -2.83059,-2.83059z" class="st0" id="svg_1"/>
                <path stroke="null" d="m69.18769,43.97332l0,-36.64868c0,-1.48978 1.19183,-2.83059 2.83059,-2.83059c1.48978,0 2.83059,1.19183 2.83059,2.83059l0,36.64868c0,1.48978 -1.19183,2.83059 -2.83059,2.83059c-1.63876,0 -2.83059,-1.34081 -2.83059,-2.83059z" class="st0" id="svg_2"/>
                <path stroke="null" d="m78.27537,43.97332l0,-36.64868c0,-1.48978 1.19183,-2.83059 2.83059,-2.83059c1.48978,0 2.83059,1.19183 2.83059,2.83059l0,36.64868c0,1.48978 -1.19183,2.83059 -2.83059,2.83059c-1.48978,0 -2.83059,-1.34081 -2.83059,-2.83059z" class="st0" id="svg_3"/>
                <path stroke="null" d="m110.15674,21.17963l0,14.15294l0,0.14898c-0.14898,6.25709 -5.06526,11.32236 -11.47133,11.32236c-6.25709,0 -11.32236,-5.06526 -11.32236,-11.32236l0,-0.14898l0,-14.15294c0,-1.48978 1.19183,-2.83059 2.83059,-2.83059s2.83059,1.19183 2.83059,2.83059l0,14.00397c0,3.12855 2.53263,5.81016 5.81016,5.81016c3.27752,0 5.81016,-2.68161 5.81016,-5.81016l0,-14.00397c0,-1.48978 1.19183,-2.83059 2.83059,-2.83059c1.48978,0.14898 2.68161,1.34081 2.68161,2.83059z" class="st0" id="svg_4"/>
                <path stroke="null" d="m130.41779,38.31214c0,4.76731 -3.72446,8.49177 -8.34279,8.49177c-4.02242,0 -7.15096,-2.83059 -8.34279,-6.10811c-0.44694,-1.48978 0.74489,-2.97957 2.0857,-3.27752c1.48978,-0.29796 2.53263,0.89387 3.27752,2.0857c0.89387,1.48978 1.48978,1.63876 2.83059,1.63876c1.48978,0 2.83059,-1.34081 2.83059,-2.97957c0,-1.48978 -1.34081,-2.83059 -2.83059,-2.83059c-2.23468,0 -4.46935,-0.89387 -5.95913,-2.53263c-1.63876,-1.48978 -2.53263,-3.72446 -2.53263,-5.95913c0,-4.76731 3.72446,-8.34279 8.34279,-8.34279c3.87344,0 7.5979,2.68161 8.04483,5.81016c0.29796,1.48978 -0.59591,3.12855 -2.0857,3.27752c-1.48978,0.29796 -2.83059,-0.74489 -3.27752,-2.0857c-0.29796,-0.89387 -1.34081,-1.48978 -2.68161,-1.48978c-1.48978,0 -2.83059,1.34081 -2.83059,2.83059c0,1.48978 1.34081,2.83059 2.83059,2.83059c2.23468,0 4.46935,0.89387 5.95913,2.53263c1.93672,1.63876 2.68161,3.87344 2.68161,6.10811l0,0z" class="st0" id="svg_5"/>
                <path stroke="null" d="m151.87068,21.17963c0,1.48978 -1.19183,2.83059 -2.83059,2.83059l-4.02242,0l0,19.81412c0,1.48978 -1.19183,2.83059 -2.83059,2.83059c-1.48978,0 -2.83059,-1.34081 -2.83059,-2.83059l0,-19.81412l-4.17139,0c-1.48978,0 -2.83059,-1.34081 -2.83059,-2.83059c0,-1.48978 1.19183,-2.83059 2.83059,-2.83059l4.17139,0l0,-11.32236c0,-1.48978 1.19183,-2.83059 2.83059,-2.83059c1.48978,0 2.83059,1.19183 2.83059,2.83059l0,11.32236l4.02242,0c1.63876,0.14898 2.83059,1.34081 2.83059,2.83059z" class="st0" id="svg_6"/>
                <path stroke="null" d="m168.70523,21.17963c0,1.48978 -1.19183,2.83059 -2.83059,2.83059c-4.76731,0 -8.64074,3.72446 -8.64074,8.64074l0,11.32236c0,1.48978 -1.19183,2.83059 -2.83059,2.83059s-2.83059,-1.34081 -2.83059,-2.83059l0,-11.32236c0,-7.74687 6.40607,-14.15294 14.15294,-14.15294c1.78774,0 2.97957,1.19183 2.97957,2.68161l0,0z" class="st0" id="svg_7"/>
                <path stroke="null" d="m196.41521,32.79994l0,11.0244c0,1.63876 -1.19183,2.83059 -2.83059,2.83059c-1.19183,0 -2.68161,-1.19183 -2.68161,-2.83059c-2.53263,2.0857 -5.06526,2.83059 -8.34279,2.83059c-8.04483,0 -14.30192,-5.95913 -14.30192,-13.85499s6.40607,-14.30192 14.30192,-14.30192c7.89585,0.14898 13.85499,6.40607 13.85499,14.30192l0,0zm-5.5122,0c0,-4.76731 -3.57548,-8.64074 -8.34279,-8.64074c-4.76731,0 -8.64074,4.02242 -8.64074,8.64074s4.02242,8.34279 8.64074,8.34279c4.76731,0 8.34279,-3.72446 8.34279,-8.34279z" class="st0" id="svg_8"/>
                <path stroke="null" d="m215.63341,21.17963c0,1.48978 -1.19183,2.83059 -2.83059,2.83059l-4.02242,0l0,19.81412c0,1.48978 -1.19183,2.83059 -2.83059,2.83059c-1.48978,0 -2.83059,-1.34081 -2.83059,-2.83059l0,-19.81412l-4.17139,0c-1.48978,0 -2.83059,-1.34081 -2.83059,-2.83059c0,-1.48978 1.19183,-2.83059 2.83059,-2.83059l4.17139,0l0,-11.32236c0,-1.48978 1.19183,-2.83059 2.83059,-2.83059c1.48978,0 2.83059,1.19183 2.83059,2.83059l0,11.32236l4.02242,0c1.63876,0.14898 2.83059,1.34081 2.83059,2.83059z" class="st0" id="svg_9"/>
                <path stroke="null" d="m219.95379,12.09195c-0.44694,-0.44694 -0.89387,-1.19183 -0.89387,-1.93672c0,-0.74489 0.29796,-1.48978 0.89387,-1.93672c0.44694,-0.44694 1.19183,-0.89387 1.93672,-0.89387s1.48978,0.29796 1.93672,0.89387c0.44694,0.44694 0.89387,1.19183 0.89387,1.93672c0,0.74489 -0.29796,1.48978 -0.89387,1.93672c-0.44694,0.44694 -1.19183,0.89387 -1.93672,0.89387s-1.48978,-0.44694 -1.93672,-0.89387zm-0.89387,31.88137l0,-22.79369c0,-1.48978 1.19183,-2.83059 2.83059,-2.83059s2.83059,1.19183 2.83059,2.83059l0,22.79369c0,1.48978 -1.19183,2.83059 -2.83059,2.83059c-1.48978,0 -2.83059,-1.34081 -2.83059,-2.83059z" class="st0" id="svg_10"/>
                <path stroke="null" d="m227.84964,32.50198c0,-7.74687 6.40607,-14.15294 14.15294,-14.15294c7.74687,0 14.15294,6.40607 14.15294,14.15294s-6.40607,14.15294 -14.15294,14.15294c-7.89585,0 -14.15294,-6.25709 -14.15294,-14.15294zm5.66118,0c0,4.76731 3.72446,8.64074 8.64074,8.64074c4.76731,0 8.64074,-3.87344 8.64074,-8.64074s-3.72446,-8.64074 -8.64074,-8.64074c-4.91629,0.14898 -8.64074,4.02242 -8.64074,8.64074z" class="st0" id="svg_11"/>
                <path stroke="null" d="m287.73894,32.50198l0,11.32236c0,1.48978 -1.19183,2.83059 -2.83059,2.83059c-1.48978,0 -2.83059,-1.19183 -2.83059,-2.83059l0,-11.32236c0,-4.76731 -3.72446,-8.64074 -8.64074,-8.64074c-4.76731,0 -8.64074,3.72446 -8.64074,8.64074l0,11.32236c0,1.48978 -1.19183,2.83059 -2.83059,2.83059c-1.48978,0 -2.83059,-1.19183 -2.83059,-2.83059l0,-11.32236c0,-7.74687 6.40607,-14.15294 14.15294,-14.15294c8.19381,0.14898 14.4509,6.40607 14.4509,14.15294z" class="st0" id="svg_12"/>
                <path stroke="null" d="m308,38.31214c0,4.76731 -3.72446,8.49177 -8.34279,8.49177c-4.02242,0 -7.15096,-2.83059 -8.34279,-6.10811c-0.44694,-1.48978 0.74489,-2.97957 2.0857,-3.27752c1.48978,-0.29796 2.53263,0.89387 3.27752,2.0857c0.89387,1.48978 1.48978,1.63876 2.83059,1.63876c1.48978,0 2.83059,-1.34081 2.83059,-2.97957c0,-1.48978 -1.34081,-2.83059 -2.83059,-2.83059c-2.23468,0 -4.46935,-0.89387 -5.95913,-2.53263c-1.63876,-1.48978 -2.53263,-3.72446 -2.53263,-5.95913c0,-4.76731 3.72446,-8.34279 8.34279,-8.34279c3.87344,0 7.5979,2.68161 8.04483,5.81016c0.29796,1.48978 -0.59591,3.12855 -2.0857,3.27752c-1.48978,0.29796 -2.83059,-0.74489 -3.27752,-2.0857c-0.29796,-0.89387 -1.34081,-1.48978 -2.68161,-1.48978c-1.48978,0 -2.83059,1.34081 -2.83059,2.83059c0,1.48978 1.34081,2.83059 2.83059,2.83059c2.23468,0 4.46935,0.89387 5.95913,2.53263c1.93672,1.63876 2.68161,3.87344 2.68161,6.10811l0,0z" class="st0" id="svg_13"/>
            </g>
        </g>
        <g stroke="null" id="svg_17">
            <g stroke="null" id="Capa_1">
                <g stroke="null" id="svg_2_1_">
                    <path stroke="null" d="m28.84361,10.0282l-12.49839,21.06584l5.24126,8.76903l7.25713,0l1.20952,0l1.41111,0l1.5119,0l3.1246,0l5.24126,-8.76903l-12.49839,-21.06584c0,0 0,0 0,0zm0,21.06584c-1.20952,0 -2.11666,-1.00793 -2.11666,-2.11666c0,-1.20952 1.00793,-2.11666 2.11666,-2.11666c1.20952,0 2.11666,1.00793 2.11666,2.11666c0.10079,1.10873 -0.90714,2.11666 -2.11666,2.11666z" class="st1" id="svg_3_1_"/>
                    <g stroke="null" id="svg_4_1_">
                        <circle stroke="null" r="2.31825" cy="7.81074" cx="7.2738" class="st2" id="svg_5_1_"/>
                        <circle stroke="null" r="2.31825" cy="7.81074" cx="50.41342" class="st2" id="svg_6_1_"/>
                    </g>
                    <g stroke="null" id="svg_7_1_">
                        <rect stroke="null" height="4.53571" width="4.53571" class="st1" y="29.38055" x="4.95555" id="svg_8_1_"/>
                        <rect stroke="null" height="4.53571" width="4.53571" class="st1" y="5.3917" x="26.52536" id="svg_9_1_"/>
                        <rect stroke="null" height="4.53571" width="4.53571" class="st1" y="29.38055" x="48.19596" id="svg_10_1_"/>
                    </g>
                    <polygon stroke="null" points="28.843612670898438,10.02820110321045 27.63408660888672,12.144864082336426 38.92296600341797,31.094036102294922 33.68170166015625,39.863075256347656 36.100746154785156,39.863075256347656 41.342002868652344,31.094036102294922 " class="st3" id="svg_11_1_"/>
                    <rect stroke="null" height="5.74523" width="18.94918" class="st2" y="39.86307" x="19.36902" id="svg_12_1_"/>
                    <rect stroke="null" height="5.74523" width="2.41904" class="st4" y="39.86307" x="35.89916" id="svg_13_1_"/>
                    <path stroke="null" d="m21.78807,44.90275l-1.6127,0l0,-4.33412l1.5119,0l0,0l8.46665,0c0.40317,0 0.70555,-0.30238 0.70555,-0.70555l0,0l0,0c0,-0.40317 -0.30238,-0.70555 -0.70555,-0.70555l-8.06348,0l-4.83809,-8.06348l4.33412,-7.25713c0.20159,-0.30238 0.10079,-0.80635 -0.20159,-1.00793c-0.30238,-0.20159 -0.80635,-0.10079 -1.00793,0.20159l-4.53571,7.55951c-0.10079,0.20159 -0.10079,0.50397 0,0.70555l4.6365,7.7611l-0.90714,0c-0.40317,0 -0.70555,0.30238 -0.70555,0.70555l0,5.74523c0,0.40317 0.30238,0.70555 0.70555,0.70555l2.41904,0c0.40317,0 0.70555,-0.30238 0.70555,-0.70555c-0.20159,-0.30238 -0.50397,-0.60476 -0.90714,-0.60476c0,0 0,0 0,0z" class="st0" id="svg_14_1_"/>
                    <path stroke="null" d="m52.83246,28.675l-1.6127,0c-0.20159,-5.34205 -2.21746,-10.38173 -5.74523,-14.31268c-2.31825,-2.51984 -5.14047,-4.53571 -8.36586,-5.74523l10.48252,0c0.30238,1.31032 1.5119,2.21746 2.92301,2.21746c1.6127,0 3.0238,-1.31032 3.0238,-3.0238s-1.31032,-3.0238 -3.0238,-3.0238c-1.41111,0 -2.62063,1.00793 -2.92301,2.31825l-15.72378,0l0,-1.71349c0,-0.40317 -0.30238,-0.70555 -0.70555,-0.70555l-4.53571,0c-0.40317,0 -0.70555,0.30238 -0.70555,0.70555l0,1.71349l-15.72378,0c-0.30238,-1.31032 -1.5119,-2.31825 -2.92301,-2.31825c-1.6127,0 -3.0238,1.31032 -3.0238,3.0238c0,1.6127 1.31032,3.0238 3.0238,3.0238c1.41111,0 2.51984,-0.90714 2.92301,-2.21746l10.48252,0c-3.1246,1.20952 -6.04761,3.22539 -8.36586,5.74523c-3.52777,3.93095 -5.64444,8.97062 -5.74523,14.31268l-1.5119,0c-0.40317,0 -0.70555,0.30238 -0.70555,0.70555l0,4.53571c0,0.40317 0.30238,0.70555 0.70555,0.70555l4.53571,0c0.40317,0 0.70555,-0.30238 0.70555,-0.70555l0,-4.53571c0,-0.40317 -0.30238,-0.70555 -0.70555,-0.70555l-1.6127,0c0.20159,-4.93888 2.11666,-9.67617 5.44285,-13.30474c3.32619,-3.62857 7.66031,-5.94682 12.49839,-6.65237l0,1.20952c0,0.40317 0.30238,0.70555 0.70555,0.70555l1.10873,0l-5.84602,9.87776c-0.20159,0.30238 -0.10079,0.80635 0.20159,1.00793c0.30238,0.20159 0.80635,0.10079 1.00793,-0.20159l5.14047,-8.56745l0,13.30474c-1.20952,0.30238 -2.11666,1.41111 -2.11666,2.82222c0,1.6127 1.31032,2.92301 2.92301,2.92301c1.6127,0 2.92301,-1.31032 2.92301,-2.92301c0,-1.31032 -0.90714,-2.51984 -2.11666,-2.82222l0,-13.30474l10.68411,18.34441l-4.83809,8.06348l-2.72142,0c-0.40317,0 -0.70555,0.30238 -0.70555,0.60476c0,0 0,0 0,0.10079c0,0.40317 0.30238,0.70555 0.70555,0.70555l3.1246,0l0,0l1.5119,0l0,4.33412l-13.00236,0c-0.40317,0 -0.70555,0.30238 -0.70555,0.70555s0.30238,0.70555 0.70555,0.70555l13.60712,0c0.40317,0 0.70555,-0.30238 0.70555,-0.70555l0,-5.74523c0,-0.40317 -0.30238,-0.70555 -0.70555,-0.70555l-0.90714,0l4.6365,-7.7611c0.10079,-0.20159 0.10079,-0.50397 0,-0.70555l-11.89363,-19.95711l1.10873,0c0.40317,0 0.70555,-0.30238 0.70555,-0.70555l0,-1.31032c4.83809,0.70555 9.17221,3.0238 12.49839,6.65237c3.32619,3.72936 5.24126,8.36586 5.44285,13.30474l-1.5119,0c-0.40317,0 -0.70555,0.30238 -0.70555,0.70555l0,4.53571c0,0.40317 0.30238,0.70555 0.70555,0.70555l4.53571,0c0.40317,0 0.70555,-0.30238 0.70555,-0.70555l0,-4.53571c0,-0.40317 -0.30238,-0.70555 -0.70555,-0.70555c0,0 0,0 0,0zm-44.04675,4.53571l-3.1246,0l0,-3.1246l3.1246,0l0,3.1246zm41.62771,-27.01265c0.80635,0 1.5119,0.70555 1.5119,1.5119c0,0.80635 -0.70555,1.5119 -1.5119,1.5119c-0.80635,0 -1.5119,-0.70555 -1.5119,-1.5119c0,-0.80635 0.70555,-1.5119 1.5119,-1.5119zm-43.13961,3.1246c-0.80635,0 -1.5119,-0.70555 -1.5119,-1.5119c0,-0.80635 0.70555,-1.5119 1.5119,-1.5119c0.80635,-0.10079 1.5119,0.60476 1.5119,1.5119c0,0.80635 -0.70555,1.5119 -1.5119,1.5119zm22.98092,19.55394c0,0.80635 -0.60476,1.41111 -1.41111,1.41111c-0.80635,0 -1.41111,-0.60476 -1.41111,-1.41111c0,-0.80635 0.60476,-1.41111 1.41111,-1.41111s1.41111,0.60476 1.41111,1.41111zm0.20159,-19.65473l-3.1246,0l0,-1.31032l0,0l0,-1.71349l3.1246,0l0,1.71349l0,0l0,1.31032zm21.6706,23.98885l-3.1246,0l0,-3.1246l3.1246,0l0,3.1246z" class="st0" id="svg_15"/>
                </g>
            </g>
        </g>
    </g>
</svg>