<?xml version="1.0" encoding="utf-8"?>
<!-- Generator: Adobe Illustrator 25.0.0, SVG Export Plug-In . SVG Version: 6.00 Build 0)  -->
<svg version="1.1" id="Layer_1" xmlns="http://www.w3.org/2000/svg" xmlns:xlink="http://www.w3.org/1999/xlink" x="0px" y="0px"
	 viewBox="0 0 312 51" style="enable-background:new 0 0 312 51;" xml:space="preserve">
<style type="text/css">
	.st0{fill:none;}
	.st1{fill:#231F20;}
	.st2{display:none;}
	.st3{display:inline;}
</style>
<g>
	<rect id="canvas_background" x="-1" y="-1" class="st0" width="314" height="53"/>
</g>
<g id="svg_16">
	<g id="svg_14">
		<path id="svg_1" class="st1" d="M61,12.1c-0.4-0.4-0.9-1.2-0.9-1.9s0.3-1.5,0.9-1.9c0.4-0.6,1.2-0.9,1.9-0.9
			c0.7,0,1.5,0.3,1.9,0.9c0.4,0.4,0.9,1.2,0.9,1.9s-0.3,1.5-0.9,2.1s-1.2,0.9-1.9,0.9C62.2,12.8,61.6,12.5,61,12.1z M60.2,44V21.2
			c0-1.5,1.2-2.8,2.8-2.8c1.5,0,2.8,1.2,2.8,2.8V44c0,1.5-1.2,2.8-2.8,2.8C61.4,46.8,60.2,45.5,60.2,44z"/>
		<path id="svg_2" class="st1" d="M69.2,44V7.3c0-1.5,1.2-2.8,2.8-2.8c1.5,0,2.8,1.2,2.8,2.8V44c0,1.5-1.2,2.8-2.8,2.8
			C70.4,46.8,69.2,45.5,69.2,44z"/>
		<path id="svg_3" class="st1" d="M78.3,44V7.3c0-1.5,1.2-2.8,2.8-2.8c1.5,0,2.8,1.2,2.8,2.8V44c0,1.5-1.2,2.8-2.8,2.8
			C79.6,46.8,78.3,45.5,78.3,44z"/>
		<path id="svg_4" class="st1" d="M110.2,21.2v14.2v0.1c-0.1,6.3-5.1,11.3-11.5,11.3c-6.3,0-11.3-5.1-11.3-11.3v-0.1V21.2
			c0-1.5,1.2-2.8,2.8-2.8s2.8,1.2,2.8,2.8v14c0,3.1,2.5,5.8,5.8,5.8c3.3,0,5.8-2.7,5.8-5.8v-14c0-1.5,1.2-2.8,2.8-2.8
			C109,18.5,110.2,19.7,110.2,21.2z"/>
		<path id="svg_5" class="st1" d="M130.4,38.3c0,4.8-3.7,8.5-8.3,8.5c-4,0-7.2-2.8-8.3-6.1c-0.4-1.5,0.7-3,2.1-3.3
			c1.5-0.3,2.5,0.9,3.3,2.1c0.9,1.5,1.5,1.6,2.8,1.6c1.5,0,2.8-1.3,2.8-3c0-1.5-1.3-2.8-2.8-2.8c-2.2,0-4.5-0.9-6-2.5
			c-1.6-1.5-2.5-3.7-2.5-6c0-4.8,3.7-8.3,8.3-8.3c3.9,0,7.6,2.7,8,5.8c0.3,1.5-0.6,3.1-2.1,3.3c-1.5,0.3-2.8-0.7-3.3-2.1
			c-0.3-0.9-1.3-1.5-2.7-1.5c-1.5,0-2.8,1.3-2.8,2.8c0,1.5,1.3,2.8,2.8,2.8c2.2,0,4.5,0.9,6,2.5C129.7,33.8,130.4,36.1,130.4,38.3
			L130.4,38.3L130.4,38.3z"/>
		<path id="svg_6" class="st1" d="M151.9,21.2c0,1.5-1.2,2.8-2.8,2.8h-4v19.8c0,1.5-1.2,2.8-2.8,2.8c-1.5,0-2.8-1.3-2.8-2.8V24h-4.2
			c-1.5,0-2.8-1.3-2.8-2.8c0-1.5,1.2-2.8,2.8-2.8h4.2V7c0-1.5,1.2-2.8,2.8-2.8c1.5,0,2.8,1.2,2.8,2.8v11.3h4
			C150.7,18.5,151.9,19.7,151.9,21.2z"/>
		<path id="svg_7" class="st1" d="M168.7,21.2c0,1.5-1.2,2.8-2.8,2.8c-4.8,0-8.6,3.7-8.6,8.6V44c0,1.5-1.2,2.8-2.8,2.8
			s-2.8-1.3-2.8-2.8V32.7c0-7.7,6.4-14.2,14.2-14.2C167.5,18.5,168.7,19.7,168.7,21.2L168.7,21.2L168.7,21.2z"/>
		<path id="svg_8" class="st1" d="M196.4,32.8v11c0,1.6-1.2,2.8-2.8,2.8c-1.2,0-2.7-1.2-2.7-2.8c-2.5,2.1-5.1,2.8-8.3,2.8
			c-8,0-14.3-6-14.3-13.9s6.4-14.3,14.3-14.3C190.5,18.6,196.4,24.9,196.4,32.8C196.4,32.8,196.4,32.8,196.4,32.8z M190.9,32.8
			c0-4.8-3.6-8.6-8.3-8.6s-8.6,4-8.6,8.6s4,8.3,8.6,8.3C187.3,41.1,190.9,37.4,190.9,32.8z"/>
		<path id="svg_9" class="st1" d="M215.6,21.2c0,1.5-1.2,2.8-2.8,2.8h-4v19.8c0,1.5-1.2,2.8-2.8,2.8c-1.5,0-2.8-1.3-2.8-2.8V24h-4.2
			c-1.5,0-2.8-1.3-2.8-2.8c0-1.5,1.2-2.8,2.8-2.8h4.2V7c0-1.5,1.2-2.8,2.8-2.8c1.5,0,2.8,1.2,2.8,2.8v11.3h4
			C214.4,18.5,215.6,19.7,215.6,21.2z"/>
		<path id="svg_10" class="st1" d="M220,12.1c-0.4-0.4-0.9-1.2-0.9-1.9s0.3-1.5,0.9-1.9c0.4-0.4,1.2-0.9,1.9-0.9s1.5,0.3,1.9,0.9
			c0.4,0.4,0.9,1.2,0.9,1.9s-0.3,1.5-0.9,1.9c-0.4,0.4-1.2,0.9-1.9,0.9S220.4,12.5,220,12.1z M219.1,44V21.2c0-1.5,1.2-2.8,2.8-2.8
			s2.8,1.2,2.8,2.8V44c0,1.5-1.2,2.8-2.8,2.8C220.4,46.8,219.1,45.5,219.1,44z"/>
		<path id="svg_11" class="st1" d="M227.8,32.5c0-7.7,6.4-14.2,14.2-14.2s14.2,6.4,14.2,14.2s-6.4,14.2-14.2,14.2
			C234.1,46.7,227.8,40.4,227.8,32.5z M233.5,32.5c0,4.8,3.7,8.6,8.6,8.6c4.8,0,8.6-3.9,8.6-8.6s-3.7-8.6-8.6-8.6
			C237.2,24,233.5,27.9,233.5,32.5z"/>
		<path id="svg_12" class="st1" d="M287.7,32.5v11.3c0,1.5-1.2,2.8-2.8,2.8c-1.5,0-2.8-1.2-2.8-2.8V32.5c0-4.8-3.7-8.6-8.6-8.6
			c-4.8,0-8.6,3.7-8.6,8.6v11.3c0,1.5-1.2,2.8-2.8,2.8c-1.5,0-2.8-1.2-2.8-2.8V32.5c0-7.7,6.4-14.2,14.2-14.2
			C281.5,18.5,287.7,24.8,287.7,32.5L287.7,32.5z"/>
		<path id="svg_13" class="st1" d="M308,38.3c0,4.8-3.7,8.5-8.3,8.5c-4,0-7.2-2.8-8.3-6.1c-0.4-1.5,0.7-3,2.1-3.3
			c1.5-0.3,2.5,0.9,3.3,2.1c0.9,1.5,1.5,1.6,2.8,1.6c1.5,0,2.8-1.3,2.8-3c0-1.5-1.3-2.8-2.8-2.8c-2.2,0-4.5-0.9-6-2.5
			c-1.6-1.5-2.5-3.7-2.5-6c0-4.8,3.7-8.3,8.3-8.3c3.9,0,7.6,2.7,8,5.8c0.3,1.5-0.6,3.1-2.1,3.3c-1.5,0.3-2.8-0.7-3.3-2.1
			c-0.3-0.9-1.3-1.5-2.7-1.5c-1.5,0-2.8,1.3-2.8,2.8c0,1.5,1.3,2.8,2.8,2.8c2.2,0,4.5,0.9,6,2.5C307.3,33.8,308,36.1,308,38.3
			L308,38.3L308,38.3z"/>
	</g>
</g>
<g id="svg_17" class="st2">
	<g id="Capa_1" class="st3">
		<g id="svg_2_1_">
			<path id="svg_3_1_" class="st1" d="M28.8,10L16.3,31.1l5.2,8.8h7.3h1.2h1.4H33h3.1l5.2-8.8L28.8,10C28.8,10,28.8,10,28.8,10z
				 M28.8,31.1c-1.2,0-2.1-1-2.1-2.1c0-1.2,1-2.1,2.1-2.1c1.2,0,2.1,1,2.1,2.1C31.1,30.1,30.1,31.1,28.8,31.1z"/>
			<g id="svg_4_1_">
				<circle id="svg_5_1_" class="st1" cx="7.3" cy="7.8" r="2.3"/>
				<circle id="svg_6_1_" class="st1" cx="50.4" cy="7.8" r="2.3"/>
			</g>
			<g id="svg_7_1_">
				<rect id="svg_8_1_" x="5" y="29.4" class="st1" width="4.5" height="4.5"/>
				<rect id="svg_9_1_" x="26.5" y="5.4" class="st1" width="4.5" height="4.5"/>
				<rect id="svg_10_1_" x="48.2" y="29.4" class="st1" width="4.5" height="4.5"/>
			</g>
			<polygon id="svg_11_1_" class="st1" points="28.8,10 27.6,12.1 38.9,31.1 33.7,39.9 36.1,39.9 41.3,31.1 			"/>
			<rect id="svg_12_1_" x="19.4" y="39.9" class="st1" width="18.9" height="5.7"/>
			<rect id="svg_13_1_" x="35.9" y="39.9" class="st1" width="2.4" height="5.7"/>
			<path id="svg_14_1_" class="st1" d="M21.8,44.9h-1.6v-4.3h1.5l0,0h8.5c0.4,0,0.7-0.3,0.7-0.7l0,0l0,0c0-0.4-0.3-0.7-0.7-0.7h-8.1
				l-4.8-8.1l4.3-7.3c0.2-0.3,0.1-0.8-0.2-1c-0.3-0.2-0.8-0.1-1,0.2l-4.5,7.6c-0.1,0.2-0.1,0.5,0,0.7l4.6,7.8h-0.9
				c-0.4,0-0.7,0.3-0.7,0.7v5.7c0,0.4,0.3,0.7,0.7,0.7H22c0.4,0,0.7-0.3,0.7-0.7C22.5,45.2,22.2,44.9,21.8,44.9L21.8,44.9L21.8,44.9
				z"/>
			<path id="svg_15" class="st1" d="M52.8,28.7h-1.6C51,23.3,49,18.3,45.5,14.4c-2.3-2.5-5.1-4.5-8.4-5.7h10.5
				c0.3,1.3,1.5,2.2,2.9,2.2c1.6,0,3-1.3,3-3s-1.3-3-3-3c-1.4,0-2.6,1-2.9,2.3H31.9V5.4c0-0.4-0.3-0.7-0.7-0.7h-4.5
				c-0.4,0-0.7,0.3-0.7,0.7v1.7H10.2C9.9,5.8,8.7,4.8,7.3,4.8c-1.6,0-3,1.3-3,3c0,1.6,1.3,3,3,3c1.4,0,2.5-0.9,2.9-2.2h10.5
				c-3.1,1.2-6,3.2-8.4,5.7c-3.5,3.9-5.6,9-5.7,14.3H5.1c-0.4,0-0.7,0.3-0.7,0.7v4.5c0,0.4,0.3,0.7,0.7,0.7h4.5
				c0.4,0,0.7-0.3,0.7-0.7v-4.5c0-0.4-0.3-0.7-0.7-0.7H8c0.2-4.9,2.1-9.7,5.4-13.3s7.7-5.9,12.5-6.7v1.2c0,0.4,0.3,0.7,0.7,0.7h1.1
				l-5.8,9.9c-0.2,0.3-0.1,0.8,0.2,1c0.3,0.2,0.8,0.1,1-0.2l5.1-8.6v13.3c-1.2,0.3-2.1,1.4-2.1,2.8c0,1.6,1.3,2.9,2.9,2.9
				c1.6,0,2.9-1.3,2.9-2.9c0-1.3-0.9-2.5-2.1-2.8V12.7l10.7,18.3l-4.8,8.1H33c-0.4,0-0.7,0.3-0.7,0.6c0,0,0,0,0,0.1
				c0,0.4,0.3,0.7,0.7,0.7h3.1l0,0h1.5v4.3h-13c-0.4,0-0.7,0.3-0.7,0.7s0.3,0.7,0.7,0.7h13.6c0.4,0,0.7-0.3,0.7-0.7v-5.7
				c0-0.4-0.3-0.7-0.7-0.7h-0.9l4.6-7.8c0.1-0.2,0.1-0.5,0-0.7l-11.9-20h1.1c0.4,0,0.7-0.3,0.7-0.7V8.7c4.8,0.7,9.2,3,12.5,6.7
				c3.3,3.7,5.2,8.4,5.4,13.3h-1.5c-0.4,0-0.7,0.3-0.7,0.7v4.5c0,0.4,0.3,0.7,0.7,0.7h4.5c0.4,0,0.7-0.3,0.7-0.7v-4.5
				C53.5,29,53.2,28.7,52.8,28.7L52.8,28.7L52.8,28.7z M8.8,33.2H5.7v-3.1h3.1V33.2z M50.4,6.2c0.8,0,1.5,0.7,1.5,1.5
				s-0.7,1.5-1.5,1.5s-1.5-0.7-1.5-1.5S49.6,6.2,50.4,6.2z M7.3,9.3c-0.8,0-1.5-0.7-1.5-1.5s0.7-1.5,1.5-1.5
				c0.8-0.1,1.5,0.6,1.5,1.5C8.8,8.6,8.1,9.3,7.3,9.3z M30.3,28.9c0,0.8-0.6,1.4-1.4,1.4s-1.4-0.6-1.4-1.4s0.6-1.4,1.4-1.4
				S30.3,28.1,30.3,28.9z M30.5,9.2h-3.1V7.9l0,0V6.2h3.1v1.7l0,0V9.2z M52.1,33.2H49v-3.1h3.1V33.2z"/>
		</g>
	</g>
</g>
<g>
	<g>
		<path class="st1" d="M45.4,14.4c-2.3-2.6-5.2-4.5-8.3-5.8h11.1c0.4,0,0.7-0.3,0.7-0.7c0-0.4-0.3-0.7-0.7-0.7h-17
			c-0.1,0-0.1,0-0.2,0c0,0,0,0,0,0c0,0,0,0-0.1,0c0,0,0,0,0,0c0,0,0,0,0,0c0,0,0,0,0,0c0,0,0,0,0,0c0,0,0,0,0,0c0,0,0,0,0,0
			c0,0,0,0,0,0c0,0,0,0,0,0c0,0,0,0,0,0c0,0,0,0,0,0c0,0,0,0,0,0c0,0,0,0,0,0c0,0,0,0,0,0c0,0,0,0,0,0c0,0,0,0,0,0c0,0,0,0,0,0
			c0,0,0,0,0,0c0,0,0,0,0,0c0,0,0,0,0,0c0,0,0,0,0,0c0,0,0,0,0,0c0,0,0,0,0,0c0,0,0,0,0,0.1c0,0,0,0,0,0c0,0,0,0,0,0c0,0,0,0,0,0
			c0,0,0,0,0,0v0c0,0,0,0,0,0c0,0,0,0,0,0.1c0,0,0,0,0,0c0,0,0,0,0,0.1c0,0,0,0,0,0c0,0,0,0,0,0c0,0,0,0,0,0.1c0,0,0,0,0,0
			c0,0,0,0,0,0.1c0,0,0,0,0,0c0,0,0,0,0,0.1c0,0,0,0,0,0c0,0,0,0,0,0c0,0,0,0,0,0c0,0,0,0,0,0c0,0,0,0,0,0c0,0,0,0,0,0c0,0,0,0,0,0
			c0,0,0,0,0,0c0,0,0,0,0,0c0,0,0,0,0.1,0c0,0,0,0,0,0c0.1,0,0.2,0.1,0.3,0.1c5.1,0.5,9.8,2.9,13.3,6.7c3.5,3.8,5.4,8.8,5.4,14
			c0,0.4,0.3,0.7,0.7,0.7c0.4,0,0.7-0.3,0.7-0.7C51.2,23.8,49.1,18.5,45.4,14.4z"/>
		<path class="st1" d="M27.2,8.3C27.2,8.3,27.2,8.3,27.2,8.3C27.2,8.3,27.2,8.3,27.2,8.3c0-0.1,0.1-0.1,0.1-0.1c0,0,0,0,0,0
			c0,0,0,0,0,0c0,0,0,0,0,0c0,0,0,0,0,0c0,0,0,0,0,0c0,0,0,0,0,0c0,0,0,0,0-0.1c0,0,0,0,0,0c0,0,0-0.1,0-0.1c0,0,0,0,0,0
			c0,0,0,0,0,0c0,0,0,0,0,0c0,0,0,0,0,0c0,0,0,0,0,0c0,0,0,0,0,0c0,0,0,0,0-0.1c0,0,0,0,0,0c0-0.1-0.1-0.2-0.2-0.3c0,0,0,0,0,0
			c0,0,0,0,0,0c0,0,0,0,0,0c0,0,0,0,0,0c0,0,0,0,0,0c0,0,0,0,0,0c0,0,0,0,0,0c0,0,0,0-0.1,0c0,0,0,0,0,0c-0.1,0-0.1,0-0.2,0h-17
			c-0.4,0-0.7,0.3-0.7,0.7c0,0.4,0.3,0.7,0.7,0.7h11.1c-3.1,1.2-6,3.2-8.3,5.8c-3.7,4.1-5.8,9.4-5.8,15c0,0.4,0.3,0.7,0.7,0.7
			c0.4,0,0.7-0.3,0.7-0.7c0-5.2,1.9-10.2,5.4-14c3.5-3.8,8.2-6.2,13.3-6.7c0.1,0,0.2,0,0.3-0.1c0,0,0,0,0,0c0,0,0,0,0,0c0,0,0,0,0,0
			c0,0,0,0,0,0C27.1,8.4,27.1,8.4,27.2,8.3C27.1,8.4,27.1,8.4,27.2,8.3C27.1,8.4,27.1,8.4,27.2,8.3C27.1,8.4,27.2,8.3,27.2,8.3
			C27.2,8.3,27.2,8.3,27.2,8.3z"/>
	</g>
	<g>
		<path class="st1" d="M7.3,4.8c-1.6,0-3,1.3-3,3c0,1.6,1.3,3,3,3s3-1.3,3-3C10.3,6.2,9,4.8,7.3,4.8z"/>
		<path class="st1" d="M50.4,4.8c-1.6,0-3,1.3-3,3s1.3,3,3,3c1.6,0,3-1.3,3-3S52.1,4.8,50.4,4.8z"/>
	</g>
	<g>
		<path class="st1" d="M9.6,28.6H5.1c-0.4,0-0.7,0.3-0.7,0.7v4.5c0,0.4,0.3,0.7,0.7,0.7h4.5c0.4,0,0.7-0.3,0.7-0.7v-4.5
			C10.3,29,10,28.6,9.6,28.6z"/>
		<path class="st1" d="M52.8,28.6h-4.5c-0.4,0-0.7,0.3-0.7,0.7v4.5c0,0.4,0.3,0.7,0.7,0.7h4.5c0.4,0,0.7-0.3,0.7-0.7v-4.5
			C53.5,29,53.2,28.6,52.8,28.6z"/>
		<path class="st1" d="M42,30.6L29.5,9.7c-0.1-0.2-0.4-0.4-0.6-0.4c-0.3,0-0.5,0.1-0.6,0.4L15.8,30.6c-0.1,0.2-0.1,0.5,0,0.7
			l5.2,8.8c0.1,0.2,0.4,0.4,0.6,0.4h14.5c0.3,0,0.5-0.1,0.6-0.4l5.2-8.8C42.1,31.1,42.1,30.9,42,30.6z M28.9,26.7
			c1.2,0,2.2,1,2.2,2.2s-1,2.2-2.2,2.2s-2.2-1-2.2-2.2C26.7,27.6,27.7,26.7,28.9,26.7z"/>
	</g>
	<path class="st1" d="M42,30.6L29.5,9.7c-0.1-0.2-0.4-0.4-0.6-0.4c-0.3,0-0.5,0.1-0.6,0.4l-1,1.7L38.9,31l-5.7,9.5h2.8
		c0.3,0,0.5-0.1,0.6-0.4l5.2-8.8C42.1,31.1,42.1,30.9,42,30.6z"/>
	<path class="st1" d="M38.3,39.1H19.4c-0.4,0-0.7,0.3-0.7,0.7v5.8c0,0.4,0.3,0.7,0.7,0.7h18.9c0.4,0,0.7-0.3,0.7-0.7v-5.8
		C39,39.4,38.7,39.1,38.3,39.1z"/>
	<path class="st1" d="M38.3,39.1h-2.4v7.2h2.4c0.4,0,0.7-0.3,0.7-0.7v-5.8C39,39.4,38.7,39.1,38.3,39.1z"/>
	<path class="st1" d="M28.8,9.4C28.8,9.4,28.7,9.4,28.8,9.4C28.7,9.4,28.7,9.4,28.8,9.4c-0.1,0-0.1,0-0.2,0c0,0,0,0,0,0
		c0,0-0.1,0-0.1,0c0,0,0,0,0,0c0,0,0,0-0.1,0c0,0,0,0,0,0c0,0,0,0-0.1,0c0,0,0,0,0,0c0,0,0,0-0.1,0.1c0,0,0,0,0,0c0,0,0,0,0,0.1
		c-0.1,0.1-0.1,0.2-0.1,0.4v16.6c0,0,0,0.1,0,0.1c0.2-0.1,0.5-0.1,0.7-0.1c0.2,0,0.5,0,0.7,0.1c0,0,0-0.1,0-0.1V10.1
		c0-0.1,0-0.3-0.1-0.4c0,0,0,0,0-0.1c0,0,0,0,0,0c0,0,0,0-0.1-0.1c0,0,0,0,0,0c0,0,0,0-0.1,0c0,0,0,0,0,0c0,0,0,0-0.1,0c0,0,0,0,0,0
		c0,0-0.1,0-0.1,0c0,0,0,0,0,0c0,0,0,0-0.1,0c0,0,0,0,0,0c0,0,0,0-0.1,0c0,0,0,0,0,0c0,0-0.1,0-0.1,0C28.9,9.4,28.8,9.4,28.8,9.4
		C28.8,9.4,28.8,9.4,28.8,9.4z"/>
	<path class="st1" d="M28.8,9.4C28.8,9.4,28.8,9.4,28.8,9.4C28.7,9.4,28.7,9.4,28.8,9.4C28.7,9.4,28.7,9.4,28.8,9.4
		C28.7,9.4,28.7,9.4,28.8,9.4c-0.1,0-0.1,0-0.2,0c0,0,0,0,0,0c0,0-0.1,0-0.1,0c0,0,0,0,0,0c0,0,0,0,0,0c0,0,0,0,0,0c0,0,0,0,0,0
		c0,0,0,0-0.1,0c0,0,0,0,0,0c0,0,0,0-0.1,0.1c0,0,0,0,0,0c0,0,0,0,0,0c0,0,0,0,0,0c-0.1,0.1-0.1,0.2-0.1,0.4v2.8l1.4,2.4v-5.2
		c0-0.1,0-0.3-0.1-0.4c0,0,0,0,0,0c0,0,0,0,0,0c0,0,0,0,0,0c0,0,0,0-0.1-0.1c0,0,0,0,0,0c0,0,0,0,0,0c0,0,0,0,0,0c0,0,0,0,0,0
		c0,0,0,0,0,0c0,0,0,0,0,0c0,0,0,0,0,0c0,0-0.1,0-0.1,0c0,0,0,0,0,0c0,0,0,0,0,0c0,0,0,0,0,0c0,0,0,0,0,0c0,0,0,0-0.1,0c0,0,0,0,0,0
		c0,0-0.1,0-0.1,0C28.9,9.4,28.8,9.4,28.8,9.4C28.8,9.4,28.8,9.4,28.8,9.4z"/>
	<path class="st1" d="M31.2,4.7h-4.5c-0.4,0-0.7,0.3-0.7,0.7V10c0,0.4,0.3,0.7,0.7,0.7h4.5c0.4,0,0.7-0.3,0.7-0.7V5.4
		C31.9,5,31.6,4.7,31.2,4.7z"/>
</g>
</svg>
