<svg width="248" height="51"
	xmlns="http://www.w3.org/2000/svg">
	<style type="text/css">.st0{fill:black;}</style>

	<g>
		<title>background</title>
		<rect x="-1" y="-1" width="64" height="14.75" id="canvas_background" fill="none"/>
	</g>
	<g>
		<title>Layer 1</title>
		<path class="st0" d="m4.1,12c-0.5,-0.5 -0.8,-1.2 -0.8,-1.9s0.3,-1.4 0.8,-1.9c0.5,-0.6 1.2,-0.9 1.9,-0.9s1.4,0.3 1.9,0.8c0.5,0.5 0.8,1.2 0.8,1.9s-0.3,1.5 -0.8,2c-0.5,0.5 -1.2,0.8 -1.9,0.8s-1.4,-0.3 -1.9,-0.8zm-0.8,31.1l0,-22.2c0,-1.5 1.2,-2.7 2.8,-2.7c1.5,0 2.7,1.2 2.7,2.7l0,22.2c0,1.5 -1.2,2.7 -2.7,2.7c-1.6,0.1 -2.8,-1.2 -2.8,-2.7z" id="svg_1"/>
		<path class="st0" d="m12.1,43.1l0,-35.8c0,-1.5 1.2,-2.7 2.8,-2.7c1.5,0 2.7,1.2 2.7,2.7l0,35.8c0,1.5 -1.2,2.7 -2.7,2.7c-1.6,0.1 -2.8,-1.2 -2.8,-2.7z" id="svg_2"/>
		<path class="st0" d="m21,43.1l0,-35.8c0,-1.5 1.2,-2.7 2.8,-2.7c1.5,0 2.7,1.2 2.7,2.7l0,35.8c0,1.5 -1.2,2.7 -2.7,2.7c-1.6,0.1 -2.8,-1.2 -2.8,-2.7z" id="svg_3"/>
		<path class="st0" d="m52.1,20.9l0,13.8l0,0.1c-0.1,6.1 -5,11.1 -11.2,11.1c-6.1,0 -11.1,-4.9 -11.1,-11.1l0,-0.1l0,-13.8c0,-1.5 1.2,-2.7 2.7,-2.7c1.5,0 2.7,1.2 2.7,2.7l0,13.7c0,3.1 2.5,5.7 5.7,5.7c3.2,0 5.7,-2.6 5.7,-5.7l0,-13.7c0,-1.5 1.2,-2.7 2.7,-2.7c1.6,0.1 2.8,1.3 2.8,2.7z" id="svg_4"/>
		<path class="st0" d="m71.9,37.6c0,4.6 -3.7,8.3 -8.2,8.3c-3.9,0 -7,-2.8 -8.1,-6c-0.5,-1.4 0.7,-2.9 2.1,-3.2c1.5,-0.3 2.5,0.8 3.2,2.1c0.8,1.4 1.4,1.6 2.7,1.6c1.5,0 2.8,-1.3 2.8,-2.9c0,-1.5 -1.3,-2.8 -2.8,-2.8c-2.2,0 -4.3,-0.9 -5.8,-2.4c-1.6,-1.5 -2.4,-3.6 -2.4,-5.8c0,-4.6 3.7,-8.2 8.2,-8.2c3.8,0 7.4,2.6 7.9,5.7c0.3,1.5 -0.6,3 -2.1,3.2c-1.5,0.3 -2.7,-0.7 -3.2,-2c-0.3,-0.9 -1.3,-1.5 -2.6,-1.5c-1.5,0 -2.8,1.3 -2.8,2.8c0,1.5 1.3,2.8 2.8,2.8c2.2,0 4.3,0.9 5.8,2.4c1.7,1.6 2.5,3.7 2.5,5.9z" id="svg_5"/>
		<path class="st0" d="m92.8,20.9c0,1.5 -1.2,2.7 -2.7,2.7l-3.9,0l0,19.4c0,1.5 -1.2,2.7 -2.8,2.7c-1.5,0 -2.7,-1.3 -2.7,-2.7l0,-19.3l-4,0c-1.5,0 -2.7,-1.3 -2.7,-2.7c0,-1.5 1.2,-2.7 2.7,-2.7l4,0l0,-11c0,-1.5 1.2,-2.7 2.7,-2.7c1.5,0 2.8,1.2 2.8,2.7l0,11l3.9,0c1.5,0 2.7,1.2 2.7,2.6z" id="svg_6"/>
		<path class="st0" d="m109.2,20.9c0,1.5 -1.2,2.7 -2.7,2.7c-4.6,0 -8.4,3.7 -8.4,8.4l0,11.1c0,1.5 -1.2,2.7 -2.7,2.7c-1.5,0 -2.7,-1.3 -2.7,-2.7l0,-11c0,-7.6 6.2,-13.8 13.8,-13.8c1.5,0 2.7,1.2 2.7,2.6z" id="svg_7"/>
		<path class="st0" d="m136.3,32.2l0,10.8c0,1.6 -1.2,2.8 -2.8,2.8c-1.1,0 -2.6,-1.2 -2.6,-2.8c-2.4,2 -5,2.8 -8.1,2.8c-7.8,0 -13.9,-5.8 -13.9,-13.5s6.2,-13.9 13.9,-13.9s13.5,6.1 13.5,13.8zm-5.4,0c0,-4.6 -3.5,-8.5 -8.1,-8.5c-4.6,0 -8.5,3.9 -8.5,8.5c0,4.6 3.9,8.1 8.5,8.1c4.6,0.1 8.1,-3.5 8.1,-8.1z" id="svg_8"/>
		<path class="st0" d="m155,20.9c0,1.5 -1.2,2.7 -2.8,2.7l-3.9,0l0,19.4c0,1.5 -1.2,2.7 -2.8,2.7c-1.5,0 -2.7,-1.3 -2.7,-2.7l0,-19.3l-4,0c-1.5,0 -2.7,-1.3 -2.7,-2.7c0,-1.5 1.2,-2.7 2.7,-2.7l4,0l0,-11c0,-1.5 1.2,-2.7 2.7,-2.7c1.5,0 2.8,1.2 2.8,2.7l0,11l3.9,0c1.6,0 2.8,1.2 2.8,2.6z" id="svg_9"/>
		<path class="st0" d="m159.2,12c-0.5,-0.5 -0.8,-1.2 -0.8,-1.9s0.3,-1.4 0.8,-1.9c0.5,-0.5 1.2,-0.8 1.9,-0.8s1.4,0.3 1.9,0.8s0.8,1.2 0.8,1.9s-0.3,1.4 -0.8,1.9c-0.5,0.5 -1.2,0.8 -1.9,0.8s-1.4,-0.3 -1.9,-0.8zm-0.9,31.1l0,-22.2c0,-1.5 1.2,-2.7 2.7,-2.7c1.5,0 2.7,1.2 2.7,2.7l0,22.2c0,1.5 -1.2,2.7 -2.7,2.7c-1.4,0.1 -2.7,-1.2 -2.7,-2.7z" id="svg_10"/>
		<path class="st0" d="m166.9,32c0,-7.6 6.2,-13.8 13.8,-13.8c7.6,0 13.8,6.2 13.8,13.8c0,7.6 -6.2,13.8 -13.8,13.8c-7.6,0 -13.8,-6.2 -13.8,-13.8zm5.5,0c0,4.6 3.7,8.4 8.4,8.4c4.6,0 8.4,-3.8 8.4,-8.4c0,-4.6 -3.7,-8.4 -8.4,-8.4c-4.7,0 -8.4,3.8 -8.4,8.4z" id="svg_11"/>
		<path class="st0" d="m225.4,32l0,11.1c0,1.5 -1.2,2.8 -2.8,2.8c-1.5,0 -2.7,-1.2 -2.7,-2.8l0,-11.1c0,-4.6 -3.7,-8.4 -8.4,-8.4c-4.6,0 -8.4,3.7 -8.4,8.4l0,11.1c0,1.5 -1.2,2.8 -2.8,2.8c-1.5,0 -2.7,-1.2 -2.7,-2.8l0,-11.1c0,-7.6 6.2,-13.8 13.8,-13.8c7.8,0 14,6.2 14,13.8z" id="svg_12"/>
		<path class="st0" d="m245.2,37.6c0,4.6 -3.7,8.3 -8.2,8.3c-3.9,0 -7,-2.8 -8.1,-6c-0.5,-1.4 0.7,-2.9 2.1,-3.2c1.5,-0.3 2.5,0.8 3.2,2.1c0.8,1.4 1.4,1.6 2.8,1.6c1.5,0 2.8,-1.3 2.8,-2.9c0,-1.5 -1.3,-2.8 -2.8,-2.8c-2.2,0 -4.3,-0.9 -5.8,-2.4c-1.6,-1.5 -2.4,-3.6 -2.4,-5.8c0,-4.6 3.7,-8.2 8.2,-8.2c3.8,0 7.4,2.6 7.9,5.7c0.3,1.5 -0.6,3 -2.1,3.2c-1.5,0.3 -2.7,-0.7 -3.2,-2c-0.3,-0.9 -1.3,-1.5 -2.6,-1.5c-1.5,0 -2.8,1.3 -2.8,2.8c0,1.5 1.3,2.8 2.8,2.8c2.2,0 4.3,0.9 5.8,2.4c1.6,1.6 2.4,3.7 2.4,5.9z" id="svg_13"/>
	</g>
</svg>