<?xml version="1.0" encoding="utf-8"?>
<!-- Generator: Adobe Illustrator 25.4.1, SVG Export Plug-In . SVG Version: 6.00 Build 0)  -->
<svg version="1.1" id="Layer_1" xmlns="http://www.w3.org/2000/svg" xmlns:xlink="http://www.w3.org/1999/xlink" x="0px" y="0px"
	 viewBox="0 0 1068 1257" style="enable-background:new 0 0 1068 1257;" xml:space="preserve">
<style type="text/css">
	.st0{fill:#F2F2F9;}
	.st1{fill:#E4E4EF;}
	.st2{fill:#030047;}
	.st3{fill:#5F5FFF;}
	.st4{fill:#FF3E6C;}
	.st5{fill:#FFCC3E;}
	.st6{fill:#FFFFFF;}
	.st7{fill:#8FACFF;}
</style>
<path class="st0" d="M774,142.6H286.5v858H774V142.6z"/>
<path class="st1" d="M745,397.1H394.8V761H745V397.1z"/>
<path class="st2" d="M360.1,460c-1.5,0-3.1-1.1-3.1-3.1V352.5h93.5c1.5,0,3.1,1.1,3.1,3.1c0,1.9-1.1,3.1-3.1,3.1h-87.7v98.8
	C363.1,458.9,361.6,460,360.1,460z"/>
<path class="st2" d="M456.2,806.4H351.7V713c0-1.5,1.1-3.1,3.1-3.1s3.1,1.1,3.1,3.1v87.7h98.8c1.5,0,3.1,1.1,3.1,3.1
	S457.8,806.4,456.2,806.4z"/>
<path class="st1" d="M530.2,209H360.1v39.3h170.1V209z"/>
<path class="st1" d="M558.5,248.7c10.1,0,18.3-8.2,18.3-18.3s-8.2-18.3-18.3-18.3s-18.3,8.2-18.3,18.3S548.4,248.7,558.5,248.7z"/>
<path class="st0" d="M270.4,271.6h-17.2v202.2h17.2V271.6z"/>
<path class="st3" d="M445.2,536.7c-0.8,0-1.5-0.4-2.3-1.1l-11.4-13c-1.1-1.1-1.1-3.1,0.4-4.2c1.1-1.1,3.1-1.1,4.2,0.4l11.4,13
	c1.1,1.1,1.1,3.1-0.4,4.2C446.7,536.3,445.9,536.7,445.2,536.7z"/>
<path class="st3" d="M370,609.6c-0.8,0-1.5-0.4-1.9-0.8c-1.1-1.1-1.1-3.1,0-4.2l26.3-27.5c1.1-1.1,3.1-1.1,4.2,0
	c1.1,1.1,1.1,3.1,0,4.2l-26.3,27.5C371.2,609.6,370.4,609.6,370,609.6z"/>
<path class="st3" d="M469.6,706.1c-1.1,0-2.3-0.8-2.7-1.5l-6.5-14.1c-0.8-1.5,0-3.1,1.5-3.8c1.5-0.8,3.1,0,3.8,1.5l6.5,14.1
	c0.8,1.5,0,3.1-1.5,3.8C470.3,706.1,470,706.1,469.6,706.1z"/>
<path class="st3" d="M996.4,837l61.8,76.3L919,1041.8c0,0-16.4-17.9-5.7-36.2c5.3-9.5,10.3-26.3,11.4-44.6c0-1.1,0-2.7,0.4-3.8
	c0.4-4.6,0.4-9.2,0-13.7c0-1.1-0.4-2.7-0.4-3.8c-1.1-10.3-3.8-20.2-8.4-28.6L996.4,837z"/>
<path class="st4" d="M960.9,938.4c-11.8,1.5-24,3.4-35.9,5.3c0-1.1-0.4-2.7-0.4-3.8c11.8-1.5,23.7-3.4,35.5-5
	C962.5,934.2,963.2,938.1,960.9,938.4z"/>
<path class="st4" d="M957.5,959.8c-10.7,0.4-21.7,0.8-32.4,1.1c0-1.1,0-2.7,0.4-3.8c10.7-0.4,21.7-0.8,32.4-1.1
	C960.2,956,959.8,959.8,957.5,959.8z"/>
<path class="st3" d="M729.8,932.3l-6.5,98H533.7c0,0,0-24,20.2-30.5c10.3-3.1,25.6-12.6,38.9-24.8c0.8-0.8,1.9-1.5,2.7-2.7
	c3.1-3.1,6.5-6.5,9.2-9.9c0.8-1.1,1.5-1.9,2.3-3.1c6.1-8.4,11.1-17.5,13-26.7h109.9V932.3z"/>
<path class="st5" d="M745,473.8c1.1,237.3,127.8,440.6,167.9,465.4l104.5-85.8c0,0-66-81.3-85.5-149.9
	c-19.5-68.7-51.1-260.6-51.1-260.6L745,473.8z"/>
<path class="st5" d="M655.8,492.1c0,89.3-49.6,444.8-49.6,444.8l143.4,20.2c0,0,37.4-354.4,36.6-401.3
	c-0.8-46.9-19.8-106.1-19.8-106.1L655.8,492.1z"/>
<path class="st6" d="M851.1,471.5c-1.1,0-2.3-0.8-2.7-1.9c-1.5-3.4-3.1-6.9-4.6-10.3c-0.8-1.5,0-3.1,1.5-3.8c1.5-0.8,3.1,0,3.8,1.5
	c1.5,3.4,3.1,6.9,4.6,10.7c0.8,1.5,0,3.1-1.5,3.8C851.8,471.5,851.5,471.5,851.1,471.5z"/>
<path class="st6" d="M959.8,841.2c-1.1,0-1.9-0.4-2.7-1.5c-3.8-6.5-7.6-13.7-11.4-21.4c-0.8-1.5,0-3.1,1.1-3.8
	c1.5-0.8,3.1,0,3.8,1.1c3.8,7.6,7.6,14.5,11.4,21c0.8,1.5,0.4,3.1-1.1,3.8C960.6,841.2,960.2,841.2,959.8,841.2z M937.7,798
	c-1.1,0-2.3-0.8-2.7-1.5c-3.4-7.2-6.5-14.5-9.9-22.1c-0.8-1.5,0-3.1,1.5-3.8c1.5-0.8,3.1,0,3.8,1.5c3.1,7.6,6.5,14.9,9.5,22.1
	c0.8,1.5,0,3.1-1.5,3.8C938.4,798,938.1,798,937.7,798z M919,753.4c-1.1,0-2.3-0.8-2.7-1.9c-2.7-7.2-5-14.9-7.6-23.3
	c-0.4-1.5,0.4-3.1,1.9-3.4c1.5-0.4,3.1,0.4,3.4,1.9c2.3,8,5,16,7.2,22.9c0.4,1.5-0.4,3.1-1.5,3.8C919.7,753.4,919.4,753.4,919,753.4
	z M905.6,706.9c-1.1,0-2.3-0.8-2.7-2.3c-1.9-7.2-3.4-15.3-5.3-23.7c-0.4-1.5,0.8-3.1,2.3-3.4c1.5-0.4,3.1,0.8,3.4,2.3
	c1.9,8.4,3.4,16.4,5.3,23.7c0.4,1.5-0.8,3.1-2.3,3.4C906,706.9,906,706.9,905.6,706.9z M895.7,659.6c-1.5,0-2.7-1.1-2.7-2.3
	c-1.5-8-3.1-15.6-4.2-23.7c-0.4-1.5,0.8-3.1,2.3-3.4c1.5-0.4,3.1,0.8,3.4,2.3c1.5,8,2.7,16,4.2,23.7c0.4,1.5-0.8,3.1-2.3,3.4
	C896.1,659.6,896.1,659.6,895.7,659.6z M887.3,611.9c-1.5,0-2.7-1.1-2.7-2.3c-1.5-8-3.1-16-4.2-23.7c-0.4-1.5,0.8-3.1,2.3-3.4
	c1.5-0.4,3.1,0.8,3.4,2.3c1.5,8,3.1,16,4.2,24c0.4,1.5-0.8,3.1-2.3,3.4C887.7,611.9,887.3,611.9,887.3,611.9z M878.2,564.6
	c-1.1,0-2.7-0.8-2.7-2.3c-1.9-8.4-3.4-16-5.3-23.7c-0.4-1.5,0.8-3.1,2.3-3.4s3.1,0.8,3.4,2.3c1.9,7.6,3.4,15.3,5.3,23.7
	c0.4,1.5-0.8,3.1-2.3,3.4C878.5,564.2,878.5,564.6,878.2,564.6z M866.7,517.3c-1.1,0-2.3-0.8-2.7-1.9c-2.3-8-4.6-15.6-7.2-22.9
	c-0.4-1.5,0.4-3.1,1.9-3.8c1.5-0.4,3.1,0.4,3.8,1.9c2.3,7.2,5,15.3,7.2,23.3c0.4,1.5-0.4,3.1-1.9,3.4
	C867.5,517.3,867.1,517.3,866.7,517.3z"/>
<path class="st6" d="M979.6,870.9c-0.8,0-1.5-0.4-2.3-0.8c0,0-2.7-3.1-7.2-9.5c-0.8-1.1-0.8-3.1,0.8-3.8c1.1-0.8,3.1-0.8,3.8,0.8
	c4.2,6.1,6.5,8.8,6.9,8.8c1.1,1.1,0.8,3.1-0.4,4.2C980.8,870.5,980,870.9,979.6,870.9z"/>
<path class="st4" d="M634.8,982.7c-9.9-6.9-19.8-13.7-29.8-20.6c0.8-1.1,1.5-1.9,2.3-3.1c9.9,6.9,19.8,13.7,29.4,20.2
	C638.6,980.8,636.7,984.2,634.8,982.7z"/>
<path class="st4" d="M617.6,996c-8-7.2-16.4-14.1-24.8-21.4c0.8-0.8,1.9-1.5,2.7-2.7c8,7.2,16.4,14.1,24.8,21
	C622.2,994.9,619.5,997.6,617.6,996z"/>
<path class="st6" d="M774,657.7c-1.1,0-2.3-0.8-2.7-1.9c-8-19.5-17.2-101.9-19.1-116.7c-3.8-0.4-13.4-1.9-30.5-5.3
	c-1.5-0.4-2.7-1.9-2.3-3.4c0.4-1.5,1.9-2.7,3.4-2.3c23.3,4.6,32,5.7,32,5.7l2.3,0.4l0.4,2.3c0,1.1,10.7,97.3,18.7,117.5
	c0.8,1.5,0,3.1-1.5,3.8C774.8,657.7,774.4,657.7,774,657.7z"/>
<path class="st7" d="M676,180c20.6,0.4,30.9-16.8,30.5-30.9c-0.4-13.4-13.7-21.4-28.6-14.1c-5,2.3-9.9,6.9-14.5,13.4
	c0,0-1.5,6.1-1.5,12.6C661.9,169.7,664.5,179.6,676,180z"/>
<path class="st7" d="M599.3,207.1c15.6,22.9,48.1,35.1,74,6.5c17.5-19.8,19.1-51.9-1.5-74.4c-21-22.1-54.2-25.2-74-6.5
	C577.9,151.4,582.1,181.9,599.3,207.1z"/>
<path class="st2" d="M631.5,181.8c0.9-1.9,0-4.2-1.9-5c-1.9-0.9-4.2,0-5,1.9c-0.9,1.9,0,4.2,1.9,5
	C628.4,184.6,630.6,183.8,631.5,181.8z"/>
<path class="st2" d="M618.7,210.9c-5-6.9-8.8-14.5-11.8-22.5c-0.8-2.3,2.7-3.8,3.4-1.5c2.7,7.6,6.5,14.9,11.1,21.7
	C623.3,210.9,620.3,213.2,618.7,210.9z"/>
<path class="st3" d="M592.4,164.8c11.4-4.2,46.5-34.7,59.9-12.6c3.4,5.7,3.4,10.3,9.9,8.8c6.1-2.7,1.5-12.6,1.5-12.6
	c4.6-6.5,9.5-10.7,14.5-13.4C692,112.9,658,85.4,639,101.8c0,0-42.3-10.3-54.6,16c-21.7,8.8-29.8,25.6-25.2,41.2
	C567.2,185.7,592.4,164.8,592.4,164.8z"/>
<path class="st2" d="M675.6,162.5c-0.4-9.2,5.3-17.2,14.1-19.8c2.3-0.8,3.8,3.1,1.5,3.4c-6.9,1.9-11.8,8.4-11.4,15.6
	C679.4,164.4,675.6,164.8,675.6,162.5z"/>
<path class="st4" d="M692.4,213.2c-38.5,13-70.6,39.3-62.2,149.9s10.7,139.2,10.7,139.2l248-35.1
	C888.8,466.9,816.4,171.2,692.4,213.2z"/>
<path class="st4" d="M795.8,363.1c33.6,0,66.8-0.4,100.3-0.8c-9.5-72.9-71-156-170.1-164.8v70.2
	C759.5,268.9,790.8,321.9,795.8,363.1z"/>
<path class="st2" d="M824,117.5L849.9,48c10.7-28.6-26.7-42.7-37.4-14.1L787,102.2C799.2,106.8,811.8,112.1,824,117.5z"/>
<path class="st2" d="M454.3,1035c-5-1.9-7.2-7.6-5.3-12.2l23.3-59.1c1.9-5,7.6-7.2,12.2-5.3c5,1.9,7.2,7.6,5.3,12.2l-23.3,59.1
	C464.6,1034.6,459.3,1036.9,454.3,1035z"/>
<path class="st3" d="M563.4,909.8l288.4-772.9c25.9-68.3-80.5-109.1-106.4-40.4L457,869.4c-13,34.3-14.9,119.8,11.4,130.1
	C495.1,1009.4,550.5,944.2,563.4,909.8z"/>
<path class="st2" d="M739.3,113.6l-13,35.1c35.1,14.5,70.2,29,104.9,43.9l13.4-36.2C809.9,141.5,774.4,127.4,739.3,113.6z"/>
<path class="st2" d="M547.4,939.2c7.2-10.7,13-21,16-29.4l96.5-258.3c-35.1-14.5-70.2-28.6-106.1-41.6L457,869.4
	c-2.3,6.5-4.6,14.9-6.1,24C482.9,909.4,515,924.7,547.4,939.2z"/>
<path class="st7" d="M721.8,415.4c-5.7-43.5-27.1-54.2-49.2-62.2c-16.8-6.1-17.9,10.3,8,29.8l0.8,28.6L721.8,415.4z"/>
<path class="st7" d="M791.9,346.4c6.5,24.4,5.7,47.7-6.9,58.4c-31.7,27.1-89.3-1.1-121.3-24c-32-22.9-35.1,3.8-35.1,3.8
	c-21,1.9-14.5,24-14.5,24c-13.7,15.6-11.1,24.4,51.1,70.6c71.7,53,207.2,48.8,229.3-74.4c6.1-32.8-1.9-72.1-21.4-107.6
	C845.7,312,817.9,327.7,791.9,346.4z"/>
<path class="st6" d="M642.8,398.2c-3.8-3.1-6.5-6.9-8-11.8c-0.8-2.3-4.2-1.5-3.8,1.1c1.5,5.3,4.6,9.9,8.8,13.4
	C642,402.4,644.7,399.8,642.8,398.2z"/>
<path class="st6" d="M628.7,421.5c-4.6-1.1-8-4.6-9.2-9.2c-0.8-2.3-4.2-1.5-3.8,1.1c1.5,5.7,6.1,10.3,11.8,11.8
	C630.2,425.7,631,421.9,628.7,421.5z"/>
<path class="st7" d="M602.7,528.3c-21.7-46.9-30.5-124.7,40.8-203.7c2.7-2.7,5-5.3,7.2-8c6.9-31.7,15.3-62.6,29.8-91.9
	c-2.3-3.4-4.6-5-4.6-5c-67.9,30.9-156.4,79-181.6,206c-16,79.4,12.6,145,53.4,171.7c25.2,16.4,45.4,38.1,59.9,32.4
	c0,0,17.5,2.7,28.6-15.3c0,0,18.3-0.4,16.4-18.3C650,579.1,611.1,547,602.7,528.3z"/>
<path class="st4" d="M604.6,381.8c8.8-18.7,21.4-31.3,38.9-50.4c2.7-2.7,6.1,0,8.4-3.1c6.9-31.7,13.7-74.8,28.2-103.8
	c-2.3-3.4-4.6-5-4.6-5c-44.6,20.2-98.4,48.4-137,101.5C560,342.2,582.1,362,604.6,381.8z"/>
<path class="st7" d="M590.1,520.7c44.3,5,68.7,16.4,74.8,35.5c6.1,19.1-17.9,10.7-29.8,0.4l-23.3,14.1L590.1,520.7z"/>
<path class="st6" d="M634,612.6c-7.6-14.1-16.4-27.8-26.3-40.8c-1.5-1.9-5,0-3.4,1.9c9.9,13,18.3,26.3,26.3,40.8
	C631.7,616.8,635.1,614.9,634,612.6z"/>
<path class="st6" d="M611.5,626c-6.9-16-17.2-29.8-31.3-40.1c-1.9-1.5-3.8,1.9-1.9,3.4c13.4,9.5,23.3,22.5,29.8,37.8
	C608.8,629,612.6,628.3,611.5,626z"/>
<path class="st6" d="M626.4,552.4c-1.9-0.8-2.7-2.3-2.7-4.2c0-2.3-3.8-2.3-3.8,0c0,3.1,1.9,6.1,4.6,7.6
	C626.4,556.6,628.7,553.1,626.4,552.4z"/>
<path class="st2" d="M627.9,336.4c-1.5,0-2.7-1.1-2.7-2.3l-3.8-22.1c-0.4-1.5,0.8-3.1,2.3-3.4c1.5-0.4,3.1,0.8,3.4,2.3L631,333
	c0.4,1.5-0.8,3.1-2.3,3.4C628.3,336.4,628.3,336.4,627.9,336.4z"/>
<path class="st3" d="M423,1036.9c-0.8,0-1.9-0.4-2.3-1.1l-68.3-97.3c-0.8-1.1-0.8-3.1,0.8-3.8c1.1-0.8,3.1-0.8,3.8,0.8l68.3,97.3
	c0.8,1.1,0.8,3.1-0.8,3.8C424.2,1036.9,423.8,1036.9,423,1036.9z"/>
<path class="st3" d="M394.8,1036.9c-0.4,0-1.1,0-1.5-0.4l-49.6-33.6c-1.1-0.8-1.5-2.7-0.8-3.8c0.8-1.1,2.7-1.5,3.8-0.8l49.6,33.6
	c1.1,0.8,1.5,2.7,0.8,3.8C396.7,1036.5,395.6,1036.9,394.8,1036.9z"/>
</svg>
