<?xml version="1.0" encoding="utf-8"?>
<!-- Generator: Adobe Illustrator 24.3.0, SVG Export Plug-In . SVG Version: 6.00 Build 0)  -->
<svg version="1.1" id="Layer_1" xmlns="http://www.w3.org/2000/svg" xmlns:xlink="http://www.w3.org/1999/xlink" x="0px" y="0px"
	 viewBox="0 0 265.5 58.8" style="enable-background:new 0 0 265.5 58.8;" xml:space="preserve">
<style type="text/css">
	.st0{enable-background:new    ;}
</style>
<g class="st0">
	<path d="M2.1,0h14.7v4.2c0,5.9,2.7,11.3,8,16.4l10.2,9.6c3.2,3.2,4.8,7.2,4.8,11.8c0,4.6-1.6,8.6-4.9,11.9s-7.2,4.9-11.9,4.9H0
		V44.1h23c0.6,0,1.1-0.2,1.5-0.6c0.4-0.4,0.6-0.9,0.6-1.5c0-0.6-0.2-1-0.5-1.4l-7.7-7.4C7,24.2,2.1,14.6,2.1,4.2V0z"/>
	<path d="M81.6,0v14.7H41.7V0H81.6z M56.4,44.1h25.2v14.7H41.7V21h39.9v14.7H56.4V44.1z"/>
	<path d="M127.8,0v14.7H87.8V0H127.8z M102.5,44.1h25.2v14.7H87.8V21h39.9v14.7h-25.2V44.1z"/>
	<path d="M174,44.1v14.7H134V0h14.7v44.1H174z"/>
	<path d="M207.9,44.1L196.9,0h14.7l16.8,58.8h-52.5l10-37.8h15.5l-5.3,23.1H207.9z"/>
	<path d="M223.5,16.8V0h14.7v16.8c0,1.7,0.6,3.2,1.8,4.5c1.2,1.2,2.7,1.8,4.5,1.8c1.7,0,3.2-0.6,4.5-1.8c1.2-1.2,1.8-2.7,1.8-4.5V0
		h14.7v16.8c0,5.8-2.1,10.7-6.2,14.8c-4.1,4.1-9,6.2-14.8,6.2s-10.7-2.1-14.8-6.2C225.5,27.5,223.5,22.6,223.5,16.8z M229.8,44.1
		h29.4v14.7h-29.4V44.1z"/>
</g>
</svg>
