<svg width="90" height="20"
	xmlns="http://www.w3.org/2000/svg" xml:space="preserve" version="1.1">

	<g>
		<title>Layer 1</title>
		<g stroke="null" id="svg_1" enable-background="new" class="st0">
			<path stroke="null" id="svg_2" d="m0.46582,-0.02147l5.01073,0l0,1.43164c0,2.01111 0.92034,3.85179 2.72693,5.59021l3.47684,3.27232c1.09077,1.09077 1.63616,2.45424 1.63616,4.02222c0,1.56798 -0.54539,2.93145 -1.67024,4.05631s-2.45424,1.67024 -4.05631,1.67024l-7.83992,0l0,-5.01073l7.83992,0c0.20452,0 0.37495,-0.06817 0.5113,-0.20452c0.13635,-0.13635 0.20452,-0.30678 0.20452,-0.5113c0,-0.20452 -0.06817,-0.34087 -0.17043,-0.47721l-2.62467,-2.52241c-3.37458,-3.0678 -5.04482,-6.34011 -5.04482,-9.88512l0,-1.43164z"/>
			<path stroke="null" id="svg_3" d="m27.56469,-0.02147l0,5.01073l-13.60057,0l0,-5.01073l13.60057,0zm-8.58983,15.0322l8.58983,0l0,5.01073l-13.60057,0l0,-12.88475l13.60057,0l0,5.01073l-8.58983,0l0,2.86328z"/>
			<path stroke="null" id="svg_4" d="m43.31271,-0.02147l0,5.01073l-13.63465,0l0,-5.01073l13.63465,0zm-8.62392,15.0322l8.58983,0l0,5.01073l-13.60057,0l0,-12.88475l13.60057,0l0,5.01073l-8.58983,0l0,2.86328z"/>
			<path stroke="null" id="svg_5" d="m59.06074,15.01073l0,5.01073l-13.63465,0l0,-20.04294l5.01073,0l0,15.0322l8.62392,0z"/>
			<path stroke="null" id="svg_6" d="m70.6161,15.01073l-3.74953,-15.0322l5.01073,0l5.72655,20.04294l-17.89548,0l3.40866,-12.88475l5.28343,0l-1.80659,7.87401l4.02222,0z"/>
			<path stroke="null" id="svg_7" d="m75.93362,5.70508l0,-5.72655l5.01073,0l0,5.72655c0,0.57947 0.20452,1.09077 0.61356,1.5339c0.40904,0.40904 0.92034,0.61356 1.5339,0.61356c0.57947,0 1.09077,-0.20452 1.5339,-0.61356c0.40904,-0.40904 0.61356,-0.92034 0.61356,-1.5339l0,-5.72655l5.01073,0l0,5.72655c0,1.97702 -0.71582,3.64727 -2.11337,5.04482c-1.39755,1.39755 -3.0678,2.11337 -5.04482,2.11337s-3.64727,-0.71582 -5.04482,-2.11337c-1.43164,-1.39755 -2.11337,-3.0678 -2.11337,-5.04482zm2.14746,9.30565l10.02147,0l0,5.01073l-10.02147,0l0,-5.01073z"/>
		</g>
	</g>
</svg>