<svg width="32" height="32" viewBox="0 0 32 32" fill= "red"
    xmlns="http://www.w3.org/2000/svg">




    <g >
        <path d="m6.62565,1.29077l7.3561,0l0,2.09639c0.11044,3.17267 1.55919,6.15254 3.98689,8.1984l5.09125,4.81047c3.24754,3.28123 3.24754,8.56714 0,11.84837c-1.55733,1.6116 -3.71174,2.50444 -5.95227,2.47075l-11.53017,0l0,-7.3561l11.49273,0c0.27889,0 0.54656,-0.10669 0.74871,-0.29949c0.37623,-0.41366 0.37623,-1.04632 0,-1.45999l-3.87459,-3.74356c-4.90407,-4.49227 -7.3561,-9.32708 -7.3561,-14.5063l0.03744,-2.05895l0,0l0,0l0.00001,0.00002l0,-0.00001z" id="svg_1" stroke="null"/>
        <path d="m19.6047,4.84781c0,-1.969 1.52554,-3.56388 3.40893,-3.56388c1.88338,0 3.40893,1.59488 3.40893,3.56388c0,1.969 -1.52554,3.56388 -3.40893,3.56388c-1.88338,0 -3.40893,-1.59488 -3.40893,-3.56388z" id="svg_2" stroke="null"/>
    </g>

</svg>
