<?xml version="1.0" encoding="iso-8859-1"?>
<!-- Generator: Adobe Illustrator 19.0.0, SVG Export Plug-In . SVG Version: 6.00 Build 0)  -->
<svg version="1.1" id="Capa_1" xmlns="http://www.w3.org/2000/svg" xmlns:xlink="http://www.w3.org/1999/xlink" x="0px" y="0px"
	 viewBox="0 0 512 512" style="enable-background:new 0 0 512 512;" xml:space="preserve">
<path style="fill:#E0E0E0;" d="M489.511,453.512H22.488c-8.28,0-14.992-6.713-14.992-14.992V73.48
	c0-8.28,6.713-14.992,14.992-14.992h467.023c8.28,0,14.992,6.713,14.992,14.992V438.52
	C504.504,446.799,497.792,453.512,489.511,453.512z"/>
<path style="fill:#C6C5CA;" d="M489.511,58.488h-24.987c8.281,0,14.992,6.713,14.992,14.992V438.52
	c0,8.28-6.712,14.992-14.992,14.992h24.987c8.281,0,14.992-6.713,14.992-14.992V73.48C504.504,65.201,497.792,58.488,489.511,58.488
	z"/>
<polygon style="fill:#39A4FA;" points="273.97,341.193 58.1,341.193 58.1,191.84 273.97,191.84 273.97,235.512 273.97,265.497 "/>
<path style="fill:#546F7A;" d="M489.511,58.488H22.488c-8.28,0-14.992,6.713-14.992,14.992v59.937h497.008V73.48
	C504.504,65.201,497.792,58.488,489.511,58.488z"/>
<path style="fill:#475D63;" d="M500.113,62.88c-0.679-0.679-1.421-1.291-2.219-1.831c-0.798-0.539-1.65-1.002-2.547-1.382
	c-0.897-0.379-1.838-0.674-2.815-0.874c-0.976-0.2-1.986-0.305-3.021-0.305h-24.987c8.281,0,14.992,6.713,14.992,14.992v59.937
	h24.987V73.48C504.504,69.34,502.826,65.592,500.113,62.88z"/>
<polygon style="fill:#008950;" points="200.036,252.246 156.037,291.505 211.724,341.193 273.97,341.193 273.97,318.216 "/>
<polygon style="fill:#00B76C;" points="58.1,319.655 58.1,341.193 211.724,341.193 122.843,261.887 "/>
<circle style="fill:#FFD039;" cx="156.61" cy="227.504" r="17.071"/>
<path d="M504.504,381.734c-4.14,0-7.496,3.356-7.496,7.496v49.29c0,4.134-3.362,7.496-7.496,7.496H22.488
	c-4.133,0-7.496-3.362-7.496-7.496V210.594c0-4.14-3.356-7.496-7.496-7.496S0,206.454,0,210.594V438.52
	c0,12.401,10.088,22.488,22.488,22.488h467.023c12.4,0,22.488-10.088,22.488-22.488v-49.29
	C512,385.09,508.645,381.734,504.504,381.734z"/>
<path d="M489.511,50.992H22.488C10.088,50.992,0,61.08,0,73.48v59.937v47.191c0,4.14,3.356,7.496,7.496,7.496
	s7.496-3.356,7.496-7.496v-39.695h482.015v218.332c0,4.14,3.356,7.496,7.496,7.496c4.141,0,7.496-3.356,7.496-7.496V133.418V73.48
	C512,61.08,501.912,50.992,489.511,50.992z M14.992,125.922V73.48c0-4.134,3.363-7.496,7.496-7.496h467.023
	c4.134,0,7.496,3.362,7.496,7.496v52.441C497.008,125.922,14.992,125.922,14.992,125.922z"/>
<path d="M53.031,82.659c-6.929,0-12.566,5.637-12.566,12.566c0,6.929,5.637,12.566,12.566,12.566s12.566-5.637,12.566-12.566
	C65.596,88.296,59.96,82.659,53.031,82.659z"/>
<path d="M90.629,82.659c-6.929,0-12.566,5.637-12.566,12.566c0,6.929,5.637,12.566,12.566,12.566
	c6.929,0,12.566-5.637,12.566-12.566C103.195,88.296,97.558,82.659,90.629,82.659z"/>
<path d="M128.226,82.659c-6.929,0-12.566,5.637-12.566,12.566c0,6.929,5.637,12.566,12.566,12.566s12.566-5.637,12.566-12.566
	C140.793,88.296,135.156,82.659,128.226,82.659z"/>
<path d="M273.97,184.345H58.1c-4.14,0-7.496,3.356-7.496,7.496v127.815v21.538c0,4.14,3.356,7.496,7.496,7.496h153.623h62.245
	c4.141,0,7.496-3.356,7.496-7.496v-22.977v-52.719c0-4.14-3.355-7.496-7.496-7.496c-4.141,0-7.496,3.356-7.496,7.496v35.984
	l-61.448-54.828c-2.844-2.537-7.138-2.537-9.981,0l-39.008,34.806l-28.204-25.165c-2.844-2.537-7.138-2.537-9.981,0L65.596,302.92
	V199.337h200.877v36.176c0,4.14,3.355,7.496,7.496,7.496c4.141,0,7.496-3.356,7.496-7.496v-43.673
	C281.466,187.7,278.111,184.345,273.97,184.345z M200.036,262.293l66.438,59.281v12.123h-51.89l-47.286-42.191L200.036,262.293z
	 M122.843,271.934l57.209,51.046l12.012,10.717H65.596v-10.684L122.843,271.934z"/>
<path d="M132.037,227.509c0,13.548,11.022,24.57,24.57,24.57c13.548,0,24.569-11.022,24.569-24.57
	c0-13.548-11.022-24.57-24.569-24.57C143.061,202.938,132.037,213.96,132.037,227.509z M166.185,227.509
	c0,5.281-4.297,9.578-9.577,9.578s-9.578-4.297-9.578-9.578c0-5.281,4.297-9.578,9.578-9.578S166.185,222.227,166.185,227.509z"/>
<path d="M317.858,199.337h133.365c4.141,0,7.496-3.356,7.496-7.496s-3.355-7.496-7.496-7.496H317.858
	c-4.141,0-7.496,3.356-7.496,7.496S313.717,199.337,317.858,199.337z"/>
<path d="M317.858,249.688h133.365c4.141,0,7.496-3.356,7.496-7.496s-3.355-7.496-7.496-7.496H317.858
	c-4.141,0-7.496,3.356-7.496,7.496C310.362,246.333,313.717,249.688,317.858,249.688z"/>
<path d="M317.858,300.041h133.365c4.141,0,7.496-3.356,7.496-7.496s-3.355-7.496-7.496-7.496H317.858
	c-4.141,0-7.496,3.356-7.496,7.496S313.717,300.041,317.858,300.041z"/>
<path d="M317.858,348.69h133.365c4.141,0,7.496-3.356,7.496-7.496c0-4.14-3.355-7.496-7.496-7.496H317.858
	c-4.141,0-7.496,3.356-7.496,7.496C310.362,345.333,313.717,348.69,317.858,348.69z"/>
<path d="M54.048,399.615c0,4.14,3.356,7.496,7.496,7.496h389.678c4.141,0,7.496-3.356,7.496-7.496c0-4.14-3.355-7.496-7.496-7.496
	H61.545C57.405,392.119,54.048,395.476,54.048,399.615z"/>
<g>
</g>
<g>
</g>
<g>
</g>
<g>
</g>
<g>
</g>
<g>
</g>
<g>
</g>
<g>
</g>
<g>
</g>
<g>
</g>
<g>
</g>
<g>
</g>
<g>
</g>
<g>
</g>
<g>
</g>
</svg>
