<svg width="233" height="318" viewBox="0 0 233 318" fill="none" xmlns="http://www.w3.org/2000/svg">
<path d="M103.2 284.9L102.5 314.3L153.5 314.8C153.5 314.8 153.8 308.8 144.1 304.3C134.4 299.8 132.4 282 132.4 282L103.2 284.9Z" fill="#5F5FFF"/>
<path d="M11.4 272.4L0.5 299.7L48.1 317.9C48.1 317.9 50.4 312.4 42.9 304.8C35.4 297.2 39.7 279.8 39.7 279.8L11.4 272.4Z" fill="#5F5FFF"/>
<path d="M48.2002 152.8C40.0002 166.6 36.5002 205.1 27.2002 224.8C17.9002 244.5 7.2002 276.3 7.2002 276.3L44.9002 292.3C44.9002 292.3 70.6002 234.8 73.5002 204.8C76.4002 174.8 75.7002 148.8 75.7002 148.8L48.2002 152.8Z" fill="#030047"/>
<path d="M64.2002 167.8C65.0002 183.8 85.5002 214 88.8002 235.6C92.1002 257.2 100.7 296.1 100.7 296.1L141 288.5C141 288.5 135.7 228.1 118.2 190.8C105.4 163.5 87.0002 145.4 87.0002 145.4L64.2002 167.8Z" fill="#030047"/>
<path d="M72.7001 193.8C72.4001 193.8 72.2001 193.7 72.0001 193.4L69.5001 188.9L62.0001 186.2C61.6001 186.1 61.4001 185.6 61.5001 185.2C61.6001 184.8 62.1001 184.6 62.5001 184.7L70.5001 187.5L73.2001 192.5C73.4001 192.9 73.3001 193.3 72.9001 193.5C72.9001 193.7 72.8001 193.8 72.7001 193.8Z" fill="white"/>
<path d="M39.5999 295C38.0999 295.8 36.4999 296.7 34.9999 297.5C34.3999 297.8 34.8999 298.7 35.4999 298.4C36.9999 297.6 38.5999 296.7 40.0999 295.9C40.6999 295.6 40.1999 294.7 39.5999 295Z" fill="#030047"/>
<path d="M40.4003 298.1C39.2003 299.1 37.9003 300 36.7003 301C36.2003 301.4 36.7003 302.3 37.2003 301.9L40.9003 299C41.4003 298.6 40.9003 297.7 40.4003 298.1Z" fill="#030047"/>
<path d="M137.7 296.9C137.1 298.2 136.5 299.4 135.8 300.7C135.5 301.3 136.4 301.8 136.7 301.2L138.6 297.4C138.8 296.9 137.9 296.3 137.7 296.9Z" fill="#030047"/>
<path d="M140.5 300.3C139.9 301.6 139.3 302.8 138.6 304.1C138.3 304.7 139.2 305.2 139.5 304.6L141.4 300.8C141.7 300.2 140.8 299.7 140.5 300.3Z" fill="#030047"/>
<path d="M133.2 287.2C132.8 287.2 132.5 286.9 132.5 286.5C130.9 228.5 96.4 165.4 96.1 164.8C95.9 164.4 96 164 96.4 163.8C96.8 163.6 97.2 163.7 97.4 164.1C97.7 164.7 132.3 228.1 134 286.5C134 286.9 133.6 287.2 133.2 287.2Z" fill="white"/>
<path d="M103 177.8C102.9 177.8 102.8 177.8 102.7 177.8C102.3 177.7 102.1 177.2 102.3 176.8C104.2 171.7 101.9 164.7 101.9 164.6C101.8 164.2 102 163.8 102.4 163.6C102.8 163.5 103.2 163.7 103.4 164.1C103.5 164.4 106 171.7 103.8 177.3C103.6 177.6 103.3 177.8 103 177.8Z" fill="white"/>
<path d="M173.7 43.8H141.5V76H173.7V43.8Z" fill="#8FACFF"/>
<path d="M157.6 67.6C154.7 67.6 152.1 66.1 150.7 63.6C150.5 63.2 150.6 62.8 151 62.6C151.4 62.4 151.8 62.5 152 62.9C153.1 64.9 155.3 66.2 157.6 66.2C161.1 66.2 164 63.3 164 59.8C164 56.3 161.1 53.4 157.6 53.4C154.1 53.4 151.2 56.3 151.2 59.8C151.2 60.2 150.9 60.6 150.4 60.6C149.9 60.6 149.6 60.3 149.6 59.8C149.6 55.4 153.2 51.9 157.5 51.9C161.8 51.9 165.4 55.5 165.4 59.8C165.6 64 162 67.6 157.6 67.6Z" fill="white"/>
<path d="M157.6 72C150.8 72 145.2 66.4 145.2 59.6C145.2 52.8 150.8 47.2 157.6 47.2C161 47.2 164.4 48.7 166.7 51.2C167 51.5 167 52 166.7 52.3C166.4 52.6 165.9 52.6 165.6 52.3C163.5 50.1 160.6 48.8 157.6 48.8C151.6 48.8 146.7 53.7 146.7 59.7C146.7 65.7 151.6 70.6 157.6 70.6C163.6 70.6 168.5 65.7 168.5 59.7C168.5 58.3 168.2 57 167.7 55.7C167.5 55.3 167.7 54.9 168.1 54.7C168.5 54.5 168.9 54.7 169.1 55.1C169.7 56.6 170 58.1 170 59.7C170 66.5 164.5 72 157.6 72Z" fill="white"/>
<path d="M49.9004 131.6C52.1004 125.8 52.9004 123.7 57.3004 125.7C61.7004 127.7 52.6003 138 52.6003 138L49.9004 131.6Z" fill="#FF3E6C"/>
<path d="M20.0002 114.4C16.0002 127.8 24.3002 144 35.8002 151L37.2002 149C40.1002 150.6 43.2002 151.8 46.4002 152.5C49.8002 146.7 53.7002 141.3 57.3002 135.6C52.7002 133.8 48.6002 132.4 47.7002 127.2C45.1002 113.2 61.7002 116.2 72.7002 119.5C75.4002 108.7 76.4002 91.8 76.4002 91.8C49.8002 84.8 26.3002 93.3 20.0002 114.4Z" fill="#FFCC3E"/>
<path d="M48.2002 129C44.4002 135.1 41.5002 143.2 37.2002 149C40.1002 150.6 43.2002 151.8 46.4002 152.5C49.8002 146.7 53.7002 141.3 57.3002 135.6C54.4002 134.4 50.1002 130.9 48.2002 129Z" fill="#FF3E6C"/>
<path d="M53.1003 127.2C49.6003 127.2 48.1003 128.2 47.6003 130.6C47.1003 133 49.9004 135.4 49.9004 135.4L53.1003 127.2Z" fill="#FF3E6C"/>
<path d="M97.8999 64.8C101 72.2 101.2 80.1 91.4999 83.2C84.8999 85.3 76.9999 82.2 73.8999 74.8C70.7999 67.4 73.6999 59.2 80.2999 56.4C86.8999 53.7 94.7999 57.5 97.8999 64.8Z" fill="#FF3E6C"/>
<path d="M92.3999 65.2C92.9522 65.2 93.3999 64.7523 93.3999 64.2C93.3999 63.6477 92.9522 63.2 92.3999 63.2C91.8476 63.2 91.3999 63.6477 91.3999 64.2C91.3999 64.7523 91.8476 65.2 92.3999 65.2Z" fill="#030047"/>
<path d="M93.1 54.8C93.1 48.2 82.2 55.6 80.3 56.5C74.4 57.6 69.2 65.4 71 72.3C72.5 78.2 79.3001 85.2 82.9001 83.5C88.8001 80 89.7 74.2 87 68.7C88 67.5 86.8 65.7 87.3 64.3C88 62.1 93.2 57.2 93.1 54.8Z" fill="#5F5FFF"/>
<path d="M84.9999 68.2C73.9999 67.2 75.2999 76 79.3999 78C82.7999 79.6 87.9999 79 90.0999 74C92.1999 69 84.9999 68.2 84.9999 68.2Z" fill="#FF3E6C"/>
<path d="M85.9 72C83.8 70.9 81.2 71.4 79.7 73.3C79.3 73.8 80 74.5 80.4 74C81.6 72.5 83.7 72 85.4 72.9C86 73.1 86.5 72.2 85.9 72Z" fill="#030047"/>
<path d="M98.7 67.3C97.6 65.4 96.2 63.6 94.5 62.1C94 61.7 93.2999 62.4 93.7999 62.8C95.3999 64.3 96.6999 65.9 97.7999 67.8C98.1999 68.4 99.1 67.9 98.7 67.3Z" fill="#030047"/>
<path d="M84.4003 91.9C68.8003 88.5 62.5003 95.9 56.9003 118.7C51.3003 141.5 41.3003 154.7 41.3003 154.7C41.3003 154.7 86.7003 167.5 106 164.7C105.9 164.8 117.5 99.1 84.4003 91.9Z" fill="#FFCC3E"/>
<path d="M71.9004 94.5L73.5004 86.7L94.8004 89.1L92.3004 98.7L71.9004 94.5Z" fill="#FFCC3E"/>
<path d="M57.3004 115.1C57.2004 115.1 57.1005 115.1 57.0005 115C56.6005 114.8 56.4004 114.4 56.6004 114L60.5005 104.4C60.7005 104 61.1005 103.8 61.5005 104C61.9005 104.2 62.1005 104.6 61.9005 105L58.0005 114.6C57.9005 115 57.6004 115.1 57.3004 115.1Z" fill="#030047"/>
<path d="M145.9 85.6C148.8 80.5 150.2 72.3 153.6 65C156.5 58.8 159 56.9 160.3 59.5C161.2 61.2 159.4 63.1 158.2 68.8C158.2 68.8 162.5 69.7 162.8 72.7C162.8 72.7 166.6 73.6 166.9 78.7C167 81.2 167.8 84.3 164.9 83.8C164.3 86.4 163.8 91.5 163.3 95C162.4 101.3 159.4 103.2 159.4 103.2L145.9 85.6Z" fill="#FF3E6C"/>
<path d="M146.3 84.8C141 95.4 137.6 99.3 131.3 101.1C121.8 103.9 99.1 91.4 84.9 93.7L81.5 122.8C81.5 122.8 102.1 136.2 125.9 134.3C146.5 132.6 160.2 111.5 162.7 101.1C160.2 94.3 152 88.7 146.3 84.8Z" fill="#FFCC3E"/>
<path d="M103.7 132.4C103.6 132.4 103.5 132.4 103.4 132.3C103.4 132.3 99.9002 130.8 96.5002 130.8C96.1002 130.8 95.8002 130.5 95.7002 130.1C95.7002 129.7 96.1002 129.4 96.5002 129.3C100.2 129.3 103.8 130.8 104 130.9C104.4 131.1 104.6 131.5 104.4 131.9C104.3 132.3 104 132.4 103.7 132.4Z" fill="#030047"/>
<path d="M157.5 69.7L156.8 71.7C156.6 72.3 157.5 72.6 157.8 72C158 71.3 158.3 70.7 158.5 70C158.7 69.4 157.7 69.1 157.5 69.7Z" fill="#030047"/>
<path d="M166.1 79C166 78.4 165 78.6 165.1 79.3C165.2 80.1 165.1 80.9 164.8 81.7C164.6 82.3 165.5 82.6 165.8 82C166.2 81 166.3 80 166.1 79Z" fill="#030047"/>
<path d="M162.3 73.4C162.1 73.8 162 74.3 161.8 74.7C161.6 75.3 162.5 75.6 162.8 75C163 74.6 163.1 74.1 163.3 73.7C163.5 73 162.5 72.8 162.3 73.4Z" fill="#030047"/>
<path d="M146.9 83.7C145.7 75.2 147.2 71.5 150 68C152.8 64.5 154.5 69.7 154.5 69.7L146.9 83.7Z" fill="#FF3E6C"/>
<path d="M152 68.6C150.8 70.9 150 73.3 149.6 75.9C149.5 76.5 150.5 76.8 150.6 76.2C151 73.7 151.7 71.4 152.9 69.1C153.1 68.5 152.3 68 152 68.6Z" fill="#030047"/>
<path d="M210.3 131.5H144V173.4H210.3V131.5Z" fill="#FFC2D6"/>
<path d="M173.1 0.900002H156.5V17.5H173.1V0.900002Z" fill="#E4E4EF"/>
<path d="M232.6 0.900002H205.2V28.3H232.6V0.900002Z" fill="#FFC2D6"/>
<path d="M232.6 56.6H188.2V101H232.6V56.6Z" fill="#E4E4EF"/>
<path d="M147.9 0.900002H115.5V20.9H147.9V0.900002Z" fill="#F2F2F9"/>
<path d="M141 11.7H122.1C121.7 11.7 121.3 11.4 121.3 10.9C121.3 10.4 121.6 10.1 122.1 10.1H141C141.4 10.1 141.8 10.4 141.8 10.9C141.8 11.4 141.4 11.7 141 11.7Z" fill="white"/>
<path d="M183.3 13.5C184.736 13.5 185.9 12.3359 185.9 10.9C185.9 9.46406 184.736 8.3 183.3 8.3C181.864 8.3 180.7 9.46406 180.7 10.9C180.7 12.3359 181.864 13.5 183.3 13.5Z" fill="#E4E4EF"/>
<path d="M183.3 23.5C184.736 23.5 185.9 22.3359 185.9 20.9C185.9 19.4641 184.736 18.3 183.3 18.3C181.864 18.3 180.7 19.4641 180.7 20.9C180.7 22.3359 181.864 23.5 183.3 23.5Z" fill="#E4E4EF"/>
<path d="M192 142.6H160.2C159.8 142.6 159.4 142.3 159.4 141.8C159.4 141.3 159.7 141 160.2 141H192C192.4 141 192.8 141.3 192.8 141.8C192.8 142.3 192.4 142.6 192 142.6Z" fill="white"/>
<path d="M192 151.3H172.5C172.1 151.3 171.7 151 171.7 150.5C171.7 150 172 149.7 172.5 149.7H192C192.4 149.7 192.8 150 192.8 150.5C192.8 151 192.4 151.3 192 151.3Z" fill="white"/>
<path d="M167.6 151.3H160.2C159.8 151.3 159.4 151 159.4 150.5C159.4 150 159.7 149.7 160.2 149.7H167.6C168 149.7 168.4 150 168.4 150.5C168.4 151 168 151.3 167.6 151.3Z" fill="white"/>
<path d="M203.7 68.6V90.3L221.4 79.5L203.7 68.6Z" fill="white"/>
</svg>
