<svg width="205" height="228" viewBox="0 0 205 228" fill="none" xmlns="http://www.w3.org/2000/svg">
<path d="M25 50.6001L0.5 65.8001L31.1 128.9L55.6 113.8L25 50.6001Z" fill="#FFCC3E"/>
<path d="M119.3 26.1001C99.0001 29.7001 94.7001 47.8001 80.3001 50.6001C62.4001 54.1001 44.2001 51.0001 33.3001 59.8001C22.4001 68.6001 28.2001 70.9001 28.2001 70.9001C28.2001 70.9001 27.8001 74.0001 31.8001 74.9001C31.8001 74.9001 31.4001 79.3001 35.1001 78.9001C38.8001 78.5001 41.0001 71.1001 45.0001 71.2001C49.0001 71.3001 52.0001 73.7001 55.3001 70.5001C58.6001 67.4001 72.0001 75.2001 92.1001 66.4001C105.2 60.7001 114 55.8001 117.8 47.8001C123 37.0001 119.3 26.1001 119.3 26.1001Z" fill="#FF3E6C"/>
<path d="M119.3 26.1001C99.0001 29.7001 94.7001 47.8001 80.3001 50.6001C73.4001 51.9001 66.5001 52.3001 59.9001 52.8001C60.6001 58.6001 61.6001 69.2001 62.3001 75.0001C68.8001 75.8001 82.6001 75.9001 95.9001 70.1001C109 64.4001 113.9 56.0001 117.7 47.9001C123 37.0001 119.3 26.1001 119.3 26.1001Z" fill="#5F5FFF"/>
<path d="M40.2 65.4001C36.5 66.3001 34.7 69.7001 33.2 72.9001C32.9 73.5001 33.8 74.0001 34.1 73.4001C35.5 70.5001 37.1 67.2001 40.5 66.4001C41.1 66.2001 40.8 65.2001 40.2 65.4001Z" fill="#030047"/>
<path d="M35.1 62.2001C32.4 64.0001 29.6 66.1001 29.3 69.6001C29.2 70.2001 30.2 70.2001 30.3 69.6001C30.6 66.5001 33.2 64.6001 35.6 63.0001C36.1 62.7001 35.6 61.8001 35.1 62.2001Z" fill="#030047"/>
<path d="M46.8001 69.0001C46.8001 69.0001 47.4001 73.7001 45.4001 75.3001C43.3001 76.9001 41.1001 77.8001 42.1001 79.7001C43.0001 81.6001 45.8001 80.2001 50.3001 78.0001C54.9001 75.8001 56.8001 69.9001 56.7001 67.4001C56.7001 64.9001 46.8001 69.0001 46.8001 69.0001Z" fill="#FF3E6C"/>
<path d="M119.3 26.1C125.7 24.1 144.4 19.2 160.3 45.8C176.3 72.4 166.2 95.3 166.2 95.3L119.3 75C119.3 75 116.8 65.9 112.5 48.6C111.5 44.9 109.1 29.3 119.3 26.1Z" fill="#5F5FFF"/>
<path d="M113 51.4C112.7 51.4 112.3 51.2 112.3 50.8C111.3 46 110.9 39.4 110.8 39.2C110.8 38.8 111.1 38.4 111.5 38.4C111.9 38.4 112.3 38.7 112.3 39.1C112.3 39.2 112.7 45.8 113.7 50.5C113.8 50.9 113.5 51.3 113.1 51.4H113Z" fill="white"/>
<path d="M168.6 113.6H129.3L128 105.6L97.3 95.3C97.3 96.7 95 105.4 92.7 113.6C90.5 121.5 88.3 128.9 88.3 128.9H61C61 128.9 61.5 122.4 62.6 113.6C63.2 108.4 64.1 102.5 65.1 96.6C67.6 82.6 70.8 69.5 82.4 62C107.1 46.1 151.4 83.5 166.3 95.2L168.6 113.6Z" fill="#8FACFF"/>
<path d="M127.6 103.7C127.3 103.7 127 103.5 126.9 103.1L125 95.6L121.8 90.8C121.6 90.5 121.7 90 122 89.8C122.3 89.6 122.8 89.7 123 90L126.4 95.2L128.3 102.9C128.4 103.3 128.2 103.7 127.8 103.8C127.8 103.7 127.7 103.7 127.6 103.7Z" fill="#030047"/>
<path d="M55.1 113.6H62.5C61.4 122.4 60.9 128.9 60.9 128.9H31L55.1 113.6Z" fill="#030047"/>
<path d="M177 113.6L163.5 122.2L152.9 128.9H88.2C88.2 128.9 90.3999 121.5 92.5999 113.6H177Z" fill="#030047"/>
<path d="M152.9 128.9H31.1001V227.8H152.9V128.9Z" fill="#FFCC3E"/>
<path d="M177 212.5L152.9 227.9V128.9L177 113.6V212.5Z" fill="#FFCC3E"/>
<path d="M152.9 223.1C152.5 223.1 152.1 222.8 152.1 222.3V135.8C152.1 135.4 152.4 135 152.9 135C153.4 135 153.7 135.3 153.7 135.8V222.3C153.6 222.8 153.3 223.1 152.9 223.1Z" fill="white"/>
<path d="M68.2 128.9V129.1C68.2 155 51.7 167.4 31 168.1V129H68.2V128.9Z" fill="#E4E4EF"/>
<path d="M58.1 162.9L49.5 169.8L60.1 174.4L58.1 162.9Z" fill="#F2F2F9"/>
<path d="M138.4 150.8H78.7V156.8H138.4V150.8Z" fill="#5F5FFF"/>
<path d="M114.6 168.1H104.2C103 168.1 102.1 167.1 102.1 166C102.1 164.8 103.1 163.9 104.2 163.9H114.6C115.8 163.9 116.7 164.9 116.7 166C116.7 167.1 115.8 168.1 114.6 168.1Z" fill="#030047"/>
<path d="M126 168.1H122.5C121.3 168.1 120.4 167.1 120.4 166C120.4 164.8 121.4 163.9 122.5 163.9H126C127.2 163.9 128.1 164.9 128.1 166C128.1 167.1 127.2 168.1 126 168.1Z" fill="#030047"/>
<path d="M136.2 168.1H132.7C131.5 168.1 130.6 167.1 130.6 166C130.6 164.8 131.6 163.9 132.7 163.9H136.2C137.4 163.9 138.3 164.9 138.3 166C138.4 167.1 137.4 168.1 136.2 168.1Z" fill="#030047"/>
<path d="M102.1 189.8H31.1001V227.8H102.1V189.8Z" fill="#E4E4EF"/>
<path d="M80.1001 226.9C79.9001 226.9 79.8001 226.9 79.7001 226.8L32.2 192.1C31.9 191.9 31.8 191.4 32 191.1C32.2 190.8 32.7 190.7 33 190.9L80.5 225.6C80.8 225.8 80.9001 226.3 80.7001 226.6C80.5001 226.8 80.3001 226.9 80.1001 226.9Z" fill="white"/>
<path d="M52.9999 226.9C52.7999 226.9 52.4999 226.8 52.3999 226.6C52.1999 226.3 52.1999 225.8 52.5999 225.6L99.6999 190.9C99.9999 190.7 100.5 190.7 100.7 191.1C100.9 191.4 100.9 191.9 100.5 192.1L53.3999 226.8C53.2999 226.9 53.0999 226.9 52.9999 226.9Z" fill="white"/>
<path d="M186.3 143.4H182.4V185.9H186.3V143.4Z" fill="#E4E4EF"/>
<path d="M163.5 122.2L152.9 128.9H115.2C126.2 121 142.2 119.6 158.6 121.2C160.8 121.5 162.3 121.8 163.5 122.2Z" fill="#F2F2F9"/>
<path d="M186.3 75L162.1 90.3L152.9 129.1L177 113.8L186.3 75Z" fill="#FFCC3E"/>
<path d="M155.6 128C155.4 128 155.1 127.9 155 127.7C154.8 127.4 154.9 126.9 155.2 126.7L173.8 114.9C174.2 114.7 174.6 114.8 174.8 115.1C175 115.4 174.9 115.9 174.6 116.1L156 127.8C155.9 127.9 155.8 128 155.6 128Z" fill="white"/>
<path d="M131 23.4999C159.8 22.2999 186.6 30.4999 195.9 42.0999C206.1 54.7999 200.9 79.7999 188.4 86.2999C185.3 87.8999 181.8 88.2999 179.9 89.1999C174.1 91.8999 172.8 91.5999 170.9 90.0999C170.9 90.0999 166.1 93.0999 164.7 89.3999C164.7 89.3999 162.9 94.0999 159.5 92.8999C156.2 91.6999 160.2 82.3999 169.3 77.5999C178.5 72.7999 183.1 60.7999 178 53.5999C172.8 46.3999 141.3 37.5999 141.3 37.5999L131 23.4999Z" fill="#FF3E6C"/>
<path d="M178.1 53.6C180.9 57.4 180.8 62.7 178.8 67.4C185.3 69.8 195.1 72.1 201.4 75C206.3 64.7 206.4 49.6 198.7 41.5C183.7 26 159.9 22.2 131.1 23.4L144.7 46.9C144.6 46.9 173 46.5 178.1 53.6Z" fill="#5F5FFF"/>
<path d="M171.3 81C168.7 82.8 166.6 85.1 165.2 87.9C164.9 88.5 165.8 89 166.1 88.4C167.5 85.7 169.4 83.5 171.9 81.9C172.3 81.5 171.8 80.6 171.3 81Z" fill="#030047"/>
<path d="M176.3 82.7C174.2 84.2 172.6 86.1 171.4 88.4C171.1 89 172 89.5 172.3 88.9C173.4 86.8 174.9 85 176.8 83.6C177.3 83.2 176.8 82.4 176.3 82.7Z" fill="#030047"/>
<path d="M158.7 48.5C158.6 48.5 158.6 48.5 158.5 48.5L154.4 47.2C154 47.1 153.8 46.7 153.9 46.3C154 45.9 154.4 45.7 154.8 45.8L158.9 47.1C159.3 47.2 159.5 47.6 159.4 48C159.3 48.3 159 48.5 158.7 48.5Z" fill="#030047"/>
<path d="M20.5999 175.1C20.3999 175.1 20.1999 175 20.0999 174.9L4.19985 159C3.89985 158.7 3.89985 158.2 4.19985 157.9C4.49985 157.6 4.99986 157.6 5.29986 157.9L21.1999 173.8C21.4999 174.1 21.4999 174.6 21.1999 174.9C20.9999 175.1 20.7999 175.1 20.5999 175.1Z" fill="#FF3E6C"/>
<path d="M4.69985 175.1C4.49985 175.1 4.29985 175 4.19985 174.9C3.89985 174.6 3.89985 174.1 4.19985 173.8L20.0999 157.9C20.3999 157.6 20.8999 157.6 21.1999 157.9C21.4999 158.2 21.4999 158.7 21.1999 159L5.29986 174.9C5.09986 175.1 4.89985 175.1 4.69985 175.1Z" fill="#FF3E6C"/>
<path d="M20.5999 188.8H4.69991C4.29991 188.8 3.8999 188.5 3.8999 188C3.8999 187.5 4.19991 187.2 4.69991 187.2H20.5999C20.9999 187.2 21.3999 187.5 21.3999 188C21.3999 188.5 20.9999 188.8 20.5999 188.8Z" fill="#FF3E6C"/>
<path d="M131.5 24.2001C136.8 25.1001 139.9 22.4001 140.3 18.7001C140.7 15.3001 137.8 11.3001 133.7 12.6001C132.3 13.1001 130.9 14.0001 129.4 15.5001C129.4 15.5001 128.8 17.0001 128.5 18.7001C128.2 20.9001 128.5 23.6001 131.5 24.2001Z" fill="#FF3E6C"/>
<path d="M131.3 29.5C123.5 36 115.8 32.6 112.4 25C110.9 21.6 109.5 17.9 110 14.2C110.4 10.8 112 7.69998 114.8 5.69998C120.7 1.59998 129.2 3.59998 133.7 10.2C133.7 10.2 133.7 10.2 133.7 10.3C138.3 16.8 136.6 25.1 131.3 29.5Z" fill="#FF3E6C"/>
<path d="M121.717 19.6227C122.014 19.1574 121.878 18.539 121.413 18.2416C120.947 17.9442 120.329 18.0804 120.032 18.5457C119.734 19.0111 119.87 19.6294 120.336 19.9268C120.801 20.2242 121.419 20.0881 121.717 19.6227Z" fill="#030047"/>
<path d="M117.3 26.7C116.3 24.7 115.6 22.6 115.1 20.4C115 19.8 116 19.6 116.1 20.2C116.5 22.3 117.2 24.3001 118.2 26.3001C118.5 26.9001 117.6 27.3 117.3 26.7Z" fill="#030047"/>
<path d="M132 19.6001C132.2 17.3001 134 15.3001 136.4 15.0001C137 14.9001 137.3 15.9001 136.6 16.0001C134.7 16.2001 133.2 17.7001 133 19.6001C132.9 20.2001 131.9 20.2001 132 19.6001Z" fill="#030047"/>
<path d="M130.3 14.7C129.6 17.2 127.2 14.1 121 12.9C118.3 12.4 106.8 16.4 105 12.5C102.3 6.80003 109.9 3.50004 114.8 5.60004C114.3 3.50004 116.7 0.400033 119.9 2.00003C128.5 -2.29997 136.2 2.60003 135.2 12.2C135.2 12.3 131.1 13.9 130.3 14.7Z" fill="#030047"/>
<path d="M25.0999 103.9H24.9999L12.8999 101.7C12.4999 101.6 12.1999 101.2 12.2999 100.8C12.3999 100.4 12.7999 100.1 13.1999 100.2L25.2999 102.4C25.6999 102.5 25.9999 102.9 25.8999 103.3C25.6999 103.6 25.3999 103.9 25.0999 103.9Z" fill="#E4E4EF"/>
<path d="M17.8998 108.8H17.7998C17.3998 108.7 17.0998 108.3 17.1998 107.9L19.3998 95.8001C19.4998 95.4001 19.8998 95.1 20.2998 95.2C20.6998 95.3 20.9998 95.7001 20.8998 96.1001L18.6998 108.2C18.5998 108.5 18.2998 108.8 17.8998 108.8Z" fill="#E4E4EF"/>
<path d="M112.2 120.6C116.894 120.6 120.7 116.795 120.7 112.1C120.7 107.406 116.894 103.6 112.2 103.6C107.506 103.6 103.7 107.406 103.7 112.1C103.7 116.795 107.506 120.6 112.2 120.6Z" fill="#E4E4EF"/>
<path d="M45 95.4L43.5 113.6L58.5 106.8L45 95.4Z" fill="#E4E4EF"/>
<path d="M100 128C99.8 128 99.5 127.9 99.4 127.7L95.2 121.8C95 121.5 95 121 95.4 120.8C95.7 120.6 96.2 120.6 96.4 121L100.6 126.9C100.8 127.2 100.8 127.7 100.4 127.9C100.3 127.9 100.2 128 100 128Z" fill="#E4E4EF"/>
<path d="M105.4 128C105 128 104.7 127.7 104.7 127.4L103.7 121.5C103.6 121.1 103.9 120.7 104.3 120.6C104.7 120.5 105.1 120.8 105.2 121.2L106.2 127.1C106.3 127.5 106 127.9 105.6 128C105.4 128 105.4 128 105.4 128Z" fill="#E4E4EF"/>
</svg>
