<svg width="316" height="189" viewBox="0 0 316 189" fill="none" xmlns="http://www.w3.org/2000/svg">
<path d="M314.3 151C312.2 159.8 304.4 167 294.1 167H100.7C86.9 167 74 161 65 151C62.6 148.4 60.6 145.4 58.8 142.3L3.10002 40.8C2.30002 39.3 1.70003 37.8 1.30003 36.3C-2.29997 23.5 7.20002 10 21.4 10H214.7C227.2 10 239 14.9 247.8 23.3L239.6 36.3L233.8 45.5L254.7 58.8L262.8 46.1L312.4 136.2C314.9 141 315.4 146.2 314.3 151Z" fill="#5F5FFF"/>
<path d="M247.8 23.3L239.6 36.3H1.19993C-2.40007 23.5 7.09993 10 21.2999 10H214.6C227.2 10 239 14.9 247.8 23.3Z" fill="#030047"/>
<path d="M314.3 151C312.2 159.8 304.4 167 294.1 167H100.7C86.9 167 74 161 65 151H314.3Z" fill="#030047"/>
<path d="M60.5997 28.3H28.9997C26.8997 28.3 25.1997 26.6 25.1997 24.5C25.1997 22.4 26.8997 20.7 28.9997 20.7H60.6997C62.7997 20.7 64.4997 22.4 64.4997 24.5C64.4997 26.6 62.7997 28.3 60.5997 28.3Z" fill="white"/>
<path d="M212.7 28.3H197.1C195 28.3 193.3 26.6 193.3 24.5C193.3 22.4 195 20.7 197.1 20.7H212.7C214.8 20.7 216.5 22.4 216.5 24.5C216.6 26.6 214.9 28.3 212.7 28.3Z" fill="white"/>
<path d="M153.1 53.3C125.6 48 107.8 54.6 99.0002 59.6C95.0002 61.9 94.5002 67.4 98.0002 70.3C103.3 74.8 112.5 80.5 126.1 82.4C149.7 85.7 163.1 78.6 166.5 69.6C170.1 60.7 159.6 54.5 153.1 53.3Z" fill="#FFCC3E"/>
<path d="M148.9 79.1C148 76.7 148.4 74 148.9 71.5C149.4 69.1 150.6 67.4 149.3 65.3C145.4 59 134.6 59.7 128.6 59C124.9 58.6 117.8 56.8 113.8 53.7C107.4 55.4 102.4 57.6 98.9002 59.6C95.0002 61.9 94.5002 67.3 98.0002 70.3C103.3 74.8 112.5 80.5 126.1 82.4C136 83.8 144.1 83.3 150.4 81.7C149.8 80.9 149.3 80.1 148.9 79.1Z" fill="#030047"/>
<path d="M121.4 121.2C121.3 121.2 121.3 121.2 121.2 121.2C110.1 117.9 98.0003 104 99.6003 91.7C99.7003 91.3 100 91 100.4 91.1C100.8 91.2 101.1 91.5 101 91.9C99.6002 103.2 111.1 116.6 121.6 119.8C122 119.9 122.2 120.3 122.1 120.7C122 121 121.7 121.2 121.4 121.2Z" fill="white"/>
<path d="M92.2001 75.1C92.1001 75.1 91.9001 75.1 91.8001 75C88.3001 72.8 85.9001 69.3 85.5001 65.8C85.1001 62.5 86.4001 59.2 89.2001 56.3C89.5001 56 90.0001 56 90.3001 56.3C90.6001 56.6 90.6001 57.1 90.3001 57.4C87.8001 59.9 86.7001 62.8 87.1001 65.6C87.5001 68.7 89.6001 71.8 92.7001 73.8C93.0001 74 93.2001 74.5 92.9001 74.8C92.7001 75 92.4001 75.1 92.2001 75.1Z" fill="white"/>
<path d="M95.7001 84.6C95.6001 84.6 95.6001 84.6 95.7001 84.6C91.6001 84.3 84.3001 81.5 80.7001 75.2C80.5001 74.8 80.6001 74.4 81.0001 74.2C81.4001 74 81.8001 74.1 82.0001 74.5C85.3001 80.3 92.0001 82.8 95.7001 83.1C96.1001 83.1 96.4001 83.5 96.4001 83.9C96.4001 84.4 96.1001 84.6 95.7001 84.6Z" fill="white"/>
<path d="M92.2002 130.3C92.1002 130.3 92.1002 130.3 92.0002 130.3C91.9002 130.3 84.0002 128.4 82.9002 120.6C82.8002 120.2 83.1002 119.8 83.5002 119.8C83.9002 119.7 84.3002 120 84.3002 120.4C85.2002 127.2 92.2002 128.9 92.2002 128.9C92.6002 129 92.9003 129.4 92.8003 129.8C92.8003 130.1 92.5002 130.3 92.2002 130.3Z" fill="white"/>
<path d="M236 114.8C235.7 114.8 235.3 114.6 235.3 114.2C235.2 113.8 235.5 113.4 235.9 113.3C246 111.2 251.9 103.4 254 97.4C254.1 97 254.6 96.8 255 96.9C255.4 97 255.6 97.5 255.5 97.9C252.6 106.3 245.1 113 236.3 114.8C236.1 114.8 236.1 114.8 236 114.8Z" fill="white"/>
<path d="M234.5 124.2C234.2 124.2 233.8 124 233.8 123.6C233.7 123.2 234 122.8 234.4 122.7C241.2 121.3 246.4 118.8 250.6 114.9C250.9 114.6 251.4 114.6 251.7 114.9C252 115.2 252 115.7 251.7 116C247.3 120.1 241.8 122.8 234.8 124.2C234.6 124.2 234.6 124.2 234.5 124.2Z" fill="white"/>
<path d="M207.9 90.2L171.9 109L204.1 122L237.4 105.3L207.9 90.2Z" fill="#030047"/>
<path d="M201.5 99C201.5 99 200.4 101.4 197.9 100C194.9 98.3 198.8 91.6 195.5 84.4C192.9 78.6 184.7 73.4 176 72.6C178.4 70.3 179.9 66.8 180.7 62.9C181.1 61.1 181.1 59.4 180.9 57.7C207.8 60.1 215.4 76.2 215.8 85.3C216.4 94.6 205.3 101.1 201.5 99Z" fill="#FFCC3E"/>
<path d="M199.3 84.6C194 85.4 189.9 93.1 192 95.4C193.6 97.2 196.2 92.9 196.2 92.9L203.6 91.5L199.3 84.6Z" fill="#FFCC3E"/>
<path d="M197.4 89.8C197.3 90.4 197.1 91 197 91.6C196.9 92.2 197.8 92.5 198 91.9L198.4 90.2C198.5 89.4 197.5 89.1 197.4 89.8Z" fill="#030047"/>
<path d="M202.5 90.4C202.1 92.6 201.7 94.8 201.4 97C201.3 97.6 202.3 97.9 202.4 97.3C202.8 95.1 203.2 92.9 203.5 90.7C203.6 90 202.7 89.8 202.5 90.4Z" fill="#030047"/>
<path d="M237.4 105.3L204.1 122V85.7C204.1 84.6 204.7 83.5 205.8 83L235.9 67.9C237.9 66.9 240.3 68.4 240.3 70.6V100.7C240.3 102.6 239.2 104.4 237.4 105.3Z" fill="#030047"/>
<path d="M224.9 94.9C222.6 94.9 220.8 93.1 220.8 90.8C220.8 88.5 222.6 85.9 224.9 85.9C227.3 85.9 229 87.9 229 90.8C229 93 227.2 94.9 224.9 94.9ZM224.9 87.4C223.5 87.4 222.3 89.3 222.3 90.8C222.3 92.2 223.5 93.4 224.9 93.4C226.3 93.4 227.5 92.2 227.5 90.8C227.5 88.7 226.5 87.4 224.9 87.4Z" fill="white"/>
<path d="M204.1 117.6C203.7 117.6 203.3 117.3 203.3 116.8V101C203.3 100.6 203.6 100.2 204.1 100.2C204.6 100.2 204.9 100.5 204.9 101V116.8C204.9 117.3 204.5 117.6 204.1 117.6Z" fill="#FFCC3E"/>
<path d="M185.2 106.9C184.9 106.9 184.7 106.8 184.5 106.5C184.3 106.1 184.4 105.7 184.8 105.5L189.3 103.1C189.7 102.9 190.1 103 190.3 103.4C190.5 103.8 190.4 104.2 190 104.4L185.5 106.8C185.4 106.9 185.3 106.9 185.2 106.9Z" fill="#5F5FFF"/>
<path d="M192.5 106.9C192.2 106.9 192 106.8 191.8 106.5C191.6 106.1 191.7 105.7 192.1 105.5L194.4 104.3C194.8 104.1 195.2 104.2 195.4 104.6C195.6 105 195.5 105.4 195.1 105.6L192.8 106.8C192.8 106.9 192.7 106.9 192.5 106.9Z" fill="#5F5FFF"/>
<path d="M194.7 112.9C194.4 112.9 194.2 112.8 194 112.5C193.8 112.1 193.9 111.7 194.3 111.5L197.9 109.6C198.3 109.4 198.7 109.5 198.9 109.9C199.1 110.3 199 110.7 198.6 110.9L195 112.8C195 112.8 194.8 112.9 194.7 112.9Z" fill="#5F5FFF"/>
<path d="M185.2 89.2C185 89.2 184.8 89.1 184.7 89L180.4 84.4C180.1 84.1 180.1 83.6 180.4 83.3C180.7 83 181.2 83 181.5 83.3L185.8 87.9C186.1 88.2 186.1 88.7 185.8 89C185.5 89.2 185.4 89.2 185.2 89.2Z" fill="#DEDEFF"/>
<path d="M189.7 87.4C189.4 87.4 189.2 87.3 189.1 87L184.6 79.4C184.4 79 184.5 78.6 184.9 78.4C185.3 78.2 185.7 78.3 185.9 78.7L190.4 86.3C190.6 86.7 190.5 87.1 190.1 87.3C189.9 87.4 189.8 87.4 189.7 87.4Z" fill="#DEDEFF"/>
<path d="M276.89 0.44491L264.189 20.4548L279.977 30.4761L292.678 10.4662L276.89 0.44491Z" fill="#E4E4EF"/>
<path d="M296.3 127.2L261.6 105.2L289.5 61.2L304.1 70.5C315.2 77.6 318.5 92.3 311.5 103.4L296.3 127.2Z" fill="#F2F2F9"/>
<path d="M80.2542 129.679L32.5254 150.566L49.0024 188.217L96.7312 167.331L80.2542 129.679Z" fill="#E4E4EF"/>
<path d="M74.3999 172.3L92.8999 145.6L104.6 172.3H74.3999Z" fill="#F2F2F9"/>
<path d="M47.1 160C46.9 160 46.7 159.9 46.6 159.8C46.3 159.5 46.3 159 46.6 158.7L54 151.3C54.3 151 54.8 151 55.1 151.3C55.4 151.6 55.4 152.1 55.1 152.4L47.7 159.8C47.5 159.9 47.3 160 47.1 160Z" fill="#5F5FFF"/>
<path d="M54.5 160C54.3 160 54.1 159.9 54 159.8L46.6 152.4C46.3 152.1 46.3 151.6 46.6 151.3C46.9 151 47.4 151 47.7 151.3L55.1 158.7C55.4 159 55.4 159.5 55.1 159.8C54.9 159.9 54.7 160 54.5 160Z" fill="#5F5FFF"/>
<path d="M305.2 93.2C305.1 93.2 304.9 93.2 304.8 93.1L289.5 83.4C289.2 83.2 289 82.7 289.3 82.4C289.5 82.1 290 81.9 290.3 82.2L305.6 91.9C305.9 92.1 306.1 92.6 305.8 92.9C305.7 93 305.5 93.2 305.2 93.2Z" fill="#5F5FFF"/>
<path d="M301.8 98C301.7 98 301.5 98 301.4 97.9L297.4 95.4C297.1 95.2 296.9 94.7 297.2 94.4C297.4 94.1 297.9 93.9 298.2 94.2L302.2 96.7C302.5 96.9 302.7 97.4 302.4 97.7C302.3 97.9 302.1 98 301.8 98Z" fill="#5F5FFF"/>
<path d="M293.8 93C293.7 93 293.5 93 293.4 92.9L286 88.2C285.7 88 285.5 87.5 285.8 87.2C286.1 86.9 286.5 86.7 286.8 87L294.2 91.7C294.5 91.9 294.7 92.4 294.4 92.7C294.3 92.9 294.1 93 293.8 93Z" fill="#5F5FFF"/>
<path d="M296.5 102.4C296.4 102.4 296.2 102.4 296.1 102.3L282.8 93.8C282.5 93.6 282.3 93.1 282.6 92.8C282.8 92.5 283.3 92.3 283.6 92.6L296.9 101.1C297.2 101.3 297.4 101.8 297.1 102.1C297 102.2 296.8 102.4 296.5 102.4Z" fill="#5F5FFF"/>
<path d="M119.2 64.4C109.4 69.1 109.4 75.9 113.3 78.7C117.2 81.5 139.7 83.6 144.7 76.8C149.7 70 146.6 63.4 136.9 61.7C133.1 61 124.2 61.9 119.2 64.4Z" fill="#FFCC3E"/>
<path d="M129.7 63.5C127.8 62.8 125.7 63 124.1 64.2C97.2 83.3 108.5 116.5 150 120.4C157.6 121.1 162.5 115.9 166.7 118.3C169 119.6 172.7 116.8 174.1 117.7C178.7 120.5 179.8 115.8 179.8 115.8C180.6 116 182.9 113.6 181.7 111.7C181.7 111.7 184.1 110 181.6 106.9C176.5 100.5 161.4 99.1 153.5 97.4C145.6 95.7 128.9 93.8 135.9 82.9C136 82.8 136 82.7 136.1 82.6C140.5 75.7 136.7 69.2 129 66.3L129.7 63.5Z" fill="#FFCC3E"/>
<path d="M178.7 115.2C177 113.1 174.3 111.9 171.6 112.2C171 112.3 171 113.3 171.6 113.2C174.1 113 176.4 114 178 115.9C178.4 116.4 179.1 115.7 178.7 115.2Z" fill="#030047"/>
<path d="M180.7 110C179.1 108.2 176.8 107.1 174.3 107C173.7 107 173.7 108 174.3 108C176.5 108.1 178.5 109 180 110.7C180.5 111.2 181.2 110.5 180.7 110Z" fill="#030047"/>
<path d="M113.7 75.7C113.6 75.7 113.4 75.7 113.3 75.6C112.9 75.4 112.8 74.9 113 74.6C113.1 74.4 116.3 68.8 121.7 65.1C122 64.9 122.5 65 122.7 65.3C122.9 65.6 122.8 66.1 122.5 66.3C117.4 69.8 114.3 75.2 114.3 75.3C114.2 75.5 113.9 75.7 113.7 75.7Z" fill="#5F5FFF"/>
<path d="M137.4 80.4C137.3 80.4 137.1 80.4 137 80.3C136.7 80.1 136.6 79.6 136.8 79.3L140.3 74.1C140.5 73.8 141 73.7 141.3 73.9C141.6 74.1 141.7 74.6 141.5 74.9L138 80.1C137.8 80.3 137.6 80.4 137.4 80.4Z" fill="#5F5FFF"/>
<path d="M160.9 50.2C152.4 43.1 143.5 41.9 139.5 51.3C139.5 51.3 129.5 51.7 133.8 59.5C133.8 59.5 127 65.8 138.1 70.9C149.1 76.1 159.9 60.4 159.9 60.4L160.9 50.2Z" fill="#FF3E6C"/>
<path d="M179.3 62.2C178.5 66 177 69.6 174.6 71.9C172.1 74.2 168.5 75.2 163.6 73.7C157 71.7 152.2 64.7 153.9 56.8C155.5 49 162.6 43.8 169.6 45.3C175 46.4 178.9 51.2 179.6 56.9C179.8 58.7 179.7 60.5 179.3 62.2Z" fill="#FFCC3E"/>
<path d="M178.5 53.2C176.9 49.3 173.7 46.3 169.5 45.4C162.5 43.9 155.4 49.1 153.8 56.9C160.8 59.4 172.4 58.3 178.5 53.2Z" fill="#8FACFF"/>
<path d="M170.075 60.763C170.389 60.3081 170.274 59.6854 169.819 59.3722C169.364 59.059 168.741 59.1739 168.428 59.6288C168.115 60.0837 168.23 60.7064 168.685 61.0196C169.139 61.3328 169.762 61.2179 170.075 60.763Z" fill="#030047"/>
<path d="M156.8 57.8C149.2 54.6 145 59.9 147.3 63.9C149.2 67.1 153.8 69.6 158.4 66.7C162.9 63.7 156.8 57.8 156.8 57.8Z" fill="#FFCC3E"/>
<path d="M156.2 62.6C155.1 60.5 152.7 59.5 150.4 60.1C149.8 60.3 150 61.3 150.6 61.1C152.4 60.6 154.4 61.3 155.3 63C155.6 63.6 156.5 63.2 156.2 62.6Z" fill="#030047"/>
<path d="M175.5 65.8C175.7 63.6 175.5 61.3 175 59.1C174.9 58.5 173.9 58.7 174 59.3C174.5 61.4 174.6 63.5 174.5 65.7C174.4 66.4 175.4 66.5 175.5 65.8Z" fill="#030047"/>
<path d="M165.5 75.7C165.4 75.7 165.4 75.7 165.3 75.7C160.3 74.3 158.7 71.8 158.6 71.7C158.4 71.4 158.5 70.9 158.8 70.7C159.1 70.5 159.6 70.6 159.8 70.9C159.8 70.9 161.3 73 165.6 74.3C166 74.4 166.2 74.8 166.1 75.2C166.1 75.4 165.8 75.7 165.5 75.7Z" fill="#5F5FFF"/>
</svg>
