<svg width="213" height="269" viewBox="0 0 213 269" fill="none" xmlns="http://www.w3.org/2000/svg">
<path d="M138.101 33.1H10.3008V258H138.101V33.1Z" fill="white"/>
<path d="M138.901 258.7H9.60059V32.4H138.901V258.7ZM11.1006 257.2H137.401V33.9H11.1006V257.2Z" fill="#030047"/>
<path d="M130.5 99.8H38.7002V195.2H130.5V99.8Z" fill="#5F5FFF"/>
<path d="M29.7004 116.3C29.3004 116.3 28.9004 116 28.9004 115.5V88.1H53.4004C53.8004 88.1 54.2004 88.4 54.2004 88.9C54.2004 89.4 53.9004 89.7 53.4004 89.7H30.4004V115.6C30.4004 116 30.1004 116.3 29.7004 116.3Z" fill="#030047"/>
<path d="M54.9 207.1H27.5V182.6C27.5 182.2 27.8 181.8 28.3 181.8C28.8 181.8 29.1 182.1 29.1 182.6V205.6H55C55.4 205.6 55.8 205.9 55.8 206.4C55.8 206.9 55.3 207.1 54.9 207.1Z" fill="#030047"/>
<path d="M75.8002 51H31.2002V61.3H75.8002V51Z" fill="white"/>
<path d="M76.5004 62.1H30.4004V50.3H76.5004V62.1ZM31.9004 60.6H75.0004V51.8H31.9004V60.6Z" fill="#030047"/>
<path d="M83.6008 60.9C86.2517 60.9 88.4008 58.7509 88.4008 56.1C88.4008 53.449 86.2517 51.3 83.6008 51.3C80.9498 51.3 78.8008 53.449 78.8008 56.1C78.8008 58.7509 80.9498 60.9 83.6008 60.9Z" fill="#030047"/>
<path d="M6.2002 66.9H1.7002V119.9H6.2002V66.9Z" fill="#5F5FFF"/>
<path d="M6.90039 120.6H0.900391V66.1H6.90039V120.6ZM2.40039 119.1H5.40039V67.6H2.40039V119.1Z" fill="#5F5FFF"/>
<path d="M51.9008 136.4C51.7008 136.4 51.5007 136.3 51.3007 136.1L48.3007 132.7C48.0007 132.4 48.0008 131.9 48.4008 131.6C48.7008 131.3 49.2008 131.3 49.5008 131.7L52.5008 135.1C52.8008 135.4 52.8008 135.9 52.4008 136.2C52.3008 136.3 52.1008 136.4 51.9008 136.4Z" fill="white"/>
<path d="M32.2006 155.5C32.0006 155.5 31.8006 155.4 31.7006 155.3C31.4006 155 31.4006 154.5 31.7006 154.2L38.6005 147C38.9005 146.7 39.4006 146.7 39.7006 147C40.0006 147.3 40.0006 147.8 39.7006 148.1L32.8006 155.3C32.6006 155.5 32.4006 155.5 32.2006 155.5Z" fill="#5F5FFF"/>
<path d="M58.3007 180.9C58.0007 180.9 57.7007 180.7 57.6007 180.5L55.9007 176.8C55.7007 176.4 55.9007 176 56.3007 175.8C56.7007 175.6 57.1007 175.8 57.3007 176.2L59.0007 179.9C59.2007 180.3 59.0007 180.7 58.6007 180.9C58.5007 180.8 58.4007 180.9 58.3007 180.9Z" fill="white"/>
<path d="M196.601 215.1L212.801 235.1L176.301 268.8C176.301 268.8 172.001 264.1 174.801 259.3C176.201 256.8 177.501 252.4 177.801 247.6C177.801 247.3 177.801 246.9 177.901 246.6C178.001 245.4 178.001 244.2 177.901 243C177.901 242.7 177.801 242.3 177.801 242C177.501 239.3 176.801 236.7 175.601 234.5L196.601 215.1Z" fill="#030047"/>
<path d="M187.301 241.7C184.201 242.1 181.001 242.6 177.901 243.1C177.901 242.8 177.801 242.4 177.801 242.1C180.901 241.7 184.001 241.2 187.101 240.8C187.701 240.7 187.901 241.7 187.301 241.7Z" fill="white"/>
<path d="M186.4 247.3C183.6 247.4 180.7 247.5 177.9 247.6C177.9 247.3 177.9 246.9 178 246.6C180.8 246.5 183.7 246.4 186.5 246.3C187.1 246.3 187 247.3 186.4 247.3Z" fill="white"/>
<path d="M126.701 240.1L125.001 265.8H75.3008C75.3008 265.8 75.3008 259.5 80.6008 257.8C83.3008 257 87.3008 254.5 90.8008 251.3C91.0008 251.1 91.3008 250.9 91.5008 250.6C92.3008 249.8 93.2008 248.9 93.9008 248C94.1008 247.7 94.3008 247.5 94.5008 247.2C96.1008 245 97.4008 242.6 97.9008 240.2H126.701V240.1Z" fill="#030047"/>
<path d="M179.801 180.1C174.701 162.1 166.401 111.8 166.401 111.8L137.701 118.4C136.901 115.5 136.301 113.7 136.301 113.7L107.301 124.8C107.301 148.2 94.3008 241.4 94.3008 241.4L131.901 246.7C131.901 246.7 136.201 206 139.001 174.9C149.601 211.1 167.501 237.5 174.701 242L202.101 219.5C202.201 219.4 184.901 198.1 179.801 180.1Z" fill="white"/>
<path d="M132.6 247.5L93.4004 242L93.5004 241.3C93.6004 240.4 106.5 147.8 106.5 124.8V124.3L136.7 112.7L136.9 113.5C136.9 113.5 137.4 115.1 138.1 117.6L166.9 111L167 111.8C167.1 112.3 175.4 162.3 180.4 180.1C185.4 197.7 202.5 218.9 202.6 219.1L203.1 219.7L174.7 243L174.2 242.7C167.3 238.5 150.2 213.8 139.3 178.9C136.5 209.1 132.6 246.5 132.5 246.9L132.6 247.5ZM95.1003 240.7L131.2 245.7C131.8 239.9 135.6 203.1 138.2 174.7L138.6 170.8L139.7 174.6C150.2 210.3 167.4 235.9 174.6 240.9L201 219.2C198.2 215.6 183.5 196.5 178.9 180.2C174.2 163.6 166.7 119 165.6 112.6L137 119.1L136.8 118.4C136.3 116.6 135.9 115.3 135.7 114.5L108 125.3C107.9 148.1 96.3003 231.9 95.1003 240.7Z" fill="#030047"/>
<path d="M158.501 119.4C158.201 119.4 157.901 119.2 157.801 118.9C157.401 118 157.001 117.1 156.601 116.2C156.401 115.8 156.601 115.4 157.001 115.2C157.401 115 157.801 115.2 158.001 115.6C158.401 116.5 158.801 117.4 159.201 118.4C159.401 118.8 159.201 119.2 158.801 119.4C158.701 119.3 158.601 119.4 158.501 119.4Z" fill="#030047"/>
<path d="M187.001 216.3C186.701 216.3 186.501 216.2 186.301 215.9C185.301 214.2 184.301 212.3 183.301 210.3C183.101 209.9 183.301 209.5 183.601 209.3C184.001 209.1 184.401 209.3 184.601 209.6C185.601 211.6 186.601 213.4 187.601 215.1C187.801 215.5 187.701 215.9 187.301 216.1C187.201 216.2 187.101 216.3 187.001 216.3ZM181.201 205C180.901 205 180.601 204.8 180.501 204.6C179.601 202.7 178.801 200.8 177.901 198.8C177.701 198.4 177.901 198 178.301 197.8C178.701 197.6 179.101 197.8 179.301 198.2C180.101 200.2 181.001 202.1 181.801 204C182.001 204.4 181.801 204.8 181.401 205C181.401 204.9 181.301 205 181.201 205ZM176.301 193.3C176.001 193.3 175.701 193.1 175.601 192.8C174.901 190.9 174.301 188.9 173.601 186.7C173.501 186.3 173.701 185.9 174.101 185.8C174.501 185.7 174.901 185.9 175.001 186.3C175.601 188.4 176.301 190.5 176.901 192.3C177.001 192.7 176.801 193.1 176.501 193.3C176.501 193.2 176.401 193.3 176.301 193.3ZM172.801 181.1C172.501 181.1 172.201 180.9 172.101 180.5C171.601 178.6 171.201 176.5 170.701 174.3C170.601 173.9 170.901 173.5 171.301 173.4C171.701 173.3 172.101 173.6 172.201 174C172.701 176.2 173.101 178.3 173.601 180.2C173.701 180.6 173.401 181 173.001 181.1C172.901 181.1 172.801 181.1 172.801 181.1ZM170.201 168.6C169.801 168.6 169.501 168.3 169.501 168C169.101 165.9 168.701 163.9 168.401 161.8C168.301 161.4 168.601 161 169.001 160.9C169.401 160.8 169.801 161.1 169.901 161.5C170.301 163.6 170.601 165.7 171.001 167.7C171.101 168.1 170.801 168.5 170.401 168.6C170.301 168.6 170.301 168.6 170.201 168.6ZM168.001 156.2C167.601 156.2 167.301 155.9 167.301 155.6C166.901 153.5 166.501 151.4 166.201 149.4C166.101 149 166.401 148.6 166.801 148.5C167.201 148.4 167.601 148.7 167.701 149.1C168.101 151.2 168.501 153.3 168.801 155.4C168.901 155.8 168.601 156.2 168.201 156.3C168.101 156.2 168.001 156.2 168.001 156.2ZM165.601 143.7C165.301 143.7 164.901 143.5 164.901 143.1C164.401 140.9 164.001 138.9 163.501 136.9C163.401 136.5 163.701 136.1 164.101 136C164.501 135.9 164.901 136.2 165.001 136.6C165.501 138.6 165.901 140.6 166.401 142.8C166.501 143.2 166.201 143.6 165.801 143.7C165.701 143.7 165.701 143.7 165.601 143.7ZM162.601 131.4C162.301 131.4 162.001 131.2 161.901 130.9C161.301 128.8 160.701 126.8 160.001 124.9C159.901 124.5 160.101 124.1 160.501 123.9C160.901 123.8 161.301 124 161.501 124.4C162.101 126.3 162.801 128.4 163.401 130.5C163.501 130.9 163.301 131.3 162.901 131.4C162.801 131.3 162.701 131.4 162.601 131.4Z" fill="#030047"/>
<path d="M192.201 224C192.001 224 191.801 223.9 191.601 223.8C191.601 223.8 190.901 223 189.701 221.3C189.501 221 189.501 220.5 189.901 220.3C190.201 220.1 190.701 220.1 190.901 220.5C192.001 222.1 192.601 222.8 192.701 222.8C193.001 223.1 193.001 223.6 192.601 223.9C192.501 223.9 192.301 224 192.201 224Z" fill="#030047"/>
<path d="M101.801 253.4C99.201 251.6 96.601 249.8 94.001 248C94.201 247.7 94.401 247.5 94.601 247.2C97.201 249 99.801 250.8 102.301 252.5C102.801 252.9 102.301 253.7 101.801 253.4Z" fill="white"/>
<path d="M97.3008 256.8C95.2008 254.9 93.0008 253.1 90.8008 251.2C91.0008 251 91.3008 250.8 91.5008 250.5C93.6008 252.4 95.8008 254.2 98.0008 256C98.5008 256.6 97.8008 257.3 97.3008 256.8Z" fill="white"/>
<path d="M138.301 168.1C138.001 168.1 137.701 167.9 137.601 167.6C135.501 162.5 133.101 140.9 132.601 137C131.601 136.9 129.101 136.5 124.601 135.6C124.201 135.5 123.901 135.1 124.001 134.7C124.101 134.3 124.501 134 124.901 134.1C131.001 135.3 133.301 135.6 133.301 135.6L133.901 135.7L134.001 136.3C134.001 136.6 136.801 161.8 138.901 167.1C139.101 167.5 138.901 167.9 138.501 168.1C138.501 168.1 138.401 168.1 138.301 168.1Z" fill="#030047"/>
<path d="M116.701 51.6C106.601 55 98.201 61.9 100.401 90.9C102.601 119.9 103.201 127.4 103.201 127.4L168.201 118.2C168.201 118.1 149.201 40.6 116.701 51.6Z" fill="#5F5FFF"/>
<path d="M102.501 128.2L102.401 127.4C102.401 127.3 101.701 119.6 99.6005 90.9C97.5005 63.1 104.801 54.8 116.401 50.9C122.001 49 127.601 49.6 133.001 52.5C155.701 65 168.401 115.7 168.901 117.9L169.101 118.7L102.501 128.2ZM116.901 52.3C108.101 55.3 98.9005 60.9 101.101 90.8C102.901 114.5 103.601 123.9 103.801 126.5L167.201 117.5C165.501 110.9 152.901 65.2 132.301 53.9C127.301 51.1 122.101 50.6 116.901 52.3Z" fill="#5F5FFF"/>
<path d="M143.8 90.9C152.6 90.9 161.3 90.8 170.1 90.7C167.6 71.6 151.5 49.8 125.5 47.5V65.9C134.3 66.2 142.6 80.1 143.8 90.9Z" fill="#5F5FFF"/>
<path d="M143.1 91.6L143 90.9C141.8 80.1 133.6 66.8 125.4 66.5H124.7V46.6L125.5 46.7C151.6 49 168.3 71 170.8 90.6L170.9 91.4H170.1C161.5 91.5 152.6 91.6 143.8 91.6H143.1ZM126.2 65.1C134.8 66.1 142.9 79 144.4 90.1C152.7 90.1 161 90 169.2 89.9C166.4 71.4 150.6 50.9 126.2 48.3V65.1Z" fill="#5F5FFF"/>
<path d="M151.2 26.5L158 8.29999C160.8 0.799991 151 -2.90002 148.2 4.59998L141.5 22.5C144.8 23.8 148 25.1 151.2 26.5Z" fill="#030047"/>
<path d="M54.3 267C53 266.5 52.4001 265 52.9001 263.8L59.0001 248.3C59.5001 247 61.0001 246.4 62.2001 246.9C63.5001 247.4 64.1 248.9 63.6 250.1L57.5001 265.6C57.1001 266.9 55.6 267.5 54.3 267Z" fill="#030047"/>
<path d="M82.9005 234.2L158.501 31.6C165.301 13.7 137.4 2.99999 130.6 21L55.0005 223.6C51.6005 232.6 51.1005 255 58.0005 257.7C65.1005 260.4 79.5005 243.2 82.9005 234.2Z" fill="white"/>
<path d="M59.7001 258.7C59.1001 258.7 58.4001 258.6 57.9001 258.4C50.3001 255.5 50.9001 232.6 54.4001 223.4L130 20.8C133.7 11.1 143 9.50003 150 12.2C157.1 14.9 163 22.2 159.3 31.9L83.7001 234.5C81.9001 239.2 77.4001 245.7 72.4001 250.9C69.4001 254 64.0001 258.7 59.7001 258.7ZM143.8 12.5C138.8 12.5 133.8 15 131.4 21.3L55.8001 223.9C52.2001 233.4 52.3001 254.7 58.4001 257C61.1001 258 66.0001 255.4 71.4001 249.8C76.2001 244.9 80.7001 238.4 82.3001 234L157.9 31.4C161.2 22.6 155.9 16 149.5 13.6C147.7 12.9 145.7 12.5 143.8 12.5Z" fill="#030047"/>
<path d="M129 25.5L125.6 34.7C134.8 38.5 144 42.3 153.1 46.2L156.6 36.7C147.5 32.9 138.3 29.1 129 25.5Z" fill="#030047"/>
<path d="M78.7004 241.9C80.6004 239.1 82.1004 236.4 82.9004 234.2L108.2 166.5C99.0004 162.7 89.8004 159 80.4004 155.6L55.0004 223.7C54.4004 225.4 53.8004 227.6 53.4004 230C61.8004 234.1 70.2004 238.1 78.7004 241.9Z" fill="#030047"/>
<path d="M164.3 73.7C156.9 77.6 149.6 81.6 142.9 86.6C144.6 93 144.4 99.1 141.1 101.9C136.7 105.7 130.4 105.4 124.2 103.3C122.4 93 117.1 90.3 111.5 88.2C107.1 86.6 106.8 90.9 113.6 96L113.7 98.3C112.1 97.4 110.7 96.4 109.4 95.5C101 89.5 100.2 96.5 100.2 96.5C94.6999 97 96.3999 102.8 96.3999 102.8C92.7999 106.9 93.4998 109.2 109.8 121.3C128.6 135.2 164.1 134.1 169.9 101.8C171.5 93.3 169.5 83 164.3 73.7Z" fill="white"/>
<path d="M136.2 130.6C126.7 130.6 116.9 127.6 109.4 122C97.9001 113.4 94.2001 109.9 93.9001 106.8C93.7001 105.2 94.6001 103.9 95.6001 102.7C95.4001 101.8 95.1001 99.6 96.3001 97.9C97.0001 96.8 98.1001 96.2 99.7001 95.9C99.9001 95 100.5 93.4 102.1 92.7C104 91.8 106.6 92.6 109.9 94.9C110.9 95.6 111.9 96.3 113 96.9V96.3C109 93.2 107 89.9 108 88C108.3 87.5 109.3 86.4 111.9 87.4C117.7 89.6 123.1 92.4 125 102.6C131.9 104.7 137.2 104.3 140.8 101.2C143.6 98.8 144.2 93.4 142.3 86.6L142.2 86.1L142.6 85.8C149.7 80.6 157.4 76.4 164.1 72.9L164.8 72.6L165.2 73.2C170.4 82.7 172.5 93.1 170.9 101.9C168 117.9 158.3 124.9 150.8 127.9C146.1 129.7 141.2 130.6 136.2 130.6ZM103.7 94C103.3 94 102.9 94.1 102.6 94.2C101.2 94.8 101 96.7 101 96.7L100.9 97.3L100.3 97.4C99.0001 97.5 98.0001 98 97.5001 98.8C96.5001 100.3 97.1001 102.7 97.1001 102.7L97.2001 103.1L96.9001 103.4C95.6001 104.8 95.2001 105.7 95.3001 106.7C95.6001 109.2 99.5001 112.9 110.2 120.8C121.3 129.1 137.7 131.5 149.9 126.6C157.1 123.7 166.3 117.1 169.1 101.8C170.6 93.5 168.7 83.7 163.9 74.7C157.5 78 150.3 82 143.6 86.9C145.5 94.1 144.7 99.8 141.5 102.5C137.4 106 131.3 106.5 123.8 104.1L123.4 104L123.3 103.6C121.6 93.8 116.8 91.2 111.1 89.1C109.9 88.6 109.2 88.8 109 89.1C108.6 89.7 109.4 92.3 113.9 95.7L114.2 95.9L114.3 99.9L113.1 99.2C111.6 98.3 110.1 97.3 108.8 96.4C106.8 94.7 105 94 103.7 94Z" fill="#030047"/>
<path d="M103.701 100.1C102.701 99.3 102.001 98.3 101.601 97C101.401 96.4 100.501 96.6 100.601 97.3C101.001 98.7 101.801 99.9 102.901 100.8C103.501 101.2 104.201 100.5 103.701 100.1Z" fill="#030047"/>
<path d="M100.001 106.2C98.8005 105.9 97.9005 105 97.6005 103.8C97.4005 103.2 96.5005 103.4 96.6005 104.1C97.0005 105.6 98.2005 106.8 99.7005 107.2C100.401 107.3 100.701 106.3 100.001 106.2Z" fill="#030047"/>
<path d="M92.5007 132.6C87.4007 120.1 86.0007 100.6 103.901 80.9C104.601 80.2 105.201 79.5 105.801 78.8C107.601 70.5 109.801 62.4 113.601 54.7C113.001 53.8 112.401 53.4 112.401 53.4C94.6007 61.5 71.4007 74.1 64.8007 107.4C60.6007 128.2 68.1007 145.4 78.8007 152.4C85.4007 156.7 90.7007 162.4 94.5007 160.9C94.5007 160.9 99.1007 161.6 102.001 156.9C102.001 156.9 106.801 156.8 106.301 152.1C106.001 149.6 103.101 146.2 100.101 142.7L101.901 141.6C105.001 144.3 111.401 146.5 109.701 141.5C108.001 137 102.501 134.1 92.5007 132.6Z" fill="white"/>
<path d="M93.1006 161.9C90.3006 161.9 87.1006 159.5 83.5006 156.7C81.9006 155.5 80.2006 154.2 78.3006 153C68.0006 146.2 59.5006 129.4 64.0006 107.2C70.3006 75.7 90.8006 62.4 112.001 52.7L112.401 52.5L112.701 52.7C112.801 52.7 113.401 53.2 114.101 54.2L114.401 54.6L114.201 55C110.201 63.1 108.101 71.6 106.501 78.9V79.1L106.401 79.2C105.801 79.9 105.201 80.6 104.501 81.4C84.8006 103.2 89.8006 123.7 93.1006 131.9C103.201 133.4 108.701 136.5 110.301 141.3C111.001 143.4 110.401 144.4 109.701 144.9C107.901 146.1 104.001 144.4 101.701 142.6L101.001 143C104.001 146.4 106.601 149.6 106.801 152.1C107.001 153.7 106.601 155 105.701 156C104.601 157.3 102.901 157.6 102.201 157.7C99.5006 161.9 95.4006 161.8 94.4006 161.8C94.0006 161.8 93.5006 161.9 93.1006 161.9ZM112.201 54.3C91.5006 63.8 71.6006 76.9 65.4006 107.5C61.1006 128.9 69.5006 145.5 79.1006 151.8C81.0006 153 82.7006 154.3 84.4006 155.6C88.4006 158.6 91.8006 161.2 94.2006 160.3L94.4006 160.2H94.6006C94.8006 160.2 98.8006 160.7 101.301 156.5L101.501 156.1H101.901C101.901 156.1 103.701 156 104.801 154.9C105.401 154.2 105.601 153.3 105.501 152.2C105.301 150 102.401 146.6 99.4006 143.2L98.8006 142.5L101.901 140.7L102.301 141.1C104.601 143.1 108.001 144.3 108.901 143.7C109.401 143.4 109.101 142.3 108.901 141.9C107.501 137.6 102.101 134.8 92.5006 133.4L92.1006 133.3L91.9006 132.9C88.5006 124.7 82.9006 103.2 103.401 80.4C104.001 79.7 104.601 79.1 105.101 78.4C106.601 71.2 108.801 62.8 112.701 54.8C112.501 54.6 112.301 54.4 112.201 54.3Z" fill="#030047"/>
<path d="M93.7014 95.9C96.0014 91 99.3014 87.7 103.901 82.7C104.601 82 105.501 82.7 106.101 81.9C107.901 73.6 109.701 62.3 113.501 54.7C112.901 53.8 112.301 53.4 112.301 53.4C100.601 58.7 86.5014 66.1 76.4014 80C82.0014 85.4 87.9014 90.6 93.7014 95.9Z" fill="#5F5FFF"/>
<path d="M94.001 97.1L93.301 96.4C92.101 95.3 90.901 94.3 89.801 93.2C85.201 89.1 80.501 84.8 76.001 80.5L75.501 80L75.901 79.5C85.801 66 99.101 58.6 112.101 52.7L112.501 52.5L112.801 52.7C112.901 52.7 113.501 53.2 114.201 54.2L114.501 54.6L114.301 55C111.201 61.3 109.401 70 107.801 77.7C107.501 79.2 107.201 80.6 106.901 82V82.2L106.801 82.3C106.301 82.9 105.601 82.9 105.201 82.9C104.801 82.9 104.701 82.9 104.601 83C104.001 83.6 103.501 84.2 102.901 84.8C99.201 88.9 96.501 91.8 94.501 96L94.001 97.1ZM77.401 79.9C81.701 84.1 86.301 88.2 90.701 92.1C91.601 92.9 92.601 93.8 93.501 94.6C95.501 90.7 98.301 87.7 101.701 83.9C102.201 83.3 102.801 82.7 103.401 82.1C104.001 81.5 104.601 81.5 105.101 81.5C105.301 81.5 105.401 81.5 105.501 81.5C105.801 80.2 106.001 78.9 106.301 77.5C107.801 69.9 109.601 61.2 112.701 54.8C112.501 54.6 112.401 54.4 112.201 54.3C99.701 60 86.901 67.1 77.401 79.9Z" fill="#5F5FFF"/>
<path d="M101.4 156.3C99.4003 152.6 97.1002 149 94.5002 145.6C94.1002 145.1 93.2002 145.6 93.6002 146.1C96.2002 149.5 98.4002 153 100.5 156.8C100.9 157.4 101.7 156.9 101.4 156.3Z" fill="#030047"/>
<path d="M95.6004 159.8C93.8004 155.6 91.1005 152 87.4005 149.3C86.9005 148.9 86.4005 149.8 86.9005 150.2C90.4005 152.7 93.0005 156.1 94.7005 160.1C94.9005 160.6 95.8004 160.4 95.6004 159.8Z" fill="#030047"/>
<path d="M99.901 83.9C99.501 83.9 99.201 83.6 99.201 83.3L98.201 77.5C98.101 77.1 98.401 76.6999 98.801 76.5999C99.201 76.4999 99.601 76.8 99.701 77.2L100.701 83C100.801 83.4 100.501 83.8 100.101 83.9C99.901 83.9 99.901 83.9 99.901 83.9Z" fill="#030047"/>
<path d="M46.1997 267.5C45.9997 267.5 45.6997 267.4 45.5997 267.2L27.6997 241.7C27.4997 241.4 27.4997 240.9 27.8997 240.7C28.1997 240.5 28.6997 240.5 28.8997 240.9L46.7997 266.4C46.9997 266.7 46.9997 267.2 46.5997 267.4C46.4997 267.5 46.2997 267.5 46.1997 267.5Z" fill="#5F5FFF"/>
<path d="M38.7002 267.5C38.6002 267.5 38.4002 267.5 38.3002 267.4L25.3002 258.6C25.0002 258.4 24.9001 257.9 25.1001 257.6C25.3001 257.3 25.8001 257.2 26.1001 257.4L39.1001 266.2C39.4001 266.4 39.5002 266.9 39.3002 267.2C39.2002 267.4 39.0002 267.5 38.7002 267.5Z" fill="#5F5FFF"/>
<path d="M120.7 34.8C120.6 31.3 117.1 29.2 113.2 31.1C112.6 31.4 112.1 31.8 111.5 32.3C111.5 32.3 111.5 32.3 111.4 32.2C105.9 26.4 97.2 25.6 92 30.5C86.8 35.4 88 43.3 92.4 50C96.5 56 105 59.2 111.8 51.7C114 49.2 115.3 45.9 115.4 42.5C119 41.4 120.7 37.9 120.7 34.8Z" fill="white"/>
<path d="M103 56.9C102.7 56.9 102.5 56.9 102.2 56.9C98.2003 56.6 94.4003 54.2 91.9003 50.5C86.7003 42.8 86.6003 34.8 91.6003 30.1C94.3003 27.6 97.9003 26.4 101.8 26.7C105.5 27 108.9 28.7 111.6 31.4C112 31.1 112.5 30.8 112.9 30.6C115 29.5 117.2 29.5 118.9 30.5C120.4 31.4 121.4 33 121.4 34.9C121.5 37.9 119.9 41.7 116.1 43.2C115.9 46.6 114.6 49.8 112.4 52.3C109 56 105.5 56.9 103 56.9ZM100.4 28.1C97.4003 28.1 94.6003 29.2 92.5003 31.1C87.1003 36.2 89.4003 44.2 93.0003 49.6C95.3003 53 98.7003 55.1 102.2 55.3C105.5 55.5 108.6 54.1 111.2 51.2C113.3 48.9 114.5 45.8 114.6 42.5V42L115.1 41.8C118.4 40.7 119.9 37.4 119.8 34.8C119.8 33.5 119.1 32.3 118 31.7C116.7 30.9 115 31 113.4 31.8C112.9 32.1 112.4 32.4 111.8 32.9L111.3 33.4L110.8 32.9C108.2 30.2 104.9 28.5 101.4 28.2C101.2 28.1 100.8 28.1 100.4 28.1Z" fill="#030047"/>
<path d="M100.922 43.3987C101.147 42.8946 100.922 42.303 100.418 42.0773C99.9135 41.8516 99.3219 42.0772 99.0962 42.5813C98.8705 43.0854 99.0961 43.677 99.6002 43.9027C100.104 44.1284 100.696 43.9028 100.922 43.3987Z" fill="#030047"/>
<path d="M97.6005 51.1C96.3005 49.3 95.3005 47.3 94.5005 45.2C94.3005 44.6 95.2005 44.2 95.4005 44.8C96.1005 46.8 97.1005 48.7 98.3005 50.5C98.8005 51 98.0005 51.6 97.6005 51.1Z" fill="#030047"/>
<path d="M90.7003 38.9C93.7003 37.8 102.9 29.8 106.4 35.6C107.3 37.1 107.3 38.3 109 37.9C110.6 37.2 110.3 35.2 110.3 35.2C111.5 33.5 111.9 31.8 113.2 31.1C116.8 25.3 107.9 18.1 102.9 22.4C102.9 22.4 91.8003 19.7 88.6003 26.6C82.9003 28.9 80.8003 33.3 82.0003 37.4C84.1003 44.4 90.7003 38.9 90.7003 38.9Z" fill="#030047"/>
<path d="M112.501 38.3C112.401 35.9 113.901 33.8 116.201 33.1C116.801 32.9 117.201 33.9 116.601 34C114.801 34.5 113.501 36.2 113.601 38.1C113.501 38.9 112.501 39 112.501 38.3Z" fill="#030047"/>
</svg>
