<?xml version="1.0" encoding="iso-8859-1"?>
<!-- Generator: Adobe Illustrator 19.0.0, SVG Export Plug-In . SVG Version: 6.00 Build 0)  -->
<svg version="1.1" id="Capa_1" xmlns="http://www.w3.org/2000/svg" xmlns:xlink="http://www.w3.org/1999/xlink" x="0px" y="0px"
	 viewBox="0 0 512 512" style="enable-background:new 0 0 512 512;" xml:space="preserve">
<rect x="296.483" y="40.026" style="fill:#546F7A;" width="67.811" height="78.113"/>
<rect x="339.274" y="40.026" style="fill:#475D63;" width="25.03" height="78.113"/>
<rect x="249.477" y="118.141" style="fill:#E0E0E0;" width="161.833" height="53.514"/>
<rect x="386.279" y="118.141" style="fill:#C6C5CA;" width="25.03" height="53.514"/>
<rect x="222.515" y="171.654" style="fill:#39A4FA;" width="215.747" height="332.836"/>
<rect x="413.242" y="171.654" style="fill:#0091E2;" width="25.03" height="332.836"/>
<rect x="222.515" y="255.634" style="fill:#FFD039;" width="158.539" height="164.876"/>
<rect x="356.033" y="255.634" style="fill:#FFAE47;" width="25.03" height="164.876"/>
<path d="M438.266,164.142h-19.449v-46.004c0-4.147-3.361-7.509-7.509-7.509h-39.5V40.026c0-4.147-3.361-7.509-7.509-7.509h-67.812
	c-4.148,0-7.509,3.362-7.509,7.509v70.604h-39.5c-4.148,0-7.509,3.362-7.509,7.509v46.004h-19.449c-4.148,0-7.509,3.362-7.509,7.509
	v83.984v164.872v83.984c0,4.147,3.361,7.509,7.509,7.509h128.504c4.148,0,7.509-3.362,7.509-7.509c0-4.147-3.361-7.509-7.509-7.509
	H230.03v-68.966H381.06c4.148,0,7.509-3.362,7.509-7.509V255.635c0-4.147-3.361-7.509-7.509-7.509h-95.861
	c-4.148,0-7.509,3.362-7.509,7.509c0,4.147,3.361,7.509,7.509,7.509h88.351v149.854H230.03V263.144h25.134
	c4.148,0,7.509-3.362,7.509-7.509c0-4.147-3.361-7.509-7.509-7.509H230.03V179.16h19.449h104.049c4.148,0,7.509-3.362,7.509-7.509
	s-3.361-7.509-7.509-7.509h-96.54v-38.495h39.5h67.812h39.5v38.495h-17.521h-2.717c-4.148,0-7.509,3.362-7.509,7.509
	s3.361,7.509,7.509,7.509h2.717h25.03h19.449v317.822h-49.698c-4.148,0-7.509,3.362-7.509,7.509c0,4.147,3.361,7.509,7.509,7.509
	h57.207c4.147,0,7.509-3.362,7.509-7.509v-332.84C445.775,167.504,442.414,164.142,438.266,164.142z M356.79,110.63h-52.794V47.535
	h52.794V110.63z"/>
<path d="M249.075,76.685c0-4.147-3.361-7.509-7.509-7.509h-32.264c-4.148,0-7.509,3.362-7.509,7.509
	c0,4.147,3.361,7.509,7.509,7.509h32.264C245.714,84.194,249.075,80.832,249.075,76.685z"/>
<path d="M150.175,69.176H117.91c-4.148,0-7.509,3.362-7.509,7.509c0,4.147,3.361,7.509,7.509,7.509h32.264
	c4.148,0,7.509-3.362,7.509-7.509C157.684,72.538,154.323,69.176,150.175,69.176z"/>
<path d="M165.125,62.403h32.264c4.148,0,7.509-3.362,7.509-7.509s-3.361-7.509-7.509-7.509h-32.264
	c-4.148,0-7.509,3.362-7.509,7.509S160.977,62.403,165.125,62.403z"/>
<path d="M73.734,62.403h32.264c4.148,0,7.509-3.362,7.509-7.509s-3.361-7.509-7.509-7.509H73.734c-4.148,0-7.509,3.362-7.509,7.509
	S69.586,62.403,73.734,62.403z"/>
<path d="M110.402,30.095c0,4.147,3.361,7.509,7.509,7.509h32.264c4.148,0,7.509-3.362,7.509-7.509s-3.361-7.509-7.509-7.509h-32.264
	C113.763,22.586,110.402,25.948,110.402,30.095z"/>
<path d="M150.175,115.768H117.91c-4.148,0-7.509,3.362-7.509,7.509c0,4.147,3.361,7.509,7.509,7.509h32.264
	c4.148,0,7.509-3.362,7.509-7.509C157.684,119.13,154.323,115.768,150.175,115.768z"/>
<path d="M197.389,94.771h-32.264c-4.148,0-7.509,3.362-7.509,7.509c0,4.147,3.361,7.509,7.509,7.509h32.264
	c4.148,0,7.509-3.362,7.509-7.509C204.898,98.133,201.537,94.771,197.389,94.771z"/>
<path d="M73.734,109.789h32.264c4.148,0,7.509-3.362,7.509-7.509c0-4.147-3.361-7.509-7.509-7.509H73.734
	c-4.148,0-7.509,3.362-7.509,7.509C66.225,106.427,69.586,109.789,73.734,109.789z"/>
<path d="M73.734,15.018h32.264c4.148,0,7.509-3.362,7.509-7.509S110.146,0,105.998,0H73.734c-4.148,0-7.509,3.362-7.509,7.509
	S69.586,15.018,73.734,15.018z"/>
<path d="M105.997,142.156H73.734c-4.148,0-7.509,3.362-7.509,7.509s3.361,7.509,7.509,7.509h32.264c4.148,0,7.509-3.362,7.509-7.509
	C113.506,145.518,110.145,142.156,105.997,142.156z"/>
<g>
</g>
<g>
</g>
<g>
</g>
<g>
</g>
<g>
</g>
<g>
</g>
<g>
</g>
<g>
</g>
<g>
</g>
<g>
</g>
<g>
</g>
<g>
</g>
<g>
</g>
<g>
</g>
<g>
</g>
</svg>
