<?xml version="1.0" encoding="iso-8859-1"?>
<!-- Generator: Adobe Illustrator 19.0.0, SVG Export Plug-In . SVG Version: 6.00 Build 0)  -->
<svg version="1.1" id="Capa_1" xmlns="http://www.w3.org/2000/svg" xmlns:xlink="http://www.w3.org/1999/xlink" x="0px" y="0px"
	 viewBox="0 0 512 512" style="enable-background:new 0 0 512 512;" xml:space="preserve">
<rect x="359.186" y="391.758" style="fill:#E0E0E0;" width="35.611" height="87.233"/>
<polygon style="fill:#DD3646;" points="359.188,401.27 359.188,469.467 303.297,478.983 303.297,391.754 "/>
<path style="fill:#FF434D;" d="M303.297,391.754v87.23l-272.64-18.796c-13.045-0.9-23.168-11.744-23.168-24.82l0,0
	c0-13.076,10.122-23.92,23.167-24.82L303.297,391.754z"/>
<path style="fill:#FFD039;" d="M430.207,390.157L394.8,408.782v25.788v25.788l35.407,18.625l73.915-44.412L430.207,390.157z
	 M438.95,443.396c-4.809,0-8.707-3.951-8.707-8.826s3.898-8.826,8.707-8.826s8.707,3.951,8.707,8.826
	S443.759,443.396,438.95,443.396z"/>
<polygon style="fill:#C6C5CA;" points="394.799,454.019 359.188,454.019 359.188,478.983 394.799,478.983 394.799,391.754 
	394.799,391.754 "/>
<polygon style="fill:#931F25;" points="359.188,444.503 303.297,454.019 303.297,478.983 359.188,469.467 359.188,401.27 
	359.188,401.27 "/>
<path style="fill:#DD3646;" d="M10.847,422.887c-2.137,3.678-3.357,7.944-3.357,12.482l0,0c0,13.076,10.122,23.92,23.167,24.82
	l272.64,18.795v-24.964l-272.64-18.795C22.139,434.637,14.868,429.807,10.847,422.887z"/>
<polygon style="fill:#FFAE47;" points="430.207,454.019 394.799,435.395 394.799,460.359 430.207,478.983 504.122,434.57 
	483.349,422.089 "/>
<path style="fill:#FFD039;" d="M461.391,236.925c-0.123-111.576-91.459-203.91-204.123-203.91S53.268,125.349,53.145,236.925H7.489
	v88.294h497.022v-88.294H461.391z M382.756,238.174H131.781c-0.002-0.242-0.036-0.476-0.036-0.719
	c0-69.324,56.199-125.524,125.524-125.524s125.524,56.199,125.524,125.524C382.792,237.699,382.758,237.932,382.756,238.174z"/>
<g>
	<rect x="7.489" y="300.251" style="fill:#FFA304;" width="497.025" height="24.964"/>
	<path style="fill:#FFA304;" d="M257.269,86.969c-69.325,0-125.524,56.199-125.524,125.524c0,0.243,0.035,0.476,0.036,0.719h2.313
		c11.297-57.721,62.145-101.278,123.175-101.278c61.03,0,111.878,43.557,123.174,101.278h2.313c0.001-0.242,0.036-0.476,0.036-0.719
		C382.792,143.168,326.594,86.969,257.269,86.969z"/>
</g>
<path d="M304.19,238.174c0,4.137,3.353,7.489,7.489,7.489h71.077c4.066,0,7.378-3.241,7.486-7.285
	c0.023-0.306,0.039-0.611,0.039-0.923c0-73.343-59.67-133.013-133.013-133.013s-133.012,59.67-133.012,133.013
	c0,0.291,0.014,0.576,0.038,0.912c0.103,4.049,3.417,7.296,7.486,7.296h149.941c4.136,0,7.489-3.352,7.489-7.489
	c0-4.137-3.353-7.489-7.489-7.489H139.427c3.52-61.947,55.03-111.265,117.842-111.265s114.322,49.318,117.843,111.265h-63.432
	C307.542,230.685,304.19,234.038,304.19,238.174z M390.245,238.231c-0.001,0.065-0.002,0.125-0.003,0.145
	C390.244,238.328,390.244,238.28,390.245,238.231z"/>
<path d="M504.511,229.435h-35.769c-1.923-53.294-23.737-103.325-61.907-141.594c-40.078-40.184-93.195-62.314-149.567-62.314
	c-39.969,0-78.946,11.322-112.714,32.743c-3.493,2.216-4.527,6.842-2.312,10.336c2.216,3.494,6.844,4.529,10.336,2.312
	c31.365-19.896,67.566-30.413,104.69-30.413c52.364,0,101.715,20.568,138.962,57.913c37.132,37.232,57.614,86.424,57.672,138.515
	c0.005,4.134,3.356,7.481,7.489,7.481h35.631v73.317H441v-19.748c0-4.137-3.352-7.489-7.489-7.489s-7.489,3.352-7.489,7.489v19.748
	h-35.738v-36.277c0-4.137-3.352-7.489-7.489-7.489c-4.136,0-7.489,3.352-7.489,7.489v36.277h-35.741v-19.748
	c0-4.137-3.352-7.489-7.489-7.489s-7.489,3.352-7.489,7.489v19.748h-35.738v-36.277c0-4.137-3.352-7.489-7.489-7.489
	s-7.489,3.352-7.489,7.489v36.277h-35.739v-19.748c0-4.137-3.352-7.489-7.489-7.489c-4.137,0-7.489,3.352-7.489,7.489v19.748
	h-35.738v-36.277c0-4.137-3.352-7.489-7.489-7.489c-4.137,0-7.489,3.352-7.489,7.489v36.277h-35.739v-19.748
	c0-4.137-3.352-7.489-7.489-7.489c-4.137,0-7.489,3.352-7.489,7.489v19.748H85.983v-36.277c0-4.137-3.352-7.489-7.489-7.489
	c-4.137,0-7.489,3.352-7.489,7.489v36.277H14.978v-73.317h38.167c4.133,0,7.484-3.347,7.489-7.481
	c0.063-56.87,25.025-111.026,68.487-148.584c3.13-2.704,3.475-7.433,0.77-10.563c-2.705-3.13-7.434-3.474-10.563-0.77
	c-44.844,38.751-71.379,93.956-73.532,152.42H7.489c-4.137,0-7.489,3.352-7.489,7.489v88.295c0,4.137,3.352,7.489,7.489,7.489
	h497.022c4.137,0,7.489-3.352,7.489-7.489v-88.295C512,232.788,508.648,229.435,504.511,229.435z"/>
<path d="M511.518,433.441c-0.034-0.226-0.078-0.447-0.132-0.666c-0.019-0.074-0.037-0.148-0.057-0.222
	c-0.071-0.255-0.154-0.504-0.251-0.748c-0.011-0.027-0.019-0.054-0.03-0.081c-0.115-0.278-0.246-0.546-0.39-0.807
	c-0.025-0.045-0.054-0.087-0.08-0.131c-0.121-0.207-0.252-0.405-0.391-0.599c-0.048-0.067-0.098-0.133-0.148-0.198
	c-0.143-0.184-0.293-0.359-0.451-0.529c-0.042-0.045-0.08-0.092-0.123-0.136c-0.204-0.208-0.419-0.402-0.646-0.585
	c-0.046-0.037-0.095-0.07-0.141-0.106c-0.194-0.149-0.394-0.288-0.602-0.417c-0.034-0.021-0.063-0.047-0.096-0.067l-73.915-44.413
	c-2.241-1.348-5.026-1.427-7.343-0.209l-24.432,12.851v-4.626c0-4.137-3.352-7.489-7.489-7.489h-35.611
	c-4.136,0-7.489,3.352-7.489,7.489v0.645l-47.145-8.027c-0.033-0.006-0.066-0.006-0.099-0.011c-0.16-0.025-0.321-0.041-0.482-0.055
	c-0.106-0.009-0.212-0.022-0.317-0.027c-0.154-0.007-0.308-0.004-0.462-0.002c-0.113,0.001-0.226-0.001-0.338,0.006
	c-0.025,0.002-0.049,0-0.074,0.001l-160.901,11.091c-4.127,0.285-7.241,3.86-6.957,7.986c0.285,4.127,3.888,7.236,7.986,6.957
	l152.897-10.54v71.182L31.173,452.716c-9.081-0.625-16.194-8.246-16.194-17.348s7.113-16.722,16.193-17.348l81.428-5.614
	c4.127-0.285,7.241-3.86,6.957-7.986c-0.286-4.127-3.866-7.239-7.986-6.957l-81.428,5.614C13.24,404.243,0,418.426,0,435.368
	c0,16.941,13.24,31.126,30.141,32.292l272.641,18.795c0.172,0.012,0.344,0.018,0.515,0.018c0.392,0,0.78-0.038,1.162-0.098
	c0.031-0.005,0.063-0.003,0.094-0.008l47.145-8.027v0.645c0,4.137,3.353,7.489,7.489,7.489h35.611c4.137,0,7.489-3.352,7.489-7.489
	v-6.224l24.432,12.851c1.093,0.575,2.291,0.861,3.486,0.861c1.337,0,2.673-0.357,3.856-1.069l73.915-44.412
	c0.034-0.02,0.063-0.046,0.096-0.067c0.208-0.13,0.408-0.269,0.602-0.417c0.047-0.036,0.096-0.069,0.141-0.106
	c0.227-0.183,0.442-0.377,0.646-0.585c0.043-0.043,0.081-0.09,0.122-0.135c0.159-0.17,0.31-0.346,0.452-0.53
	c0.051-0.065,0.1-0.131,0.148-0.198c0.14-0.193,0.27-0.392,0.391-0.599c0.026-0.044,0.055-0.086,0.08-0.131
	c0.146-0.26,0.277-0.528,0.39-0.806c0.011-0.027,0.019-0.055,0.03-0.082c0.097-0.243,0.18-0.492,0.251-0.748
	c0.021-0.073,0.039-0.147,0.057-0.221c0.054-0.219,0.097-0.44,0.132-0.667c0.012-0.078,0.026-0.156,0.036-0.235
	c0.035-0.295,0.059-0.591,0.059-0.896c0-0.305-0.023-0.601-0.059-0.896C511.545,433.596,511.53,433.519,511.518,433.441z
	 M351.7,463.145l-40.913,6.967v-69.486l40.913,6.967V463.145z M387.311,408.768c0,0.005-0.001,0.009-0.001,0.009v51.581l0.001,0.014
	v11.122h-20.633v-2.027V401.27v-2.027h20.633V408.768z M438.951,450.886c6.25,0,11.673-3.591,14.372-8.826h23.795l-47.154,28.334
	l-27.675-14.558v-42.532l27.675-14.557l47.154,28.334h-23.795c-2.699-5.235-8.122-8.826-14.372-8.826
	c-8.93,0-16.196,7.319-16.196,16.315S430.02,450.886,438.951,450.886z"/>
<g>
</g>
<g>
</g>
<g>
</g>
<g>
</g>
<g>
</g>
<g>
</g>
<g>
</g>
<g>
</g>
<g>
</g>
<g>
</g>
<g>
</g>
<g>
</g>
<g>
</g>
<g>
</g>
<g>
</g>
</svg>
