<svg width="316" height="158" viewBox="0 0 316 158" fill="none" xmlns="http://www.w3.org/2000/svg">
<path d="M314.5 141.6C312.4 150.4 304.6 157.6 294.3 157.6H101C87.1997 157.6 74.2997 151.7 65.2997 141.6C62.8997 139 60.8997 136 59.0997 132.9L3.29972 31.4C2.49972 29.9 1.89973 28.4 1.49973 26.9C-2.10027 14.1 7.39971 0.600006 21.5997 0.600006H214.9C215.5 0.600006 216.2 0.600006 216.8 0.600006C232.1 1.20001 245.8 10 253.4 23.3L312.6 126.8C315.2 131.6 315.7 136.8 314.5 141.6Z" fill="#5F5FFF"/>
<path d="M255.4 26.9H1.49973C-2.10027 14.1 7.39971 0.600006 21.5997 0.600006C21.5997 0.600006 216.2 0.600006 216.8 0.600006C232.1 1.20001 245.8 10 253.4 23.3L255.4 26.9Z" fill="#030047"/>
<path d="M314.5 141.6C312.4 150.4 304.6 157.6 294.3 157.6H101C87.1998 157.6 74.2998 151.6 65.2998 141.6H314.5Z" fill="#030047"/>
<path d="M60.8999 18.9H29.1999C27.0999 18.9 25.3999 17.2 25.3999 15.1C25.3999 13 27.0999 11.3 29.1999 11.3H60.8999C62.9999 11.3 64.6999 13 64.6999 15.1C64.6999 17.2 62.9999 18.9 60.8999 18.9Z" fill="white"/>
<path d="M213 18.9H197.4C195.3 18.9 193.6 17.2 193.6 15.1C193.6 13 195.3 11.3 197.4 11.3H213C215.1 11.3 216.8 13 216.8 15.1C216.8 17.2 215.1 18.9 213 18.9Z" fill="white"/>
<path d="M153.3 43.9C125.8 38.6 108 45.2 99.1999 50.2C95.1999 52.5 94.6999 58 98.1999 60.9C103.5 65.4 112.7 71.1 126.3 73C149.9 76.3 163.3 69.2 166.7 60.2C170.3 51.3 159.9 45.1 153.3 43.9Z" fill="#FFCC3E"/>
<path d="M149.2 69.7C148.3 67.3 148.7 64.6 149.2 62.1C149.7 59.7 150.9 58 149.6 55.9C145.7 49.6 134.9 50.3 128.9 49.6C125.2 49.2 118.1 47.4 114.1 44.3C107.7 46 102.7 48.2 99.2 50.2C95.3 52.5 94.8 57.9 98.3 60.9C103.6 65.4 112.8 71.1 126.4 73C136.3 74.4 144.4 73.9 150.7 72.3C150.1 71.5 149.5 70.7 149.2 69.7Z" fill="#030047"/>
<path d="M121.599 111.8C121.499 111.8 121.5 111.8 121.4 111.8C110.3 108.5 98.1995 94.6 99.7995 82.3C99.8995 81.9 100.199 81.6 100.599 81.7C100.999 81.8 101.299 82.1 101.199 82.5C99.7995 93.8 111.299 107.2 121.799 110.4C122.199 110.5 122.399 110.9 122.299 111.3C122.199 111.6 121.899 111.8 121.599 111.8Z" fill="white"/>
<path d="M92.3998 65.7C92.2998 65.7 92.0998 65.7 91.9998 65.6C88.4998 63.4 86.0998 59.9 85.6998 56.4C85.2998 53.1 86.5998 49.8 89.3998 46.9C89.6998 46.6 90.1998 46.6 90.4998 46.9C90.7998 47.2 90.7998 47.7 90.4998 48C87.9998 50.5 86.8998 53.4 87.2998 56.2C87.6998 59.3 89.7998 62.4 92.8998 64.4C93.1998 64.6 93.3998 65.1 93.0998 65.4C92.8998 65.6 92.6998 65.7 92.3998 65.7Z" fill="white"/>
<path d="M95.8998 75.2C91.7998 74.9 84.4998 72.1 80.8998 65.8C80.6998 65.4 80.7998 65 81.1998 64.8C81.5998 64.6 81.9998 64.7 82.1998 65.1C85.4998 70.9 92.1998 73.4 95.8998 73.7C96.2998 73.7 96.5998 74.1 96.5998 74.5C96.5998 74.9 96.2998 75.2 95.8998 75.2Z" fill="white"/>
<path d="M92.3995 120.9C92.2995 120.9 92.2995 120.9 92.1995 120.9C92.0995 120.9 84.1995 119 83.0995 111.2C82.9995 110.8 83.2995 110.4 83.6995 110.4C84.0995 110.3 84.4995 110.6 84.4995 111C85.3995 117.8 92.3995 119.5 92.3995 119.5C92.7995 119.6 93.0995 120 92.9995 120.4C93.0995 120.7 92.7995 120.9 92.3995 120.9Z" fill="white"/>
<path d="M267.9 33.4H227.5V73.8H267.9V33.4Z" fill="#8FACFF"/>
<path d="M260.5 67.4C260.3 67.4 260.1 67.3 260 67.2L234.2 41.4C233.9 41.1 233.9 40.6 234.2 40.3C234.5 40 235 40 235.3 40.3L261.1 66.1C261.4 66.4 261.4 66.9 261.1 67.2C260.9 67.4 260.7 67.4 260.5 67.4Z" fill="white"/>
<path d="M234.7 67.4C234.5 67.4 234.3 67.3 234.2 67.2C233.9 66.9 233.9 66.4 234.2 66.1L260 40.3C260.3 40 260.8 40 261.1 40.3C261.4 40.6 261.4 41.1 261.1 41.4L235.3 67.2C235.1 67.4 234.9 67.4 234.7 67.4Z" fill="white"/>
<path d="M267.8 84.5H246V106.3H267.8V84.5Z" fill="#8FACFF"/>
<path d="M295.2 56.5H276.6C276.2 56.5 275.8 56.2 275.8 55.7C275.8 55.2 276.1 54.9 276.6 54.9H295.2C295.6 54.9 296 55.2 296 55.7C296 56.2 295.6 56.5 295.2 56.5Z" fill="#FF3E6C"/>
<path d="M262.5 96.2H251.2C250.8 96.2 250.4 95.9 250.4 95.4C250.4 94.9 250.7 94.6 251.2 94.6H262.5C262.9 94.6 263.3 94.9 263.3 95.4C263.3 95.9 263 96.2 262.5 96.2Z" fill="#FF3E6C"/>
<path d="M213.7 80.7C213.5 80.7 213.2 80.6 213.1 80.4C212.9 80.1 213 79.6 213.3 79.4L220.8 74.3C221.1 74.1 221.6 74.2 221.8 74.5C222 74.8 221.9 75.3 221.6 75.5L214.1 80.6C214 80.7 213.8 80.7 213.7 80.7Z" fill="#DEDEFF"/>
<path d="M223.2 86.4C223 86.4 222.9 86.4 222.7 86.2C222.4 85.9 222.3 85.5 222.6 85.1L226.9 79.4C227.2 79.1 227.6 79 228 79.3C228.3 79.6 228.4 80 228.1 80.4L223.8 86.1C223.6 86.3 223.4 86.4 223.2 86.4Z" fill="#DEDEFF"/>
<path d="M176.1 121.8C173.7 121.8 171.2 121.5 168.5 120.9C168.1 120.8 167.8 120.4 167.9 120C168 119.6 168.4 119.3 168.8 119.4C183.5 122.6 193.4 115.7 196.2 110.7C196.4 110.3 196.9 110.2 197.2 110.4C197.6 110.6 197.7 111.1 197.5 111.4C195 115.9 187.4 121.8 176.1 121.8Z" fill="white"/>
<path d="M172.2 115.7C169.8 115.7 167.6 115.4 165.8 114.8C165.4 114.7 165.2 114.3 165.3 113.9C165.4 113.5 165.8 113.3 166.2 113.4C171.1 114.9 179.3 114.5 185 110.5C185.3 110.3 185.8 110.3 186 110.7C186.2 111 186.2 111.5 185.8 111.7C181.9 114.5 176.8 115.7 172.2 115.7Z" fill="white"/>
<path d="M119.4 54.9C109.6 59.6 109.6 66.4 113.5 69.2C117.4 72 139.9 74.1 144.9 67.3C149.9 60.5 146.8 53.9 137.1 52.2C133.4 51.6 124.5 52.5 119.4 54.9Z" fill="#FFCC3E"/>
<path d="M129.9 54.1C128 53.4 125.9 53.6 124.3 54.8C97.3997 73.9 108.7 107.1 150.2 111C157.8 111.7 162.7 106.5 166.9 108.9C169.2 110.2 172.9 107.4 174.3 108.3C178.9 111.1 180 106.4 180 106.4C180.8 106.6 183.1 104.2 181.9 102.3C181.9 102.3 184.3 100.6 181.8 97.5C176.7 91.1 161.6 89.7 153.7 88C145.8 86.3 129.1 84.4 136.1 73.5C136.2 73.4 136.2 73.3 136.3 73.2C140.7 66.3 136.9 59.8 129.2 56.9L129.9 54.1Z" fill="#FFCC3E"/>
<path d="M179 105.8C177.3 103.7 174.6 102.5 171.9 102.8C171.3 102.9 171.3 103.9 171.9 103.8C174.4 103.6 176.7 104.6 178.3 106.5C178.7 107 179.4 106.3 179 105.8Z" fill="#030047"/>
<path d="M181 100.6C179.4 98.8 177.1 97.7 174.6 97.6C174 97.6 174 98.6 174.6 98.6C176.8 98.7 178.8 99.6 180.3 101.3C180.7 101.8 181.4 101.1 181 100.6Z" fill="#030047"/>
<path d="M113.9 66.2C113.8 66.2 113.6 66.2 113.5 66.1C113.1 65.9 113 65.4 113.2 65.1C113.3 64.9 116.5 59.3 121.9 55.6C122.2 55.4 122.7 55.5 122.9 55.8C123.1 56.1 123 56.6 122.7 56.8C117.6 60.3 114.5 65.7 114.5 65.8C114.4 66.1 114.2 66.2 113.9 66.2Z" fill="#5F5FFF"/>
<path d="M137.6 71C137.5 71 137.3 71 137.2 70.9C136.9 70.7 136.8 70.2 137 69.9L140.5 64.7C140.7 64.4 141.2 64.3 141.5 64.5C141.8 64.7 141.9 65.2 141.7 65.5L138.2 70.7C138.1 70.9 137.8 71 137.6 71Z" fill="#5F5FFF"/>
<path d="M156.9 39.5C146.3 36.4 137.7 38.8 137.7 49C137.7 49 128.7 53.3 135.8 58.8C135.8 58.8 132.1 67.2 144.3 67.6C156.5 67.9 160.1 49.3 160.1 49.3L156.9 39.5Z" fill="#FF3E6C"/>
<path d="M178.6 43.2C179.4 47.1 179.5 50.9 178.2 53.9C176.8 57.1 174 59.4 168.8 60C161.9 60.8 154.8 56.3 153.2 48.4C151.6 40.6 156 33 163 31.6C163.2 31.6 163.5 31.5 163.7 31.5C164.1 31.4 164.5 31.4 165 31.4C169.6 31.3 174 33.8 176.5 38C176.6 38.1 176.6 38.2 176.7 38.3C177.6 39.8 178.3 41.5 178.6 43.2Z" fill="#FFCC3E"/>
<path d="M176.5 38C172.1 44.4 160 48 153.1 48.5C151.5 40.7 155.9 33.1 162.9 31.7C163.1 31.7 163.4 31.6 163.6 31.6C164 31.5 164.4 31.5 164.9 31.5C169.6 31.3 174 33.9 176.5 38Z" fill="#8FACFF"/>
<path d="M170.444 46.745C170.735 46.2758 170.591 45.6592 170.122 45.3679C169.653 45.0766 169.036 45.2208 168.745 45.69C168.453 46.1592 168.598 46.7758 169.067 47.0671C169.536 47.3584 170.153 47.2142 170.444 46.745Z" fill="#030047"/>
<path d="M156.3 48.1C148 48.2 146.3 54.7 150 57.5C153 59.7 158.2 60.1 161.2 55.6C164.2 51.1 156.3 48.1 156.3 48.1Z" fill="#FFCC3E"/>
<path d="M157.5 52.8C155.6 51.4 153 51.3 151.2 52.8C150.7 53.2 151.3 54 151.8 53.6C153.3 52.4 155.4 52.3 156.9 53.5C157.4 54 158 53.2 157.5 52.8Z" fill="#030047"/>
<path d="M176.1 51.6C176.2 49.4 175.9 47.1 175.3 45C175.1 44.4 174.2 44.6 174.3 45.2C174.9 47.3 175.1 49.4 175.1 51.6C175.1 52.2 176.1 52.2 176.1 51.6Z" fill="#030047"/>
<path d="M168.7 61.3C165.2 61.3 163.5 60.2 163.4 60.1C163.1 59.9 163 59.4 163.2 59.1C163.4 58.8 163.9 58.7 164.2 58.9C164.2 58.9 166.4 60.2 170.9 59.7C171.3 59.6 171.7 59.9 171.7 60.3C171.8 60.7 171.5 61.1 171.1 61.1C170.2 61.2 169.4 61.3 168.7 61.3Z" fill="#5F5FFF"/>
<path d="M239.9 52.3C239.9 49.6 235.9 49.6 235.9 49.6C234.5 47.2 230.5 45.7 218.6 49.5C207.2 53.1 193.6 51.6 180.7 49.1C180.7 52.1 179.2 55.8 177.5 57.9C174.3 61.7 169.3 61.4 165.2 60.9C165.1 61.7 163.7 63.3 163.7 64C172.6 68.5 221.7 75.3 229.9 60.6C232.1 56.8 247.5 57.3 247.5 53.7C247.6 50.4 239.9 52.3 239.9 52.3Z" fill="#FFCC3E"/>
<path d="M225.2 62.6C231.9 66.4 240.6 64 241.2 61.2C241.9 57.9 234.7 59.8 234.7 59.8L230.3 55.7L225.2 62.6Z" fill="#FFCC3E"/>
<path d="M234.8 48.8C233.3 48.6 231.9 48.8 230.5 49.4C229.9 49.7 230.4 50.5 231 50.3C232.1 49.8 233.3 49.6 234.5 49.8C235.2 49.8 235.4 48.9 234.8 48.8Z" fill="#030047"/>
<path d="M239.2 51.8C237.6 52 235.9 52.3 234.3 52.6C233.7 52.7 233.9 53.7 234.6 53.6C236.1 53.3 237.7 53 239.2 52.8C239.8 52.7 239.8 51.7 239.2 51.8Z" fill="#030047"/>
</svg>
