<?xml version="1.0" encoding="iso-8859-1"?>
<!-- Generator: Adobe Illustrator 19.0.0, SVG Export Plug-In . SVG Version: 6.00 Build 0)  -->
<svg version="1.1" id="Capa_1" xmlns="http://www.w3.org/2000/svg" xmlns:xlink="http://www.w3.org/1999/xlink" x="0px" y="0px"
	 viewBox="0 0 512 512" style="enable-background:new 0 0 512 512;" xml:space="preserve">
<path style="fill:#E0E0E0;" d="M288.989,99.304L115.38,272.912c-14.441,14.441-17.793,35.757-10.088,53.406l-37.134,37.134
	c-6.869,6.869-6.869,18.005,0,24.874l0,0c6.869,6.869,18.005,6.869,24.875,0l37.134-37.134c17.649,7.707,38.965,4.353,53.406-10.087
	L357.18,167.497L288.989,99.304z"/>
<path style="fill:#C6C5CA;" d="M340.15,150.465L166.541,324.073c-14.441,14.441-35.757,17.794-53.406,10.087l-37.134,37.134
	c-3.57,3.57-8.291,5.267-12.969,5.127c0.13,4.322,1.827,8.606,5.127,11.906l0,0c6.869,6.869,18.005,6.869,24.875,0l37.134-37.134
	c17.649,7.707,38.965,4.353,53.406-10.087l173.608-173.608L340.15,150.465z"/>
<g>
	<path style="fill:#39A4FA;" d="M146.843,470.026c0,19.036-15.432,34.469-34.469,34.469s-34.469-15.432-34.469-34.469
		c0-19.036,34.469-58.773,34.469-58.773S146.843,450.99,146.843,470.026z"/>
	<path style="fill:#39A4FA;" d="M270.479,416.954c0,22.666-18.374,41.04-41.04,41.04s-41.04-18.374-41.04-41.04
		c0-22.666,41.04-69.977,41.04-69.977S270.479,394.289,270.479,416.954z"/>
</g>
<rect x="257.535" y="98.859" transform="matrix(-0.7071 -0.7071 0.7071 -0.7071 491.7589 441.8712)" style="fill:#FF434D;" width="159.717" height="40.46"/>
<path id="SVGCleanerId_0" style="fill:#DD3646;" d="M434.883,21.603L434.883,21.603c-18.831-18.831-49.363-18.831-68.194,0
	l-49.094,49.093l68.194,68.194l49.093-49.093C453.714,70.965,453.714,40.434,434.883,21.603z"/>
<g>
	<path id="SVGCleanerId_0_1_" style="fill:#DD3646;" d="M434.883,21.603L434.883,21.603c-18.831-18.831-49.363-18.831-68.194,0
		l-49.094,49.093l68.194,68.194l49.093-49.093C453.714,70.965,453.714,40.434,434.883,21.603z"/>
</g>
<path style="fill:#931F25;" d="M434.883,21.603c-1.922-1.922-3.972-3.638-6.113-5.167c6.417,17.77,1.836,39.277-13.354,54.468
	l-48.806,48.807l19.18,19.18l49.093-49.093C453.714,70.965,453.714,40.434,434.883,21.603z"/>
<path style="fill:#39A4FA;" d="M167.161,221.131l-51.782,51.782c-14.441,14.441-17.794,35.757-10.088,53.406l-37.134,37.134
	c-6.869,6.869-6.869,18.005,0,24.874l0,0c6.869,6.869,18.006,6.869,24.875,0l37.134-37.134c17.649,7.707,38.965,4.353,53.406-10.087
	l119.975-119.974H167.161z"/>
<path style="fill:#0091E2;" d="M166.541,324.073c-14.441,14.441-35.757,17.794-53.406,10.087l-37.134,37.134
	c-3.57,3.57-8.291,5.267-12.969,5.127l0,0c0.032,1.079,0.163,2.156,0.391,3.214c0.002,0.008,0.004,0.016,0.006,0.024
	c0.112,0.516,0.248,1.029,0.406,1.536c0.014,0.043,0.031,0.085,0.045,0.128c0.152,0.471,0.321,0.938,0.513,1.397
	c0.04,0.095,0.089,0.187,0.131,0.281c0.178,0.406,0.365,0.81,0.576,1.204c0.086,0.161,0.188,0.315,0.28,0.474
	c0.186,0.324,0.37,0.648,0.579,0.963c0.164,0.246,0.351,0.48,0.528,0.72c0.163,0.22,0.314,0.445,0.489,0.659
	c0.368,0.449,0.761,0.886,1.18,1.306l0,0c2.286,2.285,5.047,3.793,7.962,4.557c0.827,0.216,1.662,0.378,2.507,0.473
	c0.122,0.014,0.244,0.034,0.366,0.045c5.019,0.456,10.197-1.233,14.038-5.076l37.134-37.134c3.861,1.686,7.897,2.842,11.998,3.47
	c2.344,0.358,4.708,0.543,7.074,0.556c0.591,0.003,1.183-0.004,1.774-0.023c1.773-0.055,3.545-0.208,5.304-0.458
	c2.933-0.417,5.834-1.104,8.665-2.062c0.566-0.191,1.13-0.394,1.689-0.607c5.6-2.132,10.884-5.345,15.528-9.641
	c0.464-0.429,0.923-0.87,1.374-1.321l119.975-119.974h-34.065L166.541,324.073z"/>
<rect x="367.319" y="144.341" transform="matrix(-0.7071 -0.7071 0.7071 -0.7071 537.2148 551.6639)" style="fill:#DD3646;" width="31.083" height="40.46"/>
<g>
	<path style="fill:#0091E2;" d="M112.374,411.253c0,0-5.725,6.601-12.509,15.71c9.861,13.242,21.959,31.785,21.959,43.062
		c0,14.622-9.11,27.109-21.959,32.118c3.879,1.512,8.095,2.351,12.509,2.351c19.036,0,34.469-15.432,34.469-34.469
		C146.843,450.99,112.374,411.253,112.374,411.253z"/>
	<path style="fill:#0091E2;" d="M229.439,346.977c0,0-5.52,6.365-12.509,15.54c12.072,15.847,28.53,40.083,28.53,54.436
		c0,18.303-11.984,33.8-28.53,39.091c3.945,1.261,8.146,1.948,12.509,1.948c22.666,0,41.04-18.374,41.04-41.04
		C270.479,394.289,229.439,346.977,229.439,346.977z"/>
</g>
<path d="M440.19,16.295c-21.727-21.727-57.08-21.727-78.808,0l-8.071,8.071c-2.931,2.931-2.931,7.684,0,10.614
	c2.931,2.931,7.684,2.931,10.614,0l8.071-8.072c15.875-15.874,41.704-15.874,57.579,0c15.875,15.875,15.875,41.705,0,57.58
	l-43.786,43.786l-57.58-57.58l14.486-14.486c2.931-2.931,2.931-7.684,0-10.615c-2.931-2.931-7.684-2.931-10.615,0l-14.485,14.489
	l-17.065-17.065c-2.931-2.931-7.684-2.931-10.615,0l-28.607,28.608c-2.931,2.931-2.931,7.684,0,10.614l17.065,17.064l-53.115,53.115
	c-2.931,2.931-2.931,7.684,0,10.614c2.931,2.931,7.684,2.931,10.614,0l53.115-53.115l57.58,57.58l-46.127,46.127H185.282
	l29.184-29.184c2.931-2.931,2.931-7.684,0-10.615c-2.93-2.931-7.683-2.931-10.614,0l-41.993,41.993
	c-0.001,0.001-0.002,0.002-0.003,0.003l-51.782,51.782c-15.084,15.084-20.137,36.915-13.526,56.845l-33.694,33.694
	c-3.057,3.057-5.16,6.714-6.306,10.596c-0.229,0.777-0.42,1.562-0.573,2.353c-0.153,0.792-0.267,1.588-0.344,2.389
	c-0.076,0.801-0.115,1.603-0.115,2.407c0,6.427,2.446,12.853,7.338,17.745c2.141,2.141,4.574,3.812,7.173,5.016
	c0.371,0.172,0.746,0.334,1.124,0.487c3.021,1.223,6.235,1.834,9.447,1.834c4.326,0,8.651-1.114,12.509-3.331
	c1.872-1.076,3.637-2.409,5.235-4.007l33.694-33.694c11.833,3.925,24.336,3.738,35.7-0.219c0.292-0.102,0.58-0.214,0.871-0.32
	c0.305-0.112,0.611-0.219,0.914-0.336c7.098-2.749,13.703-6.995,19.36-12.651l21.037-21.037c2.931-2.931,2.931-7.684,0-10.615
	c-2.931-2.931-7.684-2.931-10.614,0l-21.037,21.037c-10.068,10.068-24.252,14.019-37.732,10.943
	c-2.489-0.568-4.953-1.375-7.363-2.428c-2.83-1.235-6.127-0.611-8.311,1.571l-37.134,37.134c-2.213,2.212-5.204,3.178-8.098,2.902
	c-2.251-0.215-4.442-1.183-6.163-2.902c-3.686-3.686-3.916-9.539-0.692-13.496c0.215-0.264,0.445-0.519,0.692-0.765l37.134-37.134
	c2.184-2.184,2.807-5.481,1.571-8.311c-6.754-15.467-3.412-33.168,8.515-45.095l49.583-49.583h115.158l-64.742,64.743
	c-2.931,2.931-2.931,7.684,0,10.615c0.366,0.366,0.762,0.686,1.178,0.962c1.249,0.825,2.689,1.237,4.13,1.237
	c1.44,0,2.881-0.412,4.13-1.237c0.416-0.275,0.811-0.595,1.177-0.962L357.18,178.109l17.064,17.065
	c1.407,1.408,3.316,2.199,5.307,2.199c1.99,0,3.9-0.791,5.307-2.199l28.607-28.608c2.931-2.931,2.931-7.684,0-10.614l-17.064-17.064
	l43.786-43.786C461.917,73.376,461.917,38.024,440.19,16.295z M379.553,179.255l-17.06-17.06c-0.002-0.002-0.003-0.003-0.005-0.005
	l-68.194-68.194c-0.002-0.002-0.003-0.003-0.005-0.005l-17.06-17.06l17.993-17.993L397.546,161.26L379.553,179.255z"/>
<path d="M118.045,406.336c-1.425-1.643-3.495-2.588-5.67-2.588c-2.176,0-4.244,0.944-5.67,2.588
	c-0.362,0.417-8.974,10.373-17.714,22.862c-12.509,17.875-18.591,31.23-18.591,40.828c0,23.144,18.829,41.974,41.974,41.974
	c23.144,0,41.974-18.829,41.974-41.974c0-9.598-6.082-22.953-18.591-40.828C127.018,416.708,118.407,406.754,118.045,406.336z
	 M112.374,496.989c-14.867,0-26.963-12.095-26.963-26.963c0-10.146,14.775-31.866,26.938-47.014
	c3.097,3.874,7.112,9.08,11.11,14.793c14.331,20.478,15.878,29.355,15.878,32.221C139.337,484.894,127.242,496.989,112.374,496.989z
	"/>
<path d="M229.439,339.472c-2.176,0-4.244,0.944-5.67,2.588c-4.388,5.06-42.875,50.142-42.875,74.895
	c0,26.768,21.777,48.545,48.545,48.545s48.545-21.777,48.545-48.545c0-24.752-38.487-69.836-42.876-74.895
	C233.684,340.416,231.615,339.472,229.439,339.472z M229.439,450.487c-18.491,0-33.534-15.043-33.534-33.534
	c0-12.75,18.719-40.035,33.535-58.29c14.817,18.246,33.533,45.523,33.533,58.29C262.973,435.444,247.93,450.487,229.439,450.487z"/>
<g>
</g>
<g>
</g>
<g>
</g>
<g>
</g>
<g>
</g>
<g>
</g>
<g>
</g>
<g>
</g>
<g>
</g>
<g>
</g>
<g>
</g>
<g>
</g>
<g>
</g>
<g>
</g>
<g>
</g>
</svg>
