<svg width="253" height="294" viewBox="0 0 253 294" fill="none" xmlns="http://www.w3.org/2000/svg">
<path d="M107.7 262.7C108.8 268.5 110.8 272.6 113.1 275.7C113.3 276 113.5 276.2 113.7 276.5C114.2 277.1 114.7 277.6 115.2 278.1C115.5 278.4 115.7 278.6 116 278.8C118.7 281.2 121.6 282.6 124.1 283.7C130.4 286.4 130.7 293.3 130.7 293.3L81.2998 293C81.8998 284.8 81.8998 269.3 81.8998 269.3C92.2998 266.3 97.1998 264.4 107.7 262.7Z" fill="#030047"/>
<path d="M113.2 275.7C113.4 276 113.6 276.2 113.8 276.5C111.8 277.4 109.8 278.4 107.8 279.3C107.2 279.6 106.7 278.7 107.3 278.5C109.3 277.6 111.2 276.6 113.2 275.7Z" fill="white"/>
<path d="M115.3 278.1C115.6 278.4 115.8 278.6 116.1 278.8C113.9 279.9 111.6 280.9 109.4 282C108.8 282.3 108.3 281.4 108.9 281.2C111 280.1 113.2 279.1 115.3 278.1Z" fill="white"/>
<path d="M39.2002 258.2C34.6002 261.9 31.9002 265.6 30.3002 269.1C30.2002 269.4 30.0002 269.7 29.9002 270C29.6002 270.7 29.4002 271.4 29.2002 272.1C29.1002 272.4 29.0002 272.8 28.9002 273.1C28.1002 276.6 28.2002 279.9 28.4002 282.6C28.9002 289.4 23.0002 292.9 23.0002 292.9L0.200195 249C7.1002 244.2 13.7002 239.7 19.0002 234.4C26.5002 242.1 32.8002 249.6 39.2002 258.2Z" fill="#030047"/>
<path d="M112.7 155.5C112.7 155.5 100.8 150.5 90.9996 149.2C91.5996 140.6 91.7996 134.9 91.7996 134.9L60.1996 137C56.7996 156.5 55.3996 184.8 40.9996 209.7C34.4996 221 23.2996 230 11.5996 240.1C18.0996 249 28.4996 260.7 35.0996 269.6C36.9996 266.5 65.1996 251.6 79.5996 213.3C79.1996 244 78.0996 275.4 78.0996 275.4L113.9 273.1C113.9 273.1 118.8 208.2 112.7 155.5Z" fill="white"/>
<path d="M77.3 276.2V275.4C77.3 275.1 78.3 246.5 78.8 217.4C67 245.8 47.8 260.5 39.5 266.9C37.7 268.3 36.1 269.5 35.8 270L35.2 271L34.5 270.1C31.4 265.9 27.3 261 23.4 256.3C19 250.9 14.4 245.4 10.9 240.6L10.5 240L11 239.5C12.2 238.5 13.4 237.4 14.6 236.4C24.8 227.6 34.4 219.3 40.2 209.3C51.8 189.2 54.9 166.9 57.5 148.9C58.1 144.6 58.7 140.5 59.3 136.8L59.4 136.2L92.4 134V134.8C92.4 134.9 92.2 140.3 91.6 148.4C101.3 149.8 112.7 154.6 112.8 154.7L113.2 154.9L113.3 155.3C119.3 207.4 114.5 272.3 114.5 273V273.7L77.3 276.2ZM80.4 209L80.3 213.3C79.9 240.9 79 269.4 78.8 274.6L113.1 272.4C113.6 265.5 117.5 205.2 111.9 156.1C109.7 155.2 99.4 151.1 90.8 150L90.1 149.9L90.2 149.2C90.7 142.6 90.9 137.6 91 135.8L60.8 137.8C60.2 141.4 59.7 145.2 59.1 149.3C56.5 167.4 53.4 189.9 41.7 210.2C35.8 220.4 26.1 228.8 15.8 237.7C14.8 238.6 13.8 239.5 12.7 240.3C16.1 244.9 20.5 250.2 24.7 255.3C28.4 259.8 32.2 264.4 35.3 268.4C36 267.8 37.1 266.9 38.7 265.7C47.3 259.1 67.6 243.5 79.1 213L80.4 209Z" fill="#030047"/>
<path d="M30.3006 269C30.2006 269.3 30.0006 269.6 29.9006 269.9C28.1006 268.6 26.4007 267.2 24.6007 265.9C24.1007 265.5 24.6007 264.6 25.1007 265C26.8007 266.5 28.6006 267.7 30.3006 269Z" fill="white"/>
<path d="M29.2001 272C29.1001 272.3 29.0001 272.7 28.9001 273C26.9001 271.5 24.9001 270.1 23.0001 268.6C22.5001 268.2 23.0001 267.3 23.5001 267.7C25.4001 269.2 27.3001 270.6 29.2001 272Z" fill="white"/>
<path d="M81.9005 208.4C81.8005 208.4 81.7005 208.4 81.6005 208.3C81.2005 208.2 81.0005 207.7 81.2005 207.3C88.3005 188.9 91.0005 167.5 91.0005 167.3L91.1005 166.7H91.7005C91.8005 166.7 97.3005 166.4 101.001 165.4C101.401 165.3 101.801 165.5 101.901 165.9C102.001 166.3 101.801 166.7 101.401 166.8C98.3006 167.6 94.0006 168 92.4005 168.1C91.9005 171.8 89.1005 191 82.6005 207.8C82.5005 208.2 82.2005 208.4 81.9005 208.4Z" fill="#030047"/>
<path d="M252.8 0.400024H136.7V156.3H252.8V0.400024Z" fill="#FF3E6C"/>
<path d="M208.1 17.4H160.7V47.2H208.1V17.4Z" fill="white"/>
<path d="M189.4 117.3L237.8 89.7C237.8 89.7 251.3 114.2 227.8 126.8C207.3 137.8 189.4 117.3 189.4 117.3Z" fill="white"/>
<path d="M215.5 93.8C219.145 93.8 222.1 90.8451 222.1 87.2C222.1 83.5549 219.145 80.6 215.5 80.6C211.855 80.6 208.9 83.5549 208.9 87.2C208.9 90.8451 211.855 93.8 215.5 93.8Z" fill="white"/>
<path d="M211.9 21.8C211.7 21.8 211.5 21.7 211.4 21.6L203.9 14.1C203.6 13.8 203.6 13.3 203.9 13C204.2 12.7 204.7 12.7 205 13L212.5 20.5C212.8 20.8 212.8 21.3 212.5 21.6C212.2 21.8 212 21.8 211.9 21.8Z" fill="#030047"/>
<path d="M204.4 21.8C204.2 21.8 204 21.7 203.9 21.6C203.6 21.3 203.6 20.8 203.9 20.5L211.4 13C211.7 12.7 212.2 12.7 212.5 13C212.8 13.3 212.8 13.8 212.5 14.1L205 21.6C204.8 21.8 204.6 21.8 204.4 21.8Z" fill="#030047"/>
<path d="M176.042 102.571L161.482 108.172L167.083 122.731L181.642 117.131L176.042 102.571Z" fill="white"/>
<path d="M252.901 28.4H247.601V74.3H252.901V28.4Z" fill="#030047"/>
<path d="M191.8 29.2H169.3C168.9 29.2 168.5 28.9 168.5 28.4C168.5 27.9 168.8 27.6 169.3 27.6H191.8C192.2 27.6 192.6 27.9 192.6 28.4C192.6 28.9 192.2 29.2 191.8 29.2Z" fill="#030047"/>
<path d="M178.201 66.2C178.101 66.2 178.101 66.2 178.001 66.2C177.601 66.1 177.301 65.7 177.401 65.3L179.801 54.7C179.901 54.3 180.301 53.9999 180.701 54.0999C181.101 54.1999 181.401 54.6 181.301 55L178.901 65.5999C178.801 65.8999 178.501 66.2 178.201 66.2Z" fill="#030047"/>
<path d="M169.701 57.2L185.201 37.3L189.401 61.7L169.701 57.2Z" fill="white"/>
<path d="M190.301 62.6L168.301 57.6L185.601 35.5L190.301 62.6ZM171.001 56.7L188.501 60.6L184.801 39.1L171.001 56.7Z" fill="#030047"/>
<path d="M151.601 67C158.301 60.3 162.501 53.3 166.701 55.8C166.701 55.8 171.901 55 171.501 57.7C175.101 54.8 176.401 51.3 178.801 52.6C182.801 54.7 170.901 69.8 170.901 69.8H174.301C174.301 69.8 177.001 64 179.801 64.4C182.601 64.8 179.601 75.4 172.201 79.5C166.301 82.8 158.501 87.2 158.501 87.2L151.601 67Z" fill="white"/>
<path d="M158 88.3L150.7 66.8L151 66.5C152.6 64.9 154.1 63.2 155.5 61.7C159.8 57 163.1 53.2 166.8 55.1C167.7 55 170.4 54.8 171.6 56C171.7 56.1 171.8 56.2 171.9 56.4C172.7 55.7 173.3 55 173.9 54.3C175.5 52.5 177 50.9 179 52C179.6 52.3 180 52.9 180.1 53.6C180.9 57.2 174.7 65.8 172.2 69.1H173.6C174.4 67.6 176.8 63.3 179.7 63.7C180.2 63.8 181 64.1 181.3 65.5C181.8 68.6 178.9 76.6 172.4 80.2C166.5 83.5 158.7 87.9 158.7 87.9L158 88.3ZM152.5 67.2L158.9 86.1C161 84.9 167 81.5 171.8 78.8C177.4 75.7 180.5 68.4 180 65.7C180 65.5 179.9 65.1 179.7 65.1C178 64.8 175.8 68.3 175 70.1L174.8 70.5H169.4L170.4 69.3C174 64.7 179.5 56.5 178.9 53.8C178.8 53.4 178.7 53.3 178.5 53.2C177.6 52.7 176.9 53.3 175.2 55.2C174.3 56.2 173.3 57.3 172 58.3L170.5 59.5L170.8 57.6C170.9 57.2 170.8 57.1 170.7 57C170.1 56.4 168.1 56.4 166.9 56.6H166.6L166.4 56.5C163.8 55 161.2 57.7 156.7 62.7C155.4 64.1 154 65.7 152.5 67.2Z" fill="#030047"/>
<path d="M151.6 67C146.1 72.3 137.6 82.1 129.5 85.3C119.4 89.3 101.6 67.5 89 68.8L92.2 90.7C92.2 90.7 102.8 112.6 122.4 116.9C142 121.2 162 86.9 162.1 86.8C159.5 80.9 156.2 70.9 151.6 67Z" fill="#030047"/>
<path d="M125.9 118.1C124.7 118.1 123.5 118 122.3 117.7C102.6 113.3 91.7002 91.3 91.6002 91.1L91.5002 90.9L88.2002 68.2L89.0002 68.1C95.4002 67.5 102.9 72.4 110.1 77.1C117.5 82 124.5 86.5 129.3 84.6C135.7 82.1 142.3 75.3 147.7 69.9C148.9 68.6 150.1 67.5 151.2 66.4L151.7 65.9L152.2 66.3C156 69.6 158.9 76.7 161.3 82.4C161.9 83.8 162.4 85.1 162.9 86.3L163.1 86.8L162.7 87.2C159.3 92.8 142.9 118.1 125.9 118.1ZM92.9002 90.5C93.7002 92.1 104.2 112.1 122.5 116.2C139.7 120 157.6 92.6 161.2 86.7C160.7 85.6 160.2 84.4 159.7 83.1C157.5 77.8 154.9 71.2 151.5 68C150.6 68.9 149.6 69.9 148.6 70.9C143.2 76.4 136.4 83.3 129.7 85.9C124.1 88.1 116.8 83.3 109.1 78.2C102.4 73.8 95.5002 69.2 89.8002 69.4L92.9002 90.5Z" fill="#030047"/>
<path d="M171 57.7C169.6 59 168.5 60.4 167.5 62.1C167.2 62.7 168 63.2 168.4 62.6C169.3 61 170.4 59.6 171.7 58.4C172.2 58 171.5 57.3 171 57.7Z" fill="#030047"/>
<path d="M165.8 56C164.8 57.1 163.8 58.2 162.8 59.3C162.4 59.8 163.1 60.5 163.5 60C164.5 58.9 165.5 57.8 166.5 56.7C166.9 56.3 166.2 55.6 165.8 56Z" fill="#030047"/>
<path d="M80.4008 66.8L78.8008 71L97.6008 73.2L98.5008 64.4L80.4008 66.8Z" fill="#030047"/>
<path d="M95.2006 71.6C84.6006 63.4 62.8006 77.6 59.3006 89.7C55.8006 101.8 51.6006 160.5 51.6006 160.5L115.901 159.6C115.901 159.6 110.701 96.2 103.201 85.5C95.8006 74.7 98.8006 74.3 95.2006 71.6Z" fill="#030047"/>
<path d="M109.301 105.7C109.001 105.7 108.601 105.5 108.601 105.1C108.601 105 107.301 99.1 104.601 89.9C104.501 89.5 104.701 89.1 105.101 89C105.501 88.9 105.901 89.1 106.001 89.5C108.801 98.8 110.001 104.7 110.001 104.8C110.101 105.2 109.801 105.6 109.401 105.7H109.301Z" fill="white"/>
<path d="M101.101 48.1C97.8007 40.8 89.8007 37.3 83.3007 40.3C76.8007 43.3 74.1008 51.6 77.4008 58.9C77.4008 58.9 77.4008 58.9 77.4008 59C76.7008 59.3 76.1008 59.7 75.7008 60.1C72.4008 62.9 73.1007 67 76.3007 68.4C79.1007 69.6 83.0008 69.4 85.4008 66.5C88.6008 67.7 92.1008 67.8 95.2008 66.7C104.901 63.3 104.401 55.4 101.101 48.1Z" fill="white"/>
<path d="M79.7006 69.8C78.4006 69.8 77.1006 69.5 76.0006 69C74.3006 68.2 73.2006 66.8 72.9006 65C72.6006 63 73.5006 61 75.3006 59.4C75.7006 59.1 76.1006 58.8 76.6006 58.5C73.5006 50.9 76.3006 42.5 83.1006 39.5C90.0006 36.4 98.4006 40.1 101.901 47.7C104.301 53 104.701 57.4 103.301 60.9C102.101 63.8 99.5006 66 95.7006 67.3C92.6006 68.4 89.1006 68.4 85.8006 67.3C84.0006 69.1 81.8006 69.8 79.7006 69.8ZM88.2006 40C86.6006 40 85.1006 40.3 83.6006 41C77.4006 43.8 75.0006 51.7 78.1006 58.6L78.4006 59.2L77.8006 59.6C77.2006 59.9 76.6006 60.3 76.2006 60.6C74.8006 61.8 74.1006 63.3 74.4006 64.8C74.6006 66.1 75.4006 67.1 76.6006 67.6C79.0006 68.7 82.6006 68.6 84.9006 65.9L85.2006 65.5L85.7006 65.7C88.7006 66.9 92.0006 67 95.0006 65.9C98.4006 64.7 100.701 62.8 101.801 60.3C103.101 57.2 102.701 53.2 100.501 48.3C98.1006 43.2 93.1006 40 88.2006 40Z" fill="#030047"/>
<path d="M91.8508 53.4205C92.4028 53.4041 92.8371 52.9434 92.8208 52.3913C92.8044 51.8392 92.3437 51.4049 91.7916 51.4213C91.2395 51.4376 90.8052 51.8984 90.8216 52.4505C90.8379 53.0025 91.2987 53.4368 91.8508 53.4205Z" fill="#030047"/>
<path d="M100.101 53.3C98.9007 51.4 97.5007 49.7 95.8007 48.2C95.3007 47.8 94.6007 48.5 95.1007 48.9C96.7007 50.3 98.1007 52 99.3007 53.8C99.6007 54.4 100.501 53.8 100.101 53.3Z" fill="#030047"/>
<path d="M91.5008 42.2C89.3008 44.6 78.4008 50 82.5008 55.4C83.5008 56.8 84.7008 57.3 83.6008 58.7C82.3008 59.9 81.1008 58.4 81.1008 58.4C79.1008 58.9 76.9008 59.6 75.8008 60.6C70.5008 56 70.5009 50.2 72.9009 48.3C72.9009 48.3 86.9009 28.2 93.4009 33.5C99.1009 38.3 91.5008 42.2 91.5008 42.2Z" fill="#030047"/>
<path d="M82.7013 62.1C80.6013 61.1 78.0013 61.7 76.5013 63.5C76.1013 64 76.8013 64.7 77.2013 64.2C78.4013 62.7 80.4013 62.1 82.2013 63C82.8013 63.3 83.3013 62.4 82.7013 62.1Z" fill="#030047"/>
<path d="M153.2 143.9H71.2002V176.7H153.2V143.9Z" fill="white"/>
<path d="M153.9 177.5H70.4004V143.2H153.9V177.5ZM72.0004 176H152.5V144.7H72.0004V176Z" fill="#030047"/>
<path d="M128.501 153.2H95.8008V160.5H128.501V153.2Z" fill="#FF3E6C"/>
<path d="M140.401 153.2H133.101V160.5H140.401V153.2Z" fill="#FF3E6C"/>
<path d="M149.5 153.2H142.2V160.5H149.5V153.2Z" fill="#FF3E6C"/>
<path d="M140.401 163H133.101V170.3H140.401V163Z" fill="#FF3E6C"/>
<path d="M89.3 163H82V170.3H89.3V163Z" fill="#FF3E6C"/>
<path d="M99.5002 163H92.2002V170.3H99.5002V163Z" fill="#FF3E6C"/>
<path d="M105.101 136.2C104.201 133.1 91.0006 124 90.3006 120.9C86.0006 123.3 81.8006 124.8 78.0006 123.5C67.5006 119.9 63.6006 100.7 75.7006 91.2C87.8006 81.7 88.9006 68.8 88.9006 68.8C69.8006 69.6 51.4006 81.1 42.9006 104.3C33.3006 130.7 45.8006 144.1 55.7006 148.8C65.5006 153.4 93.1006 151.7 93.1006 151.7C93.4006 152.2 95.8006 148 96.3006 147.6C99.0006 144 106.401 140.5 105.101 136.2Z" fill="#030047"/>
<path d="M105.101 131.7C105.001 131.7 104.801 131.7 104.701 131.6C104.601 131.5 94.8007 125.6 73.1007 122.5C70.1007 122.1 67.9007 120.5 66.6007 118C64.1007 113 65.4007 104.7 70.1007 95.7C70.3007 95.3 70.7007 95.2001 71.1007 95.4001C71.5007 95.6001 71.6007 96.0001 71.4007 96.4001C66.9007 104.8 65.6007 112.9 67.9007 117.4C69.0007 119.5 70.8007 120.8 73.3007 121.1C95.4007 124.3 105.101 130.1 105.501 130.4C105.901 130.6 106.001 131.1 105.701 131.4C105.601 131.5 105.401 131.7 105.101 131.7Z" fill="white"/>
<path d="M69.8007 152.1C69.8007 152.1 69.7007 152.1 69.8007 152.1C64.5007 151.7 59.6007 150.9 55.6007 149.6C55.2007 149.5 55.0007 149 55.1007 148.7C55.2007 148.4 55.7007 148.1 56.0007 148.2C59.9007 149.5 64.7007 150.3 69.8007 150.7C70.2007 150.7 70.5007 151.1 70.5007 151.5C70.5007 151.8 70.2007 152.1 69.8007 152.1Z" fill="white"/>
<path d="M106.201 133.1C100.901 137 98.101 144.5 94.501 150.4C95.301 152.3 95.801 152.4 100.101 153C107.901 154 107.701 159.4 111.601 159.4C115.501 159.3 115.601 157.2 115.601 157.2C120.301 157.2 121.701 153.8 121.701 153.8C132.701 149.8 113.101 133.4 106.201 133.1Z" fill="white"/>
<path d="M111.501 160C109.501 160 108.401 158.8 107.301 157.6C105.801 156 104.101 154.2 100.001 153.7C95.6008 153.1 94.8008 153 93.9008 150.7L93.8008 150.3L94.0008 150C95.0008 148.4 95.9008 146.7 96.8008 145C99.3008 140.3 101.901 135.5 105.901 132.6L106.101 132.4H106.401C111.801 132.7 124.801 142.2 125.801 149C126.001 150.7 125.601 153 122.401 154.3C121.901 155.2 120.201 157.7 116.301 157.9C115.801 158.7 114.701 160 111.501 160C111.601 160 111.501 160 111.501 160ZM95.3008 150.4C95.8008 151.5 96.2008 151.6 100.101 152.1C104.801 152.7 106.801 154.9 108.301 156.5C109.401 157.7 110.101 158.5 111.401 158.5C114.501 158.5 114.701 157 114.701 157L114.801 156.3H115.501C115.501 156.3 115.501 156.3 115.601 156.3C119.601 156.3 120.901 153.4 120.901 153.3L121.001 153L121.301 152.9C123.401 152.2 124.301 150.9 124.001 149.2C123.201 143.4 111.201 134.4 106.201 133.9C102.601 136.7 100.201 141.2 97.8008 145.7C97.1008 147.2 96.3008 148.9 95.3008 150.4Z" fill="#030047"/>
<path d="M115.501 155.5C114.001 152.7 112.101 150.1 109.801 147.9C109.301 147.5 108.601 148.2 109.101 148.6C111.401 150.7 113.201 153.2 114.701 156C115.001 156.6 115.801 156.1 115.501 155.5Z" fill="#030047"/>
<path d="M121.701 152.5C120.601 148.5 118.2 145.8 115.1 143.2C114.6 142.8 113.901 143.5 114.401 143.9C117.301 146.4 119.601 149 120.701 152.8C120.901 153.4 121.801 153.2 121.701 152.5Z" fill="#030047"/>
</svg>
