<?xml version="1.0" encoding="iso-8859-1"?>
<!-- Generator: Adobe Illustrator 19.0.0, SVG Export Plug-In . SVG Version: 6.00 Build 0)  -->
<svg version="1.1" id="Capa_1" xmlns="http://www.w3.org/2000/svg" xmlns:xlink="http://www.w3.org/1999/xlink" x="0px" y="0px"
	 viewBox="0 0 512 512" style="enable-background:new 0 0 512 512;" xml:space="preserve">
<path style="fill:#FFC89F;" d="M408.049,504.485H203.282l-13.582-76.621c0,0-62.616,15.258-78.34-26.253
	c-9.46-24.976-22.581-95.08-22.581-95.08H58.924c-8.408,0-14.117-8.543-10.889-16.307c13.699-32.954,43.869-105.974,50.252-125.123
	c8.319-24.959,28.022-157.587,174.206-157.587s282.014,134.068,116.541,373.892L408.049,504.485z"/>
<g>
	<path style="fill:#F7B081;" d="M164.652,427.865c0,0-4.937,1.202-12.385,2.014c4.415,0.554,8.772,0.749,12.87,0.718
		L164.652,427.865z"/>
	<path style="fill:#F7B081;" d="M272.494,7.515c-4.243,0-8.369,0.123-12.402,0.341c141.14,7.506,264.582,140.662,103.894,373.552
		L383,504.485h25.049l-19.016-123.078C554.507,141.583,418.678,7.515,272.494,7.515z"/>
</g>
<path style="fill:#FFD039;" d="M353.632,276L353.632,276c9.148-14.102,14.467-30.933,14.467-49.016
	c0-49.677-40.118-89.948-89.606-89.948s-89.606,40.271-89.606,89.948c0,18.082,5.319,34.914,14.467,49.016l0,0
	c0.011,0.016,0.021,0.032,0.032,0.048c0.271,0.416,0.539,0.833,0.816,1.243c32.088,48.929,43.071,79.716,43.071,79.716h31.22h31.221
	c0,0,10.982-30.788,43.071-79.716c0.277-0.411,0.545-0.828,0.816-1.243C353.611,276.032,353.621,276.017,353.632,276z"/>
<path style="fill:#FFAE47;" d="M368.099,226.984c0-49.676-40.118-89.948-89.606-89.948c-4.251,0-8.431,0.304-12.524,0.879
	c43.558,6.116,77.082,43.659,77.082,89.069c0,18.082-5.319,34.915-14.467,49.016l0,0c-0.011,0.016-0.021,0.032-0.031,0.048
	c-0.271,0.416-0.539,0.833-0.816,1.243c-32.089,48.929-43.071,79.716-43.071,79.716h25.049c0,0,10.982-30.787,43.071-79.716
	c0.277-0.411,0.545-0.828,0.816-1.243c0.01-0.016,0.021-0.032,0.031-0.048l0,0C362.78,261.9,368.099,245.067,368.099,226.984z"/>
<path style="fill:#546F7A;" d="M278.493,413.115L278.493,413.115c-17.212,0-31.165-13.953-31.165-31.165v-24.916h62.331v24.916
	C309.658,399.162,295.706,413.115,278.493,413.115z"/>
<path style="fill:#475D63;" d="M284.625,357.033v24.294c0,12.963-7.764,24.106-18.892,29.053c3.896,1.751,8.212,2.733,12.76,2.733
	l0,0c17.212,0,31.165-13.953,31.165-31.165v-24.916H284.625z"/>
<path d="M455.777,246.175c-3.98-1.189-8.164,1.071-9.351,5.049c-11.813,39.532-33.204,81.896-63.576,125.915
	c-1.09,1.58-1.534,3.518-1.241,5.415l17.678,114.417H275.121c-4.15,0-7.515,3.365-7.515,7.515s3.365,7.515,7.515,7.515h132.929
	c2.193,0,4.277-0.959,5.705-2.623c1.428-1.665,2.056-3.872,1.721-6.039l-18.56-120.135c30.369-44.437,51.867-87.381,63.909-127.677
	C462.013,251.55,459.752,247.363,455.777,246.175z"/>
<path d="M433.674,69.409c-18.519-22.319-42.593-39.782-71.554-51.902C334.76,6.054,303.768,0,272.494,0
	c-58.883,0-105.044,20.833-137.202,61.92c-25.975,33.187-36.031,70.938-41.434,91.218c-1.057,3.968-1.97,7.394-2.7,9.587
	c-6.351,19.056-37.126,93.496-50.062,124.615c-2.481,5.969-1.822,12.741,1.765,18.116c3.589,5.379,9.594,8.591,16.062,8.591h23.641
	c3.454,17.811,13.742,69.037,21.769,90.226c7.534,19.89,25.345,31.482,51.51,33.523c10.953,0.855,21.128-0.152,27.782-1.158
	l12.258,69.158c0.636,3.588,3.755,6.203,7.399,6.203h41.781c4.15,0,7.515-3.365,7.515-7.515s-3.365-7.515-7.515-7.515h-35.48
	L197.1,426.553c-0.362-2.044-1.554-3.846-3.292-4.982c-1.739-1.135-3.871-1.5-5.885-1.008c-0.562,0.135-56.316,13.28-69.534-21.614
	c-9.117-24.067-22.092-93.105-22.222-93.8c-0.666-3.555-3.769-6.132-7.386-6.132H58.924c-2.067,0-3.178-1.331-3.56-1.903
	c-0.381-0.57-1.18-2.103-0.39-4.006c16.146-38.842,44.169-106.813,50.442-125.631c0.877-2.629,1.798-6.09,2.966-10.47
	c10.344-38.831,37.822-141.977,164.112-141.977c29.299,0,58.285,5.65,83.824,16.34c26.699,11.176,48.834,27.203,65.79,47.636
	c31.079,37.453,41.891,87.165,31.269,143.76c-0.766,4.079,1.921,8.007,6,8.771c4.078,0.768,8.006-1.921,8.771-6
	C479.622,164.404,467.701,110.416,433.674,69.409z"/>
<path d="M238.04,374.515c-4.15,0-7.515,3.365-7.515,7.515c0,4.15,3.365,7.515,7.515,7.515h2.527
	c3.54,17.703,19.198,31.085,37.927,31.085c18.729,0,34.387-13.381,37.927-31.085h2.527c4.15,0,7.515-3.365,7.515-7.515
	c0-4.15-3.365-7.515-7.515-7.515h-1.773v-15.99c2.169-5.615,13.923-34.461,41.843-77.034c0.273-0.405,0.539-0.814,0.805-1.222
	l0.061-0.094c0.009-0.014,0.045-0.07,0.055-0.084c10.257-15.811,15.678-34.174,15.678-53.105c0-53.741-43.568-97.462-97.121-97.462
	s-97.121,43.721-97.121,97.462c0,18.931,5.422,37.295,15.709,53.153c0.007,0.011,0.016,0.024,0.025,0.038l0.082,0.127
	c0.258,0.397,0.516,0.795,0.729,1.109c1.644,2.507,3.231,4.965,4.763,7.372c2.229,3.501,6.874,4.533,10.374,2.305
	c3.501-2.229,4.533-6.873,2.305-10.374c-1.569-2.465-3.193-4.98-4.928-7.622c-0.216-0.321-0.427-0.646-0.637-0.971l-0.108-0.166
	c-0.016-0.024-0.032-0.049-0.049-0.074c-8.66-13.363-13.238-28.887-13.238-44.897c0-45.454,36.826-82.433,82.091-82.433
	s82.091,36.979,82.091,82.433c0,16.021-4.584,31.557-13.287,44.971l-0.084,0.129c-0.218,0.337-0.437,0.674-0.713,1.085
	c-25.157,38.359-37.493,65.61-41.91,76.322h-9.854c0.204-8.833,0.746-24.283,2.171-40.156c0.441-4.91,0.919-9.348,1.42-13.355
	c13.173-3.489,22.65-10.688,26.577-20.668c3.658-9.301,1.481-19.537-5.547-26.078c-7.298-6.792-13.739-5.49-16.928-4.109
	c-9.524,4.124-14.508,19.617-17.5,37.951c-1.961,0.162-4.042,0.247-6.247,0.247c-2.352,0-4.565-0.096-6.642-0.276
	c-2.993-18.322-7.977-33.801-17.495-37.923c-3.188-1.38-9.63-2.683-16.928,4.109c-7.013,6.526-9.188,16.735-5.54,26.008
	c3.917,9.956,13.384,17.152,26.562,20.673c0.501,4,0.979,8.43,1.42,13.331c1.43,15.888,1.974,31.389,2.179,40.245h-9.845
	c-2.991-7.24-9.616-22.068-21.388-42.813c-2.048-3.61-6.636-4.876-10.244-2.828c-3.609,2.048-4.876,6.635-2.828,10.244
	c13.836,24.383,20.324,40.39,21.88,44.424v15.994h-1.772V374.515z M307.986,259.319c0.277,0.184,0.654,0.473,1.133,0.919
	c2.551,2.375,3.223,5.954,1.799,9.575c-1.308,3.323-4.49,6.762-9.913,9.338C303.887,264.938,306.837,260.555,307.986,259.319z
	 M246.063,269.742c-1.413-3.591-0.742-7.144,1.792-9.504c0.479-0.445,0.857-0.733,1.133-0.919c1.147,1.233,4.088,5.603,6.964,19.751
	C250.542,276.486,247.367,273.056,246.063,269.742z M278.493,405.6c-10.384,0-19.221-6.73-22.393-16.055h44.784
	C297.714,398.87,288.878,405.6,278.493,405.6z M282.905,298.259c-0.31,2.823-0.59,5.655-0.851,8.475
	c-1.583,17.107-2.152,33.567-2.356,42.761h-2.423c-0.203-9.193-0.773-25.653-2.356-42.761c-0.262-2.825-0.543-5.664-0.853-8.493
	C276.956,298.387,280.008,298.393,282.905,298.259z M254.843,364.548h47.301v9.966h-47.301L254.843,364.548L254.843,364.548z"/>
<path d="M286.008,96.245V65.942c0-4.15-3.365-7.515-7.515-7.515c-4.15,0-7.515,3.365-7.515,7.515v30.303
	c0,4.15,3.365,7.515,7.515,7.515C282.643,103.76,286.008,100.395,286.008,96.245z"/>
<path d="M337.147,117.047c3.196,0,6.16-2.055,7.168-5.266l9.076-28.911c1.243-3.96-0.959-8.177-4.92-9.42
	c-3.96-1.243-8.178,0.96-9.42,4.92l-9.076,28.911c-1.243,3.96,0.96,8.177,4.92,9.42C335.643,116.934,336.4,117.047,337.147,117.047z
	"/>
<path d="M376.856,146.995c1.61,0,3.232-0.515,4.602-1.579l23.939-18.58c3.278-2.545,3.874-7.266,1.329-10.544
	c-2.545-3.278-7.264-3.874-10.544-1.329l-23.939,18.58c-3.278,2.545-3.874,7.265-1.329,10.544
	C372.397,145.996,374.615,146.995,376.856,146.995z"/>
<path d="M219.841,117.047c0.745,0,1.504-0.112,2.252-0.347c3.96-1.243,6.162-5.461,4.92-9.42l-9.076-28.911
	c-1.242-3.96-5.459-6.159-9.42-4.92c-3.96,1.243-6.162,5.461-4.92,9.42l9.076,28.911
	C213.68,114.992,216.645,117.047,219.841,117.047z"/>
<path d="M184.743,133.544l-23.939-18.58c-3.278-2.545-8-1.95-10.545,1.329c-2.544,3.278-1.95,8,1.329,10.544l23.939,18.58
	c1.371,1.064,2.992,1.579,4.602,1.579c2.242,0,4.461-1,5.942-2.908C188.616,140.809,188.022,136.088,184.743,133.544z"/>
<g>
</g>
<g>
</g>
<g>
</g>
<g>
</g>
<g>
</g>
<g>
</g>
<g>
</g>
<g>
</g>
<g>
</g>
<g>
</g>
<g>
</g>
<g>
</g>
<g>
</g>
<g>
</g>
<g>
</g>
</svg>
