<svg width="235" height="319" viewBox="0 0 235 319" fill="none" xmlns="http://www.w3.org/2000/svg">
<path d="M104.2 284.9L103.5 314.3L154.5 314.8C154.5 314.8 154.8 308.8 145.1 304.3C135.4 299.8 133.4 282 133.4 282L104.2 284.9Z" fill="#FF3E6C"/>
<path d="M155.2 315.5L102.7 315L103.4 284.2L134 281.2L134.1 281.9C134.1 282.1 136.2 299.3 145.4 303.6C155.4 308.2 155.3 314.5 155.3 314.8L155.2 315.5ZM104.3 313.5L153.7 314C153.4 312.4 152 308.3 144.8 305C135.9 300.9 133.3 286.3 132.8 282.9L105 285.7L104.3 313.5Z" fill="#FF3E6C"/>
<path d="M12.4 272.5L1.5 299.8L49.1 318C49.1 318 51.4 312.5 43.9 304.9C36.4 297.3 40.7 279.9 40.7 279.9L12.4 272.5Z" fill="#FF3E6C"/>
<path d="M49.6001 319L0.600098 300.2L12.0001 271.6L41.7001 279.4L41.5001 280.1C41.5001 280.3 37.4001 297.2 44.5001 304.4C52.3001 312.2 49.9001 318.1 49.8001 318.3L49.6001 319ZM2.50009 299.3L48.6001 317C48.9001 315.4 49.0001 311 43.4001 305.4C36.5001 298.4 39.1001 283.9 39.8001 280.5L12.8001 273.4L2.50009 299.3Z" fill="#FF3E6C"/>
<path d="M49.2002 152.8C41.0002 166.6 37.5002 205.1 28.2002 224.8C18.9002 244.5 8.2002 276.3 8.2002 276.3L45.9002 292.3C45.9002 292.3 71.6002 234.8 74.5002 204.8C77.4002 174.8 76.7002 148.8 76.7002 148.8L49.2002 152.8Z" fill="#030047"/>
<path d="M65.2002 167.8C66.0002 183.8 86.5002 214 89.8002 235.6C93.1002 257.2 101.7 296.1 101.7 296.1L142 288.5C142 288.5 136.7 228.1 119.2 190.8C106.4 163.5 88.0002 145.4 88.0002 145.4L65.2002 167.8Z" fill="#030047"/>
<path d="M73.7001 193.8C73.4001 193.8 73.2001 193.7 73.0001 193.4L70.5001 188.9L63.0001 186.2C62.6001 186.1 62.4001 185.6 62.5001 185.2C62.6001 184.8 63.1001 184.6 63.5001 184.7L71.5001 187.5L74.2001 192.5C74.4001 192.9 74.3001 193.3 73.9001 193.5C73.9001 193.8 73.8001 193.8 73.7001 193.8Z" fill="white"/>
<path d="M40.6003 295C39.1003 295.8 37.5003 296.7 36.0003 297.5C35.4003 297.8 35.9003 298.7 36.5003 298.4C38.0003 297.6 39.6003 296.7 41.1003 295.9C41.7003 295.6 41.2003 294.7 40.6003 295Z" fill="#030047"/>
<path d="M41.4003 298.2C40.2003 299.2 38.9003 300.1 37.7003 301.1C37.2003 301.5 37.7003 302.4 38.2003 302L41.9003 299.1C42.4003 298.6 41.9003 297.8 41.4003 298.2Z" fill="#030047"/>
<path d="M138.7 297C138.1 298.3 137.5 299.5 136.8 300.8C136.5 301.4 137.4 301.9 137.7 301.3L139.6 297.5C139.8 296.9 138.9 296.4 138.7 297Z" fill="#030047"/>
<path d="M141.5 300.3C140.9 301.6 140.3 302.8 139.6 304.1C139.3 304.7 140.2 305.2 140.5 304.6L142.4 300.8C142.7 300.3 141.8 299.8 141.5 300.3Z" fill="#030047"/>
<path d="M134.2 287.2C133.8 287.2 133.5 286.9 133.5 286.5C131.9 228.5 97.4 165.4 97.1 164.8C96.9 164.4 97 164 97.4 163.8C97.8 163.6 98.2 163.7 98.4 164.1C98.7 164.7 133.3 228.1 135 286.5C135 286.9 134.6 287.2 134.2 287.2Z" fill="white"/>
<path d="M104 177.8C103.9 177.8 103.8 177.8 103.7 177.8C103.3 177.7 103.1 177.2 103.3 176.8C105.2 171.7 102.9 164.7 102.9 164.6C102.8 164.2 103 163.8 103.4 163.6C103.8 163.5 104.2 163.7 104.4 164.1C104.5 164.4 107 171.7 104.8 177.3C104.6 177.6 104.3 177.8 104 177.8Z" fill="white"/>
<path d="M98.9004 64.9C102 72.3 102.2 80.2 92.5004 83.3C85.9004 85.4 78.0004 82.3 74.9004 74.9C71.8004 67.5 74.7004 59.3 81.3004 56.5C87.9004 53.7 95.8004 57.5 98.9004 64.9Z" fill="white"/>
<path d="M88.3003 84.7C82.4003 84.7 76.6003 81.1 74.2003 75.2C71.0003 67.4 74.0003 58.8 81.0003 55.8C88.0003 52.9 96.3002 56.8 99.6002 64.6C101.8 69.9 102.1 74.4 100.6 77.8C99.3002 80.7 96.6003 82.7 92.8003 84C91.2003 84.5 89.7003 84.7 88.3003 84.7ZM85.8003 56.4C84.4003 56.4 82.9003 56.7 81.5003 57.3C75.3003 59.9 72.6003 67.7 75.5003 74.7C78.6003 82 86.4003 84.5 92.2003 82.6C95.7003 81.5 98.0002 79.7 99.1002 77.2C100.5 74.2 100.2 70.1 98.1002 65.2C95.9002 59.8 90.9003 56.4 85.8003 56.4Z" fill="#030047"/>
<path d="M93.3999 65.2C93.9522 65.2 94.3999 64.7523 94.3999 64.2C94.3999 63.6477 93.9522 63.2 93.3999 63.2C92.8476 63.2 92.3999 63.6477 92.3999 64.2C92.3999 64.7523 92.8476 65.2 93.3999 65.2Z" fill="#030047"/>
<path d="M94.1 54.9C94.1 48.3 83.2 55.7 81.3 56.6C75.4 57.7 70.2 65.5 72 72.4C73.5 78.3 80.3001 85.3 83.9001 83.6C89.8001 80.1 90.7 74.3 88 68.8C89 67.6 87.8 65.8 88.3 64.4C89 62.1 94.2 57.2 94.1 54.9Z" fill="#030047"/>
<path d="M85.9003 68.2C74.9003 67.2 76.2003 76 80.3003 78C83.7003 79.6 88.9003 79 91.0003 74C93.1003 69.1 85.9003 68.2 85.9003 68.2Z" fill="white"/>
<path d="M86.9 72C84.8 70.9 82.2 71.4 80.7 73.3C80.3 73.8 81 74.5 81.4 74C82.6 72.5 84.7 72.0001 86.4 72.9001C87 73.2001 87.5 72.3 86.9 72Z" fill="#030047"/>
<path d="M99.7 67.4C98.6 65.5 97.2 63.7 95.5 62.2C95 61.8 94.2999 62.5 94.7999 62.9C96.3999 64.4 97.6999 66 98.7999 67.9C99.1999 68.4 100 67.9 99.7 67.4Z" fill="#030047"/>
<path d="M174.7 43.8H142.5V76H174.7V43.8Z" fill="#FF3E6C"/>
<path d="M175.5 76.8H141.8V43H175.5V76.8ZM143.3 75.3H174V44.6H143.3V75.3Z" fill="#FF3E6C"/>
<path d="M158.6 67.6C155.7 67.6 153.1 66.1 151.7 63.6C151.5 63.2 151.6 62.8 152 62.6C152.4 62.4 152.8 62.5 153 62.9C154.1 64.9 156.3 66.2 158.6 66.2C162.1 66.2 165 63.3 165 59.8C165 56.3 162.1 53.4 158.6 53.4C155.1 53.4 152.2 56.3 152.2 59.8C152.2 60.2 151.9 60.6 151.4 60.6C150.9 60.6 150.6 60.3 150.6 59.8C150.6 55.4 154.2 51.9 158.5 51.9C162.8 51.9 166.4 55.5 166.4 59.8C166.4 64.1 163 67.6 158.6 67.6Z" fill="white"/>
<path d="M158.6 72C151.8 72 146.2 66.4 146.2 59.6C146.2 52.8 151.8 47.2 158.6 47.2C162 47.2 165.4 48.7 167.7 51.2C168 51.5 168 52 167.7 52.3C167.4 52.6 166.9 52.6 166.6 52.3C164.5 50.1 161.6 48.8 158.6 48.8C152.6 48.8 147.7 53.7 147.7 59.7C147.7 65.7 152.6 70.6 158.6 70.6C164.6 70.6 169.5 65.7 169.5 59.7C169.5 58.3 169.2 57 168.7 55.7C168.5 55.3 168.7 54.9 169.1 54.7C169.5 54.5 169.9 54.7 170.1 55.1C170.7 56.6 171 58.1 171 59.7C171 66.5 165.5 72 158.6 72Z" fill="white"/>
<path d="M20.9997 114.4C16.9997 127.8 25.2997 144 36.7997 151L38.1997 149C41.0997 150.6 54.6997 141.2 58.2997 135.6C53.6997 133.8 49.5997 132.4 48.6997 127.2C46.0997 113.2 62.6997 116.2 73.6997 119.5C76.3997 108.7 77.3997 91.8 77.3997 91.8C50.7997 84.9 27.2997 93.3 20.9997 114.4Z" fill="#FF3E6C"/>
<path d="M36.9999 152L36.3999 151.6C25.2999 144.8 15.9999 128.5 20.2999 114.1C26.5999 93 49.5999 83.7 77.5999 90.9L78.1999 91.1V91.7C78.1999 91.9 77.1999 108.8 74.4999 119.5L74.2999 120.3L73.4999 120.1C62.1999 116.7 54.4999 116.5 51.1999 119.4C49.4999 121 48.8999 123.5 49.4999 126.9C50.3999 131.6 53.9999 133 58.4999 134.7L59.3999 135L58.9999 135.8C55.6999 140.9 42.9999 150.3 38.5999 149.7L36.9999 152ZM59.5999 90.1C40.7999 90.1 26.3999 99 21.6999 114.6C17.6999 128.1 26.1999 143.3 36.5999 150L37.9999 148L38.5999 148.3C40.6999 149.4 52.7999 141.7 57.1999 135.9C52.8999 134.2 48.9999 132.5 47.9999 127.2C47.2999 123.2 47.9999 120.2 50.0999 118.3C53.7999 115 61.4999 115 73.0999 118.4C75.2999 109 76.2999 95.3 76.5999 92.2C70.5999 90.8 64.8999 90.1 59.5999 90.1Z" fill="#FF3E6C"/>
<path d="M46.8001 152.7C44.2001 152.1 41.6001 151.1 39.1001 149.8C41.4001 146.6 43.3001 142.7 45.2001 138.9C46.6001 135.9 48.0001 133.2 49.6001 130.7L49.7001 130.5C50.2001 129.7 51.1001 129.3 52.6001 129.1H53.0001L53.2001 128.7C54.0001 127.1 54.7001 126.8 55.5001 126.8C56.1001 126.8 56.9001 127 57.9001 127.5C58.3001 127.7 58.5001 127.9 58.6001 128.3C58.9001 129.6 57.8001 132.1 55.6001 135.3L55.0001 136L55.7001 136.4C56.1001 136.7 56.6001 136.9 57.0001 137.1C55.9001 138.7 54.8001 140.4 53.8001 142C51.4001 145.4 49.0001 149.1 46.8001 152.7Z" fill="white"/>
<path d="M55.4001 127.6C55.9001 127.6 56.6001 127.8 57.5001 128.2C57.7001 128.3 57.8001 128.4 57.8001 128.5C57.9001 128.8 58.1001 130.4 54.9001 134.8L54.0001 136.1L55.4001 136.9C55.6001 137 55.8001 137.1 56.0001 137.2C55.1001 138.6 54.1001 140 53.2001 141.4C51.0001 144.8 48.7001 148.2 46.6001 151.7C44.5001 151.2 42.4001 150.4 40.4001 149.4C42.5001 146.3 44.3001 142.6 46.0001 139.1C47.4001 136.2 48.8001 133.4 50.3001 131L50.4001 130.8C50.7001 130.4 51.1001 129.9 52.7001 129.7L53.5001 129.6L53.9001 128.9C54.6001 127.6 55.0001 127.6 55.4001 127.6ZM55.4001 126.1C54.1001 126.1 53.3001 126.9 52.5001 128.4C50.8001 128.6 49.7001 129.2 49.1001 130.2C45.3001 136.3 42.5001 144.4 38.1001 150.1C41.0001 151.7 44.1001 152.9 47.3001 153.6C50.7001 147.8 54.6001 142.4 58.2001 136.7C57.6001 136.5 56.9001 136.1 56.2001 135.7C58.5001 132.5 60.9001 128.1 58.2001 126.8C57.0001 126.3 56.1001 126.1 55.4001 126.1Z" fill="#030047"/>
<path d="M85.3998 91.9C69.7998 88.5 63.4998 95.9 57.8998 118.7C52.2998 141.5 42.2998 154.7 42.2998 154.7C42.2998 154.7 87.6998 167.5 107 164.7C106.9 164.8 118.5 99.1 85.3998 91.9Z" fill="#FF3E6C"/>
<path d="M100.4 166C79.2999 166 43.5999 156 41.9999 155.5L40.8999 155.2L41.5999 154.3C41.6999 154.2 51.5999 140.9 57.0999 118.5C62.9999 94.4 69.8999 87.7 85.4999 91.1C99.3999 94.1 107.6 107.9 109.3 130.9C110.5 148.1 107.7 164.7 107.6 164.8L107.5 165.3L107 165.4C105 165.9 102.8 166 100.4 166ZM43.3999 154.4C50.1999 156.2 88.6999 166.4 106.2 164.2C107.2 157.9 115.6 99.3 85.1999 92.7C70.4999 89.5 64.2999 95.6 58.5999 119C53.7999 138.3 45.6999 151 43.3999 154.4Z" fill="#FF3E6C"/>
<path d="M72.9004 94.5L74.5004 86.7L95.8004 89.1L93.3004 98.7L72.9004 94.5Z" fill="#FF3E6C"/>
<path d="M93.8001 99.6L72.1001 95.1L74.0001 85.8L96.8001 88.4L93.8001 99.6ZM73.8001 94L92.7001 97.9L94.8001 89.8L75.1001 87.6L73.8001 94Z" fill="#FF3E6C"/>
<path d="M58.3 115.2C58.2 115.2 58.1 115.2 58 115.1C57.6 114.9 57.3999 114.5 57.5999 114.1L61.5 104.5C61.7 104.1 62.1 103.9 62.5 104.1C62.9 104.3 63.1 104.7 62.9 105.1L59 114.7C58.9 115 58.6 115.2 58.3 115.2Z" fill="white"/>
<path d="M167.999 78.8C167.699 73.7 163.899 72.8 163.899 72.8C163.599 69.8 159.299 68.9 159.299 68.9C160.499 63.2 162.299 61.3 161.399 59.6C159.999 56.9 157.499 58.9 154.699 65.1C154.399 65.8 154.099 66.5 153.799 67.2C153.099 66.7 152.199 66.8 150.999 68.2C148.199 71.7 146.699 75.4 147.899 83.8C147.599 84.5 147.299 85.1 146.899 85.7L160.399 103.4C160.399 103.4 163.499 101.5 164.299 95.2C164.799 91.7 165.399 86.6 165.899 84C168.799 84.4 168.099 81.4 167.999 78.8Z" fill="white"/>
<path d="M160.299 104.3L146 85.7L146.2 85.3C146.5 84.8 146.8 84.3 147 83.7C145.8 75.2 147.299 71.4 150.299 67.7C151.399 66.3 152.5 66.1 153.2 66.2C153.4 65.7 153.599 65.2 153.799 64.8C155.999 60.1 157.9 57.8 159.7 57.7C160.3 57.7 161.2 58 161.9 59.3C162.5 60.6 162.1 61.8 161.4 63.7C161 64.9 160.4 66.4 160 68.5C161.3 68.9 163.9 70 164.4 72.4C165.5 72.9 168.3 74.4 168.5 78.9C168.5 79.3 168.599 79.6 168.599 80C168.699 81.7 168.9 83.4 167.9 84.3C167.5 84.7 167 84.8 166.4 84.8C166 86.8 165.599 89.8 165.299 92.4C165.199 93.4 165 94.4 164.9 95.3C164 101.9 160.799 104 160.599 104.1L160.299 104.3ZM147.799 85.5L160.5 102.2C161.3 101.4 162.999 99.2 163.599 95C163.699 94.1 163.8 93.2 164 92.2C164.4 89.2 164.799 85.7 165.299 83.8L165.5 83.1L166.2 83.2C166.5 83.3 167 83.3 167.2 83.1C167.6 82.7 167.5 81.2 167.4 80C167.4 79.6 167.299 79.2 167.299 78.9C167.099 74.5 163.899 73.6 163.799 73.6L163.299 73.5L163.2 73C163 70.6 159.2 69.8 159.2 69.7L158.5 69.5L158.599 68.8C159.099 66.3 159.8 64.5 160.2 63.1C160.8 61.4 161.1 60.6 160.7 59.9C160.4 59.4 160.2 59.1 159.9 59.1C159.6 59.1 158.099 59.4 155.299 65.3C154.999 66 154.7 66.7 154.4 67.4L154.099 68.2L153.299 67.7C153.099 67.6 152.6 67.2 151.5 68.5C148.8 71.9 147.399 75.4 148.599 83.5V83.7L148.5 83.9C148.3 84.6 148.099 85.1 147.799 85.5Z" fill="#030047"/>
<path d="M147.299 84.9C142 95.5 138.599 99.4 132.299 101.2C122.799 104 100.1 91.5 85.8995 93.8L82.4995 122.9C82.4995 122.9 103.1 136.3 126.9 134.4C147.5 132.7 161.2 111.6 163.7 101.2C161.2 94.3 152.999 88.7 147.299 84.9Z" fill="#FF3E6C"/>
<path d="M122.2 135.4C100.5 135.4 82.2997 123.7 82.0997 123.6L81.6997 123.3L85.1997 93.2L85.7997 93.1C93.2997 91.8 102.9 94.6 112.1 97.2C120.1 99.5 127.7 101.7 132.1 100.4C138.1 98.7 141.4 95.1 146.7 84.5L147.1 83.7L147.8 84.2C153.4 88 161.9 93.7 164.5 100.9L164.6 101.1L164.5 101.3C161.9 111.9 147.9 133.4 127.1 135.1C125.3 135.3 123.7 135.4 122.2 135.4ZM83.2997 122.5C86.1997 124.3 105.3 135.4 126.8 133.6C146.8 132 160.3 111.5 162.9 101.2C160.5 94.8 153 89.6 147.6 85.9C142.4 96.3 138.8 100 132.5 101.8C127.7 103.2 119.9 100.9 111.6 98.6C103.2 96.2 93.6997 93.4 86.4997 94.4L83.2997 122.5Z" fill="#FF3E6C"/>
<path d="M104.7 132.5C104.6 132.5 104.5 132.5 104.4 132.4C104.4 132.4 100.9 130.9 97.4997 130.9C97.0997 130.9 96.7997 130.6 96.6997 130.2C96.6997 129.8 96.9997 129.4 97.4997 129.4C101.2 129.4 104.8 130.9 105 131C105.4 131.2 105.6 131.6 105.4 132C105.3 132.3 105 132.5 104.7 132.5Z" fill="#030047"/>
<path d="M158.5 69.8L157.8 71.8C157.6 72.4 158.5 72.7 158.8 72.1C159 71.4 159.3 70.8 159.5 70.1C159.7 69.4 158.7 69.2 158.5 69.8Z" fill="#030047"/>
<path d="M167.1 79.1C167 78.5 166 78.7001 166.1 79.4001C166.2 80.2001 166.1 81 165.8 81.8C165.6 82.4 166.5 82.7 166.8 82.1C167.2 81 167.3 80.1 167.1 79.1Z" fill="#030047"/>
<path d="M153 68.6C151.8 70.9 151 73.3 150.6 75.9C150.5 76.5 151.5 76.8 151.6 76.2C152 73.7 152.7 71.4 153.9 69.1C154.1 68.5 153.3 68 153 68.6Z" fill="#030047"/>
<path d="M163.3 73.4001C163.1 73.8001 163 74.3 162.8 74.7C162.6 75.3 163.5 75.6 163.8 75C164 74.6 164.1 74.1 164.3 73.7C164.5 73.1 163.5 72.8001 163.3 73.4001Z" fill="#030047"/>
<path d="M211.3 131.5H145V173.4H211.3V131.5Z" fill="white"/>
<path d="M212.1 174.1H144.3V130.7H212.1V174.1ZM145.8 172.6H210.6V132.2H145.8V172.6Z" fill="#030047"/>
<path d="M174.1 0.899994H157.5V17.5H174.1V0.899994Z" fill="white"/>
<path d="M174.9 18.3H156.8V0.200012H174.9V18.3ZM158.3 16.8H173.4V1.70001H158.3V16.8Z" fill="#030047"/>
<path d="M233.6 0.899994H206.2V28.3H233.6V0.899994Z" fill="white"/>
<path d="M234.3 29.1H205.4V0.200012H234.3V29.1ZM206.9 27.6H232.8V1.70001H206.9V27.6Z" fill="#030047"/>
<path d="M233.6 56.6H189.2V101H233.6V56.6Z" fill="white"/>
<path d="M234.3 101.8H188.4V55.9H234.3V101.8ZM189.9 100.3H232.8V57.4H189.9V100.3Z" fill="#030047"/>
<path d="M148.901 0.899994H116.5V20.9H148.901V0.899994Z" fill="white"/>
<path d="M149.7 21.7H115.8V0.200012H149.7V21.7ZM117.3 20.2H148.2V1.70001H117.3V20.2Z" fill="#030047"/>
<path d="M142 11.7H123.1C122.7 11.7 122.3 11.4 122.3 10.9C122.3 10.4 122.6 10.1 123.1 10.1H142C142.4 10.1 142.8 10.4 142.8 10.9C142.8 11.4 142.4 11.7 142 11.7Z" fill="#030047"/>
<path d="M184.301 13.6C185.737 13.6 186.901 12.4359 186.901 11C186.901 9.56406 185.737 8.40002 184.301 8.40002C182.865 8.40002 181.701 9.56406 181.701 11C181.701 12.4359 182.865 13.6 184.301 13.6Z" fill="white"/>
<path d="M184.3 14.3C182.5 14.3 181 12.8 181 11C181 9.2 182.5 7.70001 184.3 7.70001C186.1 7.70001 187.6 9.2 187.6 11C187.6 12.8 186.1 14.3 184.3 14.3ZM184.3 9.20001C183.3 9.20001 182.5 10 182.5 11C182.5 12 183.3 12.8 184.3 12.8C185.3 12.8 186.1 12 186.1 11C186.1 10 185.3 9.20001 184.3 9.20001Z" fill="#030047"/>
<path d="M184.301 23.6C185.737 23.6 186.901 22.4359 186.901 21C186.901 19.5641 185.737 18.4 184.301 18.4C182.865 18.4 181.701 19.5641 181.701 21C181.701 22.4359 182.865 23.6 184.301 23.6Z" fill="white"/>
<path d="M184.3 24.3C182.5 24.3 181 22.8 181 21C181 19.2 182.5 17.7 184.3 17.7C186.1 17.7 187.6 19.2 187.6 21C187.6 22.8 186.1 24.3 184.3 24.3ZM184.3 19.2C183.3 19.2 182.5 20 182.5 21C182.5 22 183.3 22.8 184.3 22.8C185.3 22.8 186.1 22 186.1 21C186.1 20 185.3 19.2 184.3 19.2Z" fill="#030047"/>
<path d="M193 142.6H161.2C160.8 142.6 160.4 142.3 160.4 141.8C160.4 141.3 160.7 141 161.2 141H193C193.4 141 193.8 141.3 193.8 141.8C193.8 142.3 193.4 142.6 193 142.6Z" fill="#030047"/>
<path d="M193 151.3H173.5C173.1 151.3 172.7 151 172.7 150.5C172.7 150 173 149.7 173.5 149.7H193C193.4 149.7 193.8 150 193.8 150.5C193.8 151 193.4 151.3 193 151.3Z" fill="#030047"/>
<path d="M168.6 151.3H161.2C160.8 151.3 160.4 151 160.4 150.5C160.4 150 160.7 149.7 161.2 149.7H168.6C169 149.7 169.4 150 169.4 150.5C169.4 151 169 151.3 168.6 151.3Z" fill="#030047"/>
<path d="M204.7 68.6V90.4L222.4 79.5L204.7 68.6Z" fill="white"/>
<path d="M203.9 91.7V67.3L223.9 79.5L203.9 91.7ZM205.4 70V89L221 79.5L205.4 70Z" fill="#030047"/>
</svg>
