<?xml version="1.0" encoding="iso-8859-1"?>
<!-- Generator: Adobe Illustrator 19.0.0, SVG Export Plug-In . SVG Version: 6.00 Build 0)  -->
<svg version="1.1" id="Capa_1" xmlns="http://www.w3.org/2000/svg" xmlns:xlink="http://www.w3.org/1999/xlink" x="0px" y="0px"
	 viewBox="0 0 512 512" style="enable-background:new 0 0 512 512;" xml:space="preserve">
<g>
	
		<rect x="15.409" y="74.44" transform="matrix(-0.7071 -0.7071 0.7071 -0.7071 135.2672 325.7506)" style="fill:#FFAE47;" width="239.38" height="120.84"/>
	
		<rect x="316.71" y="257.364" transform="matrix(-0.7071 0.7071 -0.7071 -0.7071 910.3085 376.7357)" style="fill:#FFAE47;" width="120.84" height="239.07"/>
</g>
<path style="fill:#546F7A;" d="M47.522,391.708l-32.629,32.628c-9.711,9.711-9.711,25.455,0,35.166l37.712,37.712
	c9.711,9.711,25.455,9.711,35.165,0l32.629-32.628L47.522,391.708z"/>
<rect x="52.147" y="380.548" transform="matrix(-0.7071 -0.7071 0.7071 -0.7071 -111.8127 770.541)" style="fill:#FF6137;" width="103.062" height="55.759"/>
<polygon style="fill:#FFC89F;" points="503.295,8.812 390.772,48.533 463.574,121.335 "/>
<rect x="60.485" y="185.336" transform="matrix(-0.7071 0.7071 -0.7071 -0.7071 637.3496 209.7339)" style="fill:#FFD039;" width="429.505" height="103.062"/>
<g>
	
		<rect x="198.387" y="150.235" transform="matrix(0.7071 0.7071 -0.7071 0.7071 210.7247 -87.4244)" style="fill:#FF9017;" width="25.013" height="120.84"/>
	
		<rect x="290.026" y="241.868" transform="matrix(0.7071 0.7071 -0.7071 0.7071 302.3596 -125.3847)" style="fill:#FF9017;" width="25.013" height="120.84"/>
</g>
<path style="fill:#475D63;" d="M102.712,446.899l-32.629,32.628c-9.711,9.711-25.455,9.711-35.166,0l17.687,17.687
	c9.711,9.711,25.455,9.711,35.165,0l32.629-32.628L102.712,446.899z"/>
<rect x="103.389" y="423.52" transform="matrix(0.7071 -0.7071 0.7071 0.7071 -269.8696 220.5299)" style="fill:#E04F32;" width="55.759" height="25.013"/>
<polygon style="fill:#F7B081;" points="445.887,103.648 463.574,121.335 503.295,8.812 475.958,18.462 "/>
<polygon style="fill:#FFAE47;" points="445.846,103.765 142.141,407.471 159.828,425.157 463.533,121.452 390.656,48.574 
	390.656,48.574 "/>
<polygon style="fill:#3C5156;" points="503.295,8.812 450.783,27.349 484.758,61.323 "/>
<path d="M509.692,413.393L345.947,249.648l122.892-122.892c0.823-0.824,1.408-1.794,1.768-2.825c0.013-0.034,0.03-0.065,0.042-0.099
	l21.181-60.002c0.001-0.003,0.003-0.006,0.004-0.009l18.535-52.511c0.962-2.725,0.273-5.76-1.77-7.804
	c-2.044-2.044-5.08-2.732-7.804-1.77l-52.511,18.536c0,0-0.002,0.001-0.003,0.001l-60.009,21.183
	c-0.035,0.013-0.067,0.031-0.103,0.044c-1.03,0.36-1.999,0.944-2.822,1.767l-66.564,66.564c-2.93,2.93-2.93,7.682,0,10.611
	c2.931,2.929,7.682,2.93,10.612,0l61.258-61.258l62.265,62.265L291.608,282.762l-47.029,47.029
	c-0.001,0.001-0.002,0.003-0.003,0.004l-84.749,84.75L97.563,352.28l84.748-84.748c0.002-0.002,0.003-0.003,0.005-0.005
	l42.724-42.725l83.103-83.103c2.93-2.93,2.93-7.682,0-10.612c-2.932-2.931-7.683-2.929-10.613,0l-35.072,35.073l-22.432-22.432
	c-0.002-0.002-0.003-0.003-0.005-0.005s-0.003-0.003-0.005-0.005l-32.027-32.027c-0.002-0.002-0.003-0.004-0.005-0.005
	c-0.002-0.002-0.003-0.003-0.005-0.005l-32.022-32.022c-0.003-0.003-0.006-0.007-0.009-0.01s-0.007-0.006-0.01-0.009L98.496,2.198
	C97.089,0.79,95.18,0,93.19,0c-1.99,0-3.898,0.79-5.307,2.198L2.435,87.647c-2.93,2.93-2.93,7.682,0,10.611l32.812,32.812
	c2.93,2.93,7.681,2.931,10.613,0c2.93-2.93,2.93-7.682,0-10.611L18.353,92.952L93.19,18.116l34.801,34.801L107.049,73.86
	c-2.93,2.93-2.93,7.682,0,10.611c1.466,1.465,3.387,2.198,5.307,2.198c1.92,0,3.841-0.732,5.307-2.198l20.942-20.942l21.425,21.425
	l-31.553,31.553c-2.93,2.93-2.93,7.682,0,10.611c1.466,1.466,3.386,2.198,5.307,2.198c1.92,0,3.841-0.732,5.307-2.198l31.553-31.552
	l21.425,21.425l-20.943,20.942c-2.931,2.93-2.931,7.681-0.001,10.611c1.466,1.466,3.386,2.198,5.307,2.198
	c1.92,0,3.841-0.732,5.306-2.198l20.943-20.942l21.425,21.425l-31.553,31.553c-2.93,2.93-2.93,7.682,0,10.611
	c1.466,1.465,3.387,2.198,5.307,2.198s3.841-0.732,5.307-2.198l31.552-31.552l17.132,17.132l-9.579,9.579l-65.258,65.258
	L67.2,141.798c-2.931-2.93-7.682-2.93-10.612,0c-2.93,2.93-2.93,7.682,0,10.611l109.81,109.81L81.65,346.968
	c-0.002,0.002-0.003,0.003-0.005,0.005l-39.428,39.428L9.59,419.03c-6.114,6.113-9.482,14.242-9.482,22.889
	s3.367,16.776,9.481,22.889L47.3,502.518C53.414,508.632,61.543,512,70.19,512s16.776-3.368,22.889-9.482l32.629-32.628
	c0.003-0.003,0.006-0.007,0.009-0.01l39.418-39.417l84.753-84.753l41.846,41.846c2.931,2.93,7.682,2.93,10.612,0
	s2.93-7.682,0-10.611l-41.847-41.846l41.188-41.189l33.648-33.648l16.914,16.914l-20.942,20.943c-2.93,2.93-2.93,7.682,0,10.612
	c1.466,1.465,3.387,2.198,5.307,2.198c1.92,0,3.841-0.732,5.307-2.198l20.942-20.942l21.425,21.425l-31.553,31.553
	c-2.93,2.93-2.93,7.682,0,10.612c1.466,1.465,3.387,2.198,5.307,2.198c1.92,0,3.841-0.732,5.307-2.198l31.553-31.553l21.425,21.425
	l-20.943,20.943c-2.93,2.93-2.93,7.682,0,10.611c1.466,1.465,3.387,2.198,5.307,2.198c1.92,0,3.841-0.732,5.307-2.198l20.942-20.942
	l21.425,21.425l-31.553,31.553c-2.93,2.93-2.93,7.682,0,10.612c1.466,1.465,3.387,2.198,5.307,2.198c1.92,0,3.841-0.733,5.307-2.198
	l31.553-31.553l34.801,34.802l-74.837,74.837l-94.767-94.767c-2.931-2.93-7.682-2.93-10.612,0c-2.93,2.93-2.93,7.682,0,10.611
	l100.073,100.074c1.466,1.465,3.387,2.198,5.307,2.198c1.92,0,3.841-0.732,5.307-2.198l85.449-85.449
	c1.407-1.407,2.197-3.316,2.197-5.306C511.889,416.708,511.099,414.799,509.692,413.393z M490.995,21.112l-9.35,26.486
	l-17.137-17.137L490.995,21.112z M404.497,51.646l44.325-15.647l27.287,27.286l-15.647,44.325L404.497,51.646z M82.464,491.907
	c-3.279,3.28-7.639,5.086-12.276,5.086c-4.638,0-8.998-1.806-12.276-5.086l-37.712-37.711c-3.279-3.28-5.085-7.639-5.085-12.277
	c0-4.637,1.806-8.998,5.086-12.276l27.321-27.322l62.266,62.266L82.464,491.907z M120.399,453.972l-62.266-62.265l28.816-28.816
	l62.266,62.266L120.399,453.972z"/>
<g>
</g>
<g>
</g>
<g>
</g>
<g>
</g>
<g>
</g>
<g>
</g>
<g>
</g>
<g>
</g>
<g>
</g>
<g>
</g>
<g>
</g>
<g>
</g>
<g>
</g>
<g>
</g>
<g>
</g>
</svg>
