<svg width="214" height="228" viewBox="0 0 214 228" fill="none" xmlns="http://www.w3.org/2000/svg">
<path d="M129.7 88.6001L133 124.8L172.3 122.2L175 84.7001L129.7 88.6001Z" fill="#8FACFF"/>
<path d="M147.2 116.2C146.8 116.2 146.5 115.9 146.5 115.5L145.2 105.3L140.6 103.8C140.2 103.7 140 103.2 140.1 102.9C140.2 102.6 140.7 102.3 141 102.4L146.4 104.2L147.8 115.3C148 115.7 147.7 116.1 147.2 116.2C147.3 116.2 147.2 116.2 147.2 116.2Z" fill="#030047"/>
<path d="M128.1 26.1C134.5 24.1 153.2 19.2 169.1 45.8C185.1 72.4 175 95.3 175 95.3L127.1 92.9C127.1 92.9 125.6 65.9 121.3 48.6C120.3 44.9 117.9 29.3 128.1 26.1Z" fill="#5F5FFF"/>
<path d="M91.7999 87.9C97.6999 91.4 100.8 100.2 100.8 100.2L95.5999 101.5C95.5999 101.5 91.6999 96.7 88.5999 96.7C85.4999 96.7 91.7999 87.9 91.7999 87.9Z" fill="#FF3E6C"/>
<path d="M127.5 129H52.1002L49.7002 125L68.3002 113.6L104.6 91.5L118.1 113.6L127.5 129Z" fill="#8FACFF"/>
<path d="M73.4002 121C73.1002 121 72.9002 120.9 72.8002 120.6C72.6002 120.2 72.7002 119.8 73.1002 119.6L100.1 103.1C100.5 102.9 100.9 103 101.1 103.3C101.3 103.6 101.2 104.1 100.8 104.3L73.8002 120.8C73.7002 121 73.6002 121 73.4002 121Z" fill="#030047"/>
<path d="M78.3001 129C78.0001 129 77.8001 128.9 77.7001 128.6C77.5001 128.2 77.6001 127.8 78.0001 127.6L105 111.1C105.4 110.9 105.8 111 106 111.3C106.2 111.7 106.1 112.1 105.7 112.3L78.7001 128.8C78.6001 129 78.4001 129 78.3001 129Z" fill="#030047"/>
<path d="M75.2002 80C71.5002 88.9 72.7002 97.6 74.4002 105.5C77.4002 119.2 82.0002 115.1 82.0002 115.1C82.0002 115.1 84.6002 116.9 87.2002 113.8C87.2002 113.8 91.0002 116.2 92.3002 112.7C93.6002 109.2 88.0002 103.9 89.9002 100.4C91.8002 96.9 95.3002 95.3 94.0002 90.9C93.4002 89 91.4002 85.9 94.1002 81.7C87.8002 81 81.5002 80.3 75.2002 80Z" fill="#FF3E6C"/>
<path d="M82.5003 101.9C81.7003 105.6 83.9003 108.7 86.0003 111.5C86.4003 112 87.2003 111.5 86.8003 111C84.8003 108.5 82.7003 105.6 83.4003 102.1C83.6003 101.5 82.6003 101.3 82.5003 101.9Z" fill="#030047"/>
<path d="M77.3 105C77.7 108.3 78.3 111.7 81.3 113.6C81.8 113.9 82.3 113 81.8 112.7C79.1 111.1 78.7 107.8 78.3 105C78.2 104.3 77.2 104.3 77.3 105Z" fill="#030047"/>
<path d="M72.9002 89.8C72.8002 71.3 78.7002 45.1 97.2002 32.9C121.2 17 138.3 24.5 138.3 24.5V46.5C138.3 46.5 117.4 37.8 104.7 58.3C95.0002 73.9 98.3001 84.8 98.3001 84.8L72.9002 89.8Z" fill="#5F5FFF"/>
<path d="M121.1 45.6001C120.7 45.6001 120.4 45.3 120.4 44.9L119.7 39.1001C119.6 38.7001 119.9 38.3 120.4 38.3C120.8 38.3 121.2 38.5 121.2 39L121.9 44.8C121.9 45.2 121.6 45.6001 121.1 45.6001Z" fill="white"/>
<path d="M33.8 50.6001L9.30005 65.8001L39.9001 128.9L64.4001 113.8L33.8 50.6001Z" fill="#FFCC3E"/>
<path d="M106.7 82.9001C106.3 82.9001 106 82.6001 105.9 82.2001L105.8 75.0001C105.8 74.6001 106.1 74.2001 106.5 74.2001C106.9 74.2001 107.3 74.5001 107.3 74.9001L107.4 82.1001C107.5 82.5001 107.1 82.9001 106.7 82.9001Z" fill="#E4E4EF"/>
<path d="M111.1 85.9001C111 85.9001 110.9 85.9001 110.8 85.8001C110.4 85.6001 110.3 85.2001 110.4 84.8001L112.9 79.4001C113.1 79.0001 113.5 78.9001 113.9 79.0001C114.3 79.1001 114.4 79.6001 114.3 80.0001L111.8 85.4001C111.7 85.7001 111.4 85.9001 111.1 85.9001Z" fill="#E4E4EF"/>
<path d="M57.7 84.7C55.5 84.7 52.8999 83.9 50.5999 81.2C49.9999 80.4 49.4 79.6 48.8 78.8C46.5 75.4 44.7999 73 39.0999 75.7C38.6999 75.9 38.2999 75.7 38.0999 75.3C37.8999 74.9 38.1 74.5 38.5 74.3C45.3 71.1 47.7 74.5 50 77.9C50.5 78.7 51.1 79.5 51.7 80.2C55.9 85.2 61.2 82.4 61.4 82.3C61.8 82.1 62.2 82.2001 62.4 82.6C62.6 83 62.4999 83.4001 62.0999 83.6C62.1999 83.6 60.2 84.7 57.7 84.7Z" fill="#E4E4EF"/>
<path d="M56.4002 89.8C54.2002 89.8 51.6001 89 49.3001 86.3C48.7001 85.5 48.1001 84.7 47.5001 83.9C45.2001 80.5 43.5001 78.1 37.8001 80.8C37.4001 81 37.0001 80.8 36.8001 80.4C36.6001 80 36.8002 79.6 37.2002 79.4C44.0002 76.2 46.4002 79.6 48.7002 83C49.2002 83.8 49.8002 84.6 50.4002 85.3C54.6002 90.3 59.9001 87.5 60.1001 87.4C60.5001 87.2 60.9001 87.3 61.1001 87.7C61.3001 88.1 61.2001 88.5 60.8001 88.7C60.8001 88.7 58.9002 89.8 56.4002 89.8Z" fill="#E4E4EF"/>
<path d="M46.6003 44.9L44.3003 55.2L54.0003 51.6L46.6003 44.9Z" fill="#E4E4EF"/>
<path d="M12.4864 87.9743L6.61743 82.1053L0.7485 87.9743L6.61742 93.8432L12.4864 87.9743Z" fill="#E4E4EF"/>
<path d="M108.9 123.8C108.7 123.8 108.6 123.7 108.4 123.6L105.2 120.8C104.9 120.5 104.8 120.1 105.1 119.7C105.4 119.4 105.8 119.3 106.2 119.6L109.4 122.4C109.7 122.7 109.8 123.1 109.5 123.5C109.3 123.7 109.1 123.8 108.9 123.8Z" fill="#E4E4EF"/>
<path d="M61.8001 67.3C61.7001 67.3 61.6001 67.3 61.5001 67.2C61.1001 67 61.0001 66.6 61.2001 66.2L64.5001 59.5C64.7001 59.1 65.1001 59 65.5001 59.2C65.9001 59.4 66.0001 59.8 65.8001 60.2L62.5001 66.9C62.3001 67.2 62.1001 67.3 61.8001 67.3Z" fill="#E4E4EF"/>
<path d="M133 80.8C132.8 80.8 132.6 80.7 132.5 80.6C132.2 80.3 132.2 79.8 132.5 79.5L138.8 73.2C139.1 72.9 139.6 72.9 139.9 73.2C140.2 73.5 140.2 74 139.9 74.3L133.6 80.6C133.4 80.7 133.2 80.8 133 80.8Z" fill="#E4E4EF"/>
<path d="M121.1 98.6001C120.7 98.6001 120.4 98.3 120.4 97.9L120 94.1001C120 93.7001 120.3 93.3 120.7 93.3C121.1 93.3 121.5 93.6 121.5 94L121.9 97.8C121.9 98.2 121.5 98.6001 121.1 98.6001Z" fill="#E4E4EF"/>
<path d="M143.3 88.6001L148.2 84.7001L149.2 91.5001L143.3 88.6001Z" fill="#F2F2F9"/>
<path d="M161.7 128.9H39.9004V227.8H161.7V128.9Z" fill="#FFCC3E"/>
<path d="M185.9 212.5L161.7 227.9V128.9L185.9 113.6V212.5Z" fill="#FFCC3E"/>
<path d="M110.9 189.8H39.9004V227.8H110.9V189.8Z" fill="#E4E4EF"/>
<path d="M88.9004 226.9C88.7004 226.9 88.6003 226.9 88.5004 226.8L41.0003 192.1C40.7003 191.9 40.6003 191.4 40.8003 191.1C41.0003 190.8 41.5003 190.7 41.8003 190.9L89.3003 225.6C89.6003 225.8 89.7004 226.3 89.5004 226.6C89.3004 226.8 89.1004 226.9 88.9004 226.9Z" fill="white"/>
<path d="M61.8002 226.9C61.6002 226.9 61.3002 226.8 61.2002 226.6C61.0002 226.3 61.0002 225.8 61.4002 225.6L108.5 190.9C108.8 190.7 109.3 190.7 109.5 191.1C109.7 191.4 109.7 191.9 109.3 192.1L62.2002 226.8C62.1002 226.9 61.9002 226.9 61.8002 226.9Z" fill="white"/>
<path d="M161.7 223.1C161.3 223.1 160.9 222.8 160.9 222.3V135.8C160.9 135.4 161.2 135 161.7 135C162.2 135 162.5 135.3 162.5 135.8V222.3C162.5 222.8 162.1 223.1 161.7 223.1Z" fill="white"/>
<path d="M77.1003 128.9V129.1C77.1003 155 60.6004 167.4 39.9004 168.1V129H77.1003V128.9Z" fill="#E4E4EF"/>
<path d="M66.9003 162.9L58.3003 169.8L68.9003 174.4L66.9003 162.9Z" fill="#F2F2F9"/>
<path d="M147.201 150.8H87.5005V156.8H147.201V150.8Z" fill="#5F5FFF"/>
<path d="M123.4 168.1H113C111.8 168.1 110.9 167.1 110.9 166C110.9 164.8 111.9 163.9 113 163.9H123.4C124.6 163.9 125.5 164.9 125.5 166C125.6 167.1 124.6 168.1 123.4 168.1Z" fill="#030047"/>
<path d="M134.8 168.1H131.3C130.1 168.1 129.2 167.1 129.2 166C129.2 164.8 130.2 163.9 131.3 163.9H134.8C136 163.9 136.9 164.9 136.9 166C136.9 167.1 136 168.1 134.8 168.1Z" fill="#030047"/>
<path d="M145.1 168.1H141.6C140.4 168.1 139.5 167.1 139.5 166C139.5 164.8 140.5 163.9 141.6 163.9H145.1C146.3 163.9 147.201 164.9 147.201 166C147.201 167.1 146.2 168.1 145.1 168.1Z" fill="#030047"/>
<path d="M195.1 143.4H191.2V185.9H195.1V143.4Z" fill="#E4E4EF"/>
<path d="M68.3004 113.6L49.7004 125L52.1003 129H39.9004L64.0004 113.6H68.3004Z" fill="#030047"/>
<path d="M185.801 113.6L172.301 122.2L161.801 129H127.501L118.101 113.6H185.801Z" fill="#030047"/>
<path d="M172.3 122.2L161.7 128.9H124C135 121 151 119.6 167.4 121.2C169.6 121.5 171.2 121.8 172.3 122.2Z" fill="#F2F2F9"/>
<path d="M33.9 103.9H33.8L21.7 101.7C21.3 101.6 20.9999 101.2 21.0999 100.8C21.1999 100.4 21.6 100.1 22 100.2L34.0999 102.4C34.4999 102.5 34.8 102.9 34.7 103.3C34.6 103.6 34.2 103.9 33.9 103.9Z" fill="#E4E4EF"/>
<path d="M26.7001 108.8H26.6001C26.2001 108.7 25.9001 108.3 26.0001 107.9L28.2001 95.8001C28.3001 95.4001 28.7001 95.1 29.1001 95.2C29.5001 95.3 29.8001 95.7001 29.7001 96.1001L27.5001 108.2C27.4001 108.5 27.1001 108.8 26.7001 108.8Z" fill="#E4E4EF"/>
<path d="M121.1 120.6C125.795 120.6 129.6 116.795 129.6 112.1C129.6 107.406 125.795 103.6 121.1 103.6C116.406 103.6 112.6 107.406 112.6 112.1C112.6 116.795 116.406 120.6 121.1 120.6Z" fill="#E4E4EF"/>
<path d="M53.9003 95.4L52.3003 113.6L67.3003 106.8L53.9003 95.4Z" fill="#E4E4EF"/>
<path d="M195.1 75L171 90.3L161.7 129.1L185.9 113.8L195.1 75Z" fill="#FFCC3E"/>
<path d="M164.4 128C164.2 128 163.9 127.9 163.8 127.7C163.6 127.4 163.7 126.9 164 126.7L182.6 114.9C182.9 114.7 183.4 114.8 183.6 115.1C183.8 115.4 183.7 115.9 183.4 116.1L164.8 127.9C164.7 127.9 164.6 128 164.4 128Z" fill="white"/>
<path d="M139.9 23.4999C168.7 22.2999 195.5 30.4999 204.8 42.0999C215 54.7999 209.8 79.7999 197.3 86.2999C194.2 87.8999 190.7 88.2999 188.8 89.1999C183 91.8999 181.7 91.5999 179.8 90.0999C179.8 90.0999 175 93.0999 173.6 89.3999C173.6 89.3999 171.8 94.0999 168.4 92.8999C165.1 91.6999 169.1 82.3999 178.2 77.5999C187.4 72.7999 192 60.7999 186.9 53.5999C181.7 46.3999 150.2 37.5999 150.2 37.5999L139.9 23.4999Z" fill="#FF3E6C"/>
<path d="M187 53.6C189.8 57.4 189.701 62.7 187.701 67.4C194.201 69.8 204 72.1 210.3 75C215.2 64.7 215.3 49.6 207.6 41.5C192.6 26 168.8 22.2 140 23.4L153.6 46.9C153.5 46.9 181.8 46.5 187 53.6Z" fill="#5F5FFF"/>
<path d="M180.1 81C177.5 82.8 175.4 85.1 174 87.9C173.7 88.5 174.6 89 174.9 88.4C176.3 85.7 178.2 83.5 180.7 81.9C181.2 81.5 180.7 80.6 180.1 81Z" fill="#030047"/>
<path d="M185.1 82.7C183 84.2 181.401 86.1 180.201 88.4C179.901 89 180.8 89.5 181.1 88.9C182.2 86.8 183.7 85 185.6 83.6C186.2 83.2 185.7 82.4 185.1 82.7Z" fill="#030047"/>
<path d="M167.5 48.5C167.4 48.5 167.4 48.5 167.3 48.5L163.2 47.2C162.8 47.1 162.6 46.7 162.7 46.3C162.8 45.9 163.2 45.7 163.6 45.8L167.7 47.1C168.1 47.2 168.3 47.6 168.2 48C168.1 48.3 167.8 48.5 167.5 48.5Z" fill="#030047"/>
<path d="M29.5001 175.1C29.3001 175.1 29.1001 175 29.0001 174.9L13.0001 159C12.7001 158.7 12.7001 158.2 13.0001 157.9C13.3001 157.6 13.8001 157.6 14.1001 157.9L30.0001 173.8C30.3001 174.1 30.3001 174.6 30.0001 174.9C29.8001 175.1 29.6001 175.1 29.5001 175.1Z" fill="#FF3E6C"/>
<path d="M13.6 175.1C13.4 175.1 13.2 175 13.1 174.9C12.8 174.6 12.8 174.1 13.1 173.8L29 157.9C29.3 157.6 29.8 157.6 30.1 157.9C30.4 158.2 30.4 158.7 30.1 159L14.2 174.9C13.9 175.1 13.8 175.1 13.6 175.1Z" fill="#FF3E6C"/>
<path d="M29.5001 188.8H13.6C13.2 188.8 12.8 188.5 12.8 188C12.8 187.5 13.1 187.2 13.6 187.2H29.5001C29.9001 187.2 30.3 187.5 30.3 188C30.3 188.5 29.9001 188.8 29.5001 188.8Z" fill="#FF3E6C"/>
<path d="M140.3 24.2001C145.6 25.1001 148.7 22.4001 149.1 18.7001C149.5 15.3001 146.6 11.3001 142.5 12.6001C141.1 13.1001 139.7 14.0001 138.2 15.5001C138.2 15.5001 137.6 17.0001 137.3 18.7001C137.1 20.9001 137.3 23.6001 140.3 24.2001Z" fill="#FF3E6C"/>
<path d="M140.2 29.5C132.4 36 124.7 32.6 121.3 25C119.8 21.6 118.4 17.9 118.9 14.2C119.3 10.8 120.9 7.69998 123.7 5.69998C129.6 1.59998 138.1 3.59998 142.6 10.2C142.6 10.2 142.6 10.2 142.6 10.3C147.1 16.8 145.5 25.1 140.2 29.5Z" fill="#FF3E6C"/>
<path d="M130.528 19.6544C130.826 19.1891 130.69 18.5707 130.224 18.2733C129.759 17.9759 129.141 18.1121 128.843 18.5774C128.546 19.0428 128.682 19.6611 129.147 19.9585C129.613 20.2559 130.231 20.1198 130.528 19.6544Z" fill="#030047"/>
<path d="M126.2 26.7C125.2 24.7 124.5 22.6 124 20.4C123.9 19.8 124.9 19.6 125 20.2C125.4 22.3 126.1 24.3001 127.1 26.3001C127.3 26.9001 126.5 27.3 126.2 26.7Z" fill="#030047"/>
<path d="M140.8 19.6001C141 17.3001 142.8 15.3001 145.2 15.0001C145.8 14.9001 146.1 15.9001 145.4 16.0001C143.5 16.2001 142 17.7001 141.8 19.6001C141.8 20.2001 140.8 20.2001 140.8 19.6001Z" fill="#030047"/>
<path d="M139.1 14.7C138.4 17.2 136 14.1 129.8 12.9C127.1 12.4 115.6 16.4 113.8 12.5C111.1 6.80003 118.7 3.50004 123.6 5.60004C123.1 3.50004 125.5 0.400033 128.7 2.00003C137.3 -2.29997 145 2.60003 144 12.2C144 12.3 139.9 13.9 139.1 14.7Z" fill="#030047"/>
</svg>
