<svg width="247" height="305" viewBox="0 0 247 305" fill="none" xmlns="http://www.w3.org/2000/svg">
<path d="M213.016 129.623L191.9 120.256L182.533 141.372L203.649 150.739L213.016 129.623Z" fill="#E4E4EF"/>
<path d="M188.5 96.4L210.2 115.1C210.2 115.1 218.6 101.4 210.2 93.7C199.7 84.1 188.5 96.4 188.5 96.4Z" fill="#F2F2F9"/>
<path d="M201.2 117.8C204.569 117.8 207.3 115.069 207.3 111.7C207.3 108.331 204.569 105.6 201.2 105.6C197.831 105.6 195.1 108.331 195.1 111.7C195.1 115.069 197.831 117.8 201.2 117.8Z" fill="#E4E4EF"/>
<path d="M217.6 156.4C217.4 156.4 217.1 156.3 217 156.1L213.6 151.5C213.4 151.2 213.4 150.7 213.8 150.5C214.1 150.3 214.6 150.3 214.8 150.7L218.2 155.3C218.4 155.6 218.4 156.1 218 156.3C217.9 156.4 217.7 156.4 217.6 156.4Z" fill="#E4E4EF"/>
<path d="M146.8 139.9C146.6 139.9 146.4 139.8 146.2 139.7C145.9 139.4 145.9 138.9 146.3 138.6L154.1 131.6C154.4 131.3 154.9 131.3 155.2 131.7C155.5 132.1 155.5 132.5 155.1 132.8L147.3 139.8C147.1 139.8 147 139.9 146.8 139.9Z" fill="#E4E4EF"/>
<path d="M176.8 125.5C176.6 125.5 176.4 125.4 176.2 125.2L173.4 121.8C173.1 121.5 173.2 121 173.5 120.7C173.8 120.4 174.3 120.5 174.6 120.8L177.4 124.2C177.7 124.5 177.6 125 177.3 125.3C177.1 125.4 177 125.5 176.8 125.5Z" fill="#E4E4EF"/>
<path d="M214.2 59.9C214 59.9 213.9 59.8 213.7 59.7C213.4 59.4 213.3 59 213.6 58.6L217 54.5C217.3 54.2 217.7 54.1 218.1 54.4C218.4 54.7 218.5 55.1 218.2 55.5L214.8 59.6C214.6 59.8 214.4 59.9 214.2 59.9Z" fill="#E4E4EF"/>
<path d="M245.8 97.2C245.6 97.2 245.4 97.1 245.2 96.9L238.2 88.5C237.9 88.2 238 87.7 238.3 87.4C238.6 87.1 239.1 87.2 239.4 87.5L246.4 95.9C246.7 96.2 246.6 96.7 246.3 97C246.1 97.1 246 97.2 245.8 97.2Z" fill="#E4E4EF"/>
<path d="M161 25.4C160.9 25.4 160.9 25.4 160.8 25.4L154.4 23.9C154 23.8 153.7 23.4 153.8 23C153.9 22.6 154.3 22.3 154.7 22.4L161.1 23.9C161.5 24 161.8 24.4 161.7 24.8C161.6 25.1 161.3 25.4 161 25.4Z" fill="#E4E4EF"/>
<path d="M227.5 100.3H194.7V67.5H227.5V100.3ZM196.2 98.8H226V69H196.2V98.8Z" fill="#5F5FFF"/>
<path d="M208.2 191H159.7V142.5H208.2V191ZM161.1 189.5H206.6V144H161.1V189.5Z" fill="#5F5FFF"/>
<path d="M217.6 91.1C217.4 91.1 217.2 91 217.1 90.9L204.1 78C203.8 77.7 203.8 77.2 204.1 76.9C204.4 76.6 204.9 76.6 205.2 76.9L218.1 89.8C218.4 90.1 218.4 90.6 218.1 90.9C218 91.1 217.8 91.1 217.6 91.1Z" fill="#5F5FFF"/>
<path d="M204.6 91.1C204.4 91.1 204.2 91 204.1 90.9C203.8 90.6 203.8 90.1 204.1 89.8L217 76.9C217.3 76.6 217.8 76.6 218.1 76.9C218.4 77.2 218.4 77.7 218.1 78L205.2 90.9C205 91.1 204.8 91.1 204.6 91.1Z" fill="#5F5FFF"/>
<path d="M194.3 159.3H174C173.6 159.3 173.2 159 173.2 158.5C173.2 158 173.5 157.7 174 157.7H194.3C194.7 157.7 195.1 158 195.1 158.5C195.1 159 194.7 159.3 194.3 159.3Z" fill="#5F5FFF"/>
<path d="M194.3 165.7H174C173.6 165.7 173.2 165.4 173.2 164.9C173.2 164.4 173.5 164.1 174 164.1H194.3C194.7 164.1 195.1 164.4 195.1 164.9C195.1 165.4 194.7 165.7 194.3 165.7Z" fill="#5F5FFF"/>
<path d="M194.3 172H190.2C189.8 172 189.4 171.7 189.4 171.2C189.4 170.7 189.7 170.4 190.2 170.4H194.3C194.7 170.4 195.1 170.7 195.1 171.2C195.1 171.7 194.7 172 194.3 172Z" fill="#5F5FFF"/>
<path d="M186.4 172H174C173.6 172 173.2 171.7 173.2 171.2C173.2 170.7 173.5 170.4 174 170.4H186.4C186.8 170.4 187.2 170.7 187.2 171.2C187.2 171.7 186.8 172 186.4 172Z" fill="#5F5FFF"/>
<path d="M124.6 271.6L123.9 301L174.9 301.5C174.9 301.5 175.2 295.5 165.5 291C155.8 286.5 153.8 268.7 153.8 268.7L124.6 271.6Z" fill="#5F5FFF"/>
<path d="M32.7999 259.2L21.8999 286.5L69.4999 304.7C69.4999 304.7 71.7999 299.2 64.2999 291.6C56.7999 284 61.0999 266.6 61.0999 266.6L32.7999 259.2Z" fill="#5F5FFF"/>
<path d="M85.5996 154.5C86.3996 170.5 106.9 200.7 110.2 222.3C113.5 243.9 122.1 282.8 122.1 282.8L162.4 275.2C162.4 275.2 157.1 214.8 139.6 177.5C126.8 150.2 108.4 132.1 108.4 132.1L85.5996 154.5Z" fill="#030047"/>
<path d="M60.9997 281.7C59.4997 282.5 57.8998 283.4 56.3998 284.2C55.7998 284.5 56.2998 285.4 56.8998 285.1C58.3998 284.3 59.9997 283.4 61.4997 282.6C61.9997 282.3 61.4997 281.4 60.9997 281.7Z" fill="#030047"/>
<path d="M61.7001 284.9C60.5001 285.9 59.2001 286.8 58.0001 287.8C57.5001 288.2 58.0001 289.1 58.5001 288.7L62.2001 285.8C62.7001 285.3 62.2001 284.5 61.7001 284.9Z" fill="#030047"/>
<path d="M159 283.6C158.4 284.9 157.8 286.1 157.1 287.4C156.8 288 157.7 288.5 158 287.9L159.9 284.1C160.2 283.6 159.3 283.1 159 283.6Z" fill="#030047"/>
<path d="M161.9 287C161.3 288.3 160.7 289.5 160 290.8C159.7 291.4 160.6 291.9 160.9 291.3L162.8 287.5C163 287 162.2 286.5 161.9 287Z" fill="#030047"/>
<path d="M154.6 273.9C154.2 273.9 153.9 273.6 153.9 273.2C152.3 215.2 117.8 152.1 117.5 151.5C117.3 151.1 117.4 150.7 117.8 150.5C118.2 150.3 118.6 150.4 118.8 150.8C119.1 151.4 153.7 214.8 155.4 273.2C155.3 273.6 155 273.9 154.6 273.9Z" fill="white"/>
<path d="M124.4 164.5C124.3 164.5 124.2 164.5 124.1 164.5C123.7 164.4 123.5 163.9 123.7 163.5C125.6 158.4 123.3 151.4 123.3 151.3C123.2 150.9 123.4 150.5 123.8 150.3C124.2 150.2 124.6 150.4 124.8 150.8C124.9 151.1 127.4 158.4 125.2 164C125 164.3 124.7 164.5 124.4 164.5Z" fill="white"/>
<path d="M94.9 191.5C92 221.5 66.3 279 66.3 279L28.5 263C28.5 263 39.3 231.2 48.5 211.5C56 195.5 59.7 167 65.3 149.5C66.6 145.5 68 142 69.5 139.5L74.9 138.7L97 135.5C97.1 135.5 97.8 161.5 94.9 191.5Z" fill="#030047"/>
<path d="M93.9999 180.5C93.6999 180.5 93.4999 180.4 93.2999 180.1L90.7999 175.6L83.2999 172.9C82.8999 172.8 82.6999 172.3 82.7999 171.9C82.8999 171.5 83.3999 171.3 83.7999 171.4L91.7999 174.2L94.4999 179.2C94.6999 179.6 94.5999 180 94.1999 180.2C94.2999 180.5 94.1999 180.5 93.9999 180.5Z" fill="white"/>
<path d="M77.0998 130.8L74.9998 138.7L69.5998 139.5C68.0998 142.1 66.6998 145.5 65.3998 149.5C62.0998 148.3 57.8998 146.2 53.2998 142.4L77.0998 130.8Z" fill="#FF3E6C"/>
<path d="M41.3002 101.1C37.3002 114.5 40.4002 135.5 51.1002 143.1C51.1002 143.1 64.6002 138.4 67.8002 139.1C71.2002 133.3 75.1003 127.9 78.7002 122.2C74.1003 120.4 70.0002 119 69.1002 113.8C66.5002 99.8 83.1002 102.8 94.1002 106.1C96.8002 95.3 97.8002 78.4 97.8002 78.4C71.1002 71.6 47.7002 80 41.3002 101.1Z" fill="#FFCC3E"/>
<path d="M80.5998 139.2H53.7998C51.0998 139.2 48.7998 137 48.7998 134.2V96.1C48.7998 93.4 50.9998 91.1 53.7998 91.1H80.5998C83.2998 91.1 85.5998 93.3 85.5998 96.1V134.2C85.5998 136.9 83.3998 139.2 80.5998 139.2Z" fill="#5F5FFF"/>
<path d="M56.0999 91.1H53.8999C51.1999 91.1 48.8999 93.3 48.8999 96.1V134.2C48.8999 136.9 51.0999 139.2 53.8999 139.2H56.0999V91.1Z" fill="#030047"/>
<path d="M52.4998 131H48.5998C46.7998 131 45.2998 129.5 45.2998 127.7V127.1C45.2998 125.3 46.7998 123.8 48.5998 123.8H52.4998V131Z" fill="#030047"/>
<path d="M5.79999 296.4C5.39999 296.4 5 296.1 5 295.6V224.7C5 217.3 11 211.3 18.4 211.3H23.6C30.2 211.3 35.5 206 35.5 199.4V139.9C35.5 132.5 41.5 126.5 48.9 126.5C49.3 126.5 49.7 126.8 49.7 127.3C49.7 127.8 49.4 128.1 48.9 128.1C42.3 128.1 37 133.4 37 140V199.5C37 206.9 31 212.9 23.6 212.9H18.4C11.8 212.9 6.5 218.2 6.5 224.8V295.7C6.5 296.1 6.19999 296.4 5.79999 296.4Z" fill="#030047"/>
<path d="M11.6 297.3H0V291.5C0 288.3 2.59999 285.7 5.79999 285.7C8.99999 285.7 11.6 288.3 11.6 291.5V297.3Z" fill="#030047"/>
<path d="M119.3 51.6C122.4 59 122.6 66.9 112.9 70C106.3 72.1 98.3998 69 95.2998 61.6C92.1998 54.2 95.0999 46 101.7 43.2C108.3 40.4 116.2 44.2 119.3 51.6Z" fill="#FF3E6C"/>
<path d="M113.8 51.9C114.352 51.9 114.8 51.4523 114.8 50.9C114.8 50.3477 114.352 49.9 113.8 49.9C113.248 49.9 112.8 50.3477 112.8 50.9C112.8 51.4523 113.248 51.9 113.8 51.9Z" fill="#030047"/>
<path d="M114.5 41.5C114.5 34.9 103.6 42.3 101.7 43.2C95.7999 44.3 90.5999 52.1 92.3999 59C93.8999 64.9 100.7 71.9 104.3 70.2C110.2 66.7 111.1 60.9 108.4 55.4C109.4 54.2 108.2 52.4 108.7 51C109.4 48.8 114.6 43.9 114.5 41.5Z" fill="#5F5FFF"/>
<path d="M106.3 54.9C95.2997 53.9 96.5997 62.7 100.7 64.7C104.1 66.3 109.3 65.7 111.4 60.7C113.5 55.7 106.3 54.9 106.3 54.9Z" fill="#FF3E6C"/>
<path d="M107.3 58.7C105.2 57.6 102.6 58.1 101.1 60C100.7 60.5 101.4 61.2 101.8 60.7C103 59.2 105.1 58.7 106.8 59.6C107.4 59.8 107.9 59 107.3 58.7Z" fill="#030047"/>
<path d="M120.1 54C119 52.1 117.6 50.3 115.9 48.8C115.4 48.4 114.7 49.1 115.2 49.5C116.8 51 118.1 52.6 119.2 54.5C119.6 55.1 120.4 54.6 120.1 54Z" fill="#030047"/>
<path d="M105.7 78.6C90.1001 75.2 83.8001 82.6 78.2001 105.4C72.6001 128.2 62.6001 141.4 62.6001 141.4C62.6001 141.4 108 154.2 127.3 151.4C127.3 151.5 138.9 85.8 105.7 78.6Z" fill="#FFCC3E"/>
<path d="M93.3003 81.2L94.9003 73.4L116.2 75.8L113.6 85.4L93.3003 81.2Z" fill="#FFCC3E"/>
<path d="M77.9999 106.9C77.8999 106.9 77.8999 106.9 77.7999 106.9C77.3999 106.8 77.1999 106.4 77.2999 106L81.7999 91.4C81.8999 91 82.2999 90.8 82.6999 90.9C83.0999 91 83.2999 91.4 83.1999 91.8L78.6999 106.4C78.6999 106.7 78.3999 106.9 77.9999 106.9Z" fill="#030047"/>
<path d="M167.7 71.6C162.4 82.2 159 86.1 152.7 87.9C143.2 90.7 120.5 78.2 106.3 80.5L102.9 109.6C102.9 109.6 123.5 123 147.3 121.1C167.9 119.4 181.6 98.3 184.1 87.9C181.6 81 173.3 75.4 167.7 71.6Z" fill="#FFCC3E"/>
<path d="M125.1 119.2C125 119.2 124.9 119.2 124.8 119.1C124.8 119.1 121.3 117.6 117.9 117.6C117.5 117.6 117.2 117.3 117.1 116.9C117.1 116.5 117.5 116.1 117.9 116.1C121.6 116.1 125.2 117.6 125.4 117.7C125.8 117.9 126 118.3 125.8 118.7C125.6 119 125.4 119.2 125.1 119.2Z" fill="#030047"/>
<path d="M168.3 70.5C167.1 62 168.6 54.6 172.2 51.9C177.3 48.1 175.8 56.5 175.8 56.5L168.3 70.5Z" fill="#FF3E6C"/>
<path d="M179.8 46.5L161.5 64.9C159.8 66.6 162.5 69.3 164.2 67.6L182.5 49.2C183.4 48.3 184.6 45.7 183.9 45.1C183.3 44.3 180.7 45.6 179.8 46.5Z" fill="#5F5FFF"/>
<path d="M167.3 72.3C170.2 67.2 171.6 59 175 51.7C177.9 45.5 180.4 43.6 181.7 46.2C182.6 47.9 180.8 49.8 179.6 55.5C179.6 55.5 183.9 56.4 184.2 59.4C184.2 59.4 188 60.3 188.3 65.4C188.4 67.9 189.2 71 186.3 70.5C185.7 73.1 185.2 78.2 184.7 81.7C183.8 88 180.8 89.9 180.8 89.9L167.3 72.3Z" fill="#FF3E6C"/>
<path d="M178.9 56.5L178.2 58.5C178 59.1 178.9 59.4 179.2 58.8C179.4 58.1 179.7 57.5 179.9 56.8C180.1 56.1 179.1 55.9 178.9 56.5Z" fill="#030047"/>
<path d="M187.5 65.8C187.4 65.2 186.4 65.4 186.5 66.1C186.6 66.9 186.5 67.7 186.2 68.5C186 69.1 186.9 69.4 187.2 68.8C187.6 67.7 187.6 66.8 187.5 65.8Z" fill="#030047"/>
<path d="M173.4 55.3C172.2 57.6 171.4 60 171 62.6C170.9 63.2 171.9 63.5 172 62.9C172.4 60.4 173.1 58.1 174.3 55.8C174.5 55.2 173.7 54.7 173.4 55.3Z" fill="#030047"/>
<path d="M183.7 60.1C183.5 60.5 183.4 61 183.2 61.4C183 62 183.9 62.3 184.2 61.7C184.4 61.3 184.5 60.8 184.7 60.4C184.9 59.8 183.9 59.5 183.7 60.1Z" fill="#030047"/>
<path d="M215 46.5H183.2C182.8 46.5 182.4 46.2 182.4 45.7C182.4 45.2 182.7 44.9 183.2 44.9H213.5V4.2H170.9V24.5C170.9 24.9 170.6 25.3 170.1 25.3C169.6 25.3 169.3 25 169.3 24.5V2.7H215V46.5Z" fill="#5F5FFF"/>
<path d="M203.6 11.1C202.6 10.6 201.4 10.9 200.9 11.9L191.3 29.6L185.4 23.4C184.7 22.7 183.6 22.5 182.8 23C181.7 23.7 181.6 25.1 182.4 26L189.2 33.3L190.7 34.9C191.4 35.6 192.5 35.5 193 34.6L194.1 32.7L204.4 13.8C204.9 12.9 204.5 11.7 203.6 11.1Z" fill="#FF3E6C"/>
<path d="M217.2 0.5H211.1V6.6H217.2V0.5Z" fill="#FF3E6C"/>
</svg>
