<svg width="247" height="306" viewBox="0 0 247 306" fill="none" xmlns="http://www.w3.org/2000/svg">
<path d="M124.6 271.6L123.9 301L174.9 301.5C174.9 301.5 175.2 295.5 165.5 291C155.8 286.5 153.8 268.7 153.8 268.7L124.6 271.6Z" fill="#FF3E6C"/>
<path d="M175.6 302.2L123.1 301.7L123.8 270.9L154.4 267.9L154.5 268.6C154.5 268.8 156.6 286 165.8 290.3C175.8 294.9 175.7 301.2 175.7 301.5L175.6 302.2ZM124.6 300.2L174 300.7C173.7 299.1 172.3 295 165.1 291.7C156.2 287.6 153.6 273 153.1 269.6L125.3 272.4L124.6 300.2Z" fill="#FF3E6C"/>
<path d="M32.7999 259.2L21.8999 286.5L69.4999 304.7C69.4999 304.7 71.7999 299.2 64.2999 291.6C56.7999 284 61.0999 266.6 61.0999 266.6L32.7999 259.2Z" fill="#FF3E6C"/>
<path d="M70 305.7L21 286.9L32.4 258.3L62.1 266.1L61.9 266.8C61.9 267 57.8 283.9 64.9 291.1C72.7 298.9 70.3 304.8 70.2 305L70 305.7ZM22.9 286L69 303.7C69.3 302.1 69.4 297.7 63.8 292.1C56.9 285.1 59.5 270.6 60.2 267.2L33.2 260.1L22.9 286Z" fill="#FF3E6C"/>
<path d="M69.6001 139.5C61.3001 153.3 57.8001 191.8 48.6001 211.5C39.4001 231.2 28.6001 263 28.6001 263L66.4001 279C66.4001 279 92.1001 221.5 95.0001 191.5C97.9001 161.5 97.2001 135.5 97.2001 135.5L69.6001 139.5Z" fill="#030047"/>
<path d="M85.6001 154.5C86.4001 170.5 106.9 200.7 110.2 222.3C113.5 243.9 122.1 282.8 122.1 282.8L162.4 275.2C162.4 275.2 157.1 214.8 139.6 177.5C126.8 150.2 108.4 132.1 108.4 132.1L85.6001 154.5Z" fill="#030047"/>
<path d="M93.9999 180.5C93.6999 180.5 93.4999 180.4 93.2999 180.1L90.7999 175.6L83.2999 172.9C82.8999 172.8 82.6999 172.3 82.7999 171.9C82.8999 171.5 83.3999 171.3 83.7999 171.4L91.7999 174.2L94.4999 179.2C94.6999 179.6 94.5999 180 94.1999 180.2C94.2999 180.5 94.1999 180.5 93.9999 180.5Z" fill="white"/>
<path d="M60.9997 281.8C59.4997 282.6 57.8998 283.5 56.3998 284.3C55.7998 284.6 56.2998 285.5 56.8998 285.2C58.3998 284.4 59.9997 283.5 61.4997 282.7C61.9997 282.3 61.4997 281.4 60.9997 281.8Z" fill="#030047"/>
<path d="M61.7001 284.9C60.5001 285.9 59.2001 286.8 58.0001 287.8C57.5001 288.2 58.0001 289.1 58.5001 288.7L62.2001 285.8C62.7001 285.4 62.2001 284.5 61.7001 284.9Z" fill="#030047"/>
<path d="M159 283.7C158.4 285 157.8 286.2 157.1 287.5C156.8 288.1 157.7 288.6 158 288L159.9 284.2C160.2 283.6 159.3 283.1 159 283.7Z" fill="#030047"/>
<path d="M161.9 287.1C161.3 288.4 160.7 289.6 160 290.9C159.7 291.5 160.6 292 160.9 291.4L162.8 287.6C163 287 162.2 286.5 161.9 287.1Z" fill="#030047"/>
<path d="M154.6 274C154.2 274 153.9 273.7 153.9 273.3C152.3 215.3 117.8 152.2 117.5 151.6C117.3 151.2 117.4 150.8 117.8 150.6C118.2 150.4 118.6 150.5 118.8 150.9C119.1 151.5 153.7 214.9 155.4 273.3C155.3 273.6 155 274 154.6 274Z" fill="white"/>
<path d="M124.4 164.5C124.3 164.5 124.2 164.5 124.1 164.5C123.7 164.4 123.5 163.9 123.7 163.5C125.6 158.4 123.3 151.4 123.3 151.3C123.2 150.9 123.4 150.5 123.8 150.3C124.2 150.2 124.6 150.4 124.8 150.8C124.9 151.1 127.4 158.4 125.2 164C125 164.3 124.7 164.5 124.4 164.5Z" fill="white"/>
<path d="M119.2 51.9C122.3 59.3 122.5 67.2 112.8 70.3C106.2 72.4 98.3002 69.3 95.2002 61.9C92.1002 54.5 95.0002 46.3 101.6 43.5C108.2 40.7 116.1 44.5 119.2 51.9Z" fill="white"/>
<path d="M108.6 71.7C102.7 71.7 96.9001 68.1 94.5001 62.2C92.9001 58.5 92.8001 54.4 94.0001 50.7C95.3001 47 97.9001 44.2 101.3 42.8C108.3 39.9 116.6 43.8 119.9 51.6C122.1 56.9 122.4 61.4 120.9 64.8C119.6 67.7 116.9 69.7 113.1 71C111.6 71.5 110.1 71.7 108.6 71.7ZM106.2 43.4C104.8 43.4 103.3 43.7 101.9 44.3C98.9001 45.6 96.6001 48 95.5001 51.3C94.4001 54.6 94.5001 58.3 95.9001 61.7C99.0001 69 106.8 71.5 112.6 69.6C116.1 68.5 118.4 66.7 119.5 64.2C120.9 61.2 120.6 57.1 118.5 52.2C116.3 46.8 111.2 43.4 106.2 43.4Z" fill="#030047"/>
<path d="M113.7 52.2C114.252 52.2 114.7 51.7523 114.7 51.2C114.7 50.6477 114.252 50.2 113.7 50.2C113.148 50.2 112.7 50.6477 112.7 51.2C112.7 51.7523 113.148 52.2 113.7 52.2Z" fill="#030047"/>
<path d="M114.5 41.9C114.5 35.3 103.6 42.7 101.7 43.6C95.7999 44.7 90.5999 52.5 92.3999 59.4C93.8999 65.3 100.7 72.3 104.3 70.6C110.2 67.1 111.1 61.3 108.4 55.8C109.4 54.6 108.2 52.8 108.7 51.4C109.3 49.1 114.5 44.2 114.5 41.9Z" fill="#030047"/>
<path d="M106.3 55.2C95.2997 54.2 96.5997 63 100.7 65C104.1 66.6 109.3 66 111.4 61C113.5 56.1 106.3 55.2 106.3 55.2Z" fill="white"/>
<path d="M107.3 59C105.2 57.9 102.6 58.4 101.1 60.3C100.7 60.8 101.4 61.5 101.8 61C103 59.5 105.1 59.0001 106.8 59.9001C107.3 60.2001 107.8 59.3 107.3 59Z" fill="#030047"/>
<path d="M120.1 54.4C119 52.5 117.6 50.7 115.9 49.2C115.4 48.8 114.7 49.5 115.2 49.9C116.8 51.4 118.1 53 119.2 54.9C119.5 55.4 120.4 54.9 120.1 54.4Z" fill="#030047"/>
<path d="M72.2999 151.8H71.6999C71.2999 151.8 62.7999 151.4 52.7999 143L51.8999 142.3L78.2999 129.5L72.2999 151.8ZM54.5999 142.6C62.3999 148.8 69.1999 150 71.0999 150.2L75.8999 132.2L54.5999 142.6Z" fill="#030047"/>
<path d="M41.3002 101.1C37.3002 114.5 40.4002 135.5 51.1002 143.1C51.1002 143.1 64.6002 138.4 67.8002 139.1C71.2002 133.3 75.1003 127.9 78.7002 122.2C74.1003 120.4 70.0002 119 69.1002 113.8C66.5002 99.8 83.1002 102.8 94.1002 106.1C96.8002 95.3 97.8002 78.4 97.8002 78.4C71.1002 71.6 47.7002 80 41.3002 101.1Z" fill="#FF3E6C"/>
<path d="M51.0001 144L50.7001 143.8C39.9001 136.1 36.5 114.8 40.6 100.9C46.9 79.8 69.9001 70.5 97.9001 77.7L98.5001 77.9V78.5C98.5001 78.7 97.5 95.6 94.8 106.3L94.6 107.1L93.8 106.9C82.5 103.5 74.8001 103.3 71.5001 106.2C69.8001 107.8 69.2 110.3 69.8 113.7C70.7 118.4 74.3 119.8 78.8 121.5L79.7001 121.8L79.3 122.6C78.1 124.5 76.8 126.4 75.6 128.3C73.2 131.9 70.7001 135.7 68.5001 139.5L68.2001 140L67.7001 139.9C65.5001 139.4 56.8001 142 51.5001 143.9L51.0001 144ZM42.1 101.4C38.1 114.6 41.2 134.8 51.3 142.4C53.7 141.6 63.8001 138.2 67.4001 138.4C69.6001 134.7 72 131.1 74.3 127.6C75.4 126 76.5001 124.4 77.5001 122.7C73.1001 121 69.2 119.3 68.3 114C67.6 110 68.3001 107 70.4001 105.1C74.1001 101.8 81.8001 101.8 93.4001 105.2C95.6001 95.8 96.6001 82.1 96.9001 79C70.1001 72.3 48.1 81.3 42.1 101.4Z" fill="#FF3E6C"/>
<path d="M80.6003 139.2H53.8003C51.1003 139.2 48.8003 137 48.8003 134.2V96.1C48.8003 93.4 51.0003 91.1 53.8003 91.1H80.6003C83.3003 91.1 85.6003 93.3 85.6003 96.1V134.2C85.6003 137 83.4003 139.2 80.6003 139.2Z" fill="white"/>
<path d="M80.6001 139.9H53.8001C50.7001 139.9 48.1001 137.3 48.1001 134.2V96.1C48.1001 93 50.7001 90.4 53.8001 90.4H80.6001C83.7001 90.4 86.3001 93 86.3001 96.1V134.2C86.3001 137.4 83.8001 139.9 80.6001 139.9ZM53.9001 91.9C51.6001 91.9 49.7001 93.8 49.7001 96.1V134.2C49.7001 136.5 51.6001 138.4 53.9001 138.4H80.7001C83.0001 138.4 84.9001 136.5 84.9001 134.2V96.1C84.9001 93.8 83.0001 91.9 80.7001 91.9H53.9001Z" fill="#030047"/>
<path d="M56.0999 91.1H53.8999C51.1999 91.1 48.8999 93.3 48.8999 96.1V134.2C48.8999 136.9 51.0999 139.2 53.8999 139.2H56.0999V91.1Z" fill="#030047"/>
<path d="M52.4998 131.1H48.5998C46.7998 131.1 45.2998 129.6 45.2998 127.8V127.2C45.2998 125.4 46.7998 123.9 48.5998 123.9H52.4998V131.1Z" fill="#030047"/>
<path d="M5.79999 296.4C5.39999 296.4 5 296.1 5 295.6V224.7C5 217.3 11 211.3 18.4 211.3H23.6C30.2 211.3 35.5 206 35.5 199.4V139.9C35.5 132.5 41.5 126.5 48.9 126.5C49.3 126.5 49.7 126.8 49.7 127.3C49.7 127.8 49.4 128.1 48.9 128.1C42.3 128.1 37 133.4 37 140V199.5C37 206.9 31 212.9 23.6 212.9H18.4C11.8 212.9 6.5 218.2 6.5 224.8V295.7C6.5 296.1 6.19999 296.4 5.79999 296.4Z" fill="#030047"/>
<path d="M11.6 297.4H0V291.6C0 288.4 2.59999 285.8 5.79999 285.8C8.99999 285.8 11.6 288.4 11.6 291.6V297.4Z" fill="#030047"/>
<path d="M105.7 78.6C90.0996 75.2 83.7996 82.6 78.1996 105.4C72.5996 128.2 62.5996 141.4 62.5996 141.4C62.5996 141.4 108 154.2 127.3 151.4C127.3 151.5 138.9 85.8 105.7 78.6Z" fill="#FF3E6C"/>
<path d="M120.8 152.7C99.6998 152.7 63.9998 142.7 62.3998 142.2L61.2998 141.9L61.9998 141C62.0998 140.9 71.9998 127.6 77.4998 105.2C83.3998 81.1 90.2998 74.4 105.9 77.8C119.8 80.8 128 94.6 129.7 117.6C130.9 134.8 128.1 151.4 128 151.5L127.9 152L127.4 152.1C125.4 152.6 123.2 152.7 120.8 152.7ZM63.7998 141.1C70.5998 142.9 109.1 153.1 126.6 150.9C127.6 144.6 136 86 105.6 79.4C90.8998 76.2 84.6998 82.3 78.9998 105.7C74.1998 125.1 66.0998 137.7 63.7998 141.1Z" fill="#FF3E6C"/>
<path d="M93.2998 81.3L94.8998 73.4L116.2 75.8L113.6 85.4L93.2998 81.3Z" fill="#FF3E6C"/>
<path d="M114.2 86.3L92.5 81.8L94.4 72.5L117.2 75.1L114.2 86.3ZM94.2 80.7L113.1 84.6L115.2 76.5L95.5 74.3L94.2 80.7Z" fill="#FF3E6C"/>
<path d="M188.3 65.6C188 60.5 184.2 59.6 184.2 59.6C183.9 56.6 179.6 55.7 179.6 55.7C180.8 50 182.6 48.1 181.7 46.4C180.4 43.8 178 45.6 175.2 51.3C174.6 50.8 173.7 50.8 172.1 52C168.5 54.7 167 62 168.1 70.5C168.1 70.5 168.1 70.5 168.1 70.6C167.8 71.3 167.5 71.9 167.2 72.4L180.7 90.1C180.7 90.1 183.8 88.2 184.6 81.9C185.1 78.4 185.7 73.3 186.2 70.7C189.2 71.1 188.5 68.1 188.3 65.6Z" fill="white"/>
<path d="M180.6 91.1L166.4 72.4L166.6 72C166.9 71.5 167.2 71 167.4 70.4C166.2 61.7 167.9 54.2 171.7 51.4C173 50.5 174 50.1 174.9 50.3C176.9 46.4 178.6 44.5 180.2 44.5C180.8 44.5 181.7 44.8 182.3 46.1C182.9 47.4 182.5 48.6 181.8 50.5C181.4 51.7 180.8 53.2 180.4 55.3C181.7 55.7 184.3 56.8 184.8 59.2C185.9 59.7 188.7 61.2 188.9 65.7C188.9 66.1 189 66.4 189 66.8C189.1 68.5 189.3 70.2 188.3 71.1C187.9 71.5 187.4 71.6 186.8 71.6C186.4 73.6 186 76.6 185.7 79.2C185.6 80.2 185.4 81.2 185.3 82C184.4 88.6 181.2 90.7 181 90.8L180.6 91.1ZM168.2 72.3L180.9 89C181.7 88.2 183.4 86 184 81.8C184.1 80.9 184.2 80 184.4 79C184.8 76 185.2 72.5 185.7 70.6L185.9 69.9L186.6 70C186.9 70.1 187.4 70.1 187.6 69.9C188 69.5 187.9 68 187.8 66.8C187.8 66.4 187.7 66 187.7 65.7C187.5 61.3 184.3 60.4 184.2 60.4L183.7 60.3L183.6 59.8C183.4 57.4 179.6 56.6 179.6 56.5L178.9 56.3L179.1 55.6C179.6 53.1 180.3 51.3 180.7 49.9C181.3 48.2 181.6 47.4 181.2 46.7C180.9 46.2 180.7 45.9 180.4 45.9C180.1 45.9 178.7 46.2 176.1 51.6L175.7 52.5L175 51.8C174.5 51.4 173.4 52.2 172.9 52.5C169.6 55 168.1 62.1 169.2 70.3V70.5L169.1 70.7C168.7 71.3 168.4 71.8 168.2 72.3Z" fill="#030047"/>
<path d="M175.9 50.5L161.6 64.9C159.9 66.6 162.6 69.3 164.9 67L173.2 58.8C173.6 56.1 174.2 53.4 175.9 50.5Z" fill="#030047"/>
<path d="M184 45C183.6 44.6 182.3 45 181.2 45.5C182.2 46.8 181.8 48.7 181.4 50.3L182.5 49.2C183.4 48.3 184.7 45.7 184 45Z" fill="#030047"/>
<path d="M178.7 57.4L178 59.4C177.8 60 178.7 60.3 179 59.7C179.2 59 179.5 58.4 179.7 57.7C179.9 57.1 178.9 56.9 178.7 57.4Z" fill="#030047"/>
<path d="M187.5 65.8C187.4 65.2 186.4 65.4 186.5 66.1C186.6 66.9 186.5 67.7 186.2 68.5C186 69.1 186.9 69.4 187.2 68.8C187.6 67.8 187.6 66.8 187.5 65.8Z" fill="#030047"/>
<path d="M174.9 51.4C173.7 53.7 172.4 57.5 172 60.1C171.9 60.7 172.9 61 173 60.4C173.4 57.9 174.6 54.2 175.8 52C176.1 51.3 175.2 50.8 174.9 51.4Z" fill="#030047"/>
<path d="M183.1 60.4001C182.9 60.8001 182.8 61.3 182.6 61.7C182.4 62.3 183.3 62.6 183.6 62C183.8 61.6 183.9 61.1 184.1 60.7C184.3 60.1 183.4 59.8001 183.1 60.4001Z" fill="#030047"/>
<path d="M167.7 71.6C162.4 82.2 159 86.1 152.7 87.9C143.2 90.7 120.5 78.2 106.3 80.5L102.9 109.6C102.9 109.6 123.5 123 147.3 121.1C167.9 119.4 181.6 98.3 184.1 87.9C181.6 81.1 173.3 75.4 167.7 71.6Z" fill="#FF3E6C"/>
<path d="M142.5 122.1C120.8 122.1 102.6 110.4 102.4 110.3L102 110L105.5 79.9L106.1 79.8C113.6 78.5 123.2 81.3 132.4 83.9C140.4 86.2 148 88.4 152.4 87.1C158.4 85.4 161.7 81.8 167 71.2L167.4 70.4L168.1 70.9C173.7 74.7 182.2 80.4 184.8 87.6L184.9 87.8L184.8 88C182.2 98.6 168.2 120.1 147.4 121.8C145.7 122 144.1 122.1 142.5 122.1ZM103.7 109.3C106.6 111.1 125.7 122.2 147.2 120.4C167.2 118.8 180.7 98.3 183.3 88C180.9 81.6 173.4 76.4 168 72.7C162.8 83.1 159.2 86.8 152.9 88.6C148.1 90 140.3 87.7 132 85.4C123.6 83 114.1 80.2 106.9 81.2L103.7 109.3Z" fill="#FF3E6C"/>
<path d="M125.1 119.2C125 119.2 124.9 119.2 124.8 119.1C124.8 119.1 121.3 117.6 117.9 117.6C117.5 117.6 117.2 117.3 117.1 116.9C117.1 116.5 117.5 116.1 117.9 116.1C121.6 116.1 125.2 117.6 125.4 117.7C125.8 117.9 126 118.3 125.8 118.7C125.6 119 125.4 119.2 125.1 119.2Z" fill="#030047"/>
<path d="M215 46.5H183.2C182.8 46.5 182.4 46.2 182.4 45.7C182.4 45.2 182.7 44.9 183.2 44.9H213.5V4.20001H170.9V24.5C170.9 24.9 170.6 25.3 170.1 25.3C169.6 25.3 169.3 25 169.3 24.5V2.70001H215V46.5Z" fill="#030047"/>
<path d="M203.6 11.2C202.6 10.7 201.4 11 200.9 12L191.3 29.7L185.4 23.5C184.7 22.8 183.6 22.5999 182.8 23.0999C181.7 23.7999 181.6 25.2 182.4 26.0999L189.2 33.4L190.7 35C191.4 35.7 192.5 35.6 193 34.7L194.1 32.8L204.4 13.9C204.9 12.9 204.5 11.7 203.6 11.2Z" fill="#FF3E6C"/>
<path d="M217.2 0.5H211.1V6.59998H217.2V0.5Z" fill="#030047"/>
<path d="M191.878 120.295L182.511 141.41L203.626 150.777L212.993 129.662L191.878 120.295Z" fill="white"/>
<path d="M204.1 151.8L181.6 141.8L191.6 119.3L214.1 129.3L204.1 151.8ZM183.5 141L203.3 149.8L212.1 130L192.3 121.2L183.5 141Z" fill="#030047"/>
<path d="M188.5 96.4L210.2 115.1C210.2 115.1 218.6 101.4 210.2 93.7C199.7 84.1 188.5 96.4 188.5 96.4Z" fill="white"/>
<path d="M210.4 116.3L187.5 96.5L188 95.9C188.2 95.6 193.8 89.6 200.9 89.3C204.5 89.1 207.8 90.4 210.7 93.1C219.5 101.1 211.2 114.9 210.8 115.5L210.4 116.3ZM189.6 96.4L210 114C211.6 111.1 216.4 100.5 209.7 94.3C207 91.9 204.1 90.7 201 90.8C195.7 91.1 191.1 94.9 189.6 96.4Z" fill="#030047"/>
<path d="M201.201 117.8C204.57 117.8 207.301 115.069 207.301 111.7C207.301 108.331 204.57 105.6 201.201 105.6C197.832 105.6 195.101 108.331 195.101 111.7C195.101 115.069 197.832 117.8 201.201 117.8Z" fill="white"/>
<path d="M201.2 118.5C197.4 118.5 194.4 115.4 194.4 111.7C194.4 108 197.5 104.9 201.2 104.9C204.9 104.9 208 108 208 111.7C208 115.4 205 118.5 201.2 118.5ZM201.2 106.4C198.3 106.4 195.9 108.8 195.9 111.7C195.9 114.6 198.3 117 201.2 117C204.1 117 206.5 114.6 206.5 111.7C206.5 108.8 204.2 106.4 201.2 106.4Z" fill="#030047"/>
<path d="M217.6 156.4C217.4 156.4 217.1 156.3 217 156.1L213.6 151.5C213.4 151.2 213.4 150.7 213.8 150.5C214.1 150.3 214.6 150.3 214.8 150.7L218.2 155.3C218.4 155.6 218.4 156.1 218 156.3C217.9 156.4 217.7 156.4 217.6 156.4Z" fill="#030047"/>
<path d="M146.8 139.9C146.6 139.9 146.4 139.8 146.2 139.7C145.9 139.4 145.9 138.9 146.3 138.6L154.1 131.6C154.4 131.3 154.9 131.3 155.2 131.7C155.5 132 155.5 132.5 155.1 132.8L147.3 139.8C147.1 139.9 147 139.9 146.8 139.9Z" fill="#030047"/>
<path d="M176.8 125.5C176.6 125.5 176.4 125.4 176.2 125.2L173.4 121.8C173.1 121.5 173.2 121 173.5 120.7C173.8 120.4 174.3 120.5 174.6 120.8L177.4 124.2C177.7 124.5 177.6 125 177.3 125.3C177.1 125.5 177 125.5 176.8 125.5Z" fill="#030047"/>
<path d="M214.2 59.9C214 59.9 213.9 59.8 213.7 59.7C213.4 59.4 213.3 59 213.6 58.6L217 54.5C217.3 54.2 217.7 54.1 218.1 54.4C218.4 54.7 218.5 55.1 218.2 55.5L214.8 59.6C214.6 59.8 214.4 59.9 214.2 59.9Z" fill="#030047"/>
<path d="M245.8 97.2C245.6 97.2 245.4 97.1 245.2 96.9L238.2 88.5C237.9 88.2 238 87.7 238.3 87.4C238.6 87.1 239.1 87.2 239.4 87.5L246.4 95.9C246.7 96.2 246.6 96.7 246.3 97C246.1 97.2 246 97.2 245.8 97.2Z" fill="#030047"/>
<path d="M161 25.4C160.9 25.4 160.9 25.4 160.8 25.4L154.4 23.9C154 23.8 153.7 23.4 153.8 23C153.9 22.6 154.3 22.3 154.7 22.4L161.1 23.9C161.5 24 161.8 24.4 161.7 24.8C161.6 25.2 161.3 25.4 161 25.4Z" fill="#030047"/>
<path d="M226.8 68.3H195.5V99.6H226.8V68.3Z" fill="white"/>
<path d="M227.5 100.3H194.7V67.5H227.5V100.3ZM196.2 98.8H226V69H196.2V98.8Z" fill="#030047"/>
<path d="M207.4 143.2H160.4V190.2H207.4V143.2Z" fill="white"/>
<path d="M208.2 191H159.7V142.5H208.2V191ZM161.1 189.5H206.6V144H161.1V189.5Z" fill="#030047"/>
<path d="M217.6 91.2C217.4 91.2 217.2 91.1 217.1 91L204.1 78C203.8 77.7 203.8 77.2 204.1 76.9C204.4 76.6 204.9 76.6 205.2 76.9L218.1 89.8C218.4 90.1 218.4 90.6 218.1 90.9C218 91.1 217.8 91.2 217.6 91.2Z" fill="#030047"/>
<path d="M204.6 91.2C204.4 91.2 204.2 91.1 204.1 91C203.8 90.7 203.8 90.2 204.1 89.9L217 77C217.3 76.7 217.8 76.7 218.1 77C218.4 77.3 218.4 77.8 218.1 78.1L205.2 91C205 91.1 204.8 91.2 204.6 91.2Z" fill="#030047"/>
<path d="M194.3 159.3H174C173.6 159.3 173.2 159 173.2 158.5C173.2 158 173.5 157.7 174 157.7H194.3C194.7 157.7 195.1 158 195.1 158.5C195.1 159 194.7 159.3 194.3 159.3Z" fill="#030047"/>
<path d="M194.3 165.7H174C173.6 165.7 173.2 165.4 173.2 164.9C173.2 164.4 173.5 164.1 174 164.1H194.3C194.7 164.1 195.1 164.4 195.1 164.9C195.1 165.4 194.7 165.7 194.3 165.7Z" fill="#030047"/>
<path d="M194.3 172H190.2C189.8 172 189.4 171.7 189.4 171.2C189.4 170.7 189.7 170.4 190.2 170.4H194.3C194.7 170.4 195.1 170.7 195.1 171.2C195.1 171.7 194.7 172 194.3 172Z" fill="#030047"/>
<path d="M186.4 172H174C173.6 172 173.2 171.7 173.2 171.2C173.2 170.7 173.5 170.4 174 170.4H186.4C186.8 170.4 187.2 170.7 187.2 171.2C187.2 171.7 186.8 172 186.4 172Z" fill="#030047"/>
</svg>
